G04 #@! TF.GenerationSoftware,KiCad,Pcbnew,9.0.2*
G04 #@! TF.CreationDate,2025-10-16T12:19:46-05:00*
G04 #@! TF.ProjectId,pocket-caddy,706f636b-6574-42d6-9361-6464792e6b69,rev?*
G04 #@! TF.SameCoordinates,Original*
G04 #@! TF.FileFunction,Copper,L4,Bot*
G04 #@! TF.FilePolarity,Positive*
%FSLAX46Y46*%
G04 Gerber Fmt 4.6, Leading zero omitted, Abs format (unit mm)*
G04 Created by KiCad (PCBNEW 9.0.2) date 2025-10-16 12:19:46*
%MOMM*%
%LPD*%
G01*
G04 APERTURE LIST*
G04 Aperture macros list*
%AMRoundRect*
0 Rectangle with rounded corners*
0 $1 Rounding radius*
0 $2 $3 $4 $5 $6 $7 $8 $9 X,Y pos of 4 corners*
0 Add a 4 corners polygon primitive as box body*
4,1,4,$2,$3,$4,$5,$6,$7,$8,$9,$2,$3,0*
0 Add four circle primitives for the rounded corners*
1,1,$1+$1,$2,$3*
1,1,$1+$1,$4,$5*
1,1,$1+$1,$6,$7*
1,1,$1+$1,$8,$9*
0 Add four rect primitives between the rounded corners*
20,1,$1+$1,$2,$3,$4,$5,0*
20,1,$1+$1,$4,$5,$6,$7,0*
20,1,$1+$1,$6,$7,$8,$9,0*
20,1,$1+$1,$8,$9,$2,$3,0*%
%AMRotRect*
0 Rectangle, with rotation*
0 The origin of the aperture is its center*
0 $1 length*
0 $2 width*
0 $3 Rotation angle, in degrees counterclockwise*
0 Add horizontal line*
21,1,$1,$2,0,0,$3*%
G04 Aperture macros list end*
G04 #@! TA.AperFunction,HeatsinkPad*
%ADD10O,2.100000X1.000000*%
G04 #@! TD*
G04 #@! TA.AperFunction,HeatsinkPad*
%ADD11O,1.800000X1.000000*%
G04 #@! TD*
G04 #@! TA.AperFunction,ComponentPad*
%ADD12C,6.400000*%
G04 #@! TD*
G04 #@! TA.AperFunction,ComponentPad*
%ADD13C,2.000000*%
G04 #@! TD*
G04 #@! TA.AperFunction,ComponentPad*
%ADD14R,1.700000X1.700000*%
G04 #@! TD*
G04 #@! TA.AperFunction,ComponentPad*
%ADD15O,1.700000X1.700000*%
G04 #@! TD*
G04 #@! TA.AperFunction,ComponentPad*
%ADD16RoundRect,0.250001X0.799999X-0.799999X0.799999X0.799999X-0.799999X0.799999X-0.799999X-0.799999X0*%
G04 #@! TD*
G04 #@! TA.AperFunction,ComponentPad*
%ADD17C,2.100000*%
G04 #@! TD*
G04 #@! TA.AperFunction,ComponentPad*
%ADD18C,1.700000*%
G04 #@! TD*
G04 #@! TA.AperFunction,HeatsinkPad*
%ADD19C,0.500000*%
G04 #@! TD*
G04 #@! TA.AperFunction,HeatsinkPad*
%ADD20C,0.600000*%
G04 #@! TD*
G04 #@! TA.AperFunction,ComponentPad*
%ADD21R,1.500000X1.500000*%
G04 #@! TD*
G04 #@! TA.AperFunction,ComponentPad*
%ADD22C,1.600000*%
G04 #@! TD*
G04 #@! TA.AperFunction,SMDPad,CuDef*
%ADD23R,0.850000X1.100000*%
G04 #@! TD*
G04 #@! TA.AperFunction,SMDPad,CuDef*
%ADD24R,0.750000X1.100000*%
G04 #@! TD*
G04 #@! TA.AperFunction,SMDPad,CuDef*
%ADD25R,1.200000X1.000000*%
G04 #@! TD*
G04 #@! TA.AperFunction,SMDPad,CuDef*
%ADD26R,1.550000X1.350000*%
G04 #@! TD*
G04 #@! TA.AperFunction,SMDPad,CuDef*
%ADD27R,1.900000X1.350000*%
G04 #@! TD*
G04 #@! TA.AperFunction,SMDPad,CuDef*
%ADD28R,1.170000X1.800000*%
G04 #@! TD*
G04 #@! TA.AperFunction,SMDPad,CuDef*
%ADD29RotRect,5.100000X5.100000X225.000000*%
G04 #@! TD*
G04 #@! TA.AperFunction,SMDPad,CuDef*
%ADD30C,17.800000*%
G04 #@! TD*
G04 #@! TA.AperFunction,ViaPad*
%ADD31C,0.600000*%
G04 #@! TD*
G04 #@! TA.AperFunction,Conductor*
%ADD32C,0.400000*%
G04 #@! TD*
G04 #@! TA.AperFunction,Conductor*
%ADD33C,0.600000*%
G04 #@! TD*
G04 #@! TA.AperFunction,Conductor*
%ADD34C,0.250000*%
G04 #@! TD*
G04 #@! TA.AperFunction,Conductor*
%ADD35C,0.200000*%
G04 #@! TD*
G04 APERTURE END LIST*
D10*
X166815000Y-82680000D03*
D11*
X162635000Y-82680000D03*
D10*
X166815000Y-91320000D03*
D11*
X162635000Y-91320000D03*
D12*
X164100000Y-125900000D03*
D13*
X216650000Y-58950000D03*
X216650000Y-65450000D03*
X212150000Y-58950000D03*
X212150000Y-65450000D03*
X213850000Y-115600000D03*
X220350000Y-115600000D03*
X213850000Y-120100000D03*
X220350000Y-120100000D03*
D14*
X183300000Y-100960000D03*
D15*
X183300000Y-103500000D03*
X183300000Y-106040000D03*
X183300000Y-108580000D03*
D12*
X223900000Y-125900000D03*
D16*
X223175000Y-102790000D03*
D17*
X223175000Y-100250000D03*
X223175000Y-97710000D03*
D14*
X213660000Y-89100000D03*
D18*
X216200000Y-89100000D03*
X218740000Y-89100000D03*
D14*
X215400000Y-44800000D03*
D18*
X212860000Y-44800000D03*
X215400000Y-47340000D03*
X212860000Y-47340000D03*
X215400000Y-49880000D03*
X212860000Y-49880000D03*
X215400000Y-52420000D03*
X212860000Y-52420000D03*
D19*
X217190000Y-106690000D03*
X217915000Y-107665000D03*
X217190000Y-107665000D03*
X216465000Y-107665000D03*
X217190000Y-108640000D03*
D12*
X218700000Y-34100000D03*
D20*
X173550000Y-107027500D03*
X174650000Y-107027500D03*
X173000000Y-106477500D03*
X174100000Y-106477500D03*
X175200000Y-106477500D03*
X173550000Y-105927500D03*
X174650000Y-105927500D03*
X173000000Y-105377500D03*
X174100000Y-105377500D03*
X175200000Y-105377500D03*
X173550000Y-104827500D03*
X174650000Y-104827500D03*
D13*
X190350000Y-120100000D03*
X183850000Y-120100000D03*
X190350000Y-115600000D03*
X183850000Y-115600000D03*
D21*
X214512500Y-84900000D03*
D22*
X217052500Y-84900000D03*
X211972500Y-84900000D03*
D12*
X223900000Y-80000000D03*
D13*
X198850000Y-115600000D03*
X205350000Y-115600000D03*
X198850000Y-120100000D03*
X205350000Y-120100000D03*
D23*
X171395000Y-128412500D03*
X172495000Y-128412500D03*
X173595000Y-128412500D03*
X174695000Y-128412500D03*
X175795000Y-128412500D03*
X176895000Y-128412500D03*
X177995000Y-128412500D03*
D24*
X179045000Y-128412500D03*
D25*
X168760000Y-122262500D03*
X168760000Y-118562500D03*
D26*
X168935000Y-128287500D03*
D27*
X172260000Y-117587500D03*
X178230000Y-117587500D03*
D28*
X180255000Y-128062500D03*
D29*
X209986538Y-93263462D03*
X191884604Y-111365396D03*
D30*
X200935571Y-102314429D03*
D31*
X161250000Y-52500000D03*
X201250000Y-72500000D03*
X188500000Y-83000000D03*
X168750000Y-57500000D03*
X181250000Y-32500000D03*
X174000000Y-101500000D03*
X216750000Y-77950000D03*
X193750000Y-77500000D03*
X202500000Y-101000000D03*
X190000000Y-95000000D03*
X208750000Y-47500000D03*
X221500000Y-73000000D03*
X206250000Y-52500000D03*
X182500000Y-70000000D03*
X191250000Y-72500000D03*
X208750000Y-57500000D03*
X183750000Y-37500000D03*
X188750000Y-37500000D03*
X163750000Y-77500000D03*
X193750000Y-37500000D03*
X225000000Y-90500000D03*
X203750000Y-67500000D03*
X203000000Y-89500000D03*
X180300000Y-117000000D03*
X202500000Y-84500000D03*
X209000000Y-83500000D03*
X173000000Y-102500000D03*
X173750000Y-77500000D03*
X224000000Y-86500000D03*
X224000000Y-85500000D03*
X175000000Y-102500000D03*
X198750000Y-77500000D03*
X172000000Y-101500000D03*
X170500000Y-123000000D03*
X194500000Y-83000000D03*
X208750000Y-77500000D03*
X182500000Y-73000000D03*
X193000000Y-105000000D03*
X188500000Y-93500000D03*
X213200000Y-68600000D03*
X221500000Y-76000000D03*
X196250000Y-72500000D03*
X221500000Y-75000000D03*
X187000000Y-83000000D03*
X213215000Y-97287500D03*
X198500000Y-107500000D03*
X171250000Y-72500000D03*
X182500000Y-76000000D03*
X221500000Y-74000000D03*
X214015000Y-98087500D03*
X194500000Y-107500000D03*
X198750000Y-67500000D03*
X195500000Y-108500000D03*
X201000000Y-86000000D03*
X166250000Y-62500000D03*
X168750000Y-77500000D03*
X198000000Y-89000000D03*
X224000000Y-89500000D03*
X167937500Y-94637500D03*
X168000000Y-101000000D03*
X191500000Y-83000000D03*
X223981989Y-88542564D03*
X168750000Y-37500000D03*
X163750000Y-57500000D03*
X171250000Y-62500000D03*
X187500000Y-70000000D03*
X168000000Y-110000000D03*
X213215000Y-98087500D03*
X206250000Y-62500000D03*
X186250000Y-32500000D03*
X178500000Y-89000000D03*
X208000000Y-106000000D03*
X208750000Y-37500000D03*
X224000000Y-84500000D03*
X216750000Y-78550000D03*
X168750000Y-67500000D03*
X161250000Y-42500000D03*
X171250000Y-52500000D03*
X171250000Y-32500000D03*
X206000000Y-86500000D03*
X161250000Y-62500000D03*
X191500000Y-95000000D03*
X178750000Y-77500000D03*
X201250000Y-52500000D03*
X166250000Y-32500000D03*
X207500000Y-85000000D03*
X168000000Y-107000000D03*
X161250000Y-72500000D03*
X168000000Y-104000000D03*
X205500000Y-81500000D03*
X197500000Y-108500000D03*
X190000000Y-83000000D03*
X188500000Y-95000000D03*
X166250000Y-42500000D03*
X176500000Y-91000000D03*
X175000000Y-100500000D03*
X187500000Y-79000000D03*
X203750000Y-37500000D03*
X176250000Y-32500000D03*
X202500000Y-104000000D03*
X185500000Y-93500000D03*
X184000000Y-93500000D03*
X218050000Y-94000000D03*
X184000000Y-95000000D03*
X182500000Y-74500000D03*
X224006869Y-87522481D03*
X190000000Y-93500000D03*
X204000000Y-102500000D03*
X171000000Y-102500000D03*
X168000000Y-108500000D03*
X198750000Y-47500000D03*
X206250000Y-72500000D03*
X201000000Y-102500000D03*
X171250000Y-42500000D03*
X171500000Y-123000000D03*
X193000000Y-95000000D03*
X193000000Y-83000000D03*
X214815000Y-98087500D03*
X201000000Y-101000000D03*
X182500000Y-79000000D03*
X198750000Y-57500000D03*
X206250000Y-32500000D03*
X193500000Y-106500000D03*
X214815000Y-96487500D03*
X187500000Y-77500000D03*
X168000000Y-102500000D03*
X214815000Y-97287500D03*
X187000000Y-95000000D03*
X163750000Y-37500000D03*
X191250000Y-32500000D03*
X203000000Y-107500000D03*
X203750000Y-57500000D03*
X201500000Y-107500000D03*
X208750000Y-67500000D03*
X203750000Y-77500000D03*
X166250000Y-72500000D03*
X204000000Y-83000000D03*
X199500000Y-87500000D03*
X187500000Y-71500000D03*
X163750000Y-47500000D03*
X214015000Y-97287500D03*
X168000000Y-105500000D03*
X201250000Y-42500000D03*
X216750000Y-79150000D03*
X201000000Y-104000000D03*
X187500000Y-73000000D03*
X163750000Y-67500000D03*
X198750000Y-37500000D03*
X166250000Y-52500000D03*
X226000000Y-91500000D03*
X173750000Y-37500000D03*
X196500000Y-109500000D03*
X177500000Y-90000000D03*
X176250000Y-72500000D03*
X176500000Y-92500000D03*
X201250000Y-62500000D03*
X174300000Y-84400000D03*
X166500000Y-121500000D03*
X178750000Y-37500000D03*
X204500000Y-88000000D03*
X185500000Y-95000000D03*
X193000000Y-93500000D03*
X168750000Y-47500000D03*
X206500000Y-107000000D03*
X187000000Y-93500000D03*
X203750000Y-47500000D03*
X201250000Y-32500000D03*
X205000000Y-107000000D03*
X182500000Y-77500000D03*
X214015000Y-96487500D03*
X200000000Y-107500000D03*
X204000000Y-104000000D03*
X176500000Y-94000000D03*
X171000000Y-100500000D03*
X213215000Y-96487500D03*
X161250000Y-32500000D03*
X197900000Y-98700000D03*
X204000000Y-101000000D03*
X222200000Y-95700000D03*
X187500000Y-74500000D03*
X196250000Y-32500000D03*
X187500000Y-76000000D03*
X176500000Y-95500000D03*
X206250000Y-42500000D03*
X176900000Y-127300000D03*
X173000000Y-100500000D03*
X202500000Y-102500000D03*
X191500000Y-93500000D03*
X182500000Y-71500000D03*
X205400000Y-93300000D03*
X216850000Y-97287500D03*
X214215000Y-94365000D03*
X211300000Y-70500000D03*
X213300000Y-71500000D03*
X211300000Y-75500000D03*
X167900000Y-112200000D03*
X213300000Y-75500000D03*
X211300000Y-71500000D03*
X167900000Y-114037500D03*
X217950000Y-74250000D03*
X213300000Y-73500000D03*
X178800000Y-93700000D03*
X211300000Y-73500000D03*
X213300000Y-70500000D03*
X201100000Y-82600000D03*
X212300000Y-70500000D03*
X201100000Y-80900000D03*
X213300000Y-72500000D03*
X203100000Y-93000000D03*
X213300000Y-74500000D03*
X216325000Y-102400000D03*
X211300000Y-74500000D03*
X212300000Y-71500000D03*
X212300000Y-75500000D03*
X178100000Y-121137500D03*
X214700000Y-74250000D03*
X174700000Y-127500000D03*
X208900000Y-110000000D03*
X212300000Y-73500000D03*
X211300000Y-72500000D03*
X212300000Y-72500000D03*
X212300000Y-74500000D03*
X167900000Y-113100000D03*
X169400000Y-113100000D03*
X178400000Y-100600000D03*
X176900000Y-100600000D03*
X173900000Y-114100000D03*
X173595000Y-125300000D03*
X176900000Y-122700000D03*
X175400000Y-114137500D03*
X174600000Y-113537500D03*
X175795000Y-124500000D03*
X172400000Y-114100000D03*
X172495000Y-126800000D03*
X172400000Y-99600000D03*
X191600000Y-101100000D03*
X220700000Y-109400000D03*
X196375735Y-111724265D03*
X218565000Y-104965000D03*
X197500000Y-111700000D03*
X188200000Y-103100000D03*
X217387703Y-104965000D03*
X212450000Y-95600000D03*
X188300000Y-86800000D03*
X170400000Y-96700000D03*
X166200000Y-85950000D03*
X166200000Y-87250000D03*
D32*
X220200000Y-50800000D02*
X216740000Y-47340000D01*
X218740000Y-89100000D02*
X220200000Y-87640000D01*
X216740000Y-47340000D02*
X215400000Y-47340000D01*
X220200000Y-87640000D02*
X220200000Y-50800000D01*
D33*
X205400000Y-93300000D02*
X209950000Y-93300000D01*
X209950000Y-93300000D02*
X209986538Y-93263462D01*
D34*
X216850000Y-97000000D02*
X214215000Y-94365000D01*
X216850000Y-97287500D02*
X216850000Y-97000000D01*
D32*
X219400000Y-52400000D02*
X219400000Y-85200000D01*
X219400000Y-85200000D02*
X217200000Y-87400000D01*
X217200000Y-87400000D02*
X215360000Y-87400000D01*
X215360000Y-87400000D02*
X213660000Y-89100000D01*
X215400000Y-49880000D02*
X216880000Y-49880000D01*
X216880000Y-49880000D02*
X219400000Y-52400000D01*
X174695000Y-128412500D02*
X174695000Y-127505000D01*
X174695000Y-127505000D02*
X174700000Y-127500000D01*
D35*
X217950000Y-74250000D02*
X214700000Y-74250000D01*
D32*
X191400000Y-98200000D02*
X210500000Y-79100000D01*
X169400000Y-99100000D02*
X170300000Y-98200000D01*
X170300000Y-98200000D02*
X191400000Y-98200000D01*
X169400000Y-113100000D02*
X169500000Y-113100000D01*
X210500000Y-79100000D02*
X210500000Y-67100000D01*
X210500000Y-67100000D02*
X212150000Y-65450000D01*
X169400000Y-113000000D02*
X169400000Y-99100000D01*
X169500000Y-113100000D02*
X169400000Y-113000000D01*
D34*
X188100000Y-117300000D02*
X178400000Y-107600000D01*
X197150000Y-117300000D02*
X188100000Y-117300000D01*
X198850000Y-115600000D02*
X197150000Y-117300000D01*
X178400000Y-107600000D02*
X178400000Y-100600000D01*
X176900000Y-111500000D02*
X176900000Y-100600000D01*
X211350000Y-118100000D02*
X183500000Y-118100000D01*
X183500000Y-118100000D02*
X176900000Y-111500000D01*
X213850000Y-115600000D02*
X211350000Y-118100000D01*
X173595000Y-119705000D02*
X174600000Y-118700000D01*
X173900000Y-114700000D02*
X173900000Y-114100000D01*
X173595000Y-125300000D02*
X173595000Y-119705000D01*
X173595000Y-128412500D02*
X173595000Y-125300000D01*
X174600000Y-118700000D02*
X174600000Y-115400000D01*
X174600000Y-115400000D02*
X173900000Y-114700000D01*
X175400000Y-114137500D02*
X176900000Y-115637500D01*
X176900000Y-115637500D02*
X176900000Y-122700000D01*
X176900000Y-122700000D02*
X176900000Y-124700000D01*
X177995000Y-125795000D02*
X177995000Y-128412500D01*
X176900000Y-124700000D02*
X177995000Y-125795000D01*
X175795000Y-128412500D02*
X175795000Y-124500000D01*
X174600000Y-114400000D02*
X174600000Y-113537500D01*
X175795000Y-124500000D02*
X175795000Y-115595000D01*
X175795000Y-115595000D02*
X174600000Y-114400000D01*
X173600000Y-115300000D02*
X172400000Y-114100000D01*
X173600000Y-118524500D02*
X173600000Y-115300000D01*
X172495000Y-119629500D02*
X173600000Y-118524500D01*
X172495000Y-128412500D02*
X172495000Y-126800000D01*
X172495000Y-126800000D02*
X172495000Y-119629500D01*
X190100000Y-99600000D02*
X191600000Y-101100000D01*
X172400000Y-99600000D02*
X190100000Y-99600000D01*
X220700000Y-109400000D02*
X217930000Y-106630000D01*
X217930000Y-106630000D02*
X217930000Y-105600000D01*
D35*
X197047943Y-112300000D02*
X188747943Y-104000000D01*
X212100000Y-105600000D02*
X205400000Y-112300000D01*
X217930000Y-105600000D02*
X212100000Y-105600000D01*
X188747943Y-104000000D02*
X186340000Y-104000000D01*
X186340000Y-104000000D02*
X183300000Y-100960000D01*
X218565000Y-104965000D02*
X217930000Y-105600000D01*
X205400000Y-112300000D02*
X197047943Y-112300000D01*
X205000000Y-111800000D02*
X211835000Y-104965000D01*
X211835000Y-104965000D02*
X217387703Y-104965000D01*
X188600000Y-103100000D02*
X197300000Y-111800000D01*
X188200000Y-103100000D02*
X188600000Y-103100000D01*
X197300000Y-111800000D02*
X205000000Y-111800000D01*
D34*
X214700000Y-103300000D02*
X222665000Y-103300000D01*
X222665000Y-103300000D02*
X223175000Y-102790000D01*
X212450000Y-95600000D02*
X212147500Y-95902500D01*
X212147500Y-100747500D02*
X214700000Y-103300000D01*
X212147500Y-95902500D02*
X212147500Y-100747500D01*
D32*
X170400000Y-96700000D02*
X178400000Y-96700000D01*
X178400000Y-96700000D02*
X188300000Y-86800000D01*
D35*
X166200000Y-85950000D02*
X166200000Y-87250000D01*
G04 #@! TA.AperFunction,Conductor*
G36*
X218703032Y-30500649D02*
G01*
X218764007Y-30503644D01*
X219046735Y-30517534D01*
X219058837Y-30518726D01*
X219396212Y-30568770D01*
X219408122Y-30571139D01*
X219738991Y-30654018D01*
X219750604Y-30657541D01*
X220014957Y-30752128D01*
X220071728Y-30772442D01*
X220082969Y-30777098D01*
X220291376Y-30875666D01*
X220391294Y-30922923D01*
X220402011Y-30928651D01*
X220694545Y-31103990D01*
X220704663Y-31110750D01*
X220978610Y-31313923D01*
X220988016Y-31321643D01*
X221240725Y-31550685D01*
X221249314Y-31559274D01*
X221309608Y-31625798D01*
X221478356Y-31811983D01*
X221486076Y-31821389D01*
X221689249Y-32095336D01*
X221696009Y-32105454D01*
X221871341Y-32397976D01*
X221877078Y-32408709D01*
X222022901Y-32717030D01*
X222027557Y-32728271D01*
X222142453Y-33049379D01*
X222145986Y-33061024D01*
X222228857Y-33391864D01*
X222231231Y-33403800D01*
X222281272Y-33741158D01*
X222282465Y-33753267D01*
X222299351Y-34096967D01*
X222299500Y-34103052D01*
X222299500Y-74914469D01*
X222332080Y-75141075D01*
X222332083Y-75141085D01*
X222396583Y-75360751D01*
X222491680Y-75568985D01*
X222491693Y-75569008D01*
X222615456Y-75761587D01*
X222615460Y-75761593D01*
X222765384Y-75934615D01*
X222938406Y-76084539D01*
X222938412Y-76084543D01*
X223130991Y-76208306D01*
X223131014Y-76208319D01*
X223339248Y-76303416D01*
X223339252Y-76303417D01*
X223339254Y-76303418D01*
X223558920Y-76367918D01*
X223558921Y-76367918D01*
X223558924Y-76367919D01*
X223626494Y-76377633D01*
X223785530Y-76400500D01*
X223834108Y-76400500D01*
X223896948Y-76400500D01*
X223903032Y-76400649D01*
X223964007Y-76403644D01*
X224246735Y-76417534D01*
X224258837Y-76418726D01*
X224596212Y-76468770D01*
X224608122Y-76471139D01*
X224938991Y-76554018D01*
X224950604Y-76557541D01*
X225214957Y-76652128D01*
X225271728Y-76672442D01*
X225282969Y-76677098D01*
X225501500Y-76780454D01*
X225591294Y-76822923D01*
X225602011Y-76828651D01*
X225894545Y-77003990D01*
X225904663Y-77010750D01*
X226178610Y-77213923D01*
X226188016Y-77221643D01*
X226440725Y-77450685D01*
X226449314Y-77459274D01*
X226509608Y-77525798D01*
X226678356Y-77711983D01*
X226686076Y-77721389D01*
X226889249Y-77995336D01*
X226896009Y-78005454D01*
X227071341Y-78297976D01*
X227077078Y-78308709D01*
X227222901Y-78617030D01*
X227227557Y-78628271D01*
X227342453Y-78949379D01*
X227345985Y-78961021D01*
X227387753Y-79127770D01*
X227428857Y-79291864D01*
X227431231Y-79303800D01*
X227481272Y-79641158D01*
X227482465Y-79653267D01*
X227499351Y-79996967D01*
X227499500Y-80003052D01*
X227499500Y-125896947D01*
X227499351Y-125903032D01*
X227482465Y-126246732D01*
X227481272Y-126258841D01*
X227431231Y-126596199D01*
X227428857Y-126608135D01*
X227345986Y-126938975D01*
X227342453Y-126950620D01*
X227227557Y-127271728D01*
X227222901Y-127282969D01*
X227077078Y-127591290D01*
X227071341Y-127602023D01*
X226896009Y-127894545D01*
X226889249Y-127904663D01*
X226686076Y-128178610D01*
X226678356Y-128188016D01*
X226449322Y-128440717D01*
X226440717Y-128449322D01*
X226188016Y-128678356D01*
X226178610Y-128686076D01*
X225904663Y-128889249D01*
X225894545Y-128896009D01*
X225602023Y-129071341D01*
X225591290Y-129077078D01*
X225282969Y-129222901D01*
X225271728Y-129227557D01*
X224950620Y-129342453D01*
X224938975Y-129345986D01*
X224608135Y-129428857D01*
X224596199Y-129431231D01*
X224258841Y-129481272D01*
X224246732Y-129482465D01*
X223903033Y-129499351D01*
X223896948Y-129499500D01*
X181310929Y-129499500D01*
X181243890Y-129479815D01*
X181198135Y-129427011D01*
X181188191Y-129357853D01*
X181211662Y-129301189D01*
X181283796Y-129204831D01*
X181334091Y-129069983D01*
X181340500Y-129010373D01*
X181340499Y-127114628D01*
X181334091Y-127055017D01*
X181295153Y-126950620D01*
X181283797Y-126920171D01*
X181283793Y-126920164D01*
X181197547Y-126804955D01*
X181197544Y-126804952D01*
X181082335Y-126718706D01*
X181082328Y-126718702D01*
X180947482Y-126668408D01*
X180947483Y-126668408D01*
X180887883Y-126662001D01*
X180887881Y-126662000D01*
X180887873Y-126662000D01*
X180887864Y-126662000D01*
X179622129Y-126662000D01*
X179622123Y-126662001D01*
X179562516Y-126668408D01*
X179427671Y-126718702D01*
X179427664Y-126718706D01*
X179312455Y-126804952D01*
X179312452Y-126804955D01*
X179226206Y-126920164D01*
X179226202Y-126920171D01*
X179175908Y-127055017D01*
X179169782Y-127112000D01*
X179169501Y-127114623D01*
X179169500Y-127114635D01*
X179169500Y-127238000D01*
X179149815Y-127305039D01*
X179097011Y-127350794D01*
X179045500Y-127362000D01*
X178749709Y-127362000D01*
X178743631Y-127360215D01*
X178737407Y-127361388D01*
X178710509Y-127350489D01*
X178682670Y-127342315D01*
X178677046Y-127336931D01*
X178672651Y-127335150D01*
X178648402Y-127309505D01*
X178643193Y-127302125D01*
X178620617Y-127236003D01*
X178620500Y-127230620D01*
X178620500Y-125733394D01*
X178616775Y-125714669D01*
X178596463Y-125612549D01*
X178594631Y-125608127D01*
X178563720Y-125533501D01*
X178549637Y-125499500D01*
X178549312Y-125498715D01*
X178535008Y-125477309D01*
X178505808Y-125433607D01*
X178505808Y-125433608D01*
X178480858Y-125396267D01*
X178480855Y-125396264D01*
X178480853Y-125396261D01*
X178390637Y-125306045D01*
X178390606Y-125306016D01*
X177561819Y-124477229D01*
X177528334Y-124415906D01*
X177525500Y-124389548D01*
X177525500Y-123242350D01*
X177545185Y-123175311D01*
X177546398Y-123173459D01*
X177546809Y-123172843D01*
X177609394Y-123079179D01*
X177669737Y-122933497D01*
X177700500Y-122778842D01*
X177700500Y-122621158D01*
X177700500Y-122621155D01*
X177700499Y-122621153D01*
X177669738Y-122466510D01*
X177669737Y-122466503D01*
X177609394Y-122320821D01*
X177546397Y-122226539D01*
X177540747Y-122208494D01*
X177530523Y-122192585D01*
X177526071Y-122161623D01*
X177525520Y-122159863D01*
X177525500Y-122157650D01*
X177525500Y-121948372D01*
X177545185Y-121881333D01*
X177597989Y-121835578D01*
X177667147Y-121825634D01*
X177715391Y-121844123D01*
X177715446Y-121844021D01*
X177716258Y-121844455D01*
X177718398Y-121845275D01*
X177719611Y-121846086D01*
X177720819Y-121846893D01*
X177720827Y-121846897D01*
X177866498Y-121907235D01*
X177866503Y-121907237D01*
X178021153Y-121937999D01*
X178021156Y-121938000D01*
X178021158Y-121938000D01*
X178178844Y-121938000D01*
X178178845Y-121937999D01*
X178333497Y-121907237D01*
X178479179Y-121846894D01*
X178610289Y-121759289D01*
X178721789Y-121647789D01*
X178809394Y-121516679D01*
X178869737Y-121370997D01*
X178890143Y-121268409D01*
X178893565Y-121251208D01*
X178893565Y-121251207D01*
X178900500Y-121216344D01*
X178900500Y-121058655D01*
X178900499Y-121058653D01*
X178888531Y-120998487D01*
X178869737Y-120904003D01*
X178862350Y-120886169D01*
X178809397Y-120758327D01*
X178809390Y-120758314D01*
X178721789Y-120627211D01*
X178721786Y-120627207D01*
X178610292Y-120515713D01*
X178610288Y-120515710D01*
X178479185Y-120428109D01*
X178479172Y-120428102D01*
X178333501Y-120367764D01*
X178333489Y-120367761D01*
X178178845Y-120337000D01*
X178178842Y-120337000D01*
X178021158Y-120337000D01*
X178021155Y-120337000D01*
X177866510Y-120367761D01*
X177866498Y-120367764D01*
X177720827Y-120428102D01*
X177720814Y-120428109D01*
X177718391Y-120429729D01*
X177716927Y-120430187D01*
X177715446Y-120430979D01*
X177715295Y-120430698D01*
X177651713Y-120450607D01*
X177584333Y-120432122D01*
X177537643Y-120380144D01*
X177525500Y-120326627D01*
X177525500Y-118886999D01*
X177545185Y-118819960D01*
X177597989Y-118774205D01*
X177649500Y-118762999D01*
X179227871Y-118762999D01*
X179227872Y-118762999D01*
X179287483Y-118756591D01*
X179422331Y-118706296D01*
X179537546Y-118620046D01*
X179623796Y-118504831D01*
X179674091Y-118369983D01*
X179680500Y-118310373D01*
X179680499Y-116864628D01*
X179674091Y-116805017D01*
X179625411Y-116674500D01*
X179623797Y-116670171D01*
X179623793Y-116670164D01*
X179537547Y-116554955D01*
X179537544Y-116554952D01*
X179422335Y-116468706D01*
X179422328Y-116468702D01*
X179287482Y-116418408D01*
X179287483Y-116418408D01*
X179227883Y-116412001D01*
X179227881Y-116412000D01*
X179227873Y-116412000D01*
X179227865Y-116412000D01*
X177649500Y-116412000D01*
X177582461Y-116392315D01*
X177536706Y-116339511D01*
X177525500Y-116288000D01*
X177525500Y-115575894D01*
X177522157Y-115559090D01*
X177517046Y-115533394D01*
X177502767Y-115461606D01*
X177502767Y-115461605D01*
X177502766Y-115461598D01*
X177501464Y-115455051D01*
X177461844Y-115359399D01*
X177454311Y-115341214D01*
X177454309Y-115341211D01*
X177454307Y-115341207D01*
X177385859Y-115238768D01*
X177385858Y-115238767D01*
X177298733Y-115151642D01*
X177298732Y-115151641D01*
X176342313Y-114195223D01*
X176319974Y-114164739D01*
X176114623Y-113769727D01*
X176114623Y-113769726D01*
X176113809Y-113768162D01*
X176112138Y-113764947D01*
X176109394Y-113758321D01*
X176106240Y-113753600D01*
X176103958Y-113749211D01*
X176090796Y-113725474D01*
X176090164Y-113724403D01*
X176043776Y-113658447D01*
X176043772Y-113658444D01*
X176042421Y-113656522D01*
X176034551Y-113646311D01*
X176021787Y-113627208D01*
X175910292Y-113515713D01*
X175910288Y-113515710D01*
X175779185Y-113428109D01*
X175779172Y-113428102D01*
X175633501Y-113367764D01*
X175633489Y-113367761D01*
X175478845Y-113337000D01*
X175478842Y-113337000D01*
X175466259Y-113337000D01*
X175399220Y-113317315D01*
X175353465Y-113264511D01*
X175351698Y-113260452D01*
X175309397Y-113158327D01*
X175309390Y-113158314D01*
X175221789Y-113027211D01*
X175221786Y-113027207D01*
X175110292Y-112915713D01*
X175110288Y-112915710D01*
X174979185Y-112828109D01*
X174979172Y-112828102D01*
X174833501Y-112767764D01*
X174833489Y-112767761D01*
X174678845Y-112737000D01*
X174678842Y-112737000D01*
X174521158Y-112737000D01*
X174521155Y-112737000D01*
X174366510Y-112767761D01*
X174366498Y-112767764D01*
X174220827Y-112828102D01*
X174220814Y-112828109D01*
X174089711Y-112915710D01*
X174089707Y-112915713D01*
X173978213Y-113027207D01*
X173978210Y-113027211D01*
X173890609Y-113158314D01*
X173890606Y-113158321D01*
X173858476Y-113235888D01*
X173814634Y-113290291D01*
X173768108Y-113310051D01*
X173666507Y-113330261D01*
X173666498Y-113330264D01*
X173520827Y-113390602D01*
X173520814Y-113390609D01*
X173389711Y-113478210D01*
X173389707Y-113478213D01*
X173278211Y-113589709D01*
X173253773Y-113626283D01*
X173230944Y-113645360D01*
X173209863Y-113666351D01*
X173204425Y-113667521D01*
X173200159Y-113671087D01*
X173170645Y-113674793D01*
X173141558Y-113681055D01*
X173136351Y-113679100D01*
X173130834Y-113679793D01*
X173103996Y-113666952D01*
X173076147Y-113656496D01*
X173070968Y-113651149D01*
X173067807Y-113649637D01*
X173051244Y-113631486D01*
X173050252Y-113630155D01*
X173043776Y-113620947D01*
X173042592Y-113619877D01*
X173038225Y-113614016D01*
X173037912Y-113613172D01*
X173034551Y-113608811D01*
X173021787Y-113589708D01*
X172910292Y-113478213D01*
X172910288Y-113478210D01*
X172779185Y-113390609D01*
X172779172Y-113390602D01*
X172633501Y-113330264D01*
X172633489Y-113330261D01*
X172478845Y-113299500D01*
X172478842Y-113299500D01*
X172321158Y-113299500D01*
X172321155Y-113299500D01*
X172166510Y-113330261D01*
X172166498Y-113330264D01*
X172020827Y-113390602D01*
X172020814Y-113390609D01*
X171889711Y-113478210D01*
X171889707Y-113478213D01*
X171778213Y-113589707D01*
X171778210Y-113589711D01*
X171690609Y-113720814D01*
X171690602Y-113720827D01*
X171630264Y-113866498D01*
X171630261Y-113866510D01*
X171599500Y-114021153D01*
X171599500Y-114178846D01*
X171630261Y-114333489D01*
X171630264Y-114333501D01*
X171690602Y-114479172D01*
X171690609Y-114479185D01*
X171778210Y-114610288D01*
X171778213Y-114610292D01*
X171889708Y-114721787D01*
X171996731Y-114793297D01*
X171996732Y-114793298D01*
X171998454Y-114794448D01*
X172011711Y-114803958D01*
X172016100Y-114806240D01*
X172020821Y-114809394D01*
X172020827Y-114809396D01*
X172020828Y-114809397D01*
X172022474Y-114810079D01*
X172032227Y-114814623D01*
X172427240Y-115019975D01*
X172457725Y-115042315D01*
X172938181Y-115522771D01*
X172971666Y-115584094D01*
X172974500Y-115610452D01*
X172974500Y-116288000D01*
X172954815Y-116355039D01*
X172902011Y-116400794D01*
X172850500Y-116412000D01*
X171262129Y-116412000D01*
X171262123Y-116412001D01*
X171202516Y-116418408D01*
X171067671Y-116468702D01*
X171067664Y-116468706D01*
X170952455Y-116554952D01*
X170952452Y-116554955D01*
X170866206Y-116670164D01*
X170866202Y-116670171D01*
X170815908Y-116805017D01*
X170809501Y-116864616D01*
X170809501Y-116864623D01*
X170809500Y-116864635D01*
X170809500Y-118310370D01*
X170809501Y-118310376D01*
X170815908Y-118369983D01*
X170866202Y-118504828D01*
X170866206Y-118504835D01*
X170952452Y-118620044D01*
X170952454Y-118620046D01*
X171067664Y-118706293D01*
X171067671Y-118706297D01*
X171202517Y-118756591D01*
X171202516Y-118756591D01*
X171209444Y-118757335D01*
X171262127Y-118763000D01*
X172177547Y-118762999D01*
X172198793Y-118769237D01*
X172220880Y-118770817D01*
X172231662Y-118778888D01*
X172244586Y-118782683D01*
X172259086Y-118799417D01*
X172276814Y-118812688D01*
X172281521Y-118825308D01*
X172290341Y-118835487D01*
X172293492Y-118857405D01*
X172301231Y-118878153D01*
X172298368Y-118891313D01*
X172300285Y-118904646D01*
X172291085Y-118924789D01*
X172286379Y-118946426D01*
X172273109Y-118964153D01*
X172271260Y-118968202D01*
X172265229Y-118974680D01*
X172096270Y-119143639D01*
X172096269Y-119143639D01*
X172096268Y-119143640D01*
X172009144Y-119230764D01*
X172009138Y-119230772D01*
X171940690Y-119333208D01*
X171940688Y-119333213D01*
X171913232Y-119399499D01*
X171893539Y-119447041D01*
X171893535Y-119447055D01*
X171869500Y-119567889D01*
X171869500Y-126257650D01*
X171849815Y-126324689D01*
X171848602Y-126326541D01*
X171785609Y-126420815D01*
X171785602Y-126420828D01*
X171725264Y-126566498D01*
X171725261Y-126566510D01*
X171694500Y-126721153D01*
X171694500Y-126878846D01*
X171725261Y-127033489D01*
X171725264Y-127033501D01*
X171785606Y-127179181D01*
X171785807Y-127179556D01*
X171785852Y-127179774D01*
X171787937Y-127184807D01*
X171786982Y-127185202D01*
X171800043Y-127247960D01*
X171775038Y-127313202D01*
X171718729Y-127354567D01*
X171676444Y-127362000D01*
X170922129Y-127362000D01*
X170922123Y-127362001D01*
X170862516Y-127368408D01*
X170727671Y-127418702D01*
X170727664Y-127418706D01*
X170612455Y-127504952D01*
X170612452Y-127504955D01*
X170526206Y-127620164D01*
X170526202Y-127620171D01*
X170475908Y-127755017D01*
X170469501Y-127814616D01*
X170469501Y-127814623D01*
X170469500Y-127814635D01*
X170469500Y-129010370D01*
X170469501Y-129010376D01*
X170475908Y-129069983D01*
X170526202Y-129204828D01*
X170526203Y-129204830D01*
X170526204Y-129204831D01*
X170593761Y-129295076D01*
X170598338Y-129301189D01*
X170622755Y-129366653D01*
X170607904Y-129434926D01*
X170558499Y-129484332D01*
X170499071Y-129499500D01*
X170180929Y-129499500D01*
X170113890Y-129479815D01*
X170068135Y-129427011D01*
X170058191Y-129357853D01*
X170081662Y-129301189D01*
X170153796Y-129204831D01*
X170204091Y-129069983D01*
X170210500Y-129010373D01*
X170210499Y-127564628D01*
X170204091Y-127505017D01*
X170171898Y-127418704D01*
X170153797Y-127370171D01*
X170153793Y-127370164D01*
X170067547Y-127254955D01*
X170067544Y-127254952D01*
X169952335Y-127168706D01*
X169952328Y-127168702D01*
X169817482Y-127118408D01*
X169817483Y-127118408D01*
X169757883Y-127112001D01*
X169757881Y-127112000D01*
X169757873Y-127112000D01*
X169757864Y-127112000D01*
X168112129Y-127112000D01*
X168112123Y-127112001D01*
X168052516Y-127118408D01*
X167917671Y-127168702D01*
X167917664Y-127168706D01*
X167802455Y-127254952D01*
X167802452Y-127254955D01*
X167716206Y-127370164D01*
X167716202Y-127370171D01*
X167665908Y-127505017D01*
X167659501Y-127564616D01*
X167659501Y-127564623D01*
X167659500Y-127564635D01*
X167659500Y-129010370D01*
X167659501Y-129010376D01*
X167665908Y-129069983D01*
X167716202Y-129204828D01*
X167716203Y-129204830D01*
X167716204Y-129204831D01*
X167783761Y-129295076D01*
X167788338Y-129301189D01*
X167812755Y-129366653D01*
X167797904Y-129434926D01*
X167748499Y-129484332D01*
X167689071Y-129499500D01*
X164103052Y-129499500D01*
X164096967Y-129499351D01*
X163753267Y-129482465D01*
X163741158Y-129481272D01*
X163403800Y-129431231D01*
X163391864Y-129428857D01*
X163227770Y-129387753D01*
X163061021Y-129345985D01*
X163049379Y-129342453D01*
X162728271Y-129227557D01*
X162717030Y-129222901D01*
X162408709Y-129077078D01*
X162397981Y-129071343D01*
X162105454Y-128896009D01*
X162095336Y-128889249D01*
X161821389Y-128686076D01*
X161811983Y-128678356D01*
X161771690Y-128641837D01*
X161559274Y-128449314D01*
X161550685Y-128440725D01*
X161321643Y-128188016D01*
X161313923Y-128178610D01*
X161110750Y-127904663D01*
X161103990Y-127894545D01*
X161097751Y-127884136D01*
X160928651Y-127602011D01*
X160922921Y-127591290D01*
X160922487Y-127590373D01*
X160841294Y-127418702D01*
X160777098Y-127282969D01*
X160772442Y-127271728D01*
X160717583Y-127118409D01*
X160657541Y-126950604D01*
X160654018Y-126938991D01*
X160571139Y-126608122D01*
X160568770Y-126596212D01*
X160518726Y-126258837D01*
X160517534Y-126246731D01*
X160509298Y-126079094D01*
X160500649Y-125903031D01*
X160500500Y-125896947D01*
X160500500Y-121906961D01*
X160501280Y-121893077D01*
X160502603Y-121881333D01*
X160511459Y-121802731D01*
X160517635Y-121775670D01*
X160538992Y-121714635D01*
X167659500Y-121714635D01*
X167659500Y-122810370D01*
X167659501Y-122810376D01*
X167665908Y-122869983D01*
X167716202Y-123004828D01*
X167716206Y-123004835D01*
X167802452Y-123120044D01*
X167802455Y-123120047D01*
X167917664Y-123206293D01*
X167917671Y-123206297D01*
X168052517Y-123256591D01*
X168052516Y-123256591D01*
X168059444Y-123257335D01*
X168112127Y-123263000D01*
X169407872Y-123262999D01*
X169467483Y-123256591D01*
X169602331Y-123206296D01*
X169717546Y-123120046D01*
X169803796Y-123004831D01*
X169854091Y-122869983D01*
X169860500Y-122810373D01*
X169860499Y-121714628D01*
X169854091Y-121655017D01*
X169851396Y-121647792D01*
X169803797Y-121520171D01*
X169803793Y-121520164D01*
X169717547Y-121404955D01*
X169717544Y-121404952D01*
X169602335Y-121318706D01*
X169602328Y-121318702D01*
X169467482Y-121268408D01*
X169467483Y-121268408D01*
X169407883Y-121262001D01*
X169407881Y-121262000D01*
X169407873Y-121262000D01*
X169407864Y-121262000D01*
X168112129Y-121262000D01*
X168112123Y-121262001D01*
X168052516Y-121268408D01*
X167917671Y-121318702D01*
X167917664Y-121318706D01*
X167802455Y-121404952D01*
X167802452Y-121404955D01*
X167716206Y-121520164D01*
X167716202Y-121520171D01*
X167665908Y-121655017D01*
X167661453Y-121696462D01*
X167659501Y-121714623D01*
X167659500Y-121714635D01*
X160538992Y-121714635D01*
X160545353Y-121696456D01*
X160557396Y-121671450D01*
X160602046Y-121600389D01*
X160619351Y-121578690D01*
X160678690Y-121519351D01*
X160700389Y-121502046D01*
X160771450Y-121457396D01*
X160796456Y-121445353D01*
X160875670Y-121417635D01*
X160902733Y-121411459D01*
X160965419Y-121404396D01*
X160993079Y-121401280D01*
X161006962Y-121400500D01*
X165607317Y-121400500D01*
X165607318Y-121400500D01*
X165789612Y-121374290D01*
X165819764Y-121369955D01*
X165819765Y-121369954D01*
X165819769Y-121369954D01*
X166025710Y-121309484D01*
X166025713Y-121309482D01*
X166025715Y-121309482D01*
X166220938Y-121220327D01*
X166220944Y-121220323D01*
X166220950Y-121220321D01*
X166401513Y-121104281D01*
X166563724Y-120963724D01*
X166592689Y-120930297D01*
X166651467Y-120892523D01*
X166686402Y-120887500D01*
X166800000Y-120887500D01*
X166800000Y-120688980D01*
X166818747Y-120625135D01*
X166818199Y-120624836D01*
X166819574Y-120622316D01*
X166819685Y-120621941D01*
X166819687Y-120621937D01*
X166820318Y-120620954D01*
X166820321Y-120620950D01*
X166820324Y-120620942D01*
X166820327Y-120620938D01*
X166909482Y-120425715D01*
X166909482Y-120425713D01*
X166909484Y-120425710D01*
X166969954Y-120219769D01*
X167000500Y-120007318D01*
X167000500Y-119900000D01*
X167000500Y-119834108D01*
X167000500Y-119110344D01*
X167660000Y-119110344D01*
X167666401Y-119169872D01*
X167666403Y-119169879D01*
X167716645Y-119304586D01*
X167716649Y-119304593D01*
X167802809Y-119419687D01*
X167802812Y-119419690D01*
X167917906Y-119505850D01*
X167917913Y-119505854D01*
X168052620Y-119556096D01*
X168052627Y-119556098D01*
X168112155Y-119562499D01*
X168112172Y-119562500D01*
X168510000Y-119562500D01*
X169010000Y-119562500D01*
X169407828Y-119562500D01*
X169407844Y-119562499D01*
X169467372Y-119556098D01*
X169467379Y-119556096D01*
X169602086Y-119505854D01*
X169602093Y-119505850D01*
X169717187Y-119419690D01*
X169717190Y-119419687D01*
X169803350Y-119304593D01*
X169803354Y-119304586D01*
X169853596Y-119169879D01*
X169853598Y-119169872D01*
X169859999Y-119110344D01*
X169860000Y-119110327D01*
X169860000Y-118812500D01*
X169010000Y-118812500D01*
X169010000Y-119562500D01*
X168510000Y-119562500D01*
X168510000Y-118812500D01*
X167660000Y-118812500D01*
X167660000Y-119110344D01*
X167000500Y-119110344D01*
X167000500Y-118014655D01*
X167660000Y-118014655D01*
X167660000Y-118312500D01*
X168510000Y-118312500D01*
X169010000Y-118312500D01*
X169860000Y-118312500D01*
X169860000Y-118014672D01*
X169859999Y-118014655D01*
X169853598Y-117955127D01*
X169853596Y-117955120D01*
X169803354Y-117820413D01*
X169803350Y-117820406D01*
X169717190Y-117705312D01*
X169717187Y-117705309D01*
X169602093Y-117619149D01*
X169602086Y-117619145D01*
X169467379Y-117568903D01*
X169467372Y-117568901D01*
X169407844Y-117562500D01*
X169010000Y-117562500D01*
X169010000Y-118312500D01*
X168510000Y-118312500D01*
X168510000Y-117562500D01*
X168112155Y-117562500D01*
X168052627Y-117568901D01*
X168052620Y-117568903D01*
X167917913Y-117619145D01*
X167917906Y-117619149D01*
X167802812Y-117705309D01*
X167802809Y-117705312D01*
X167716649Y-117820406D01*
X167716645Y-117820413D01*
X167666403Y-117955120D01*
X167666401Y-117955127D01*
X167660000Y-118014655D01*
X167000500Y-118014655D01*
X167000500Y-114540939D01*
X167020185Y-114473900D01*
X167072989Y-114428145D01*
X167142147Y-114418201D01*
X167205703Y-114447226D01*
X167227602Y-114472048D01*
X167278210Y-114547788D01*
X167278213Y-114547792D01*
X167389707Y-114659286D01*
X167389711Y-114659289D01*
X167520814Y-114746890D01*
X167520827Y-114746897D01*
X167632851Y-114793298D01*
X167666503Y-114807237D01*
X167821153Y-114837999D01*
X167821156Y-114838000D01*
X167821158Y-114838000D01*
X167978844Y-114838000D01*
X167978845Y-114837999D01*
X168133497Y-114807237D01*
X168279179Y-114746894D01*
X168410289Y-114659289D01*
X168521789Y-114547789D01*
X168609394Y-114416679D01*
X168669737Y-114270997D01*
X168700500Y-114116342D01*
X168700500Y-113958658D01*
X168700500Y-113958655D01*
X168674451Y-113827701D01*
X168680678Y-113758109D01*
X168723541Y-113702932D01*
X168789431Y-113679687D01*
X168857428Y-113695755D01*
X168883749Y-113715828D01*
X168889707Y-113721786D01*
X168889711Y-113721789D01*
X169020814Y-113809390D01*
X169020827Y-113809397D01*
X169158683Y-113866498D01*
X169166503Y-113869737D01*
X169321153Y-113900499D01*
X169321156Y-113900500D01*
X169321158Y-113900500D01*
X169478844Y-113900500D01*
X169478845Y-113900499D01*
X169633497Y-113869737D01*
X169779179Y-113809394D01*
X169910289Y-113721789D01*
X170021789Y-113610289D01*
X170109394Y-113479179D01*
X170169737Y-113333497D01*
X170200500Y-113178842D01*
X170200500Y-113021158D01*
X170200500Y-113021155D01*
X170200499Y-113021153D01*
X170169737Y-112866503D01*
X170134121Y-112780518D01*
X170109939Y-112722136D01*
X170100500Y-112674684D01*
X170100500Y-99441519D01*
X170120185Y-99374480D01*
X170136819Y-99353838D01*
X170553838Y-98936819D01*
X170615161Y-98903334D01*
X170641519Y-98900500D01*
X171672650Y-98900500D01*
X171739689Y-98920185D01*
X171785444Y-98972989D01*
X171795388Y-99042147D01*
X171775752Y-99093391D01*
X171690609Y-99220814D01*
X171690602Y-99220827D01*
X171630264Y-99366498D01*
X171630261Y-99366510D01*
X171599500Y-99521153D01*
X171599500Y-99678846D01*
X171630261Y-99833489D01*
X171630264Y-99833501D01*
X171690602Y-99979172D01*
X171690609Y-99979185D01*
X171778210Y-100110288D01*
X171778213Y-100110292D01*
X171889707Y-100221786D01*
X171889711Y-100221789D01*
X172020814Y-100309390D01*
X172020827Y-100309397D01*
X172117646Y-100349500D01*
X172166503Y-100369737D01*
X172321153Y-100400499D01*
X172321156Y-100400500D01*
X172321158Y-100400500D01*
X172478844Y-100400500D01*
X172478845Y-100400499D01*
X172633497Y-100369737D01*
X172779179Y-100309394D01*
X172873459Y-100246398D01*
X172940136Y-100225520D01*
X172942350Y-100225500D01*
X176007216Y-100225500D01*
X176074255Y-100245185D01*
X176120010Y-100297989D01*
X176129954Y-100367147D01*
X176128833Y-100373692D01*
X176099500Y-100521155D01*
X176099500Y-100678846D01*
X176130261Y-100833489D01*
X176130264Y-100833501D01*
X176190602Y-100979172D01*
X176190609Y-100979184D01*
X176253602Y-101073459D01*
X176274480Y-101140136D01*
X176274500Y-101142350D01*
X176274500Y-111561601D01*
X176274501Y-111561617D01*
X176275357Y-111565919D01*
X176275362Y-111565943D01*
X176275815Y-111568216D01*
X176298537Y-111682452D01*
X176305599Y-111699500D01*
X176309369Y-111708603D01*
X176309371Y-111708609D01*
X176345685Y-111796280D01*
X176345690Y-111796289D01*
X176379914Y-111847507D01*
X176379915Y-111847509D01*
X176414140Y-111898731D01*
X176414141Y-111898732D01*
X176414142Y-111898733D01*
X176501267Y-111985858D01*
X176501268Y-111985858D01*
X176508335Y-111992925D01*
X176508334Y-111992925D01*
X176508338Y-111992928D01*
X183101263Y-118585855D01*
X183101265Y-118585857D01*
X183105499Y-118588686D01*
X183150303Y-118642299D01*
X183159009Y-118711625D01*
X183128853Y-118774651D01*
X183092903Y-118802271D01*
X183063830Y-118817084D01*
X182980894Y-118877340D01*
X183679766Y-119576212D01*
X183637708Y-119587482D01*
X183512292Y-119659890D01*
X183409890Y-119762292D01*
X183337482Y-119887708D01*
X183326212Y-119929766D01*
X182627340Y-119230894D01*
X182567084Y-119313830D01*
X182459897Y-119524197D01*
X182386934Y-119748752D01*
X182350000Y-119981947D01*
X182350000Y-120218052D01*
X182386934Y-120451247D01*
X182459897Y-120675802D01*
X182567087Y-120886174D01*
X182627338Y-120969104D01*
X182627340Y-120969105D01*
X183326212Y-120270233D01*
X183337482Y-120312292D01*
X183409890Y-120437708D01*
X183512292Y-120540110D01*
X183637708Y-120612518D01*
X183679765Y-120623787D01*
X182980893Y-121322658D01*
X183063828Y-121382914D01*
X183274197Y-121490102D01*
X183498752Y-121563065D01*
X183498751Y-121563065D01*
X183731948Y-121600000D01*
X183968052Y-121600000D01*
X184201247Y-121563065D01*
X184425802Y-121490102D01*
X184636163Y-121382918D01*
X184636169Y-121382914D01*
X184719104Y-121322658D01*
X184719105Y-121322658D01*
X184020233Y-120623787D01*
X184062292Y-120612518D01*
X184187708Y-120540110D01*
X184290110Y-120437708D01*
X184362518Y-120312292D01*
X184373787Y-120270234D01*
X185072658Y-120969105D01*
X185072658Y-120969104D01*
X185132914Y-120886169D01*
X185132918Y-120886163D01*
X185240102Y-120675802D01*
X185313065Y-120451247D01*
X185350000Y-120218052D01*
X185350000Y-119981947D01*
X185313065Y-119748752D01*
X185240102Y-119524197D01*
X185132914Y-119313828D01*
X185072658Y-119230894D01*
X185072658Y-119230893D01*
X184373787Y-119929765D01*
X184362518Y-119887708D01*
X184290110Y-119762292D01*
X184187708Y-119659890D01*
X184062292Y-119587482D01*
X184020234Y-119576212D01*
X184719105Y-118877340D01*
X184717680Y-118859228D01*
X184732045Y-118790851D01*
X184781096Y-118741094D01*
X184841298Y-118725500D01*
X189358702Y-118725500D01*
X189425741Y-118745185D01*
X189471496Y-118797989D01*
X189482320Y-118859230D01*
X189480894Y-118877340D01*
X190179766Y-119576212D01*
X190137708Y-119587482D01*
X190012292Y-119659890D01*
X189909890Y-119762292D01*
X189837482Y-119887708D01*
X189826212Y-119929766D01*
X189127340Y-119230894D01*
X189067084Y-119313830D01*
X188959897Y-119524197D01*
X188886934Y-119748752D01*
X188850000Y-119981947D01*
X188850000Y-120218052D01*
X188886934Y-120451247D01*
X188959897Y-120675802D01*
X189067087Y-120886174D01*
X189127338Y-120969104D01*
X189127340Y-120969105D01*
X189826212Y-120270233D01*
X189837482Y-120312292D01*
X189909890Y-120437708D01*
X190012292Y-120540110D01*
X190137708Y-120612518D01*
X190179765Y-120623787D01*
X189480893Y-121322658D01*
X189563828Y-121382914D01*
X189774197Y-121490102D01*
X189998752Y-121563065D01*
X189998751Y-121563065D01*
X190231948Y-121600000D01*
X190468052Y-121600000D01*
X190701247Y-121563065D01*
X190925802Y-121490102D01*
X191136163Y-121382918D01*
X191136169Y-121382914D01*
X191219104Y-121322658D01*
X191219105Y-121322658D01*
X190520233Y-120623787D01*
X190562292Y-120612518D01*
X190687708Y-120540110D01*
X190790110Y-120437708D01*
X190862518Y-120312292D01*
X190873787Y-120270233D01*
X191572658Y-120969105D01*
X191572658Y-120969104D01*
X191632914Y-120886169D01*
X191632918Y-120886163D01*
X191740102Y-120675802D01*
X191813065Y-120451247D01*
X191850000Y-120218052D01*
X191850000Y-119981947D01*
X191813065Y-119748752D01*
X191740102Y-119524197D01*
X191632914Y-119313828D01*
X191572658Y-119230894D01*
X191572658Y-119230893D01*
X190873787Y-119929765D01*
X190862518Y-119887708D01*
X190790110Y-119762292D01*
X190687708Y-119659890D01*
X190562292Y-119587482D01*
X190520234Y-119576212D01*
X191219105Y-118877340D01*
X191217680Y-118859228D01*
X191232045Y-118790851D01*
X191281096Y-118741094D01*
X191341298Y-118725500D01*
X197858702Y-118725500D01*
X197925741Y-118745185D01*
X197971496Y-118797989D01*
X197982320Y-118859230D01*
X197980894Y-118877340D01*
X198679766Y-119576212D01*
X198637708Y-119587482D01*
X198512292Y-119659890D01*
X198409890Y-119762292D01*
X198337482Y-119887708D01*
X198326212Y-119929765D01*
X197627340Y-119230894D01*
X197567084Y-119313830D01*
X197459897Y-119524197D01*
X197386934Y-119748752D01*
X197350000Y-119981947D01*
X197350000Y-120218052D01*
X197386934Y-120451247D01*
X197459897Y-120675802D01*
X197567087Y-120886174D01*
X197627338Y-120969104D01*
X197627340Y-120969105D01*
X198326212Y-120270233D01*
X198337482Y-120312292D01*
X198409890Y-120437708D01*
X198512292Y-120540110D01*
X198637708Y-120612518D01*
X198679765Y-120623787D01*
X197980893Y-121322658D01*
X198063828Y-121382914D01*
X198274197Y-121490102D01*
X198498752Y-121563065D01*
X198498751Y-121563065D01*
X198731948Y-121600000D01*
X198968052Y-121600000D01*
X199201247Y-121563065D01*
X199425802Y-121490102D01*
X199636163Y-121382918D01*
X199636169Y-121382914D01*
X199719104Y-121322658D01*
X199719105Y-121322658D01*
X199020233Y-120623787D01*
X199062292Y-120612518D01*
X199187708Y-120540110D01*
X199290110Y-120437708D01*
X199362518Y-120312292D01*
X199373787Y-120270233D01*
X200072658Y-120969105D01*
X200072658Y-120969104D01*
X200132914Y-120886169D01*
X200132918Y-120886163D01*
X200240102Y-120675802D01*
X200313065Y-120451247D01*
X200350000Y-120218052D01*
X200350000Y-119981947D01*
X200313065Y-119748752D01*
X200240102Y-119524197D01*
X200132914Y-119313828D01*
X200072658Y-119230894D01*
X200072658Y-119230893D01*
X199373787Y-119929765D01*
X199362518Y-119887708D01*
X199290110Y-119762292D01*
X199187708Y-119659890D01*
X199062292Y-119587482D01*
X199020234Y-119576212D01*
X199719105Y-118877340D01*
X199717680Y-118859228D01*
X199732045Y-118790851D01*
X199781096Y-118741094D01*
X199841298Y-118725500D01*
X204358702Y-118725500D01*
X204425741Y-118745185D01*
X204471496Y-118797989D01*
X204482320Y-118859230D01*
X204480894Y-118877340D01*
X205179766Y-119576212D01*
X205137708Y-119587482D01*
X205012292Y-119659890D01*
X204909890Y-119762292D01*
X204837482Y-119887708D01*
X204826212Y-119929766D01*
X204127340Y-119230894D01*
X204067084Y-119313830D01*
X203959897Y-119524197D01*
X203886934Y-119748752D01*
X203850000Y-119981947D01*
X203850000Y-120218052D01*
X203886934Y-120451247D01*
X203959897Y-120675802D01*
X204067087Y-120886174D01*
X204127338Y-120969104D01*
X204127340Y-120969105D01*
X204826212Y-120270233D01*
X204837482Y-120312292D01*
X204909890Y-120437708D01*
X205012292Y-120540110D01*
X205137708Y-120612518D01*
X205179765Y-120623787D01*
X204480893Y-121322658D01*
X204563828Y-121382914D01*
X204774197Y-121490102D01*
X204998752Y-121563065D01*
X204998751Y-121563065D01*
X205231948Y-121600000D01*
X205468052Y-121600000D01*
X205701247Y-121563065D01*
X205925802Y-121490102D01*
X206136163Y-121382918D01*
X206136169Y-121382914D01*
X206219104Y-121322658D01*
X206219105Y-121322658D01*
X205520233Y-120623787D01*
X205562292Y-120612518D01*
X205687708Y-120540110D01*
X205790110Y-120437708D01*
X205862518Y-120312292D01*
X205873787Y-120270233D01*
X206572658Y-120969105D01*
X206572658Y-120969104D01*
X206632914Y-120886169D01*
X206632918Y-120886163D01*
X206740102Y-120675802D01*
X206813065Y-120451247D01*
X206850000Y-120218052D01*
X206850000Y-119981947D01*
X212350000Y-119981947D01*
X212350000Y-120218052D01*
X212386934Y-120451247D01*
X212459897Y-120675802D01*
X212567087Y-120886174D01*
X212627338Y-120969104D01*
X212627340Y-120969105D01*
X213326212Y-120270233D01*
X213337482Y-120312292D01*
X213409890Y-120437708D01*
X213512292Y-120540110D01*
X213637708Y-120612518D01*
X213679765Y-120623787D01*
X212980893Y-121322658D01*
X213063828Y-121382914D01*
X213274197Y-121490102D01*
X213498752Y-121563065D01*
X213498751Y-121563065D01*
X213731948Y-121600000D01*
X213968052Y-121600000D01*
X214201247Y-121563065D01*
X214425802Y-121490102D01*
X214636163Y-121382918D01*
X214636169Y-121382914D01*
X214719104Y-121322658D01*
X214719105Y-121322658D01*
X214020233Y-120623787D01*
X214062292Y-120612518D01*
X214187708Y-120540110D01*
X214290110Y-120437708D01*
X214362518Y-120312292D01*
X214373787Y-120270234D01*
X215072658Y-120969105D01*
X215072658Y-120969104D01*
X215132914Y-120886169D01*
X215132918Y-120886163D01*
X215240102Y-120675802D01*
X215313065Y-120451247D01*
X215350000Y-120218052D01*
X215350000Y-119981947D01*
X218850000Y-119981947D01*
X218850000Y-120218052D01*
X218886934Y-120451247D01*
X218959897Y-120675802D01*
X219067087Y-120886174D01*
X219127338Y-120969104D01*
X219127340Y-120969105D01*
X219826212Y-120270233D01*
X219837482Y-120312292D01*
X219909890Y-120437708D01*
X220012292Y-120540110D01*
X220137708Y-120612518D01*
X220179765Y-120623787D01*
X219480893Y-121322658D01*
X219563828Y-121382914D01*
X219774197Y-121490102D01*
X219998752Y-121563065D01*
X219998751Y-121563065D01*
X220231948Y-121600000D01*
X220468052Y-121600000D01*
X220701247Y-121563065D01*
X220925802Y-121490102D01*
X221136163Y-121382918D01*
X221136169Y-121382914D01*
X221219104Y-121322658D01*
X221219105Y-121322658D01*
X220520233Y-120623787D01*
X220562292Y-120612518D01*
X220687708Y-120540110D01*
X220790110Y-120437708D01*
X220862518Y-120312292D01*
X220873787Y-120270233D01*
X221572658Y-120969105D01*
X221572658Y-120969104D01*
X221632914Y-120886169D01*
X221632918Y-120886163D01*
X221740102Y-120675802D01*
X221813065Y-120451247D01*
X221850000Y-120218052D01*
X221850000Y-119981947D01*
X221813065Y-119748752D01*
X221740102Y-119524197D01*
X221632914Y-119313828D01*
X221572658Y-119230894D01*
X221572658Y-119230893D01*
X220873787Y-119929765D01*
X220862518Y-119887708D01*
X220790110Y-119762292D01*
X220687708Y-119659890D01*
X220562292Y-119587482D01*
X220520234Y-119576212D01*
X221219105Y-118877340D01*
X221219104Y-118877338D01*
X221136174Y-118817087D01*
X220925802Y-118709897D01*
X220701247Y-118636934D01*
X220701248Y-118636934D01*
X220468052Y-118600000D01*
X220231948Y-118600000D01*
X219998752Y-118636934D01*
X219774197Y-118709897D01*
X219563830Y-118817084D01*
X219480894Y-118877340D01*
X220179766Y-119576212D01*
X220137708Y-119587482D01*
X220012292Y-119659890D01*
X219909890Y-119762292D01*
X219837482Y-119887708D01*
X219826212Y-119929766D01*
X219127340Y-119230894D01*
X219067084Y-119313830D01*
X218959897Y-119524197D01*
X218886934Y-119748752D01*
X218850000Y-119981947D01*
X215350000Y-119981947D01*
X215313065Y-119748752D01*
X215240102Y-119524197D01*
X215132914Y-119313828D01*
X215072658Y-119230894D01*
X215072658Y-119230893D01*
X214373787Y-119929765D01*
X214362518Y-119887708D01*
X214290110Y-119762292D01*
X214187708Y-119659890D01*
X214062292Y-119587482D01*
X214020234Y-119576212D01*
X214719105Y-118877340D01*
X214719104Y-118877339D01*
X214636174Y-118817087D01*
X214425802Y-118709897D01*
X214201247Y-118636934D01*
X214201248Y-118636934D01*
X213968052Y-118600000D01*
X213731948Y-118600000D01*
X213498752Y-118636934D01*
X213274197Y-118709897D01*
X213063830Y-118817084D01*
X212980894Y-118877340D01*
X213679766Y-119576212D01*
X213637708Y-119587482D01*
X213512292Y-119659890D01*
X213409890Y-119762292D01*
X213337482Y-119887708D01*
X213326212Y-119929765D01*
X212627340Y-119230894D01*
X212567084Y-119313830D01*
X212459897Y-119524197D01*
X212386934Y-119748752D01*
X212350000Y-119981947D01*
X206850000Y-119981947D01*
X206813065Y-119748752D01*
X206740102Y-119524197D01*
X206632914Y-119313828D01*
X206572658Y-119230894D01*
X206572658Y-119230893D01*
X205873787Y-119929765D01*
X205862518Y-119887708D01*
X205790110Y-119762292D01*
X205687708Y-119659890D01*
X205562292Y-119587482D01*
X205520234Y-119576212D01*
X206219105Y-118877340D01*
X206217680Y-118859228D01*
X206232045Y-118790851D01*
X206281096Y-118741095D01*
X206341298Y-118725500D01*
X211411608Y-118725500D01*
X211411608Y-118725499D01*
X211504861Y-118706951D01*
X211532452Y-118701463D01*
X211565792Y-118687652D01*
X211646286Y-118654312D01*
X211697567Y-118620046D01*
X211748733Y-118585858D01*
X211835858Y-118498733D01*
X211835859Y-118498730D01*
X211842925Y-118491665D01*
X211842928Y-118491661D01*
X213273121Y-117061467D01*
X213334442Y-117027984D01*
X213399117Y-117031218D01*
X213445517Y-117046295D01*
X213498631Y-117063553D01*
X213731903Y-117100500D01*
X213731908Y-117100500D01*
X213968097Y-117100500D01*
X214201368Y-117063553D01*
X214300881Y-117031219D01*
X214425992Y-116990568D01*
X214636433Y-116883343D01*
X214827510Y-116744517D01*
X214994517Y-116577510D01*
X215133343Y-116386433D01*
X215240568Y-116175992D01*
X215313553Y-115951368D01*
X215325492Y-115875988D01*
X215350500Y-115718097D01*
X215350500Y-115481902D01*
X218849500Y-115481902D01*
X218849500Y-115718097D01*
X218886446Y-115951368D01*
X218959433Y-116175996D01*
X219042749Y-116339511D01*
X219066657Y-116386433D01*
X219205483Y-116577510D01*
X219372490Y-116744517D01*
X219563567Y-116883343D01*
X219662991Y-116934002D01*
X219774003Y-116990566D01*
X219774005Y-116990566D01*
X219774008Y-116990568D01*
X219826852Y-117007738D01*
X219998631Y-117063553D01*
X220231903Y-117100500D01*
X220231908Y-117100500D01*
X220468097Y-117100500D01*
X220701368Y-117063553D01*
X220800881Y-117031219D01*
X220925992Y-116990568D01*
X221136433Y-116883343D01*
X221327510Y-116744517D01*
X221494517Y-116577510D01*
X221633343Y-116386433D01*
X221740568Y-116175992D01*
X221813553Y-115951368D01*
X221825492Y-115875988D01*
X221850500Y-115718097D01*
X221850500Y-115481902D01*
X221813553Y-115248631D01*
X221740566Y-115024003D01*
X221645792Y-114838000D01*
X221633343Y-114813567D01*
X221494517Y-114622490D01*
X221327510Y-114455483D01*
X221136433Y-114316657D01*
X220925996Y-114209433D01*
X220701368Y-114136446D01*
X220468097Y-114099500D01*
X220468092Y-114099500D01*
X220231908Y-114099500D01*
X220231903Y-114099500D01*
X219998631Y-114136446D01*
X219774003Y-114209433D01*
X219563566Y-114316657D01*
X219540383Y-114333501D01*
X219372490Y-114455483D01*
X219372488Y-114455485D01*
X219372487Y-114455485D01*
X219205485Y-114622487D01*
X219205485Y-114622488D01*
X219205483Y-114622490D01*
X219178749Y-114659286D01*
X219066657Y-114813566D01*
X218959433Y-115024003D01*
X218886446Y-115248631D01*
X218849500Y-115481902D01*
X215350500Y-115481902D01*
X215313553Y-115248631D01*
X215240566Y-115024003D01*
X215145792Y-114838000D01*
X215133343Y-114813567D01*
X214994517Y-114622490D01*
X214827510Y-114455483D01*
X214636433Y-114316657D01*
X214425996Y-114209433D01*
X214201368Y-114136446D01*
X213968097Y-114099500D01*
X213968092Y-114099500D01*
X213731908Y-114099500D01*
X213731903Y-114099500D01*
X213498631Y-114136446D01*
X213274003Y-114209433D01*
X213063566Y-114316657D01*
X213040383Y-114333501D01*
X212872490Y-114455483D01*
X212872488Y-114455485D01*
X212872487Y-114455485D01*
X212705485Y-114622487D01*
X212705485Y-114622488D01*
X212705483Y-114622490D01*
X212678749Y-114659286D01*
X212566657Y-114813566D01*
X212459433Y-115024003D01*
X212386446Y-115248631D01*
X212349500Y-115481902D01*
X212349500Y-115718097D01*
X212386447Y-115951371D01*
X212418779Y-116050881D01*
X212420774Y-116120722D01*
X212388529Y-116176879D01*
X211127229Y-117438181D01*
X211065906Y-117471666D01*
X211039548Y-117474500D01*
X198159452Y-117474500D01*
X198092413Y-117454815D01*
X198046658Y-117402011D01*
X198036714Y-117332853D01*
X198065739Y-117269297D01*
X198071762Y-117262826D01*
X198273122Y-117061466D01*
X198334441Y-117027984D01*
X198399117Y-117031218D01*
X198445517Y-117046295D01*
X198498631Y-117063553D01*
X198731903Y-117100500D01*
X198731908Y-117100500D01*
X198968097Y-117100500D01*
X199201368Y-117063553D01*
X199300881Y-117031219D01*
X199425992Y-116990568D01*
X199636433Y-116883343D01*
X199827510Y-116744517D01*
X199994517Y-116577510D01*
X200133343Y-116386433D01*
X200240568Y-116175992D01*
X200313553Y-115951368D01*
X200325492Y-115875988D01*
X200350500Y-115718097D01*
X200350500Y-115481902D01*
X203849500Y-115481902D01*
X203849500Y-115718097D01*
X203886446Y-115951368D01*
X203959433Y-116175996D01*
X204042749Y-116339511D01*
X204066657Y-116386433D01*
X204205483Y-116577510D01*
X204372490Y-116744517D01*
X204563567Y-116883343D01*
X204662991Y-116934002D01*
X204774003Y-116990566D01*
X204774005Y-116990566D01*
X204774008Y-116990568D01*
X204826852Y-117007738D01*
X204998631Y-117063553D01*
X205231903Y-117100500D01*
X205231908Y-117100500D01*
X205468097Y-117100500D01*
X205701368Y-117063553D01*
X205800881Y-117031219D01*
X205925992Y-116990568D01*
X206136433Y-116883343D01*
X206327510Y-116744517D01*
X206494517Y-116577510D01*
X206633343Y-116386433D01*
X206740568Y-116175992D01*
X206813553Y-115951368D01*
X206825492Y-115875988D01*
X206850500Y-115718097D01*
X206850500Y-115481902D01*
X206813553Y-115248631D01*
X206740566Y-115024003D01*
X206645792Y-114838000D01*
X206633343Y-114813567D01*
X206494517Y-114622490D01*
X206327510Y-114455483D01*
X206136433Y-114316657D01*
X205925996Y-114209433D01*
X205701368Y-114136446D01*
X205468097Y-114099500D01*
X205468092Y-114099500D01*
X205231908Y-114099500D01*
X205231903Y-114099500D01*
X204998631Y-114136446D01*
X204774003Y-114209433D01*
X204563566Y-114316657D01*
X204540383Y-114333501D01*
X204372490Y-114455483D01*
X204372488Y-114455485D01*
X204372487Y-114455485D01*
X204205485Y-114622487D01*
X204205485Y-114622488D01*
X204205483Y-114622490D01*
X204178749Y-114659286D01*
X204066657Y-114813566D01*
X203959433Y-115024003D01*
X203886446Y-115248631D01*
X203849500Y-115481902D01*
X200350500Y-115481902D01*
X200313553Y-115248631D01*
X200240566Y-115024003D01*
X200145792Y-114838000D01*
X200133343Y-114813567D01*
X199994517Y-114622490D01*
X199827510Y-114455483D01*
X199636433Y-114316657D01*
X199425996Y-114209433D01*
X199201368Y-114136446D01*
X198968097Y-114099500D01*
X198968092Y-114099500D01*
X198731908Y-114099500D01*
X198731903Y-114099500D01*
X198498631Y-114136446D01*
X198274003Y-114209433D01*
X198063566Y-114316657D01*
X198040383Y-114333501D01*
X197872490Y-114455483D01*
X197872488Y-114455485D01*
X197872487Y-114455485D01*
X197705485Y-114622487D01*
X197705485Y-114622488D01*
X197705483Y-114622490D01*
X197678749Y-114659286D01*
X197566657Y-114813566D01*
X197459433Y-115024003D01*
X197386446Y-115248631D01*
X197349500Y-115481902D01*
X197349500Y-115718097D01*
X197386447Y-115951371D01*
X197418779Y-116050881D01*
X197420774Y-116120722D01*
X197388529Y-116176879D01*
X196927229Y-116638181D01*
X196865906Y-116671666D01*
X196839548Y-116674500D01*
X191667414Y-116674500D01*
X191600375Y-116654815D01*
X191554620Y-116602011D01*
X191544676Y-116532853D01*
X191567096Y-116477615D01*
X191610111Y-116418409D01*
X191633343Y-116386433D01*
X191740568Y-116175992D01*
X191813553Y-115951368D01*
X191825492Y-115875988D01*
X191850500Y-115718097D01*
X191850500Y-115589637D01*
X191870185Y-115522598D01*
X191922989Y-115476843D01*
X191956851Y-115466899D01*
X192027061Y-115456806D01*
X192157977Y-115397018D01*
X192204660Y-115359399D01*
X195477099Y-112086957D01*
X195538420Y-112053474D01*
X195608111Y-112058458D01*
X195664045Y-112100330D01*
X195667880Y-112105749D01*
X195753945Y-112234553D01*
X195753948Y-112234557D01*
X195865442Y-112346051D01*
X195865446Y-112346054D01*
X195996549Y-112433655D01*
X195996562Y-112433662D01*
X196142233Y-112494000D01*
X196142238Y-112494002D01*
X196296888Y-112524764D01*
X196296891Y-112524765D01*
X196296893Y-112524765D01*
X196372110Y-112524765D01*
X196439149Y-112544450D01*
X196459791Y-112561084D01*
X196679227Y-112780520D01*
X196679229Y-112780521D01*
X196679233Y-112780524D01*
X196761642Y-112828102D01*
X196816159Y-112859577D01*
X196968886Y-112900501D01*
X196968888Y-112900501D01*
X197134597Y-112900501D01*
X197134613Y-112900500D01*
X205313331Y-112900500D01*
X205313347Y-112900501D01*
X205320943Y-112900501D01*
X205479054Y-112900501D01*
X205479057Y-112900501D01*
X205631785Y-112859577D01*
X205697235Y-112821789D01*
X205768716Y-112780520D01*
X205880520Y-112668716D01*
X205880520Y-112668714D01*
X205890724Y-112658511D01*
X205890728Y-112658506D01*
X208075536Y-110473697D01*
X208136857Y-110440214D01*
X208206549Y-110445198D01*
X208262482Y-110487070D01*
X208266317Y-110492489D01*
X208278210Y-110510288D01*
X208278213Y-110510292D01*
X208389707Y-110621786D01*
X208389711Y-110621789D01*
X208520814Y-110709390D01*
X208520827Y-110709397D01*
X208666498Y-110769735D01*
X208666503Y-110769737D01*
X208821153Y-110800499D01*
X208821156Y-110800500D01*
X208821158Y-110800500D01*
X208978844Y-110800500D01*
X208978845Y-110800499D01*
X209133497Y-110769737D01*
X209279179Y-110709394D01*
X209410289Y-110621789D01*
X209521789Y-110510289D01*
X209609394Y-110379179D01*
X209669737Y-110233497D01*
X209700500Y-110078842D01*
X209700500Y-109921158D01*
X209700500Y-109921155D01*
X209700499Y-109921153D01*
X209697730Y-109907231D01*
X209669737Y-109766503D01*
X209656531Y-109734620D01*
X209609397Y-109620827D01*
X209609390Y-109620814D01*
X209521789Y-109489711D01*
X209521786Y-109489707D01*
X209410292Y-109378213D01*
X209410288Y-109378210D01*
X209392489Y-109366317D01*
X209351756Y-109317577D01*
X216865975Y-109317577D01*
X216971236Y-109361178D01*
X216971240Y-109361179D01*
X217116126Y-109389999D01*
X217116129Y-109390000D01*
X217263871Y-109390000D01*
X217263873Y-109389999D01*
X217408760Y-109361179D01*
X217408775Y-109361175D01*
X217514024Y-109317578D01*
X217514024Y-109317577D01*
X217190001Y-108993554D01*
X217190000Y-108993554D01*
X216865975Y-109317577D01*
X209351756Y-109317577D01*
X209347684Y-109312705D01*
X209338977Y-109243380D01*
X209369131Y-109180352D01*
X209373680Y-109175553D01*
X210206657Y-108342577D01*
X216140975Y-108342577D01*
X216246236Y-108386178D01*
X216246240Y-108386179D01*
X216345439Y-108405912D01*
X216407350Y-108438297D01*
X216441924Y-108499013D01*
X216442866Y-108551715D01*
X216440000Y-108566124D01*
X216440000Y-108713873D01*
X216468820Y-108858759D01*
X216468822Y-108858767D01*
X216512421Y-108964024D01*
X216836446Y-108640000D01*
X216816555Y-108620109D01*
X217090000Y-108620109D01*
X217090000Y-108659891D01*
X217105224Y-108696645D01*
X217133355Y-108724776D01*
X217170109Y-108740000D01*
X217209891Y-108740000D01*
X217246645Y-108724776D01*
X217274776Y-108696645D01*
X217290000Y-108659891D01*
X217290000Y-108640000D01*
X217543554Y-108640000D01*
X217867577Y-108964024D01*
X217867578Y-108964024D01*
X217911175Y-108858775D01*
X217911179Y-108858760D01*
X217939999Y-108713873D01*
X217940000Y-108713871D01*
X217940000Y-108566128D01*
X217937134Y-108551721D01*
X217943361Y-108482130D01*
X217986223Y-108426952D01*
X218034560Y-108405912D01*
X218133760Y-108386179D01*
X218133775Y-108386175D01*
X218239024Y-108342578D01*
X218239024Y-108342577D01*
X217915000Y-108018554D01*
X217906054Y-108027500D01*
X217910689Y-108032135D01*
X217925392Y-108059062D01*
X217941985Y-108084881D01*
X217942876Y-108091081D01*
X217944174Y-108093458D01*
X217947008Y-108119816D01*
X217947008Y-108185184D01*
X217927323Y-108252223D01*
X217910689Y-108272865D01*
X217543554Y-108640000D01*
X217290000Y-108640000D01*
X217290000Y-108620109D01*
X217274776Y-108583355D01*
X217246645Y-108555224D01*
X217209891Y-108540000D01*
X217170109Y-108540000D01*
X217133355Y-108555224D01*
X217105224Y-108583355D01*
X217090000Y-108620109D01*
X216816555Y-108620109D01*
X216469311Y-108272865D01*
X216457119Y-108250538D01*
X216444198Y-108235626D01*
X216444166Y-108235477D01*
X217139031Y-108235477D01*
X217190000Y-108286446D01*
X217240969Y-108235477D01*
X217203650Y-108198158D01*
X217191109Y-108175192D01*
X217176350Y-108198158D01*
X217139031Y-108235477D01*
X216444166Y-108235477D01*
X216442262Y-108226727D01*
X216438015Y-108220119D01*
X216437123Y-108213918D01*
X216435826Y-108211542D01*
X216432992Y-108185184D01*
X216432992Y-108119816D01*
X216452677Y-108052777D01*
X216469311Y-108032135D01*
X216473946Y-108027500D01*
X217181054Y-108027500D01*
X217181054Y-108031410D01*
X217188890Y-108045761D01*
X217198946Y-108030115D01*
X217198946Y-108027500D01*
X217190000Y-108018554D01*
X217181054Y-108027500D01*
X216473946Y-108027500D01*
X216465000Y-108018554D01*
X216140975Y-108342577D01*
X210206657Y-108342577D01*
X210958108Y-107591126D01*
X215715000Y-107591126D01*
X215715000Y-107738873D01*
X215743820Y-107883759D01*
X215743822Y-107883767D01*
X215787421Y-107989024D01*
X216111446Y-107665000D01*
X216111446Y-107664999D01*
X216091556Y-107645109D01*
X216365000Y-107645109D01*
X216365000Y-107684891D01*
X216380224Y-107721645D01*
X216408355Y-107749776D01*
X216445109Y-107765000D01*
X216484891Y-107765000D01*
X216521645Y-107749776D01*
X216549776Y-107721645D01*
X216565000Y-107684891D01*
X216565000Y-107665000D01*
X216818554Y-107665000D01*
X216827500Y-107673946D01*
X216836446Y-107665000D01*
X216827500Y-107656054D01*
X216818554Y-107665000D01*
X216565000Y-107665000D01*
X216565000Y-107645109D01*
X217090000Y-107645109D01*
X217090000Y-107684891D01*
X217105224Y-107721645D01*
X217133355Y-107749776D01*
X217170109Y-107765000D01*
X217209891Y-107765000D01*
X217246645Y-107749776D01*
X217274776Y-107721645D01*
X217290000Y-107684891D01*
X217290000Y-107665000D01*
X217543554Y-107665000D01*
X217552500Y-107673946D01*
X217561446Y-107665000D01*
X217552500Y-107656054D01*
X217543554Y-107665000D01*
X217290000Y-107665000D01*
X217290000Y-107645109D01*
X217815000Y-107645109D01*
X217815000Y-107684891D01*
X217830224Y-107721645D01*
X217858355Y-107749776D01*
X217895109Y-107765000D01*
X217934891Y-107765000D01*
X217971645Y-107749776D01*
X217999776Y-107721645D01*
X218015000Y-107684891D01*
X218015000Y-107645109D01*
X217999776Y-107608355D01*
X217971645Y-107580224D01*
X217934891Y-107565000D01*
X217895109Y-107565000D01*
X217858355Y-107580224D01*
X217830224Y-107608355D01*
X217815000Y-107645109D01*
X217290000Y-107645109D01*
X217274776Y-107608355D01*
X217246645Y-107580224D01*
X217209891Y-107565000D01*
X217170109Y-107565000D01*
X217133355Y-107580224D01*
X217105224Y-107608355D01*
X217090000Y-107645109D01*
X216565000Y-107645109D01*
X216549776Y-107608355D01*
X216521645Y-107580224D01*
X216484891Y-107565000D01*
X216445109Y-107565000D01*
X216408355Y-107580224D01*
X216380224Y-107608355D01*
X216365000Y-107645109D01*
X216091556Y-107645109D01*
X215787421Y-107340974D01*
X215787420Y-107340974D01*
X215743823Y-107446228D01*
X215743820Y-107446240D01*
X215715000Y-107591126D01*
X210958108Y-107591126D01*
X212312416Y-106236819D01*
X212373739Y-106203334D01*
X212400097Y-106200500D01*
X216395384Y-106200500D01*
X216462423Y-106220185D01*
X216508178Y-106272989D01*
X216518122Y-106342147D01*
X216509945Y-106371952D01*
X216468823Y-106471228D01*
X216468820Y-106471240D01*
X216440000Y-106616126D01*
X216440000Y-106763871D01*
X216439999Y-106763871D01*
X216442866Y-106778282D01*
X216436636Y-106847874D01*
X216393772Y-106903050D01*
X216345441Y-106924087D01*
X216246237Y-106943821D01*
X216246228Y-106943823D01*
X216140974Y-106987420D01*
X216140974Y-106987421D01*
X216464999Y-107311446D01*
X216473946Y-107302500D01*
X216469311Y-107297865D01*
X216454607Y-107270937D01*
X216438015Y-107245119D01*
X216437123Y-107238918D01*
X216435826Y-107236542D01*
X216432992Y-107210184D01*
X216432992Y-107144816D01*
X216447760Y-107094523D01*
X217139031Y-107094523D01*
X217140031Y-107095523D01*
X217239969Y-107095523D01*
X217253605Y-107081886D01*
X217260654Y-107057883D01*
X217305566Y-107018965D01*
X217296239Y-107023747D01*
X217269352Y-107039702D01*
X217263748Y-107040405D01*
X217261878Y-107041365D01*
X217258635Y-107041048D01*
X217238684Y-107043554D01*
X217190000Y-107043554D01*
X217139031Y-107094523D01*
X216447760Y-107094523D01*
X216452677Y-107077777D01*
X216469311Y-107057135D01*
X216925542Y-106600904D01*
X216986865Y-106567419D01*
X217056557Y-106572403D01*
X217100904Y-106600904D01*
X217119289Y-106619289D01*
X217105224Y-106633355D01*
X217090000Y-106670109D01*
X217090000Y-106709891D01*
X217105224Y-106746645D01*
X217133355Y-106774776D01*
X217170109Y-106790000D01*
X217209891Y-106790000D01*
X217246645Y-106774776D01*
X217274776Y-106746645D01*
X217283413Y-106725793D01*
X217284978Y-106727599D01*
X217303584Y-106742299D01*
X217309376Y-106755756D01*
X217315210Y-106762489D01*
X217319687Y-106773706D01*
X217322401Y-106781605D01*
X217328537Y-106812452D01*
X217342347Y-106845792D01*
X217354716Y-106875654D01*
X217355955Y-106879260D01*
X217357372Y-106910496D01*
X217360714Y-106941569D01*
X217358943Y-106945105D01*
X217359123Y-106949058D01*
X217343429Y-106976099D01*
X217329440Y-107004048D01*
X217326038Y-107006066D01*
X217324053Y-107009488D01*
X217321026Y-107011039D01*
X217382616Y-107002184D01*
X217446172Y-107031209D01*
X217452650Y-107037241D01*
X217538332Y-107122923D01*
X217538338Y-107122928D01*
X217997704Y-107582295D01*
X219874205Y-109458796D01*
X219907690Y-109520119D01*
X219908141Y-109522286D01*
X219930261Y-109633489D01*
X219930264Y-109633501D01*
X219990602Y-109779172D01*
X219990609Y-109779185D01*
X220078210Y-109910288D01*
X220078213Y-109910292D01*
X220189707Y-110021786D01*
X220189711Y-110021789D01*
X220320814Y-110109390D01*
X220320827Y-110109397D01*
X220466498Y-110169735D01*
X220466503Y-110169737D01*
X220621153Y-110200499D01*
X220621156Y-110200500D01*
X220621158Y-110200500D01*
X220778844Y-110200500D01*
X220778845Y-110200499D01*
X220933497Y-110169737D01*
X221079179Y-110109394D01*
X221210289Y-110021789D01*
X221321789Y-109910289D01*
X221409394Y-109779179D01*
X221469737Y-109633497D01*
X221500500Y-109478842D01*
X221500500Y-109321158D01*
X221500500Y-109321155D01*
X221500499Y-109321153D01*
X221493816Y-109287557D01*
X221469737Y-109166503D01*
X221469735Y-109166498D01*
X221409397Y-109020827D01*
X221409390Y-109020814D01*
X221321789Y-108889711D01*
X221321786Y-108889707D01*
X221210292Y-108778213D01*
X221210288Y-108778210D01*
X221079185Y-108690609D01*
X221079172Y-108690602D01*
X220933501Y-108630264D01*
X220933489Y-108630261D01*
X220822286Y-108608141D01*
X220760375Y-108575756D01*
X220758796Y-108574205D01*
X218591819Y-106407228D01*
X218558334Y-106345905D01*
X218555500Y-106319547D01*
X218555500Y-105884836D01*
X218575185Y-105817797D01*
X218627989Y-105772042D01*
X218655309Y-105763219D01*
X218798497Y-105734737D01*
X218944179Y-105674394D01*
X219075289Y-105586789D01*
X219186789Y-105475289D01*
X219274394Y-105344179D01*
X219279363Y-105332184D01*
X219334735Y-105198501D01*
X219334737Y-105198497D01*
X219365500Y-105043842D01*
X219365500Y-104886158D01*
X219365500Y-104886155D01*
X219365499Y-104886153D01*
X219343451Y-104775312D01*
X219334737Y-104731503D01*
X219321090Y-104698556D01*
X219274397Y-104585827D01*
X219274390Y-104585814D01*
X219186789Y-104454711D01*
X219186786Y-104454707D01*
X219075292Y-104343213D01*
X219075288Y-104343210D01*
X218944185Y-104255609D01*
X218944172Y-104255602D01*
X218798501Y-104195264D01*
X218798489Y-104195261D01*
X218677111Y-104171117D01*
X218615200Y-104138732D01*
X218580625Y-104078016D01*
X218584365Y-104008247D01*
X218625232Y-103951575D01*
X218690250Y-103925994D01*
X218701302Y-103925500D01*
X221630951Y-103925500D01*
X221697990Y-103945185D01*
X221736489Y-103984403D01*
X221782286Y-104058651D01*
X221782289Y-104058655D01*
X221906344Y-104182710D01*
X221906348Y-104182713D01*
X222055662Y-104274812D01*
X222055664Y-104274813D01*
X222055666Y-104274814D01*
X222222203Y-104329999D01*
X222324992Y-104340500D01*
X222324997Y-104340500D01*
X224025003Y-104340500D01*
X224025008Y-104340500D01*
X224127797Y-104329999D01*
X224294334Y-104274814D01*
X224443655Y-104182711D01*
X224567711Y-104058655D01*
X224659814Y-103909334D01*
X224714999Y-103742797D01*
X224725500Y-103640008D01*
X224725500Y-101939992D01*
X224714999Y-101837203D01*
X224659814Y-101670666D01*
X224567711Y-101521345D01*
X224443655Y-101397289D01*
X224443651Y-101397286D01*
X224294337Y-101305187D01*
X224294335Y-101305186D01*
X224211065Y-101277593D01*
X224127797Y-101250001D01*
X224127795Y-101250000D01*
X224025015Y-101239500D01*
X224025008Y-101239500D01*
X222324992Y-101239500D01*
X222324984Y-101239500D01*
X222222204Y-101250000D01*
X222222203Y-101250001D01*
X222055664Y-101305186D01*
X222055662Y-101305187D01*
X221906348Y-101397286D01*
X221906344Y-101397289D01*
X221782289Y-101521344D01*
X221782286Y-101521348D01*
X221690187Y-101670662D01*
X221690186Y-101670664D01*
X221635001Y-101837203D01*
X221635000Y-101837204D01*
X221624500Y-101939984D01*
X221624500Y-102550500D01*
X221604815Y-102617539D01*
X221552011Y-102663294D01*
X221500500Y-102674500D01*
X217237676Y-102674500D01*
X217170637Y-102654815D01*
X217124882Y-102602011D01*
X217114938Y-102532853D01*
X217116059Y-102526309D01*
X217125499Y-102478846D01*
X217125500Y-102478844D01*
X217125500Y-102321155D01*
X217125499Y-102321153D01*
X217112100Y-102253793D01*
X217094737Y-102166503D01*
X217094735Y-102166498D01*
X217034397Y-102020827D01*
X217034390Y-102020814D01*
X216946789Y-101889711D01*
X216946786Y-101889707D01*
X216835292Y-101778213D01*
X216835288Y-101778210D01*
X216704185Y-101690609D01*
X216704172Y-101690602D01*
X216558501Y-101630264D01*
X216558489Y-101630261D01*
X216403845Y-101599500D01*
X216403842Y-101599500D01*
X216246158Y-101599500D01*
X216246155Y-101599500D01*
X216091510Y-101630261D01*
X216091498Y-101630264D01*
X215945827Y-101690602D01*
X215945814Y-101690609D01*
X215814711Y-101778210D01*
X215814707Y-101778213D01*
X215703213Y-101889707D01*
X215703210Y-101889711D01*
X215615609Y-102020814D01*
X215615602Y-102020827D01*
X215555264Y-102166498D01*
X215555261Y-102166510D01*
X215524500Y-102321153D01*
X215524500Y-102478846D01*
X215533941Y-102526309D01*
X215527714Y-102595901D01*
X215484851Y-102651078D01*
X215418961Y-102674322D01*
X215412324Y-102674500D01*
X215010452Y-102674500D01*
X214943413Y-102654815D01*
X214922771Y-102638181D01*
X212809319Y-100524729D01*
X212775834Y-100463406D01*
X212773000Y-100437048D01*
X212773000Y-96413210D01*
X212792685Y-96346171D01*
X212828110Y-96310107D01*
X212829173Y-96309396D01*
X212829179Y-96309394D01*
X212960289Y-96221789D01*
X213071789Y-96110289D01*
X213159394Y-95979179D01*
X213219737Y-95833497D01*
X213250500Y-95678842D01*
X213250500Y-95521158D01*
X213250500Y-95521155D01*
X213250499Y-95521153D01*
X213219738Y-95366510D01*
X213219737Y-95366503D01*
X213219735Y-95366498D01*
X213159397Y-95220827D01*
X213159390Y-95220814D01*
X213071789Y-95089711D01*
X213071786Y-95089707D01*
X212960292Y-94978213D01*
X212960288Y-94978210D01*
X212861456Y-94912172D01*
X212816651Y-94858560D01*
X212807944Y-94789235D01*
X212838099Y-94726207D01*
X212842647Y-94721408D01*
X213202819Y-94361237D01*
X213264142Y-94327752D01*
X213333834Y-94332736D01*
X213389767Y-94374608D01*
X213413350Y-94437836D01*
X213413903Y-94437782D01*
X213414108Y-94439869D01*
X213414184Y-94440072D01*
X213414215Y-94440956D01*
X213414500Y-94443846D01*
X213445261Y-94598489D01*
X213445264Y-94598501D01*
X213505602Y-94744172D01*
X213505609Y-94744185D01*
X213593210Y-94875288D01*
X213593213Y-94875292D01*
X213704707Y-94986786D01*
X213704711Y-94986789D01*
X213835814Y-95074390D01*
X213835827Y-95074397D01*
X213923230Y-95110599D01*
X213981503Y-95134737D01*
X214092716Y-95156858D01*
X214154623Y-95189241D01*
X214156203Y-95190793D01*
X216023300Y-97057890D01*
X216056785Y-97119213D01*
X216057237Y-97169761D01*
X216049500Y-97208659D01*
X216049500Y-97366346D01*
X216080261Y-97520989D01*
X216080264Y-97521001D01*
X216140602Y-97666672D01*
X216140609Y-97666685D01*
X216228210Y-97797788D01*
X216228213Y-97797792D01*
X216339707Y-97909286D01*
X216339711Y-97909289D01*
X216470814Y-97996890D01*
X216470827Y-97996897D01*
X216616498Y-98057235D01*
X216616503Y-98057237D01*
X216771153Y-98087999D01*
X216771156Y-98088000D01*
X216771158Y-98088000D01*
X216928844Y-98088000D01*
X216928845Y-98087999D01*
X217083497Y-98057237D01*
X217229179Y-97996894D01*
X217360289Y-97909289D01*
X217471789Y-97797789D01*
X217559394Y-97666679D01*
X217591995Y-97587973D01*
X221624500Y-97587973D01*
X221624500Y-97832026D01*
X221662678Y-98073072D01*
X221738097Y-98305187D01*
X221848896Y-98522642D01*
X221992339Y-98720076D01*
X221992343Y-98720081D01*
X222164918Y-98892656D01*
X222164923Y-98892660D01*
X222329659Y-99012347D01*
X222362361Y-99036106D01*
X222579815Y-99146904D01*
X222811924Y-99222321D01*
X223052973Y-99260500D01*
X223052974Y-99260500D01*
X223297026Y-99260500D01*
X223297027Y-99260500D01*
X223538076Y-99222321D01*
X223770185Y-99146904D01*
X223987639Y-99036106D01*
X224185083Y-98892655D01*
X224357655Y-98720083D01*
X224501106Y-98522639D01*
X224611904Y-98305185D01*
X224687321Y-98073076D01*
X224725500Y-97832027D01*
X224725500Y-97587973D01*
X224687321Y-97346924D01*
X224611904Y-97114815D01*
X224501106Y-96897361D01*
X224415000Y-96778846D01*
X224357660Y-96699923D01*
X224357656Y-96699918D01*
X224185081Y-96527343D01*
X224185076Y-96527339D01*
X223987642Y-96383896D01*
X223987641Y-96383895D01*
X223987639Y-96383894D01*
X223770185Y-96273096D01*
X223538076Y-96197679D01*
X223538074Y-96197678D01*
X223538072Y-96197678D01*
X223369769Y-96171021D01*
X223297027Y-96159500D01*
X223052973Y-96159500D01*
X222997093Y-96168350D01*
X222811927Y-96197678D01*
X222579812Y-96273097D01*
X222362357Y-96383896D01*
X222164923Y-96527339D01*
X222164918Y-96527343D01*
X221992343Y-96699918D01*
X221992339Y-96699923D01*
X221848896Y-96897357D01*
X221738097Y-97114812D01*
X221662678Y-97346927D01*
X221624500Y-97587973D01*
X217591995Y-97587973D01*
X217619737Y-97520997D01*
X217650500Y-97366342D01*
X217650500Y-97208658D01*
X217650500Y-97208655D01*
X217650499Y-97208653D01*
X217631833Y-97114812D01*
X217619737Y-97054003D01*
X217569824Y-96933501D01*
X217559397Y-96908327D01*
X217559390Y-96908314D01*
X217471789Y-96777211D01*
X217471786Y-96777207D01*
X217424231Y-96729653D01*
X217408630Y-96710593D01*
X217404728Y-96704721D01*
X217404312Y-96703715D01*
X217359734Y-96637000D01*
X217335858Y-96601267D01*
X217335856Y-96601264D01*
X217245637Y-96511045D01*
X217245606Y-96511016D01*
X215040793Y-94306203D01*
X215007308Y-94244880D01*
X215006887Y-94242864D01*
X214984737Y-94131503D01*
X214959152Y-94069735D01*
X214924397Y-93985827D01*
X214924390Y-93985814D01*
X214836789Y-93854711D01*
X214836786Y-93854707D01*
X214725292Y-93743213D01*
X214725288Y-93743210D01*
X214594185Y-93655609D01*
X214594172Y-93655602D01*
X214448501Y-93595264D01*
X214448489Y-93595261D01*
X214293845Y-93564500D01*
X214293842Y-93564500D01*
X214197029Y-93564500D01*
X214129990Y-93544815D01*
X214084235Y-93492011D01*
X214074291Y-93422853D01*
X214077894Y-93406290D01*
X214077947Y-93405921D01*
X214077948Y-93405919D01*
X214098429Y-93263462D01*
X214077948Y-93121005D01*
X214058694Y-93078846D01*
X214018161Y-92990091D01*
X214018160Y-92990090D01*
X214018160Y-92990089D01*
X213980541Y-92943406D01*
X213980536Y-92943401D01*
X213980532Y-92943396D01*
X210306597Y-89269464D01*
X210306591Y-89269459D01*
X210306587Y-89269455D01*
X210259911Y-89231839D01*
X210128997Y-89172052D01*
X210128993Y-89172051D01*
X209986538Y-89151571D01*
X209844082Y-89172051D01*
X209844078Y-89172052D01*
X209713167Y-89231838D01*
X209666472Y-89269467D01*
X206472762Y-92463181D01*
X206411439Y-92496666D01*
X206385081Y-92499500D01*
X205321155Y-92499500D01*
X205166510Y-92530261D01*
X205166498Y-92530264D01*
X205020827Y-92590602D01*
X205020814Y-92590609D01*
X204889711Y-92678210D01*
X204889707Y-92678213D01*
X204778213Y-92789707D01*
X204778210Y-92789711D01*
X204690609Y-92920814D01*
X204690602Y-92920827D01*
X204630264Y-93066498D01*
X204630261Y-93066510D01*
X204599500Y-93221153D01*
X204599500Y-93378846D01*
X204630261Y-93533489D01*
X204630264Y-93533501D01*
X204690602Y-93679172D01*
X204690609Y-93679185D01*
X204778210Y-93810288D01*
X204778213Y-93810292D01*
X204889707Y-93921786D01*
X204889711Y-93921789D01*
X205020814Y-94009390D01*
X205020827Y-94009397D01*
X205166498Y-94069735D01*
X205166503Y-94069737D01*
X205321153Y-94100499D01*
X205321156Y-94100500D01*
X205321158Y-94100500D01*
X206458155Y-94100500D01*
X206525194Y-94120185D01*
X206545836Y-94136819D01*
X207387228Y-94978210D01*
X209666482Y-97257463D01*
X209666486Y-97257466D01*
X209666488Y-97257468D01*
X209713164Y-97295084D01*
X209844078Y-97354871D01*
X209844079Y-97354871D01*
X209844081Y-97354872D01*
X209986538Y-97375353D01*
X210128995Y-97354872D01*
X210259911Y-97295084D01*
X210306594Y-97257465D01*
X211310319Y-96253738D01*
X211371642Y-96220254D01*
X211441333Y-96225238D01*
X211497267Y-96267109D01*
X211521684Y-96332574D01*
X211522000Y-96341420D01*
X211522000Y-100809111D01*
X211546035Y-100929944D01*
X211546040Y-100929961D01*
X211593185Y-101043780D01*
X211593187Y-101043783D01*
X211593188Y-101043786D01*
X211627415Y-101095009D01*
X211661642Y-101146233D01*
X211748767Y-101233358D01*
X211748770Y-101233360D01*
X211756054Y-101240644D01*
X214211016Y-103695606D01*
X214211045Y-103695637D01*
X214301264Y-103785856D01*
X214301267Y-103785858D01*
X214346741Y-103816243D01*
X214403714Y-103854312D01*
X214484207Y-103887652D01*
X214517548Y-103901463D01*
X214577971Y-103913481D01*
X214638393Y-103925500D01*
X214638394Y-103925500D01*
X217251401Y-103925500D01*
X217318440Y-103945185D01*
X217364195Y-103997989D01*
X217374139Y-104067147D01*
X217345114Y-104130703D01*
X217286336Y-104168477D01*
X217275592Y-104171117D01*
X217154213Y-104195261D01*
X217154201Y-104195264D01*
X217008530Y-104255602D01*
X217008517Y-104255609D01*
X216876828Y-104343602D01*
X216810150Y-104364480D01*
X216807937Y-104364500D01*
X211921670Y-104364500D01*
X211921654Y-104364499D01*
X211914058Y-104364499D01*
X211755943Y-104364499D01*
X211679579Y-104384961D01*
X211603214Y-104405423D01*
X211603209Y-104405426D01*
X211466290Y-104484475D01*
X211466282Y-104484481D01*
X204787584Y-111163181D01*
X204726261Y-111196666D01*
X204699903Y-111199500D01*
X198182940Y-111199500D01*
X198115901Y-111179815D01*
X198095263Y-111163185D01*
X198010289Y-111078211D01*
X198010288Y-111078210D01*
X198010287Y-111078209D01*
X197879185Y-110990609D01*
X197879172Y-110990602D01*
X197733501Y-110930264D01*
X197733489Y-110930261D01*
X197578845Y-110899500D01*
X197578842Y-110899500D01*
X197421158Y-110899500D01*
X197392251Y-110905249D01*
X197342345Y-110915176D01*
X197272753Y-110908947D01*
X197230474Y-110881239D01*
X189087590Y-102738355D01*
X189087588Y-102738352D01*
X188968717Y-102619481D01*
X188968716Y-102619480D01*
X188917147Y-102589707D01*
X188888580Y-102573214D01*
X188888577Y-102573213D01*
X188881904Y-102569360D01*
X188831785Y-102540423D01*
X188774637Y-102525110D01*
X188766759Y-102521784D01*
X188751001Y-102508908D01*
X188727307Y-102495228D01*
X188710292Y-102478213D01*
X188710288Y-102478210D01*
X188579185Y-102390609D01*
X188579172Y-102390602D01*
X188433501Y-102330264D01*
X188433489Y-102330261D01*
X188278845Y-102299500D01*
X188278842Y-102299500D01*
X188121158Y-102299500D01*
X188121155Y-102299500D01*
X187966510Y-102330261D01*
X187966498Y-102330264D01*
X187820827Y-102390602D01*
X187820814Y-102390609D01*
X187689711Y-102478210D01*
X187689707Y-102478213D01*
X187578213Y-102589707D01*
X187578210Y-102589711D01*
X187490609Y-102720814D01*
X187490602Y-102720827D01*
X187430264Y-102866498D01*
X187430261Y-102866510D01*
X187399500Y-103021153D01*
X187399500Y-103178846D01*
X187413914Y-103251309D01*
X187407687Y-103320900D01*
X187364824Y-103376078D01*
X187298934Y-103399322D01*
X187292297Y-103399500D01*
X186640097Y-103399500D01*
X186573058Y-103379815D01*
X186552416Y-103363181D01*
X184686818Y-101497583D01*
X184653333Y-101436260D01*
X184650499Y-101409902D01*
X184650499Y-100349500D01*
X184670184Y-100282461D01*
X184722988Y-100236706D01*
X184774499Y-100225500D01*
X189789548Y-100225500D01*
X189856587Y-100245185D01*
X189877229Y-100261819D01*
X190774205Y-101158796D01*
X190807690Y-101220119D01*
X190808141Y-101222286D01*
X190830261Y-101333489D01*
X190830264Y-101333501D01*
X190890602Y-101479172D01*
X190890609Y-101479185D01*
X190978210Y-101610288D01*
X190978213Y-101610292D01*
X191089707Y-101721786D01*
X191089711Y-101721789D01*
X191220814Y-101809390D01*
X191220827Y-101809397D01*
X191366498Y-101869735D01*
X191366503Y-101869737D01*
X191521153Y-101900499D01*
X191521156Y-101900500D01*
X191521158Y-101900500D01*
X191678844Y-101900500D01*
X191678845Y-101900499D01*
X191833497Y-101869737D01*
X191979179Y-101809394D01*
X192110289Y-101721789D01*
X192221789Y-101610289D01*
X192309394Y-101479179D01*
X192369737Y-101333497D01*
X192400500Y-101178842D01*
X192400500Y-101021158D01*
X192400500Y-101021155D01*
X192400499Y-101021153D01*
X192392148Y-100979172D01*
X192369737Y-100866503D01*
X192345963Y-100809107D01*
X192309397Y-100720827D01*
X192309390Y-100720814D01*
X192221789Y-100589711D01*
X192221786Y-100589707D01*
X192110292Y-100478213D01*
X192110288Y-100478210D01*
X191979185Y-100390609D01*
X191979172Y-100390602D01*
X191833501Y-100330264D01*
X191833489Y-100330261D01*
X191722286Y-100308141D01*
X191660375Y-100275756D01*
X191658796Y-100274205D01*
X190592928Y-99208338D01*
X190592925Y-99208335D01*
X190585858Y-99201268D01*
X190585858Y-99201267D01*
X190498733Y-99114142D01*
X190498732Y-99114141D01*
X190496772Y-99112181D01*
X190463288Y-99050857D01*
X190468272Y-98981166D01*
X190510144Y-98925232D01*
X190575609Y-98900816D01*
X190584454Y-98900500D01*
X191468996Y-98900500D01*
X191560040Y-98882389D01*
X191604328Y-98873580D01*
X191668069Y-98847177D01*
X191731807Y-98820777D01*
X191731808Y-98820776D01*
X191731811Y-98820775D01*
X191846543Y-98744114D01*
X194757168Y-95833489D01*
X197669505Y-92921153D01*
X202299500Y-92921153D01*
X202299500Y-93078846D01*
X202330261Y-93233489D01*
X202330264Y-93233501D01*
X202390602Y-93379172D01*
X202390609Y-93379185D01*
X202478210Y-93510288D01*
X202478213Y-93510292D01*
X202589707Y-93621786D01*
X202589711Y-93621789D01*
X202720814Y-93709390D01*
X202720827Y-93709397D01*
X202866498Y-93769735D01*
X202866503Y-93769737D01*
X202981855Y-93792682D01*
X203021153Y-93800499D01*
X203021156Y-93800500D01*
X203021158Y-93800500D01*
X203178844Y-93800500D01*
X203178845Y-93800499D01*
X203333497Y-93769737D01*
X203479179Y-93709394D01*
X203610289Y-93621789D01*
X203721789Y-93510289D01*
X203809394Y-93379179D01*
X203869737Y-93233497D01*
X203900500Y-93078842D01*
X203900500Y-92921158D01*
X203900500Y-92921155D01*
X203900499Y-92921153D01*
X203883616Y-92836276D01*
X203869737Y-92766503D01*
X203840418Y-92695719D01*
X203809397Y-92620827D01*
X203809390Y-92620814D01*
X203721789Y-92489711D01*
X203721786Y-92489707D01*
X203610292Y-92378213D01*
X203610288Y-92378210D01*
X203479185Y-92290609D01*
X203479172Y-92290602D01*
X203333501Y-92230264D01*
X203333489Y-92230261D01*
X203178845Y-92199500D01*
X203178842Y-92199500D01*
X203021158Y-92199500D01*
X203021155Y-92199500D01*
X202866510Y-92230261D01*
X202866498Y-92230264D01*
X202720827Y-92290602D01*
X202720814Y-92290609D01*
X202589711Y-92378210D01*
X202589707Y-92378213D01*
X202478213Y-92489707D01*
X202478210Y-92489711D01*
X202390609Y-92620814D01*
X202390602Y-92620827D01*
X202330264Y-92766498D01*
X202330261Y-92766510D01*
X202299500Y-92921153D01*
X197669505Y-92921153D01*
X197763273Y-92827385D01*
X211044111Y-79546546D01*
X211044112Y-79546545D01*
X211044114Y-79546543D01*
X211120775Y-79431811D01*
X211173580Y-79304328D01*
X211200500Y-79168994D01*
X211200500Y-79031006D01*
X211200500Y-76424500D01*
X211220185Y-76357461D01*
X211272989Y-76311706D01*
X211324500Y-76300500D01*
X211378844Y-76300500D01*
X211378845Y-76300499D01*
X211533497Y-76269737D01*
X211679179Y-76209394D01*
X211731110Y-76174694D01*
X211797785Y-76153816D01*
X211865165Y-76172300D01*
X211868863Y-76174676D01*
X211920821Y-76209394D01*
X211920823Y-76209395D01*
X211920825Y-76209396D01*
X212066498Y-76269735D01*
X212066503Y-76269737D01*
X212200496Y-76296390D01*
X212221153Y-76300499D01*
X212221156Y-76300500D01*
X212221158Y-76300500D01*
X212378844Y-76300500D01*
X212378845Y-76300499D01*
X212533497Y-76269737D01*
X212679179Y-76209394D01*
X212731110Y-76174694D01*
X212797785Y-76153816D01*
X212865165Y-76172300D01*
X212868863Y-76174676D01*
X212920821Y-76209394D01*
X212920823Y-76209395D01*
X212920825Y-76209396D01*
X213066498Y-76269735D01*
X213066503Y-76269737D01*
X213200496Y-76296390D01*
X213221153Y-76300499D01*
X213221156Y-76300500D01*
X213221158Y-76300500D01*
X213378844Y-76300500D01*
X213378845Y-76300499D01*
X213533497Y-76269737D01*
X213679179Y-76209394D01*
X213810289Y-76121789D01*
X213921789Y-76010289D01*
X214009394Y-75879179D01*
X214069737Y-75733497D01*
X214100500Y-75578842D01*
X214100500Y-75421158D01*
X214100500Y-75421155D01*
X214100499Y-75421153D01*
X214088483Y-75360746D01*
X214069737Y-75266503D01*
X214017788Y-75141085D01*
X214009396Y-75120825D01*
X214009394Y-75120822D01*
X214009394Y-75120821D01*
X213974694Y-75068889D01*
X213968720Y-75049813D01*
X213958214Y-75032804D01*
X213958493Y-75017152D01*
X213953816Y-75002215D01*
X213959104Y-74982935D01*
X213959462Y-74962945D01*
X213971477Y-74937831D01*
X213972300Y-74934835D01*
X213974676Y-74931136D01*
X214000636Y-74892285D01*
X214054249Y-74847481D01*
X214123574Y-74838775D01*
X214184858Y-74868097D01*
X214185001Y-74867924D01*
X214185706Y-74868503D01*
X214186601Y-74868931D01*
X214189006Y-74871211D01*
X214189711Y-74871789D01*
X214320814Y-74959390D01*
X214320827Y-74959397D01*
X214460262Y-75017152D01*
X214466503Y-75019737D01*
X214617704Y-75049813D01*
X214621153Y-75050499D01*
X214621156Y-75050500D01*
X214621158Y-75050500D01*
X214778844Y-75050500D01*
X214778845Y-75050499D01*
X214933497Y-75019737D01*
X215079179Y-74959394D01*
X215118080Y-74933401D01*
X215210875Y-74871398D01*
X215277553Y-74850520D01*
X215279766Y-74850500D01*
X217370234Y-74850500D01*
X217437273Y-74870185D01*
X217439125Y-74871398D01*
X217570814Y-74959390D01*
X217570827Y-74959397D01*
X217710262Y-75017152D01*
X217716503Y-75019737D01*
X217867704Y-75049813D01*
X217871153Y-75050499D01*
X217871156Y-75050500D01*
X217871158Y-75050500D01*
X218028844Y-75050500D01*
X218028845Y-75050499D01*
X218183497Y-75019737D01*
X218329179Y-74959394D01*
X218460289Y-74871789D01*
X218464154Y-74867924D01*
X218487819Y-74844260D01*
X218549142Y-74810775D01*
X218618834Y-74815759D01*
X218674767Y-74857631D01*
X218699184Y-74923095D01*
X218699500Y-74931941D01*
X218699500Y-84858480D01*
X218690855Y-84887920D01*
X218684332Y-84917907D01*
X218680577Y-84922922D01*
X218679815Y-84925519D01*
X218663181Y-84946161D01*
X218564681Y-85044661D01*
X218503358Y-85078146D01*
X218433666Y-85073162D01*
X218377733Y-85031290D01*
X218353316Y-84965826D01*
X218353000Y-84956980D01*
X218353000Y-84797648D01*
X218320977Y-84595465D01*
X218257718Y-84400776D01*
X218222743Y-84332135D01*
X218164787Y-84218390D01*
X218150067Y-84198129D01*
X218044471Y-84052786D01*
X217899713Y-83908028D01*
X217734113Y-83787715D01*
X217734112Y-83787714D01*
X217734110Y-83787713D01*
X217673110Y-83756632D01*
X217551723Y-83694781D01*
X217357034Y-83631522D01*
X217182495Y-83603878D01*
X217154852Y-83599500D01*
X216950148Y-83599500D01*
X216925829Y-83603351D01*
X216747965Y-83631522D01*
X216553276Y-83694781D01*
X216370886Y-83787715D01*
X216205286Y-83908028D01*
X216060532Y-84052782D01*
X216060528Y-84052787D01*
X215985930Y-84155463D01*
X215930600Y-84198129D01*
X215860987Y-84204108D01*
X215799192Y-84171502D01*
X215764834Y-84110664D01*
X215762322Y-84095831D01*
X215756591Y-84042516D01*
X215706297Y-83907671D01*
X215706293Y-83907664D01*
X215620047Y-83792455D01*
X215620044Y-83792452D01*
X215504835Y-83706206D01*
X215504828Y-83706202D01*
X215369982Y-83655908D01*
X215369983Y-83655908D01*
X215310383Y-83649501D01*
X215310381Y-83649500D01*
X215310373Y-83649500D01*
X215310364Y-83649500D01*
X213714629Y-83649500D01*
X213714623Y-83649501D01*
X213655016Y-83655908D01*
X213520171Y-83706202D01*
X213520164Y-83706206D01*
X213404955Y-83792452D01*
X213404952Y-83792455D01*
X213318706Y-83907664D01*
X213318702Y-83907671D01*
X213268408Y-84042516D01*
X213262676Y-84095834D01*
X213235938Y-84160385D01*
X213178545Y-84200233D01*
X213108720Y-84202726D01*
X213048631Y-84167073D01*
X213039069Y-84155463D01*
X212964471Y-84052786D01*
X212819713Y-83908028D01*
X212654113Y-83787715D01*
X212654112Y-83787714D01*
X212654110Y-83787713D01*
X212593110Y-83756632D01*
X212471723Y-83694781D01*
X212277034Y-83631522D01*
X212102495Y-83603878D01*
X212074852Y-83599500D01*
X211870148Y-83599500D01*
X211845829Y-83603351D01*
X211667965Y-83631522D01*
X211473276Y-83694781D01*
X211290886Y-83787715D01*
X211125286Y-83908028D01*
X210980528Y-84052786D01*
X210860215Y-84218386D01*
X210767281Y-84400776D01*
X210704022Y-84595465D01*
X210672000Y-84797648D01*
X210672000Y-85002351D01*
X210704022Y-85204534D01*
X210767281Y-85399223D01*
X210831191Y-85524653D01*
X210854712Y-85570814D01*
X210860215Y-85581613D01*
X210980528Y-85747213D01*
X211125286Y-85891971D01*
X211273290Y-85999500D01*
X211290890Y-86012287D01*
X211407107Y-86071503D01*
X211473276Y-86105218D01*
X211473278Y-86105218D01*
X211473281Y-86105220D01*
X211543785Y-86128128D01*
X211667965Y-86168477D01*
X211762797Y-86183497D01*
X211870148Y-86200500D01*
X211870149Y-86200500D01*
X212074851Y-86200500D01*
X212074852Y-86200500D01*
X212277034Y-86168477D01*
X212471719Y-86105220D01*
X212654110Y-86012287D01*
X212747090Y-85944732D01*
X212819713Y-85891971D01*
X212819715Y-85891968D01*
X212819719Y-85891966D01*
X212964466Y-85747219D01*
X213039068Y-85644536D01*
X213094398Y-85601870D01*
X213164011Y-85595891D01*
X213225806Y-85628496D01*
X213260164Y-85689334D01*
X213262677Y-85704166D01*
X213268409Y-85757483D01*
X213318702Y-85892328D01*
X213318706Y-85892335D01*
X213404952Y-86007544D01*
X213404955Y-86007547D01*
X213520164Y-86093793D01*
X213520171Y-86093797D01*
X213655017Y-86144091D01*
X213655016Y-86144091D01*
X213661944Y-86144835D01*
X213714627Y-86150500D01*
X215310372Y-86150499D01*
X215369983Y-86144091D01*
X215504831Y-86093796D01*
X215620046Y-86007546D01*
X215706296Y-85892331D01*
X215756591Y-85757483D01*
X215762323Y-85704162D01*
X215789060Y-85639615D01*
X215846452Y-85599767D01*
X215916277Y-85597273D01*
X215976366Y-85632925D01*
X215985930Y-85644536D01*
X216060528Y-85747212D01*
X216060532Y-85747217D01*
X216205286Y-85891971D01*
X216353290Y-85999500D01*
X216370890Y-86012287D01*
X216487107Y-86071503D01*
X216553276Y-86105218D01*
X216553278Y-86105218D01*
X216553281Y-86105220D01*
X216623785Y-86128128D01*
X216747965Y-86168477D01*
X216842797Y-86183497D01*
X216950148Y-86200500D01*
X216950149Y-86200500D01*
X217109480Y-86200500D01*
X217176519Y-86220185D01*
X217222274Y-86272989D01*
X217232218Y-86342147D01*
X217203193Y-86405703D01*
X217197161Y-86412181D01*
X216946162Y-86663181D01*
X216884839Y-86696666D01*
X216858481Y-86699500D01*
X215291004Y-86699500D01*
X215155677Y-86726418D01*
X215155667Y-86726421D01*
X215028192Y-86779222D01*
X214913454Y-86855887D01*
X214056160Y-87713181D01*
X213994837Y-87746666D01*
X213968479Y-87749500D01*
X212762129Y-87749500D01*
X212762123Y-87749501D01*
X212702516Y-87755908D01*
X212567671Y-87806202D01*
X212567664Y-87806206D01*
X212452455Y-87892452D01*
X212452452Y-87892455D01*
X212366206Y-88007664D01*
X212366202Y-88007671D01*
X212315908Y-88142517D01*
X212309501Y-88202116D01*
X212309500Y-88202135D01*
X212309500Y-89997870D01*
X212309501Y-89997876D01*
X212315908Y-90057483D01*
X212366202Y-90192328D01*
X212366206Y-90192335D01*
X212452452Y-90307544D01*
X212452455Y-90307547D01*
X212567664Y-90393793D01*
X212567671Y-90393797D01*
X212702517Y-90444091D01*
X212702516Y-90444091D01*
X212709444Y-90444835D01*
X212762127Y-90450500D01*
X214557872Y-90450499D01*
X214617483Y-90444091D01*
X214752331Y-90393796D01*
X214867546Y-90307546D01*
X214953796Y-90192331D01*
X215002810Y-90060916D01*
X215044681Y-90004984D01*
X215110145Y-89980566D01*
X215178418Y-89995417D01*
X215206673Y-90016569D01*
X215320213Y-90130109D01*
X215492179Y-90255048D01*
X215492181Y-90255049D01*
X215492184Y-90255051D01*
X215681588Y-90351557D01*
X215883757Y-90417246D01*
X216093713Y-90450500D01*
X216093714Y-90450500D01*
X216306286Y-90450500D01*
X216306287Y-90450500D01*
X216516243Y-90417246D01*
X216718412Y-90351557D01*
X216907816Y-90255051D01*
X216994138Y-90192335D01*
X217079786Y-90130109D01*
X217079788Y-90130106D01*
X217079792Y-90130104D01*
X217230104Y-89979792D01*
X217230106Y-89979788D01*
X217230109Y-89979786D01*
X217355048Y-89807820D01*
X217355047Y-89807820D01*
X217355051Y-89807816D01*
X217359514Y-89799054D01*
X217407488Y-89748259D01*
X217475308Y-89731463D01*
X217541444Y-89753999D01*
X217580486Y-89799056D01*
X217584951Y-89807820D01*
X217709890Y-89979786D01*
X217860213Y-90130109D01*
X218032179Y-90255048D01*
X218032181Y-90255049D01*
X218032184Y-90255051D01*
X218221588Y-90351557D01*
X218423757Y-90417246D01*
X218633713Y-90450500D01*
X218633714Y-90450500D01*
X218846286Y-90450500D01*
X218846287Y-90450500D01*
X219056243Y-90417246D01*
X219258412Y-90351557D01*
X219447816Y-90255051D01*
X219534138Y-90192335D01*
X219619786Y-90130109D01*
X219619788Y-90130106D01*
X219619792Y-90130104D01*
X219770104Y-89979792D01*
X219770106Y-89979788D01*
X219770109Y-89979786D01*
X219895048Y-89807820D01*
X219895047Y-89807820D01*
X219895051Y-89807816D01*
X219991557Y-89618412D01*
X220057246Y-89416243D01*
X220090500Y-89206287D01*
X220090500Y-88993713D01*
X220065715Y-88837227D01*
X220074670Y-88767933D01*
X220100504Y-88730151D01*
X220744114Y-88086543D01*
X220820775Y-87971811D01*
X220823499Y-87965236D01*
X220862205Y-87871789D01*
X220873580Y-87844328D01*
X220892443Y-87749500D01*
X220900500Y-87708996D01*
X220900500Y-50731004D01*
X220873581Y-50595677D01*
X220873580Y-50595676D01*
X220873580Y-50595672D01*
X220867296Y-50580500D01*
X220820778Y-50468195D01*
X220820774Y-50468188D01*
X220791325Y-50424114D01*
X220744114Y-50353457D01*
X220744112Y-50353454D01*
X217186545Y-46795887D01*
X217071807Y-46719222D01*
X216944332Y-46666421D01*
X216944322Y-46666418D01*
X216808996Y-46639500D01*
X216808994Y-46639500D01*
X216808993Y-46639500D01*
X216623547Y-46639500D01*
X216556508Y-46619815D01*
X216523230Y-46588385D01*
X216481682Y-46531200D01*
X216430107Y-46460211D01*
X216316569Y-46346673D01*
X216283084Y-46285350D01*
X216288068Y-46215658D01*
X216329940Y-46159725D01*
X216360915Y-46142810D01*
X216492331Y-46093796D01*
X216607546Y-46007546D01*
X216693796Y-45892331D01*
X216744091Y-45757483D01*
X216750500Y-45697873D01*
X216750499Y-43902128D01*
X216744091Y-43842517D01*
X216742810Y-43839083D01*
X216693797Y-43707671D01*
X216693793Y-43707664D01*
X216607547Y-43592455D01*
X216607544Y-43592452D01*
X216492335Y-43506206D01*
X216492328Y-43506202D01*
X216357482Y-43455908D01*
X216357483Y-43455908D01*
X216297883Y-43449501D01*
X216297881Y-43449500D01*
X216297873Y-43449500D01*
X216297864Y-43449500D01*
X214502129Y-43449500D01*
X214502123Y-43449501D01*
X214442516Y-43455908D01*
X214307671Y-43506202D01*
X214307664Y-43506206D01*
X214192455Y-43592452D01*
X214192452Y-43592455D01*
X214106206Y-43707664D01*
X214106203Y-43707669D01*
X214057189Y-43839083D01*
X214015317Y-43895016D01*
X213949853Y-43919433D01*
X213881580Y-43904581D01*
X213853326Y-43883430D01*
X213739786Y-43769890D01*
X213567820Y-43644951D01*
X213378414Y-43548444D01*
X213378413Y-43548443D01*
X213378412Y-43548443D01*
X213176243Y-43482754D01*
X213176241Y-43482753D01*
X213176240Y-43482753D01*
X213014957Y-43457208D01*
X212966287Y-43449500D01*
X212753713Y-43449500D01*
X212705042Y-43457208D01*
X212543760Y-43482753D01*
X212341585Y-43548444D01*
X212152179Y-43644951D01*
X211980213Y-43769890D01*
X211829890Y-43920213D01*
X211704951Y-44092179D01*
X211608444Y-44281585D01*
X211542753Y-44483760D01*
X211509500Y-44693713D01*
X211509500Y-44906286D01*
X211542753Y-45116239D01*
X211608444Y-45318414D01*
X211704951Y-45507820D01*
X211829890Y-45679786D01*
X211980213Y-45830109D01*
X212152182Y-45955050D01*
X212160946Y-45959516D01*
X212211742Y-46007491D01*
X212228536Y-46075312D01*
X212205998Y-46141447D01*
X212160946Y-46180484D01*
X212152182Y-46184949D01*
X211980213Y-46309890D01*
X211829890Y-46460213D01*
X211704951Y-46632179D01*
X211608444Y-46821585D01*
X211542753Y-47023760D01*
X211509500Y-47233713D01*
X211509500Y-47446286D01*
X211542753Y-47656239D01*
X211608444Y-47858414D01*
X211704951Y-48047820D01*
X211829890Y-48219786D01*
X211980213Y-48370109D01*
X212152182Y-48495050D01*
X212160946Y-48499516D01*
X212211742Y-48547491D01*
X212228536Y-48615312D01*
X212205998Y-48681447D01*
X212160946Y-48720484D01*
X212152182Y-48724949D01*
X211980213Y-48849890D01*
X211829890Y-49000213D01*
X211704951Y-49172179D01*
X211608444Y-49361585D01*
X211542753Y-49563760D01*
X211509500Y-49773713D01*
X211509500Y-49986287D01*
X211542754Y-50196243D01*
X211593836Y-50353457D01*
X211608444Y-50398414D01*
X211704951Y-50587820D01*
X211829890Y-50759786D01*
X211980213Y-50910109D01*
X212152179Y-51035048D01*
X212152181Y-51035049D01*
X212152184Y-51035051D01*
X212341588Y-51131557D01*
X212543757Y-51197246D01*
X212753713Y-51230500D01*
X212753714Y-51230500D01*
X212966286Y-51230500D01*
X212966287Y-51230500D01*
X213176243Y-51197246D01*
X213378412Y-51131557D01*
X213567816Y-51035051D01*
X213589789Y-51019086D01*
X213739786Y-50910109D01*
X213739788Y-50910106D01*
X213739792Y-50910104D01*
X213890104Y-50759792D01*
X213890106Y-50759788D01*
X213890109Y-50759786D01*
X214015048Y-50587820D01*
X214015047Y-50587820D01*
X214015051Y-50587816D01*
X214019514Y-50579054D01*
X214067488Y-50528259D01*
X214135308Y-50511463D01*
X214201444Y-50533999D01*
X214240484Y-50579054D01*
X214244591Y-50587115D01*
X214244951Y-50587820D01*
X214369890Y-50759786D01*
X214520213Y-50910109D01*
X214692179Y-51035048D01*
X214692181Y-51035049D01*
X214692184Y-51035051D01*
X214881588Y-51131557D01*
X215083757Y-51197246D01*
X215293713Y-51230500D01*
X215293714Y-51230500D01*
X215506286Y-51230500D01*
X215506287Y-51230500D01*
X215716243Y-51197246D01*
X215918412Y-51131557D01*
X216107816Y-51035051D01*
X216129789Y-51019086D01*
X216279786Y-50910109D01*
X216279788Y-50910106D01*
X216279792Y-50910104D01*
X216430104Y-50759792D01*
X216487432Y-50680885D01*
X216542762Y-50638219D01*
X216612375Y-50632240D01*
X216674170Y-50664845D01*
X216675432Y-50666089D01*
X218663181Y-52653838D01*
X218696666Y-52715161D01*
X218699500Y-52741519D01*
X218699500Y-73568059D01*
X218679815Y-73635098D01*
X218627011Y-73680853D01*
X218557853Y-73690797D01*
X218494297Y-73661772D01*
X218487819Y-73655740D01*
X218460292Y-73628213D01*
X218460288Y-73628210D01*
X218329185Y-73540609D01*
X218329172Y-73540602D01*
X218183501Y-73480264D01*
X218183489Y-73480261D01*
X218028845Y-73449500D01*
X218028842Y-73449500D01*
X217871158Y-73449500D01*
X217871155Y-73449500D01*
X217716510Y-73480261D01*
X217716498Y-73480264D01*
X217570827Y-73540602D01*
X217570814Y-73540609D01*
X217439125Y-73628602D01*
X217372447Y-73649480D01*
X217370234Y-73649500D01*
X215279766Y-73649500D01*
X215212727Y-73629815D01*
X215210875Y-73628602D01*
X215079185Y-73540609D01*
X215079172Y-73540602D01*
X214933501Y-73480264D01*
X214933489Y-73480261D01*
X214778845Y-73449500D01*
X214778842Y-73449500D01*
X214621158Y-73449500D01*
X214621155Y-73449500D01*
X214466510Y-73480261D01*
X214466498Y-73480264D01*
X214320827Y-73540602D01*
X214320816Y-73540608D01*
X214293390Y-73558934D01*
X214226712Y-73579811D01*
X214159332Y-73561326D01*
X214112643Y-73509346D01*
X214100500Y-73455831D01*
X214100500Y-73421155D01*
X214100499Y-73421153D01*
X214069738Y-73266510D01*
X214069737Y-73266503D01*
X214009394Y-73120821D01*
X213974694Y-73068889D01*
X213953816Y-73002215D01*
X213972300Y-72934835D01*
X213974676Y-72931136D01*
X214009394Y-72879179D01*
X214069737Y-72733497D01*
X214100500Y-72578842D01*
X214100500Y-72421158D01*
X214100500Y-72421155D01*
X214100499Y-72421153D01*
X214069738Y-72266510D01*
X214069737Y-72266503D01*
X214009394Y-72120821D01*
X213974694Y-72068889D01*
X213953816Y-72002215D01*
X213972300Y-71934835D01*
X213974676Y-71931136D01*
X214009394Y-71879179D01*
X214069737Y-71733497D01*
X214100500Y-71578842D01*
X214100500Y-71421158D01*
X214100500Y-71421155D01*
X214100499Y-71421153D01*
X214069738Y-71266510D01*
X214069737Y-71266503D01*
X214009394Y-71120821D01*
X213974694Y-71068889D01*
X213953816Y-71002215D01*
X213972300Y-70934835D01*
X213974676Y-70931136D01*
X214009394Y-70879179D01*
X214069737Y-70733497D01*
X214100500Y-70578842D01*
X214100500Y-70421158D01*
X214100500Y-70421155D01*
X214100499Y-70421153D01*
X214069738Y-70266510D01*
X214069737Y-70266503D01*
X214069735Y-70266498D01*
X214009397Y-70120827D01*
X214009390Y-70120814D01*
X213921789Y-69989711D01*
X213921786Y-69989707D01*
X213810292Y-69878213D01*
X213810288Y-69878210D01*
X213679185Y-69790609D01*
X213679172Y-69790602D01*
X213533501Y-69730264D01*
X213533489Y-69730261D01*
X213378845Y-69699500D01*
X213378842Y-69699500D01*
X213221158Y-69699500D01*
X213221155Y-69699500D01*
X213066510Y-69730261D01*
X213066498Y-69730264D01*
X212920827Y-69790602D01*
X212920814Y-69790609D01*
X212868891Y-69825304D01*
X212802214Y-69846182D01*
X212734833Y-69827698D01*
X212731109Y-69825304D01*
X212679185Y-69790609D01*
X212679172Y-69790602D01*
X212533501Y-69730264D01*
X212533489Y-69730261D01*
X212378845Y-69699500D01*
X212378842Y-69699500D01*
X212221158Y-69699500D01*
X212221155Y-69699500D01*
X212066510Y-69730261D01*
X212066498Y-69730264D01*
X211920827Y-69790602D01*
X211920814Y-69790609D01*
X211868891Y-69825304D01*
X211802214Y-69846182D01*
X211734833Y-69827698D01*
X211731109Y-69825304D01*
X211679185Y-69790609D01*
X211679172Y-69790602D01*
X211533501Y-69730264D01*
X211533489Y-69730261D01*
X211378845Y-69699500D01*
X211378842Y-69699500D01*
X211324500Y-69699500D01*
X211257461Y-69679815D01*
X211211706Y-69627011D01*
X211200500Y-69575500D01*
X211200500Y-67441517D01*
X211220185Y-67374478D01*
X211236815Y-67353840D01*
X211653176Y-66937478D01*
X211714497Y-66903995D01*
X211779171Y-66907229D01*
X211798632Y-66913553D01*
X211886110Y-66927408D01*
X212031903Y-66950500D01*
X212031908Y-66950500D01*
X212268097Y-66950500D01*
X212501368Y-66913553D01*
X212556384Y-66895677D01*
X212725992Y-66840568D01*
X212936433Y-66733343D01*
X213127510Y-66594517D01*
X213294517Y-66427510D01*
X213433343Y-66236433D01*
X213540568Y-66025992D01*
X213613553Y-65801368D01*
X213615717Y-65787708D01*
X213650500Y-65568097D01*
X213650500Y-65331947D01*
X215150000Y-65331947D01*
X215150000Y-65568052D01*
X215186934Y-65801247D01*
X215259897Y-66025802D01*
X215367087Y-66236174D01*
X215427338Y-66319104D01*
X215427340Y-66319105D01*
X216126212Y-65620233D01*
X216137482Y-65662292D01*
X216209890Y-65787708D01*
X216312292Y-65890110D01*
X216437708Y-65962518D01*
X216479765Y-65973787D01*
X215780893Y-66672658D01*
X215863828Y-66732914D01*
X216074197Y-66840102D01*
X216298752Y-66913065D01*
X216298751Y-66913065D01*
X216531948Y-66950000D01*
X216768052Y-66950000D01*
X217001247Y-66913065D01*
X217225802Y-66840102D01*
X217436163Y-66732918D01*
X217436169Y-66732914D01*
X217519104Y-66672658D01*
X217519105Y-66672658D01*
X216820233Y-65973787D01*
X216862292Y-65962518D01*
X216987708Y-65890110D01*
X217090110Y-65787708D01*
X217162518Y-65662292D01*
X217173787Y-65620233D01*
X217872658Y-66319105D01*
X217872658Y-66319104D01*
X217932914Y-66236169D01*
X217932918Y-66236163D01*
X218040102Y-66025802D01*
X218113065Y-65801247D01*
X218150000Y-65568052D01*
X218150000Y-65331947D01*
X218113065Y-65098752D01*
X218040102Y-64874197D01*
X217932914Y-64663828D01*
X217872658Y-64580894D01*
X217872658Y-64580893D01*
X217173787Y-65279765D01*
X217162518Y-65237708D01*
X217090110Y-65112292D01*
X216987708Y-65009890D01*
X216862292Y-64937482D01*
X216820234Y-64926212D01*
X217519105Y-64227340D01*
X217519104Y-64227338D01*
X217436174Y-64167087D01*
X217225802Y-64059897D01*
X217001247Y-63986934D01*
X217001248Y-63986934D01*
X216768052Y-63950000D01*
X216531948Y-63950000D01*
X216298752Y-63986934D01*
X216074197Y-64059897D01*
X215863830Y-64167084D01*
X215780894Y-64227340D01*
X216479766Y-64926212D01*
X216437708Y-64937482D01*
X216312292Y-65009890D01*
X216209890Y-65112292D01*
X216137482Y-65237708D01*
X216126212Y-65279766D01*
X215427340Y-64580894D01*
X215367084Y-64663830D01*
X215259897Y-64874197D01*
X215186934Y-65098752D01*
X215150000Y-65331947D01*
X213650500Y-65331947D01*
X213650500Y-65331902D01*
X213613553Y-65098631D01*
X213540566Y-64874003D01*
X213433477Y-64663830D01*
X213433343Y-64663567D01*
X213294517Y-64472490D01*
X213127510Y-64305483D01*
X212936433Y-64166657D01*
X212725996Y-64059433D01*
X212501368Y-63986446D01*
X212268097Y-63949500D01*
X212268092Y-63949500D01*
X212031908Y-63949500D01*
X212031903Y-63949500D01*
X211798631Y-63986446D01*
X211574003Y-64059433D01*
X211363566Y-64166657D01*
X211280047Y-64227338D01*
X211172490Y-64305483D01*
X211172488Y-64305485D01*
X211172487Y-64305485D01*
X211005485Y-64472487D01*
X211005485Y-64472488D01*
X211005483Y-64472490D01*
X210945862Y-64554550D01*
X210866657Y-64663566D01*
X210759433Y-64874003D01*
X210686446Y-65098631D01*
X210649500Y-65331902D01*
X210649500Y-65568097D01*
X210686447Y-65801369D01*
X210692769Y-65820828D01*
X210694762Y-65890669D01*
X210662518Y-65946824D01*
X209955888Y-66653453D01*
X209955885Y-66653456D01*
X209902507Y-66733344D01*
X209879230Y-66768180D01*
X209879223Y-66768192D01*
X209826420Y-66895671D01*
X209826418Y-66895677D01*
X209799500Y-67031004D01*
X209799500Y-78758481D01*
X209779815Y-78825520D01*
X209763181Y-78846162D01*
X191146162Y-97463181D01*
X191084839Y-97496666D01*
X191058481Y-97499500D01*
X178873104Y-97499500D01*
X178806065Y-97479815D01*
X178760310Y-97427011D01*
X178750366Y-97357853D01*
X178779391Y-97294297D01*
X178804214Y-97272397D01*
X178826557Y-97257468D01*
X178846543Y-97244114D01*
X188494586Y-87596069D01*
X188534810Y-87569192D01*
X188589435Y-87546566D01*
X188679173Y-87509397D01*
X188679176Y-87509395D01*
X188679179Y-87509394D01*
X188810289Y-87421789D01*
X188921789Y-87310289D01*
X189009394Y-87179179D01*
X189012719Y-87171153D01*
X189069735Y-87033501D01*
X189069737Y-87033497D01*
X189100500Y-86878842D01*
X189100500Y-86721158D01*
X189100500Y-86721155D01*
X189100499Y-86721153D01*
X189090811Y-86672447D01*
X189069737Y-86566503D01*
X189052873Y-86525789D01*
X189009397Y-86420827D01*
X189009390Y-86420814D01*
X188921789Y-86289711D01*
X188921786Y-86289707D01*
X188810292Y-86178213D01*
X188810288Y-86178210D01*
X188679185Y-86090609D01*
X188679172Y-86090602D01*
X188533501Y-86030264D01*
X188533489Y-86030261D01*
X188378845Y-85999500D01*
X188378842Y-85999500D01*
X188221158Y-85999500D01*
X188221155Y-85999500D01*
X188066510Y-86030261D01*
X188066498Y-86030264D01*
X187920827Y-86090602D01*
X187920814Y-86090609D01*
X187789711Y-86178210D01*
X187789707Y-86178213D01*
X187678213Y-86289707D01*
X187678210Y-86289711D01*
X187590609Y-86420814D01*
X187590604Y-86420823D01*
X187530809Y-86565184D01*
X187503929Y-86605412D01*
X178146162Y-95963181D01*
X178084839Y-95996666D01*
X178058481Y-95999500D01*
X170825316Y-95999500D01*
X170777864Y-95990061D01*
X170633501Y-95930264D01*
X170633489Y-95930261D01*
X170478845Y-95899500D01*
X170478842Y-95899500D01*
X170321158Y-95899500D01*
X170321155Y-95899500D01*
X170166510Y-95930261D01*
X170166498Y-95930264D01*
X170020827Y-95990602D01*
X170020814Y-95990609D01*
X169889711Y-96078210D01*
X169889707Y-96078213D01*
X169778213Y-96189707D01*
X169778210Y-96189711D01*
X169690609Y-96320814D01*
X169690602Y-96320827D01*
X169630264Y-96466498D01*
X169630261Y-96466510D01*
X169599500Y-96621153D01*
X169599500Y-96778846D01*
X169630261Y-96933489D01*
X169630264Y-96933501D01*
X169690602Y-97079172D01*
X169690609Y-97079185D01*
X169778210Y-97210288D01*
X169778213Y-97210292D01*
X169889707Y-97321786D01*
X169889715Y-97321792D01*
X169967285Y-97373623D01*
X170012091Y-97427235D01*
X170020798Y-97496560D01*
X169990644Y-97559587D01*
X169967286Y-97579827D01*
X169853457Y-97655885D01*
X169853453Y-97655888D01*
X168855887Y-98653454D01*
X168833577Y-98686843D01*
X168811368Y-98720083D01*
X168798563Y-98739245D01*
X168779228Y-98768183D01*
X168779223Y-98768192D01*
X168726420Y-98895671D01*
X168726418Y-98895677D01*
X168699500Y-99031004D01*
X168699500Y-111568059D01*
X168679815Y-111635098D01*
X168627011Y-111680853D01*
X168557853Y-111690797D01*
X168494297Y-111661772D01*
X168487819Y-111655740D01*
X168410292Y-111578213D01*
X168410288Y-111578210D01*
X168279185Y-111490609D01*
X168279172Y-111490602D01*
X168133501Y-111430264D01*
X168133489Y-111430261D01*
X167978845Y-111399500D01*
X167978842Y-111399500D01*
X167821158Y-111399500D01*
X167821155Y-111399500D01*
X167666510Y-111430261D01*
X167666498Y-111430264D01*
X167520827Y-111490602D01*
X167520814Y-111490609D01*
X167389711Y-111578210D01*
X167389707Y-111578213D01*
X167278213Y-111689707D01*
X167278210Y-111689711D01*
X167227602Y-111765451D01*
X167173989Y-111810256D01*
X167104664Y-111818963D01*
X167041637Y-111788808D01*
X167004918Y-111729365D01*
X167000500Y-111696560D01*
X167000500Y-93792683D01*
X167000500Y-93792682D01*
X166975929Y-93621786D01*
X166975838Y-93621153D01*
X177999500Y-93621153D01*
X177999500Y-93778846D01*
X178030261Y-93933489D01*
X178030264Y-93933501D01*
X178090602Y-94079172D01*
X178090609Y-94079185D01*
X178178210Y-94210288D01*
X178178213Y-94210292D01*
X178289707Y-94321786D01*
X178289711Y-94321789D01*
X178420814Y-94409390D01*
X178420827Y-94409397D01*
X178566498Y-94469735D01*
X178566503Y-94469737D01*
X178721153Y-94500499D01*
X178721156Y-94500500D01*
X178721158Y-94500500D01*
X178878844Y-94500500D01*
X178878845Y-94500499D01*
X179033497Y-94469737D01*
X179179179Y-94409394D01*
X179310289Y-94321789D01*
X179421789Y-94210289D01*
X179509394Y-94079179D01*
X179569737Y-93933497D01*
X179600500Y-93778842D01*
X179600500Y-93621158D01*
X179600500Y-93621155D01*
X179600499Y-93621153D01*
X179578447Y-93510292D01*
X179569737Y-93466503D01*
X179544796Y-93406290D01*
X179509397Y-93320827D01*
X179509390Y-93320814D01*
X179421789Y-93189711D01*
X179421786Y-93189707D01*
X179310292Y-93078213D01*
X179310288Y-93078210D01*
X179179185Y-92990609D01*
X179179172Y-92990602D01*
X179033501Y-92930264D01*
X179033489Y-92930261D01*
X178878845Y-92899500D01*
X178878842Y-92899500D01*
X178721158Y-92899500D01*
X178721155Y-92899500D01*
X178566510Y-92930261D01*
X178566498Y-92930264D01*
X178420827Y-92990602D01*
X178420814Y-92990609D01*
X178289711Y-93078210D01*
X178289707Y-93078213D01*
X178178213Y-93189707D01*
X178178210Y-93189711D01*
X178090609Y-93320814D01*
X178090602Y-93320827D01*
X178030264Y-93466498D01*
X178030261Y-93466510D01*
X177999500Y-93621153D01*
X166975838Y-93621153D01*
X166969955Y-93580235D01*
X166969952Y-93580225D01*
X166957212Y-93536835D01*
X166909484Y-93374290D01*
X166909483Y-93374288D01*
X166909482Y-93374284D01*
X166820329Y-93179067D01*
X166820319Y-93179047D01*
X166819680Y-93178053D01*
X166819568Y-93177673D01*
X166818202Y-93175171D01*
X166818746Y-93174873D01*
X166800000Y-93111020D01*
X166800000Y-92887500D01*
X166664739Y-92887500D01*
X166597700Y-92867815D01*
X166571025Y-92844702D01*
X166563723Y-92836275D01*
X166401514Y-92695720D01*
X166401513Y-92695719D01*
X166336991Y-92654253D01*
X166220951Y-92579679D01*
X166220938Y-92579672D01*
X166025715Y-92490517D01*
X165819774Y-92430047D01*
X165819764Y-92430044D01*
X165628754Y-92402582D01*
X165607318Y-92399500D01*
X165607317Y-92399500D01*
X161006962Y-92399500D01*
X160993078Y-92398720D01*
X160980553Y-92397308D01*
X160902735Y-92388540D01*
X160875666Y-92382362D01*
X160796462Y-92354648D01*
X160771444Y-92342600D01*
X160700395Y-92297957D01*
X160678686Y-92280644D01*
X160619355Y-92221313D01*
X160602042Y-92199604D01*
X160557399Y-92128555D01*
X160545351Y-92103537D01*
X160517637Y-92024333D01*
X160511459Y-91997263D01*
X160501280Y-91906922D01*
X160500500Y-91893038D01*
X160500500Y-89814234D01*
X165739500Y-89814234D01*
X165739500Y-89965766D01*
X165759109Y-90038950D01*
X165778719Y-90112136D01*
X165789093Y-90130104D01*
X165854485Y-90243365D01*
X165961635Y-90350515D01*
X166092865Y-90426281D01*
X166239234Y-90465500D01*
X166239236Y-90465500D01*
X166390764Y-90465500D01*
X166390766Y-90465500D01*
X166537135Y-90426281D01*
X166668365Y-90350515D01*
X166775515Y-90243365D01*
X166851281Y-90112135D01*
X166890500Y-89965766D01*
X166890500Y-89814234D01*
X166851281Y-89667865D01*
X166775515Y-89536635D01*
X166668365Y-89429485D01*
X166602750Y-89391602D01*
X166537136Y-89353719D01*
X166463950Y-89334109D01*
X166390766Y-89314500D01*
X166239234Y-89314500D01*
X166092863Y-89353719D01*
X165961635Y-89429485D01*
X165961632Y-89429487D01*
X165854487Y-89536632D01*
X165854485Y-89536635D01*
X165778719Y-89667863D01*
X165761678Y-89731463D01*
X165739500Y-89814234D01*
X160500500Y-89814234D01*
X160500500Y-85871153D01*
X165399500Y-85871153D01*
X165399500Y-86028846D01*
X165430261Y-86183489D01*
X165430264Y-86183501D01*
X165490602Y-86329172D01*
X165490609Y-86329185D01*
X165578602Y-86460874D01*
X165584252Y-86478920D01*
X165594477Y-86494830D01*
X165598928Y-86525789D01*
X165599480Y-86527551D01*
X165599500Y-86529765D01*
X165599500Y-86670234D01*
X165579815Y-86737273D01*
X165578602Y-86739125D01*
X165490609Y-86870814D01*
X165490602Y-86870827D01*
X165430264Y-87016498D01*
X165430261Y-87016510D01*
X165399500Y-87171153D01*
X165399500Y-87328846D01*
X165430261Y-87483489D01*
X165430264Y-87483501D01*
X165490602Y-87629172D01*
X165490609Y-87629185D01*
X165578210Y-87760288D01*
X165578213Y-87760292D01*
X165689707Y-87871786D01*
X165689711Y-87871789D01*
X165820814Y-87959390D01*
X165820827Y-87959397D01*
X165966498Y-88019735D01*
X165966503Y-88019737D01*
X166121153Y-88050499D01*
X166121156Y-88050500D01*
X166121158Y-88050500D01*
X166278844Y-88050500D01*
X166278845Y-88050499D01*
X166433497Y-88019737D01*
X166546166Y-87973067D01*
X166579172Y-87959397D01*
X166579172Y-87959396D01*
X166579179Y-87959394D01*
X166710289Y-87871789D01*
X166821789Y-87760289D01*
X166909394Y-87629179D01*
X166969737Y-87483497D01*
X167000500Y-87328842D01*
X167000500Y-87171158D01*
X167000500Y-87171155D01*
X167000499Y-87171153D01*
X166973117Y-87033497D01*
X166969737Y-87016503D01*
X166969735Y-87016498D01*
X166909397Y-86870827D01*
X166909390Y-86870814D01*
X166821398Y-86739125D01*
X166815747Y-86721078D01*
X166805523Y-86705169D01*
X166801071Y-86674207D01*
X166800520Y-86672447D01*
X166800500Y-86670234D01*
X166800500Y-86529765D01*
X166820185Y-86462726D01*
X166821398Y-86460874D01*
X166909390Y-86329185D01*
X166909390Y-86329184D01*
X166909394Y-86329179D01*
X166969737Y-86183497D01*
X167000500Y-86028842D01*
X167000500Y-85871158D01*
X167000500Y-85871155D01*
X167000499Y-85871153D01*
X166975846Y-85747215D01*
X166969737Y-85716503D01*
X166920351Y-85597273D01*
X166909397Y-85570827D01*
X166909390Y-85570814D01*
X166821789Y-85439711D01*
X166821786Y-85439707D01*
X166710292Y-85328213D01*
X166710288Y-85328210D01*
X166579185Y-85240609D01*
X166579172Y-85240602D01*
X166433501Y-85180264D01*
X166433489Y-85180261D01*
X166278845Y-85149500D01*
X166278842Y-85149500D01*
X166121158Y-85149500D01*
X166121155Y-85149500D01*
X165966510Y-85180261D01*
X165966498Y-85180264D01*
X165820827Y-85240602D01*
X165820814Y-85240609D01*
X165689711Y-85328210D01*
X165689707Y-85328213D01*
X165578213Y-85439707D01*
X165578210Y-85439711D01*
X165490609Y-85570814D01*
X165490602Y-85570827D01*
X165430264Y-85716498D01*
X165430261Y-85716510D01*
X165399500Y-85871153D01*
X160500500Y-85871153D01*
X160500500Y-84034234D01*
X165739500Y-84034234D01*
X165739500Y-84185766D01*
X165759109Y-84258950D01*
X165778719Y-84332136D01*
X165816602Y-84397750D01*
X165854485Y-84463365D01*
X165961635Y-84570515D01*
X166092865Y-84646281D01*
X166239234Y-84685500D01*
X166239236Y-84685500D01*
X166390764Y-84685500D01*
X166390766Y-84685500D01*
X166537135Y-84646281D01*
X166668365Y-84570515D01*
X166775515Y-84463365D01*
X166851281Y-84332135D01*
X166890500Y-84185766D01*
X166890500Y-84034234D01*
X166851281Y-83887865D01*
X166775515Y-83756635D01*
X166668365Y-83649485D01*
X166581789Y-83599500D01*
X166537136Y-83573719D01*
X166463950Y-83554109D01*
X166390766Y-83534500D01*
X166239234Y-83534500D01*
X166092863Y-83573719D01*
X165961635Y-83649485D01*
X165961632Y-83649487D01*
X165854487Y-83756632D01*
X165854485Y-83756635D01*
X165778719Y-83887863D01*
X165739500Y-84034234D01*
X160500500Y-84034234D01*
X160500500Y-80821153D01*
X200299500Y-80821153D01*
X200299500Y-80978846D01*
X200330261Y-81133489D01*
X200330264Y-81133501D01*
X200390602Y-81279172D01*
X200390609Y-81279185D01*
X200478210Y-81410288D01*
X200478213Y-81410292D01*
X200589707Y-81521786D01*
X200589711Y-81521789D01*
X200720814Y-81609390D01*
X200720823Y-81609395D01*
X200783699Y-81635439D01*
X200838102Y-81679280D01*
X200860167Y-81745574D01*
X200842888Y-81813273D01*
X200791751Y-81860884D01*
X200783699Y-81864561D01*
X200720823Y-81890604D01*
X200720814Y-81890609D01*
X200589711Y-81978210D01*
X200589707Y-81978213D01*
X200478213Y-82089707D01*
X200478210Y-82089711D01*
X200390609Y-82220814D01*
X200390602Y-82220827D01*
X200330264Y-82366498D01*
X200330261Y-82366510D01*
X200299500Y-82521153D01*
X200299500Y-82678846D01*
X200330261Y-82833489D01*
X200330264Y-82833501D01*
X200390602Y-82979172D01*
X200390609Y-82979185D01*
X200478210Y-83110288D01*
X200478213Y-83110292D01*
X200589707Y-83221786D01*
X200589711Y-83221789D01*
X200720814Y-83309390D01*
X200720827Y-83309397D01*
X200866498Y-83369735D01*
X200866503Y-83369737D01*
X201021153Y-83400499D01*
X201021156Y-83400500D01*
X201021158Y-83400500D01*
X201178844Y-83400500D01*
X201178845Y-83400499D01*
X201333497Y-83369737D01*
X201479179Y-83309394D01*
X201610289Y-83221789D01*
X201721789Y-83110289D01*
X201809394Y-82979179D01*
X201869737Y-82833497D01*
X201900500Y-82678842D01*
X201900500Y-82521158D01*
X201900500Y-82521155D01*
X201900499Y-82521153D01*
X201869738Y-82366510D01*
X201869737Y-82366503D01*
X201869735Y-82366498D01*
X201809397Y-82220827D01*
X201809390Y-82220814D01*
X201721789Y-82089711D01*
X201721786Y-82089707D01*
X201610292Y-81978213D01*
X201610288Y-81978210D01*
X201479185Y-81890609D01*
X201479172Y-81890602D01*
X201416301Y-81864561D01*
X201361897Y-81820721D01*
X201339832Y-81754427D01*
X201357111Y-81686727D01*
X201408248Y-81639116D01*
X201416301Y-81635439D01*
X201479172Y-81609397D01*
X201479172Y-81609396D01*
X201479179Y-81609394D01*
X201610289Y-81521789D01*
X201721789Y-81410289D01*
X201809394Y-81279179D01*
X201869737Y-81133497D01*
X201900500Y-80978842D01*
X201900500Y-80821158D01*
X201900500Y-80821155D01*
X201900499Y-80821153D01*
X201869738Y-80666510D01*
X201869737Y-80666503D01*
X201869735Y-80666498D01*
X201809397Y-80520827D01*
X201809390Y-80520814D01*
X201721789Y-80389711D01*
X201721786Y-80389707D01*
X201610292Y-80278213D01*
X201610288Y-80278210D01*
X201479185Y-80190609D01*
X201479172Y-80190602D01*
X201333501Y-80130264D01*
X201333489Y-80130261D01*
X201178845Y-80099500D01*
X201178842Y-80099500D01*
X201021158Y-80099500D01*
X201021155Y-80099500D01*
X200866510Y-80130261D01*
X200866498Y-80130264D01*
X200720827Y-80190602D01*
X200720814Y-80190609D01*
X200589711Y-80278210D01*
X200589707Y-80278213D01*
X200478213Y-80389707D01*
X200478210Y-80389711D01*
X200390609Y-80520814D01*
X200390602Y-80520827D01*
X200330264Y-80666498D01*
X200330261Y-80666510D01*
X200299500Y-80821153D01*
X160500500Y-80821153D01*
X160500500Y-58831902D01*
X210649500Y-58831902D01*
X210649500Y-59068097D01*
X210686446Y-59301368D01*
X210759433Y-59525996D01*
X210866519Y-59736163D01*
X210866657Y-59736433D01*
X211005483Y-59927510D01*
X211172490Y-60094517D01*
X211363567Y-60233343D01*
X211462991Y-60284002D01*
X211574003Y-60340566D01*
X211574005Y-60340566D01*
X211574008Y-60340568D01*
X211694412Y-60379689D01*
X211798631Y-60413553D01*
X212031903Y-60450500D01*
X212031908Y-60450500D01*
X212268097Y-60450500D01*
X212501368Y-60413553D01*
X212502870Y-60413065D01*
X212725992Y-60340568D01*
X212936433Y-60233343D01*
X213127510Y-60094517D01*
X213294517Y-59927510D01*
X213433343Y-59736433D01*
X213540568Y-59525992D01*
X213613553Y-59301368D01*
X213615717Y-59287708D01*
X213650500Y-59068097D01*
X213650500Y-58831947D01*
X215150000Y-58831947D01*
X215150000Y-59068052D01*
X215186934Y-59301247D01*
X215259897Y-59525802D01*
X215367087Y-59736174D01*
X215427338Y-59819104D01*
X215427340Y-59819105D01*
X216126212Y-59120233D01*
X216137482Y-59162292D01*
X216209890Y-59287708D01*
X216312292Y-59390110D01*
X216437708Y-59462518D01*
X216479765Y-59473787D01*
X215780893Y-60172658D01*
X215863828Y-60232914D01*
X216074197Y-60340102D01*
X216298752Y-60413065D01*
X216298751Y-60413065D01*
X216531948Y-60450000D01*
X216768052Y-60450000D01*
X217001247Y-60413065D01*
X217225802Y-60340102D01*
X217436163Y-60232918D01*
X217436169Y-60232914D01*
X217519104Y-60172658D01*
X217519105Y-60172658D01*
X216820233Y-59473787D01*
X216862292Y-59462518D01*
X216987708Y-59390110D01*
X217090110Y-59287708D01*
X217162518Y-59162292D01*
X217173787Y-59120233D01*
X217872658Y-59819105D01*
X217872658Y-59819104D01*
X217932914Y-59736169D01*
X217932918Y-59736163D01*
X218040102Y-59525802D01*
X218113065Y-59301247D01*
X218150000Y-59068052D01*
X218150000Y-58831947D01*
X218113065Y-58598752D01*
X218040102Y-58374197D01*
X217932914Y-58163828D01*
X217872658Y-58080894D01*
X217872658Y-58080893D01*
X217173787Y-58779765D01*
X217162518Y-58737708D01*
X217090110Y-58612292D01*
X216987708Y-58509890D01*
X216862292Y-58437482D01*
X216820234Y-58426212D01*
X217519105Y-57727340D01*
X217519104Y-57727338D01*
X217436174Y-57667087D01*
X217225802Y-57559897D01*
X217001247Y-57486934D01*
X217001248Y-57486934D01*
X216768052Y-57450000D01*
X216531948Y-57450000D01*
X216298752Y-57486934D01*
X216074197Y-57559897D01*
X215863830Y-57667084D01*
X215780894Y-57727340D01*
X216479766Y-58426212D01*
X216437708Y-58437482D01*
X216312292Y-58509890D01*
X216209890Y-58612292D01*
X216137482Y-58737708D01*
X216126212Y-58779766D01*
X215427340Y-58080894D01*
X215367084Y-58163830D01*
X215259897Y-58374197D01*
X215186934Y-58598752D01*
X215150000Y-58831947D01*
X213650500Y-58831947D01*
X213650500Y-58831902D01*
X213613553Y-58598631D01*
X213540566Y-58374003D01*
X213433477Y-58163830D01*
X213433343Y-58163567D01*
X213294517Y-57972490D01*
X213127510Y-57805483D01*
X212936433Y-57666657D01*
X212725996Y-57559433D01*
X212501368Y-57486446D01*
X212268097Y-57449500D01*
X212268092Y-57449500D01*
X212031908Y-57449500D01*
X212031903Y-57449500D01*
X211798631Y-57486446D01*
X211574003Y-57559433D01*
X211363566Y-57666657D01*
X211280047Y-57727338D01*
X211172490Y-57805483D01*
X211172488Y-57805485D01*
X211172487Y-57805485D01*
X211005485Y-57972487D01*
X211005485Y-57972488D01*
X211005483Y-57972490D01*
X210945862Y-58054550D01*
X210866657Y-58163566D01*
X210759433Y-58374003D01*
X210686446Y-58598631D01*
X210649500Y-58831902D01*
X160500500Y-58831902D01*
X160500500Y-31006961D01*
X160501280Y-30993077D01*
X160501741Y-30988986D01*
X160511459Y-30902731D01*
X160517635Y-30875670D01*
X160545353Y-30796456D01*
X160557396Y-30771450D01*
X160602046Y-30700389D01*
X160619351Y-30678690D01*
X160678690Y-30619351D01*
X160700389Y-30602046D01*
X160771450Y-30557396D01*
X160796456Y-30545353D01*
X160875670Y-30517635D01*
X160902733Y-30511459D01*
X160965419Y-30504396D01*
X160993079Y-30501280D01*
X161006962Y-30500500D01*
X161065892Y-30500500D01*
X218634108Y-30500500D01*
X218696948Y-30500500D01*
X218703032Y-30500649D01*
G37*
G04 #@! TD.AperFunction*
G04 #@! TA.AperFunction,Conductor*
G36*
X176625703Y-125310739D02*
G01*
X176632181Y-125316771D01*
X177333181Y-126017771D01*
X177366666Y-126079094D01*
X177369500Y-126105452D01*
X177369500Y-127230619D01*
X177363736Y-127250248D01*
X177362847Y-127270690D01*
X177350804Y-127294287D01*
X177349815Y-127297658D01*
X177346806Y-127302124D01*
X177346804Y-127302127D01*
X177341241Y-127310008D01*
X177286499Y-127353426D01*
X177239937Y-127362500D01*
X177145000Y-127362500D01*
X177145000Y-127554097D01*
X177143220Y-127562848D01*
X177144173Y-127568395D01*
X177138397Y-127586569D01*
X177135155Y-127602518D01*
X177129582Y-127615655D01*
X177126204Y-127620169D01*
X177115529Y-127648785D01*
X177114454Y-127651322D01*
X177113839Y-127652071D01*
X177109538Y-127661577D01*
X177103934Y-127672009D01*
X177101891Y-127677254D01*
X177091045Y-127708008D01*
X177089693Y-127713269D01*
X177089619Y-127713250D01*
X177084939Y-127730802D01*
X177075909Y-127755014D01*
X177075908Y-127755020D01*
X177069501Y-127814616D01*
X177069500Y-127814627D01*
X177069500Y-127838170D01*
X177067548Y-127849964D01*
X177069500Y-127865941D01*
X177069500Y-128288500D01*
X177049815Y-128355539D01*
X176997011Y-128401294D01*
X176945500Y-128412500D01*
X176844499Y-128412500D01*
X176777460Y-128392815D01*
X176731705Y-128340011D01*
X176720499Y-128288500D01*
X176720499Y-127900965D01*
X176721467Y-127896344D01*
X176720499Y-127884136D01*
X176720499Y-127814628D01*
X176714091Y-127755017D01*
X176714090Y-127755014D01*
X176703861Y-127727588D01*
X176703860Y-127727587D01*
X176702094Y-127722851D01*
X176693398Y-127692089D01*
X176683077Y-127671864D01*
X176663796Y-127620169D01*
X176660170Y-127613529D01*
X176645000Y-127554098D01*
X176645000Y-127362500D01*
X176550061Y-127362500D01*
X176543982Y-127360715D01*
X176537757Y-127361888D01*
X176510859Y-127350989D01*
X176483022Y-127342815D01*
X176477398Y-127337430D01*
X176473002Y-127335649D01*
X176448755Y-127310005D01*
X176443191Y-127302123D01*
X176420617Y-127236002D01*
X176420500Y-127230621D01*
X176420500Y-125404452D01*
X176440185Y-125337413D01*
X176492989Y-125291658D01*
X176562147Y-125281714D01*
X176625703Y-125310739D01*
G37*
G04 #@! TD.AperFunction*
G04 #@! TA.AperFunction,Conductor*
G36*
X181892539Y-100245185D02*
G01*
X181938294Y-100297989D01*
X181949500Y-100349500D01*
X181949500Y-101857870D01*
X181949501Y-101857876D01*
X181955908Y-101917483D01*
X182006202Y-102052328D01*
X182006206Y-102052335D01*
X182092452Y-102167544D01*
X182092455Y-102167547D01*
X182207664Y-102253793D01*
X182207671Y-102253797D01*
X182339082Y-102302810D01*
X182395016Y-102344681D01*
X182419433Y-102410145D01*
X182404582Y-102478418D01*
X182383431Y-102506673D01*
X182269889Y-102620215D01*
X182144951Y-102792179D01*
X182048444Y-102981585D01*
X182048443Y-102981587D01*
X182048443Y-102981588D01*
X182035586Y-103021158D01*
X181982753Y-103183760D01*
X181949500Y-103393713D01*
X181949500Y-103606286D01*
X181982161Y-103812504D01*
X181982754Y-103816243D01*
X182045140Y-104008247D01*
X182048444Y-104018414D01*
X182144951Y-104207820D01*
X182269890Y-104379786D01*
X182420213Y-104530109D01*
X182592182Y-104655050D01*
X182600946Y-104659516D01*
X182651742Y-104707491D01*
X182668536Y-104775312D01*
X182645998Y-104841447D01*
X182600946Y-104880484D01*
X182592182Y-104884949D01*
X182420213Y-105009890D01*
X182269890Y-105160213D01*
X182144951Y-105332179D01*
X182048444Y-105521585D01*
X181982753Y-105723760D01*
X181949500Y-105933713D01*
X181949500Y-106146286D01*
X181981116Y-106345905D01*
X181982754Y-106356243D01*
X181987519Y-106370909D01*
X182048444Y-106558414D01*
X182144951Y-106747820D01*
X182269890Y-106919786D01*
X182420213Y-107070109D01*
X182592179Y-107195048D01*
X182592181Y-107195049D01*
X182592184Y-107195051D01*
X182601493Y-107199794D01*
X182652290Y-107247766D01*
X182669087Y-107315587D01*
X182646552Y-107381722D01*
X182601502Y-107420762D01*
X182592443Y-107425378D01*
X182420540Y-107550272D01*
X182420535Y-107550276D01*
X182270276Y-107700535D01*
X182270272Y-107700540D01*
X182145379Y-107872442D01*
X182048904Y-108061782D01*
X181983242Y-108263870D01*
X181983242Y-108263873D01*
X181972769Y-108330000D01*
X182866988Y-108330000D01*
X182834075Y-108387007D01*
X182800000Y-108514174D01*
X182800000Y-108645826D01*
X182834075Y-108772993D01*
X182866988Y-108830000D01*
X181972769Y-108830000D01*
X181983242Y-108896126D01*
X181983242Y-108896129D01*
X182048904Y-109098217D01*
X182145379Y-109287557D01*
X182270272Y-109459459D01*
X182270276Y-109459464D01*
X182420535Y-109609723D01*
X182420540Y-109609727D01*
X182592442Y-109734620D01*
X182781782Y-109831095D01*
X182983871Y-109896757D01*
X183050000Y-109907231D01*
X183050000Y-109013012D01*
X183107007Y-109045925D01*
X183234174Y-109080000D01*
X183365826Y-109080000D01*
X183492993Y-109045925D01*
X183550000Y-109013012D01*
X183550000Y-109907230D01*
X183616126Y-109896757D01*
X183616129Y-109896757D01*
X183818217Y-109831095D01*
X184007557Y-109734620D01*
X184179459Y-109609727D01*
X184179464Y-109609723D01*
X184329723Y-109459464D01*
X184329727Y-109459459D01*
X184454620Y-109287557D01*
X184551095Y-109098217D01*
X184616757Y-108896129D01*
X184616757Y-108896126D01*
X184627231Y-108830000D01*
X183733012Y-108830000D01*
X183765925Y-108772993D01*
X183800000Y-108645826D01*
X183800000Y-108514174D01*
X183765925Y-108387007D01*
X183733012Y-108330000D01*
X184627231Y-108330000D01*
X184616757Y-108263873D01*
X184616757Y-108263870D01*
X184551095Y-108061782D01*
X184454620Y-107872442D01*
X184329727Y-107700540D01*
X184329723Y-107700535D01*
X184179464Y-107550276D01*
X184179459Y-107550272D01*
X184007555Y-107425377D01*
X183998500Y-107420763D01*
X183947706Y-107372788D01*
X183930912Y-107304966D01*
X183953451Y-107238832D01*
X183998508Y-107199793D01*
X184007816Y-107195051D01*
X184087007Y-107137515D01*
X184179786Y-107070109D01*
X184179788Y-107070106D01*
X184179792Y-107070104D01*
X184330104Y-106919792D01*
X184330106Y-106919788D01*
X184330109Y-106919786D01*
X184443386Y-106763871D01*
X184455051Y-106747816D01*
X184551557Y-106558412D01*
X184617246Y-106356243D01*
X184650500Y-106146287D01*
X184650500Y-105933713D01*
X184617246Y-105723757D01*
X184551557Y-105521588D01*
X184455051Y-105332184D01*
X184455049Y-105332181D01*
X184455048Y-105332179D01*
X184330109Y-105160213D01*
X184179786Y-105009890D01*
X184007820Y-104884951D01*
X184007115Y-104884591D01*
X183999054Y-104880485D01*
X183948259Y-104832512D01*
X183931463Y-104764692D01*
X183953999Y-104698556D01*
X183999054Y-104659515D01*
X184007816Y-104655051D01*
X184082901Y-104600499D01*
X184179786Y-104530109D01*
X184179792Y-104530104D01*
X184229376Y-104480520D01*
X184330104Y-104379792D01*
X184330106Y-104379788D01*
X184330109Y-104379786D01*
X184455048Y-104207820D01*
X184455047Y-104207820D01*
X184455051Y-104207816D01*
X184551557Y-104018412D01*
X184617246Y-103816243D01*
X184650500Y-103606287D01*
X184650500Y-103459097D01*
X184670185Y-103392058D01*
X184722989Y-103346303D01*
X184792147Y-103336359D01*
X184855703Y-103365384D01*
X184862181Y-103371416D01*
X185855139Y-104364374D01*
X185855149Y-104364385D01*
X185859479Y-104368715D01*
X185859480Y-104368716D01*
X185971284Y-104480520D01*
X186057167Y-104530104D01*
X186108215Y-104559577D01*
X186260942Y-104600500D01*
X186260943Y-104600500D01*
X188447846Y-104600500D01*
X188514885Y-104620185D01*
X188535527Y-104636819D01*
X191329643Y-107430935D01*
X191363128Y-107492258D01*
X191358144Y-107561950D01*
X191329643Y-107606297D01*
X187890606Y-111045336D01*
X187890597Y-111045346D01*
X187852981Y-111092022D01*
X187793194Y-111222936D01*
X187793193Y-111222940D01*
X187772713Y-111365396D01*
X187793193Y-111507851D01*
X187793194Y-111507855D01*
X187852980Y-111638766D01*
X187852981Y-111638767D01*
X187852982Y-111638769D01*
X187890601Y-111685452D01*
X187890604Y-111685455D01*
X187890609Y-111685461D01*
X190122619Y-113917469D01*
X190156104Y-113978792D01*
X190151120Y-114048484D01*
X190109248Y-114104417D01*
X190054338Y-114127623D01*
X189998629Y-114136447D01*
X189774003Y-114209433D01*
X189563566Y-114316657D01*
X189540383Y-114333501D01*
X189372490Y-114455483D01*
X189372488Y-114455485D01*
X189372487Y-114455485D01*
X189205485Y-114622487D01*
X189205485Y-114622488D01*
X189205483Y-114622490D01*
X189178749Y-114659286D01*
X189066657Y-114813566D01*
X188959433Y-115024003D01*
X188886446Y-115248631D01*
X188849500Y-115481902D01*
X188849500Y-115718097D01*
X188886446Y-115951368D01*
X188959433Y-116175996D01*
X189066659Y-116386436D01*
X189132904Y-116477615D01*
X189156384Y-116543421D01*
X189140559Y-116611475D01*
X189090453Y-116660170D01*
X189032586Y-116674500D01*
X188410453Y-116674500D01*
X188343414Y-116654815D01*
X188322772Y-116638181D01*
X179061819Y-107377228D01*
X179028334Y-107315905D01*
X179025500Y-107289547D01*
X179025500Y-101142350D01*
X179045185Y-101075311D01*
X179046398Y-101073459D01*
X179081346Y-101021155D01*
X179109394Y-100979179D01*
X179169737Y-100833497D01*
X179200500Y-100678842D01*
X179200500Y-100521158D01*
X179200500Y-100521155D01*
X179171167Y-100373692D01*
X179177394Y-100304100D01*
X179220257Y-100248923D01*
X179286146Y-100225678D01*
X179292784Y-100225500D01*
X181825500Y-100225500D01*
X181892539Y-100245185D01*
G37*
G04 #@! TD.AperFunction*
G04 #@! TA.AperFunction,Conductor*
G36*
X174181479Y-114155946D02*
G01*
X174188907Y-114160945D01*
X174190626Y-114169733D01*
X174190315Y-114170937D01*
X174027583Y-114686060D01*
X174021823Y-114692917D01*
X174016426Y-114694236D01*
X173783574Y-114694236D01*
X173775301Y-114690809D01*
X173772417Y-114686060D01*
X173609684Y-114170937D01*
X173610460Y-114162016D01*
X173617317Y-114156256D01*
X173618500Y-114155950D01*
X173897682Y-114099469D01*
X173902318Y-114099469D01*
X174181479Y-114155946D01*
G37*
G04 #@! TD.AperFunction*
G04 #@! TA.AperFunction,Conductor*
G36*
X173722210Y-127440927D02*
G01*
X173723496Y-127442453D01*
X174015020Y-127855445D01*
X174016991Y-127864180D01*
X174014725Y-127869338D01*
X173604264Y-128401489D01*
X173596498Y-128405947D01*
X173587854Y-128403607D01*
X173585736Y-128401489D01*
X173175274Y-127869338D01*
X173172934Y-127860694D01*
X173174977Y-127855448D01*
X173466504Y-127442453D01*
X173474075Y-127437670D01*
X173476063Y-127437500D01*
X173713937Y-127437500D01*
X173722210Y-127440927D01*
G37*
G04 #@! TD.AperFunction*
G04 #@! TA.AperFunction,Conductor*
G36*
X175654812Y-113981305D02*
G01*
X175655444Y-113982376D01*
X175904621Y-114461691D01*
X175905397Y-114470612D01*
X175902513Y-114475361D01*
X175737861Y-114640013D01*
X175729588Y-114643440D01*
X175724191Y-114642121D01*
X175244876Y-114392944D01*
X175239116Y-114386087D01*
X175239892Y-114377166D01*
X175240516Y-114376107D01*
X175397985Y-114138763D01*
X175401263Y-114135485D01*
X175638596Y-113978023D01*
X175647383Y-113976305D01*
X175654812Y-113981305D01*
G37*
G04 #@! TD.AperFunction*
G04 #@! TA.AperFunction,Conductor*
G36*
X178122210Y-127440927D02*
G01*
X178123496Y-127442453D01*
X178415020Y-127855445D01*
X178416991Y-127864180D01*
X178414725Y-127869338D01*
X178004264Y-128401489D01*
X177996498Y-128405947D01*
X177987854Y-128403607D01*
X177985736Y-128401489D01*
X177575274Y-127869338D01*
X177572934Y-127860694D01*
X177574977Y-127855448D01*
X177866504Y-127442453D01*
X177874075Y-127437670D01*
X177876063Y-127437500D01*
X178113937Y-127437500D01*
X178122210Y-127440927D01*
G37*
G04 #@! TD.AperFunction*
G04 #@! TA.AperFunction,Conductor*
G36*
X175922210Y-127440927D02*
G01*
X175923496Y-127442453D01*
X176215020Y-127855445D01*
X176216991Y-127864180D01*
X176214725Y-127869338D01*
X175804264Y-128401489D01*
X175796498Y-128405947D01*
X175787854Y-128403607D01*
X175785736Y-128401489D01*
X175375274Y-127869338D01*
X175372934Y-127860694D01*
X175374977Y-127855448D01*
X175666504Y-127442453D01*
X175674075Y-127437670D01*
X175676063Y-127437500D01*
X175913937Y-127437500D01*
X175922210Y-127440927D01*
G37*
G04 #@! TD.AperFunction*
G04 #@! TA.AperFunction,Conductor*
G36*
X174881479Y-113593446D02*
G01*
X174888907Y-113598445D01*
X174890626Y-113607233D01*
X174890315Y-113608437D01*
X174727583Y-114123560D01*
X174721823Y-114130417D01*
X174716426Y-114131736D01*
X174483574Y-114131736D01*
X174475301Y-114128309D01*
X174472417Y-114123560D01*
X174309684Y-113608437D01*
X174310460Y-113599516D01*
X174317317Y-113593756D01*
X174318500Y-113593450D01*
X174597682Y-113536969D01*
X174602318Y-113536969D01*
X174881479Y-113593446D01*
G37*
G04 #@! TD.AperFunction*
G04 #@! TA.AperFunction,Conductor*
G36*
X172654812Y-113943805D02*
G01*
X172655444Y-113944876D01*
X172904621Y-114424191D01*
X172905397Y-114433112D01*
X172902513Y-114437861D01*
X172737861Y-114602513D01*
X172729588Y-114605940D01*
X172724191Y-114604621D01*
X172244876Y-114355444D01*
X172239116Y-114348587D01*
X172239892Y-114339666D01*
X172240516Y-114338607D01*
X172397985Y-114101263D01*
X172401263Y-114097985D01*
X172638596Y-113940523D01*
X172647383Y-113938805D01*
X172654812Y-113943805D01*
G37*
G04 #@! TD.AperFunction*
G04 #@! TA.AperFunction,Conductor*
G36*
X172622210Y-127440927D02*
G01*
X172623496Y-127442453D01*
X172915020Y-127855445D01*
X172916991Y-127864180D01*
X172914725Y-127869338D01*
X172504264Y-128401489D01*
X172496498Y-128405947D01*
X172487854Y-128403607D01*
X172485736Y-128401489D01*
X172075274Y-127869338D01*
X172072934Y-127860694D01*
X172074977Y-127855448D01*
X172366504Y-127442453D01*
X172374075Y-127437670D01*
X172376063Y-127437500D01*
X172613937Y-127437500D01*
X172622210Y-127440927D01*
G37*
G04 #@! TD.AperFunction*
M02*
