G04 #@! TF.GenerationSoftware,KiCad,Pcbnew,9.0.2*
G04 #@! TF.CreationDate,2025-11-19T20:23:31-06:00*
G04 #@! TF.ProjectId,pocket-caddy,706f636b-6574-42d6-9361-6464792e6b69,0.1*
G04 #@! TF.SameCoordinates,Original*
G04 #@! TF.FileFunction,Copper,L4,Bot*
G04 #@! TF.FilePolarity,Positive*
%FSLAX46Y46*%
G04 Gerber Fmt 4.6, Leading zero omitted, Abs format (unit mm)*
G04 Created by KiCad (PCBNEW 9.0.2) date 2025-11-19 20:23:31*
%MOMM*%
%LPD*%
G01*
G04 APERTURE LIST*
G04 Aperture macros list*
%AMRoundRect*
0 Rectangle with rounded corners*
0 $1 Rounding radius*
0 $2 $3 $4 $5 $6 $7 $8 $9 X,Y pos of 4 corners*
0 Add a 4 corners polygon primitive as box body*
4,1,4,$2,$3,$4,$5,$6,$7,$8,$9,$2,$3,0*
0 Add four circle primitives for the rounded corners*
1,1,$1+$1,$2,$3*
1,1,$1+$1,$4,$5*
1,1,$1+$1,$6,$7*
1,1,$1+$1,$8,$9*
0 Add four rect primitives between the rounded corners*
20,1,$1+$1,$2,$3,$4,$5,0*
20,1,$1+$1,$4,$5,$6,$7,0*
20,1,$1+$1,$6,$7,$8,$9,0*
20,1,$1+$1,$8,$9,$2,$3,0*%
%AMRotRect*
0 Rectangle, with rotation*
0 The origin of the aperture is its center*
0 $1 length*
0 $2 width*
0 $3 Rotation angle, in degrees counterclockwise*
0 Add horizontal line*
21,1,$1,$2,0,0,$3*%
G04 Aperture macros list end*
G04 #@! TA.AperFunction,HeatsinkPad*
%ADD10O,2.100000X1.000000*%
G04 #@! TD*
G04 #@! TA.AperFunction,HeatsinkPad*
%ADD11O,1.800000X1.000000*%
G04 #@! TD*
G04 #@! TA.AperFunction,ComponentPad*
%ADD12C,6.400000*%
G04 #@! TD*
G04 #@! TA.AperFunction,ComponentPad*
%ADD13C,2.000000*%
G04 #@! TD*
G04 #@! TA.AperFunction,ComponentPad*
%ADD14RoundRect,0.250001X0.799999X-0.799999X0.799999X0.799999X-0.799999X0.799999X-0.799999X-0.799999X0*%
G04 #@! TD*
G04 #@! TA.AperFunction,ComponentPad*
%ADD15C,2.100000*%
G04 #@! TD*
G04 #@! TA.AperFunction,ComponentPad*
%ADD16R,1.700000X1.700000*%
G04 #@! TD*
G04 #@! TA.AperFunction,ComponentPad*
%ADD17C,1.700000*%
G04 #@! TD*
G04 #@! TA.AperFunction,HeatsinkPad*
%ADD18C,0.500000*%
G04 #@! TD*
G04 #@! TA.AperFunction,ComponentPad*
%ADD19C,5.400000*%
G04 #@! TD*
G04 #@! TA.AperFunction,HeatsinkPad*
%ADD20C,0.600000*%
G04 #@! TD*
G04 #@! TA.AperFunction,ComponentPad*
%ADD21R,1.500000X1.500000*%
G04 #@! TD*
G04 #@! TA.AperFunction,ComponentPad*
%ADD22C,1.600000*%
G04 #@! TD*
G04 #@! TA.AperFunction,SMDPad,CuDef*
%ADD23R,0.850000X1.100000*%
G04 #@! TD*
G04 #@! TA.AperFunction,SMDPad,CuDef*
%ADD24R,0.750000X1.100000*%
G04 #@! TD*
G04 #@! TA.AperFunction,SMDPad,CuDef*
%ADD25R,1.200000X1.000000*%
G04 #@! TD*
G04 #@! TA.AperFunction,SMDPad,CuDef*
%ADD26R,1.550000X1.350000*%
G04 #@! TD*
G04 #@! TA.AperFunction,SMDPad,CuDef*
%ADD27R,1.900000X1.350000*%
G04 #@! TD*
G04 #@! TA.AperFunction,SMDPad,CuDef*
%ADD28R,1.170000X1.800000*%
G04 #@! TD*
G04 #@! TA.AperFunction,SMDPad,CuDef*
%ADD29RotRect,5.100000X5.100000X315.000000*%
G04 #@! TD*
G04 #@! TA.AperFunction,SMDPad,CuDef*
%ADD30C,17.800000*%
G04 #@! TD*
G04 #@! TA.AperFunction,ViaPad*
%ADD31C,0.600000*%
G04 #@! TD*
G04 #@! TA.AperFunction,Conductor*
%ADD32C,0.250000*%
G04 #@! TD*
G04 #@! TA.AperFunction,Conductor*
%ADD33C,0.800000*%
G04 #@! TD*
G04 #@! TA.AperFunction,Conductor*
%ADD34C,0.600000*%
G04 #@! TD*
G04 #@! TA.AperFunction,Conductor*
%ADD35C,0.200000*%
G04 #@! TD*
G04 APERTURE END LIST*
D10*
X166815000Y-82680000D03*
D11*
X162635000Y-82680000D03*
D10*
X166815000Y-91320000D03*
D11*
X162635000Y-91320000D03*
D12*
X164100000Y-125900000D03*
D13*
X216650000Y-62550000D03*
X216650000Y-69050000D03*
X212150000Y-62550000D03*
X212150000Y-69050000D03*
X214250000Y-115600000D03*
X220750000Y-115600000D03*
X214250000Y-120100000D03*
X220750000Y-120100000D03*
D12*
X223900000Y-125900000D03*
D14*
X223700000Y-102790000D03*
D15*
X223700000Y-100250000D03*
X223700000Y-97710000D03*
D16*
X215400000Y-48616000D03*
D17*
X212860000Y-48616000D03*
X215400000Y-51156000D03*
X212860000Y-51156000D03*
X215400000Y-53696000D03*
X212860000Y-53696000D03*
X215400000Y-56236000D03*
X212860000Y-56236000D03*
D18*
X215790000Y-108640000D03*
X215065000Y-107665000D03*
X215790000Y-107665000D03*
X216515000Y-107665000D03*
X215790000Y-106690000D03*
D12*
X218700000Y-34100000D03*
D16*
X202790000Y-82250000D03*
D17*
X200250000Y-82250000D03*
X197710000Y-82250000D03*
X195170000Y-82250000D03*
D19*
X188740000Y-105750000D03*
X209240000Y-105750000D03*
D20*
X173550000Y-107027500D03*
X174650000Y-107027500D03*
X173000000Y-106477500D03*
X174100000Y-106477500D03*
X175200000Y-106477500D03*
X173550000Y-105927500D03*
X174650000Y-105927500D03*
X173000000Y-105377500D03*
X174100000Y-105377500D03*
X175200000Y-105377500D03*
X173550000Y-104827500D03*
X174650000Y-104827500D03*
D13*
X190750000Y-120100000D03*
X184250000Y-120100000D03*
X190750000Y-115600000D03*
X184250000Y-115600000D03*
D21*
X222450000Y-89550000D03*
D22*
X222450000Y-92090000D03*
X222450000Y-87010000D03*
D12*
X223900000Y-80000000D03*
D13*
X199250000Y-115600000D03*
X205750000Y-115600000D03*
X199250000Y-120100000D03*
X205750000Y-120100000D03*
D23*
X171395000Y-128412500D03*
X172495000Y-128412500D03*
X173595000Y-128412500D03*
X174695000Y-128412500D03*
X175795000Y-128412500D03*
X176895000Y-128412500D03*
X177995000Y-128412500D03*
D24*
X179045000Y-128412500D03*
D25*
X168760000Y-122262500D03*
X168760000Y-118562500D03*
D26*
X168935000Y-128287500D03*
D27*
X172260000Y-117587500D03*
X178230000Y-117587500D03*
D28*
X180255000Y-128062500D03*
D29*
X174049033Y-82149033D03*
X192150967Y-100250967D03*
D30*
X183100000Y-91200000D03*
D31*
X161250000Y-42500000D03*
X178750000Y-57500000D03*
X216550000Y-81350000D03*
X203750000Y-67500000D03*
X186100000Y-86600000D03*
X187300000Y-67000000D03*
X196250000Y-52500000D03*
X183900000Y-86600000D03*
X166250000Y-32500000D03*
X166250000Y-42500000D03*
X182900000Y-70000000D03*
X208750000Y-77500000D03*
X171250000Y-32500000D03*
X186250000Y-42500000D03*
X226700000Y-106400000D03*
X176250000Y-32500000D03*
X171250000Y-52500000D03*
X182700000Y-65500000D03*
X198750000Y-57500000D03*
X206250000Y-32500000D03*
X191250000Y-72500000D03*
X181250000Y-62500000D03*
X166250000Y-72500000D03*
X196250000Y-32500000D03*
X170000000Y-122800000D03*
X186250000Y-62500000D03*
X182900000Y-73000000D03*
X178750000Y-67500000D03*
X198750000Y-67500000D03*
X213000000Y-72000000D03*
X212175000Y-97260000D03*
X163750000Y-77500000D03*
X214000000Y-110600000D03*
X199100000Y-111600000D03*
X163750000Y-57500000D03*
X201250000Y-52500000D03*
X198750000Y-77500000D03*
X211375000Y-97260000D03*
X181250000Y-32500000D03*
X182900000Y-76000000D03*
X212175000Y-98060000D03*
X196250000Y-42500000D03*
X214600000Y-104300000D03*
X198750000Y-47500000D03*
X193750000Y-47500000D03*
X187300000Y-65500000D03*
X206250000Y-52500000D03*
X201250000Y-32500000D03*
X167937500Y-94637500D03*
X218700000Y-94000000D03*
X186250000Y-52500000D03*
X168000000Y-101000000D03*
X208750000Y-67500000D03*
X201250000Y-72500000D03*
X161250000Y-62500000D03*
X171250000Y-42500000D03*
X178750000Y-47500000D03*
X216200000Y-94000000D03*
X173750000Y-37500000D03*
X187100000Y-70000000D03*
X168000000Y-110000000D03*
X206250000Y-62500000D03*
X216550000Y-81950000D03*
X193200000Y-105300000D03*
X208750000Y-37500000D03*
X184200000Y-65200000D03*
X203750000Y-77500000D03*
X173750000Y-47500000D03*
X168750000Y-47500000D03*
X196250000Y-72500000D03*
X163750000Y-37500000D03*
X181250000Y-52500000D03*
X183750000Y-47500000D03*
X210400000Y-114800000D03*
X185800000Y-65200000D03*
X168000000Y-107000000D03*
X193750000Y-77500000D03*
X173750000Y-57500000D03*
X201250000Y-62500000D03*
X168000000Y-104000000D03*
X168750000Y-77500000D03*
X187100000Y-79000000D03*
X211375000Y-98060000D03*
X181250000Y-42500000D03*
X176250000Y-42500000D03*
X182900000Y-74500000D03*
X161250000Y-72500000D03*
X166250000Y-52500000D03*
X186250000Y-32500000D03*
X176250000Y-62500000D03*
X168000000Y-108500000D03*
X181200000Y-115600000D03*
X201250000Y-42500000D03*
X171700000Y-122500000D03*
X183900000Y-95400000D03*
X191250000Y-52500000D03*
X212975000Y-98060000D03*
X208750000Y-47500000D03*
X182900000Y-79000000D03*
X183750000Y-37500000D03*
X203750000Y-57500000D03*
X212975000Y-96460000D03*
X187100000Y-77500000D03*
X168000000Y-102500000D03*
X212975000Y-97260000D03*
X182700000Y-67000000D03*
X172900000Y-90800000D03*
X193750000Y-67500000D03*
X163750000Y-47500000D03*
X191250000Y-42500000D03*
X206250000Y-72500000D03*
X203750000Y-37500000D03*
X218600000Y-108850000D03*
X191250000Y-32500000D03*
X193750000Y-37500000D03*
X183750000Y-57500000D03*
X203750000Y-47500000D03*
X178750000Y-77500000D03*
X211200000Y-90700000D03*
X187100000Y-71500000D03*
X176250000Y-72500000D03*
X182700000Y-68500000D03*
X168750000Y-37500000D03*
X168000000Y-105500000D03*
X216550000Y-82550000D03*
X193750000Y-57500000D03*
X173750000Y-67500000D03*
X161250000Y-52500000D03*
X187100000Y-73000000D03*
X172000000Y-85300000D03*
X188750000Y-57500000D03*
X198200000Y-98700000D03*
X198200000Y-101500000D03*
X187300000Y-68500000D03*
X166250000Y-62500000D03*
X196250000Y-62500000D03*
X171250000Y-72500000D03*
X166600000Y-121700000D03*
X191250000Y-62500000D03*
X161250000Y-32500000D03*
X163750000Y-67500000D03*
X182900000Y-77500000D03*
X212175000Y-96460000D03*
X198750000Y-37500000D03*
X211375000Y-96460000D03*
X168750000Y-57500000D03*
X178750000Y-37500000D03*
X187100000Y-74500000D03*
X176250000Y-52500000D03*
X191300000Y-86600000D03*
X187100000Y-76000000D03*
X168750000Y-67500000D03*
X206250000Y-42500000D03*
X188750000Y-47500000D03*
X188750000Y-37500000D03*
X199100000Y-108700000D03*
X173750000Y-77500000D03*
X208500000Y-117800000D03*
X208750000Y-57500000D03*
X176900000Y-127300000D03*
X171250000Y-62500000D03*
X182900000Y-71500000D03*
X221200000Y-95100000D03*
X203950000Y-105000000D03*
X211700000Y-94400000D03*
X196100000Y-89100000D03*
X194500000Y-89100000D03*
X202900000Y-87500000D03*
X202900000Y-89100000D03*
X194500000Y-87500000D03*
X215100000Y-97600000D03*
X201400000Y-87500000D03*
X196100000Y-87500000D03*
X201400000Y-89100000D03*
X215100000Y-96800000D03*
X218600000Y-92100000D03*
X211100000Y-73900000D03*
X211500000Y-121400000D03*
X213100000Y-74900000D03*
X211100000Y-78900000D03*
X167900000Y-112200000D03*
X213100000Y-78900000D03*
X211100000Y-74900000D03*
X200700000Y-106600000D03*
X167900000Y-114037500D03*
X217750000Y-77650000D03*
X202000000Y-112100000D03*
X213100000Y-76900000D03*
X176800000Y-122400000D03*
X198000000Y-106600000D03*
X211100000Y-76900000D03*
X213100000Y-73900000D03*
X174700000Y-127400000D03*
X212100000Y-73900000D03*
X213100000Y-75900000D03*
X213100000Y-77900000D03*
X211100000Y-77900000D03*
X212100000Y-74900000D03*
X174850000Y-122400000D03*
X212100000Y-78900000D03*
X214500000Y-77650000D03*
X180200000Y-122400000D03*
X187900000Y-100300000D03*
X212100000Y-76900000D03*
X211100000Y-75900000D03*
X212100000Y-75900000D03*
X212100000Y-77900000D03*
X167900000Y-113100000D03*
X176950000Y-110500000D03*
X169400000Y-114050000D03*
X174550000Y-112900000D03*
X178400000Y-100700000D03*
X178400000Y-103150000D03*
X170900000Y-99400000D03*
X176200000Y-117800000D03*
X179350000Y-120250000D03*
X176900000Y-114350000D03*
X174900000Y-118000000D03*
X195000000Y-107300000D03*
X172400000Y-99400000D03*
X213525000Y-109875000D03*
X184800000Y-102700000D03*
X196000000Y-109400000D03*
X184800000Y-101200000D03*
X196000000Y-110900000D03*
X215790000Y-110508492D03*
X210300000Y-95250000D03*
X176900000Y-99400000D03*
X188300000Y-81500000D03*
X166200000Y-85950000D03*
X166200000Y-87250000D03*
X216000000Y-104550000D03*
X218600000Y-104550000D03*
D32*
X220200000Y-94100000D02*
X220200000Y-55956000D01*
X221200000Y-95100000D02*
X220200000Y-94100000D01*
X220200000Y-55956000D02*
X215400000Y-51156000D01*
D33*
X196900000Y-105000000D02*
X192150967Y-100250967D01*
X203950000Y-105000000D02*
X196900000Y-105000000D01*
D34*
X215100000Y-96100000D02*
X215100000Y-96800000D01*
X213400000Y-94400000D02*
X215100000Y-96100000D01*
X211700000Y-94400000D02*
X213400000Y-94400000D01*
X215100000Y-96800000D02*
X215100000Y-97600000D01*
D32*
X215400000Y-53696000D02*
X218600000Y-56896000D01*
X218600000Y-56896000D02*
X218600000Y-92100000D01*
D35*
X174695000Y-127405000D02*
X174700000Y-127400000D01*
X174695000Y-128412500D02*
X174695000Y-127405000D01*
X217750000Y-77650000D02*
X214500000Y-77650000D01*
X216700000Y-96300000D02*
X213800000Y-93400000D01*
X176950000Y-110500000D02*
X179150000Y-112700000D01*
X213800000Y-93400000D02*
X212100000Y-93400000D01*
X216900000Y-112700000D02*
X225800000Y-103800000D01*
X169400000Y-114050000D02*
X173400000Y-114050000D01*
X179150000Y-112700000D02*
X216900000Y-112700000D01*
X173400000Y-114050000D02*
X174550000Y-112900000D01*
X210400000Y-70800000D02*
X212150000Y-69050000D01*
X225800000Y-103800000D02*
X225800000Y-96300000D01*
X212100000Y-93400000D02*
X210400000Y-91700000D01*
X225800000Y-96300000D02*
X216700000Y-96300000D01*
X210400000Y-91700000D02*
X210400000Y-70800000D01*
D32*
X178400000Y-100700000D02*
X178400000Y-103150000D01*
X203300000Y-113400000D02*
X177600000Y-113400000D01*
X177600000Y-113400000D02*
X171250000Y-107050000D01*
X171250000Y-107050000D02*
X170900000Y-106700000D01*
X170900000Y-106700000D02*
X170900000Y-99400000D01*
X212050000Y-113400000D02*
X203300000Y-113400000D01*
X214250000Y-115600000D02*
X212050000Y-113400000D01*
X173595000Y-128412500D02*
X173595000Y-120405000D01*
X173595000Y-120405000D02*
X176200000Y-117800000D01*
X177995000Y-121605000D02*
X179350000Y-120250000D01*
X177995000Y-128412500D02*
X177995000Y-121605000D01*
X175795000Y-128412500D02*
X175795000Y-119747500D01*
X176900000Y-118642500D02*
X176900000Y-114350000D01*
X175795000Y-119747500D02*
X176900000Y-118642500D01*
X172495000Y-128412500D02*
X172495000Y-120405000D01*
X172495000Y-120405000D02*
X174900000Y-118000000D01*
X181276000Y-108776000D02*
X172400000Y-99900000D01*
X172400000Y-99900000D02*
X172400000Y-99400000D01*
X193524000Y-108776000D02*
X181276000Y-108776000D01*
X195000000Y-107300000D02*
X193524000Y-108776000D01*
D35*
X213525000Y-109875000D02*
X213050000Y-109400000D01*
D32*
X184800000Y-102700000D02*
X184800000Y-101200000D01*
D35*
X213050000Y-109400000D02*
X196000000Y-109400000D01*
X213100000Y-110900000D02*
X196000000Y-110900000D01*
X213400000Y-111200000D02*
X213100000Y-110900000D01*
X215790000Y-110508492D02*
X215098492Y-111200000D01*
X215098492Y-111200000D02*
X213400000Y-111200000D01*
X210300000Y-95250000D02*
X210300000Y-99600000D01*
X213490000Y-102790000D02*
X223700000Y-102790000D01*
X210300000Y-99600000D02*
X213490000Y-102790000D01*
D32*
X170900000Y-93400000D02*
X170900000Y-89800000D01*
X170900000Y-89800000D02*
X179200000Y-81500000D01*
X179200000Y-81500000D02*
X188300000Y-81500000D01*
X176900000Y-99400000D02*
X170900000Y-93400000D01*
D35*
X166200000Y-85950000D02*
X166200000Y-87250000D01*
X216000000Y-104550000D02*
X218600000Y-104550000D01*
G04 #@! TA.AperFunction,Conductor*
G36*
X172622210Y-127440927D02*
G01*
X172623496Y-127442453D01*
X172915020Y-127855445D01*
X172916991Y-127864180D01*
X172914725Y-127869338D01*
X172504264Y-128401489D01*
X172496498Y-128405947D01*
X172487854Y-128403607D01*
X172485736Y-128401489D01*
X172075274Y-127869338D01*
X172072934Y-127860694D01*
X172074977Y-127855448D01*
X172366504Y-127442453D01*
X172374075Y-127437670D01*
X172376063Y-127437500D01*
X172613937Y-127437500D01*
X172622210Y-127440927D01*
G37*
G04 #@! TD.AperFunction*
G04 #@! TA.AperFunction,Conductor*
G36*
X173722210Y-127440927D02*
G01*
X173723496Y-127442453D01*
X174015020Y-127855445D01*
X174016991Y-127864180D01*
X174014725Y-127869338D01*
X173604264Y-128401489D01*
X173596498Y-128405947D01*
X173587854Y-128403607D01*
X173585736Y-128401489D01*
X173175274Y-127869338D01*
X173172934Y-127860694D01*
X173174977Y-127855448D01*
X173466504Y-127442453D01*
X173474075Y-127437670D01*
X173476063Y-127437500D01*
X173713937Y-127437500D01*
X173722210Y-127440927D01*
G37*
G04 #@! TD.AperFunction*
G04 #@! TA.AperFunction,Conductor*
G36*
X175922210Y-127440927D02*
G01*
X175923496Y-127442453D01*
X176215020Y-127855445D01*
X176216991Y-127864180D01*
X176214725Y-127869338D01*
X175804264Y-128401489D01*
X175796498Y-128405947D01*
X175787854Y-128403607D01*
X175785736Y-128401489D01*
X175375274Y-127869338D01*
X175372934Y-127860694D01*
X175374977Y-127855448D01*
X175666504Y-127442453D01*
X175674075Y-127437670D01*
X175676063Y-127437500D01*
X175913937Y-127437500D01*
X175922210Y-127440927D01*
G37*
G04 #@! TD.AperFunction*
G04 #@! TA.AperFunction,Conductor*
G36*
X178122210Y-127440927D02*
G01*
X178123496Y-127442453D01*
X178415020Y-127855445D01*
X178416991Y-127864180D01*
X178414725Y-127869338D01*
X178004264Y-128401489D01*
X177996498Y-128405947D01*
X177987854Y-128403607D01*
X177985736Y-128401489D01*
X177575274Y-127869338D01*
X177572934Y-127860694D01*
X177574977Y-127855448D01*
X177866504Y-127442453D01*
X177874075Y-127437670D01*
X177876063Y-127437500D01*
X178113937Y-127437500D01*
X178122210Y-127440927D01*
G37*
G04 #@! TD.AperFunction*
G04 #@! TA.AperFunction,Conductor*
G36*
X204011971Y-86502381D02*
G01*
X204052346Y-86510412D01*
X204097043Y-86528927D01*
X204120913Y-86544877D01*
X204126805Y-86550769D01*
X204131537Y-86552829D01*
X204155122Y-86579086D01*
X204171072Y-86602956D01*
X204189588Y-86647655D01*
X204197617Y-86688020D01*
X204200000Y-86712210D01*
X204200000Y-89987789D01*
X204197617Y-90011982D01*
X204189588Y-90052344D01*
X204186397Y-90060046D01*
X204186305Y-90065206D01*
X204171072Y-90097043D01*
X204155122Y-90120913D01*
X204120913Y-90155122D01*
X204097043Y-90171072D01*
X204052344Y-90189588D01*
X204035841Y-90192870D01*
X204011978Y-90197617D01*
X203987789Y-90200000D01*
X193612211Y-90200000D01*
X193588020Y-90197617D01*
X193572744Y-90194578D01*
X193547656Y-90189588D01*
X193502956Y-90171072D01*
X193479086Y-90155122D01*
X193444877Y-90120913D01*
X193428927Y-90097043D01*
X193410412Y-90052346D01*
X193402381Y-90011971D01*
X193400000Y-89987789D01*
X193400000Y-86712210D01*
X193402381Y-86688029D01*
X193410412Y-86647651D01*
X193428927Y-86602956D01*
X193444877Y-86579086D01*
X193479086Y-86544877D01*
X193502956Y-86528927D01*
X193547653Y-86510412D01*
X193588027Y-86502381D01*
X193612211Y-86500000D01*
X203987789Y-86500000D01*
X204011971Y-86502381D01*
G37*
G04 #@! TD.AperFunction*
G04 #@! TA.AperFunction,Conductor*
G36*
X218703032Y-30500649D02*
G01*
X218764007Y-30503644D01*
X219046735Y-30517534D01*
X219058837Y-30518726D01*
X219396212Y-30568770D01*
X219408122Y-30571139D01*
X219738991Y-30654018D01*
X219750604Y-30657541D01*
X220014957Y-30752128D01*
X220071728Y-30772442D01*
X220082969Y-30777098D01*
X220291376Y-30875666D01*
X220391294Y-30922923D01*
X220402011Y-30928651D01*
X220694545Y-31103990D01*
X220704663Y-31110750D01*
X220978610Y-31313923D01*
X220988016Y-31321643D01*
X221240725Y-31550685D01*
X221249314Y-31559274D01*
X221309608Y-31625798D01*
X221478356Y-31811983D01*
X221486076Y-31821389D01*
X221689249Y-32095336D01*
X221696009Y-32105454D01*
X221871341Y-32397976D01*
X221877078Y-32408709D01*
X222022901Y-32717030D01*
X222027557Y-32728271D01*
X222142453Y-33049379D01*
X222145986Y-33061024D01*
X222228857Y-33391864D01*
X222231231Y-33403800D01*
X222281272Y-33741158D01*
X222282465Y-33753267D01*
X222299351Y-34096967D01*
X222299500Y-34103052D01*
X222299500Y-74914469D01*
X222332080Y-75141075D01*
X222332083Y-75141085D01*
X222396583Y-75360751D01*
X222491680Y-75568985D01*
X222491693Y-75569008D01*
X222615456Y-75761587D01*
X222615460Y-75761593D01*
X222765384Y-75934615D01*
X222938406Y-76084539D01*
X222938412Y-76084543D01*
X223130991Y-76208306D01*
X223131014Y-76208319D01*
X223339248Y-76303416D01*
X223339252Y-76303417D01*
X223339254Y-76303418D01*
X223558920Y-76367918D01*
X223558921Y-76367918D01*
X223558924Y-76367919D01*
X223626494Y-76377633D01*
X223785530Y-76400500D01*
X223834108Y-76400500D01*
X223896948Y-76400500D01*
X223903032Y-76400649D01*
X223964007Y-76403644D01*
X224246735Y-76417534D01*
X224258837Y-76418726D01*
X224596212Y-76468770D01*
X224608122Y-76471139D01*
X224938991Y-76554018D01*
X224950604Y-76557541D01*
X225214957Y-76652128D01*
X225271728Y-76672442D01*
X225282969Y-76677098D01*
X225389279Y-76727378D01*
X225591294Y-76822923D01*
X225602011Y-76828651D01*
X225894545Y-77003990D01*
X225904660Y-77010748D01*
X225930369Y-77029815D01*
X226178610Y-77213923D01*
X226188016Y-77221643D01*
X226440725Y-77450685D01*
X226449314Y-77459274D01*
X226509608Y-77525798D01*
X226678356Y-77711983D01*
X226686076Y-77721389D01*
X226889249Y-77995336D01*
X226896009Y-78005454D01*
X226927278Y-78057623D01*
X227067930Y-78292286D01*
X227071341Y-78297976D01*
X227077078Y-78308709D01*
X227222901Y-78617030D01*
X227227557Y-78628271D01*
X227342453Y-78949379D01*
X227345986Y-78961024D01*
X227428857Y-79291864D01*
X227431231Y-79303800D01*
X227481272Y-79641158D01*
X227482465Y-79653267D01*
X227499351Y-79996967D01*
X227499500Y-80003052D01*
X227499500Y-125896947D01*
X227499351Y-125903032D01*
X227482465Y-126246732D01*
X227481272Y-126258841D01*
X227431231Y-126596199D01*
X227428857Y-126608135D01*
X227345986Y-126938975D01*
X227342453Y-126950620D01*
X227227557Y-127271728D01*
X227222901Y-127282969D01*
X227077078Y-127591290D01*
X227071341Y-127602023D01*
X226896009Y-127894545D01*
X226889249Y-127904663D01*
X226686076Y-128178610D01*
X226678356Y-128188016D01*
X226449322Y-128440717D01*
X226440717Y-128449322D01*
X226188016Y-128678356D01*
X226178610Y-128686076D01*
X225904663Y-128889249D01*
X225894545Y-128896009D01*
X225602023Y-129071341D01*
X225591290Y-129077078D01*
X225282969Y-129222901D01*
X225271728Y-129227557D01*
X224950620Y-129342453D01*
X224938975Y-129345986D01*
X224608135Y-129428857D01*
X224596199Y-129431231D01*
X224258841Y-129481272D01*
X224246732Y-129482465D01*
X223903033Y-129499351D01*
X223896948Y-129499500D01*
X181310929Y-129499500D01*
X181243890Y-129479815D01*
X181198135Y-129427011D01*
X181188191Y-129357853D01*
X181211662Y-129301189D01*
X181283796Y-129204831D01*
X181334091Y-129069983D01*
X181340500Y-129010373D01*
X181340499Y-127114628D01*
X181334091Y-127055017D01*
X181295153Y-126950620D01*
X181283797Y-126920171D01*
X181283793Y-126920164D01*
X181197547Y-126804955D01*
X181197544Y-126804952D01*
X181082335Y-126718706D01*
X181082328Y-126718702D01*
X180947482Y-126668408D01*
X180947483Y-126668408D01*
X180887883Y-126662001D01*
X180887881Y-126662000D01*
X180887873Y-126662000D01*
X180887864Y-126662000D01*
X179622129Y-126662000D01*
X179622123Y-126662001D01*
X179562516Y-126668408D01*
X179427671Y-126718702D01*
X179427664Y-126718706D01*
X179312455Y-126804952D01*
X179312452Y-126804955D01*
X179226206Y-126920164D01*
X179226202Y-126920171D01*
X179175908Y-127055017D01*
X179169782Y-127112000D01*
X179169501Y-127114623D01*
X179169500Y-127114635D01*
X179169500Y-127238000D01*
X179149815Y-127305039D01*
X179097011Y-127350794D01*
X179045500Y-127362000D01*
X178749709Y-127362000D01*
X178743631Y-127360215D01*
X178737407Y-127361388D01*
X178710509Y-127350489D01*
X178682670Y-127342315D01*
X178677046Y-127336931D01*
X178672651Y-127335150D01*
X178648402Y-127309505D01*
X178643193Y-127302125D01*
X178620617Y-127236003D01*
X178620500Y-127230620D01*
X178620500Y-122321153D01*
X179399500Y-122321153D01*
X179399500Y-122478846D01*
X179430261Y-122633489D01*
X179430264Y-122633501D01*
X179490602Y-122779172D01*
X179490609Y-122779185D01*
X179578210Y-122910288D01*
X179578213Y-122910292D01*
X179689707Y-123021786D01*
X179689711Y-123021789D01*
X179820814Y-123109390D01*
X179820827Y-123109397D01*
X179964847Y-123169051D01*
X179966503Y-123169737D01*
X180121153Y-123200499D01*
X180121156Y-123200500D01*
X180121158Y-123200500D01*
X180278844Y-123200500D01*
X180278845Y-123200499D01*
X180433497Y-123169737D01*
X180579179Y-123109394D01*
X180710289Y-123021789D01*
X180821789Y-122910289D01*
X180909394Y-122779179D01*
X180969737Y-122633497D01*
X181000500Y-122478842D01*
X181000500Y-122321158D01*
X181000500Y-122321155D01*
X181000499Y-122321153D01*
X180969738Y-122166510D01*
X180969737Y-122166503D01*
X180909794Y-122021786D01*
X180909397Y-122020827D01*
X180909390Y-122020814D01*
X180821789Y-121889711D01*
X180821786Y-121889707D01*
X180710292Y-121778213D01*
X180710288Y-121778210D01*
X180579185Y-121690609D01*
X180579172Y-121690602D01*
X180433501Y-121630264D01*
X180433489Y-121630261D01*
X180278845Y-121599500D01*
X180278842Y-121599500D01*
X180121158Y-121599500D01*
X180121155Y-121599500D01*
X179966510Y-121630261D01*
X179966498Y-121630264D01*
X179820827Y-121690602D01*
X179820814Y-121690609D01*
X179689711Y-121778210D01*
X179689707Y-121778213D01*
X179578213Y-121889707D01*
X179578210Y-121889711D01*
X179490609Y-122020814D01*
X179490602Y-122020827D01*
X179430264Y-122166498D01*
X179430261Y-122166510D01*
X179399500Y-122321153D01*
X178620500Y-122321153D01*
X178620500Y-121915452D01*
X178640185Y-121848413D01*
X178656819Y-121827771D01*
X178976380Y-121508210D01*
X179408798Y-121075791D01*
X179470119Y-121042308D01*
X179472114Y-121041892D01*
X179583497Y-121019737D01*
X179729179Y-120959394D01*
X179860289Y-120871789D01*
X179971789Y-120760289D01*
X180059394Y-120629179D01*
X180119737Y-120483497D01*
X180150500Y-120328842D01*
X180150500Y-120171158D01*
X180150500Y-120171155D01*
X180150499Y-120171153D01*
X180119738Y-120016507D01*
X180119736Y-120016500D01*
X180105424Y-119981947D01*
X182750000Y-119981947D01*
X182750000Y-120218052D01*
X182786934Y-120451247D01*
X182859897Y-120675802D01*
X182967087Y-120886174D01*
X183027338Y-120969104D01*
X183027340Y-120969105D01*
X183726212Y-120270233D01*
X183737482Y-120312292D01*
X183809890Y-120437708D01*
X183912292Y-120540110D01*
X184037708Y-120612518D01*
X184079765Y-120623787D01*
X183380893Y-121322658D01*
X183463828Y-121382914D01*
X183674197Y-121490102D01*
X183898752Y-121563065D01*
X183898751Y-121563065D01*
X184131948Y-121600000D01*
X184368052Y-121600000D01*
X184601247Y-121563065D01*
X184825802Y-121490102D01*
X185036163Y-121382918D01*
X185036169Y-121382914D01*
X185119104Y-121322658D01*
X185119105Y-121322658D01*
X184420233Y-120623787D01*
X184462292Y-120612518D01*
X184587708Y-120540110D01*
X184690110Y-120437708D01*
X184762518Y-120312292D01*
X184773787Y-120270233D01*
X185472658Y-120969105D01*
X185472658Y-120969104D01*
X185532914Y-120886169D01*
X185532918Y-120886163D01*
X185640102Y-120675802D01*
X185713065Y-120451247D01*
X185750000Y-120218052D01*
X185750000Y-119981947D01*
X189250000Y-119981947D01*
X189250000Y-120218052D01*
X189286934Y-120451247D01*
X189359897Y-120675802D01*
X189467087Y-120886174D01*
X189527338Y-120969104D01*
X189527340Y-120969105D01*
X190226212Y-120270233D01*
X190237482Y-120312292D01*
X190309890Y-120437708D01*
X190412292Y-120540110D01*
X190537708Y-120612518D01*
X190579765Y-120623787D01*
X189880893Y-121322658D01*
X189963828Y-121382914D01*
X190174197Y-121490102D01*
X190398752Y-121563065D01*
X190398751Y-121563065D01*
X190631948Y-121600000D01*
X190868052Y-121600000D01*
X191101247Y-121563065D01*
X191325802Y-121490102D01*
X191536163Y-121382918D01*
X191536169Y-121382914D01*
X191619104Y-121322658D01*
X191619105Y-121322658D01*
X190920233Y-120623787D01*
X190962292Y-120612518D01*
X191087708Y-120540110D01*
X191190110Y-120437708D01*
X191262518Y-120312292D01*
X191273787Y-120270234D01*
X191972658Y-120969105D01*
X191972658Y-120969104D01*
X192032914Y-120886169D01*
X192032918Y-120886163D01*
X192140102Y-120675802D01*
X192213065Y-120451247D01*
X192250000Y-120218052D01*
X192250000Y-119981947D01*
X197750000Y-119981947D01*
X197750000Y-120218052D01*
X197786934Y-120451247D01*
X197859897Y-120675802D01*
X197967087Y-120886174D01*
X198027338Y-120969104D01*
X198027340Y-120969105D01*
X198726212Y-120270233D01*
X198737482Y-120312292D01*
X198809890Y-120437708D01*
X198912292Y-120540110D01*
X199037708Y-120612518D01*
X199079765Y-120623787D01*
X198380893Y-121322658D01*
X198463828Y-121382914D01*
X198674197Y-121490102D01*
X198898752Y-121563065D01*
X198898751Y-121563065D01*
X199131948Y-121600000D01*
X199368052Y-121600000D01*
X199601247Y-121563065D01*
X199825802Y-121490102D01*
X200036163Y-121382918D01*
X200036169Y-121382914D01*
X200119104Y-121322658D01*
X200119105Y-121322658D01*
X199420233Y-120623787D01*
X199462292Y-120612518D01*
X199587708Y-120540110D01*
X199690110Y-120437708D01*
X199762518Y-120312292D01*
X199773787Y-120270233D01*
X200472658Y-120969105D01*
X200472658Y-120969104D01*
X200532914Y-120886169D01*
X200532918Y-120886163D01*
X200640102Y-120675802D01*
X200713065Y-120451247D01*
X200750000Y-120218052D01*
X200750000Y-119981947D01*
X204250000Y-119981947D01*
X204250000Y-120218052D01*
X204286934Y-120451247D01*
X204359897Y-120675802D01*
X204467087Y-120886174D01*
X204527338Y-120969104D01*
X204527340Y-120969105D01*
X205226212Y-120270233D01*
X205237482Y-120312292D01*
X205309890Y-120437708D01*
X205412292Y-120540110D01*
X205537708Y-120612518D01*
X205579765Y-120623787D01*
X204880893Y-121322658D01*
X204963828Y-121382914D01*
X205174197Y-121490102D01*
X205398752Y-121563065D01*
X205398751Y-121563065D01*
X205631948Y-121600000D01*
X205868052Y-121600000D01*
X206101247Y-121563065D01*
X206325802Y-121490102D01*
X206536163Y-121382918D01*
X206536169Y-121382914D01*
X206619104Y-121322658D01*
X206617599Y-121321153D01*
X210699500Y-121321153D01*
X210699500Y-121478846D01*
X210730261Y-121633489D01*
X210730264Y-121633501D01*
X210790602Y-121779172D01*
X210790609Y-121779185D01*
X210878210Y-121910288D01*
X210878213Y-121910292D01*
X210989707Y-122021786D01*
X210989711Y-122021789D01*
X211120814Y-122109390D01*
X211120827Y-122109397D01*
X211258683Y-122166498D01*
X211266503Y-122169737D01*
X211421153Y-122200499D01*
X211421156Y-122200500D01*
X211421158Y-122200500D01*
X211578844Y-122200500D01*
X211578845Y-122200499D01*
X211733497Y-122169737D01*
X211879179Y-122109394D01*
X212010289Y-122021789D01*
X212121789Y-121910289D01*
X212209394Y-121779179D01*
X212269737Y-121633497D01*
X212300500Y-121478842D01*
X212300500Y-121321158D01*
X212269737Y-121166503D01*
X212232164Y-121075793D01*
X212209397Y-121020827D01*
X212209390Y-121020814D01*
X212121789Y-120889711D01*
X212121786Y-120889707D01*
X212010292Y-120778213D01*
X212010288Y-120778210D01*
X211879185Y-120690609D01*
X211879172Y-120690602D01*
X211733501Y-120630264D01*
X211733489Y-120630261D01*
X211578845Y-120599500D01*
X211578842Y-120599500D01*
X211421158Y-120599500D01*
X211421155Y-120599500D01*
X211266510Y-120630261D01*
X211266498Y-120630264D01*
X211120827Y-120690602D01*
X211120814Y-120690609D01*
X210989711Y-120778210D01*
X210989707Y-120778213D01*
X210878213Y-120889707D01*
X210878210Y-120889711D01*
X210790609Y-121020814D01*
X210790602Y-121020827D01*
X210730264Y-121166498D01*
X210730261Y-121166510D01*
X210699500Y-121321153D01*
X206617599Y-121321153D01*
X205920233Y-120623787D01*
X205962292Y-120612518D01*
X206087708Y-120540110D01*
X206190110Y-120437708D01*
X206262518Y-120312292D01*
X206273787Y-120270234D01*
X206972658Y-120969105D01*
X206972658Y-120969104D01*
X207032914Y-120886169D01*
X207032918Y-120886163D01*
X207140102Y-120675802D01*
X207213065Y-120451247D01*
X207250000Y-120218052D01*
X207250000Y-119981947D01*
X212750000Y-119981947D01*
X212750000Y-120218052D01*
X212786934Y-120451247D01*
X212859897Y-120675802D01*
X212967087Y-120886174D01*
X213027338Y-120969104D01*
X213027340Y-120969105D01*
X213726212Y-120270233D01*
X213737482Y-120312292D01*
X213809890Y-120437708D01*
X213912292Y-120540110D01*
X214037708Y-120612518D01*
X214079765Y-120623787D01*
X213380893Y-121322658D01*
X213463828Y-121382914D01*
X213674197Y-121490102D01*
X213898752Y-121563065D01*
X213898751Y-121563065D01*
X214131948Y-121600000D01*
X214368052Y-121600000D01*
X214601247Y-121563065D01*
X214825802Y-121490102D01*
X215036163Y-121382918D01*
X215036169Y-121382914D01*
X215119104Y-121322658D01*
X215119105Y-121322658D01*
X214420233Y-120623787D01*
X214462292Y-120612518D01*
X214587708Y-120540110D01*
X214690110Y-120437708D01*
X214762518Y-120312292D01*
X214773787Y-120270233D01*
X215472658Y-120969105D01*
X215472658Y-120969104D01*
X215532914Y-120886169D01*
X215532918Y-120886163D01*
X215640102Y-120675802D01*
X215713065Y-120451247D01*
X215750000Y-120218052D01*
X215750000Y-119981947D01*
X219250000Y-119981947D01*
X219250000Y-120218052D01*
X219286934Y-120451247D01*
X219359897Y-120675802D01*
X219467087Y-120886174D01*
X219527338Y-120969104D01*
X219527340Y-120969105D01*
X220226212Y-120270233D01*
X220237482Y-120312292D01*
X220309890Y-120437708D01*
X220412292Y-120540110D01*
X220537708Y-120612518D01*
X220579765Y-120623787D01*
X219880893Y-121322658D01*
X219963828Y-121382914D01*
X220174197Y-121490102D01*
X220398752Y-121563065D01*
X220398751Y-121563065D01*
X220631948Y-121600000D01*
X220868052Y-121600000D01*
X221101247Y-121563065D01*
X221325802Y-121490102D01*
X221536163Y-121382918D01*
X221536169Y-121382914D01*
X221619104Y-121322658D01*
X221619105Y-121322658D01*
X220920233Y-120623787D01*
X220962292Y-120612518D01*
X221087708Y-120540110D01*
X221190110Y-120437708D01*
X221262518Y-120312292D01*
X221273787Y-120270233D01*
X221972658Y-120969105D01*
X221972658Y-120969104D01*
X222032914Y-120886169D01*
X222032918Y-120886163D01*
X222140102Y-120675802D01*
X222213065Y-120451247D01*
X222250000Y-120218052D01*
X222250000Y-119981947D01*
X222213065Y-119748752D01*
X222140102Y-119524197D01*
X222032914Y-119313828D01*
X221972658Y-119230894D01*
X221972658Y-119230893D01*
X221273787Y-119929765D01*
X221262518Y-119887708D01*
X221190110Y-119762292D01*
X221087708Y-119659890D01*
X220962292Y-119587482D01*
X220920234Y-119576212D01*
X221619105Y-118877340D01*
X221619104Y-118877338D01*
X221536174Y-118817087D01*
X221325802Y-118709897D01*
X221101247Y-118636934D01*
X221101248Y-118636934D01*
X220868052Y-118600000D01*
X220631948Y-118600000D01*
X220398752Y-118636934D01*
X220174197Y-118709897D01*
X219963830Y-118817084D01*
X219880894Y-118877340D01*
X220579766Y-119576212D01*
X220537708Y-119587482D01*
X220412292Y-119659890D01*
X220309890Y-119762292D01*
X220237482Y-119887708D01*
X220226212Y-119929766D01*
X219527340Y-119230894D01*
X219467084Y-119313830D01*
X219359897Y-119524197D01*
X219286934Y-119748752D01*
X219250000Y-119981947D01*
X215750000Y-119981947D01*
X215713065Y-119748752D01*
X215640102Y-119524197D01*
X215532914Y-119313828D01*
X215472658Y-119230894D01*
X215472658Y-119230893D01*
X214773787Y-119929765D01*
X214762518Y-119887708D01*
X214690110Y-119762292D01*
X214587708Y-119659890D01*
X214462292Y-119587482D01*
X214420234Y-119576212D01*
X215119105Y-118877340D01*
X215119104Y-118877339D01*
X215036174Y-118817087D01*
X214825802Y-118709897D01*
X214601247Y-118636934D01*
X214601248Y-118636934D01*
X214368052Y-118600000D01*
X214131948Y-118600000D01*
X213898752Y-118636934D01*
X213674197Y-118709897D01*
X213463830Y-118817084D01*
X213380894Y-118877340D01*
X214079766Y-119576212D01*
X214037708Y-119587482D01*
X213912292Y-119659890D01*
X213809890Y-119762292D01*
X213737482Y-119887708D01*
X213726212Y-119929765D01*
X213027340Y-119230894D01*
X212967084Y-119313830D01*
X212859897Y-119524197D01*
X212786934Y-119748752D01*
X212750000Y-119981947D01*
X207250000Y-119981947D01*
X207213065Y-119748752D01*
X207140102Y-119524197D01*
X207032914Y-119313828D01*
X206972658Y-119230894D01*
X206972658Y-119230893D01*
X206273787Y-119929765D01*
X206262518Y-119887708D01*
X206190110Y-119762292D01*
X206087708Y-119659890D01*
X205962292Y-119587482D01*
X205920234Y-119576212D01*
X206619105Y-118877340D01*
X206619104Y-118877339D01*
X206536174Y-118817087D01*
X206325802Y-118709897D01*
X206101247Y-118636934D01*
X206101248Y-118636934D01*
X205868052Y-118600000D01*
X205631948Y-118600000D01*
X205398752Y-118636934D01*
X205174197Y-118709897D01*
X204963830Y-118817084D01*
X204880894Y-118877340D01*
X205579766Y-119576212D01*
X205537708Y-119587482D01*
X205412292Y-119659890D01*
X205309890Y-119762292D01*
X205237482Y-119887708D01*
X205226212Y-119929766D01*
X204527340Y-119230894D01*
X204467084Y-119313830D01*
X204359897Y-119524197D01*
X204286934Y-119748752D01*
X204250000Y-119981947D01*
X200750000Y-119981947D01*
X200713065Y-119748752D01*
X200640102Y-119524197D01*
X200532914Y-119313828D01*
X200472658Y-119230894D01*
X200472658Y-119230893D01*
X199773787Y-119929765D01*
X199762518Y-119887708D01*
X199690110Y-119762292D01*
X199587708Y-119659890D01*
X199462292Y-119587482D01*
X199420234Y-119576212D01*
X200119105Y-118877340D01*
X200119104Y-118877339D01*
X200036174Y-118817087D01*
X199825802Y-118709897D01*
X199601247Y-118636934D01*
X199601248Y-118636934D01*
X199368052Y-118600000D01*
X199131948Y-118600000D01*
X198898752Y-118636934D01*
X198674197Y-118709897D01*
X198463830Y-118817084D01*
X198380894Y-118877340D01*
X199079766Y-119576212D01*
X199037708Y-119587482D01*
X198912292Y-119659890D01*
X198809890Y-119762292D01*
X198737482Y-119887708D01*
X198726212Y-119929766D01*
X198027340Y-119230894D01*
X197967084Y-119313830D01*
X197859897Y-119524197D01*
X197786934Y-119748752D01*
X197750000Y-119981947D01*
X192250000Y-119981947D01*
X192213065Y-119748752D01*
X192140102Y-119524197D01*
X192032914Y-119313828D01*
X191972658Y-119230894D01*
X191972658Y-119230893D01*
X191273787Y-119929765D01*
X191262518Y-119887708D01*
X191190110Y-119762292D01*
X191087708Y-119659890D01*
X190962292Y-119587482D01*
X190920234Y-119576212D01*
X191619105Y-118877340D01*
X191619104Y-118877339D01*
X191536174Y-118817087D01*
X191325802Y-118709897D01*
X191101247Y-118636934D01*
X191101248Y-118636934D01*
X190868052Y-118600000D01*
X190631948Y-118600000D01*
X190398752Y-118636934D01*
X190174197Y-118709897D01*
X189963830Y-118817084D01*
X189880894Y-118877340D01*
X190579766Y-119576212D01*
X190537708Y-119587482D01*
X190412292Y-119659890D01*
X190309890Y-119762292D01*
X190237482Y-119887708D01*
X190226212Y-119929766D01*
X189527340Y-119230894D01*
X189467084Y-119313830D01*
X189359897Y-119524197D01*
X189286934Y-119748752D01*
X189250000Y-119981947D01*
X185750000Y-119981947D01*
X185713065Y-119748752D01*
X185640102Y-119524197D01*
X185532914Y-119313828D01*
X185472658Y-119230894D01*
X185472658Y-119230893D01*
X184773787Y-119929765D01*
X184762518Y-119887708D01*
X184690110Y-119762292D01*
X184587708Y-119659890D01*
X184462292Y-119587482D01*
X184420234Y-119576212D01*
X185119105Y-118877340D01*
X185119104Y-118877339D01*
X185036174Y-118817087D01*
X184825802Y-118709897D01*
X184601247Y-118636934D01*
X184601248Y-118636934D01*
X184368052Y-118600000D01*
X184131948Y-118600000D01*
X183898752Y-118636934D01*
X183674197Y-118709897D01*
X183463830Y-118817084D01*
X183380894Y-118877340D01*
X184079766Y-119576212D01*
X184037708Y-119587482D01*
X183912292Y-119659890D01*
X183809890Y-119762292D01*
X183737482Y-119887708D01*
X183726212Y-119929766D01*
X183027340Y-119230894D01*
X182967084Y-119313830D01*
X182859897Y-119524197D01*
X182786934Y-119748752D01*
X182750000Y-119981947D01*
X180105424Y-119981947D01*
X180059397Y-119870827D01*
X180059390Y-119870814D01*
X179971789Y-119739711D01*
X179971786Y-119739707D01*
X179860292Y-119628213D01*
X179860288Y-119628210D01*
X179729185Y-119540609D01*
X179729172Y-119540602D01*
X179583501Y-119480264D01*
X179583489Y-119480261D01*
X179428845Y-119449500D01*
X179428842Y-119449500D01*
X179271158Y-119449500D01*
X179271155Y-119449500D01*
X179116510Y-119480261D01*
X179116498Y-119480264D01*
X178970827Y-119540602D01*
X178970814Y-119540609D01*
X178839711Y-119628210D01*
X178839707Y-119628213D01*
X178728213Y-119739707D01*
X178728210Y-119739711D01*
X178640609Y-119870814D01*
X178640602Y-119870827D01*
X178580264Y-120016498D01*
X178580263Y-120016503D01*
X178558141Y-120127713D01*
X178525756Y-120189624D01*
X178524205Y-120191202D01*
X177596269Y-121119140D01*
X177509144Y-121206264D01*
X177509138Y-121206272D01*
X177440690Y-121308708D01*
X177440688Y-121308713D01*
X177434912Y-121322658D01*
X177415322Y-121369954D01*
X177393537Y-121422548D01*
X177385278Y-121464069D01*
X177374120Y-121520169D01*
X177373213Y-121524724D01*
X177373212Y-121524731D01*
X177369500Y-121543393D01*
X177369500Y-121585786D01*
X177349815Y-121652825D01*
X177297011Y-121698580D01*
X177227853Y-121708524D01*
X177185239Y-121692195D01*
X177184554Y-121693479D01*
X177179172Y-121690602D01*
X177033501Y-121630264D01*
X177033489Y-121630261D01*
X176878845Y-121599500D01*
X176878842Y-121599500D01*
X176721158Y-121599500D01*
X176721155Y-121599500D01*
X176568691Y-121629827D01*
X176499100Y-121623600D01*
X176443922Y-121580737D01*
X176420678Y-121514847D01*
X176420500Y-121508210D01*
X176420500Y-120057951D01*
X176440185Y-119990912D01*
X176456815Y-119970274D01*
X177298729Y-119128360D01*
X177298733Y-119128358D01*
X177385858Y-119041233D01*
X177420084Y-118990009D01*
X177454312Y-118938786D01*
X177468453Y-118904646D01*
X177479841Y-118877154D01*
X177479843Y-118877147D01*
X177495417Y-118839547D01*
X177539258Y-118785144D01*
X177605552Y-118763078D01*
X177609979Y-118762999D01*
X179227871Y-118762999D01*
X179227872Y-118762999D01*
X179287483Y-118756591D01*
X179422331Y-118706296D01*
X179537546Y-118620046D01*
X179623796Y-118504831D01*
X179674091Y-118369983D01*
X179680500Y-118310373D01*
X179680499Y-116864628D01*
X179674091Y-116805017D01*
X179623796Y-116670169D01*
X179623795Y-116670168D01*
X179623793Y-116670164D01*
X179537547Y-116554955D01*
X179537544Y-116554952D01*
X179422335Y-116468706D01*
X179422328Y-116468702D01*
X179287482Y-116418408D01*
X179287483Y-116418408D01*
X179227883Y-116412001D01*
X179227881Y-116412000D01*
X179227873Y-116412000D01*
X179227865Y-116412000D01*
X177649500Y-116412000D01*
X177582461Y-116392315D01*
X177536706Y-116339511D01*
X177525500Y-116288000D01*
X177525500Y-114892350D01*
X177545185Y-114825311D01*
X177546398Y-114823459D01*
X177553008Y-114813566D01*
X177609394Y-114729179D01*
X177669737Y-114583497D01*
X177700500Y-114428842D01*
X177700500Y-114271158D01*
X177700500Y-114271155D01*
X177681113Y-114173692D01*
X177687340Y-114104100D01*
X177730203Y-114048923D01*
X177796093Y-114025678D01*
X177802730Y-114025500D01*
X183518497Y-114025500D01*
X183585536Y-114045185D01*
X183631291Y-114097989D01*
X183641235Y-114167147D01*
X183612210Y-114230703D01*
X183574792Y-114259985D01*
X183463566Y-114316657D01*
X183354550Y-114395862D01*
X183272490Y-114455483D01*
X183272488Y-114455485D01*
X183272487Y-114455485D01*
X183105485Y-114622487D01*
X183105485Y-114622488D01*
X183105483Y-114622490D01*
X183085132Y-114650501D01*
X182966657Y-114813566D01*
X182859433Y-115024003D01*
X182786446Y-115248631D01*
X182749500Y-115481902D01*
X182749500Y-115718097D01*
X182786446Y-115951368D01*
X182859433Y-116175996D01*
X182942749Y-116339511D01*
X182966657Y-116386433D01*
X183105483Y-116577510D01*
X183272490Y-116744517D01*
X183463567Y-116883343D01*
X183562991Y-116934002D01*
X183674003Y-116990566D01*
X183674005Y-116990566D01*
X183674008Y-116990568D01*
X183794412Y-117029689D01*
X183898631Y-117063553D01*
X184131903Y-117100500D01*
X184131908Y-117100500D01*
X184368097Y-117100500D01*
X184601368Y-117063553D01*
X184825992Y-116990568D01*
X185036433Y-116883343D01*
X185227510Y-116744517D01*
X185394517Y-116577510D01*
X185533343Y-116386433D01*
X185640568Y-116175992D01*
X185713553Y-115951368D01*
X185750500Y-115718097D01*
X185750500Y-115481902D01*
X185713553Y-115248631D01*
X185679689Y-115144412D01*
X185640568Y-115024008D01*
X185640566Y-115024005D01*
X185640566Y-115024003D01*
X185552161Y-114850500D01*
X185533343Y-114813567D01*
X185394517Y-114622490D01*
X185227510Y-114455483D01*
X185036433Y-114316657D01*
X184925208Y-114259985D01*
X184874412Y-114212010D01*
X184857617Y-114144189D01*
X184880154Y-114078054D01*
X184934870Y-114034603D01*
X184981503Y-114025500D01*
X190018497Y-114025500D01*
X190085536Y-114045185D01*
X190131291Y-114097989D01*
X190141235Y-114167147D01*
X190112210Y-114230703D01*
X190074792Y-114259985D01*
X189963566Y-114316657D01*
X189854550Y-114395862D01*
X189772490Y-114455483D01*
X189772488Y-114455485D01*
X189772487Y-114455485D01*
X189605485Y-114622487D01*
X189605485Y-114622488D01*
X189605483Y-114622490D01*
X189585132Y-114650501D01*
X189466657Y-114813566D01*
X189359433Y-115024003D01*
X189286446Y-115248631D01*
X189249500Y-115481902D01*
X189249500Y-115718097D01*
X189286446Y-115951368D01*
X189359433Y-116175996D01*
X189442749Y-116339511D01*
X189466657Y-116386433D01*
X189605483Y-116577510D01*
X189772490Y-116744517D01*
X189963567Y-116883343D01*
X190062991Y-116934002D01*
X190174003Y-116990566D01*
X190174005Y-116990566D01*
X190174008Y-116990568D01*
X190294412Y-117029689D01*
X190398631Y-117063553D01*
X190631903Y-117100500D01*
X190631908Y-117100500D01*
X190868097Y-117100500D01*
X191101368Y-117063553D01*
X191325992Y-116990568D01*
X191536433Y-116883343D01*
X191727510Y-116744517D01*
X191894517Y-116577510D01*
X192033343Y-116386433D01*
X192140568Y-116175992D01*
X192213553Y-115951368D01*
X192250500Y-115718097D01*
X192250500Y-115481902D01*
X192213553Y-115248631D01*
X192179689Y-115144412D01*
X192140568Y-115024008D01*
X192140566Y-115024005D01*
X192140566Y-115024003D01*
X192052161Y-114850500D01*
X192033343Y-114813567D01*
X191894517Y-114622490D01*
X191727510Y-114455483D01*
X191536433Y-114316657D01*
X191425208Y-114259985D01*
X191374412Y-114212010D01*
X191357617Y-114144189D01*
X191380154Y-114078054D01*
X191434870Y-114034603D01*
X191481503Y-114025500D01*
X198518497Y-114025500D01*
X198585536Y-114045185D01*
X198631291Y-114097989D01*
X198641235Y-114167147D01*
X198612210Y-114230703D01*
X198574792Y-114259985D01*
X198463566Y-114316657D01*
X198354550Y-114395862D01*
X198272490Y-114455483D01*
X198272488Y-114455485D01*
X198272487Y-114455485D01*
X198105485Y-114622487D01*
X198105485Y-114622488D01*
X198105483Y-114622490D01*
X198085132Y-114650501D01*
X197966657Y-114813566D01*
X197859433Y-115024003D01*
X197786446Y-115248631D01*
X197749500Y-115481902D01*
X197749500Y-115718097D01*
X197786446Y-115951368D01*
X197859433Y-116175996D01*
X197942749Y-116339511D01*
X197966657Y-116386433D01*
X198105483Y-116577510D01*
X198272490Y-116744517D01*
X198463567Y-116883343D01*
X198562991Y-116934002D01*
X198674003Y-116990566D01*
X198674005Y-116990566D01*
X198674008Y-116990568D01*
X198794412Y-117029689D01*
X198898631Y-117063553D01*
X199131903Y-117100500D01*
X199131908Y-117100500D01*
X199368097Y-117100500D01*
X199601368Y-117063553D01*
X199825992Y-116990568D01*
X200036433Y-116883343D01*
X200227510Y-116744517D01*
X200394517Y-116577510D01*
X200533343Y-116386433D01*
X200640568Y-116175992D01*
X200713553Y-115951368D01*
X200750500Y-115718097D01*
X200750500Y-115481902D01*
X200713553Y-115248631D01*
X200679689Y-115144412D01*
X200640568Y-115024008D01*
X200640566Y-115024005D01*
X200640566Y-115024003D01*
X200552161Y-114850500D01*
X200533343Y-114813567D01*
X200394517Y-114622490D01*
X200227510Y-114455483D01*
X200036433Y-114316657D01*
X199925208Y-114259985D01*
X199874412Y-114212010D01*
X199857617Y-114144189D01*
X199880154Y-114078054D01*
X199934870Y-114034603D01*
X199981503Y-114025500D01*
X203238394Y-114025500D01*
X205018497Y-114025500D01*
X205085536Y-114045185D01*
X205131291Y-114097989D01*
X205141235Y-114167147D01*
X205112210Y-114230703D01*
X205074792Y-114259985D01*
X204963566Y-114316657D01*
X204854550Y-114395862D01*
X204772490Y-114455483D01*
X204772488Y-114455485D01*
X204772487Y-114455485D01*
X204605485Y-114622487D01*
X204605485Y-114622488D01*
X204605483Y-114622490D01*
X204585132Y-114650501D01*
X204466657Y-114813566D01*
X204359433Y-115024003D01*
X204286446Y-115248631D01*
X204249500Y-115481902D01*
X204249500Y-115718097D01*
X204286446Y-115951368D01*
X204359433Y-116175996D01*
X204442749Y-116339511D01*
X204466657Y-116386433D01*
X204605483Y-116577510D01*
X204772490Y-116744517D01*
X204963567Y-116883343D01*
X205062991Y-116934002D01*
X205174003Y-116990566D01*
X205174005Y-116990566D01*
X205174008Y-116990568D01*
X205294412Y-117029689D01*
X205398631Y-117063553D01*
X205631903Y-117100500D01*
X205631908Y-117100500D01*
X205868097Y-117100500D01*
X206101368Y-117063553D01*
X206325992Y-116990568D01*
X206536433Y-116883343D01*
X206727510Y-116744517D01*
X206894517Y-116577510D01*
X207033343Y-116386433D01*
X207140568Y-116175992D01*
X207213553Y-115951368D01*
X207250500Y-115718097D01*
X207250500Y-115481902D01*
X207213553Y-115248631D01*
X207179689Y-115144412D01*
X207140568Y-115024008D01*
X207140566Y-115024005D01*
X207140566Y-115024003D01*
X207052161Y-114850500D01*
X207033343Y-114813567D01*
X206894517Y-114622490D01*
X206727510Y-114455483D01*
X206536433Y-114316657D01*
X206425208Y-114259985D01*
X206374412Y-114212010D01*
X206357617Y-114144189D01*
X206380154Y-114078054D01*
X206434870Y-114034603D01*
X206481503Y-114025500D01*
X211739548Y-114025500D01*
X211806587Y-114045185D01*
X211827229Y-114061819D01*
X212788530Y-115023120D01*
X212822015Y-115084443D01*
X212818780Y-115149119D01*
X212786447Y-115248630D01*
X212749500Y-115481902D01*
X212749500Y-115718097D01*
X212786446Y-115951368D01*
X212859433Y-116175996D01*
X212942749Y-116339511D01*
X212966657Y-116386433D01*
X213105483Y-116577510D01*
X213272490Y-116744517D01*
X213463567Y-116883343D01*
X213562991Y-116934002D01*
X213674003Y-116990566D01*
X213674005Y-116990566D01*
X213674008Y-116990568D01*
X213794412Y-117029689D01*
X213898631Y-117063553D01*
X214131903Y-117100500D01*
X214131908Y-117100500D01*
X214368097Y-117100500D01*
X214601368Y-117063553D01*
X214825992Y-116990568D01*
X215036433Y-116883343D01*
X215227510Y-116744517D01*
X215394517Y-116577510D01*
X215533343Y-116386433D01*
X215640568Y-116175992D01*
X215713553Y-115951368D01*
X215750500Y-115718097D01*
X215750500Y-115481902D01*
X219249500Y-115481902D01*
X219249500Y-115718097D01*
X219286446Y-115951368D01*
X219359433Y-116175996D01*
X219442749Y-116339511D01*
X219466657Y-116386433D01*
X219605483Y-116577510D01*
X219772490Y-116744517D01*
X219963567Y-116883343D01*
X220062991Y-116934002D01*
X220174003Y-116990566D01*
X220174005Y-116990566D01*
X220174008Y-116990568D01*
X220294412Y-117029689D01*
X220398631Y-117063553D01*
X220631903Y-117100500D01*
X220631908Y-117100500D01*
X220868097Y-117100500D01*
X221101368Y-117063553D01*
X221325992Y-116990568D01*
X221536433Y-116883343D01*
X221727510Y-116744517D01*
X221894517Y-116577510D01*
X222033343Y-116386433D01*
X222140568Y-116175992D01*
X222213553Y-115951368D01*
X222250500Y-115718097D01*
X222250500Y-115481902D01*
X222213553Y-115248631D01*
X222179689Y-115144412D01*
X222140568Y-115024008D01*
X222140566Y-115024005D01*
X222140566Y-115024003D01*
X222052161Y-114850500D01*
X222033343Y-114813567D01*
X221894517Y-114622490D01*
X221727510Y-114455483D01*
X221536433Y-114316657D01*
X221325996Y-114209433D01*
X221101368Y-114136446D01*
X220868097Y-114099500D01*
X220868092Y-114099500D01*
X220631908Y-114099500D01*
X220631903Y-114099500D01*
X220398631Y-114136446D01*
X220174003Y-114209433D01*
X219963566Y-114316657D01*
X219854550Y-114395862D01*
X219772490Y-114455483D01*
X219772488Y-114455485D01*
X219772487Y-114455485D01*
X219605485Y-114622487D01*
X219605485Y-114622488D01*
X219605483Y-114622490D01*
X219585132Y-114650501D01*
X219466657Y-114813566D01*
X219359433Y-115024003D01*
X219286446Y-115248631D01*
X219249500Y-115481902D01*
X215750500Y-115481902D01*
X215713553Y-115248631D01*
X215679689Y-115144412D01*
X215640568Y-115024008D01*
X215640566Y-115024005D01*
X215640566Y-115024003D01*
X215552161Y-114850500D01*
X215533343Y-114813567D01*
X215394517Y-114622490D01*
X215227510Y-114455483D01*
X215036433Y-114316657D01*
X214825996Y-114209433D01*
X214601368Y-114136446D01*
X214368097Y-114099500D01*
X214368092Y-114099500D01*
X214131908Y-114099500D01*
X214131903Y-114099500D01*
X213898630Y-114136447D01*
X213799119Y-114168780D01*
X213729277Y-114170775D01*
X213673120Y-114138530D01*
X213046771Y-113512181D01*
X213013286Y-113450858D01*
X213018270Y-113381166D01*
X213060142Y-113325233D01*
X213125606Y-113300816D01*
X213134452Y-113300500D01*
X216813331Y-113300500D01*
X216813347Y-113300501D01*
X216820943Y-113300501D01*
X216979054Y-113300501D01*
X216979057Y-113300501D01*
X217131785Y-113259577D01*
X217204581Y-113217548D01*
X217268716Y-113180520D01*
X217380520Y-113068716D01*
X217380520Y-113068714D01*
X217390724Y-113058511D01*
X217390727Y-113058506D01*
X226280520Y-104168716D01*
X226359577Y-104031784D01*
X226400501Y-103879057D01*
X226400501Y-103720942D01*
X226400501Y-103713347D01*
X226400500Y-103713329D01*
X226400500Y-96220945D01*
X226400500Y-96220943D01*
X226359577Y-96068216D01*
X226359573Y-96068209D01*
X226280524Y-95931290D01*
X226280518Y-95931282D01*
X226168717Y-95819481D01*
X226168709Y-95819475D01*
X226031790Y-95740426D01*
X226031786Y-95740424D01*
X226031784Y-95740423D01*
X225879057Y-95699500D01*
X225879056Y-95699500D01*
X221994168Y-95699500D01*
X221927129Y-95679815D01*
X221881374Y-95627011D01*
X221871430Y-95557853D01*
X221891067Y-95506608D01*
X221909389Y-95479187D01*
X221909390Y-95479184D01*
X221909394Y-95479179D01*
X221969737Y-95333497D01*
X222000500Y-95178842D01*
X222000500Y-95021158D01*
X222000500Y-95021155D01*
X222000499Y-95021153D01*
X221999573Y-95016498D01*
X221969737Y-94866503D01*
X221969735Y-94866498D01*
X221909397Y-94720827D01*
X221909390Y-94720814D01*
X221821789Y-94589711D01*
X221821786Y-94589707D01*
X221710292Y-94478213D01*
X221710288Y-94478210D01*
X221579185Y-94390609D01*
X221579172Y-94390602D01*
X221433501Y-94330264D01*
X221433489Y-94330261D01*
X221322285Y-94308141D01*
X221260374Y-94275756D01*
X221258795Y-94274205D01*
X220861819Y-93877228D01*
X220828334Y-93815905D01*
X220825500Y-93789547D01*
X220825500Y-86907648D01*
X221149500Y-86907648D01*
X221149500Y-87112351D01*
X221181522Y-87314534D01*
X221244781Y-87509223D01*
X221337715Y-87691613D01*
X221458028Y-87857213D01*
X221602786Y-88001971D01*
X221705463Y-88076569D01*
X221748129Y-88131898D01*
X221754108Y-88201512D01*
X221721503Y-88263307D01*
X221660664Y-88297664D01*
X221645833Y-88300177D01*
X221592516Y-88305909D01*
X221457671Y-88356202D01*
X221457664Y-88356206D01*
X221342455Y-88442452D01*
X221342452Y-88442455D01*
X221256206Y-88557664D01*
X221256202Y-88557671D01*
X221205908Y-88692517D01*
X221199501Y-88752116D01*
X221199501Y-88752123D01*
X221199500Y-88752135D01*
X221199500Y-90347870D01*
X221199501Y-90347876D01*
X221205908Y-90407483D01*
X221256202Y-90542328D01*
X221256206Y-90542335D01*
X221342452Y-90657544D01*
X221342455Y-90657547D01*
X221457664Y-90743793D01*
X221457671Y-90743797D01*
X221502618Y-90760561D01*
X221592517Y-90794091D01*
X221645835Y-90799823D01*
X221710384Y-90826560D01*
X221750232Y-90883952D01*
X221752726Y-90953777D01*
X221717074Y-91013867D01*
X221705463Y-91023430D01*
X221602787Y-91098028D01*
X221602782Y-91098032D01*
X221458028Y-91242786D01*
X221337715Y-91408386D01*
X221244781Y-91590776D01*
X221181522Y-91785465D01*
X221149500Y-91987648D01*
X221149500Y-92192351D01*
X221181522Y-92394534D01*
X221244781Y-92589223D01*
X221299045Y-92695720D01*
X221333418Y-92763181D01*
X221337715Y-92771613D01*
X221458028Y-92937213D01*
X221602786Y-93081971D01*
X221736430Y-93179067D01*
X221768390Y-93202287D01*
X221884607Y-93261503D01*
X221950776Y-93295218D01*
X221950778Y-93295218D01*
X221950781Y-93295220D01*
X222055137Y-93329127D01*
X222145465Y-93358477D01*
X222245266Y-93374284D01*
X222347648Y-93390500D01*
X222347649Y-93390500D01*
X222552351Y-93390500D01*
X222552352Y-93390500D01*
X222754534Y-93358477D01*
X222949219Y-93295220D01*
X223131610Y-93202287D01*
X223250506Y-93115905D01*
X223297213Y-93081971D01*
X223297215Y-93081968D01*
X223297219Y-93081966D01*
X223441966Y-92937219D01*
X223441968Y-92937215D01*
X223441971Y-92937213D01*
X223515305Y-92836276D01*
X223562287Y-92771610D01*
X223655220Y-92589219D01*
X223718477Y-92394534D01*
X223750500Y-92192352D01*
X223750500Y-91987648D01*
X223731312Y-91866503D01*
X223718477Y-91785465D01*
X223662552Y-91613348D01*
X223655220Y-91590781D01*
X223655218Y-91590778D01*
X223655218Y-91590776D01*
X223602638Y-91487584D01*
X223562287Y-91408390D01*
X223554556Y-91397749D01*
X223441971Y-91242786D01*
X223297217Y-91098032D01*
X223297212Y-91098028D01*
X223194536Y-91023430D01*
X223151870Y-90968101D01*
X223145891Y-90898487D01*
X223178496Y-90836692D01*
X223239335Y-90802335D01*
X223254164Y-90799822D01*
X223307483Y-90794091D01*
X223442331Y-90743796D01*
X223557546Y-90657546D01*
X223643796Y-90542331D01*
X223694091Y-90407483D01*
X223700500Y-90347873D01*
X223700499Y-88752128D01*
X223694091Y-88692517D01*
X223643796Y-88557669D01*
X223643795Y-88557668D01*
X223643793Y-88557664D01*
X223557547Y-88442455D01*
X223557544Y-88442452D01*
X223442335Y-88356206D01*
X223442328Y-88356202D01*
X223307482Y-88305908D01*
X223307483Y-88305908D01*
X223254165Y-88300176D01*
X223189614Y-88273438D01*
X223149766Y-88216045D01*
X223147273Y-88146220D01*
X223182926Y-88086131D01*
X223194537Y-88076568D01*
X223230419Y-88050499D01*
X223297219Y-88001966D01*
X223441966Y-87857219D01*
X223441968Y-87857215D01*
X223441971Y-87857213D01*
X223512390Y-87760288D01*
X223562287Y-87691610D01*
X223655220Y-87509219D01*
X223718477Y-87314534D01*
X223750500Y-87112352D01*
X223750500Y-86907648D01*
X223718477Y-86705466D01*
X223718380Y-86705169D01*
X223680766Y-86589403D01*
X223655220Y-86510781D01*
X223655218Y-86510778D01*
X223655218Y-86510776D01*
X223621503Y-86444607D01*
X223562287Y-86328390D01*
X223554556Y-86317749D01*
X223441971Y-86162786D01*
X223297213Y-86018028D01*
X223131613Y-85897715D01*
X223131612Y-85897714D01*
X223131610Y-85897713D01*
X223074653Y-85868691D01*
X222949223Y-85804781D01*
X222754534Y-85741522D01*
X222579995Y-85713878D01*
X222552352Y-85709500D01*
X222347648Y-85709500D01*
X222323329Y-85713351D01*
X222145465Y-85741522D01*
X221950776Y-85804781D01*
X221768386Y-85897715D01*
X221602786Y-86018028D01*
X221458028Y-86162786D01*
X221337715Y-86328386D01*
X221244781Y-86510776D01*
X221181522Y-86705465D01*
X221149500Y-86907648D01*
X220825500Y-86907648D01*
X220825500Y-55894396D01*
X220825500Y-55894394D01*
X220801463Y-55773548D01*
X220787652Y-55740207D01*
X220754312Y-55659714D01*
X220720084Y-55608490D01*
X220685858Y-55557267D01*
X220685856Y-55557264D01*
X220595637Y-55467045D01*
X220595606Y-55467016D01*
X216742428Y-51613838D01*
X216708943Y-51552515D01*
X216712177Y-51487841D01*
X216717246Y-51472243D01*
X216750500Y-51262287D01*
X216750500Y-51049713D01*
X216717246Y-50839757D01*
X216651557Y-50637588D01*
X216555051Y-50448184D01*
X216555049Y-50448181D01*
X216555048Y-50448179D01*
X216430109Y-50276213D01*
X216316569Y-50162673D01*
X216283084Y-50101350D01*
X216288068Y-50031658D01*
X216329940Y-49975725D01*
X216360915Y-49958810D01*
X216492331Y-49909796D01*
X216607546Y-49823546D01*
X216693796Y-49708331D01*
X216744091Y-49573483D01*
X216750500Y-49513873D01*
X216750499Y-47718128D01*
X216744091Y-47658517D01*
X216742810Y-47655083D01*
X216693797Y-47523671D01*
X216693793Y-47523664D01*
X216607547Y-47408455D01*
X216607544Y-47408452D01*
X216492335Y-47322206D01*
X216492328Y-47322202D01*
X216357482Y-47271908D01*
X216357483Y-47271908D01*
X216297883Y-47265501D01*
X216297881Y-47265500D01*
X216297873Y-47265500D01*
X216297864Y-47265500D01*
X214502129Y-47265500D01*
X214502123Y-47265501D01*
X214442516Y-47271908D01*
X214307671Y-47322202D01*
X214307664Y-47322206D01*
X214192455Y-47408452D01*
X214192452Y-47408455D01*
X214106206Y-47523664D01*
X214106203Y-47523669D01*
X214057189Y-47655083D01*
X214015317Y-47711016D01*
X213949853Y-47735433D01*
X213881580Y-47720581D01*
X213853326Y-47699430D01*
X213739786Y-47585890D01*
X213567820Y-47460951D01*
X213378414Y-47364444D01*
X213378413Y-47364443D01*
X213378412Y-47364443D01*
X213176243Y-47298754D01*
X213176241Y-47298753D01*
X213176240Y-47298753D01*
X213014957Y-47273208D01*
X212966287Y-47265500D01*
X212753713Y-47265500D01*
X212705042Y-47273208D01*
X212543760Y-47298753D01*
X212341585Y-47364444D01*
X212152179Y-47460951D01*
X211980213Y-47585890D01*
X211829890Y-47736213D01*
X211704951Y-47908179D01*
X211608444Y-48097585D01*
X211542753Y-48299760D01*
X211509500Y-48509713D01*
X211509500Y-48722286D01*
X211542753Y-48932239D01*
X211608444Y-49134414D01*
X211704951Y-49323820D01*
X211829890Y-49495786D01*
X211980213Y-49646109D01*
X212152182Y-49771050D01*
X212160946Y-49775516D01*
X212211742Y-49823491D01*
X212228536Y-49891312D01*
X212205998Y-49957447D01*
X212160946Y-49996484D01*
X212152182Y-50000949D01*
X211980213Y-50125890D01*
X211829890Y-50276213D01*
X211704951Y-50448179D01*
X211608444Y-50637585D01*
X211542753Y-50839760D01*
X211509500Y-51049713D01*
X211509500Y-51262287D01*
X211542754Y-51472243D01*
X211588761Y-51613838D01*
X211608444Y-51674414D01*
X211704951Y-51863820D01*
X211829890Y-52035786D01*
X211980213Y-52186109D01*
X212152182Y-52311050D01*
X212160946Y-52315516D01*
X212211742Y-52363491D01*
X212228536Y-52431312D01*
X212205998Y-52497447D01*
X212160946Y-52536484D01*
X212152182Y-52540949D01*
X211980213Y-52665890D01*
X211829890Y-52816213D01*
X211704951Y-52988179D01*
X211608444Y-53177585D01*
X211542753Y-53379760D01*
X211509500Y-53589713D01*
X211509500Y-53802286D01*
X211542753Y-54012239D01*
X211608444Y-54214414D01*
X211704951Y-54403820D01*
X211829890Y-54575786D01*
X211980213Y-54726109D01*
X212152179Y-54851048D01*
X212152181Y-54851049D01*
X212152184Y-54851051D01*
X212341588Y-54947557D01*
X212543757Y-55013246D01*
X212753713Y-55046500D01*
X212753714Y-55046500D01*
X212966286Y-55046500D01*
X212966287Y-55046500D01*
X213176243Y-55013246D01*
X213378412Y-54947557D01*
X213567816Y-54851051D01*
X213589789Y-54835086D01*
X213739786Y-54726109D01*
X213739788Y-54726106D01*
X213739792Y-54726104D01*
X213890104Y-54575792D01*
X213890106Y-54575788D01*
X213890109Y-54575786D01*
X214015048Y-54403820D01*
X214015047Y-54403820D01*
X214015051Y-54403816D01*
X214019514Y-54395054D01*
X214067488Y-54344259D01*
X214135308Y-54327463D01*
X214201444Y-54349999D01*
X214240486Y-54395056D01*
X214244951Y-54403820D01*
X214369890Y-54575786D01*
X214520213Y-54726109D01*
X214692179Y-54851048D01*
X214692181Y-54851049D01*
X214692184Y-54851051D01*
X214881588Y-54947557D01*
X215083757Y-55013246D01*
X215293713Y-55046500D01*
X215293714Y-55046500D01*
X215506286Y-55046500D01*
X215506287Y-55046500D01*
X215716243Y-55013246D01*
X215731837Y-55008178D01*
X215801676Y-55006182D01*
X215857837Y-55038428D01*
X217938181Y-57118771D01*
X217971666Y-57180094D01*
X217974500Y-57206452D01*
X217974500Y-61554766D01*
X217954815Y-61621805D01*
X217902011Y-61667560D01*
X217882552Y-61670999D01*
X217173787Y-62379765D01*
X217162518Y-62337708D01*
X217090110Y-62212292D01*
X216987708Y-62109890D01*
X216862292Y-62037482D01*
X216820234Y-62026212D01*
X217519105Y-61327340D01*
X217519104Y-61327338D01*
X217436174Y-61267087D01*
X217225802Y-61159897D01*
X217001247Y-61086934D01*
X217001248Y-61086934D01*
X216768052Y-61050000D01*
X216531948Y-61050000D01*
X216298752Y-61086934D01*
X216074197Y-61159897D01*
X215863830Y-61267084D01*
X215780894Y-61327340D01*
X216479766Y-62026212D01*
X216437708Y-62037482D01*
X216312292Y-62109890D01*
X216209890Y-62212292D01*
X216137482Y-62337708D01*
X216126212Y-62379766D01*
X215427340Y-61680894D01*
X215367084Y-61763830D01*
X215259897Y-61974197D01*
X215186934Y-62198752D01*
X215150000Y-62431947D01*
X215150000Y-62668052D01*
X215186934Y-62901247D01*
X215259897Y-63125802D01*
X215367087Y-63336174D01*
X215427338Y-63419104D01*
X215427340Y-63419105D01*
X216126212Y-62720233D01*
X216137482Y-62762292D01*
X216209890Y-62887708D01*
X216312292Y-62990110D01*
X216437708Y-63062518D01*
X216479765Y-63073787D01*
X215780893Y-63772658D01*
X215863828Y-63832914D01*
X216074197Y-63940102D01*
X216298752Y-64013065D01*
X216298751Y-64013065D01*
X216531948Y-64050000D01*
X216768052Y-64050000D01*
X217001247Y-64013065D01*
X217225802Y-63940102D01*
X217436163Y-63832918D01*
X217436169Y-63832914D01*
X217519104Y-63772658D01*
X217519105Y-63772658D01*
X216820233Y-63073787D01*
X216862292Y-63062518D01*
X216987708Y-62990110D01*
X217090110Y-62887708D01*
X217162518Y-62762292D01*
X217173787Y-62720233D01*
X217884313Y-63430760D01*
X217909146Y-63435977D01*
X217958904Y-63485027D01*
X217974500Y-63545232D01*
X217974500Y-68054766D01*
X217954815Y-68121805D01*
X217902011Y-68167560D01*
X217882552Y-68170999D01*
X217173787Y-68879765D01*
X217162518Y-68837708D01*
X217090110Y-68712292D01*
X216987708Y-68609890D01*
X216862292Y-68537482D01*
X216820234Y-68526212D01*
X217519105Y-67827340D01*
X217519104Y-67827338D01*
X217436174Y-67767087D01*
X217225802Y-67659897D01*
X217001247Y-67586934D01*
X217001248Y-67586934D01*
X216768052Y-67550000D01*
X216531948Y-67550000D01*
X216298752Y-67586934D01*
X216074197Y-67659897D01*
X215863830Y-67767084D01*
X215780894Y-67827340D01*
X216479766Y-68526212D01*
X216437708Y-68537482D01*
X216312292Y-68609890D01*
X216209890Y-68712292D01*
X216137482Y-68837708D01*
X216126212Y-68879766D01*
X215427340Y-68180894D01*
X215367084Y-68263830D01*
X215259897Y-68474197D01*
X215186934Y-68698752D01*
X215150000Y-68931947D01*
X215150000Y-69168052D01*
X215186934Y-69401247D01*
X215259897Y-69625802D01*
X215367087Y-69836174D01*
X215427338Y-69919104D01*
X215427340Y-69919105D01*
X216126212Y-69220233D01*
X216137482Y-69262292D01*
X216209890Y-69387708D01*
X216312292Y-69490110D01*
X216437708Y-69562518D01*
X216479765Y-69573787D01*
X215780893Y-70272658D01*
X215863828Y-70332914D01*
X216074197Y-70440102D01*
X216298752Y-70513065D01*
X216298751Y-70513065D01*
X216531948Y-70550000D01*
X216768052Y-70550000D01*
X217001247Y-70513065D01*
X217225802Y-70440102D01*
X217436163Y-70332918D01*
X217436169Y-70332914D01*
X217519104Y-70272658D01*
X217519105Y-70272658D01*
X216820233Y-69573787D01*
X216862292Y-69562518D01*
X216987708Y-69490110D01*
X217090110Y-69387708D01*
X217162518Y-69262292D01*
X217173787Y-69220234D01*
X217884313Y-69930760D01*
X217909146Y-69935977D01*
X217958904Y-69985027D01*
X217974500Y-70045232D01*
X217974500Y-76727378D01*
X217954815Y-76794417D01*
X217902011Y-76840172D01*
X217834932Y-76849816D01*
X217834905Y-76850097D01*
X217833765Y-76849984D01*
X217832853Y-76850116D01*
X217829809Y-76849595D01*
X217828843Y-76849500D01*
X217828842Y-76849500D01*
X217671158Y-76849500D01*
X217671155Y-76849500D01*
X217516510Y-76880261D01*
X217516498Y-76880264D01*
X217370827Y-76940602D01*
X217370814Y-76940609D01*
X217239125Y-77028602D01*
X217172447Y-77049480D01*
X217170234Y-77049500D01*
X215079766Y-77049500D01*
X215012727Y-77029815D01*
X215010875Y-77028602D01*
X214879185Y-76940609D01*
X214879172Y-76940602D01*
X214733501Y-76880264D01*
X214733489Y-76880261D01*
X214578845Y-76849500D01*
X214578842Y-76849500D01*
X214421158Y-76849500D01*
X214421155Y-76849500D01*
X214266510Y-76880261D01*
X214266498Y-76880264D01*
X214120827Y-76940602D01*
X214120816Y-76940608D01*
X214093390Y-76958934D01*
X214026712Y-76979811D01*
X213959332Y-76961326D01*
X213912643Y-76909346D01*
X213900500Y-76855831D01*
X213900500Y-76821155D01*
X213900499Y-76821153D01*
X213869738Y-76666510D01*
X213869737Y-76666503D01*
X213869735Y-76666498D01*
X213809396Y-76520825D01*
X213809394Y-76520822D01*
X213809394Y-76520821D01*
X213774694Y-76468889D01*
X213753816Y-76402215D01*
X213772300Y-76334835D01*
X213774676Y-76331136D01*
X213809394Y-76279179D01*
X213869737Y-76133497D01*
X213900500Y-75978842D01*
X213900500Y-75821158D01*
X213900500Y-75821155D01*
X213900499Y-75821153D01*
X213888652Y-75761593D01*
X213869737Y-75666503D01*
X213809394Y-75520821D01*
X213774694Y-75468889D01*
X213753816Y-75402215D01*
X213772300Y-75334835D01*
X213774676Y-75331136D01*
X213809394Y-75279179D01*
X213869737Y-75133497D01*
X213900500Y-74978842D01*
X213900500Y-74821158D01*
X213900500Y-74821155D01*
X213900499Y-74821153D01*
X213896291Y-74800000D01*
X213869737Y-74666503D01*
X213809394Y-74520821D01*
X213774694Y-74468889D01*
X213753816Y-74402215D01*
X213772300Y-74334835D01*
X213774676Y-74331136D01*
X213809394Y-74279179D01*
X213869737Y-74133497D01*
X213900500Y-73978842D01*
X213900500Y-73821158D01*
X213900500Y-73821155D01*
X213900499Y-73821153D01*
X213869738Y-73666510D01*
X213869737Y-73666503D01*
X213869735Y-73666498D01*
X213809397Y-73520827D01*
X213809390Y-73520814D01*
X213721789Y-73389711D01*
X213721786Y-73389707D01*
X213610292Y-73278213D01*
X213610288Y-73278210D01*
X213479185Y-73190609D01*
X213479172Y-73190602D01*
X213333501Y-73130264D01*
X213333489Y-73130261D01*
X213178845Y-73099500D01*
X213178842Y-73099500D01*
X213021158Y-73099500D01*
X213021155Y-73099500D01*
X212866510Y-73130261D01*
X212866498Y-73130264D01*
X212720827Y-73190602D01*
X212720814Y-73190609D01*
X212668891Y-73225304D01*
X212602214Y-73246182D01*
X212534833Y-73227698D01*
X212531109Y-73225304D01*
X212479185Y-73190609D01*
X212479172Y-73190602D01*
X212333501Y-73130264D01*
X212333489Y-73130261D01*
X212178845Y-73099500D01*
X212178842Y-73099500D01*
X212021158Y-73099500D01*
X212021155Y-73099500D01*
X211866510Y-73130261D01*
X211866498Y-73130264D01*
X211720827Y-73190602D01*
X211720814Y-73190609D01*
X211668891Y-73225304D01*
X211602214Y-73246182D01*
X211534833Y-73227698D01*
X211531109Y-73225304D01*
X211479185Y-73190609D01*
X211479172Y-73190602D01*
X211333501Y-73130264D01*
X211333489Y-73130261D01*
X211178845Y-73099500D01*
X211178842Y-73099500D01*
X211124500Y-73099500D01*
X211057461Y-73079815D01*
X211011706Y-73027011D01*
X211000500Y-72975500D01*
X211000500Y-71100096D01*
X211020185Y-71033057D01*
X211036815Y-71012419D01*
X211546437Y-70502796D01*
X211607758Y-70469313D01*
X211672433Y-70472547D01*
X211798632Y-70513553D01*
X211886110Y-70527408D01*
X212031903Y-70550500D01*
X212031908Y-70550500D01*
X212268097Y-70550500D01*
X212501368Y-70513553D01*
X212534468Y-70502798D01*
X212725992Y-70440568D01*
X212936433Y-70333343D01*
X213127510Y-70194517D01*
X213294517Y-70027510D01*
X213433343Y-69836433D01*
X213540568Y-69625992D01*
X213613553Y-69401368D01*
X213615717Y-69387708D01*
X213650500Y-69168097D01*
X213650500Y-68931902D01*
X213613553Y-68698631D01*
X213540566Y-68474003D01*
X213433342Y-68263566D01*
X213373277Y-68180894D01*
X213294517Y-68072490D01*
X213127510Y-67905483D01*
X212936433Y-67766657D01*
X212725996Y-67659433D01*
X212501368Y-67586446D01*
X212268097Y-67549500D01*
X212268092Y-67549500D01*
X212031908Y-67549500D01*
X212031903Y-67549500D01*
X211798631Y-67586446D01*
X211574003Y-67659433D01*
X211363566Y-67766657D01*
X211280047Y-67827338D01*
X211172490Y-67905483D01*
X211172488Y-67905485D01*
X211172487Y-67905485D01*
X211005485Y-68072487D01*
X211005485Y-68072488D01*
X211005483Y-68072490D01*
X210945862Y-68154550D01*
X210866657Y-68263566D01*
X210759433Y-68474003D01*
X210686446Y-68698631D01*
X210649500Y-68931902D01*
X210649500Y-69168097D01*
X210686447Y-69401369D01*
X210686447Y-69401372D01*
X210727450Y-69527564D01*
X210729445Y-69597405D01*
X210697200Y-69653563D01*
X210031286Y-70319478D01*
X209919482Y-70431281D01*
X209919478Y-70431287D01*
X209871982Y-70513553D01*
X209840424Y-70568212D01*
X209840423Y-70568213D01*
X209819961Y-70644579D01*
X209799499Y-70720943D01*
X209799499Y-70720945D01*
X209799499Y-70889046D01*
X209799500Y-70889059D01*
X209799500Y-91613330D01*
X209799499Y-91613348D01*
X209799499Y-91779054D01*
X209799498Y-91779054D01*
X209840423Y-91931785D01*
X209860114Y-91965891D01*
X209860116Y-91965893D01*
X209919479Y-92068714D01*
X209919481Y-92068717D01*
X210038349Y-92187585D01*
X210038355Y-92187590D01*
X211346322Y-93495557D01*
X211379807Y-93556880D01*
X211374823Y-93626572D01*
X211332951Y-93682505D01*
X211325784Y-93687068D01*
X211325886Y-93687221D01*
X211189711Y-93778210D01*
X211189707Y-93778213D01*
X211078213Y-93889707D01*
X211078210Y-93889711D01*
X210990609Y-94020814D01*
X210990602Y-94020827D01*
X210930264Y-94166498D01*
X210930261Y-94166510D01*
X210899500Y-94321153D01*
X210899500Y-94455831D01*
X210879815Y-94522870D01*
X210827011Y-94568625D01*
X210757853Y-94578569D01*
X210706610Y-94558934D01*
X210679183Y-94540608D01*
X210679172Y-94540602D01*
X210533501Y-94480264D01*
X210533489Y-94480261D01*
X210378845Y-94449500D01*
X210378842Y-94449500D01*
X210221158Y-94449500D01*
X210221155Y-94449500D01*
X210066510Y-94480261D01*
X210066498Y-94480264D01*
X209920827Y-94540602D01*
X209920814Y-94540609D01*
X209789711Y-94628210D01*
X209789707Y-94628213D01*
X209678213Y-94739707D01*
X209678210Y-94739711D01*
X209590609Y-94870814D01*
X209590602Y-94870827D01*
X209530264Y-95016498D01*
X209530261Y-95016510D01*
X209499500Y-95171153D01*
X209499500Y-95328846D01*
X209530261Y-95483489D01*
X209530264Y-95483501D01*
X209590602Y-95629172D01*
X209590609Y-95629185D01*
X209678602Y-95760874D01*
X209699480Y-95827551D01*
X209699500Y-95829765D01*
X209699500Y-99513330D01*
X209699499Y-99513348D01*
X209699499Y-99679054D01*
X209699498Y-99679054D01*
X209699499Y-99679057D01*
X209740423Y-99831785D01*
X209765553Y-99875311D01*
X209769358Y-99881900D01*
X209769359Y-99881904D01*
X209769360Y-99881904D01*
X209819479Y-99968714D01*
X209819481Y-99968717D01*
X209938349Y-100087585D01*
X209938355Y-100087590D01*
X213005139Y-103154374D01*
X213005149Y-103154385D01*
X213009479Y-103158715D01*
X213009480Y-103158716D01*
X213121284Y-103270520D01*
X213206086Y-103319480D01*
X213206087Y-103319481D01*
X213258209Y-103349574D01*
X213258210Y-103349574D01*
X213258215Y-103349577D01*
X213410942Y-103390500D01*
X213410943Y-103390500D01*
X222025500Y-103390500D01*
X222092539Y-103410185D01*
X222138294Y-103462989D01*
X222149500Y-103514500D01*
X222149500Y-103640015D01*
X222160000Y-103742795D01*
X222160001Y-103742797D01*
X222187593Y-103826065D01*
X222215186Y-103909335D01*
X222215187Y-103909337D01*
X222307286Y-104058651D01*
X222307289Y-104058655D01*
X222431344Y-104182710D01*
X222431348Y-104182713D01*
X222580662Y-104274812D01*
X222580664Y-104274813D01*
X222580666Y-104274814D01*
X222747203Y-104329999D01*
X222849992Y-104340500D01*
X224110902Y-104340500D01*
X224177941Y-104360185D01*
X224223696Y-104412989D01*
X224233640Y-104482147D01*
X224204615Y-104545703D01*
X224198583Y-104552181D01*
X216687584Y-112063181D01*
X216626261Y-112096666D01*
X216599903Y-112099500D01*
X202917848Y-112099500D01*
X202850809Y-112079815D01*
X202805054Y-112027011D01*
X202796231Y-111999692D01*
X202769738Y-111866508D01*
X202769737Y-111866507D01*
X202769737Y-111866503D01*
X202750812Y-111820814D01*
X202709397Y-111720827D01*
X202709389Y-111720812D01*
X202691067Y-111693392D01*
X202670188Y-111626715D01*
X202688672Y-111559334D01*
X202740650Y-111512644D01*
X202794168Y-111500500D01*
X212799903Y-111500500D01*
X212829343Y-111509144D01*
X212859330Y-111515668D01*
X212864345Y-111519422D01*
X212866942Y-111520185D01*
X212887584Y-111536819D01*
X212915139Y-111564374D01*
X212915149Y-111564385D01*
X212919479Y-111568715D01*
X212919480Y-111568716D01*
X213031284Y-111680520D01*
X213101088Y-111720821D01*
X213168215Y-111759577D01*
X213320943Y-111800500D01*
X215011823Y-111800500D01*
X215011839Y-111800501D01*
X215019435Y-111800501D01*
X215177546Y-111800501D01*
X215177549Y-111800501D01*
X215330277Y-111759577D01*
X215397404Y-111720821D01*
X215467208Y-111680520D01*
X215579012Y-111568716D01*
X215579012Y-111568714D01*
X215589216Y-111558511D01*
X215589219Y-111558506D01*
X215804661Y-111343064D01*
X215865983Y-111309581D01*
X215868150Y-111309130D01*
X215926085Y-111297605D01*
X216023497Y-111278229D01*
X216169179Y-111217886D01*
X216300289Y-111130281D01*
X216411789Y-111018781D01*
X216499394Y-110887671D01*
X216502912Y-110879179D01*
X216559735Y-110741993D01*
X216559737Y-110741989D01*
X216590500Y-110587334D01*
X216590500Y-110429650D01*
X216590500Y-110429647D01*
X216590499Y-110429645D01*
X216583468Y-110394297D01*
X216559737Y-110274995D01*
X216556235Y-110266540D01*
X216499397Y-110129319D01*
X216499390Y-110129306D01*
X216411789Y-109998203D01*
X216411786Y-109998199D01*
X216300292Y-109886705D01*
X216300288Y-109886702D01*
X216169185Y-109799101D01*
X216169172Y-109799094D01*
X216023501Y-109738756D01*
X216023489Y-109738753D01*
X215868845Y-109707992D01*
X215868842Y-109707992D01*
X215711158Y-109707992D01*
X215711155Y-109707992D01*
X215556510Y-109738753D01*
X215556498Y-109738756D01*
X215410827Y-109799094D01*
X215410814Y-109799101D01*
X215279711Y-109886702D01*
X215279707Y-109886705D01*
X215168213Y-109998199D01*
X215168210Y-109998203D01*
X215080609Y-110129306D01*
X215080602Y-110129319D01*
X215020264Y-110274990D01*
X215020261Y-110275000D01*
X214989361Y-110430342D01*
X214980596Y-110447097D01*
X214976577Y-110465576D01*
X214957831Y-110490617D01*
X214956976Y-110492253D01*
X214955426Y-110493831D01*
X214886074Y-110563182D01*
X214824754Y-110596666D01*
X214798395Y-110599500D01*
X214231941Y-110599500D01*
X214164902Y-110579815D01*
X214119147Y-110527011D01*
X214109203Y-110457853D01*
X214138228Y-110394297D01*
X214144260Y-110387819D01*
X214146786Y-110385292D01*
X214146789Y-110385289D01*
X214234394Y-110254179D01*
X214294737Y-110108497D01*
X214325500Y-109953842D01*
X214325500Y-109796158D01*
X214325500Y-109796155D01*
X214325499Y-109796153D01*
X214312393Y-109730264D01*
X214294737Y-109641503D01*
X214294735Y-109641498D01*
X214234397Y-109495827D01*
X214234390Y-109495814D01*
X214146789Y-109364711D01*
X214146786Y-109364707D01*
X214099656Y-109317577D01*
X215465975Y-109317577D01*
X215571236Y-109361178D01*
X215571240Y-109361179D01*
X215716126Y-109389999D01*
X215716129Y-109390000D01*
X215863871Y-109390000D01*
X215863873Y-109389999D01*
X216008760Y-109361179D01*
X216008775Y-109361175D01*
X216114024Y-109317578D01*
X216114024Y-109317577D01*
X215790001Y-108993554D01*
X215790000Y-108993554D01*
X215465975Y-109317577D01*
X214099656Y-109317577D01*
X214035292Y-109253213D01*
X214035288Y-109253210D01*
X213904185Y-109165609D01*
X213904172Y-109165602D01*
X213758501Y-109105264D01*
X213758491Y-109105261D01*
X213603149Y-109074361D01*
X213586392Y-109065595D01*
X213567914Y-109061576D01*
X213542877Y-109042833D01*
X213541238Y-109041976D01*
X213539660Y-109040425D01*
X213537590Y-109038355D01*
X213537588Y-109038352D01*
X213418717Y-108919481D01*
X213418716Y-108919480D01*
X213331904Y-108869360D01*
X213331904Y-108869359D01*
X213331900Y-108869358D01*
X213281785Y-108840423D01*
X213129057Y-108799499D01*
X212970943Y-108799499D01*
X212963347Y-108799499D01*
X212963331Y-108799500D01*
X210826175Y-108799500D01*
X210759136Y-108779815D01*
X210713381Y-108727011D01*
X210703437Y-108657853D01*
X210732462Y-108594297D01*
X210772374Y-108563779D01*
X210790340Y-108555127D01*
X211094664Y-108363908D01*
X211121412Y-108342577D01*
X214740975Y-108342577D01*
X214846236Y-108386178D01*
X214846240Y-108386179D01*
X214945439Y-108405912D01*
X215007350Y-108438297D01*
X215041924Y-108499013D01*
X215042866Y-108551715D01*
X215040000Y-108566124D01*
X215040000Y-108713873D01*
X215068820Y-108858759D01*
X215068822Y-108858767D01*
X215112421Y-108964024D01*
X215436446Y-108640000D01*
X215416555Y-108620109D01*
X215690000Y-108620109D01*
X215690000Y-108659891D01*
X215705224Y-108696645D01*
X215733355Y-108724776D01*
X215770109Y-108740000D01*
X215809891Y-108740000D01*
X215846645Y-108724776D01*
X215874776Y-108696645D01*
X215890000Y-108659891D01*
X215890000Y-108640000D01*
X216143554Y-108640000D01*
X216467577Y-108964024D01*
X216467578Y-108964024D01*
X216511175Y-108858775D01*
X216511179Y-108858760D01*
X216539999Y-108713873D01*
X216540000Y-108713871D01*
X216540000Y-108566128D01*
X216537134Y-108551721D01*
X216543361Y-108482130D01*
X216586223Y-108426952D01*
X216634560Y-108405912D01*
X216733760Y-108386179D01*
X216733775Y-108386175D01*
X216839024Y-108342578D01*
X216839024Y-108342577D01*
X216515000Y-108018554D01*
X216506054Y-108027500D01*
X216510689Y-108032135D01*
X216525392Y-108059062D01*
X216541985Y-108084881D01*
X216542876Y-108091081D01*
X216544174Y-108093458D01*
X216547008Y-108119816D01*
X216547008Y-108185184D01*
X216527323Y-108252223D01*
X216510689Y-108272865D01*
X216143554Y-108640000D01*
X215890000Y-108640000D01*
X215890000Y-108620109D01*
X215874776Y-108583355D01*
X215846645Y-108555224D01*
X215809891Y-108540000D01*
X215770109Y-108540000D01*
X215733355Y-108555224D01*
X215705224Y-108583355D01*
X215690000Y-108620109D01*
X215416555Y-108620109D01*
X215069311Y-108272865D01*
X215057119Y-108250538D01*
X215044198Y-108235626D01*
X215044166Y-108235477D01*
X215739031Y-108235477D01*
X215790000Y-108286446D01*
X215840969Y-108235477D01*
X215803650Y-108198158D01*
X215791109Y-108175192D01*
X215776350Y-108198158D01*
X215739031Y-108235477D01*
X215044166Y-108235477D01*
X215042262Y-108226727D01*
X215038015Y-108220119D01*
X215037123Y-108213918D01*
X215035826Y-108211542D01*
X215032992Y-108185184D01*
X215032992Y-108119816D01*
X215052677Y-108052777D01*
X215069311Y-108032135D01*
X215073946Y-108027500D01*
X215781054Y-108027500D01*
X215781054Y-108031410D01*
X215788890Y-108045761D01*
X215798946Y-108030115D01*
X215798946Y-108027500D01*
X215790000Y-108018554D01*
X215781054Y-108027500D01*
X215073946Y-108027500D01*
X215065000Y-108018554D01*
X214740975Y-108342577D01*
X211121412Y-108342577D01*
X211294157Y-108204816D01*
X211320364Y-108183916D01*
X210001718Y-106865270D01*
X210119466Y-106779722D01*
X210269722Y-106629466D01*
X210355270Y-106511718D01*
X211673916Y-107830364D01*
X211853907Y-107604664D01*
X211862414Y-107591126D01*
X214315000Y-107591126D01*
X214315000Y-107738873D01*
X214343820Y-107883759D01*
X214343822Y-107883767D01*
X214387421Y-107989024D01*
X214711446Y-107665000D01*
X214711446Y-107664999D01*
X214691556Y-107645109D01*
X214965000Y-107645109D01*
X214965000Y-107684891D01*
X214980224Y-107721645D01*
X215008355Y-107749776D01*
X215045109Y-107765000D01*
X215084891Y-107765000D01*
X215121645Y-107749776D01*
X215149776Y-107721645D01*
X215165000Y-107684891D01*
X215165000Y-107665000D01*
X215418554Y-107665000D01*
X215427500Y-107673946D01*
X215436446Y-107665000D01*
X215427500Y-107656054D01*
X215418554Y-107665000D01*
X215165000Y-107665000D01*
X215165000Y-107645109D01*
X215690000Y-107645109D01*
X215690000Y-107684891D01*
X215705224Y-107721645D01*
X215733355Y-107749776D01*
X215770109Y-107765000D01*
X215809891Y-107765000D01*
X215846645Y-107749776D01*
X215874776Y-107721645D01*
X215890000Y-107684891D01*
X215890000Y-107665000D01*
X216143554Y-107665000D01*
X216152500Y-107673946D01*
X216161446Y-107665000D01*
X216152500Y-107656054D01*
X216143554Y-107665000D01*
X215890000Y-107665000D01*
X215890000Y-107645109D01*
X216415000Y-107645109D01*
X216415000Y-107684891D01*
X216430224Y-107721645D01*
X216458355Y-107749776D01*
X216495109Y-107765000D01*
X216534891Y-107765000D01*
X216571645Y-107749776D01*
X216599776Y-107721645D01*
X216615000Y-107684891D01*
X216615000Y-107664999D01*
X216868554Y-107664999D01*
X216868554Y-107665001D01*
X217192577Y-107989024D01*
X217192578Y-107989024D01*
X217236175Y-107883775D01*
X217236179Y-107883760D01*
X217264999Y-107738873D01*
X217265000Y-107738871D01*
X217265000Y-107591128D01*
X217264999Y-107591126D01*
X217236179Y-107446240D01*
X217236178Y-107446236D01*
X217192577Y-107340975D01*
X216868554Y-107664999D01*
X216615000Y-107664999D01*
X216615000Y-107645109D01*
X216599776Y-107608355D01*
X216571645Y-107580224D01*
X216534891Y-107565000D01*
X216495109Y-107565000D01*
X216458355Y-107580224D01*
X216430224Y-107608355D01*
X216415000Y-107645109D01*
X215890000Y-107645109D01*
X215874776Y-107608355D01*
X215846645Y-107580224D01*
X215809891Y-107565000D01*
X215770109Y-107565000D01*
X215733355Y-107580224D01*
X215705224Y-107608355D01*
X215690000Y-107645109D01*
X215165000Y-107645109D01*
X215149776Y-107608355D01*
X215121645Y-107580224D01*
X215084891Y-107565000D01*
X215045109Y-107565000D01*
X215008355Y-107580224D01*
X214980224Y-107608355D01*
X214965000Y-107645109D01*
X214691556Y-107645109D01*
X214387421Y-107340974D01*
X214387420Y-107340974D01*
X214343823Y-107446228D01*
X214343820Y-107446240D01*
X214315000Y-107591126D01*
X211862414Y-107591126D01*
X211907692Y-107519067D01*
X212045129Y-107300336D01*
X212195821Y-106987420D01*
X214740974Y-106987420D01*
X214740974Y-106987421D01*
X215064999Y-107311446D01*
X215073946Y-107302500D01*
X215072408Y-107300962D01*
X215781054Y-107300962D01*
X215781054Y-107302500D01*
X215790000Y-107311446D01*
X215798946Y-107302500D01*
X215798946Y-107298589D01*
X215790197Y-107282567D01*
X215781054Y-107300962D01*
X215072408Y-107300962D01*
X215069311Y-107297865D01*
X215054607Y-107270937D01*
X215038015Y-107245119D01*
X215037123Y-107238918D01*
X215035826Y-107236542D01*
X215032992Y-107210184D01*
X215032992Y-107144816D01*
X215052677Y-107077777D01*
X215057272Y-107072075D01*
X215761478Y-107072075D01*
X215793213Y-107148080D01*
X215803650Y-107131842D01*
X215840969Y-107094523D01*
X215790000Y-107043554D01*
X215761478Y-107072075D01*
X215057272Y-107072075D01*
X215069311Y-107057135D01*
X215436446Y-106690000D01*
X215436446Y-106689999D01*
X215416556Y-106670109D01*
X215690000Y-106670109D01*
X215690000Y-106709891D01*
X215705224Y-106746645D01*
X215733355Y-106774776D01*
X215770109Y-106790000D01*
X215809891Y-106790000D01*
X215846645Y-106774776D01*
X215874776Y-106746645D01*
X215890000Y-106709891D01*
X215890000Y-106689999D01*
X216143554Y-106689999D01*
X216143554Y-106690000D01*
X216510689Y-107057135D01*
X216525392Y-107084062D01*
X216541985Y-107109881D01*
X216542876Y-107116081D01*
X216544174Y-107118458D01*
X216547008Y-107144816D01*
X216547008Y-107210184D01*
X216527323Y-107277223D01*
X216510689Y-107297865D01*
X216506054Y-107302500D01*
X216515000Y-107311446D01*
X216515001Y-107311446D01*
X216839024Y-106987421D01*
X216733767Y-106943822D01*
X216733761Y-106943820D01*
X216634559Y-106924087D01*
X216572648Y-106891702D01*
X216538074Y-106830985D01*
X216537134Y-106778277D01*
X216540000Y-106763869D01*
X216540000Y-106616128D01*
X216539999Y-106616126D01*
X216511179Y-106471240D01*
X216511178Y-106471236D01*
X216467577Y-106365975D01*
X216143554Y-106689999D01*
X215890000Y-106689999D01*
X215890000Y-106670109D01*
X215874776Y-106633355D01*
X215846645Y-106605224D01*
X215809891Y-106590000D01*
X215770109Y-106590000D01*
X215733355Y-106605224D01*
X215705224Y-106633355D01*
X215690000Y-106670109D01*
X215416556Y-106670109D01*
X215112421Y-106365974D01*
X215112420Y-106365974D01*
X215068823Y-106471228D01*
X215068820Y-106471240D01*
X215040000Y-106616126D01*
X215040000Y-106763871D01*
X215039999Y-106763871D01*
X215042866Y-106778282D01*
X215036636Y-106847874D01*
X214993772Y-106903050D01*
X214945441Y-106924087D01*
X214846237Y-106943821D01*
X214846228Y-106943823D01*
X214740974Y-106987420D01*
X212195821Y-106987420D01*
X212201072Y-106976517D01*
X212319779Y-106637270D01*
X212319780Y-106637268D01*
X212399757Y-106286863D01*
X212399760Y-106286849D01*
X212427646Y-106039353D01*
X212427646Y-106039352D01*
X212430680Y-106012420D01*
X215465974Y-106012420D01*
X215465974Y-106012421D01*
X215790000Y-106336446D01*
X215790001Y-106336446D01*
X216114024Y-106012421D01*
X216008767Y-105968822D01*
X216008759Y-105968820D01*
X215863872Y-105940000D01*
X215716128Y-105940000D01*
X215571240Y-105968820D01*
X215571228Y-105968823D01*
X215465974Y-106012420D01*
X212430680Y-106012420D01*
X212439999Y-105929711D01*
X212440000Y-105929710D01*
X212440000Y-105570289D01*
X212439999Y-105570287D01*
X212399759Y-105213148D01*
X212399757Y-105213136D01*
X212319780Y-104862731D01*
X212319779Y-104862729D01*
X212201072Y-104523481D01*
X212201070Y-104523478D01*
X212198852Y-104518871D01*
X212198851Y-104518870D01*
X212198850Y-104518868D01*
X212175872Y-104471153D01*
X215199500Y-104471153D01*
X215199500Y-104628846D01*
X215230261Y-104783489D01*
X215230264Y-104783501D01*
X215290602Y-104929172D01*
X215290609Y-104929185D01*
X215378210Y-105060288D01*
X215378213Y-105060292D01*
X215489707Y-105171786D01*
X215489711Y-105171789D01*
X215620814Y-105259390D01*
X215620827Y-105259397D01*
X215766498Y-105319735D01*
X215766503Y-105319737D01*
X215921153Y-105350499D01*
X215921156Y-105350500D01*
X215921158Y-105350500D01*
X216078844Y-105350500D01*
X216078845Y-105350499D01*
X216233497Y-105319737D01*
X216379179Y-105259394D01*
X216448409Y-105213136D01*
X216510875Y-105171398D01*
X216577553Y-105150520D01*
X216579766Y-105150500D01*
X218020234Y-105150500D01*
X218087273Y-105170185D01*
X218089125Y-105171398D01*
X218220814Y-105259390D01*
X218220827Y-105259397D01*
X218366498Y-105319735D01*
X218366503Y-105319737D01*
X218521153Y-105350499D01*
X218521156Y-105350500D01*
X218521158Y-105350500D01*
X218678844Y-105350500D01*
X218678845Y-105350499D01*
X218833497Y-105319737D01*
X218979179Y-105259394D01*
X219110289Y-105171789D01*
X219221789Y-105060289D01*
X219309394Y-104929179D01*
X219369737Y-104783497D01*
X219400500Y-104628842D01*
X219400500Y-104471158D01*
X219400500Y-104471155D01*
X219400499Y-104471153D01*
X219384859Y-104392526D01*
X219369737Y-104316503D01*
X219355690Y-104282590D01*
X219309397Y-104170827D01*
X219309390Y-104170814D01*
X219221789Y-104039711D01*
X219221786Y-104039707D01*
X219110292Y-103928213D01*
X219110288Y-103928210D01*
X218979185Y-103840609D01*
X218979172Y-103840602D01*
X218833501Y-103780264D01*
X218833489Y-103780261D01*
X218678845Y-103749500D01*
X218678842Y-103749500D01*
X218521158Y-103749500D01*
X218521155Y-103749500D01*
X218366510Y-103780261D01*
X218366498Y-103780264D01*
X218220827Y-103840602D01*
X218220814Y-103840609D01*
X218089125Y-103928602D01*
X218022447Y-103949480D01*
X218020234Y-103949500D01*
X216579766Y-103949500D01*
X216512727Y-103929815D01*
X216510875Y-103928602D01*
X216379185Y-103840609D01*
X216379172Y-103840602D01*
X216233501Y-103780264D01*
X216233489Y-103780261D01*
X216078845Y-103749500D01*
X216078842Y-103749500D01*
X215921158Y-103749500D01*
X215921155Y-103749500D01*
X215766510Y-103780261D01*
X215766498Y-103780264D01*
X215620827Y-103840602D01*
X215620814Y-103840609D01*
X215489711Y-103928210D01*
X215489707Y-103928213D01*
X215378213Y-104039707D01*
X215378210Y-104039711D01*
X215290609Y-104170814D01*
X215290602Y-104170827D01*
X215230264Y-104316498D01*
X215230261Y-104316510D01*
X215199500Y-104471153D01*
X212175872Y-104471153D01*
X212045129Y-104199663D01*
X211853907Y-103895335D01*
X211673916Y-103669634D01*
X210355270Y-104988281D01*
X210269722Y-104870534D01*
X210119466Y-104720278D01*
X210001716Y-104634728D01*
X211320364Y-103316081D01*
X211094664Y-103136092D01*
X210790336Y-102944870D01*
X210466517Y-102788927D01*
X210127270Y-102670220D01*
X210127268Y-102670219D01*
X209776863Y-102590242D01*
X209776851Y-102590240D01*
X209419712Y-102550000D01*
X209060287Y-102550000D01*
X208703148Y-102590240D01*
X208703136Y-102590242D01*
X208352731Y-102670219D01*
X208352729Y-102670220D01*
X208013482Y-102788927D01*
X207689663Y-102944870D01*
X207385335Y-103136092D01*
X207159634Y-103316081D01*
X208478282Y-104634729D01*
X208360534Y-104720278D01*
X208210278Y-104870534D01*
X208124729Y-104988282D01*
X206806081Y-103669634D01*
X206626092Y-103895335D01*
X206434870Y-104199663D01*
X206278927Y-104523482D01*
X206160220Y-104862729D01*
X206160219Y-104862731D01*
X206080242Y-105213136D01*
X206080240Y-105213148D01*
X206040000Y-105570287D01*
X206040000Y-105929712D01*
X206080240Y-106286851D01*
X206080242Y-106286863D01*
X206160219Y-106637268D01*
X206160220Y-106637270D01*
X206278927Y-106976517D01*
X206434870Y-107300336D01*
X206626092Y-107604664D01*
X206806081Y-107830364D01*
X208124728Y-106511717D01*
X208210278Y-106629466D01*
X208360534Y-106779722D01*
X208478281Y-106865270D01*
X207159634Y-108183916D01*
X207159634Y-108183917D01*
X207385335Y-108363907D01*
X207689659Y-108555127D01*
X207707626Y-108563779D01*
X207759486Y-108610601D01*
X207777799Y-108678028D01*
X207756752Y-108744653D01*
X207703026Y-108789321D01*
X207653825Y-108799500D01*
X196579766Y-108799500D01*
X196512727Y-108779815D01*
X196510875Y-108778602D01*
X196379185Y-108690609D01*
X196379172Y-108690602D01*
X196233501Y-108630264D01*
X196233489Y-108630261D01*
X196078845Y-108599500D01*
X196078842Y-108599500D01*
X195921158Y-108599500D01*
X195921155Y-108599500D01*
X195766510Y-108630261D01*
X195766498Y-108630264D01*
X195620827Y-108690602D01*
X195620814Y-108690609D01*
X195489711Y-108778210D01*
X195489707Y-108778213D01*
X195378213Y-108889707D01*
X195378210Y-108889711D01*
X195290609Y-109020814D01*
X195290602Y-109020827D01*
X195230264Y-109166498D01*
X195230261Y-109166510D01*
X195199500Y-109321153D01*
X195199500Y-109478846D01*
X195230261Y-109633489D01*
X195230264Y-109633501D01*
X195290602Y-109779172D01*
X195290609Y-109779185D01*
X195378210Y-109910288D01*
X195378213Y-109910292D01*
X195489707Y-110021786D01*
X195527289Y-110046898D01*
X195572093Y-110100511D01*
X195580800Y-110169836D01*
X195550645Y-110232863D01*
X195527289Y-110253102D01*
X195489707Y-110278213D01*
X195378213Y-110389707D01*
X195378210Y-110389711D01*
X195290609Y-110520814D01*
X195290602Y-110520827D01*
X195230264Y-110666498D01*
X195230261Y-110666510D01*
X195199500Y-110821153D01*
X195199500Y-110978846D01*
X195230261Y-111133489D01*
X195230264Y-111133501D01*
X195290602Y-111279172D01*
X195290609Y-111279185D01*
X195378210Y-111410288D01*
X195378213Y-111410292D01*
X195489707Y-111521786D01*
X195489711Y-111521789D01*
X195620814Y-111609390D01*
X195620827Y-111609397D01*
X195699894Y-111642147D01*
X195766503Y-111669737D01*
X195921153Y-111700499D01*
X195921156Y-111700500D01*
X195921158Y-111700500D01*
X196078844Y-111700500D01*
X196078845Y-111700499D01*
X196233497Y-111669737D01*
X196379179Y-111609394D01*
X196440058Y-111568716D01*
X196510875Y-111521398D01*
X196577553Y-111500520D01*
X196579766Y-111500500D01*
X201205832Y-111500500D01*
X201272871Y-111520185D01*
X201318626Y-111572989D01*
X201328570Y-111642147D01*
X201308933Y-111693392D01*
X201290610Y-111720812D01*
X201290602Y-111720827D01*
X201230264Y-111866498D01*
X201230261Y-111866508D01*
X201203769Y-111999692D01*
X201171384Y-112061603D01*
X201110668Y-112096177D01*
X201082152Y-112099500D01*
X179450097Y-112099500D01*
X179383058Y-112079815D01*
X179362416Y-112063181D01*
X177784574Y-110485339D01*
X177751089Y-110424016D01*
X177750638Y-110421849D01*
X177732595Y-110331147D01*
X177719737Y-110266503D01*
X177694913Y-110206572D01*
X177659397Y-110120827D01*
X177659390Y-110120814D01*
X177571789Y-109989711D01*
X177571786Y-109989707D01*
X177460292Y-109878213D01*
X177460288Y-109878210D01*
X177329185Y-109790609D01*
X177329172Y-109790602D01*
X177183501Y-109730264D01*
X177183489Y-109730261D01*
X177028845Y-109699500D01*
X177028842Y-109699500D01*
X176871158Y-109699500D01*
X176871155Y-109699500D01*
X176716510Y-109730261D01*
X176716498Y-109730264D01*
X176570827Y-109790602D01*
X176570814Y-109790609D01*
X176439711Y-109878210D01*
X176439707Y-109878213D01*
X176328213Y-109989707D01*
X176328210Y-109989711D01*
X176240609Y-110120814D01*
X176240602Y-110120827D01*
X176180264Y-110266498D01*
X176180261Y-110266510D01*
X176149500Y-110421153D01*
X176149500Y-110578846D01*
X176180261Y-110733489D01*
X176180264Y-110733501D01*
X176197799Y-110775834D01*
X176205268Y-110845303D01*
X176173992Y-110907782D01*
X176113903Y-110943434D01*
X176044078Y-110940940D01*
X175995557Y-110910967D01*
X171561819Y-106477229D01*
X171528334Y-106415906D01*
X171525500Y-106389548D01*
X171525500Y-99942350D01*
X171530820Y-99924232D01*
X171531149Y-99905348D01*
X171544676Y-99877044D01*
X171545185Y-99875311D01*
X171546368Y-99873504D01*
X171546868Y-99872755D01*
X171600461Y-99827926D01*
X171669782Y-99819189D01*
X171732823Y-99849317D01*
X171753132Y-99872755D01*
X171753632Y-99873504D01*
X171759619Y-99892653D01*
X171769568Y-99908744D01*
X171769308Y-99923645D01*
X171774481Y-99940190D01*
X171774500Y-99942350D01*
X171774500Y-99961611D01*
X171777679Y-99977592D01*
X171777679Y-99977594D01*
X171777680Y-99977594D01*
X171797693Y-100078211D01*
X171797695Y-100078220D01*
X171797694Y-100078220D01*
X171798534Y-100082443D01*
X171798538Y-100082456D01*
X171845685Y-100196281D01*
X171845690Y-100196290D01*
X171867951Y-100229605D01*
X171867955Y-100229609D01*
X171872179Y-100235931D01*
X171914142Y-100298733D01*
X172001267Y-100385858D01*
X172001269Y-100385859D01*
X172011578Y-100396168D01*
X180877263Y-109261855D01*
X180877267Y-109261858D01*
X180979710Y-109330309D01*
X180979711Y-109330309D01*
X180979715Y-109330312D01*
X181046397Y-109357932D01*
X181093548Y-109377463D01*
X181113597Y-109381451D01*
X181178624Y-109394385D01*
X181214392Y-109401501D01*
X181214394Y-109401501D01*
X181343721Y-109401501D01*
X181343741Y-109401500D01*
X193585607Y-109401500D01*
X193646029Y-109389481D01*
X193706452Y-109377463D01*
X193739792Y-109363652D01*
X193820286Y-109330312D01*
X193871509Y-109296084D01*
X193922733Y-109261858D01*
X194009858Y-109174733D01*
X194009859Y-109174731D01*
X194016925Y-109167665D01*
X194016928Y-109167661D01*
X195058797Y-108125791D01*
X195120118Y-108092308D01*
X195122128Y-108091889D01*
X195233497Y-108069737D01*
X195379179Y-108009394D01*
X195510289Y-107921789D01*
X195621789Y-107810289D01*
X195709394Y-107679179D01*
X195769737Y-107533497D01*
X195800500Y-107378842D01*
X195800500Y-107221158D01*
X195800500Y-107221155D01*
X195800499Y-107221153D01*
X195785964Y-107148080D01*
X195769737Y-107066503D01*
X195742644Y-107001094D01*
X195709397Y-106920827D01*
X195709390Y-106920814D01*
X195621789Y-106789711D01*
X195621786Y-106789707D01*
X195510292Y-106678213D01*
X195510288Y-106678210D01*
X195379185Y-106590609D01*
X195379172Y-106590602D01*
X195233501Y-106530264D01*
X195233489Y-106530261D01*
X195078845Y-106499500D01*
X195078842Y-106499500D01*
X194921158Y-106499500D01*
X194921155Y-106499500D01*
X194766510Y-106530261D01*
X194766498Y-106530264D01*
X194620827Y-106590602D01*
X194620814Y-106590609D01*
X194489711Y-106678210D01*
X194489707Y-106678213D01*
X194378213Y-106789707D01*
X194378210Y-106789711D01*
X194290609Y-106920814D01*
X194290602Y-106920827D01*
X194230264Y-107066498D01*
X194230261Y-107066508D01*
X194208141Y-107177714D01*
X194175756Y-107239625D01*
X194174205Y-107241203D01*
X193301229Y-108114181D01*
X193239906Y-108147666D01*
X193213548Y-108150500D01*
X190838309Y-108150500D01*
X190771270Y-108130815D01*
X190750628Y-108114181D01*
X189501717Y-106865270D01*
X189619466Y-106779722D01*
X189769722Y-106629466D01*
X189855270Y-106511717D01*
X191173916Y-107830364D01*
X191353907Y-107604664D01*
X191545129Y-107300336D01*
X191701072Y-106976517D01*
X191819779Y-106637270D01*
X191819780Y-106637268D01*
X191899757Y-106286863D01*
X191899759Y-106286851D01*
X191939999Y-105929712D01*
X191940000Y-105929710D01*
X191940000Y-105570289D01*
X191939999Y-105570287D01*
X191899759Y-105213148D01*
X191899757Y-105213136D01*
X191819780Y-104862731D01*
X191819779Y-104862729D01*
X191701072Y-104523482D01*
X191638007Y-104392526D01*
X191626655Y-104323584D01*
X191654377Y-104259450D01*
X191712372Y-104220484D01*
X191782227Y-104219059D01*
X191827609Y-104243773D01*
X191828326Y-104242885D01*
X191877593Y-104282589D01*
X192008507Y-104342376D01*
X192008508Y-104342376D01*
X192008510Y-104342377D01*
X192150967Y-104362858D01*
X192293424Y-104342377D01*
X192424340Y-104282589D01*
X192471023Y-104244970D01*
X193583565Y-103132426D01*
X193644888Y-103098942D01*
X193714579Y-103103926D01*
X193758927Y-103132427D01*
X196325960Y-105699461D01*
X196325964Y-105699464D01*
X196473446Y-105798009D01*
X196473452Y-105798012D01*
X196473453Y-105798013D01*
X196637334Y-105865895D01*
X196811303Y-105900499D01*
X196811307Y-105900500D01*
X196811308Y-105900500D01*
X196811309Y-105900500D01*
X197272650Y-105900500D01*
X197339689Y-105920185D01*
X197385444Y-105972989D01*
X197395388Y-106042147D01*
X197375752Y-106093391D01*
X197290609Y-106220814D01*
X197290602Y-106220827D01*
X197230264Y-106366498D01*
X197230261Y-106366510D01*
X197199500Y-106521153D01*
X197199500Y-106678846D01*
X197230261Y-106833489D01*
X197230264Y-106833501D01*
X197290602Y-106979172D01*
X197290609Y-106979185D01*
X197378210Y-107110288D01*
X197378213Y-107110292D01*
X197489707Y-107221786D01*
X197489711Y-107221789D01*
X197620814Y-107309390D01*
X197620827Y-107309397D01*
X197766498Y-107369735D01*
X197766503Y-107369737D01*
X197921153Y-107400499D01*
X197921156Y-107400500D01*
X197921158Y-107400500D01*
X198078844Y-107400500D01*
X198078845Y-107400499D01*
X198233497Y-107369737D01*
X198379179Y-107309394D01*
X198510289Y-107221789D01*
X198621789Y-107110289D01*
X198709394Y-106979179D01*
X198769737Y-106833497D01*
X198800500Y-106678842D01*
X198800500Y-106521158D01*
X198800500Y-106521155D01*
X198800499Y-106521153D01*
X198791762Y-106477229D01*
X198769737Y-106366503D01*
X198757287Y-106336446D01*
X198709397Y-106220827D01*
X198709390Y-106220814D01*
X198624248Y-106093391D01*
X198603370Y-106026714D01*
X198621854Y-105959334D01*
X198673833Y-105912643D01*
X198727350Y-105900500D01*
X199972650Y-105900500D01*
X200039689Y-105920185D01*
X200085444Y-105972989D01*
X200095388Y-106042147D01*
X200075752Y-106093391D01*
X199990609Y-106220814D01*
X199990602Y-106220827D01*
X199930264Y-106366498D01*
X199930261Y-106366510D01*
X199899500Y-106521153D01*
X199899500Y-106678846D01*
X199930261Y-106833489D01*
X199930264Y-106833501D01*
X199990602Y-106979172D01*
X199990609Y-106979185D01*
X200078210Y-107110288D01*
X200078213Y-107110292D01*
X200189707Y-107221786D01*
X200189711Y-107221789D01*
X200320814Y-107309390D01*
X200320827Y-107309397D01*
X200466498Y-107369735D01*
X200466503Y-107369737D01*
X200621153Y-107400499D01*
X200621156Y-107400500D01*
X200621158Y-107400500D01*
X200778844Y-107400500D01*
X200778845Y-107400499D01*
X200933497Y-107369737D01*
X201079179Y-107309394D01*
X201210289Y-107221789D01*
X201321789Y-107110289D01*
X201409394Y-106979179D01*
X201469737Y-106833497D01*
X201500500Y-106678842D01*
X201500500Y-106521158D01*
X201500500Y-106521155D01*
X201500499Y-106521153D01*
X201491762Y-106477229D01*
X201469737Y-106366503D01*
X201457287Y-106336446D01*
X201409397Y-106220827D01*
X201409390Y-106220814D01*
X201324248Y-106093391D01*
X201303370Y-106026714D01*
X201321854Y-105959334D01*
X201373833Y-105912643D01*
X201427350Y-105900500D01*
X204038693Y-105900500D01*
X204038694Y-105900499D01*
X204096682Y-105888964D01*
X204212658Y-105865896D01*
X204212661Y-105865894D01*
X204212666Y-105865894D01*
X204376547Y-105798013D01*
X204524035Y-105699464D01*
X204649464Y-105574035D01*
X204676819Y-105533094D01*
X204700322Y-105497922D01*
X204748009Y-105426553D01*
X204748009Y-105426552D01*
X204748013Y-105426547D01*
X204815894Y-105262666D01*
X204816545Y-105259397D01*
X204850499Y-105088695D01*
X204850500Y-105088693D01*
X204850500Y-104911306D01*
X204850499Y-104911304D01*
X204815896Y-104737341D01*
X204815893Y-104737332D01*
X204748016Y-104573459D01*
X204748009Y-104573446D01*
X204649464Y-104425965D01*
X204649461Y-104425961D01*
X204524038Y-104300538D01*
X204524034Y-104300535D01*
X204376553Y-104201990D01*
X204376540Y-104201983D01*
X204212667Y-104134106D01*
X204212658Y-104134103D01*
X204038694Y-104099500D01*
X204038691Y-104099500D01*
X197324362Y-104099500D01*
X197257323Y-104079815D01*
X197236681Y-104063181D01*
X195032426Y-101858926D01*
X194998941Y-101797603D01*
X195003925Y-101727911D01*
X195032426Y-101683564D01*
X195542531Y-101173459D01*
X196144968Y-100571023D01*
X196182589Y-100524340D01*
X196242377Y-100393424D01*
X196262858Y-100250967D01*
X196242377Y-100108510D01*
X196230478Y-100082456D01*
X196182589Y-99977594D01*
X196182587Y-99977592D01*
X196144970Y-99930911D01*
X196144965Y-99930906D01*
X196144961Y-99930901D01*
X192471026Y-96256969D01*
X192471020Y-96256964D01*
X192471016Y-96256960D01*
X192424340Y-96219344D01*
X192293426Y-96159557D01*
X192293422Y-96159556D01*
X192150967Y-96139076D01*
X192008511Y-96159556D01*
X192008507Y-96159557D01*
X191877596Y-96219343D01*
X191830901Y-96256972D01*
X188481873Y-99606002D01*
X188420550Y-99639487D01*
X188350858Y-99634503D01*
X188325301Y-99621423D01*
X188279185Y-99590609D01*
X188279172Y-99590602D01*
X188133501Y-99530264D01*
X188133489Y-99530261D01*
X187978845Y-99499500D01*
X187978842Y-99499500D01*
X187821158Y-99499500D01*
X187821155Y-99499500D01*
X187666510Y-99530261D01*
X187666498Y-99530264D01*
X187520827Y-99590602D01*
X187520814Y-99590609D01*
X187389711Y-99678210D01*
X187389707Y-99678213D01*
X187278213Y-99789707D01*
X187278210Y-99789711D01*
X187190609Y-99920814D01*
X187190602Y-99920827D01*
X187130264Y-100066498D01*
X187130261Y-100066510D01*
X187099500Y-100221153D01*
X187099500Y-100378846D01*
X187130261Y-100533489D01*
X187130264Y-100533501D01*
X187190602Y-100679172D01*
X187190609Y-100679185D01*
X187278210Y-100810288D01*
X187278213Y-100810292D01*
X187389707Y-100921786D01*
X187389711Y-100921789D01*
X187520814Y-101009390D01*
X187520827Y-101009397D01*
X187638616Y-101058186D01*
X187666503Y-101069737D01*
X187821153Y-101100499D01*
X187821156Y-101100500D01*
X187821158Y-101100500D01*
X187978844Y-101100500D01*
X187978845Y-101100499D01*
X188133497Y-101069737D01*
X188279179Y-101009394D01*
X188279185Y-101009390D01*
X188384087Y-100939297D01*
X188450764Y-100918419D01*
X188518145Y-100936903D01*
X188540659Y-100954718D01*
X190238140Y-102652198D01*
X190271625Y-102713521D01*
X190266641Y-102783213D01*
X190224769Y-102839146D01*
X190159305Y-102863563D01*
X190096658Y-102851599D01*
X189966522Y-102788929D01*
X189966518Y-102788927D01*
X189627270Y-102670220D01*
X189627268Y-102670219D01*
X189276863Y-102590242D01*
X189276851Y-102590240D01*
X188919712Y-102550000D01*
X188560287Y-102550000D01*
X188203148Y-102590240D01*
X188203136Y-102590242D01*
X187852731Y-102670219D01*
X187852729Y-102670220D01*
X187513482Y-102788927D01*
X187189663Y-102944870D01*
X186885335Y-103136092D01*
X186659634Y-103316081D01*
X187978282Y-104634728D01*
X187860534Y-104720278D01*
X187710278Y-104870534D01*
X187624729Y-104988282D01*
X186306081Y-103669634D01*
X186126092Y-103895335D01*
X185934870Y-104199663D01*
X185778927Y-104523482D01*
X185660220Y-104862729D01*
X185660219Y-104862731D01*
X185580242Y-105213136D01*
X185580240Y-105213148D01*
X185540000Y-105570287D01*
X185540000Y-105929712D01*
X185580240Y-106286851D01*
X185580242Y-106286863D01*
X185660219Y-106637268D01*
X185660220Y-106637270D01*
X185778927Y-106976517D01*
X185934870Y-107300336D01*
X186126092Y-107604664D01*
X186306081Y-107830364D01*
X187624728Y-106511717D01*
X187710278Y-106629466D01*
X187860534Y-106779722D01*
X187978282Y-106865270D01*
X186729372Y-108114181D01*
X186668049Y-108147666D01*
X186641691Y-108150500D01*
X181586453Y-108150500D01*
X181519414Y-108130815D01*
X181498772Y-108114181D01*
X179039085Y-105654494D01*
X174087337Y-100702747D01*
X174005743Y-100621153D01*
X177599500Y-100621153D01*
X177599500Y-100778846D01*
X177630261Y-100933489D01*
X177630264Y-100933501D01*
X177690602Y-101079172D01*
X177690609Y-101079184D01*
X177753602Y-101173459D01*
X177774480Y-101240136D01*
X177774500Y-101242350D01*
X177774500Y-102607650D01*
X177754815Y-102674689D01*
X177753602Y-102676541D01*
X177690609Y-102770815D01*
X177690602Y-102770828D01*
X177630264Y-102916498D01*
X177630261Y-102916510D01*
X177599500Y-103071153D01*
X177599500Y-103228846D01*
X177630261Y-103383489D01*
X177630264Y-103383501D01*
X177690602Y-103529172D01*
X177690609Y-103529185D01*
X177778210Y-103660288D01*
X177778213Y-103660292D01*
X177889707Y-103771786D01*
X177889711Y-103771789D01*
X178020814Y-103859390D01*
X178020827Y-103859397D01*
X178141390Y-103909335D01*
X178166503Y-103919737D01*
X178316030Y-103949480D01*
X178321153Y-103950499D01*
X178321156Y-103950500D01*
X178321158Y-103950500D01*
X178478844Y-103950500D01*
X178478845Y-103950499D01*
X178633497Y-103919737D01*
X178779179Y-103859394D01*
X178910289Y-103771789D01*
X179021789Y-103660289D01*
X179109394Y-103529179D01*
X179169737Y-103383497D01*
X179200500Y-103228842D01*
X179200500Y-103071158D01*
X179200500Y-103071155D01*
X179200499Y-103071153D01*
X179195246Y-103044746D01*
X179169737Y-102916503D01*
X179109394Y-102770821D01*
X179046397Y-102676539D01*
X179025520Y-102609863D01*
X179025500Y-102607650D01*
X179025500Y-101242350D01*
X179030271Y-101225659D01*
X179030034Y-101209124D01*
X179043200Y-101180426D01*
X179044234Y-101176813D01*
X179045286Y-101175122D01*
X179081347Y-101121153D01*
X183999500Y-101121153D01*
X183999500Y-101278846D01*
X184030261Y-101433489D01*
X184030264Y-101433501D01*
X184090602Y-101579172D01*
X184090609Y-101579184D01*
X184153602Y-101673459D01*
X184174480Y-101740136D01*
X184174500Y-101742350D01*
X184174500Y-102157650D01*
X184154815Y-102224689D01*
X184153602Y-102226541D01*
X184090609Y-102320815D01*
X184090602Y-102320828D01*
X184030264Y-102466498D01*
X184030261Y-102466510D01*
X183999500Y-102621153D01*
X183999500Y-102778846D01*
X184030261Y-102933489D01*
X184030264Y-102933501D01*
X184090602Y-103079172D01*
X184090609Y-103079185D01*
X184178210Y-103210288D01*
X184178213Y-103210292D01*
X184289707Y-103321786D01*
X184289711Y-103321789D01*
X184420814Y-103409390D01*
X184420827Y-103409397D01*
X184566498Y-103469735D01*
X184566503Y-103469737D01*
X184721153Y-103500499D01*
X184721156Y-103500500D01*
X184721158Y-103500500D01*
X184878844Y-103500500D01*
X184878845Y-103500499D01*
X185033497Y-103469737D01*
X185146166Y-103423067D01*
X185179172Y-103409397D01*
X185179172Y-103409396D01*
X185179179Y-103409394D01*
X185310289Y-103321789D01*
X185315997Y-103316081D01*
X185355232Y-103276847D01*
X185421786Y-103210292D01*
X185421789Y-103210289D01*
X185509394Y-103079179D01*
X185512719Y-103071153D01*
X185569735Y-102933501D01*
X185569737Y-102933497D01*
X185600500Y-102778842D01*
X185600500Y-102621158D01*
X185600500Y-102621155D01*
X185600499Y-102621153D01*
X185569738Y-102466510D01*
X185569737Y-102466503D01*
X185509394Y-102320821D01*
X185446397Y-102226539D01*
X185425520Y-102159863D01*
X185425500Y-102157650D01*
X185425500Y-101742350D01*
X185445185Y-101675311D01*
X185446398Y-101673459D01*
X185448267Y-101670662D01*
X185509394Y-101579179D01*
X185569737Y-101433497D01*
X185600500Y-101278842D01*
X185600500Y-101121158D01*
X185600500Y-101121155D01*
X185600499Y-101121153D01*
X185578269Y-101009397D01*
X185569737Y-100966503D01*
X185558468Y-100939297D01*
X185509397Y-100820827D01*
X185509390Y-100820814D01*
X185421789Y-100689711D01*
X185421786Y-100689707D01*
X185310292Y-100578213D01*
X185310288Y-100578210D01*
X185179185Y-100490609D01*
X185179172Y-100490602D01*
X185033501Y-100430264D01*
X185033489Y-100430261D01*
X184878845Y-100399500D01*
X184878842Y-100399500D01*
X184721158Y-100399500D01*
X184721155Y-100399500D01*
X184566510Y-100430261D01*
X184566498Y-100430264D01*
X184420827Y-100490602D01*
X184420814Y-100490609D01*
X184289711Y-100578210D01*
X184289707Y-100578213D01*
X184178213Y-100689707D01*
X184178210Y-100689711D01*
X184090609Y-100820814D01*
X184090602Y-100820827D01*
X184030264Y-100966498D01*
X184030261Y-100966510D01*
X183999500Y-101121153D01*
X179081347Y-101121153D01*
X179109394Y-101079179D01*
X179138299Y-101009397D01*
X179156063Y-100966510D01*
X179169737Y-100933497D01*
X179200500Y-100778842D01*
X179200500Y-100621158D01*
X179200500Y-100621155D01*
X179200499Y-100621153D01*
X179183061Y-100533489D01*
X179169737Y-100466503D01*
X179169735Y-100466498D01*
X179109397Y-100320827D01*
X179109390Y-100320814D01*
X179021789Y-100189711D01*
X179021786Y-100189707D01*
X178910292Y-100078213D01*
X178910288Y-100078210D01*
X178779185Y-99990609D01*
X178779172Y-99990602D01*
X178633501Y-99930264D01*
X178633489Y-99930261D01*
X178478845Y-99899500D01*
X178478842Y-99899500D01*
X178321158Y-99899500D01*
X178321155Y-99899500D01*
X178166510Y-99930261D01*
X178166498Y-99930264D01*
X178020827Y-99990602D01*
X178020814Y-99990609D01*
X177889711Y-100078210D01*
X177889707Y-100078213D01*
X177778213Y-100189707D01*
X177778210Y-100189711D01*
X177690609Y-100320814D01*
X177690602Y-100320827D01*
X177630264Y-100466498D01*
X177630261Y-100466510D01*
X177599500Y-100621153D01*
X174005743Y-100621153D01*
X173183906Y-99799316D01*
X173150421Y-99737993D01*
X173155405Y-99668301D01*
X173157027Y-99664180D01*
X173169737Y-99633497D01*
X173200500Y-99478842D01*
X173200500Y-99321158D01*
X173200500Y-99321155D01*
X173200499Y-99321153D01*
X173169738Y-99166510D01*
X173169737Y-99166503D01*
X173150000Y-99118853D01*
X173109397Y-99020827D01*
X173109390Y-99020814D01*
X173021789Y-98889711D01*
X173021786Y-98889707D01*
X172910292Y-98778213D01*
X172910288Y-98778210D01*
X172779185Y-98690609D01*
X172779172Y-98690602D01*
X172633501Y-98630264D01*
X172633489Y-98630261D01*
X172478845Y-98599500D01*
X172478842Y-98599500D01*
X172321158Y-98599500D01*
X172321155Y-98599500D01*
X172166510Y-98630261D01*
X172166498Y-98630264D01*
X172020827Y-98690602D01*
X172020814Y-98690609D01*
X171889711Y-98778210D01*
X171889707Y-98778213D01*
X171778213Y-98889707D01*
X171753102Y-98927289D01*
X171699489Y-98972093D01*
X171630164Y-98980800D01*
X171567137Y-98950645D01*
X171546898Y-98927289D01*
X171523759Y-98892660D01*
X171521789Y-98889711D01*
X171521788Y-98889710D01*
X171521786Y-98889707D01*
X171410292Y-98778213D01*
X171410288Y-98778210D01*
X171279185Y-98690609D01*
X171279172Y-98690602D01*
X171133501Y-98630264D01*
X171133489Y-98630261D01*
X170978845Y-98599500D01*
X170978842Y-98599500D01*
X170821158Y-98599500D01*
X170821155Y-98599500D01*
X170666510Y-98630261D01*
X170666498Y-98630264D01*
X170520827Y-98690602D01*
X170520814Y-98690609D01*
X170389711Y-98778210D01*
X170389707Y-98778213D01*
X170278213Y-98889707D01*
X170278210Y-98889711D01*
X170190609Y-99020814D01*
X170190602Y-99020827D01*
X170130264Y-99166498D01*
X170130261Y-99166510D01*
X170099500Y-99321153D01*
X170099500Y-99478846D01*
X170130261Y-99633489D01*
X170130264Y-99633501D01*
X170190602Y-99779172D01*
X170190609Y-99779184D01*
X170253602Y-99873459D01*
X170274480Y-99940136D01*
X170274500Y-99942350D01*
X170274500Y-106761610D01*
X170298535Y-106882444D01*
X170298539Y-106882458D01*
X170308046Y-106905410D01*
X170308050Y-106905420D01*
X170309172Y-106908127D01*
X170345688Y-106996286D01*
X170357972Y-107014669D01*
X170363115Y-107022366D01*
X170414141Y-107098733D01*
X170505586Y-107190178D01*
X170505608Y-107190198D01*
X176697326Y-113381916D01*
X176730811Y-113443239D01*
X176725827Y-113512931D01*
X176683955Y-113568864D01*
X176657098Y-113584158D01*
X176520823Y-113640604D01*
X176520814Y-113640609D01*
X176389711Y-113728210D01*
X176389707Y-113728213D01*
X176278213Y-113839707D01*
X176278210Y-113839711D01*
X176190609Y-113970814D01*
X176190602Y-113970827D01*
X176130264Y-114116498D01*
X176130261Y-114116510D01*
X176099500Y-114271153D01*
X176099500Y-114428846D01*
X176130261Y-114583489D01*
X176130264Y-114583501D01*
X176190602Y-114729172D01*
X176190609Y-114729184D01*
X176253602Y-114823459D01*
X176274480Y-114890136D01*
X176274500Y-114892350D01*
X176274500Y-116875500D01*
X176254815Y-116942539D01*
X176202011Y-116988294D01*
X176150500Y-116999500D01*
X176121155Y-116999500D01*
X175966510Y-117030261D01*
X175966498Y-117030264D01*
X175820827Y-117090602D01*
X175820814Y-117090609D01*
X175689711Y-117178210D01*
X175689707Y-117178213D01*
X175578213Y-117289707D01*
X175578210Y-117289711D01*
X175554389Y-117325362D01*
X175500776Y-117370167D01*
X175431451Y-117378874D01*
X175382396Y-117359573D01*
X175279185Y-117290609D01*
X175279172Y-117290602D01*
X175133501Y-117230264D01*
X175133489Y-117230261D01*
X174978845Y-117199500D01*
X174978842Y-117199500D01*
X174821158Y-117199500D01*
X174821155Y-117199500D01*
X174666510Y-117230261D01*
X174666498Y-117230264D01*
X174520827Y-117290602D01*
X174520814Y-117290609D01*
X174389711Y-117378210D01*
X174389707Y-117378213D01*
X174278213Y-117489707D01*
X174278210Y-117489711D01*
X174190609Y-117620814D01*
X174190602Y-117620827D01*
X174130264Y-117766498D01*
X174130261Y-117766508D01*
X174108141Y-117877713D01*
X174099375Y-117894469D01*
X174095356Y-117912948D01*
X174076611Y-117937988D01*
X174075756Y-117939624D01*
X174074206Y-117941202D01*
X173922178Y-118093229D01*
X173860857Y-118126713D01*
X173791166Y-118121729D01*
X173735232Y-118079858D01*
X173710815Y-118014393D01*
X173710499Y-118005547D01*
X173710499Y-116864629D01*
X173710498Y-116864623D01*
X173710497Y-116864616D01*
X173704091Y-116805017D01*
X173653796Y-116670169D01*
X173653795Y-116670168D01*
X173653793Y-116670164D01*
X173567547Y-116554955D01*
X173567544Y-116554952D01*
X173452335Y-116468706D01*
X173452328Y-116468702D01*
X173317482Y-116418408D01*
X173317483Y-116418408D01*
X173257883Y-116412001D01*
X173257881Y-116412000D01*
X173257873Y-116412000D01*
X173257864Y-116412000D01*
X171262129Y-116412000D01*
X171262123Y-116412001D01*
X171202516Y-116418408D01*
X171067671Y-116468702D01*
X171067664Y-116468706D01*
X170952455Y-116554952D01*
X170952452Y-116554955D01*
X170866206Y-116670164D01*
X170866202Y-116670171D01*
X170815908Y-116805017D01*
X170809501Y-116864616D01*
X170809501Y-116864623D01*
X170809500Y-116864635D01*
X170809500Y-118310370D01*
X170809501Y-118310376D01*
X170815908Y-118369983D01*
X170866202Y-118504828D01*
X170866206Y-118504835D01*
X170952452Y-118620044D01*
X170952455Y-118620047D01*
X171067664Y-118706293D01*
X171067671Y-118706297D01*
X171202517Y-118756591D01*
X171202516Y-118756591D01*
X171209444Y-118757335D01*
X171262127Y-118763000D01*
X172953047Y-118762999D01*
X173020086Y-118782684D01*
X173065841Y-118835487D01*
X173075785Y-118904646D01*
X173046760Y-118968202D01*
X173040728Y-118974680D01*
X172097597Y-119917811D01*
X172097580Y-119917828D01*
X172096269Y-119919140D01*
X172096267Y-119919142D01*
X172009142Y-120006267D01*
X172002303Y-120016503D01*
X171996559Y-120025098D01*
X171996558Y-120025100D01*
X171946510Y-120100001D01*
X171940688Y-120108714D01*
X171908704Y-120185931D01*
X171906521Y-120191202D01*
X171893537Y-120222545D01*
X171893535Y-120222553D01*
X171869500Y-120343389D01*
X171869500Y-127230619D01*
X171863735Y-127250249D01*
X171862847Y-127270689D01*
X171850803Y-127294290D01*
X171849815Y-127297658D01*
X171846807Y-127302124D01*
X171846805Y-127302127D01*
X171841595Y-127309508D01*
X171786853Y-127352926D01*
X171740290Y-127362000D01*
X170922129Y-127362000D01*
X170922123Y-127362001D01*
X170862516Y-127368408D01*
X170727671Y-127418702D01*
X170727664Y-127418706D01*
X170612455Y-127504952D01*
X170612452Y-127504955D01*
X170526206Y-127620164D01*
X170526202Y-127620171D01*
X170475908Y-127755017D01*
X170469501Y-127814616D01*
X170469501Y-127814623D01*
X170469500Y-127814635D01*
X170469500Y-129010370D01*
X170469501Y-129010376D01*
X170475908Y-129069983D01*
X170526202Y-129204828D01*
X170526203Y-129204830D01*
X170526204Y-129204831D01*
X170593761Y-129295076D01*
X170598338Y-129301189D01*
X170622755Y-129366653D01*
X170607904Y-129434926D01*
X170558499Y-129484332D01*
X170499071Y-129499500D01*
X170180929Y-129499500D01*
X170113890Y-129479815D01*
X170068135Y-129427011D01*
X170058191Y-129357853D01*
X170081662Y-129301189D01*
X170153796Y-129204831D01*
X170204091Y-129069983D01*
X170210500Y-129010373D01*
X170210499Y-127564628D01*
X170204091Y-127505017D01*
X170171898Y-127418704D01*
X170153797Y-127370171D01*
X170153793Y-127370164D01*
X170067547Y-127254955D01*
X170067544Y-127254952D01*
X169952335Y-127168706D01*
X169952328Y-127168702D01*
X169817482Y-127118408D01*
X169817483Y-127118408D01*
X169757883Y-127112001D01*
X169757881Y-127112000D01*
X169757873Y-127112000D01*
X169757864Y-127112000D01*
X168112129Y-127112000D01*
X168112123Y-127112001D01*
X168052516Y-127118408D01*
X167917671Y-127168702D01*
X167917664Y-127168706D01*
X167802455Y-127254952D01*
X167802452Y-127254955D01*
X167716206Y-127370164D01*
X167716202Y-127370171D01*
X167665908Y-127505017D01*
X167659501Y-127564616D01*
X167659501Y-127564623D01*
X167659500Y-127564635D01*
X167659500Y-129010370D01*
X167659501Y-129010376D01*
X167665908Y-129069983D01*
X167716202Y-129204828D01*
X167716203Y-129204830D01*
X167716204Y-129204831D01*
X167783761Y-129295076D01*
X167788338Y-129301189D01*
X167812755Y-129366653D01*
X167797904Y-129434926D01*
X167748499Y-129484332D01*
X167689071Y-129499500D01*
X164103052Y-129499500D01*
X164096967Y-129499351D01*
X163753267Y-129482465D01*
X163741158Y-129481272D01*
X163403800Y-129431231D01*
X163391864Y-129428857D01*
X163227770Y-129387753D01*
X163061021Y-129345985D01*
X163049379Y-129342453D01*
X162728271Y-129227557D01*
X162717030Y-129222901D01*
X162408709Y-129077078D01*
X162397981Y-129071343D01*
X162105454Y-128896009D01*
X162095336Y-128889249D01*
X161821389Y-128686076D01*
X161811983Y-128678356D01*
X161771690Y-128641837D01*
X161559274Y-128449314D01*
X161550685Y-128440725D01*
X161321643Y-128188016D01*
X161313923Y-128178610D01*
X161110750Y-127904663D01*
X161103990Y-127894545D01*
X161097751Y-127884136D01*
X160928651Y-127602011D01*
X160922921Y-127591290D01*
X160922487Y-127590373D01*
X160841294Y-127418702D01*
X160777098Y-127282969D01*
X160772442Y-127271728D01*
X160717583Y-127118409D01*
X160657541Y-126950604D01*
X160654018Y-126938991D01*
X160571139Y-126608122D01*
X160568770Y-126596212D01*
X160518726Y-126258837D01*
X160517534Y-126246731D01*
X160500649Y-125903031D01*
X160500500Y-125896947D01*
X160500500Y-121906961D01*
X160501280Y-121893077D01*
X160504546Y-121864090D01*
X160511459Y-121802731D01*
X160517635Y-121775670D01*
X160538992Y-121714635D01*
X167659500Y-121714635D01*
X167659500Y-122810370D01*
X167659501Y-122810376D01*
X167665908Y-122869983D01*
X167716202Y-123004828D01*
X167716206Y-123004835D01*
X167802452Y-123120044D01*
X167802455Y-123120047D01*
X167917664Y-123206293D01*
X167917671Y-123206297D01*
X168052517Y-123256591D01*
X168052516Y-123256591D01*
X168059444Y-123257335D01*
X168112127Y-123263000D01*
X169407872Y-123262999D01*
X169467483Y-123256591D01*
X169602331Y-123206296D01*
X169717546Y-123120046D01*
X169803796Y-123004831D01*
X169854091Y-122869983D01*
X169860500Y-122810373D01*
X169860499Y-121714628D01*
X169854091Y-121655017D01*
X169854091Y-121655016D01*
X169803797Y-121520170D01*
X169803793Y-121520164D01*
X169717547Y-121404955D01*
X169717544Y-121404952D01*
X169602335Y-121318706D01*
X169602328Y-121318702D01*
X169467482Y-121268408D01*
X169467483Y-121268408D01*
X169407883Y-121262001D01*
X169407881Y-121262000D01*
X169407873Y-121262000D01*
X169407864Y-121262000D01*
X168112129Y-121262000D01*
X168112123Y-121262001D01*
X168052516Y-121268408D01*
X167917671Y-121318702D01*
X167917664Y-121318706D01*
X167802455Y-121404952D01*
X167802452Y-121404955D01*
X167716206Y-121520164D01*
X167716203Y-121520170D01*
X167665908Y-121655017D01*
X167661453Y-121696462D01*
X167659501Y-121714623D01*
X167659500Y-121714635D01*
X160538992Y-121714635D01*
X160545353Y-121696456D01*
X160557396Y-121671450D01*
X160602046Y-121600389D01*
X160619351Y-121578690D01*
X160678690Y-121519351D01*
X160700389Y-121502046D01*
X160771450Y-121457396D01*
X160796456Y-121445353D01*
X160875670Y-121417635D01*
X160902733Y-121411459D01*
X160965419Y-121404396D01*
X160993079Y-121401280D01*
X161006962Y-121400500D01*
X165607317Y-121400500D01*
X165607318Y-121400500D01*
X165789612Y-121374290D01*
X165819764Y-121369955D01*
X165819765Y-121369954D01*
X165819769Y-121369954D01*
X166025710Y-121309484D01*
X166025713Y-121309482D01*
X166025715Y-121309482D01*
X166220938Y-121220327D01*
X166220944Y-121220323D01*
X166220950Y-121220321D01*
X166401513Y-121104281D01*
X166563724Y-120963724D01*
X166592689Y-120930297D01*
X166651467Y-120892523D01*
X166686402Y-120887500D01*
X166800000Y-120887500D01*
X166800000Y-120688980D01*
X166818747Y-120625135D01*
X166818199Y-120624836D01*
X166819574Y-120622316D01*
X166819685Y-120621941D01*
X166819687Y-120621937D01*
X166820318Y-120620954D01*
X166820321Y-120620950D01*
X166820324Y-120620942D01*
X166820327Y-120620938D01*
X166909482Y-120425715D01*
X166909482Y-120425713D01*
X166909484Y-120425710D01*
X166969954Y-120219769D01*
X167000500Y-120007318D01*
X167000500Y-119900000D01*
X167000500Y-119834108D01*
X167000500Y-119110344D01*
X167660000Y-119110344D01*
X167666401Y-119169872D01*
X167666403Y-119169879D01*
X167716645Y-119304586D01*
X167716649Y-119304593D01*
X167802809Y-119419687D01*
X167802812Y-119419690D01*
X167917906Y-119505850D01*
X167917913Y-119505854D01*
X168052620Y-119556096D01*
X168052627Y-119556098D01*
X168112155Y-119562499D01*
X168112172Y-119562500D01*
X168510000Y-119562500D01*
X169010000Y-119562500D01*
X169407828Y-119562500D01*
X169407844Y-119562499D01*
X169467372Y-119556098D01*
X169467379Y-119556096D01*
X169602086Y-119505854D01*
X169602093Y-119505850D01*
X169717187Y-119419690D01*
X169717190Y-119419687D01*
X169803350Y-119304593D01*
X169803354Y-119304586D01*
X169853596Y-119169879D01*
X169853598Y-119169872D01*
X169859999Y-119110344D01*
X169860000Y-119110327D01*
X169860000Y-118812500D01*
X169010000Y-118812500D01*
X169010000Y-119562500D01*
X168510000Y-119562500D01*
X168510000Y-118812500D01*
X167660000Y-118812500D01*
X167660000Y-119110344D01*
X167000500Y-119110344D01*
X167000500Y-118014655D01*
X167660000Y-118014655D01*
X167660000Y-118312500D01*
X168510000Y-118312500D01*
X169010000Y-118312500D01*
X169860000Y-118312500D01*
X169860000Y-118014672D01*
X169859999Y-118014655D01*
X169853598Y-117955127D01*
X169853596Y-117955120D01*
X169803354Y-117820413D01*
X169803350Y-117820406D01*
X169717190Y-117705312D01*
X169717187Y-117705309D01*
X169602093Y-117619149D01*
X169602086Y-117619145D01*
X169467379Y-117568903D01*
X169467372Y-117568901D01*
X169407844Y-117562500D01*
X169010000Y-117562500D01*
X169010000Y-118312500D01*
X168510000Y-118312500D01*
X168510000Y-117562500D01*
X168112155Y-117562500D01*
X168052627Y-117568901D01*
X168052620Y-117568903D01*
X167917913Y-117619145D01*
X167917906Y-117619149D01*
X167802812Y-117705309D01*
X167802809Y-117705312D01*
X167716649Y-117820406D01*
X167716645Y-117820413D01*
X167666403Y-117955120D01*
X167666401Y-117955127D01*
X167660000Y-118014655D01*
X167000500Y-118014655D01*
X167000500Y-114540939D01*
X167020185Y-114473900D01*
X167072989Y-114428145D01*
X167142147Y-114418201D01*
X167205703Y-114447226D01*
X167227602Y-114472048D01*
X167278210Y-114547788D01*
X167278213Y-114547792D01*
X167389707Y-114659286D01*
X167389711Y-114659289D01*
X167520814Y-114746890D01*
X167520827Y-114746897D01*
X167666498Y-114807235D01*
X167666503Y-114807237D01*
X167757367Y-114825311D01*
X167821153Y-114837999D01*
X167821156Y-114838000D01*
X167821158Y-114838000D01*
X167978844Y-114838000D01*
X167978845Y-114837999D01*
X168133497Y-114807237D01*
X168279179Y-114746894D01*
X168410289Y-114659289D01*
X168521789Y-114547789D01*
X168542722Y-114516460D01*
X168596331Y-114471657D01*
X168665656Y-114462948D01*
X168728684Y-114493102D01*
X168748925Y-114516460D01*
X168778213Y-114560292D01*
X168889707Y-114671786D01*
X168889711Y-114671789D01*
X169020814Y-114759390D01*
X169020827Y-114759397D01*
X169151607Y-114813567D01*
X169166503Y-114819737D01*
X169258312Y-114837999D01*
X169321153Y-114850499D01*
X169321156Y-114850500D01*
X169321158Y-114850500D01*
X169478844Y-114850500D01*
X169478845Y-114850499D01*
X169633497Y-114819737D01*
X169779179Y-114759394D01*
X169797893Y-114746890D01*
X169910875Y-114671398D01*
X169977553Y-114650520D01*
X169979766Y-114650500D01*
X173313331Y-114650500D01*
X173313347Y-114650501D01*
X173320943Y-114650501D01*
X173479054Y-114650501D01*
X173479057Y-114650501D01*
X173631785Y-114609577D01*
X173681904Y-114580639D01*
X173768716Y-114530520D01*
X173880520Y-114418716D01*
X173880520Y-114418714D01*
X173890728Y-114408507D01*
X173890729Y-114408504D01*
X174564665Y-113734570D01*
X174625984Y-113701088D01*
X174628151Y-113700637D01*
X174628840Y-113700500D01*
X174628842Y-113700500D01*
X174783497Y-113669737D01*
X174929179Y-113609394D01*
X175060289Y-113521789D01*
X175171789Y-113410289D01*
X175259394Y-113279179D01*
X175319737Y-113133497D01*
X175350500Y-112978842D01*
X175350500Y-112821158D01*
X175350500Y-112821155D01*
X175350499Y-112821153D01*
X175330543Y-112720827D01*
X175319737Y-112666503D01*
X175284366Y-112581108D01*
X175259397Y-112520827D01*
X175259390Y-112520814D01*
X175171789Y-112389711D01*
X175171786Y-112389707D01*
X175060292Y-112278213D01*
X175060288Y-112278210D01*
X174929185Y-112190609D01*
X174929172Y-112190602D01*
X174783501Y-112130264D01*
X174783489Y-112130261D01*
X174628845Y-112099500D01*
X174628842Y-112099500D01*
X174471158Y-112099500D01*
X174471155Y-112099500D01*
X174316510Y-112130261D01*
X174316498Y-112130264D01*
X174170827Y-112190602D01*
X174170814Y-112190609D01*
X174039711Y-112278210D01*
X174039707Y-112278213D01*
X173928213Y-112389707D01*
X173928210Y-112389711D01*
X173840609Y-112520814D01*
X173840602Y-112520827D01*
X173780264Y-112666498D01*
X173780261Y-112666508D01*
X173749362Y-112821848D01*
X173716977Y-112883759D01*
X173715426Y-112885337D01*
X173187584Y-113413181D01*
X173126261Y-113446666D01*
X173099903Y-113449500D01*
X169979766Y-113449500D01*
X169912727Y-113429815D01*
X169910875Y-113428602D01*
X169779185Y-113340609D01*
X169779172Y-113340602D01*
X169633501Y-113280264D01*
X169633489Y-113280261D01*
X169478845Y-113249500D01*
X169478842Y-113249500D01*
X169321158Y-113249500D01*
X169321155Y-113249500D01*
X169166510Y-113280261D01*
X169166498Y-113280264D01*
X169020827Y-113340602D01*
X169020814Y-113340609D01*
X168889711Y-113428210D01*
X168889710Y-113428210D01*
X168880642Y-113437279D01*
X168819318Y-113470761D01*
X168749626Y-113465774D01*
X168693694Y-113423901D01*
X168669280Y-113358435D01*
X168671347Y-113325402D01*
X168676301Y-113300500D01*
X168692801Y-113217547D01*
X168700500Y-113178844D01*
X168700500Y-113021155D01*
X168700499Y-113021153D01*
X168669737Y-112866503D01*
X168663425Y-112851264D01*
X168609397Y-112720827D01*
X168609395Y-112720824D01*
X168609394Y-112720821D01*
X168608103Y-112718889D01*
X168607737Y-112717723D01*
X168606525Y-112715454D01*
X168606955Y-112715223D01*
X168587226Y-112652214D01*
X168605710Y-112584834D01*
X168608077Y-112581149D01*
X168609394Y-112579179D01*
X168616171Y-112562819D01*
X168669735Y-112433501D01*
X168669737Y-112433497D01*
X168700500Y-112278842D01*
X168700500Y-112121158D01*
X168700500Y-112121155D01*
X168700499Y-112121153D01*
X168692276Y-112079815D01*
X168669737Y-111966503D01*
X168628314Y-111866498D01*
X168609397Y-111820827D01*
X168609390Y-111820814D01*
X168521789Y-111689711D01*
X168521786Y-111689707D01*
X168410292Y-111578213D01*
X168410288Y-111578210D01*
X168279185Y-111490609D01*
X168279172Y-111490602D01*
X168133501Y-111430264D01*
X168133489Y-111430261D01*
X167978845Y-111399500D01*
X167978842Y-111399500D01*
X167821158Y-111399500D01*
X167821155Y-111399500D01*
X167666510Y-111430261D01*
X167666498Y-111430264D01*
X167520827Y-111490602D01*
X167520814Y-111490609D01*
X167389711Y-111578210D01*
X167389707Y-111578213D01*
X167278213Y-111689707D01*
X167278210Y-111689711D01*
X167227602Y-111765451D01*
X167173989Y-111810256D01*
X167104664Y-111818963D01*
X167041637Y-111788808D01*
X167004918Y-111729365D01*
X167000500Y-111696560D01*
X167000500Y-93792683D01*
X167000500Y-93792682D01*
X166970275Y-93582461D01*
X166969955Y-93580235D01*
X166969952Y-93580225D01*
X166935123Y-93461607D01*
X166909484Y-93374290D01*
X166909483Y-93374288D01*
X166909482Y-93374284D01*
X166820329Y-93179067D01*
X166820319Y-93179047D01*
X166819680Y-93178053D01*
X166819568Y-93177673D01*
X166818202Y-93175171D01*
X166818746Y-93174873D01*
X166800000Y-93111020D01*
X166800000Y-92887500D01*
X166664739Y-92887500D01*
X166597700Y-92867815D01*
X166571025Y-92844702D01*
X166563723Y-92836275D01*
X166401514Y-92695720D01*
X166401513Y-92695719D01*
X166336991Y-92654253D01*
X166220951Y-92579679D01*
X166220938Y-92579672D01*
X166025715Y-92490517D01*
X165819774Y-92430047D01*
X165819764Y-92430044D01*
X165628754Y-92402582D01*
X165607318Y-92399500D01*
X165607317Y-92399500D01*
X161006962Y-92399500D01*
X160993078Y-92398720D01*
X160980553Y-92397308D01*
X160902735Y-92388540D01*
X160875666Y-92382362D01*
X160796462Y-92354648D01*
X160771444Y-92342600D01*
X160700395Y-92297957D01*
X160678686Y-92280644D01*
X160619355Y-92221313D01*
X160602042Y-92199604D01*
X160597485Y-92192352D01*
X160557398Y-92128553D01*
X160545351Y-92103537D01*
X160533167Y-92068717D01*
X160517636Y-92024331D01*
X160511459Y-91997263D01*
X160507924Y-91965893D01*
X160501280Y-91906922D01*
X160500500Y-91893038D01*
X160500500Y-89814234D01*
X165739500Y-89814234D01*
X165739500Y-89965766D01*
X165745401Y-89987789D01*
X165778719Y-90112136D01*
X165801131Y-90150954D01*
X165854485Y-90243365D01*
X165961635Y-90350515D01*
X166092865Y-90426281D01*
X166239234Y-90465500D01*
X166239236Y-90465500D01*
X166390764Y-90465500D01*
X166390766Y-90465500D01*
X166537135Y-90426281D01*
X166668365Y-90350515D01*
X166775515Y-90243365D01*
X166851281Y-90112135D01*
X166890500Y-89965766D01*
X166890500Y-89814234D01*
X166851281Y-89667865D01*
X166775515Y-89536635D01*
X166668365Y-89429485D01*
X166602750Y-89391602D01*
X166537136Y-89353719D01*
X166463950Y-89334109D01*
X166390766Y-89314500D01*
X166239234Y-89314500D01*
X166092863Y-89353719D01*
X165961635Y-89429485D01*
X165961632Y-89429487D01*
X165854487Y-89536632D01*
X165854485Y-89536635D01*
X165778719Y-89667863D01*
X165759822Y-89738389D01*
X165739500Y-89814234D01*
X160500500Y-89814234D01*
X160500500Y-85871153D01*
X165399500Y-85871153D01*
X165399500Y-86028846D01*
X165430261Y-86183489D01*
X165430264Y-86183501D01*
X165490602Y-86329172D01*
X165490609Y-86329185D01*
X165544269Y-86409492D01*
X165574142Y-86454200D01*
X165578602Y-86460874D01*
X165584252Y-86478920D01*
X165594477Y-86494830D01*
X165598928Y-86525789D01*
X165599480Y-86527551D01*
X165599500Y-86529765D01*
X165599500Y-86670234D01*
X165579815Y-86737273D01*
X165578602Y-86739125D01*
X165490609Y-86870814D01*
X165490602Y-86870827D01*
X165430264Y-87016498D01*
X165430261Y-87016510D01*
X165399500Y-87171153D01*
X165399500Y-87328846D01*
X165430261Y-87483489D01*
X165430264Y-87483501D01*
X165490602Y-87629172D01*
X165490609Y-87629185D01*
X165578210Y-87760288D01*
X165578213Y-87760292D01*
X165689707Y-87871786D01*
X165689711Y-87871789D01*
X165820814Y-87959390D01*
X165820827Y-87959397D01*
X165966498Y-88019735D01*
X165966503Y-88019737D01*
X166121153Y-88050499D01*
X166121156Y-88050500D01*
X166121158Y-88050500D01*
X166278844Y-88050500D01*
X166278845Y-88050499D01*
X166433497Y-88019737D01*
X166579179Y-87959394D01*
X166710289Y-87871789D01*
X166821789Y-87760289D01*
X166909394Y-87629179D01*
X166969737Y-87483497D01*
X167000500Y-87328842D01*
X167000500Y-87171158D01*
X167000500Y-87171155D01*
X167000499Y-87171153D01*
X166969738Y-87016510D01*
X166969737Y-87016503D01*
X166969735Y-87016498D01*
X166909397Y-86870827D01*
X166909390Y-86870814D01*
X166821398Y-86739125D01*
X166815747Y-86721078D01*
X166805523Y-86705169D01*
X166801071Y-86674207D01*
X166800520Y-86672447D01*
X166800500Y-86670234D01*
X166800500Y-86529765D01*
X166820185Y-86462726D01*
X166821398Y-86460874D01*
X166825858Y-86454200D01*
X166909394Y-86329179D01*
X166909723Y-86328386D01*
X166923067Y-86296166D01*
X166969737Y-86183497D01*
X167000500Y-86028842D01*
X167000500Y-85871158D01*
X167000500Y-85871155D01*
X167000499Y-85871153D01*
X166987297Y-85804781D01*
X166969737Y-85716503D01*
X166966836Y-85709500D01*
X166909397Y-85570827D01*
X166909390Y-85570814D01*
X166821789Y-85439711D01*
X166821786Y-85439707D01*
X166710292Y-85328213D01*
X166710288Y-85328210D01*
X166579185Y-85240609D01*
X166579172Y-85240602D01*
X166433501Y-85180264D01*
X166433489Y-85180261D01*
X166278845Y-85149500D01*
X166278842Y-85149500D01*
X166121158Y-85149500D01*
X166121155Y-85149500D01*
X165966510Y-85180261D01*
X165966498Y-85180264D01*
X165820827Y-85240602D01*
X165820814Y-85240609D01*
X165689711Y-85328210D01*
X165689707Y-85328213D01*
X165578213Y-85439707D01*
X165578210Y-85439711D01*
X165490609Y-85570814D01*
X165490602Y-85570827D01*
X165430264Y-85716498D01*
X165430261Y-85716510D01*
X165399500Y-85871153D01*
X160500500Y-85871153D01*
X160500500Y-84034234D01*
X165739500Y-84034234D01*
X165739500Y-84185765D01*
X165778719Y-84332136D01*
X165816602Y-84397750D01*
X165854485Y-84463365D01*
X165961635Y-84570515D01*
X166092865Y-84646281D01*
X166239234Y-84685500D01*
X166239236Y-84685500D01*
X166390764Y-84685500D01*
X166390766Y-84685500D01*
X166537135Y-84646281D01*
X166668365Y-84570515D01*
X166775515Y-84463365D01*
X166851281Y-84332135D01*
X166890500Y-84185766D01*
X166890500Y-84034234D01*
X166851281Y-83887865D01*
X166775515Y-83756635D01*
X166668365Y-83649485D01*
X166583519Y-83600499D01*
X166537136Y-83573719D01*
X166425463Y-83543797D01*
X166390766Y-83534500D01*
X166239234Y-83534500D01*
X166092863Y-83573719D01*
X165961635Y-83649485D01*
X165961632Y-83649487D01*
X165854487Y-83756632D01*
X165854485Y-83756635D01*
X165778719Y-83887863D01*
X165739500Y-84034234D01*
X160500500Y-84034234D01*
X160500500Y-82149033D01*
X169937142Y-82149033D01*
X169957622Y-82291488D01*
X169957623Y-82291492D01*
X170017409Y-82422403D01*
X170017410Y-82422404D01*
X170017411Y-82422406D01*
X170055030Y-82469089D01*
X170055033Y-82469092D01*
X170055038Y-82469098D01*
X173612994Y-86027052D01*
X173646479Y-86088375D01*
X173641495Y-86158067D01*
X173612994Y-86202414D01*
X170501269Y-89314140D01*
X170414144Y-89401264D01*
X170414138Y-89401272D01*
X170345692Y-89503705D01*
X170345684Y-89503719D01*
X170312347Y-89584207D01*
X170306823Y-89597543D01*
X170298537Y-89617545D01*
X170298535Y-89617553D01*
X170274500Y-89738389D01*
X170274500Y-93461611D01*
X170298535Y-93582444D01*
X170298540Y-93582461D01*
X170345685Y-93696280D01*
X170345687Y-93696283D01*
X170345688Y-93696286D01*
X170379915Y-93747509D01*
X170414142Y-93798733D01*
X170501267Y-93885858D01*
X170501269Y-93885859D01*
X170511232Y-93895822D01*
X176074205Y-99458796D01*
X176107690Y-99520119D01*
X176108141Y-99522286D01*
X176130261Y-99633489D01*
X176130264Y-99633501D01*
X176190602Y-99779172D01*
X176190609Y-99779185D01*
X176278210Y-99910288D01*
X176278213Y-99910292D01*
X176389707Y-100021786D01*
X176389711Y-100021789D01*
X176520814Y-100109390D01*
X176520827Y-100109397D01*
X176666498Y-100169735D01*
X176666503Y-100169737D01*
X176799948Y-100196281D01*
X176821153Y-100200499D01*
X176821156Y-100200500D01*
X176821158Y-100200500D01*
X176978844Y-100200500D01*
X176978845Y-100200499D01*
X177133497Y-100169737D01*
X177279179Y-100109394D01*
X177410289Y-100021789D01*
X177521789Y-99910289D01*
X177609394Y-99779179D01*
X177669737Y-99633497D01*
X177700500Y-99478842D01*
X177700500Y-99321158D01*
X177700500Y-99321155D01*
X177700499Y-99321153D01*
X177669738Y-99166510D01*
X177669737Y-99166503D01*
X177650000Y-99118853D01*
X177609397Y-99020827D01*
X177609390Y-99020814D01*
X177521789Y-98889711D01*
X177521786Y-98889707D01*
X177410292Y-98778213D01*
X177410288Y-98778210D01*
X177279185Y-98690609D01*
X177279172Y-98690602D01*
X177133501Y-98630264D01*
X177133489Y-98630261D01*
X177022286Y-98608141D01*
X176960375Y-98575756D01*
X176958796Y-98574205D01*
X171561819Y-93177228D01*
X171528334Y-93115905D01*
X171525500Y-93089547D01*
X171525500Y-90110452D01*
X171545185Y-90043413D01*
X171561819Y-90022771D01*
X174872380Y-86712210D01*
X192894500Y-86712210D01*
X192894500Y-89987789D01*
X192896081Y-90019985D01*
X192896933Y-90037329D01*
X192899313Y-90061505D01*
X192899315Y-90061520D01*
X192906591Y-90110572D01*
X192906593Y-90110584D01*
X192906594Y-90110588D01*
X192906598Y-90110606D01*
X192914622Y-90150954D01*
X192943394Y-90245800D01*
X192961909Y-90290497D01*
X192961912Y-90290504D01*
X193008620Y-90377885D01*
X193024568Y-90401753D01*
X193024571Y-90401757D01*
X193024574Y-90401761D01*
X193087435Y-90478355D01*
X193121644Y-90512564D01*
X193198238Y-90575425D01*
X193222108Y-90591375D01*
X193222110Y-90591376D01*
X193222113Y-90591378D01*
X193249326Y-90605924D01*
X193309504Y-90638091D01*
X193354204Y-90656607D01*
X193449037Y-90685375D01*
X193489401Y-90693404D01*
X193489408Y-90693405D01*
X193489406Y-90693405D01*
X193504286Y-90695612D01*
X193538464Y-90700682D01*
X193562655Y-90703065D01*
X193612211Y-90705500D01*
X193612225Y-90705500D01*
X203987776Y-90705500D01*
X203987789Y-90705500D01*
X204037349Y-90703065D01*
X204061538Y-90700682D01*
X204110593Y-90693405D01*
X204150959Y-90685376D01*
X204245800Y-90656605D01*
X204290499Y-90638089D01*
X204377891Y-90591375D01*
X204401761Y-90575425D01*
X204478355Y-90512564D01*
X204512564Y-90478355D01*
X204575425Y-90401761D01*
X204591375Y-90377891D01*
X204627064Y-90315221D01*
X204642297Y-90283384D01*
X204668713Y-90216246D01*
X204670985Y-90202222D01*
X204674730Y-90186049D01*
X204685374Y-90150968D01*
X204693403Y-90110606D01*
X204700682Y-90061534D01*
X204703065Y-90037341D01*
X204705500Y-89987789D01*
X204705500Y-86712210D01*
X204703065Y-86662652D01*
X204700682Y-86638462D01*
X204693404Y-86589403D01*
X204685375Y-86549038D01*
X204656605Y-86454199D01*
X204638089Y-86409500D01*
X204591375Y-86322108D01*
X204575425Y-86298238D01*
X204531187Y-86241291D01*
X204507602Y-86215034D01*
X204479001Y-86187435D01*
X204455715Y-86164964D01*
X204455709Y-86164959D01*
X204443608Y-86157483D01*
X204430121Y-86147849D01*
X204401761Y-86124574D01*
X204401754Y-86124569D01*
X204401753Y-86124568D01*
X204377885Y-86108620D01*
X204290504Y-86061912D01*
X204290497Y-86061909D01*
X204245800Y-86043394D01*
X204150954Y-86014622D01*
X204115866Y-86007644D01*
X204110588Y-86006594D01*
X204110584Y-86006593D01*
X204110572Y-86006591D01*
X204061520Y-85999315D01*
X204061505Y-85999313D01*
X204037329Y-85996933D01*
X204019073Y-85996036D01*
X203987789Y-85994500D01*
X193612211Y-85994500D01*
X193584404Y-85995865D01*
X193562693Y-85996931D01*
X193562683Y-85996931D01*
X193562682Y-85996932D01*
X193556908Y-85997500D01*
X193538475Y-85999315D01*
X193489413Y-86006593D01*
X193449039Y-86014624D01*
X193449024Y-86014627D01*
X193354198Y-86043394D01*
X193309501Y-86061909D01*
X193309494Y-86061912D01*
X193222113Y-86108620D01*
X193198245Y-86124568D01*
X193198230Y-86124580D01*
X193121644Y-86187434D01*
X193087434Y-86221644D01*
X193024580Y-86298230D01*
X193024571Y-86298242D01*
X193008621Y-86322111D01*
X192961911Y-86409493D01*
X192961911Y-86409494D01*
X192943398Y-86454184D01*
X192943398Y-86454185D01*
X192914622Y-86549041D01*
X192906591Y-86589419D01*
X192899314Y-86638484D01*
X192896933Y-86662667D01*
X192895959Y-86682489D01*
X192894500Y-86712210D01*
X174872380Y-86712210D01*
X174961582Y-86623008D01*
X175496216Y-86088375D01*
X179422772Y-82161819D01*
X179484095Y-82128334D01*
X179510453Y-82125500D01*
X187757650Y-82125500D01*
X187824689Y-82145185D01*
X187826541Y-82146398D01*
X187920821Y-82209394D01*
X187920823Y-82209395D01*
X187920827Y-82209397D01*
X188018853Y-82250000D01*
X188066503Y-82269737D01*
X188221153Y-82300499D01*
X188221156Y-82300500D01*
X188221158Y-82300500D01*
X188378844Y-82300500D01*
X188378845Y-82300499D01*
X188533497Y-82269737D01*
X188679179Y-82209394D01*
X188777418Y-82143753D01*
X193820000Y-82143753D01*
X193820000Y-82356246D01*
X193853242Y-82566127D01*
X193853242Y-82566130D01*
X193918904Y-82768217D01*
X194015375Y-82957550D01*
X194054728Y-83011716D01*
X194687037Y-82379408D01*
X194704075Y-82442993D01*
X194769901Y-82557007D01*
X194862993Y-82650099D01*
X194977007Y-82715925D01*
X195040590Y-82732962D01*
X194408282Y-83365269D01*
X194408282Y-83365270D01*
X194462449Y-83404624D01*
X194651782Y-83501095D01*
X194853870Y-83566757D01*
X195063754Y-83600000D01*
X195276246Y-83600000D01*
X195486127Y-83566757D01*
X195486130Y-83566757D01*
X195688217Y-83501095D01*
X195877554Y-83404622D01*
X195931716Y-83365270D01*
X195931717Y-83365270D01*
X195299408Y-82732962D01*
X195362993Y-82715925D01*
X195477007Y-82650099D01*
X195570099Y-82557007D01*
X195635925Y-82442993D01*
X195652962Y-82379408D01*
X196285270Y-83011717D01*
X196285270Y-83011716D01*
X196324622Y-82957555D01*
X196329232Y-82948507D01*
X196377205Y-82897709D01*
X196445025Y-82880912D01*
X196511161Y-82903447D01*
X196550204Y-82948504D01*
X196554949Y-82957817D01*
X196679890Y-83129786D01*
X196830213Y-83280109D01*
X197002179Y-83405048D01*
X197002181Y-83405049D01*
X197002184Y-83405051D01*
X197191588Y-83501557D01*
X197393757Y-83567246D01*
X197603713Y-83600500D01*
X197603714Y-83600500D01*
X197816286Y-83600500D01*
X197816287Y-83600500D01*
X198026243Y-83567246D01*
X198228412Y-83501557D01*
X198417816Y-83405051D01*
X198504138Y-83342335D01*
X198589786Y-83280109D01*
X198589788Y-83280106D01*
X198589792Y-83280104D01*
X198740104Y-83129792D01*
X198740106Y-83129788D01*
X198740109Y-83129786D01*
X198865048Y-82957820D01*
X198865050Y-82957817D01*
X198865051Y-82957816D01*
X198869514Y-82949054D01*
X198917488Y-82898259D01*
X198985308Y-82881463D01*
X199051444Y-82903999D01*
X199090486Y-82949056D01*
X199094951Y-82957820D01*
X199219890Y-83129786D01*
X199370213Y-83280109D01*
X199542179Y-83405048D01*
X199542181Y-83405049D01*
X199542184Y-83405051D01*
X199731588Y-83501557D01*
X199933757Y-83567246D01*
X200143713Y-83600500D01*
X200143714Y-83600500D01*
X200356286Y-83600500D01*
X200356287Y-83600500D01*
X200566243Y-83567246D01*
X200768412Y-83501557D01*
X200957816Y-83405051D01*
X201129792Y-83280104D01*
X201243329Y-83166566D01*
X201304648Y-83133084D01*
X201374340Y-83138068D01*
X201430274Y-83179939D01*
X201447189Y-83210917D01*
X201496202Y-83342328D01*
X201496206Y-83342335D01*
X201582452Y-83457544D01*
X201582455Y-83457547D01*
X201697664Y-83543793D01*
X201697671Y-83543797D01*
X201832517Y-83594091D01*
X201832516Y-83594091D01*
X201839444Y-83594835D01*
X201892127Y-83600500D01*
X203687872Y-83600499D01*
X203747483Y-83594091D01*
X203882331Y-83543796D01*
X203997546Y-83457546D01*
X204083796Y-83342331D01*
X204134091Y-83207483D01*
X204140500Y-83147873D01*
X204140499Y-81352128D01*
X204134091Y-81292517D01*
X204132810Y-81289083D01*
X204083797Y-81157671D01*
X204083793Y-81157664D01*
X203997547Y-81042455D01*
X203997544Y-81042452D01*
X203882335Y-80956206D01*
X203882328Y-80956202D01*
X203747482Y-80905908D01*
X203747483Y-80905908D01*
X203687883Y-80899501D01*
X203687881Y-80899500D01*
X203687873Y-80899500D01*
X203687864Y-80899500D01*
X201892129Y-80899500D01*
X201892123Y-80899501D01*
X201832516Y-80905908D01*
X201697671Y-80956202D01*
X201697664Y-80956206D01*
X201582455Y-81042452D01*
X201582452Y-81042455D01*
X201496206Y-81157664D01*
X201496203Y-81157669D01*
X201447189Y-81289083D01*
X201405317Y-81345016D01*
X201339853Y-81369433D01*
X201271580Y-81354581D01*
X201243326Y-81333430D01*
X201129786Y-81219890D01*
X200957820Y-81094951D01*
X200768414Y-80998444D01*
X200768413Y-80998443D01*
X200768412Y-80998443D01*
X200566243Y-80932754D01*
X200566241Y-80932753D01*
X200566240Y-80932753D01*
X200404957Y-80907208D01*
X200356287Y-80899500D01*
X200143713Y-80899500D01*
X200095042Y-80907208D01*
X199933760Y-80932753D01*
X199731585Y-80998444D01*
X199542179Y-81094951D01*
X199370213Y-81219890D01*
X199219890Y-81370213D01*
X199094949Y-81542182D01*
X199090484Y-81550946D01*
X199042509Y-81601742D01*
X198974688Y-81618536D01*
X198908553Y-81595998D01*
X198869516Y-81550946D01*
X198865050Y-81542182D01*
X198740109Y-81370213D01*
X198589786Y-81219890D01*
X198417820Y-81094951D01*
X198228414Y-80998444D01*
X198228413Y-80998443D01*
X198228412Y-80998443D01*
X198026243Y-80932754D01*
X198026241Y-80932753D01*
X198026240Y-80932753D01*
X197864957Y-80907208D01*
X197816287Y-80899500D01*
X197603713Y-80899500D01*
X197555042Y-80907208D01*
X197393760Y-80932753D01*
X197191585Y-80998444D01*
X197002179Y-81094951D01*
X196830213Y-81219890D01*
X196679890Y-81370213D01*
X196554949Y-81542182D01*
X196550202Y-81551499D01*
X196502227Y-81602293D01*
X196434405Y-81619087D01*
X196368271Y-81596548D01*
X196329234Y-81551495D01*
X196324626Y-81542452D01*
X196285270Y-81488282D01*
X196285269Y-81488282D01*
X195652962Y-82120590D01*
X195635925Y-82057007D01*
X195570099Y-81942993D01*
X195477007Y-81849901D01*
X195362993Y-81784075D01*
X195299409Y-81767037D01*
X195931716Y-81134728D01*
X195877550Y-81095375D01*
X195688217Y-80998904D01*
X195486129Y-80933242D01*
X195276246Y-80900000D01*
X195063754Y-80900000D01*
X194853872Y-80933242D01*
X194853869Y-80933242D01*
X194651782Y-80998904D01*
X194462439Y-81095380D01*
X194408282Y-81134727D01*
X194408282Y-81134728D01*
X195040591Y-81767037D01*
X194977007Y-81784075D01*
X194862993Y-81849901D01*
X194769901Y-81942993D01*
X194704075Y-82057007D01*
X194687037Y-82120591D01*
X194054728Y-81488282D01*
X194054727Y-81488282D01*
X194015380Y-81542439D01*
X193918904Y-81731782D01*
X193853242Y-81933869D01*
X193853242Y-81933872D01*
X193820000Y-82143753D01*
X188777418Y-82143753D01*
X188810289Y-82121789D01*
X188810292Y-82121786D01*
X188880879Y-82051200D01*
X188921786Y-82010292D01*
X188921789Y-82010289D01*
X189009394Y-81879179D01*
X189069737Y-81733497D01*
X189100500Y-81578842D01*
X189100500Y-81421158D01*
X189100500Y-81421155D01*
X189100499Y-81421153D01*
X189085354Y-81345016D01*
X189069737Y-81266503D01*
X189050432Y-81219896D01*
X189009397Y-81120827D01*
X189009390Y-81120814D01*
X188921789Y-80989711D01*
X188921786Y-80989707D01*
X188810292Y-80878213D01*
X188810288Y-80878210D01*
X188679185Y-80790609D01*
X188679172Y-80790602D01*
X188533501Y-80730264D01*
X188533489Y-80730261D01*
X188378845Y-80699500D01*
X188378842Y-80699500D01*
X188221158Y-80699500D01*
X188221155Y-80699500D01*
X188066510Y-80730261D01*
X188066498Y-80730264D01*
X187920827Y-80790602D01*
X187920815Y-80790609D01*
X187826541Y-80853602D01*
X187759864Y-80874480D01*
X187757650Y-80874500D01*
X179267741Y-80874500D01*
X179267721Y-80874499D01*
X179261607Y-80874499D01*
X179138394Y-80874499D01*
X179037597Y-80894548D01*
X179037592Y-80894548D01*
X179017551Y-80898535D01*
X178999749Y-80905908D01*
X178999750Y-80905909D01*
X178903717Y-80945686D01*
X178903708Y-80945691D01*
X178801267Y-81014141D01*
X178801263Y-81014144D01*
X178102414Y-81712993D01*
X178041091Y-81746478D01*
X177971399Y-81741494D01*
X177927052Y-81712993D01*
X174369092Y-78155035D01*
X174369086Y-78155030D01*
X174353175Y-78142207D01*
X174322406Y-78117410D01*
X174191492Y-78057623D01*
X174191488Y-78057622D01*
X174049033Y-78037142D01*
X173906577Y-78057622D01*
X173906573Y-78057623D01*
X173775662Y-78117409D01*
X173728967Y-78155038D01*
X170055035Y-81828973D01*
X170055026Y-81828983D01*
X170017410Y-81875659D01*
X169957623Y-82006573D01*
X169957622Y-82006577D01*
X169937142Y-82149033D01*
X160500500Y-82149033D01*
X160500500Y-62431902D01*
X210649500Y-62431902D01*
X210649500Y-62668097D01*
X210686446Y-62901368D01*
X210759433Y-63125996D01*
X210866525Y-63336174D01*
X210866657Y-63336433D01*
X211005483Y-63527510D01*
X211172490Y-63694517D01*
X211363567Y-63833343D01*
X211462991Y-63884002D01*
X211574003Y-63940566D01*
X211574005Y-63940566D01*
X211574008Y-63940568D01*
X211694412Y-63979689D01*
X211798631Y-64013553D01*
X212031903Y-64050500D01*
X212031908Y-64050500D01*
X212268097Y-64050500D01*
X212501368Y-64013553D01*
X212502870Y-64013065D01*
X212725992Y-63940568D01*
X212936433Y-63833343D01*
X213127510Y-63694517D01*
X213294517Y-63527510D01*
X213433343Y-63336433D01*
X213540568Y-63125992D01*
X213613553Y-62901368D01*
X213615717Y-62887708D01*
X213650500Y-62668097D01*
X213650500Y-62431902D01*
X213613553Y-62198631D01*
X213540566Y-61974003D01*
X213433342Y-61763566D01*
X213373277Y-61680894D01*
X213294517Y-61572490D01*
X213127510Y-61405483D01*
X212936433Y-61266657D01*
X212725996Y-61159433D01*
X212501368Y-61086446D01*
X212268097Y-61049500D01*
X212268092Y-61049500D01*
X212031908Y-61049500D01*
X212031903Y-61049500D01*
X211798631Y-61086446D01*
X211574003Y-61159433D01*
X211363566Y-61266657D01*
X211280047Y-61327338D01*
X211172490Y-61405483D01*
X211172488Y-61405485D01*
X211172487Y-61405485D01*
X211005485Y-61572487D01*
X211005485Y-61572488D01*
X211005483Y-61572490D01*
X210945862Y-61654550D01*
X210866657Y-61763566D01*
X210759433Y-61974003D01*
X210686446Y-62198631D01*
X210649500Y-62431902D01*
X160500500Y-62431902D01*
X160500500Y-31006961D01*
X160501280Y-30993077D01*
X160501741Y-30988986D01*
X160511459Y-30902731D01*
X160517635Y-30875670D01*
X160545353Y-30796456D01*
X160557396Y-30771450D01*
X160602046Y-30700389D01*
X160619351Y-30678690D01*
X160678690Y-30619351D01*
X160700389Y-30602046D01*
X160771450Y-30557396D01*
X160796456Y-30545353D01*
X160875670Y-30517635D01*
X160902733Y-30511459D01*
X160965419Y-30504396D01*
X160993079Y-30501280D01*
X161006962Y-30500500D01*
X161065892Y-30500500D01*
X218634108Y-30500500D01*
X218696948Y-30500500D01*
X218703032Y-30500649D01*
G37*
G04 #@! TD.AperFunction*
G04 #@! TA.AperFunction,Conductor*
G36*
X177310641Y-123108701D02*
G01*
X177357344Y-123160669D01*
X177369500Y-123214213D01*
X177369500Y-127230619D01*
X177363736Y-127250248D01*
X177362847Y-127270690D01*
X177350804Y-127294287D01*
X177349815Y-127297658D01*
X177346806Y-127302124D01*
X177346804Y-127302127D01*
X177341241Y-127310008D01*
X177286499Y-127353426D01*
X177239937Y-127362500D01*
X177145000Y-127362500D01*
X177145000Y-127554097D01*
X177143220Y-127562848D01*
X177144173Y-127568395D01*
X177138397Y-127586569D01*
X177135155Y-127602518D01*
X177129582Y-127615655D01*
X177126204Y-127620169D01*
X177115529Y-127648785D01*
X177114454Y-127651322D01*
X177113839Y-127652071D01*
X177109538Y-127661577D01*
X177103934Y-127672009D01*
X177101891Y-127677254D01*
X177091045Y-127708008D01*
X177089693Y-127713269D01*
X177089619Y-127713250D01*
X177084939Y-127730802D01*
X177075909Y-127755014D01*
X177075908Y-127755020D01*
X177069501Y-127814616D01*
X177069500Y-127814627D01*
X177069500Y-127838170D01*
X177067548Y-127849964D01*
X177069500Y-127865941D01*
X177069500Y-128288500D01*
X177049815Y-128355539D01*
X176997011Y-128401294D01*
X176945500Y-128412500D01*
X176844499Y-128412500D01*
X176777460Y-128392815D01*
X176731705Y-128340011D01*
X176720499Y-128288500D01*
X176720499Y-127900965D01*
X176721467Y-127896344D01*
X176720499Y-127884136D01*
X176720499Y-127814628D01*
X176714091Y-127755017D01*
X176714090Y-127755014D01*
X176703861Y-127727588D01*
X176703860Y-127727587D01*
X176702094Y-127722851D01*
X176693398Y-127692089D01*
X176683077Y-127671864D01*
X176663796Y-127620169D01*
X176660170Y-127613529D01*
X176645000Y-127554098D01*
X176645000Y-127362500D01*
X176550061Y-127362500D01*
X176543982Y-127360715D01*
X176537757Y-127361888D01*
X176510859Y-127350989D01*
X176483022Y-127342815D01*
X176477398Y-127337430D01*
X176473002Y-127335649D01*
X176448755Y-127310005D01*
X176443191Y-127302123D01*
X176420617Y-127236002D01*
X176420500Y-127230621D01*
X176420500Y-123291789D01*
X176440185Y-123224750D01*
X176492989Y-123178995D01*
X176562147Y-123169051D01*
X176568676Y-123170169D01*
X176613046Y-123178995D01*
X176721155Y-123200500D01*
X176721158Y-123200500D01*
X176878844Y-123200500D01*
X176878845Y-123200499D01*
X177033497Y-123169737D01*
X177179179Y-123109394D01*
X177179184Y-123109390D01*
X177184554Y-123106521D01*
X177185519Y-123108327D01*
X177243256Y-123090233D01*
X177310641Y-123108701D01*
G37*
G04 #@! TD.AperFunction*
G04 #@! TA.AperFunction,Conductor*
G36*
X211293392Y-95091067D02*
G01*
X211320812Y-95109389D01*
X211320827Y-95109397D01*
X211440086Y-95158795D01*
X211466503Y-95169737D01*
X211621153Y-95200499D01*
X211621156Y-95200500D01*
X211621158Y-95200500D01*
X213017060Y-95200500D01*
X213084099Y-95220185D01*
X213104741Y-95236819D01*
X214263181Y-96395259D01*
X214296666Y-96456582D01*
X214299500Y-96482940D01*
X214299500Y-97678846D01*
X214330261Y-97833489D01*
X214330264Y-97833501D01*
X214390602Y-97979172D01*
X214390609Y-97979185D01*
X214478210Y-98110288D01*
X214478213Y-98110292D01*
X214589707Y-98221786D01*
X214589711Y-98221789D01*
X214720814Y-98309390D01*
X214720827Y-98309397D01*
X214866498Y-98369735D01*
X214866503Y-98369737D01*
X215021153Y-98400499D01*
X215021156Y-98400500D01*
X215021158Y-98400500D01*
X215178844Y-98400500D01*
X215178845Y-98400499D01*
X215333497Y-98369737D01*
X215479179Y-98309394D01*
X215610289Y-98221789D01*
X215721789Y-98110289D01*
X215809394Y-97979179D01*
X215869737Y-97833497D01*
X215900500Y-97678842D01*
X215900500Y-96721158D01*
X215900500Y-96649097D01*
X215906738Y-96627851D01*
X215908318Y-96605763D01*
X215916390Y-96594979D01*
X215920185Y-96582058D01*
X215936918Y-96567558D01*
X215950190Y-96549830D01*
X215962810Y-96545122D01*
X215972989Y-96536303D01*
X215994906Y-96533151D01*
X216015654Y-96525413D01*
X216028814Y-96528275D01*
X216042147Y-96526359D01*
X216062290Y-96535558D01*
X216083927Y-96540265D01*
X216101652Y-96553533D01*
X216105703Y-96555384D01*
X216112181Y-96561416D01*
X216215139Y-96664374D01*
X216215149Y-96664385D01*
X216219479Y-96668715D01*
X216219480Y-96668716D01*
X216331284Y-96780520D01*
X216331286Y-96780521D01*
X216331290Y-96780524D01*
X216468209Y-96859573D01*
X216468216Y-96859577D01*
X216580019Y-96889534D01*
X216620942Y-96900500D01*
X216620943Y-96900500D01*
X222169945Y-96900500D01*
X222236984Y-96920185D01*
X222282739Y-96972989D01*
X222292683Y-97042147D01*
X222280430Y-97080795D01*
X222263097Y-97114812D01*
X222187678Y-97346927D01*
X222149500Y-97587973D01*
X222149500Y-97832027D01*
X222187679Y-98073076D01*
X222199771Y-98110292D01*
X222263097Y-98305187D01*
X222373896Y-98522642D01*
X222517339Y-98720076D01*
X222517343Y-98720081D01*
X222689918Y-98892656D01*
X222689923Y-98892660D01*
X222862136Y-99017779D01*
X222887361Y-99036106D01*
X223104815Y-99146904D01*
X223336924Y-99222321D01*
X223577973Y-99260500D01*
X223577974Y-99260500D01*
X223822026Y-99260500D01*
X223822027Y-99260500D01*
X224063076Y-99222321D01*
X224295185Y-99146904D01*
X224512639Y-99036106D01*
X224710083Y-98892655D01*
X224882655Y-98720083D01*
X224904074Y-98690602D01*
X224975182Y-98592731D01*
X225030511Y-98550065D01*
X225100125Y-98544086D01*
X225161920Y-98576691D01*
X225196277Y-98637530D01*
X225199500Y-98665616D01*
X225199500Y-101328772D01*
X225179815Y-101395811D01*
X225127011Y-101441566D01*
X225057853Y-101451510D01*
X224994297Y-101422485D01*
X224987819Y-101416453D01*
X224968655Y-101397289D01*
X224968651Y-101397286D01*
X224819337Y-101305187D01*
X224819335Y-101305186D01*
X224736065Y-101277593D01*
X224652797Y-101250001D01*
X224652795Y-101250000D01*
X224550015Y-101239500D01*
X224550008Y-101239500D01*
X222849992Y-101239500D01*
X222849984Y-101239500D01*
X222747204Y-101250000D01*
X222747203Y-101250001D01*
X222580664Y-101305186D01*
X222580662Y-101305187D01*
X222431348Y-101397286D01*
X222431344Y-101397289D01*
X222307289Y-101521344D01*
X222307286Y-101521348D01*
X222215187Y-101670662D01*
X222215186Y-101670664D01*
X222160001Y-101837203D01*
X222160000Y-101837204D01*
X222149500Y-101939984D01*
X222149500Y-102065500D01*
X222129815Y-102132539D01*
X222077011Y-102178294D01*
X222025500Y-102189500D01*
X213790097Y-102189500D01*
X213723058Y-102169815D01*
X213702416Y-102153181D01*
X210936819Y-99387584D01*
X210903334Y-99326261D01*
X210900500Y-99299903D01*
X210900500Y-95829765D01*
X210920185Y-95762726D01*
X210921398Y-95760874D01*
X211009390Y-95629185D01*
X211009390Y-95629184D01*
X211009394Y-95629179D01*
X211069737Y-95483497D01*
X211100500Y-95328842D01*
X211100500Y-95194168D01*
X211120185Y-95127129D01*
X211172989Y-95081374D01*
X211242147Y-95071430D01*
X211293392Y-95091067D01*
G37*
G04 #@! TD.AperFunction*
G04 #@! TA.AperFunction,Conductor*
G36*
X213909122Y-78240589D02*
G01*
X213923574Y-78238775D01*
X213942578Y-78247867D01*
X213963164Y-78252346D01*
X213983047Y-78267230D01*
X213984858Y-78268097D01*
X213985001Y-78267924D01*
X213985706Y-78268503D01*
X213986601Y-78268931D01*
X213989006Y-78271211D01*
X213989711Y-78271789D01*
X214120814Y-78359390D01*
X214120827Y-78359397D01*
X214266498Y-78419735D01*
X214266503Y-78419737D01*
X214418157Y-78449903D01*
X214421153Y-78450499D01*
X214421156Y-78450500D01*
X214421158Y-78450500D01*
X214578844Y-78450500D01*
X214578845Y-78450499D01*
X214733497Y-78419737D01*
X214879179Y-78359394D01*
X214921512Y-78331108D01*
X215010875Y-78271398D01*
X215077553Y-78250520D01*
X215079766Y-78250500D01*
X217170234Y-78250500D01*
X217237273Y-78270185D01*
X217239125Y-78271398D01*
X217370814Y-78359390D01*
X217370827Y-78359397D01*
X217516498Y-78419735D01*
X217516503Y-78419737D01*
X217668157Y-78449903D01*
X217671153Y-78450499D01*
X217671156Y-78450500D01*
X217671158Y-78450500D01*
X217828844Y-78450500D01*
X217834907Y-78449903D01*
X217835093Y-78451793D01*
X217895883Y-78457224D01*
X217951067Y-78500079D01*
X217974321Y-78565965D01*
X217974500Y-78572621D01*
X217974500Y-91557650D01*
X217954815Y-91624689D01*
X217953602Y-91626541D01*
X217890609Y-91720815D01*
X217890602Y-91720828D01*
X217830264Y-91866498D01*
X217830261Y-91866510D01*
X217799500Y-92021153D01*
X217799500Y-92178846D01*
X217830261Y-92333489D01*
X217830264Y-92333501D01*
X217890602Y-92479172D01*
X217890609Y-92479185D01*
X217978210Y-92610288D01*
X217978213Y-92610292D01*
X218089707Y-92721786D01*
X218089711Y-92721789D01*
X218220814Y-92809390D01*
X218220827Y-92809397D01*
X218361863Y-92867815D01*
X218366503Y-92869737D01*
X218521153Y-92900499D01*
X218521156Y-92900500D01*
X218521158Y-92900500D01*
X218678844Y-92900500D01*
X218678845Y-92900499D01*
X218833497Y-92869737D01*
X218979179Y-92809394D01*
X219110289Y-92721789D01*
X219221789Y-92610289D01*
X219309394Y-92479179D01*
X219329745Y-92430047D01*
X219335939Y-92415094D01*
X219379779Y-92360690D01*
X219446073Y-92338625D01*
X219513773Y-92355904D01*
X219561384Y-92407041D01*
X219574500Y-92462546D01*
X219574500Y-94161611D01*
X219598535Y-94282444D01*
X219598540Y-94282461D01*
X219645685Y-94396280D01*
X219645687Y-94396283D01*
X219645688Y-94396286D01*
X219679915Y-94447509D01*
X219714142Y-94498733D01*
X219801267Y-94585858D01*
X219801269Y-94585859D01*
X219811232Y-94595822D01*
X220374205Y-95158795D01*
X220407690Y-95220118D01*
X220408141Y-95222285D01*
X220430261Y-95333489D01*
X220430264Y-95333501D01*
X220490602Y-95479172D01*
X220490610Y-95479187D01*
X220508933Y-95506608D01*
X220529812Y-95573285D01*
X220511328Y-95640666D01*
X220459350Y-95687356D01*
X220405832Y-95699500D01*
X217000097Y-95699500D01*
X216933058Y-95679815D01*
X216912416Y-95663181D01*
X214287590Y-93038355D01*
X214287588Y-93038352D01*
X214168717Y-92919481D01*
X214168716Y-92919480D01*
X214081904Y-92869360D01*
X214081904Y-92869359D01*
X214081900Y-92869358D01*
X214031785Y-92840423D01*
X213879057Y-92799499D01*
X213720943Y-92799499D01*
X213713347Y-92799499D01*
X213713331Y-92799500D01*
X212400097Y-92799500D01*
X212333058Y-92779815D01*
X212312416Y-92763181D01*
X211036819Y-91487584D01*
X211003334Y-91426261D01*
X211000500Y-91399903D01*
X211000500Y-79824500D01*
X211020185Y-79757461D01*
X211072989Y-79711706D01*
X211124500Y-79700500D01*
X211178844Y-79700500D01*
X211178845Y-79700499D01*
X211333497Y-79669737D01*
X211479179Y-79609394D01*
X211531110Y-79574694D01*
X211597785Y-79553816D01*
X211665165Y-79572300D01*
X211668863Y-79574676D01*
X211720821Y-79609394D01*
X211720823Y-79609395D01*
X211720825Y-79609396D01*
X211866498Y-79669735D01*
X211866503Y-79669737D01*
X212000496Y-79696390D01*
X212021153Y-79700499D01*
X212021156Y-79700500D01*
X212021158Y-79700500D01*
X212178844Y-79700500D01*
X212178845Y-79700499D01*
X212333497Y-79669737D01*
X212479179Y-79609394D01*
X212531110Y-79574694D01*
X212597785Y-79553816D01*
X212665165Y-79572300D01*
X212668863Y-79574676D01*
X212720821Y-79609394D01*
X212720823Y-79609395D01*
X212720825Y-79609396D01*
X212866498Y-79669735D01*
X212866503Y-79669737D01*
X213000496Y-79696390D01*
X213021153Y-79700499D01*
X213021156Y-79700500D01*
X213021158Y-79700500D01*
X213178844Y-79700500D01*
X213178845Y-79700499D01*
X213333497Y-79669737D01*
X213479179Y-79609394D01*
X213610289Y-79521789D01*
X213721789Y-79410289D01*
X213809394Y-79279179D01*
X213869737Y-79133497D01*
X213900500Y-78978842D01*
X213900500Y-78821158D01*
X213900500Y-78821155D01*
X213900499Y-78821153D01*
X213869738Y-78666510D01*
X213869737Y-78666503D01*
X213809394Y-78520821D01*
X213774694Y-78468889D01*
X213753816Y-78402215D01*
X213772300Y-78334835D01*
X213774676Y-78331136D01*
X213800636Y-78292285D01*
X213816801Y-78278776D01*
X213829427Y-78261911D01*
X213843072Y-78256821D01*
X213854249Y-78247481D01*
X213875153Y-78244855D01*
X213894891Y-78237494D01*
X213909122Y-78240589D01*
G37*
G04 #@! TD.AperFunction*
M02*
