G04 #@! TF.GenerationSoftware,KiCad,Pcbnew,9.0.2*
G04 #@! TF.CreationDate,2025-10-16T12:19:47-05:00*
G04 #@! TF.ProjectId,pocket-caddy,706f636b-6574-42d6-9361-6464792e6b69,rev?*
G04 #@! TF.SameCoordinates,Original*
G04 #@! TF.FileFunction,Soldermask,Bot*
G04 #@! TF.FilePolarity,Negative*
%FSLAX46Y46*%
G04 Gerber Fmt 4.6, Leading zero omitted, Abs format (unit mm)*
G04 Created by KiCad (PCBNEW 9.0.2) date 2025-10-16 12:19:47*
%MOMM*%
%LPD*%
G01*
G04 APERTURE LIST*
G04 Aperture macros list*
%AMRoundRect*
0 Rectangle with rounded corners*
0 $1 Rounding radius*
0 $2 $3 $4 $5 $6 $7 $8 $9 X,Y pos of 4 corners*
0 Add a 4 corners polygon primitive as box body*
4,1,4,$2,$3,$4,$5,$6,$7,$8,$9,$2,$3,0*
0 Add four circle primitives for the rounded corners*
1,1,$1+$1,$2,$3*
1,1,$1+$1,$4,$5*
1,1,$1+$1,$6,$7*
1,1,$1+$1,$8,$9*
0 Add four rect primitives between the rounded corners*
20,1,$1+$1,$2,$3,$4,$5,0*
20,1,$1+$1,$4,$5,$6,$7,0*
20,1,$1+$1,$6,$7,$8,$9,0*
20,1,$1+$1,$8,$9,$2,$3,0*%
%AMRotRect*
0 Rectangle, with rotation*
0 The origin of the aperture is its center*
0 $1 length*
0 $2 width*
0 $3 Rotation angle, in degrees counterclockwise*
0 Add horizontal line*
21,1,$1,$2,0,0,$3*%
G04 Aperture macros list end*
%ADD10C,0.650000*%
%ADD11O,2.100000X1.000000*%
%ADD12O,1.800000X1.000000*%
%ADD13C,6.400000*%
%ADD14C,2.000000*%
%ADD15R,1.700000X1.700000*%
%ADD16O,1.700000X1.700000*%
%ADD17RoundRect,0.250001X0.799999X-0.799999X0.799999X0.799999X-0.799999X0.799999X-0.799999X-0.799999X0*%
%ADD18C,2.100000*%
%ADD19C,1.700000*%
%ADD20R,1.500000X1.500000*%
%ADD21C,1.600000*%
%ADD22R,0.850000X1.100000*%
%ADD23R,0.750000X1.100000*%
%ADD24R,1.200000X1.000000*%
%ADD25R,1.550000X1.350000*%
%ADD26R,1.900000X1.350000*%
%ADD27R,1.170000X1.800000*%
%ADD28RotRect,5.100000X5.100000X225.000000*%
%ADD29C,17.800000*%
G04 APERTURE END LIST*
D10*
X166315000Y-84110000D03*
X166315000Y-89890000D03*
D11*
X166815000Y-82680000D03*
D12*
X162635000Y-82680000D03*
D11*
X166815000Y-91320000D03*
D12*
X162635000Y-91320000D03*
D13*
X164100000Y-125900000D03*
D14*
X216650000Y-58950000D03*
X216650000Y-65450000D03*
X212150000Y-58950000D03*
X212150000Y-65450000D03*
X213850000Y-115600000D03*
X220350000Y-115600000D03*
X213850000Y-120100000D03*
X220350000Y-120100000D03*
D15*
X183300000Y-100960000D03*
D16*
X183300000Y-103500000D03*
X183300000Y-106040000D03*
X183300000Y-108580000D03*
D13*
X223900000Y-125900000D03*
D17*
X223175000Y-102790000D03*
D18*
X223175000Y-100250000D03*
X223175000Y-97710000D03*
D15*
X213660000Y-89100000D03*
D19*
X216200000Y-89100000D03*
X218740000Y-89100000D03*
D15*
X215400000Y-44800000D03*
D19*
X212860000Y-44800000D03*
X215400000Y-47340000D03*
X212860000Y-47340000D03*
X215400000Y-49880000D03*
X212860000Y-49880000D03*
X215400000Y-52420000D03*
X212860000Y-52420000D03*
D13*
X218700000Y-34100000D03*
D14*
X190350000Y-120100000D03*
X183850000Y-120100000D03*
X190350000Y-115600000D03*
X183850000Y-115600000D03*
D20*
X214512500Y-84900000D03*
D21*
X217052500Y-84900000D03*
X211972500Y-84900000D03*
D13*
X223900000Y-80000000D03*
D14*
X198850000Y-115600000D03*
X205350000Y-115600000D03*
X198850000Y-120100000D03*
X205350000Y-120100000D03*
D22*
X171395000Y-128412500D03*
X172495000Y-128412500D03*
X173595000Y-128412500D03*
X174695000Y-128412500D03*
X175795000Y-128412500D03*
X176895000Y-128412500D03*
X177995000Y-128412500D03*
D23*
X179045000Y-128412500D03*
D24*
X168760000Y-122262500D03*
X168760000Y-118562500D03*
D25*
X168935000Y-128287500D03*
D26*
X172260000Y-117587500D03*
X178230000Y-117587500D03*
D27*
X180255000Y-128062500D03*
D28*
X209986538Y-93263462D03*
X191884604Y-111365396D03*
D29*
X200935571Y-102314429D03*
M02*
