G04 #@! TF.GenerationSoftware,KiCad,Pcbnew,9.0.2*
G04 #@! TF.CreationDate,2025-10-16T12:19:47-05:00*
G04 #@! TF.ProjectId,pocket-caddy,706f636b-6574-42d6-9361-6464792e6b69,rev?*
G04 #@! TF.SameCoordinates,Original*
G04 #@! TF.FileFunction,Soldermask,Top*
G04 #@! TF.FilePolarity,Negative*
%FSLAX46Y46*%
G04 Gerber Fmt 4.6, Leading zero omitted, Abs format (unit mm)*
G04 Created by KiCad (PCBNEW 9.0.2) date 2025-10-16 12:19:47*
%MOMM*%
%LPD*%
G01*
G04 APERTURE LIST*
G04 Aperture macros list*
%AMRoundRect*
0 Rectangle with rounded corners*
0 $1 Rounding radius*
0 $2 $3 $4 $5 $6 $7 $8 $9 X,Y pos of 4 corners*
0 Add a 4 corners polygon primitive as box body*
4,1,4,$2,$3,$4,$5,$6,$7,$8,$9,$2,$3,0*
0 Add four circle primitives for the rounded corners*
1,1,$1+$1,$2,$3*
1,1,$1+$1,$4,$5*
1,1,$1+$1,$6,$7*
1,1,$1+$1,$8,$9*
0 Add four rect primitives between the rounded corners*
20,1,$1+$1,$2,$3,$4,$5,0*
20,1,$1+$1,$4,$5,$6,$7,0*
20,1,$1+$1,$6,$7,$8,$9,0*
20,1,$1+$1,$8,$9,$2,$3,0*%
%AMFreePoly0*
4,1,21,-0.300000,0.050000,-0.296194,0.069134,-0.285355,0.085355,-0.269134,0.096194,-0.250000,0.100000,0.250000,0.100000,0.269134,0.096194,0.285355,0.085355,0.296194,0.069134,0.300000,0.050000,0.300000,-0.050000,0.296194,-0.069134,0.285355,-0.085355,0.269134,-0.096194,0.250000,-0.100000,-0.250000,-0.100000,-0.269134,-0.096194,-0.285355,-0.085355,-0.296194,-0.069134,-0.300000,-0.050000,
-0.300000,0.050000,-0.300000,0.050000,$1*%
%AMFreePoly1*
4,1,6,0.500000,-0.850000,-0.500000,-0.850000,-0.500000,0.550000,-0.200000,0.850000,0.500000,0.850000,0.500000,-0.850000,0.500000,-0.850000,$1*%
G04 Aperture macros list end*
%ADD10C,0.000000*%
%ADD11RoundRect,0.237500X0.300000X0.237500X-0.300000X0.237500X-0.300000X-0.237500X0.300000X-0.237500X0*%
%ADD12RoundRect,0.200000X-0.200000X0.700000X-0.200000X-0.700000X0.200000X-0.700000X0.200000X0.700000X0*%
%ADD13RoundRect,0.237500X0.237500X-0.300000X0.237500X0.300000X-0.237500X0.300000X-0.237500X-0.300000X0*%
%ADD14C,0.650000*%
%ADD15RoundRect,0.150000X-0.425000X0.150000X-0.425000X-0.150000X0.425000X-0.150000X0.425000X0.150000X0*%
%ADD16RoundRect,0.075000X-0.500000X0.075000X-0.500000X-0.075000X0.500000X-0.075000X0.500000X0.075000X0*%
%ADD17O,2.100000X1.000000*%
%ADD18O,1.800000X1.000000*%
%ADD19C,1.500000*%
%ADD20RoundRect,0.062500X-0.062500X0.350000X-0.062500X-0.350000X0.062500X-0.350000X0.062500X0.350000X0*%
%ADD21RoundRect,0.062500X-0.350000X0.062500X-0.350000X-0.062500X0.350000X-0.062500X0.350000X0.062500X0*%
%ADD22R,2.500000X2.500000*%
%ADD23RoundRect,0.237500X0.250000X0.237500X-0.250000X0.237500X-0.250000X-0.237500X0.250000X-0.237500X0*%
%ADD24C,6.400000*%
%ADD25C,2.000000*%
%ADD26RoundRect,0.237500X-0.250000X-0.237500X0.250000X-0.237500X0.250000X0.237500X-0.250000X0.237500X0*%
%ADD27R,1.700000X1.700000*%
%ADD28O,1.700000X1.700000*%
%ADD29RoundRect,0.250001X0.624999X-0.462499X0.624999X0.462499X-0.624999X0.462499X-0.624999X-0.462499X0*%
%ADD30RoundRect,0.237500X0.237500X-0.250000X0.237500X0.250000X-0.237500X0.250000X-0.237500X-0.250000X0*%
%ADD31RoundRect,0.250000X0.325000X0.450000X-0.325000X0.450000X-0.325000X-0.450000X0.325000X-0.450000X0*%
%ADD32RoundRect,0.200000X0.200000X-0.750000X0.200000X0.750000X-0.200000X0.750000X-0.200000X-0.750000X0*%
%ADD33RoundRect,0.250000X0.450000X-0.350000X0.450000X0.350000X-0.450000X0.350000X-0.450000X-0.350000X0*%
%ADD34RoundRect,0.250000X-0.337500X-0.475000X0.337500X-0.475000X0.337500X0.475000X-0.337500X0.475000X0*%
%ADD35RoundRect,0.250001X0.799999X-0.799999X0.799999X0.799999X-0.799999X0.799999X-0.799999X-0.799999X0*%
%ADD36C,2.100000*%
%ADD37C,1.700000*%
%ADD38RoundRect,0.237500X-0.237500X0.250000X-0.237500X-0.250000X0.237500X-0.250000X0.237500X0.250000X0*%
%ADD39RoundRect,0.175000X-0.325000X0.175000X-0.325000X-0.175000X0.325000X-0.175000X0.325000X0.175000X0*%
%ADD40RoundRect,0.150000X-0.150000X0.200000X-0.150000X-0.200000X0.150000X-0.200000X0.150000X0.200000X0*%
%ADD41RoundRect,0.250000X-0.450000X0.350000X-0.450000X-0.350000X0.450000X-0.350000X0.450000X0.350000X0*%
%ADD42R,2.000000X2.500000*%
%ADD43R,7.200000X7.200000*%
%ADD44R,3.000000X1.000000*%
%ADD45RoundRect,0.250000X-0.475000X0.337500X-0.475000X-0.337500X0.475000X-0.337500X0.475000X0.337500X0*%
%ADD46RoundRect,0.237500X-0.237500X0.300000X-0.237500X-0.300000X0.237500X-0.300000X0.237500X0.300000X0*%
%ADD47RoundRect,0.200000X0.750000X0.200000X-0.750000X0.200000X-0.750000X-0.200000X0.750000X-0.200000X0*%
%ADD48RoundRect,0.250000X-0.325000X-0.450000X0.325000X-0.450000X0.325000X0.450000X-0.325000X0.450000X0*%
%ADD49FreePoly0,270.000000*%
%ADD50RoundRect,0.050000X0.212500X0.050000X-0.212500X0.050000X-0.212500X-0.050000X0.212500X-0.050000X0*%
%ADD51R,1.950000X2.450000*%
%ADD52RoundRect,0.237500X0.237500X-0.287500X0.237500X0.287500X-0.237500X0.287500X-0.237500X-0.287500X0*%
%ADD53RoundRect,0.062500X-0.350000X-0.062500X0.350000X-0.062500X0.350000X0.062500X-0.350000X0.062500X0*%
%ADD54R,1.200000X2.000000*%
%ADD55R,0.750000X0.250000*%
%ADD56FreePoly1,0.000000*%
%ADD57RoundRect,0.250000X-0.625000X0.400000X-0.625000X-0.400000X0.625000X-0.400000X0.625000X0.400000X0*%
%ADD58R,0.900000X1.500000*%
%ADD59C,0.600000*%
%ADD60R,2.900000X2.900000*%
%ADD61RoundRect,0.237500X-0.300000X-0.237500X0.300000X-0.237500X0.300000X0.237500X-0.300000X0.237500X0*%
%ADD62R,1.500000X1.500000*%
%ADD63C,1.600000*%
%ADD64RoundRect,0.250000X0.475000X-0.337500X0.475000X0.337500X-0.475000X0.337500X-0.475000X-0.337500X0*%
%ADD65R,1.800000X1.000000*%
G04 APERTURE END LIST*
G36*
X183900000Y-66200000D02*
G01*
X186100000Y-66200000D01*
X186100000Y-68900000D01*
X183900000Y-68900000D01*
X183900000Y-66200000D01*
G37*
D10*
G36*
X224506540Y-116547683D02*
G01*
X224629967Y-116555247D01*
X224746346Y-116568186D01*
X224857531Y-116586767D01*
X224965381Y-116611257D01*
X225071755Y-116641925D01*
X225091703Y-116648389D01*
X225180128Y-116680405D01*
X225272186Y-116718980D01*
X225363602Y-116762141D01*
X225450103Y-116807915D01*
X225498571Y-116836242D01*
X225524323Y-116851851D01*
X225550842Y-116867793D01*
X225573369Y-116881211D01*
X225578252Y-116884089D01*
X225595553Y-116894564D01*
X225608418Y-116902923D01*
X225613665Y-116906991D01*
X225619868Y-116911895D01*
X225633152Y-116920926D01*
X225649079Y-116931143D01*
X225666869Y-116942726D01*
X225680881Y-116952653D01*
X225687444Y-116958163D01*
X225695474Y-116965091D01*
X225709658Y-116975587D01*
X225720067Y-116982763D01*
X225748790Y-117003779D01*
X225783782Y-117032245D01*
X225823536Y-117066735D01*
X225866545Y-117105813D01*
X225911303Y-117148055D01*
X225956303Y-117192025D01*
X226000037Y-117236295D01*
X226041002Y-117279434D01*
X226077689Y-117320012D01*
X226089111Y-117333193D01*
X226108623Y-117355849D01*
X226125551Y-117375223D01*
X226138345Y-117389562D01*
X226145453Y-117397109D01*
X226146177Y-117397741D01*
X226153514Y-117405470D01*
X226166129Y-117421437D01*
X226182861Y-117443983D01*
X226202550Y-117471450D01*
X226224035Y-117502182D01*
X226246158Y-117534521D01*
X226267754Y-117566807D01*
X226287668Y-117597386D01*
X226302925Y-117621643D01*
X226381455Y-117759257D01*
X226448474Y-117898279D01*
X226504256Y-118039470D01*
X226549075Y-118183589D01*
X226583204Y-118331399D01*
X226603135Y-118453855D01*
X226607051Y-118490528D01*
X226610142Y-118534413D01*
X226612394Y-118583240D01*
X226613791Y-118634737D01*
X226614315Y-118686630D01*
X226613952Y-118736648D01*
X226612683Y-118782521D01*
X226610495Y-118821974D01*
X226607370Y-118852736D01*
X226606038Y-118861107D01*
X226590456Y-118914623D01*
X226564400Y-118963825D01*
X226528681Y-119007876D01*
X226484109Y-119045933D01*
X226431493Y-119077150D01*
X226377413Y-119098872D01*
X226340803Y-119109859D01*
X226306829Y-119117977D01*
X226272581Y-119123601D01*
X226235153Y-119127103D01*
X226191636Y-119128864D01*
X226141913Y-119129261D01*
X226062121Y-119126940D01*
X225982508Y-119120068D01*
X225900648Y-119108281D01*
X225814121Y-119091216D01*
X225720500Y-119068505D01*
X225696296Y-119062062D01*
X225672437Y-119055240D01*
X225641120Y-119045742D01*
X225604371Y-119034234D01*
X225564223Y-119021382D01*
X225522702Y-119007856D01*
X225481837Y-118994323D01*
X225443659Y-118981451D01*
X225410196Y-118969906D01*
X225383478Y-118960359D01*
X225365534Y-118953474D01*
X225362821Y-118952321D01*
X225349332Y-118946567D01*
X225328585Y-118937921D01*
X225304268Y-118927918D01*
X225294745Y-118924032D01*
X225207389Y-118886846D01*
X225112842Y-118843602D01*
X225013293Y-118795406D01*
X224910932Y-118743366D01*
X224807951Y-118688587D01*
X224706539Y-118632177D01*
X224633898Y-118590099D01*
X224605123Y-118573057D01*
X224579752Y-118557901D01*
X224559603Y-118545731D01*
X224546492Y-118537639D01*
X224542417Y-118534943D01*
X224534462Y-118529419D01*
X224520035Y-118519995D01*
X224507002Y-118511706D01*
X224485702Y-118498230D01*
X224460676Y-118482295D01*
X224442079Y-118470386D01*
X224423121Y-118458215D01*
X224407261Y-118448043D01*
X224397889Y-118442046D01*
X224397812Y-118441997D01*
X224388290Y-118435873D01*
X224370783Y-118424551D01*
X224347199Y-118409276D01*
X224319451Y-118391285D01*
X224289446Y-118371816D01*
X224259097Y-118352108D01*
X224230313Y-118333403D01*
X224205991Y-118317577D01*
X224183559Y-118302869D01*
X224164549Y-118290210D01*
X224151316Y-118281181D01*
X224146597Y-118277737D01*
X224136815Y-118271106D01*
X224125937Y-118264898D01*
X224114277Y-118258074D01*
X224108603Y-118253724D01*
X224096633Y-118243212D01*
X224075962Y-118229215D01*
X224048751Y-118212864D01*
X224017157Y-118195296D01*
X223983344Y-118177643D01*
X223949470Y-118161039D01*
X223917698Y-118146620D01*
X223890188Y-118135518D01*
X223872140Y-118129633D01*
X223841483Y-118126095D01*
X223804634Y-118129255D01*
X223764598Y-118138416D01*
X223724390Y-118152884D01*
X223687015Y-118171964D01*
X223685845Y-118172675D01*
X223652440Y-118199259D01*
X223621582Y-118235780D01*
X223594309Y-118280469D01*
X223571655Y-118331553D01*
X223554653Y-118387266D01*
X223551143Y-118402991D01*
X223545794Y-118439183D01*
X223542340Y-118484943D01*
X223540703Y-118538203D01*
X223540804Y-118596894D01*
X223542563Y-118658941D01*
X223545902Y-118722282D01*
X223550739Y-118784840D01*
X223556997Y-118844553D01*
X223564594Y-118899345D01*
X223571659Y-118938603D01*
X223581231Y-118979184D01*
X223594611Y-119027100D01*
X223610683Y-119078964D01*
X223628323Y-119131387D01*
X223646413Y-119180986D01*
X223663827Y-119224371D01*
X223673111Y-119245207D01*
X223688050Y-119275695D01*
X223707188Y-119312679D01*
X223728922Y-119353253D01*
X223751662Y-119394517D01*
X223773806Y-119433568D01*
X223793757Y-119467498D01*
X223808327Y-119490965D01*
X223822937Y-119513865D01*
X223839172Y-119539782D01*
X223848737Y-119555299D01*
X223860220Y-119573527D01*
X223870023Y-119588081D01*
X223875622Y-119595341D01*
X223881841Y-119603146D01*
X223892462Y-119617877D01*
X223905387Y-119636608D01*
X223907810Y-119640197D01*
X223920446Y-119658713D01*
X223930659Y-119673169D01*
X223936604Y-119680956D01*
X223937149Y-119681513D01*
X223942441Y-119687500D01*
X223952363Y-119699844D01*
X223961043Y-119711023D01*
X224001303Y-119760947D01*
X224049501Y-119816279D01*
X224104067Y-119875434D01*
X224163433Y-119936821D01*
X224226025Y-119998854D01*
X224290277Y-120059945D01*
X224354619Y-120118505D01*
X224417480Y-120172949D01*
X224418470Y-120173781D01*
X224470445Y-120216274D01*
X224527021Y-120260376D01*
X224586142Y-120304623D01*
X224645751Y-120347545D01*
X224703799Y-120387684D01*
X224758229Y-120423571D01*
X224806987Y-120453743D01*
X224828671Y-120466270D01*
X224850987Y-120478801D01*
X224871021Y-120490096D01*
X224885249Y-120498162D01*
X224887693Y-120499563D01*
X224908254Y-120510429D01*
X224936940Y-120524309D01*
X224970879Y-120539927D01*
X225007203Y-120556007D01*
X225043039Y-120571276D01*
X225075513Y-120584454D01*
X225097221Y-120592663D01*
X225170085Y-120616939D01*
X225238837Y-120635482D01*
X225306733Y-120648840D01*
X225377033Y-120657563D01*
X225452991Y-120662200D01*
X225516279Y-120663329D01*
X225562599Y-120663198D01*
X225599445Y-120662401D01*
X225629133Y-120660801D01*
X225653985Y-120658248D01*
X225676315Y-120654605D01*
X225684252Y-120652984D01*
X225775017Y-120628425D01*
X225857618Y-120595373D01*
X225869772Y-120589449D01*
X225894293Y-120578105D01*
X225911959Y-120571870D01*
X225921283Y-120571253D01*
X225921847Y-120571651D01*
X225924045Y-120581379D01*
X225921203Y-120599232D01*
X225913886Y-120622953D01*
X225902670Y-120650284D01*
X225901100Y-120653675D01*
X225893597Y-120668605D01*
X225881529Y-120691386D01*
X225866216Y-120719635D01*
X225848978Y-120750970D01*
X225831131Y-120783005D01*
X225813993Y-120813358D01*
X225798882Y-120839644D01*
X225789195Y-120856053D01*
X225780339Y-120870255D01*
X225767510Y-120890175D01*
X225752047Y-120913811D01*
X225735288Y-120939156D01*
X225718567Y-120964205D01*
X225703224Y-120986952D01*
X225690597Y-121005393D01*
X225682019Y-121017520D01*
X225678993Y-121021314D01*
X225673866Y-121027294D01*
X225664046Y-121040106D01*
X225651845Y-121056729D01*
X225633827Y-121080821D01*
X225615009Y-121103862D01*
X225593213Y-121128341D01*
X225566255Y-121156745D01*
X225545791Y-121177618D01*
X225506013Y-121215376D01*
X225469554Y-121244223D01*
X225434063Y-121265602D01*
X225397195Y-121280961D01*
X225362821Y-121290407D01*
X225333143Y-121294871D01*
X225296480Y-121297230D01*
X225257478Y-121297420D01*
X225220779Y-121295379D01*
X225199512Y-121292680D01*
X225148639Y-121281456D01*
X225090638Y-121264054D01*
X225027864Y-121241329D01*
X224962674Y-121214134D01*
X224897419Y-121183321D01*
X224896547Y-121182883D01*
X224865158Y-121167040D01*
X224838169Y-121153129D01*
X224813886Y-121140144D01*
X224790617Y-121127074D01*
X224766669Y-121112905D01*
X224740356Y-121096631D01*
X224709979Y-121077237D01*
X224673851Y-121053713D01*
X224630277Y-121025050D01*
X224610289Y-121011857D01*
X224579914Y-120991693D01*
X224552660Y-120973417D01*
X224530169Y-120958140D01*
X224514079Y-120946978D01*
X224506028Y-120941041D01*
X224505683Y-120940738D01*
X224496309Y-120933519D01*
X224481574Y-120923671D01*
X224476172Y-120920302D01*
X224460706Y-120910267D01*
X224448955Y-120901651D01*
X224446661Y-120899643D01*
X224437268Y-120892294D01*
X224422505Y-120882402D01*
X224417151Y-120879076D01*
X224402918Y-120870058D01*
X224393475Y-120863394D01*
X224391909Y-120861978D01*
X224386097Y-120857319D01*
X224372749Y-120847551D01*
X224354051Y-120834258D01*
X224338790Y-120823591D01*
X224317637Y-120808793D01*
X224300282Y-120796449D01*
X224288909Y-120788124D01*
X224285669Y-120785514D01*
X224279891Y-120780646D01*
X224267140Y-120770568D01*
X224249854Y-120757203D01*
X224244353Y-120752993D01*
X224226209Y-120739021D01*
X224211895Y-120727767D01*
X224203849Y-120721155D01*
X224203039Y-120720382D01*
X224197252Y-120715643D01*
X224184200Y-120705713D01*
X224166177Y-120692325D01*
X224155832Y-120684739D01*
X224128145Y-120664323D01*
X224107047Y-120648196D01*
X224089431Y-120633911D01*
X224072195Y-120619018D01*
X224069938Y-120617013D01*
X224059225Y-120607851D01*
X224042421Y-120593879D01*
X224022639Y-120577684D01*
X224016554Y-120572747D01*
X223996537Y-120556336D01*
X223978635Y-120541283D01*
X223965937Y-120530199D01*
X223963591Y-120528024D01*
X223949601Y-120515500D01*
X223933916Y-120502524D01*
X223933822Y-120502451D01*
X223919527Y-120490752D01*
X223899683Y-120473950D01*
X223877518Y-120454836D01*
X223856254Y-120436198D01*
X223839123Y-120420828D01*
X223834273Y-120416339D01*
X223823217Y-120406419D01*
X223806808Y-120392232D01*
X223790458Y-120378408D01*
X223771717Y-120362436D01*
X223754288Y-120347067D01*
X223743494Y-120337092D01*
X223732109Y-120326490D01*
X223714738Y-120310783D01*
X223694315Y-120292614D01*
X223683998Y-120283539D01*
X223662652Y-120264708D01*
X223642431Y-120246645D01*
X223626490Y-120232177D01*
X223621421Y-120227467D01*
X223608862Y-120215836D01*
X223590452Y-120199039D01*
X223569149Y-120179772D01*
X223556546Y-120168445D01*
X223525061Y-120139500D01*
X223488830Y-120104976D01*
X223449314Y-120066375D01*
X223407975Y-120025187D01*
X223366279Y-119982916D01*
X223325686Y-119941056D01*
X223287662Y-119901106D01*
X223253667Y-119864561D01*
X223225165Y-119832918D01*
X223203620Y-119807679D01*
X223201492Y-119805053D01*
X223188229Y-119789183D01*
X223175774Y-119775250D01*
X223173103Y-119772468D01*
X223163077Y-119761289D01*
X223147496Y-119742378D01*
X223125986Y-119715263D01*
X223098170Y-119679473D01*
X223071567Y-119644853D01*
X223055649Y-119623459D01*
X223035871Y-119595988D01*
X223014904Y-119566193D01*
X222997789Y-119541315D01*
X222981457Y-119517363D01*
X222967496Y-119497080D01*
X222957245Y-119482399D01*
X222952047Y-119475255D01*
X222951771Y-119474935D01*
X222947387Y-119468935D01*
X222938301Y-119455543D01*
X222926213Y-119437283D01*
X222921889Y-119430669D01*
X222864020Y-119334981D01*
X222815367Y-119239911D01*
X222804237Y-119215237D01*
X222792356Y-119188181D01*
X222781766Y-119164215D01*
X222773601Y-119145883D01*
X222768987Y-119135735D01*
X222768903Y-119135559D01*
X222762310Y-119119923D01*
X222753015Y-119095512D01*
X222741884Y-119064807D01*
X222729781Y-119030287D01*
X222717571Y-118994431D01*
X222706121Y-118959717D01*
X222696295Y-118928623D01*
X222693719Y-118920131D01*
X222675134Y-118854612D01*
X222655977Y-118780785D01*
X222637091Y-118702065D01*
X222619319Y-118621861D01*
X222614419Y-118598459D01*
X222600601Y-118511000D01*
X222593353Y-118416549D01*
X222592568Y-118317845D01*
X222598139Y-118217624D01*
X222609955Y-118118630D01*
X222627908Y-118023601D01*
X222639070Y-117978727D01*
X222647283Y-117949790D01*
X222656877Y-117918122D01*
X222666841Y-117886860D01*
X222676159Y-117859143D01*
X222683821Y-117838115D01*
X222686677Y-117831171D01*
X222690773Y-117821225D01*
X222698062Y-117802873D01*
X222707511Y-117778736D01*
X222718064Y-117751493D01*
X222732194Y-117716247D01*
X222748942Y-117676601D01*
X222765763Y-117638502D01*
X222774911Y-117618692D01*
X222786586Y-117594819D01*
X222801022Y-117566571D01*
X222817192Y-117535817D01*
X222834073Y-117504420D01*
X222850636Y-117474252D01*
X222865861Y-117447177D01*
X222878720Y-117425065D01*
X222888188Y-117409782D01*
X222893146Y-117403261D01*
X222897929Y-117397259D01*
X222907328Y-117383718D01*
X222919664Y-117365090D01*
X222925505Y-117356043D01*
X222939604Y-117334539D01*
X222952529Y-117315686D01*
X222962115Y-117302616D01*
X222964292Y-117299973D01*
X222973606Y-117289209D01*
X222987245Y-117273215D01*
X222999554Y-117258656D01*
X223014545Y-117241790D01*
X223028429Y-117227742D01*
X223036779Y-117220635D01*
X223047319Y-117212929D01*
X223052107Y-117208821D01*
X223069611Y-117197646D01*
X223096622Y-117192051D01*
X223126801Y-117191888D01*
X223163602Y-117196807D01*
X223206531Y-117207528D01*
X223256270Y-117224301D01*
X223313494Y-117247377D01*
X223378886Y-117277009D01*
X223447556Y-117310635D01*
X223497411Y-117335648D01*
X223537810Y-117355609D01*
X223569747Y-117370959D01*
X223594216Y-117382134D01*
X223612214Y-117389573D01*
X223624733Y-117393713D01*
X223632770Y-117394992D01*
X223637071Y-117394009D01*
X223639574Y-117389321D01*
X223636505Y-117380819D01*
X223627132Y-117367497D01*
X223610727Y-117348353D01*
X223586561Y-117322376D01*
X223580615Y-117316152D01*
X223543601Y-117277501D01*
X223513225Y-117245715D01*
X223487931Y-117219156D01*
X223466171Y-117196182D01*
X223446393Y-117175155D01*
X223427044Y-117154436D01*
X223406571Y-117132389D01*
X223403290Y-117128845D01*
X223382306Y-117106236D01*
X223363202Y-117085741D01*
X223347938Y-117069465D01*
X223338481Y-117059507D01*
X223337824Y-117058827D01*
X223328644Y-117048825D01*
X223314289Y-117032521D01*
X223297165Y-117012663D01*
X223288021Y-117001910D01*
X223269680Y-116980481D01*
X223252142Y-116960406D01*
X223238147Y-116944807D01*
X223233598Y-116939937D01*
X223223161Y-116927588D01*
X223209476Y-116909413D01*
X223194121Y-116887761D01*
X223178668Y-116864978D01*
X223164692Y-116843411D01*
X223153768Y-116825408D01*
X223147468Y-116813317D01*
X223146543Y-116810130D01*
X223151720Y-116804940D01*
X223165169Y-116798280D01*
X223180480Y-116792750D01*
X223199858Y-116786227D01*
X223226463Y-116776670D01*
X223256565Y-116765444D01*
X223282294Y-116755537D01*
X223351431Y-116729777D01*
X223428808Y-116703215D01*
X223511005Y-116676900D01*
X223594604Y-116651886D01*
X223676187Y-116629221D01*
X223752333Y-116609958D01*
X223767211Y-116606466D01*
X223885598Y-116582983D01*
X224013049Y-116565023D01*
X224148124Y-116552732D01*
X224289381Y-116546259D01*
X224374203Y-116545227D01*
X224506540Y-116547683D01*
G37*
D11*
X169662500Y-93637500D03*
X167937500Y-93637500D03*
D12*
X197900000Y-85200000D03*
X196800000Y-85200000D03*
X195700000Y-85200000D03*
X194600000Y-85200000D03*
X193500000Y-85200000D03*
X192400000Y-85200000D03*
X191300000Y-85200000D03*
X188300000Y-85200000D03*
X187200000Y-85200000D03*
X186100000Y-85200000D03*
X185000000Y-85200000D03*
X183900000Y-85200000D03*
X183900000Y-97200000D03*
X185000000Y-97200000D03*
X186100000Y-97200000D03*
X187200000Y-97200000D03*
X188300000Y-97200000D03*
X191300000Y-97200000D03*
X192400000Y-97200000D03*
X193500000Y-97200000D03*
X194600000Y-97200000D03*
X195700000Y-97200000D03*
X196800000Y-97200000D03*
X197900000Y-97200000D03*
D13*
X167900000Y-121087500D03*
X167900000Y-119362500D03*
D14*
X166315000Y-84110000D03*
X166315000Y-89890000D03*
D15*
X167390000Y-83800000D03*
X167390000Y-84600000D03*
D16*
X167390000Y-85750000D03*
X167390000Y-86750000D03*
X167390000Y-87250000D03*
X167390000Y-88250000D03*
D15*
X167390000Y-89400000D03*
X167390000Y-90200000D03*
X167390000Y-90200000D03*
X167390000Y-89400000D03*
D16*
X167390000Y-88750000D03*
X167390000Y-87750000D03*
X167390000Y-86250000D03*
X167390000Y-85250000D03*
D15*
X167390000Y-84600000D03*
X167390000Y-83800000D03*
D17*
X166815000Y-82680000D03*
D18*
X162635000Y-82680000D03*
D17*
X166815000Y-91320000D03*
D18*
X162635000Y-91320000D03*
D19*
X186500000Y-101000000D03*
D20*
X215015000Y-95350000D03*
X214515000Y-95350000D03*
X214015000Y-95350000D03*
X213515000Y-95350000D03*
X213015000Y-95350000D03*
D21*
X212077500Y-96287500D03*
X212077500Y-96787500D03*
X212077500Y-97287500D03*
X212077500Y-97787500D03*
X212077500Y-98287500D03*
D20*
X213015000Y-99225000D03*
X213515000Y-99225000D03*
X214015000Y-99225000D03*
X214515000Y-99225000D03*
X215015000Y-99225000D03*
D21*
X215952500Y-98287500D03*
X215952500Y-97787500D03*
X215952500Y-97287500D03*
X215952500Y-96787500D03*
X215952500Y-96287500D03*
D22*
X214015000Y-97287500D03*
D19*
X169300000Y-126800000D03*
D23*
X199812500Y-82600000D03*
X197987500Y-82600000D03*
D13*
X171700000Y-121087500D03*
X171700000Y-119362500D03*
D23*
X209872500Y-97350000D03*
X208047500Y-97350000D03*
D24*
X164100000Y-125900000D03*
D25*
X216650000Y-58950000D03*
X216650000Y-65450000D03*
X212150000Y-58950000D03*
X212150000Y-65450000D03*
D23*
X209872500Y-101350000D03*
X208047500Y-101350000D03*
D26*
X193287500Y-103200000D03*
X195112500Y-103200000D03*
D11*
X183262500Y-82650000D03*
X181537500Y-82650000D03*
D25*
X213850000Y-115600000D03*
X220350000Y-115600000D03*
X213850000Y-120100000D03*
X220350000Y-120100000D03*
D27*
X183300000Y-100960000D03*
D28*
X183300000Y-103500000D03*
X183300000Y-106040000D03*
X183300000Y-108580000D03*
D29*
X221900000Y-87687500D03*
X221900000Y-84712500D03*
D30*
X176800000Y-121137500D03*
X176800000Y-119312500D03*
D31*
X199325000Y-103425000D03*
X197275000Y-103425000D03*
D30*
X175100000Y-121137500D03*
X175100000Y-119312500D03*
D32*
X200450000Y-97900000D03*
X202350000Y-97900000D03*
X201400000Y-94900000D03*
D33*
X220765500Y-108040000D03*
X220765500Y-106040000D03*
D23*
X209872500Y-93350000D03*
X208047500Y-93350000D03*
D34*
X214687500Y-81550000D03*
X216762500Y-81550000D03*
D24*
X223900000Y-125900000D03*
D35*
X223175000Y-102790000D03*
D36*
X223175000Y-100250000D03*
X223175000Y-97710000D03*
D27*
X213660000Y-89100000D03*
D37*
X216200000Y-89100000D03*
X218740000Y-89100000D03*
D19*
X186500000Y-103500000D03*
D33*
X222965500Y-108040000D03*
X222965500Y-106040000D03*
D38*
X179900000Y-93687500D03*
X179900000Y-95512500D03*
D39*
X172737500Y-86000000D03*
D40*
X171037500Y-86000000D03*
X171037500Y-88000000D03*
X172937500Y-88000000D03*
D19*
X179500000Y-125300000D03*
D30*
X211946250Y-103562500D03*
X211946250Y-101737500D03*
D41*
X225165500Y-106040000D03*
X225165500Y-108040000D03*
D11*
X218052500Y-103665000D03*
X216327500Y-103665000D03*
D42*
X185000000Y-67550000D03*
D43*
X176000000Y-46000000D03*
X176000000Y-55000000D03*
X176000000Y-64000000D03*
X185000000Y-46000000D03*
X185000000Y-55000000D03*
X194000000Y-46000000D03*
X194000000Y-55000000D03*
X194000000Y-64000000D03*
D23*
X177000000Y-87850000D03*
X175175000Y-87850000D03*
D44*
X212500000Y-77550000D03*
X212500000Y-79550000D03*
D45*
X218047500Y-95250000D03*
X218047500Y-97325000D03*
D46*
X219800000Y-74037500D03*
X219800000Y-75762500D03*
D23*
X172950000Y-89500000D03*
X171125000Y-89500000D03*
X177000000Y-86150000D03*
X175175000Y-86150000D03*
D19*
X225165000Y-113265000D03*
D31*
X209785000Y-103350000D03*
X207735000Y-103350000D03*
D11*
X183262500Y-80900000D03*
X181537500Y-80900000D03*
D31*
X209740000Y-99350000D03*
X207690000Y-99350000D03*
D19*
X200900000Y-92200000D03*
D23*
X206212500Y-108600000D03*
X204387500Y-108600000D03*
D47*
X196600000Y-101450000D03*
X196600000Y-99550000D03*
X193600000Y-100500000D03*
D27*
X215400000Y-44800000D03*
D37*
X212860000Y-44800000D03*
X215400000Y-47340000D03*
X212860000Y-47340000D03*
X215400000Y-49880000D03*
X212860000Y-49880000D03*
X215400000Y-52420000D03*
X212860000Y-52420000D03*
D34*
X220402500Y-94240000D03*
X222477500Y-94240000D03*
D48*
X214687500Y-68600000D03*
X216737500Y-68600000D03*
D49*
X218190000Y-105765000D03*
X217790000Y-105765000D03*
X217390000Y-105765000D03*
X216990000Y-105765000D03*
X216590000Y-105765000D03*
X216190000Y-105765000D03*
X216190000Y-109565000D03*
X216590000Y-109565000D03*
X216990000Y-109565000D03*
X217390000Y-109565000D03*
X217790000Y-109565000D03*
X218190000Y-109565000D03*
D50*
X218377500Y-106540000D03*
X216002500Y-106540000D03*
D51*
X217190000Y-107665000D03*
D50*
X218377500Y-108790000D03*
X216002500Y-108790000D03*
D52*
X185000000Y-82650000D03*
X185000000Y-80900000D03*
D34*
X214687500Y-72950000D03*
X216762500Y-72950000D03*
D24*
X218700000Y-34100000D03*
D45*
X218040000Y-99577500D03*
X218040000Y-101652500D03*
D46*
X208100000Y-116987500D03*
X208100000Y-118712500D03*
D11*
X169662500Y-95537500D03*
X167937500Y-95537500D03*
D19*
X179500000Y-127900000D03*
D31*
X209740000Y-95350000D03*
X207690000Y-95350000D03*
D46*
X193100000Y-116987500D03*
X193100000Y-118712500D03*
D53*
X215537500Y-77550000D03*
X215537500Y-78050000D03*
X215537500Y-78550000D03*
X215537500Y-79050000D03*
X215537500Y-79550000D03*
X217962500Y-79550000D03*
X217962500Y-79050000D03*
X217962500Y-78550000D03*
X217962500Y-78050000D03*
X217962500Y-77550000D03*
D54*
X216750000Y-78550000D03*
D26*
X214812500Y-70725000D03*
X216637500Y-70725000D03*
D23*
X172950000Y-84450000D03*
X171125000Y-84450000D03*
D11*
X206162500Y-110500000D03*
X204437500Y-110500000D03*
D55*
X199850000Y-109000000D03*
X199850000Y-109500000D03*
X199850000Y-110000000D03*
X199850000Y-110500000D03*
X202400000Y-110500000D03*
X202400000Y-110000000D03*
X202400000Y-109500000D03*
X202400000Y-109000000D03*
D56*
X201125000Y-109750000D03*
D57*
X214100000Y-107000000D03*
X214100000Y-110100000D03*
D13*
X211100000Y-118712500D03*
X211100000Y-116987500D03*
D58*
X167900000Y-115637500D03*
X169400000Y-115637500D03*
X170900000Y-115637500D03*
X172400000Y-115637500D03*
X173900000Y-115637500D03*
X175400000Y-115637500D03*
X176900000Y-115637500D03*
X178400000Y-115637500D03*
X179900000Y-115637500D03*
X179900000Y-98137500D03*
X178400000Y-98137500D03*
X176900000Y-98137500D03*
X175400000Y-98137500D03*
X173900000Y-98137500D03*
X172400000Y-98137500D03*
X170900000Y-98137500D03*
X169400000Y-98137500D03*
X167900000Y-98137500D03*
D59*
X173550000Y-107027500D03*
X174650000Y-107027500D03*
X173000000Y-106477500D03*
X174100000Y-106477500D03*
X175200000Y-106477500D03*
X173550000Y-105927500D03*
D60*
X174100000Y-105927500D03*
D59*
X174650000Y-105927500D03*
X173000000Y-105377500D03*
X174100000Y-105377500D03*
X175200000Y-105377500D03*
X173550000Y-104827500D03*
X174650000Y-104827500D03*
D61*
X174737500Y-126400000D03*
X176462500Y-126400000D03*
D23*
X199812500Y-80900000D03*
X197987500Y-80900000D03*
D25*
X190350000Y-120100000D03*
X183850000Y-120100000D03*
X190350000Y-115600000D03*
X183850000Y-115600000D03*
D62*
X214512500Y-84900000D03*
D63*
X217052500Y-84900000D03*
X211972500Y-84900000D03*
D24*
X223900000Y-80000000D03*
D19*
X176300000Y-83000000D03*
D64*
X169800000Y-121487500D03*
X169800000Y-119412500D03*
D34*
X214687500Y-75550000D03*
X216762500Y-75550000D03*
D30*
X173400000Y-121137500D03*
X173400000Y-119312500D03*
X213646250Y-103562500D03*
X213646250Y-101737500D03*
D19*
X179500000Y-122700000D03*
D25*
X198850000Y-115600000D03*
X205350000Y-115600000D03*
X198850000Y-120100000D03*
X205350000Y-120100000D03*
D11*
X213162500Y-56400000D03*
X211437500Y-56400000D03*
D65*
X172000000Y-93337500D03*
X172000000Y-95837500D03*
M02*
