M48
; DRILL file {KiCad 9.0.2} date 2025-11-19T20:23:39-0600
; FORMAT={-:-/ absolute / metric / decimal}
; #@! TF.CreationDate,2025-11-19T20:23:39-06:00
; #@! TF.GenerationSoftware,Kicad,Pcbnew,9.0.2
; #@! TF.FileFunction,Plated,1,4,PTH
FMAT,2
METRIC
; #@! TA.AperFunction,Plated,PTH,ComponentDrill
T1C0.200
; #@! TA.AperFunction,Plated,PTH,ViaDrill
T2C0.300
; #@! TA.AperFunction,Plated,PTH,ComponentDrill
T3C0.600
; #@! TA.AperFunction,Plated,PTH,ComponentDrill
T4C0.800
; #@! TA.AperFunction,Plated,PTH,ComponentDrill
T5C1.000
; #@! TA.AperFunction,Plated,PTH,ComponentDrill
T6C1.100
; #@! TA.AperFunction,Plated,PTH,ComponentDrill
T7C2.700
; #@! TA.AperFunction,Plated,PTH,ComponentDrill
T8C3.200
%
G90
G05
T1
X173.0Y-105.377
X173.0Y-106.477
X173.55Y-104.828
X173.55Y-105.927
X173.55Y-107.027
X174.1Y-105.377
X174.1Y-106.477
X174.65Y-104.828
X174.65Y-105.927
X174.65Y-107.027
X175.2Y-105.377
X175.2Y-106.477
X215.065Y-107.665
X215.79Y-106.69
X215.79Y-107.665
X215.79Y-108.64
X216.515Y-107.665
T2
X161.25Y-32.5
X161.25Y-42.5
X161.25Y-52.5
X161.25Y-62.5
X161.25Y-72.5
X163.75Y-37.5
X163.75Y-47.5
X163.75Y-57.5
X163.75Y-67.5
X163.75Y-77.5
X166.2Y-85.95
X166.2Y-87.25
X166.25Y-32.5
X166.25Y-42.5
X166.25Y-52.5
X166.25Y-62.5
X166.25Y-72.5
X166.6Y-121.7
X167.9Y-112.2
X167.9Y-113.1
X167.9Y-114.037
X167.938Y-94.637
X168.0Y-101.0
X168.0Y-102.5
X168.0Y-104.0
X168.0Y-105.5
X168.0Y-107.0
X168.0Y-108.5
X168.0Y-110.0
X168.75Y-37.5
X168.75Y-47.5
X168.75Y-57.5
X168.75Y-67.5
X168.75Y-77.5
X169.4Y-114.05
X170.0Y-122.8
X170.9Y-99.4
X171.25Y-32.5
X171.25Y-42.5
X171.25Y-52.5
X171.25Y-62.5
X171.25Y-72.5
X171.7Y-122.5
X172.0Y-85.3
X172.4Y-99.4
X172.9Y-90.8
X173.75Y-37.5
X173.75Y-47.5
X173.75Y-57.5
X173.75Y-67.5
X173.75Y-77.5
X174.55Y-112.9
X174.7Y-127.4
X174.85Y-122.4
X174.9Y-118.0
X176.2Y-117.8
X176.25Y-32.5
X176.25Y-42.5
X176.25Y-52.5
X176.25Y-62.5
X176.25Y-72.5
X176.8Y-122.4
X176.9Y-99.4
X176.9Y-114.35
X176.9Y-127.3
X176.95Y-110.5
X178.4Y-100.7
X178.4Y-103.15
X178.75Y-37.5
X178.75Y-47.5
X178.75Y-57.5
X178.75Y-67.5
X178.75Y-77.5
X179.35Y-120.25
X180.2Y-122.4
X181.2Y-115.6
X181.25Y-32.5
X181.25Y-42.5
X181.25Y-52.5
X181.25Y-62.5
X182.7Y-65.5
X182.7Y-67.0
X182.7Y-68.5
X182.9Y-70.0
X182.9Y-71.5
X182.9Y-73.0
X182.9Y-74.5
X182.9Y-76.0
X182.9Y-77.5
X182.9Y-79.0
X183.75Y-37.5
X183.75Y-47.5
X183.75Y-57.5
X183.9Y-86.6
X183.9Y-95.4
X184.2Y-65.2
X184.8Y-101.2
X184.8Y-102.7
X185.8Y-65.2
X186.1Y-86.6
X186.25Y-32.5
X186.25Y-42.5
X186.25Y-52.5
X186.25Y-62.5
X187.1Y-70.0
X187.1Y-71.5
X187.1Y-73.0
X187.1Y-74.5
X187.1Y-76.0
X187.1Y-77.5
X187.1Y-79.0
X187.3Y-65.5
X187.3Y-67.0
X187.3Y-68.5
X187.9Y-100.3
X188.3Y-81.5
X188.75Y-37.5
X188.75Y-47.5
X188.75Y-57.5
X191.25Y-32.5
X191.25Y-42.5
X191.25Y-52.5
X191.25Y-62.5
X191.25Y-72.5
X191.3Y-86.6
X193.2Y-105.3
X193.75Y-37.5
X193.75Y-47.5
X193.75Y-57.5
X193.75Y-67.5
X193.75Y-77.5
X194.5Y-87.5
X194.5Y-89.1
X195.0Y-107.3
X196.0Y-109.4
X196.0Y-110.9
X196.1Y-87.5
X196.1Y-89.1
X196.25Y-32.5
X196.25Y-42.5
X196.25Y-52.5
X196.25Y-62.5
X196.25Y-72.5
X198.0Y-106.6
X198.2Y-98.7
X198.2Y-101.5
X198.75Y-37.5
X198.75Y-47.5
X198.75Y-57.5
X198.75Y-67.5
X198.75Y-77.5
X199.1Y-108.7
X199.1Y-111.6
X200.7Y-106.6
X201.25Y-32.5
X201.25Y-42.5
X201.25Y-52.5
X201.25Y-62.5
X201.25Y-72.5
X201.4Y-87.5
X201.4Y-89.1
X202.0Y-112.1
X202.9Y-87.5
X202.9Y-89.1
X203.75Y-37.5
X203.75Y-47.5
X203.75Y-57.5
X203.75Y-67.5
X203.75Y-77.5
X203.95Y-105.0
X206.25Y-32.5
X206.25Y-42.5
X206.25Y-52.5
X206.25Y-62.5
X206.25Y-72.5
X208.5Y-117.8
X208.75Y-37.5
X208.75Y-47.5
X208.75Y-57.5
X208.75Y-67.5
X208.75Y-77.5
X210.3Y-95.25
X210.4Y-114.8
X211.1Y-73.9
X211.1Y-74.9
X211.1Y-75.9
X211.1Y-76.9
X211.1Y-77.9
X211.1Y-78.9
X211.2Y-90.7
X211.375Y-96.46
X211.375Y-97.26
X211.375Y-98.06
X211.5Y-121.4
X211.7Y-94.4
X212.1Y-73.9
X212.1Y-74.9
X212.1Y-75.9
X212.1Y-76.9
X212.1Y-77.9
X212.1Y-78.9
X212.175Y-96.46
X212.175Y-97.26
X212.175Y-98.06
X212.975Y-96.46
X212.975Y-97.26
X212.975Y-98.06
X213.0Y-72.0
X213.1Y-73.9
X213.1Y-74.9
X213.1Y-75.9
X213.1Y-76.9
X213.1Y-77.9
X213.1Y-78.9
X213.525Y-109.875
X214.0Y-110.6
X214.5Y-77.65
X214.6Y-104.3
X215.1Y-96.8
X215.1Y-97.6
X215.79Y-110.508
X216.0Y-104.55
X216.2Y-94.0
X216.55Y-81.35
X216.55Y-81.95
X216.55Y-82.55
X217.75Y-77.65
X218.6Y-92.1
X218.6Y-104.55
X218.6Y-108.85
X218.7Y-94.0
X221.2Y-95.1
X226.7Y-106.4
T4
X222.45Y-87.01
X222.45Y-89.55
X222.45Y-92.09
T5
X195.17Y-82.25
X197.71Y-82.25
X200.25Y-82.25
X202.79Y-82.25
X212.86Y-48.616
X212.86Y-51.156
X212.86Y-53.696
X212.86Y-56.236
X215.4Y-48.616
X215.4Y-51.156
X215.4Y-53.696
X215.4Y-56.236
T6
X184.25Y-115.6
X184.25Y-120.1
X190.75Y-115.6
X190.75Y-120.1
X199.25Y-115.6
X199.25Y-120.1
X205.75Y-115.6
X205.75Y-120.1
X212.15Y-62.55
X212.15Y-69.05
X214.25Y-115.6
X214.25Y-120.1
X216.65Y-62.55
X216.65Y-69.05
X220.75Y-115.6
X220.75Y-120.1
X223.7Y-97.71
X223.7Y-100.25
X223.7Y-102.79
T7
X188.74Y-105.75
X209.24Y-105.75
T8
X164.1Y-125.9
X218.7Y-34.1
X223.9Y-80.0
X223.9Y-125.9
T3
X163.035Y-82.68G85X162.235Y-82.68
G05
X163.035Y-91.32G85X162.235Y-91.32
G05
X167.365Y-82.68G85X166.265Y-82.68
G05
X167.365Y-91.32G85X166.265Y-91.32
G05
M30
