M48
; DRILL file {KiCad 9.0.2} date 2025-10-16T12:19:50-0500
; FORMAT={-:-/ absolute / metric / decimal}
; #@! TF.CreationDate,2025-10-16T12:19:50-05:00
; #@! TF.GenerationSoftware,Kicad,Pcbnew,9.0.2
; #@! TF.FileFunction,Plated,1,4,PTH
FMAT,2
METRIC
; #@! TA.AperFunction,Plated,PTH,ComponentDrill
T1C0.200
; #@! TA.AperFunction,Plated,PTH,ViaDrill
T2C0.300
; #@! TA.AperFunction,Plated,PTH,ComponentDrill
T3C0.600
; #@! TA.AperFunction,Plated,PTH,ComponentDrill
T4C0.800
; #@! TA.AperFunction,Plated,PTH,ComponentDrill
T5C1.000
; #@! TA.AperFunction,Plated,PTH,ComponentDrill
T6C1.100
; #@! TA.AperFunction,Plated,PTH,ComponentDrill
T7C3.200
%
G90
G05
T1
X173.0Y-105.377
X173.0Y-106.477
X173.55Y-104.828
X173.55Y-105.927
X173.55Y-107.027
X174.1Y-105.377
X174.1Y-106.477
X174.65Y-104.828
X174.65Y-105.927
X174.65Y-107.027
X175.2Y-105.377
X175.2Y-106.477
X216.465Y-107.665
X217.19Y-106.69
X217.19Y-107.665
X217.19Y-108.64
X217.915Y-107.665
T2
X161.25Y-32.5
X161.25Y-42.5
X161.25Y-52.5
X161.25Y-62.5
X161.25Y-72.5
X163.75Y-37.5
X163.75Y-47.5
X163.75Y-57.5
X163.75Y-67.5
X163.75Y-77.5
X166.2Y-85.95
X166.2Y-87.25
X166.25Y-32.5
X166.25Y-42.5
X166.25Y-52.5
X166.25Y-62.5
X166.25Y-72.5
X166.5Y-121.5
X167.9Y-112.2
X167.9Y-113.1
X167.9Y-114.037
X167.938Y-94.637
X168.0Y-101.0
X168.0Y-102.5
X168.0Y-104.0
X168.0Y-105.5
X168.0Y-107.0
X168.0Y-108.5
X168.0Y-110.0
X168.75Y-37.5
X168.75Y-47.5
X168.75Y-57.5
X168.75Y-67.5
X168.75Y-77.5
X169.4Y-113.1
X170.4Y-96.7
X170.5Y-123.0
X171.0Y-100.5
X171.0Y-102.5
X171.25Y-32.5
X171.25Y-42.5
X171.25Y-52.5
X171.25Y-62.5
X171.25Y-72.5
X171.5Y-123.0
X172.0Y-101.5
X172.4Y-99.6
X172.4Y-114.1
X172.495Y-126.8
X173.0Y-100.5
X173.0Y-102.5
X173.595Y-125.3
X173.75Y-37.5
X173.75Y-77.5
X173.9Y-114.1
X174.0Y-101.5
X174.3Y-84.4
X174.6Y-113.537
X174.7Y-127.5
X175.0Y-100.5
X175.0Y-102.5
X175.4Y-114.137
X175.795Y-124.5
X176.25Y-32.5
X176.25Y-72.5
X176.5Y-91.0
X176.5Y-92.5
X176.5Y-94.0
X176.5Y-95.5
X176.9Y-100.6
X176.9Y-122.7
X176.9Y-127.3
X177.5Y-90.0
X178.1Y-121.137
X178.4Y-100.6
X178.5Y-89.0
X178.75Y-37.5
X178.75Y-77.5
X178.8Y-93.7
X180.3Y-117.0
X181.25Y-32.5
X182.5Y-70.0
X182.5Y-71.5
X182.5Y-73.0
X182.5Y-74.5
X182.5Y-76.0
X182.5Y-77.5
X182.5Y-79.0
X183.75Y-37.5
X184.0Y-93.5
X184.0Y-95.0
X185.5Y-93.5
X185.5Y-95.0
X186.25Y-32.5
X187.0Y-83.0
X187.0Y-93.5
X187.0Y-95.0
X187.5Y-70.0
X187.5Y-71.5
X187.5Y-73.0
X187.5Y-74.5
X187.5Y-76.0
X187.5Y-77.5
X187.5Y-79.0
X188.2Y-103.1
X188.3Y-86.8
X188.5Y-83.0
X188.5Y-93.5
X188.5Y-95.0
X188.75Y-37.5
X190.0Y-83.0
X190.0Y-93.5
X190.0Y-95.0
X191.25Y-32.5
X191.25Y-72.5
X191.5Y-83.0
X191.5Y-93.5
X191.5Y-95.0
X191.6Y-101.1
X193.0Y-83.0
X193.0Y-93.5
X193.0Y-95.0
X193.0Y-105.0
X193.5Y-106.5
X193.75Y-37.5
X193.75Y-77.5
X194.5Y-83.0
X194.5Y-107.5
X195.5Y-108.5
X196.25Y-32.5
X196.25Y-72.5
X196.376Y-111.724
X196.5Y-109.5
X197.5Y-108.5
X197.5Y-111.7
X197.9Y-98.7
X198.0Y-89.0
X198.5Y-107.5
X198.75Y-37.5
X198.75Y-47.5
X198.75Y-57.5
X198.75Y-67.5
X198.75Y-77.5
X199.5Y-87.5
X200.0Y-107.5
X201.0Y-86.0
X201.0Y-101.0
X201.0Y-102.5
X201.0Y-104.0
X201.1Y-80.9
X201.1Y-82.6
X201.25Y-32.5
X201.25Y-42.5
X201.25Y-52.5
X201.25Y-62.5
X201.25Y-72.5
X201.5Y-107.5
X202.5Y-84.5
X202.5Y-101.0
X202.5Y-102.5
X202.5Y-104.0
X203.0Y-89.5
X203.0Y-107.5
X203.1Y-93.0
X203.75Y-37.5
X203.75Y-47.5
X203.75Y-57.5
X203.75Y-67.5
X203.75Y-77.5
X204.0Y-83.0
X204.0Y-101.0
X204.0Y-102.5
X204.0Y-104.0
X204.5Y-88.0
X205.0Y-107.0
X205.4Y-93.3
X205.5Y-81.5
X206.0Y-86.5
X206.25Y-32.5
X206.25Y-42.5
X206.25Y-52.5
X206.25Y-62.5
X206.25Y-72.5
X206.5Y-107.0
X207.5Y-85.0
X208.0Y-106.0
X208.75Y-37.5
X208.75Y-47.5
X208.75Y-57.5
X208.75Y-67.5
X208.75Y-77.5
X208.9Y-110.0
X209.0Y-83.5
X211.3Y-70.5
X211.3Y-71.5
X211.3Y-72.5
X211.3Y-73.5
X211.3Y-74.5
X211.3Y-75.5
X212.3Y-70.5
X212.3Y-71.5
X212.3Y-72.5
X212.3Y-73.5
X212.3Y-74.5
X212.3Y-75.5
X212.45Y-95.6
X213.2Y-68.6
X213.215Y-96.487
X213.215Y-97.287
X213.215Y-98.087
X213.3Y-70.5
X213.3Y-71.5
X213.3Y-72.5
X213.3Y-73.5
X213.3Y-74.5
X213.3Y-75.5
X214.015Y-96.487
X214.015Y-97.287
X214.015Y-98.087
X214.215Y-94.365
X214.7Y-74.25
X214.815Y-96.487
X214.815Y-97.287
X214.815Y-98.087
X216.325Y-102.4
X216.75Y-77.95
X216.75Y-78.55
X216.75Y-79.15
X216.85Y-97.287
X217.388Y-104.965
X217.95Y-74.25
X218.05Y-94.0
X218.565Y-104.965
X220.7Y-109.4
X221.5Y-73.0
X221.5Y-74.0
X221.5Y-75.0
X221.5Y-76.0
X222.2Y-95.7
X223.982Y-88.543
X224.0Y-84.5
X224.0Y-85.5
X224.0Y-86.5
X224.0Y-89.5
X224.007Y-87.522
X225.0Y-90.5
X226.0Y-91.5
T4
X211.972Y-84.9
X214.512Y-84.9
X217.052Y-84.9
T5
X183.3Y-100.96
X183.3Y-103.5
X183.3Y-106.04
X183.3Y-108.58
X212.86Y-44.8
X212.86Y-47.34
X212.86Y-49.88
X212.86Y-52.42
X213.66Y-89.1
X215.4Y-44.8
X215.4Y-47.34
X215.4Y-49.88
X215.4Y-52.42
X216.2Y-89.1
X218.74Y-89.1
T6
X183.85Y-115.6
X183.85Y-120.1
X190.35Y-115.6
X190.35Y-120.1
X198.85Y-115.6
X198.85Y-120.1
X205.35Y-115.6
X205.35Y-120.1
X212.15Y-58.95
X212.15Y-65.45
X213.85Y-115.6
X213.85Y-120.1
X216.65Y-58.95
X216.65Y-65.45
X220.35Y-115.6
X220.35Y-120.1
X223.175Y-97.71
X223.175Y-100.25
X223.175Y-102.79
T7
X164.1Y-125.9
X218.7Y-34.1
X223.9Y-80.0
X223.9Y-125.9
T3
X163.035Y-82.68G85X162.235Y-82.68
G05
X163.035Y-91.32G85X162.235Y-91.32
G05
X167.365Y-82.68G85X166.265Y-82.68
G05
X167.365Y-91.32G85X166.265Y-91.32
G05
M30
