G04 #@! TF.GenerationSoftware,KiCad,Pcbnew,9.0.2*
G04 #@! TF.CreationDate,2025-11-19T20:23:31-06:00*
G04 #@! TF.ProjectId,pocket-caddy,706f636b-6574-42d6-9361-6464792e6b69,0.1*
G04 #@! TF.SameCoordinates,Original*
G04 #@! TF.FileFunction,Soldermask,Top*
G04 #@! TF.FilePolarity,Negative*
%FSLAX46Y46*%
G04 Gerber Fmt 4.6, Leading zero omitted, Abs format (unit mm)*
G04 Created by KiCad (PCBNEW 9.0.2) date 2025-11-19 20:23:31*
%MOMM*%
%LPD*%
G01*
G04 APERTURE LIST*
G04 Aperture macros list*
%AMRoundRect*
0 Rectangle with rounded corners*
0 $1 Rounding radius*
0 $2 $3 $4 $5 $6 $7 $8 $9 X,Y pos of 4 corners*
0 Add a 4 corners polygon primitive as box body*
4,1,4,$2,$3,$4,$5,$6,$7,$8,$9,$2,$3,0*
0 Add four circle primitives for the rounded corners*
1,1,$1+$1,$2,$3*
1,1,$1+$1,$4,$5*
1,1,$1+$1,$6,$7*
1,1,$1+$1,$8,$9*
0 Add four rect primitives between the rounded corners*
20,1,$1+$1,$2,$3,$4,$5,0*
20,1,$1+$1,$4,$5,$6,$7,0*
20,1,$1+$1,$6,$7,$8,$9,0*
20,1,$1+$1,$8,$9,$2,$3,0*%
%AMFreePoly0*
4,1,21,-0.375000,0.050000,-0.371194,0.069134,-0.360355,0.085355,-0.344134,0.096194,-0.325000,0.100000,0.325000,0.100000,0.344134,0.096194,0.360355,0.085355,0.371194,0.069134,0.375000,0.050000,0.375000,-0.050000,0.371194,-0.069134,0.360355,-0.085355,0.344134,-0.096194,0.325000,-0.100000,-0.325000,-0.100000,-0.344134,-0.096194,-0.360355,-0.085355,-0.371194,-0.069134,-0.375000,-0.050000,
-0.375000,0.050000,-0.375000,0.050000,$1*%
%AMFreePoly1*
4,1,6,0.500000,-0.850000,-0.500000,-0.850000,-0.500000,0.550000,-0.200000,0.850000,0.500000,0.850000,0.500000,-0.850000,0.500000,-0.850000,$1*%
G04 Aperture macros list end*
%ADD10C,0.000000*%
%ADD11RoundRect,0.237500X0.300000X0.237500X-0.300000X0.237500X-0.300000X-0.237500X0.300000X-0.237500X0*%
%ADD12RoundRect,0.200000X-0.200000X0.700000X-0.200000X-0.700000X0.200000X-0.700000X0.200000X0.700000X0*%
%ADD13RoundRect,0.237500X0.237500X-0.300000X0.237500X0.300000X-0.237500X0.300000X-0.237500X-0.300000X0*%
%ADD14C,0.650000*%
%ADD15RoundRect,0.150000X-0.425000X0.150000X-0.425000X-0.150000X0.425000X-0.150000X0.425000X0.150000X0*%
%ADD16RoundRect,0.075000X-0.500000X0.075000X-0.500000X-0.075000X0.500000X-0.075000X0.500000X0.075000X0*%
%ADD17O,2.100000X1.000000*%
%ADD18O,1.800000X1.000000*%
%ADD19C,1.000000*%
%ADD20RoundRect,0.062500X-0.062500X0.425000X-0.062500X-0.425000X0.062500X-0.425000X0.062500X0.425000X0*%
%ADD21RoundRect,0.062500X-0.425000X0.062500X-0.425000X-0.062500X0.425000X-0.062500X0.425000X0.062500X0*%
%ADD22R,2.500000X2.500000*%
%ADD23RoundRect,0.237500X0.237500X-0.250000X0.237500X0.250000X-0.237500X0.250000X-0.237500X-0.250000X0*%
%ADD24RoundRect,0.237500X0.250000X0.237500X-0.250000X0.237500X-0.250000X-0.237500X0.250000X-0.237500X0*%
%ADD25C,6.400000*%
%ADD26C,2.000000*%
%ADD27RoundRect,0.237500X-0.237500X0.250000X-0.237500X-0.250000X0.237500X-0.250000X0.237500X0.250000X0*%
%ADD28RoundRect,0.250001X0.624999X-0.462499X0.624999X0.462499X-0.624999X0.462499X-0.624999X-0.462499X0*%
%ADD29RoundRect,0.250000X-0.450000X0.325000X-0.450000X-0.325000X0.450000X-0.325000X0.450000X0.325000X0*%
%ADD30RoundRect,0.200000X0.200000X-0.750000X0.200000X0.750000X-0.200000X0.750000X-0.200000X-0.750000X0*%
%ADD31RoundRect,0.250000X-0.450000X0.350000X-0.450000X-0.350000X0.450000X-0.350000X0.450000X0.350000X0*%
%ADD32RoundRect,0.250000X-0.337500X-0.475000X0.337500X-0.475000X0.337500X0.475000X-0.337500X0.475000X0*%
%ADD33RoundRect,0.250001X0.799999X-0.799999X0.799999X0.799999X-0.799999X0.799999X-0.799999X-0.799999X0*%
%ADD34C,2.100000*%
%ADD35RoundRect,0.175000X-0.325000X0.175000X-0.325000X-0.175000X0.325000X-0.175000X0.325000X0.175000X0*%
%ADD36RoundRect,0.150000X-0.150000X0.200000X-0.150000X-0.200000X0.150000X-0.200000X0.150000X0.200000X0*%
%ADD37RoundRect,0.250000X0.450000X-0.350000X0.450000X0.350000X-0.450000X0.350000X-0.450000X-0.350000X0*%
%ADD38RoundRect,0.237500X-0.300000X-0.237500X0.300000X-0.237500X0.300000X0.237500X-0.300000X0.237500X0*%
%ADD39R,2.000000X2.500000*%
%ADD40R,7.200000X7.200000*%
%ADD41R,3.000000X1.000000*%
%ADD42RoundRect,0.250000X-0.475000X0.337500X-0.475000X-0.337500X0.475000X-0.337500X0.475000X0.337500X0*%
%ADD43RoundRect,0.237500X-0.237500X0.300000X-0.237500X-0.300000X0.237500X-0.300000X0.237500X0.300000X0*%
%ADD44RoundRect,0.250000X0.325000X0.450000X-0.325000X0.450000X-0.325000X-0.450000X0.325000X-0.450000X0*%
%ADD45RoundRect,0.200000X-0.200000X0.750000X-0.200000X-0.750000X0.200000X-0.750000X0.200000X0.750000X0*%
%ADD46R,1.700000X1.700000*%
%ADD47C,1.700000*%
%ADD48RoundRect,0.250000X0.337500X0.475000X-0.337500X0.475000X-0.337500X-0.475000X0.337500X-0.475000X0*%
%ADD49RoundRect,0.250000X-0.325000X-0.450000X0.325000X-0.450000X0.325000X0.450000X-0.325000X0.450000X0*%
%ADD50FreePoly0,90.000000*%
%ADD51RoundRect,0.050000X-0.287500X-0.050000X0.287500X-0.050000X0.287500X0.050000X-0.287500X0.050000X0*%
%ADD52R,1.950000X2.450000*%
%ADD53RoundRect,0.237500X0.237500X-0.287500X0.237500X0.287500X-0.237500X0.287500X-0.237500X-0.287500X0*%
%ADD54RoundRect,0.250000X0.475000X-0.337500X0.475000X0.337500X-0.475000X0.337500X-0.475000X-0.337500X0*%
%ADD55C,5.400000*%
%ADD56RoundRect,0.062500X-0.350000X-0.062500X0.350000X-0.062500X0.350000X0.062500X-0.350000X0.062500X0*%
%ADD57R,1.200000X2.000000*%
%ADD58RoundRect,0.237500X-0.250000X-0.237500X0.250000X-0.237500X0.250000X0.237500X-0.250000X0.237500X0*%
%ADD59R,0.750000X0.250000*%
%ADD60FreePoly1,0.000000*%
%ADD61RoundRect,0.250000X0.625000X-0.400000X0.625000X0.400000X-0.625000X0.400000X-0.625000X-0.400000X0*%
%ADD62R,0.900000X1.500000*%
%ADD63C,0.600000*%
%ADD64R,2.900000X2.900000*%
%ADD65R,1.500000X1.500000*%
%ADD66C,1.600000*%
%ADD67R,1.800000X1.000000*%
G04 APERTURE END LIST*
G36*
X183900000Y-66200000D02*
G01*
X186100000Y-66200000D01*
X186100000Y-68900000D01*
X183900000Y-68900000D01*
X183900000Y-66200000D01*
G37*
D10*
G36*
X224606540Y-116547683D02*
G01*
X224729967Y-116555247D01*
X224846346Y-116568186D01*
X224957531Y-116586767D01*
X225065381Y-116611257D01*
X225171755Y-116641925D01*
X225191703Y-116648389D01*
X225280128Y-116680405D01*
X225372186Y-116718980D01*
X225463602Y-116762141D01*
X225550103Y-116807915D01*
X225598571Y-116836242D01*
X225624323Y-116851851D01*
X225650842Y-116867793D01*
X225673369Y-116881211D01*
X225678252Y-116884089D01*
X225695553Y-116894564D01*
X225708418Y-116902923D01*
X225713665Y-116906991D01*
X225719868Y-116911895D01*
X225733152Y-116920926D01*
X225749079Y-116931143D01*
X225766869Y-116942726D01*
X225780881Y-116952653D01*
X225787444Y-116958163D01*
X225795474Y-116965091D01*
X225809658Y-116975587D01*
X225820067Y-116982763D01*
X225848790Y-117003779D01*
X225883782Y-117032245D01*
X225923536Y-117066735D01*
X225966545Y-117105813D01*
X226011303Y-117148055D01*
X226056303Y-117192025D01*
X226100037Y-117236295D01*
X226141002Y-117279434D01*
X226177689Y-117320012D01*
X226189111Y-117333193D01*
X226208623Y-117355849D01*
X226225551Y-117375223D01*
X226238345Y-117389562D01*
X226245453Y-117397109D01*
X226246177Y-117397741D01*
X226253514Y-117405470D01*
X226266129Y-117421437D01*
X226282861Y-117443983D01*
X226302550Y-117471450D01*
X226324035Y-117502182D01*
X226346158Y-117534521D01*
X226367754Y-117566807D01*
X226387668Y-117597386D01*
X226402925Y-117621643D01*
X226481455Y-117759257D01*
X226548474Y-117898279D01*
X226604256Y-118039470D01*
X226649075Y-118183589D01*
X226683204Y-118331399D01*
X226703135Y-118453855D01*
X226707051Y-118490528D01*
X226710142Y-118534413D01*
X226712394Y-118583240D01*
X226713791Y-118634737D01*
X226714315Y-118686630D01*
X226713952Y-118736648D01*
X226712683Y-118782521D01*
X226710495Y-118821974D01*
X226707370Y-118852736D01*
X226706038Y-118861107D01*
X226690456Y-118914623D01*
X226664400Y-118963825D01*
X226628681Y-119007876D01*
X226584109Y-119045933D01*
X226531493Y-119077150D01*
X226477413Y-119098872D01*
X226440803Y-119109859D01*
X226406829Y-119117977D01*
X226372581Y-119123601D01*
X226335153Y-119127103D01*
X226291636Y-119128864D01*
X226241913Y-119129261D01*
X226162121Y-119126940D01*
X226082508Y-119120068D01*
X226000648Y-119108281D01*
X225914121Y-119091216D01*
X225820500Y-119068505D01*
X225796296Y-119062062D01*
X225772437Y-119055240D01*
X225741120Y-119045742D01*
X225704371Y-119034234D01*
X225664223Y-119021382D01*
X225622702Y-119007856D01*
X225581837Y-118994323D01*
X225543659Y-118981451D01*
X225510196Y-118969906D01*
X225483478Y-118960359D01*
X225465534Y-118953474D01*
X225462821Y-118952321D01*
X225449332Y-118946567D01*
X225428585Y-118937921D01*
X225404268Y-118927918D01*
X225394745Y-118924032D01*
X225307389Y-118886846D01*
X225212842Y-118843602D01*
X225113293Y-118795406D01*
X225010932Y-118743366D01*
X224907951Y-118688587D01*
X224806539Y-118632177D01*
X224733898Y-118590099D01*
X224705123Y-118573057D01*
X224679752Y-118557901D01*
X224659603Y-118545731D01*
X224646492Y-118537639D01*
X224642417Y-118534943D01*
X224634462Y-118529419D01*
X224620035Y-118519995D01*
X224607002Y-118511706D01*
X224585702Y-118498230D01*
X224560676Y-118482295D01*
X224542079Y-118470386D01*
X224523121Y-118458215D01*
X224507261Y-118448043D01*
X224497889Y-118442046D01*
X224497812Y-118441997D01*
X224488290Y-118435873D01*
X224470783Y-118424551D01*
X224447199Y-118409276D01*
X224419451Y-118391285D01*
X224389446Y-118371816D01*
X224359097Y-118352108D01*
X224330313Y-118333403D01*
X224305991Y-118317577D01*
X224283559Y-118302869D01*
X224264549Y-118290210D01*
X224251316Y-118281181D01*
X224246597Y-118277737D01*
X224236815Y-118271106D01*
X224225937Y-118264898D01*
X224214277Y-118258074D01*
X224208603Y-118253724D01*
X224196633Y-118243212D01*
X224175962Y-118229215D01*
X224148751Y-118212864D01*
X224117157Y-118195296D01*
X224083344Y-118177643D01*
X224049470Y-118161039D01*
X224017698Y-118146620D01*
X223990188Y-118135518D01*
X223972140Y-118129633D01*
X223941483Y-118126095D01*
X223904634Y-118129255D01*
X223864598Y-118138416D01*
X223824390Y-118152884D01*
X223787015Y-118171964D01*
X223785845Y-118172675D01*
X223752440Y-118199259D01*
X223721582Y-118235780D01*
X223694309Y-118280469D01*
X223671655Y-118331553D01*
X223654653Y-118387266D01*
X223651143Y-118402991D01*
X223645794Y-118439183D01*
X223642340Y-118484943D01*
X223640703Y-118538203D01*
X223640804Y-118596894D01*
X223642563Y-118658941D01*
X223645902Y-118722282D01*
X223650739Y-118784840D01*
X223656997Y-118844553D01*
X223664594Y-118899345D01*
X223671659Y-118938603D01*
X223681231Y-118979184D01*
X223694611Y-119027100D01*
X223710683Y-119078964D01*
X223728323Y-119131387D01*
X223746413Y-119180986D01*
X223763827Y-119224371D01*
X223773111Y-119245207D01*
X223788050Y-119275695D01*
X223807188Y-119312679D01*
X223828922Y-119353253D01*
X223851662Y-119394517D01*
X223873806Y-119433568D01*
X223893757Y-119467498D01*
X223908327Y-119490965D01*
X223922937Y-119513865D01*
X223939172Y-119539782D01*
X223948737Y-119555299D01*
X223960220Y-119573527D01*
X223970023Y-119588081D01*
X223975622Y-119595341D01*
X223981841Y-119603146D01*
X223992462Y-119617877D01*
X224005387Y-119636608D01*
X224007810Y-119640197D01*
X224020446Y-119658713D01*
X224030659Y-119673169D01*
X224036604Y-119680956D01*
X224037149Y-119681513D01*
X224042441Y-119687500D01*
X224052363Y-119699844D01*
X224061043Y-119711023D01*
X224101303Y-119760947D01*
X224149501Y-119816279D01*
X224204067Y-119875434D01*
X224263433Y-119936821D01*
X224326025Y-119998854D01*
X224390277Y-120059945D01*
X224454619Y-120118505D01*
X224517480Y-120172949D01*
X224518470Y-120173781D01*
X224570445Y-120216274D01*
X224627021Y-120260376D01*
X224686142Y-120304623D01*
X224745751Y-120347545D01*
X224803799Y-120387684D01*
X224858229Y-120423571D01*
X224906987Y-120453743D01*
X224928671Y-120466270D01*
X224950987Y-120478801D01*
X224971021Y-120490096D01*
X224985249Y-120498162D01*
X224987693Y-120499563D01*
X225008254Y-120510429D01*
X225036940Y-120524309D01*
X225070879Y-120539927D01*
X225107203Y-120556007D01*
X225143039Y-120571276D01*
X225175513Y-120584454D01*
X225197221Y-120592663D01*
X225270085Y-120616939D01*
X225338837Y-120635482D01*
X225406733Y-120648840D01*
X225477033Y-120657563D01*
X225552991Y-120662200D01*
X225616279Y-120663329D01*
X225662599Y-120663198D01*
X225699445Y-120662401D01*
X225729133Y-120660801D01*
X225753985Y-120658248D01*
X225776315Y-120654605D01*
X225784252Y-120652984D01*
X225875017Y-120628425D01*
X225957618Y-120595373D01*
X225969772Y-120589449D01*
X225994293Y-120578105D01*
X226011959Y-120571870D01*
X226021283Y-120571253D01*
X226021847Y-120571651D01*
X226024045Y-120581379D01*
X226021203Y-120599232D01*
X226013886Y-120622953D01*
X226002670Y-120650284D01*
X226001100Y-120653675D01*
X225993597Y-120668605D01*
X225981529Y-120691386D01*
X225966216Y-120719635D01*
X225948978Y-120750970D01*
X225931131Y-120783005D01*
X225913993Y-120813358D01*
X225898882Y-120839644D01*
X225889195Y-120856053D01*
X225880339Y-120870255D01*
X225867510Y-120890175D01*
X225852047Y-120913811D01*
X225835288Y-120939156D01*
X225818567Y-120964205D01*
X225803224Y-120986952D01*
X225790597Y-121005393D01*
X225782019Y-121017520D01*
X225778993Y-121021314D01*
X225773866Y-121027294D01*
X225764046Y-121040106D01*
X225751845Y-121056729D01*
X225733827Y-121080821D01*
X225715009Y-121103862D01*
X225693213Y-121128341D01*
X225666255Y-121156745D01*
X225645791Y-121177618D01*
X225606013Y-121215376D01*
X225569554Y-121244223D01*
X225534063Y-121265602D01*
X225497195Y-121280961D01*
X225462821Y-121290407D01*
X225433143Y-121294871D01*
X225396480Y-121297230D01*
X225357478Y-121297420D01*
X225320779Y-121295379D01*
X225299512Y-121292680D01*
X225248639Y-121281456D01*
X225190638Y-121264054D01*
X225127864Y-121241329D01*
X225062674Y-121214134D01*
X224997419Y-121183321D01*
X224996547Y-121182883D01*
X224965158Y-121167040D01*
X224938169Y-121153129D01*
X224913886Y-121140144D01*
X224890617Y-121127074D01*
X224866669Y-121112905D01*
X224840356Y-121096631D01*
X224809979Y-121077237D01*
X224773851Y-121053713D01*
X224730277Y-121025050D01*
X224710289Y-121011857D01*
X224679914Y-120991693D01*
X224652660Y-120973417D01*
X224630169Y-120958140D01*
X224614079Y-120946978D01*
X224606028Y-120941041D01*
X224605683Y-120940738D01*
X224596309Y-120933519D01*
X224581574Y-120923671D01*
X224576172Y-120920302D01*
X224560706Y-120910267D01*
X224548955Y-120901651D01*
X224546661Y-120899643D01*
X224537268Y-120892294D01*
X224522505Y-120882402D01*
X224517151Y-120879076D01*
X224502918Y-120870058D01*
X224493475Y-120863394D01*
X224491909Y-120861978D01*
X224486097Y-120857319D01*
X224472749Y-120847551D01*
X224454051Y-120834258D01*
X224438790Y-120823591D01*
X224417637Y-120808793D01*
X224400282Y-120796449D01*
X224388909Y-120788124D01*
X224385669Y-120785514D01*
X224379891Y-120780646D01*
X224367140Y-120770568D01*
X224349854Y-120757203D01*
X224344353Y-120752993D01*
X224326209Y-120739021D01*
X224311895Y-120727767D01*
X224303849Y-120721155D01*
X224303039Y-120720382D01*
X224297252Y-120715643D01*
X224284200Y-120705713D01*
X224266177Y-120692325D01*
X224255832Y-120684739D01*
X224228145Y-120664323D01*
X224207047Y-120648196D01*
X224189431Y-120633911D01*
X224172195Y-120619018D01*
X224169938Y-120617013D01*
X224159225Y-120607851D01*
X224142421Y-120593879D01*
X224122639Y-120577684D01*
X224116554Y-120572747D01*
X224096537Y-120556336D01*
X224078635Y-120541283D01*
X224065937Y-120530199D01*
X224063591Y-120528024D01*
X224049601Y-120515500D01*
X224033916Y-120502524D01*
X224033822Y-120502451D01*
X224019527Y-120490752D01*
X223999683Y-120473950D01*
X223977518Y-120454836D01*
X223956254Y-120436198D01*
X223939123Y-120420828D01*
X223934273Y-120416339D01*
X223923217Y-120406419D01*
X223906808Y-120392232D01*
X223890458Y-120378408D01*
X223871717Y-120362436D01*
X223854288Y-120347067D01*
X223843494Y-120337092D01*
X223832109Y-120326490D01*
X223814738Y-120310783D01*
X223794315Y-120292614D01*
X223783998Y-120283539D01*
X223762652Y-120264708D01*
X223742431Y-120246645D01*
X223726490Y-120232177D01*
X223721421Y-120227467D01*
X223708862Y-120215836D01*
X223690452Y-120199039D01*
X223669149Y-120179772D01*
X223656546Y-120168445D01*
X223625061Y-120139500D01*
X223588830Y-120104976D01*
X223549314Y-120066375D01*
X223507975Y-120025187D01*
X223466279Y-119982916D01*
X223425686Y-119941056D01*
X223387662Y-119901106D01*
X223353667Y-119864561D01*
X223325165Y-119832918D01*
X223303620Y-119807679D01*
X223301492Y-119805053D01*
X223288229Y-119789183D01*
X223275774Y-119775250D01*
X223273103Y-119772468D01*
X223263077Y-119761289D01*
X223247496Y-119742378D01*
X223225986Y-119715263D01*
X223198170Y-119679473D01*
X223171567Y-119644853D01*
X223155649Y-119623459D01*
X223135871Y-119595988D01*
X223114904Y-119566193D01*
X223097789Y-119541315D01*
X223081457Y-119517363D01*
X223067496Y-119497080D01*
X223057245Y-119482399D01*
X223052047Y-119475255D01*
X223051771Y-119474935D01*
X223047387Y-119468935D01*
X223038301Y-119455543D01*
X223026213Y-119437283D01*
X223021889Y-119430669D01*
X222964020Y-119334981D01*
X222915367Y-119239911D01*
X222904237Y-119215237D01*
X222892356Y-119188181D01*
X222881766Y-119164215D01*
X222873601Y-119145883D01*
X222868987Y-119135735D01*
X222868903Y-119135559D01*
X222862310Y-119119923D01*
X222853015Y-119095512D01*
X222841884Y-119064807D01*
X222829781Y-119030287D01*
X222817571Y-118994431D01*
X222806121Y-118959717D01*
X222796295Y-118928623D01*
X222793719Y-118920131D01*
X222775134Y-118854612D01*
X222755977Y-118780785D01*
X222737091Y-118702065D01*
X222719319Y-118621861D01*
X222714419Y-118598459D01*
X222700601Y-118511000D01*
X222693353Y-118416549D01*
X222692568Y-118317845D01*
X222698139Y-118217624D01*
X222709955Y-118118630D01*
X222727908Y-118023601D01*
X222739070Y-117978727D01*
X222747283Y-117949790D01*
X222756877Y-117918122D01*
X222766841Y-117886860D01*
X222776159Y-117859143D01*
X222783821Y-117838115D01*
X222786677Y-117831171D01*
X222790773Y-117821225D01*
X222798062Y-117802873D01*
X222807511Y-117778736D01*
X222818064Y-117751493D01*
X222832194Y-117716247D01*
X222848942Y-117676601D01*
X222865763Y-117638502D01*
X222874911Y-117618692D01*
X222886586Y-117594819D01*
X222901022Y-117566571D01*
X222917192Y-117535817D01*
X222934073Y-117504420D01*
X222950636Y-117474252D01*
X222965861Y-117447177D01*
X222978720Y-117425065D01*
X222988188Y-117409782D01*
X222993146Y-117403261D01*
X222997929Y-117397259D01*
X223007328Y-117383718D01*
X223019664Y-117365090D01*
X223025505Y-117356043D01*
X223039604Y-117334539D01*
X223052529Y-117315686D01*
X223062115Y-117302616D01*
X223064292Y-117299973D01*
X223073606Y-117289209D01*
X223087245Y-117273215D01*
X223099554Y-117258656D01*
X223114545Y-117241790D01*
X223128429Y-117227742D01*
X223136779Y-117220635D01*
X223147319Y-117212929D01*
X223152107Y-117208821D01*
X223169611Y-117197646D01*
X223196622Y-117192051D01*
X223226801Y-117191888D01*
X223263602Y-117196807D01*
X223306531Y-117207528D01*
X223356270Y-117224301D01*
X223413494Y-117247377D01*
X223478886Y-117277009D01*
X223547556Y-117310635D01*
X223597411Y-117335648D01*
X223637810Y-117355609D01*
X223669747Y-117370959D01*
X223694216Y-117382134D01*
X223712214Y-117389573D01*
X223724733Y-117393713D01*
X223732770Y-117394992D01*
X223737071Y-117394009D01*
X223739574Y-117389321D01*
X223736505Y-117380819D01*
X223727132Y-117367497D01*
X223710727Y-117348353D01*
X223686561Y-117322376D01*
X223680615Y-117316152D01*
X223643601Y-117277501D01*
X223613225Y-117245715D01*
X223587931Y-117219156D01*
X223566171Y-117196182D01*
X223546393Y-117175155D01*
X223527044Y-117154436D01*
X223506571Y-117132389D01*
X223503290Y-117128845D01*
X223482306Y-117106236D01*
X223463202Y-117085741D01*
X223447938Y-117069465D01*
X223438481Y-117059507D01*
X223437824Y-117058827D01*
X223428644Y-117048825D01*
X223414289Y-117032521D01*
X223397165Y-117012663D01*
X223388021Y-117001910D01*
X223369680Y-116980481D01*
X223352142Y-116960406D01*
X223338147Y-116944807D01*
X223333598Y-116939937D01*
X223323161Y-116927588D01*
X223309476Y-116909413D01*
X223294121Y-116887761D01*
X223278668Y-116864978D01*
X223264692Y-116843411D01*
X223253768Y-116825408D01*
X223247468Y-116813317D01*
X223246543Y-116810130D01*
X223251720Y-116804940D01*
X223265169Y-116798280D01*
X223280480Y-116792750D01*
X223299858Y-116786227D01*
X223326463Y-116776670D01*
X223356565Y-116765444D01*
X223382294Y-116755537D01*
X223451431Y-116729777D01*
X223528808Y-116703215D01*
X223611005Y-116676900D01*
X223694604Y-116651886D01*
X223776187Y-116629221D01*
X223852333Y-116609958D01*
X223867211Y-116606466D01*
X223985598Y-116582983D01*
X224113049Y-116565023D01*
X224248124Y-116552732D01*
X224389381Y-116546259D01*
X224474203Y-116545227D01*
X224606540Y-116547683D01*
G37*
D11*
X169662500Y-93637500D03*
X167937500Y-93637500D03*
D12*
X197900000Y-85150000D03*
X196800000Y-85150000D03*
X195700000Y-85150000D03*
X194600000Y-85150000D03*
X193500000Y-85150000D03*
X192400000Y-85150000D03*
X191300000Y-85150000D03*
X188300000Y-85150000D03*
X187200000Y-85150000D03*
X186100000Y-85150000D03*
X185000000Y-85150000D03*
X183900000Y-85150000D03*
X183900000Y-97150000D03*
X185000000Y-97150000D03*
X186100000Y-97150000D03*
X187200000Y-97150000D03*
X188300000Y-97150000D03*
X191300000Y-97150000D03*
X192400000Y-97150000D03*
X193500000Y-97150000D03*
X194600000Y-97150000D03*
X195700000Y-97150000D03*
X196800000Y-97150000D03*
X197900000Y-97150000D03*
D13*
X167900000Y-121087500D03*
X167900000Y-119362500D03*
D14*
X166315000Y-84110000D03*
X166315000Y-89890000D03*
D15*
X167390000Y-83800000D03*
X167390000Y-84600000D03*
D16*
X167390000Y-85750000D03*
X167390000Y-86750000D03*
X167390000Y-87250000D03*
X167390000Y-88250000D03*
D15*
X167390000Y-89400000D03*
X167390000Y-90200000D03*
X167390000Y-90200000D03*
X167390000Y-89400000D03*
D16*
X167390000Y-88750000D03*
X167390000Y-87750000D03*
X167390000Y-86250000D03*
X167390000Y-85250000D03*
D15*
X167390000Y-84600000D03*
X167390000Y-83800000D03*
D17*
X166815000Y-82680000D03*
D18*
X162635000Y-82680000D03*
D17*
X166815000Y-91320000D03*
D18*
X162635000Y-91320000D03*
D19*
X182450000Y-102900000D03*
D20*
X213175000Y-95247500D03*
X212675000Y-95247500D03*
X212175000Y-95247500D03*
X211675000Y-95247500D03*
X211175000Y-95247500D03*
D21*
X210162500Y-96260000D03*
X210162500Y-96760000D03*
X210162500Y-97260000D03*
X210162500Y-97760000D03*
X210162500Y-98260000D03*
D20*
X211175000Y-99272500D03*
X211675000Y-99272500D03*
X212175000Y-99272500D03*
X212675000Y-99272500D03*
X213175000Y-99272500D03*
D21*
X214187500Y-98260000D03*
X214187500Y-97760000D03*
X214187500Y-97260000D03*
X214187500Y-96760000D03*
X214187500Y-96260000D03*
D22*
X212175000Y-97260000D03*
D13*
X171700000Y-121087500D03*
X171700000Y-119362500D03*
D23*
X180200000Y-121137500D03*
X180200000Y-119312500D03*
D24*
X206247500Y-95222500D03*
X204422500Y-95222500D03*
D19*
X176300000Y-83300000D03*
D25*
X164100000Y-125900000D03*
D26*
X216650000Y-62550000D03*
X216650000Y-69050000D03*
X212150000Y-62550000D03*
X212150000Y-69050000D03*
D23*
X178500000Y-121137500D03*
X178500000Y-119312500D03*
D24*
X206247500Y-99222500D03*
X204422500Y-99222500D03*
D27*
X195100000Y-99687500D03*
X195100000Y-101512500D03*
D11*
X183262500Y-82650000D03*
X181537500Y-82650000D03*
D26*
X214250000Y-115600000D03*
X220750000Y-115600000D03*
X214250000Y-120100000D03*
X220750000Y-120100000D03*
D28*
X216200000Y-92087500D03*
X216200000Y-89112500D03*
D23*
X176800000Y-121137500D03*
X176800000Y-119312500D03*
D29*
X193100000Y-99775000D03*
X193100000Y-101825000D03*
D23*
X175100000Y-121137500D03*
X175100000Y-119312500D03*
D30*
X202050000Y-106600000D03*
X203950000Y-106600000D03*
X203000000Y-103600000D03*
D31*
X220900000Y-106400000D03*
X220900000Y-108400000D03*
D24*
X206247500Y-91222500D03*
X204422500Y-91222500D03*
D32*
X214487500Y-84950000D03*
X216562500Y-84950000D03*
D19*
X219200000Y-112200000D03*
D25*
X223900000Y-125900000D03*
D33*
X223700000Y-102790000D03*
D34*
X223700000Y-100250000D03*
X223700000Y-97710000D03*
D31*
X223100000Y-106400000D03*
X223100000Y-108400000D03*
D27*
X179900000Y-93687500D03*
X179900000Y-95512500D03*
D35*
X172737500Y-86000000D03*
D36*
X171037500Y-86000000D03*
X171037500Y-88000000D03*
X172937500Y-88000000D03*
D24*
X214600000Y-103200000D03*
X212775000Y-103200000D03*
D37*
X225300000Y-108400000D03*
X225300000Y-106400000D03*
D38*
X214927500Y-111300000D03*
X216652500Y-111300000D03*
D39*
X185000000Y-67550000D03*
D40*
X176000000Y-46000000D03*
X176000000Y-55000000D03*
X176000000Y-64000000D03*
X185000000Y-46000000D03*
X185000000Y-55000000D03*
X194000000Y-46000000D03*
X194000000Y-55000000D03*
X194000000Y-64000000D03*
D24*
X177000000Y-87850000D03*
X175175000Y-87850000D03*
D41*
X212300000Y-80950000D03*
X212300000Y-82950000D03*
D42*
X216200000Y-95162500D03*
X216200000Y-97237500D03*
D43*
X219600000Y-77437500D03*
X219600000Y-79162500D03*
D24*
X172950000Y-89500000D03*
X171125000Y-89500000D03*
X177000000Y-86150000D03*
X175175000Y-86150000D03*
D44*
X206160000Y-101222500D03*
X204110000Y-101222500D03*
D11*
X183262500Y-80900000D03*
X181537500Y-80900000D03*
D44*
X206115000Y-97222500D03*
X204065000Y-97222500D03*
D19*
X200200000Y-91400000D03*
D24*
X203812500Y-109000000D03*
X201987500Y-109000000D03*
D45*
X200350000Y-103600000D03*
X198450000Y-103600000D03*
X199400000Y-106600000D03*
D46*
X215400000Y-48616000D03*
D47*
X212860000Y-48616000D03*
X215400000Y-51156000D03*
X212860000Y-51156000D03*
X215400000Y-53696000D03*
X212860000Y-53696000D03*
X215400000Y-56236000D03*
X212860000Y-56236000D03*
D23*
X211500000Y-120312500D03*
X211500000Y-118487500D03*
D48*
X213212500Y-92100000D03*
X211137500Y-92100000D03*
D49*
X214487500Y-72000000D03*
X216537500Y-72000000D03*
D50*
X214790000Y-109640000D03*
X215190000Y-109640000D03*
X215590000Y-109640000D03*
X215990000Y-109640000D03*
X216390000Y-109640000D03*
X216790000Y-109640000D03*
X216790000Y-105690000D03*
X216390000Y-105690000D03*
X215990000Y-105690000D03*
X215590000Y-105690000D03*
X215190000Y-105690000D03*
X214790000Y-105690000D03*
D51*
X214527500Y-108790000D03*
X217052500Y-108790000D03*
D52*
X215790000Y-107665000D03*
D51*
X214527500Y-106540000D03*
X217052500Y-106540000D03*
D53*
X185000000Y-82650000D03*
X185000000Y-80900000D03*
D32*
X214487500Y-76350000D03*
X216562500Y-76350000D03*
D25*
X218700000Y-34100000D03*
D54*
X218700000Y-97237500D03*
X218700000Y-95162500D03*
D43*
X208500000Y-114837500D03*
X208500000Y-116562500D03*
D11*
X169662500Y-95537500D03*
X167937500Y-95537500D03*
D46*
X202790000Y-82250000D03*
D47*
X200250000Y-82250000D03*
X197710000Y-82250000D03*
X195170000Y-82250000D03*
D55*
X188740000Y-105750000D03*
X209240000Y-105750000D03*
D44*
X206115000Y-93222500D03*
X204065000Y-93222500D03*
D43*
X193500000Y-116987500D03*
X193500000Y-118712500D03*
D56*
X215337500Y-80950000D03*
X215337500Y-81450000D03*
X215337500Y-81950000D03*
X215337500Y-82450000D03*
X215337500Y-82950000D03*
X217762500Y-82950000D03*
X217762500Y-82450000D03*
X217762500Y-81950000D03*
X217762500Y-81450000D03*
X217762500Y-80950000D03*
D57*
X216550000Y-81950000D03*
D19*
X182500000Y-100200000D03*
D27*
X178200000Y-93687500D03*
X178200000Y-95512500D03*
D58*
X214612500Y-74125000D03*
X216437500Y-74125000D03*
D24*
X172950000Y-84450000D03*
X171125000Y-84450000D03*
D11*
X203762500Y-110900000D03*
X202037500Y-110900000D03*
D59*
X197847500Y-109400000D03*
X197847500Y-109900000D03*
X197847500Y-110400000D03*
X197847500Y-110900000D03*
X200397500Y-110900000D03*
X200397500Y-110400000D03*
X200397500Y-109900000D03*
X200397500Y-109400000D03*
D60*
X199122500Y-110150000D03*
D13*
X218600000Y-107662500D03*
X218600000Y-105937500D03*
D61*
X218700000Y-103050000D03*
X218700000Y-99950000D03*
D43*
X211500000Y-114837500D03*
X211500000Y-116562500D03*
D23*
X181900000Y-121137500D03*
X181900000Y-119312500D03*
D13*
X196800000Y-101462500D03*
X196800000Y-99737500D03*
D62*
X167900000Y-115637500D03*
X169400000Y-115637500D03*
X170900000Y-115637500D03*
X172400000Y-115637500D03*
X173900000Y-115637500D03*
X175400000Y-115637500D03*
X176900000Y-115637500D03*
X178400000Y-115637500D03*
X179900000Y-115637500D03*
X179900000Y-98137500D03*
X178400000Y-98137500D03*
X176900000Y-98137500D03*
X175400000Y-98137500D03*
X173900000Y-98137500D03*
X172400000Y-98137500D03*
X170900000Y-98137500D03*
X169400000Y-98137500D03*
X167900000Y-98137500D03*
D63*
X173550000Y-107027500D03*
X174650000Y-107027500D03*
X173000000Y-106477500D03*
X174100000Y-106477500D03*
X175200000Y-106477500D03*
X173550000Y-105927500D03*
D64*
X174100000Y-105927500D03*
D63*
X174650000Y-105927500D03*
X173000000Y-105377500D03*
X174100000Y-105377500D03*
X175200000Y-105377500D03*
X173550000Y-104827500D03*
X174650000Y-104827500D03*
D38*
X174737500Y-126400000D03*
X176462500Y-126400000D03*
D26*
X190750000Y-120100000D03*
X184250000Y-120100000D03*
X190750000Y-115600000D03*
X184250000Y-115600000D03*
D65*
X222450000Y-89550000D03*
D66*
X222450000Y-92090000D03*
X222450000Y-87010000D03*
D25*
X223900000Y-80000000D03*
D54*
X169800000Y-121487500D03*
X169800000Y-119412500D03*
D32*
X214487500Y-78950000D03*
X216562500Y-78950000D03*
D23*
X173400000Y-121137500D03*
X173400000Y-119312500D03*
D24*
X214600000Y-101500000D03*
X212775000Y-101500000D03*
D26*
X199250000Y-115600000D03*
X205750000Y-115600000D03*
X199250000Y-120100000D03*
X205750000Y-120100000D03*
D11*
X213162500Y-60000000D03*
X211437500Y-60000000D03*
D67*
X172000000Y-93337500D03*
X172000000Y-95837500D03*
M02*
