G04 #@! TF.GenerationSoftware,KiCad,Pcbnew,9.0.2*
G04 #@! TF.CreationDate,2025-10-16T12:19:46-05:00*
G04 #@! TF.ProjectId,pocket-caddy,706f636b-6574-42d6-9361-6464792e6b69,rev?*
G04 #@! TF.SameCoordinates,Original*
G04 #@! TF.FileFunction,Paste,Top*
G04 #@! TF.FilePolarity,Positive*
%FSLAX46Y46*%
G04 Gerber Fmt 4.6, Leading zero omitted, Abs format (unit mm)*
G04 Created by KiCad (PCBNEW 9.0.2) date 2025-10-16 12:19:46*
%MOMM*%
%LPD*%
G01*
G04 APERTURE LIST*
G04 Aperture macros list*
%AMRoundRect*
0 Rectangle with rounded corners*
0 $1 Rounding radius*
0 $2 $3 $4 $5 $6 $7 $8 $9 X,Y pos of 4 corners*
0 Add a 4 corners polygon primitive as box body*
4,1,4,$2,$3,$4,$5,$6,$7,$8,$9,$2,$3,0*
0 Add four circle primitives for the rounded corners*
1,1,$1+$1,$2,$3*
1,1,$1+$1,$4,$5*
1,1,$1+$1,$6,$7*
1,1,$1+$1,$8,$9*
0 Add four rect primitives between the rounded corners*
20,1,$1+$1,$2,$3,$4,$5,0*
20,1,$1+$1,$4,$5,$6,$7,0*
20,1,$1+$1,$6,$7,$8,$9,0*
20,1,$1+$1,$8,$9,$2,$3,0*%
%AMFreePoly0*
4,1,21,-0.300000,0.050000,-0.296194,0.069134,-0.285355,0.085355,-0.269134,0.096194,-0.250000,0.100000,0.250000,0.100000,0.269134,0.096194,0.285355,0.085355,0.296194,0.069134,0.300000,0.050000,0.300000,-0.050000,0.296194,-0.069134,0.285355,-0.085355,0.269134,-0.096194,0.250000,-0.100000,-0.250000,-0.100000,-0.269134,-0.096194,-0.285355,-0.085355,-0.296194,-0.069134,-0.300000,-0.050000,
-0.300000,0.050000,-0.300000,0.050000,$1*%
%AMFreePoly1*
4,1,6,0.450000,-0.800000,-0.450000,-0.800000,-0.450000,0.530000,-0.180000,0.800000,0.450000,0.800000,0.450000,-0.800000,0.450000,-0.800000,$1*%
G04 Aperture macros list end*
%ADD10RoundRect,0.237500X0.300000X0.237500X-0.300000X0.237500X-0.300000X-0.237500X0.300000X-0.237500X0*%
%ADD11RoundRect,0.200000X-0.200000X0.700000X-0.200000X-0.700000X0.200000X-0.700000X0.200000X0.700000X0*%
%ADD12RoundRect,0.237500X0.237500X-0.300000X0.237500X0.300000X-0.237500X0.300000X-0.237500X-0.300000X0*%
%ADD13RoundRect,0.150000X-0.425000X0.150000X-0.425000X-0.150000X0.425000X-0.150000X0.425000X0.150000X0*%
%ADD14RoundRect,0.075000X-0.500000X0.075000X-0.500000X-0.075000X0.500000X-0.075000X0.500000X0.075000X0*%
%ADD15O,2.100000X1.000000*%
%ADD16O,1.800000X1.000000*%
%ADD17RoundRect,0.250000X-0.255000X0.255000X-0.255000X-0.255000X0.255000X-0.255000X0.255000X0.255000X0*%
%ADD18RoundRect,0.062500X-0.062500X0.350000X-0.062500X-0.350000X0.062500X-0.350000X0.062500X0.350000X0*%
%ADD19RoundRect,0.062500X-0.350000X0.062500X-0.350000X-0.062500X0.350000X-0.062500X0.350000X0.062500X0*%
%ADD20RoundRect,0.237500X0.250000X0.237500X-0.250000X0.237500X-0.250000X-0.237500X0.250000X-0.237500X0*%
%ADD21RoundRect,0.237500X-0.250000X-0.237500X0.250000X-0.237500X0.250000X0.237500X-0.250000X0.237500X0*%
%ADD22RoundRect,0.250001X0.624999X-0.462499X0.624999X0.462499X-0.624999X0.462499X-0.624999X-0.462499X0*%
%ADD23RoundRect,0.237500X0.237500X-0.250000X0.237500X0.250000X-0.237500X0.250000X-0.237500X-0.250000X0*%
%ADD24RoundRect,0.250000X0.325000X0.450000X-0.325000X0.450000X-0.325000X-0.450000X0.325000X-0.450000X0*%
%ADD25RoundRect,0.200000X0.200000X-0.750000X0.200000X0.750000X-0.200000X0.750000X-0.200000X-0.750000X0*%
%ADD26RoundRect,0.250000X0.450000X-0.350000X0.450000X0.350000X-0.450000X0.350000X-0.450000X-0.350000X0*%
%ADD27RoundRect,0.250000X-0.337500X-0.475000X0.337500X-0.475000X0.337500X0.475000X-0.337500X0.475000X0*%
%ADD28RoundRect,0.237500X-0.237500X0.250000X-0.237500X-0.250000X0.237500X-0.250000X0.237500X0.250000X0*%
%ADD29RoundRect,0.175000X-0.325000X0.175000X-0.325000X-0.175000X0.325000X-0.175000X0.325000X0.175000X0*%
%ADD30RoundRect,0.150000X-0.150000X0.200000X-0.150000X-0.200000X0.150000X-0.200000X0.150000X0.200000X0*%
%ADD31RoundRect,0.250000X-0.450000X0.350000X-0.450000X-0.350000X0.450000X-0.350000X0.450000X0.350000X0*%
%ADD32R,3.000000X1.000000*%
%ADD33RoundRect,0.250000X-0.475000X0.337500X-0.475000X-0.337500X0.475000X-0.337500X0.475000X0.337500X0*%
%ADD34RoundRect,0.237500X-0.237500X0.300000X-0.237500X-0.300000X0.237500X-0.300000X0.237500X0.300000X0*%
%ADD35RoundRect,0.200000X0.750000X0.200000X-0.750000X0.200000X-0.750000X-0.200000X0.750000X-0.200000X0*%
%ADD36RoundRect,0.250000X-0.325000X-0.450000X0.325000X-0.450000X0.325000X0.450000X-0.325000X0.450000X0*%
%ADD37RoundRect,0.050000X-0.137500X0.050000X-0.137500X-0.050000X0.137500X-0.050000X0.137500X0.050000X0*%
%ADD38RoundRect,0.270000X-0.605000X0.270000X-0.605000X-0.270000X0.605000X-0.270000X0.605000X0.270000X0*%
%ADD39FreePoly0,270.000000*%
%ADD40RoundRect,0.237500X0.237500X-0.287500X0.237500X0.287500X-0.237500X0.287500X-0.237500X-0.287500X0*%
%ADD41RoundRect,0.120000X-0.120000X-0.285000X0.120000X-0.285000X0.120000X0.285000X-0.120000X0.285000X0*%
%ADD42RoundRect,0.062500X-0.350000X-0.062500X0.350000X-0.062500X0.350000X0.062500X-0.350000X0.062500X0*%
%ADD43FreePoly1,0.000000*%
%ADD44R,0.750000X0.250000*%
%ADD45RoundRect,0.250000X-0.625000X0.400000X-0.625000X-0.400000X0.625000X-0.400000X0.625000X0.400000X0*%
%ADD46R,0.700000X0.700000*%
%ADD47R,0.900000X1.500000*%
%ADD48RoundRect,0.237500X-0.300000X-0.237500X0.300000X-0.237500X0.300000X0.237500X-0.300000X0.237500X0*%
%ADD49RoundRect,0.250000X0.475000X-0.337500X0.475000X0.337500X-0.475000X0.337500X-0.475000X-0.337500X0*%
%ADD50R,1.800000X1.000000*%
G04 APERTURE END LIST*
G36*
X173375000Y-43375000D02*
G01*
X178625000Y-43375000D01*
X178625000Y-48625000D01*
X173375000Y-48625000D01*
X173375000Y-43375000D01*
G37*
G36*
X173375000Y-52375000D02*
G01*
X178625000Y-52375000D01*
X178625000Y-57625000D01*
X173375000Y-57625000D01*
X173375000Y-52375000D01*
G37*
G36*
X173375000Y-61375000D02*
G01*
X178625000Y-61375000D01*
X178625000Y-66625000D01*
X173375000Y-66625000D01*
X173375000Y-61375000D01*
G37*
G36*
X182375000Y-43375000D02*
G01*
X187625000Y-43375000D01*
X187625000Y-48625000D01*
X182375000Y-48625000D01*
X182375000Y-43375000D01*
G37*
G36*
X182375000Y-52375000D02*
G01*
X187625000Y-52375000D01*
X187625000Y-57625000D01*
X182375000Y-57625000D01*
X182375000Y-52375000D01*
G37*
G36*
X184250000Y-66612500D02*
G01*
X185750000Y-66612500D01*
X185750000Y-68487500D01*
X184250000Y-68487500D01*
X184250000Y-66612500D01*
G37*
G36*
X191375000Y-43375000D02*
G01*
X196625000Y-43375000D01*
X196625000Y-48625000D01*
X191375000Y-48625000D01*
X191375000Y-43375000D01*
G37*
G36*
X191375000Y-52375000D02*
G01*
X196625000Y-52375000D01*
X196625000Y-57625000D01*
X191375000Y-57625000D01*
X191375000Y-52375000D01*
G37*
G36*
X191375000Y-61375000D02*
G01*
X196625000Y-61375000D01*
X196625000Y-66625000D01*
X191375000Y-66625000D01*
X191375000Y-61375000D01*
G37*
D10*
X169662500Y-93637500D03*
X167937500Y-93637500D03*
D11*
X197900000Y-85200000D03*
X196800000Y-85200000D03*
X195700000Y-85200000D03*
X194600000Y-85200000D03*
X193500000Y-85200000D03*
X192400000Y-85200000D03*
X191300000Y-85200000D03*
X188300000Y-85200000D03*
X187200000Y-85200000D03*
X186100000Y-85200000D03*
X185000000Y-85200000D03*
X183900000Y-85200000D03*
X183900000Y-97200000D03*
X185000000Y-97200000D03*
X186100000Y-97200000D03*
X187200000Y-97200000D03*
X188300000Y-97200000D03*
X191300000Y-97200000D03*
X192400000Y-97200000D03*
X193500000Y-97200000D03*
X194600000Y-97200000D03*
X195700000Y-97200000D03*
X196800000Y-97200000D03*
X197900000Y-97200000D03*
D12*
X167900000Y-121087500D03*
X167900000Y-119362500D03*
D13*
X167390000Y-83800000D03*
X167390000Y-84600000D03*
D14*
X167390000Y-85750000D03*
X167390000Y-86750000D03*
X167390000Y-87250000D03*
X167390000Y-88250000D03*
D13*
X167390000Y-89400000D03*
X167390000Y-90200000D03*
X167390000Y-90200000D03*
X167390000Y-89400000D03*
D14*
X167390000Y-88750000D03*
X167390000Y-87750000D03*
X167390000Y-86250000D03*
X167390000Y-85250000D03*
D13*
X167390000Y-84600000D03*
X167390000Y-83800000D03*
D15*
X166815000Y-82680000D03*
D16*
X162635000Y-82680000D03*
D15*
X166815000Y-91320000D03*
D16*
X162635000Y-91320000D03*
D17*
X214640000Y-96662500D03*
X213390000Y-96662500D03*
X214640000Y-97912500D03*
X213390000Y-97912500D03*
D18*
X215015000Y-95350000D03*
X214515000Y-95350000D03*
X214015000Y-95350000D03*
X213515000Y-95350000D03*
X213015000Y-95350000D03*
D19*
X212077500Y-96287500D03*
X212077500Y-96787500D03*
X212077500Y-97287500D03*
X212077500Y-97787500D03*
X212077500Y-98287500D03*
D18*
X213015000Y-99225000D03*
X213515000Y-99225000D03*
X214015000Y-99225000D03*
X214515000Y-99225000D03*
X215015000Y-99225000D03*
D19*
X215952500Y-98287500D03*
X215952500Y-97787500D03*
X215952500Y-97287500D03*
X215952500Y-96787500D03*
X215952500Y-96287500D03*
D20*
X199812500Y-82600000D03*
X197987500Y-82600000D03*
D12*
X171700000Y-121087500D03*
X171700000Y-119362500D03*
D20*
X209872500Y-97350000D03*
X208047500Y-97350000D03*
X209872500Y-101350000D03*
X208047500Y-101350000D03*
D21*
X193287500Y-103200000D03*
X195112500Y-103200000D03*
D10*
X183262500Y-82650000D03*
X181537500Y-82650000D03*
D22*
X221900000Y-87687500D03*
X221900000Y-84712500D03*
D23*
X176800000Y-121137500D03*
X176800000Y-119312500D03*
D24*
X199325000Y-103425000D03*
X197275000Y-103425000D03*
D23*
X175100000Y-121137500D03*
X175100000Y-119312500D03*
D25*
X200450000Y-97900000D03*
X202350000Y-97900000D03*
X201400000Y-94900000D03*
D26*
X220765500Y-108040000D03*
X220765500Y-106040000D03*
D20*
X209872500Y-93350000D03*
X208047500Y-93350000D03*
D27*
X214687500Y-81550000D03*
X216762500Y-81550000D03*
D26*
X222965500Y-108040000D03*
X222965500Y-106040000D03*
D28*
X179900000Y-93687500D03*
X179900000Y-95512500D03*
D29*
X172737500Y-86000000D03*
D30*
X171037500Y-86000000D03*
X171037500Y-88000000D03*
X172937500Y-88000000D03*
D23*
X211946250Y-103562500D03*
X211946250Y-101737500D03*
D31*
X225165500Y-106040000D03*
X225165500Y-108040000D03*
D10*
X218052500Y-103665000D03*
X216327500Y-103665000D03*
D20*
X177000000Y-87850000D03*
X175175000Y-87850000D03*
D32*
X212500000Y-77550000D03*
X212500000Y-79550000D03*
D33*
X218047500Y-95250000D03*
X218047500Y-97325000D03*
D34*
X219800000Y-74037500D03*
X219800000Y-75762500D03*
D20*
X172950000Y-89500000D03*
X171125000Y-89500000D03*
X177000000Y-86150000D03*
X175175000Y-86150000D03*
D24*
X209785000Y-103350000D03*
X207735000Y-103350000D03*
D10*
X183262500Y-80900000D03*
X181537500Y-80900000D03*
D24*
X209740000Y-99350000D03*
X207690000Y-99350000D03*
D20*
X206212500Y-108600000D03*
X204387500Y-108600000D03*
D35*
X196600000Y-101450000D03*
X196600000Y-99550000D03*
X193600000Y-100500000D03*
D27*
X220402500Y-94240000D03*
X222477500Y-94240000D03*
D36*
X214687500Y-68600000D03*
X216737500Y-68600000D03*
D37*
X218452500Y-106540000D03*
X215927500Y-106540000D03*
D38*
X217190000Y-107025000D03*
X217190000Y-108305000D03*
D37*
X218452500Y-108790000D03*
X215927500Y-108790000D03*
D39*
X218190000Y-105765000D03*
X217790000Y-105765000D03*
X217390000Y-105765000D03*
X216990000Y-105765000D03*
X216590000Y-105765000D03*
X216190000Y-105765000D03*
X216190000Y-109565000D03*
X216590000Y-109565000D03*
X216990000Y-109565000D03*
X217390000Y-109565000D03*
X217790000Y-109565000D03*
X218190000Y-109565000D03*
D40*
X185000000Y-82650000D03*
X185000000Y-80900000D03*
D27*
X214687500Y-72950000D03*
X216762500Y-72950000D03*
D33*
X218040000Y-99577500D03*
X218040000Y-101652500D03*
D34*
X208100000Y-116987500D03*
X208100000Y-118712500D03*
D10*
X169662500Y-95537500D03*
X167937500Y-95537500D03*
D24*
X209740000Y-95350000D03*
X207690000Y-95350000D03*
D34*
X193100000Y-116987500D03*
X193100000Y-118712500D03*
D41*
X216450000Y-78050000D03*
X216450000Y-79050000D03*
X217050000Y-78050000D03*
X217050000Y-79050000D03*
D42*
X215537500Y-77550000D03*
X215537500Y-78050000D03*
X215537500Y-78550000D03*
X215537500Y-79050000D03*
X215537500Y-79550000D03*
X217962500Y-79550000D03*
X217962500Y-79050000D03*
X217962500Y-78550000D03*
X217962500Y-78050000D03*
X217962500Y-77550000D03*
D21*
X214812500Y-70725000D03*
X216637500Y-70725000D03*
D20*
X172950000Y-84450000D03*
X171125000Y-84450000D03*
D10*
X206162500Y-110500000D03*
X204437500Y-110500000D03*
D43*
X201125000Y-109750000D03*
D44*
X199850000Y-109000000D03*
X199850000Y-109500000D03*
X199850000Y-110000000D03*
X199850000Y-110500000D03*
X202400000Y-110500000D03*
X202400000Y-110000000D03*
X202400000Y-109500000D03*
X202400000Y-109000000D03*
D45*
X214100000Y-107000000D03*
X214100000Y-110100000D03*
D12*
X211100000Y-118712500D03*
X211100000Y-116987500D03*
D46*
X173000000Y-107027500D03*
X174100000Y-107027500D03*
X175200000Y-107027500D03*
X173000000Y-105927500D03*
X174100000Y-105927500D03*
X175200000Y-105927500D03*
X173000000Y-104827500D03*
X174100000Y-104827500D03*
X175200000Y-104827500D03*
D47*
X167900000Y-115637500D03*
X169400000Y-115637500D03*
X170900000Y-115637500D03*
X172400000Y-115637500D03*
X173900000Y-115637500D03*
X175400000Y-115637500D03*
X176900000Y-115637500D03*
X178400000Y-115637500D03*
X179900000Y-115637500D03*
X179900000Y-98137500D03*
X178400000Y-98137500D03*
X176900000Y-98137500D03*
X175400000Y-98137500D03*
X173900000Y-98137500D03*
X172400000Y-98137500D03*
X170900000Y-98137500D03*
X169400000Y-98137500D03*
X167900000Y-98137500D03*
D48*
X174737500Y-126400000D03*
X176462500Y-126400000D03*
D20*
X199812500Y-80900000D03*
X197987500Y-80900000D03*
D49*
X169800000Y-121487500D03*
X169800000Y-119412500D03*
D27*
X214687500Y-75550000D03*
X216762500Y-75550000D03*
D23*
X173400000Y-121137500D03*
X173400000Y-119312500D03*
X213646250Y-103562500D03*
X213646250Y-101737500D03*
D10*
X213162500Y-56400000D03*
X211437500Y-56400000D03*
D50*
X172000000Y-93337500D03*
X172000000Y-95837500D03*
M02*
