G04 #@! TF.GenerationSoftware,KiCad,Pcbnew,9.0.2*
G04 #@! TF.CreationDate,2025-10-16T12:19:47-05:00*
G04 #@! TF.ProjectId,pocket-caddy,706f636b-6574-42d6-9361-6464792e6b69,rev?*
G04 #@! TF.SameCoordinates,Original*
G04 #@! TF.FileFunction,Legend,Bot*
G04 #@! TF.FilePolarity,Positive*
%FSLAX46Y46*%
G04 Gerber Fmt 4.6, Leading zero omitted, Abs format (unit mm)*
G04 Created by KiCad (PCBNEW 9.0.2) date 2025-10-16 12:19:47*
%MOMM*%
%LPD*%
G01*
G04 APERTURE LIST*
G04 Aperture macros list*
%AMRoundRect*
0 Rectangle with rounded corners*
0 $1 Rounding radius*
0 $2 $3 $4 $5 $6 $7 $8 $9 X,Y pos of 4 corners*
0 Add a 4 corners polygon primitive as box body*
4,1,4,$2,$3,$4,$5,$6,$7,$8,$9,$2,$3,0*
0 Add four circle primitives for the rounded corners*
1,1,$1+$1,$2,$3*
1,1,$1+$1,$4,$5*
1,1,$1+$1,$6,$7*
1,1,$1+$1,$8,$9*
0 Add four rect primitives between the rounded corners*
20,1,$1+$1,$2,$3,$4,$5,0*
20,1,$1+$1,$4,$5,$6,$7,0*
20,1,$1+$1,$6,$7,$8,$9,0*
20,1,$1+$1,$8,$9,$2,$3,0*%
%AMRotRect*
0 Rectangle, with rotation*
0 The origin of the aperture is its center*
0 $1 length*
0 $2 width*
0 $3 Rotation angle, in degrees counterclockwise*
0 Add horizontal line*
21,1,$1,$2,0,0,$3*%
G04 Aperture macros list end*
%ADD10C,0.100000*%
%ADD11C,0.150000*%
%ADD12C,0.120000*%
%ADD13C,0.650000*%
%ADD14O,2.100000X1.000000*%
%ADD15O,1.800000X1.000000*%
%ADD16C,6.400000*%
%ADD17C,2.000000*%
%ADD18R,1.700000X1.700000*%
%ADD19O,1.700000X1.700000*%
%ADD20RoundRect,0.250001X0.799999X-0.799999X0.799999X0.799999X-0.799999X0.799999X-0.799999X-0.799999X0*%
%ADD21C,2.100000*%
%ADD22C,1.700000*%
%ADD23R,1.500000X1.500000*%
%ADD24C,1.600000*%
%ADD25R,0.850000X1.100000*%
%ADD26R,0.750000X1.100000*%
%ADD27R,1.200000X1.000000*%
%ADD28R,1.550000X1.350000*%
%ADD29R,1.900000X1.350000*%
%ADD30R,1.170000X1.800000*%
%ADD31RotRect,5.100000X5.100000X225.000000*%
%ADD32C,17.800000*%
G04 APERTURE END LIST*
D10*
G36*
X212487303Y-110907663D02*
G01*
X212529427Y-110931940D01*
X212561863Y-110973092D01*
X212582792Y-111024346D01*
X212598102Y-111096959D01*
X212605460Y-111197124D01*
X212605460Y-111579333D01*
X212599640Y-111691540D01*
X212584638Y-111770577D01*
X212563420Y-111824431D01*
X212529729Y-111867715D01*
X212486405Y-111893089D01*
X212430246Y-111902008D01*
X212375860Y-111893370D01*
X212333475Y-111868706D01*
X212300095Y-111826537D01*
X212278729Y-111774034D01*
X212263446Y-111697550D01*
X212257048Y-111589591D01*
X212257048Y-111219655D01*
X212262760Y-111111845D01*
X212277669Y-111033801D01*
X212299088Y-110978770D01*
X212332888Y-110934176D01*
X212376224Y-110908189D01*
X212432261Y-110899086D01*
X212487303Y-110907663D01*
G37*
G36*
X215150135Y-111341929D02*
G01*
X214922622Y-111341929D01*
X214856462Y-111335133D01*
X214806311Y-111316603D01*
X214768383Y-111287616D01*
X214740549Y-111248381D01*
X214722979Y-111198805D01*
X214716634Y-111135941D01*
X214723016Y-111073104D01*
X214740746Y-111023188D01*
X214768933Y-110983350D01*
X214807206Y-110953663D01*
X214857235Y-110934815D01*
X214922622Y-110927937D01*
X215150135Y-110927937D01*
X215150135Y-111341929D01*
G37*
G36*
X217095958Y-112335114D02*
G01*
X209310225Y-112335114D01*
X209310225Y-111878561D01*
X209476892Y-111878561D01*
X209476892Y-112145000D01*
X210517916Y-112145000D01*
X210517916Y-111919594D01*
X210334460Y-111726886D01*
X210691756Y-111726886D01*
X210701722Y-111823928D01*
X210730463Y-111908165D01*
X210777767Y-111982318D01*
X210845446Y-112048096D01*
X210924722Y-112098909D01*
X211016811Y-112136410D01*
X211124021Y-112160080D01*
X211249180Y-112168447D01*
X211345656Y-112162069D01*
X211436025Y-112143315D01*
X211521297Y-112112393D01*
X211600142Y-112068911D01*
X211662770Y-112017240D01*
X211711348Y-111957146D01*
X211746942Y-111888507D01*
X211768462Y-111813771D01*
X211775828Y-111731374D01*
X211428515Y-111731374D01*
X211422460Y-111775163D01*
X211404428Y-111814699D01*
X211373194Y-111851359D01*
X211333746Y-111879326D01*
X211288850Y-111896179D01*
X211236906Y-111902008D01*
X211178093Y-111895855D01*
X211130386Y-111878584D01*
X211091368Y-111850809D01*
X211061312Y-111813718D01*
X211043300Y-111770732D01*
X211037055Y-111720017D01*
X211044435Y-111646447D01*
X211063921Y-111594636D01*
X211093475Y-111558817D01*
X211133611Y-111533361D01*
X211184531Y-111517095D01*
X211249180Y-111511189D01*
X211417249Y-111511189D01*
X211417249Y-111264993D01*
X211911749Y-111264993D01*
X211911749Y-111537110D01*
X211921581Y-111690062D01*
X211948881Y-111815969D01*
X211991230Y-111919431D01*
X212047487Y-112004224D01*
X212105282Y-112062550D01*
X212171082Y-112107782D01*
X212246003Y-112140709D01*
X212331694Y-112161249D01*
X212430246Y-112168447D01*
X212529595Y-112161197D01*
X212615906Y-112140517D01*
X212691297Y-112107378D01*
X212757445Y-112061875D01*
X212815478Y-112003217D01*
X212872089Y-111917880D01*
X212888228Y-111878561D01*
X213121484Y-111878561D01*
X213121484Y-112145000D01*
X214162508Y-112145000D01*
X214162508Y-112129612D01*
X214306764Y-112129612D01*
X214306764Y-112145000D01*
X214692088Y-112145000D01*
X214955412Y-111619633D01*
X215150135Y-111619633D01*
X215150135Y-112145000D01*
X215509721Y-112145000D01*
X215509721Y-111170196D01*
X215677150Y-111170196D01*
X216035820Y-111170196D01*
X216046653Y-111081499D01*
X216070280Y-111018278D01*
X216104422Y-110974099D01*
X216151149Y-110942767D01*
X216214944Y-110922165D01*
X216301160Y-110914474D01*
X216366254Y-110921305D01*
X216419176Y-110940504D01*
X216462569Y-110971414D01*
X216497989Y-111015132D01*
X216529886Y-111085570D01*
X216553041Y-111189075D01*
X216563476Y-111336342D01*
X216563476Y-111442130D01*
X216555026Y-111602525D01*
X216533525Y-111712100D01*
X216503576Y-111783948D01*
X216469180Y-111827908D01*
X216424905Y-111859451D01*
X216368665Y-111879403D01*
X216297038Y-111886621D01*
X216216392Y-111879243D01*
X216154646Y-111859162D01*
X216107536Y-111828094D01*
X216072456Y-111784625D01*
X216048632Y-111724434D01*
X216037835Y-111642165D01*
X215680172Y-111642165D01*
X215693100Y-111743832D01*
X215721225Y-111835080D01*
X215764253Y-111917670D01*
X215821715Y-111990634D01*
X215893029Y-112052140D01*
X215979950Y-112102776D01*
X216074583Y-112138590D01*
X216179680Y-112160759D01*
X216297038Y-112168447D01*
X216414374Y-112160090D01*
X216517323Y-112136161D01*
X216608159Y-112097702D01*
X216688702Y-112044813D01*
X216760214Y-111976655D01*
X216818131Y-111898407D01*
X216864596Y-111807292D01*
X216899359Y-111701349D01*
X216921463Y-111578152D01*
X216929291Y-111434894D01*
X216929291Y-111361072D01*
X216920234Y-111216295D01*
X216894354Y-111089066D01*
X216852996Y-110976847D01*
X216793653Y-110874018D01*
X216720653Y-110789912D01*
X216633177Y-110722407D01*
X216534137Y-110673147D01*
X216424278Y-110643042D01*
X216301160Y-110632648D01*
X216165923Y-110642514D01*
X216050128Y-110670478D01*
X215950548Y-110714998D01*
X215864637Y-110775805D01*
X215792264Y-110852526D01*
X215737052Y-110942258D01*
X215698409Y-111047143D01*
X215677150Y-111170196D01*
X215509721Y-111170196D01*
X215509721Y-110650233D01*
X214922622Y-110650233D01*
X214788709Y-110658728D01*
X214677260Y-110682425D01*
X214584582Y-110719351D01*
X214507623Y-110768569D01*
X214442844Y-110833017D01*
X214396701Y-110908585D01*
X214368122Y-110997487D01*
X214358055Y-111103060D01*
X214360514Y-111135941D01*
X214365730Y-111205683D01*
X214387227Y-111291093D01*
X214421070Y-111362354D01*
X214469140Y-111424663D01*
X214533905Y-111480183D01*
X214618265Y-111529050D01*
X214306764Y-112129612D01*
X214162508Y-112129612D01*
X214162508Y-111919594D01*
X213683029Y-111415935D01*
X213594304Y-111304856D01*
X213540810Y-111217646D01*
X213513610Y-111149392D01*
X213505709Y-111095549D01*
X213511080Y-111032682D01*
X213525585Y-110985076D01*
X213547749Y-110949278D01*
X213578920Y-110922024D01*
X213618667Y-110905149D01*
X213669657Y-110899086D01*
X213718947Y-110906524D01*
X213761001Y-110928362D01*
X213797793Y-110966131D01*
X213824498Y-111013010D01*
X213841116Y-111068105D01*
X213846977Y-111133376D01*
X214193283Y-111133376D01*
X214185580Y-111043781D01*
X214162789Y-110959749D01*
X214124681Y-110879944D01*
X214073053Y-110808187D01*
X214009907Y-110747893D01*
X213934080Y-110698227D01*
X213850581Y-110662130D01*
X213760211Y-110640168D01*
X213661505Y-110632648D01*
X213539517Y-110640713D01*
X213439135Y-110663121D01*
X213356639Y-110697932D01*
X213289004Y-110744297D01*
X213233164Y-110804363D01*
X213192757Y-110876049D01*
X213167402Y-110961712D01*
X213158395Y-111064683D01*
X213166558Y-111151446D01*
X213191185Y-111236233D01*
X213231432Y-111318892D01*
X213293126Y-111411263D01*
X213374779Y-111508810D01*
X213515967Y-111656453D01*
X213708583Y-111878561D01*
X213121484Y-111878561D01*
X212888228Y-111878561D01*
X212914601Y-111814310D01*
X212941940Y-111688867D01*
X212951766Y-111537110D01*
X212951766Y-111263985D01*
X212941933Y-111111029D01*
X212914631Y-110985139D01*
X212872282Y-110881711D01*
X212816028Y-110796962D01*
X212758206Y-110738638D01*
X212692305Y-110693386D01*
X212617199Y-110660427D01*
X212531219Y-110639858D01*
X212432261Y-110632648D01*
X212333373Y-110639889D01*
X212247373Y-110660555D01*
X212172164Y-110693694D01*
X212106090Y-110739230D01*
X212048037Y-110797970D01*
X211991465Y-110883251D01*
X211948950Y-110986923D01*
X211921589Y-111112672D01*
X211914678Y-111219655D01*
X211911749Y-111264993D01*
X211417249Y-111264993D01*
X211417249Y-111254002D01*
X211254309Y-111254002D01*
X211180584Y-111245444D01*
X211128474Y-111222587D01*
X211092197Y-111186960D01*
X211069163Y-111136346D01*
X211060594Y-111065324D01*
X211065990Y-111018264D01*
X211081402Y-110978908D01*
X211106755Y-110945523D01*
X211140218Y-110920512D01*
X211182720Y-110904771D01*
X211236906Y-110899086D01*
X211301512Y-110909181D01*
X211356250Y-110938837D01*
X211384953Y-110968202D01*
X211401435Y-111000723D01*
X211406991Y-111037755D01*
X211752289Y-111037755D01*
X211744855Y-110961458D01*
X211723052Y-110892099D01*
X211686710Y-110828103D01*
X211638283Y-110772064D01*
X211578188Y-110724208D01*
X211504810Y-110684305D01*
X211425797Y-110655910D01*
X211340932Y-110638577D01*
X211249180Y-110632648D01*
X211123775Y-110640741D01*
X211018864Y-110663378D01*
X210931098Y-110698775D01*
X210857719Y-110746129D01*
X210795621Y-110807909D01*
X210751714Y-110879070D01*
X210724734Y-110961479D01*
X210715295Y-111057997D01*
X210721724Y-111120278D01*
X210741086Y-111180415D01*
X210774280Y-111239530D01*
X210818082Y-111291456D01*
X210874603Y-111337597D01*
X210945830Y-111378016D01*
X210870654Y-111412772D01*
X210809138Y-111456478D01*
X210759442Y-111509266D01*
X210722515Y-111571009D01*
X210699741Y-111642725D01*
X210691756Y-111726886D01*
X210334460Y-111726886D01*
X210038437Y-111415935D01*
X209949712Y-111304856D01*
X209896218Y-111217646D01*
X209869018Y-111149392D01*
X209861117Y-111095549D01*
X209866489Y-111032682D01*
X209880994Y-110985076D01*
X209903157Y-110949278D01*
X209934328Y-110922024D01*
X209974075Y-110905149D01*
X210025065Y-110899086D01*
X210074355Y-110906524D01*
X210116409Y-110928362D01*
X210153201Y-110966131D01*
X210179907Y-111013010D01*
X210196524Y-111068105D01*
X210202385Y-111133376D01*
X210548691Y-111133376D01*
X210540988Y-111043781D01*
X210518197Y-110959749D01*
X210480089Y-110879944D01*
X210428461Y-110808187D01*
X210365315Y-110747893D01*
X210289488Y-110698227D01*
X210205989Y-110662130D01*
X210115619Y-110640168D01*
X210016913Y-110632648D01*
X209894926Y-110640713D01*
X209794543Y-110663121D01*
X209712047Y-110697932D01*
X209644412Y-110744297D01*
X209588572Y-110804363D01*
X209548165Y-110876049D01*
X209522811Y-110961712D01*
X209513804Y-111064683D01*
X209521967Y-111151446D01*
X209546593Y-111236233D01*
X209586840Y-111318892D01*
X209648534Y-111411263D01*
X209730187Y-111508810D01*
X209871375Y-111656453D01*
X210063991Y-111878561D01*
X209476892Y-111878561D01*
X209310225Y-111878561D01*
X209310225Y-110465981D01*
X217095958Y-110465981D01*
X217095958Y-112335114D01*
G37*
G36*
X185008651Y-127939528D02*
G01*
X185055776Y-127966437D01*
X185093124Y-128012462D01*
X185120847Y-128083649D01*
X185135908Y-128189399D01*
X185136915Y-128252414D01*
X185130364Y-128355475D01*
X185113323Y-128428852D01*
X185088738Y-128479743D01*
X185051728Y-128519718D01*
X185005285Y-128543589D01*
X184946314Y-128552008D01*
X184892313Y-128544803D01*
X184849068Y-128524360D01*
X184813916Y-128490324D01*
X184785984Y-128439658D01*
X184766345Y-128367134D01*
X184757820Y-128265878D01*
X184757820Y-128230707D01*
X184765230Y-128123852D01*
X184784605Y-128047575D01*
X184812826Y-127994486D01*
X184848642Y-127958938D01*
X184892907Y-127937622D01*
X184948421Y-127930105D01*
X185008651Y-127939528D01*
G37*
G36*
X182570442Y-128518303D02*
G01*
X182445420Y-128518303D01*
X182370032Y-128510888D01*
X182306782Y-128489843D01*
X182253187Y-128455807D01*
X182207650Y-128407844D01*
X182173968Y-128351561D01*
X182147995Y-128280343D01*
X182130910Y-128190934D01*
X182124668Y-128079490D01*
X182124668Y-128014735D01*
X182130908Y-127903833D01*
X182147986Y-127814853D01*
X182173957Y-127743968D01*
X182207650Y-127687938D01*
X182253146Y-127640409D01*
X182307302Y-127606492D01*
X182371854Y-127585402D01*
X182449450Y-127577937D01*
X182570442Y-127577937D01*
X182570442Y-128518303D01*
G37*
G36*
X189853918Y-128985114D02*
G01*
X181591179Y-128985114D01*
X181591179Y-128010614D01*
X181757846Y-128010614D01*
X181757846Y-128014735D01*
X181757846Y-128079398D01*
X181767861Y-128214102D01*
X181796956Y-128336099D01*
X181844491Y-128447503D01*
X181910390Y-128548520D01*
X181991243Y-128632896D01*
X182088306Y-128702126D01*
X182196333Y-128752960D01*
X182312663Y-128783967D01*
X182439283Y-128795000D01*
X182930028Y-128795000D01*
X182930028Y-127746648D01*
X183115409Y-127746648D01*
X183473988Y-127746648D01*
X183480716Y-127688043D01*
X183499513Y-127641663D01*
X183529858Y-127604682D01*
X183569856Y-127577447D01*
X183619363Y-127560347D01*
X183680983Y-127554215D01*
X183743938Y-127559540D01*
X183793774Y-127574192D01*
X183833208Y-127596988D01*
X183864675Y-127628670D01*
X183882831Y-127664326D01*
X183888987Y-127705524D01*
X183882750Y-127741133D01*
X183863306Y-127775490D01*
X183827529Y-127809938D01*
X183752963Y-127852865D01*
X183611374Y-127906658D01*
X183464615Y-127960928D01*
X183357209Y-128014002D01*
X183266232Y-128077356D01*
X183199324Y-128146541D01*
X183152896Y-128222065D01*
X183124981Y-128305386D01*
X183115409Y-128398777D01*
X183125096Y-128493694D01*
X183152859Y-128574906D01*
X183198277Y-128645281D01*
X183262962Y-128706614D01*
X183338627Y-128753128D01*
X183429310Y-128788044D01*
X183537862Y-128810433D01*
X183667703Y-128818447D01*
X183787208Y-128810900D01*
X183896190Y-128788978D01*
X183996148Y-128753326D01*
X184088660Y-128702772D01*
X184161508Y-128643298D01*
X184217432Y-128574723D01*
X184258325Y-128496245D01*
X184283169Y-128409817D01*
X184291713Y-128313505D01*
X183931027Y-128313505D01*
X183923144Y-128391229D01*
X183901893Y-128448676D01*
X183869020Y-128490826D01*
X183823952Y-128520349D01*
X183759104Y-128540284D01*
X183667703Y-128547887D01*
X183609337Y-128543071D01*
X183563222Y-128529842D01*
X183526836Y-128509327D01*
X183498221Y-128480331D01*
X183481097Y-128444877D01*
X183475087Y-128400883D01*
X183481629Y-128350771D01*
X183500194Y-128310428D01*
X183530957Y-128277510D01*
X183593465Y-128240049D01*
X184412430Y-128240049D01*
X184412430Y-128252414D01*
X184422365Y-128381798D01*
X184450464Y-128491677D01*
X184495185Y-128585435D01*
X184556411Y-128665673D01*
X184633063Y-128731350D01*
X184721859Y-128778658D01*
X184825179Y-128808093D01*
X184946314Y-128818447D01*
X185063093Y-128808812D01*
X185163564Y-128781350D01*
X185250648Y-128737173D01*
X185326509Y-128675931D01*
X185388438Y-128600603D01*
X185434997Y-128512686D01*
X185466299Y-128409946D01*
X185481206Y-128289417D01*
X185482213Y-128230799D01*
X185474689Y-128121122D01*
X185452953Y-128022715D01*
X185417733Y-127933860D01*
X185367886Y-127853015D01*
X185306366Y-127786780D01*
X185232261Y-127733642D01*
X185149007Y-127695483D01*
X185071253Y-127675940D01*
X185519491Y-127675940D01*
X185525719Y-127996600D01*
X185639384Y-127988449D01*
X185720173Y-127996221D01*
X185778562Y-128016921D01*
X185820179Y-128048417D01*
X185848486Y-128091214D01*
X185848486Y-128795000D01*
X186193784Y-128795000D01*
X186193784Y-128110356D01*
X186342345Y-128110356D01*
X186666211Y-128110356D01*
X186671481Y-128053805D01*
X186685875Y-128010231D01*
X186708251Y-127976725D01*
X186738924Y-127951121D01*
X186775847Y-127935574D01*
X186820908Y-127930105D01*
X186869466Y-127936799D01*
X186907816Y-127955741D01*
X186938493Y-127987321D01*
X186962209Y-128034572D01*
X186977712Y-128102663D01*
X186984856Y-128253422D01*
X186979060Y-128366766D01*
X186964590Y-128440974D01*
X186944923Y-128486979D01*
X186913519Y-128522707D01*
X186872244Y-128544284D01*
X186817794Y-128552008D01*
X186770907Y-128547117D01*
X186734115Y-128533577D01*
X186705137Y-128512075D01*
X186683685Y-128483118D01*
X186670497Y-128446702D01*
X186666211Y-128400608D01*
X186342345Y-128400608D01*
X186350832Y-128489692D01*
X186375380Y-128568152D01*
X186415719Y-128638140D01*
X186473046Y-128701119D01*
X186541405Y-128751470D01*
X186619048Y-128787897D01*
X186707708Y-128810529D01*
X186809643Y-128818447D01*
X186928646Y-128808115D01*
X186973852Y-128795000D01*
X187498316Y-128795000D01*
X187844622Y-128795000D01*
X188076530Y-128795000D01*
X188437216Y-128795000D01*
X188437216Y-128445946D01*
X188402320Y-127731444D01*
X188763005Y-128795000D01*
X189000776Y-128795000D01*
X189362469Y-127730345D01*
X189327664Y-128445946D01*
X189327664Y-128795000D01*
X189687251Y-128795000D01*
X189687251Y-127300233D01*
X189214916Y-127300233D01*
X188881891Y-128340250D01*
X188549873Y-127300233D01*
X188076530Y-127300233D01*
X188076530Y-128795000D01*
X187844622Y-128795000D01*
X187844622Y-127687114D01*
X187498316Y-127687114D01*
X187498316Y-128795000D01*
X186973852Y-128795000D01*
X187029775Y-128778776D01*
X187116377Y-128731633D01*
X187190845Y-128666131D01*
X187249526Y-128586539D01*
X187292858Y-128491798D01*
X187320357Y-128378935D01*
X187330155Y-128244171D01*
X187330155Y-128229699D01*
X187322869Y-128118607D01*
X187301934Y-128019933D01*
X187268239Y-127931845D01*
X187220171Y-127851459D01*
X187160842Y-127785771D01*
X187089453Y-127733184D01*
X187008889Y-127695319D01*
X186917407Y-127671856D01*
X186812757Y-127663667D01*
X186705366Y-127671967D01*
X186614118Y-127695453D01*
X186536205Y-127732855D01*
X186469474Y-127784109D01*
X186414854Y-127848187D01*
X186375481Y-127922463D01*
X186350970Y-128008935D01*
X186342345Y-128110356D01*
X186193784Y-128110356D01*
X186193784Y-127687114D01*
X185870010Y-127687114D01*
X185858653Y-127829446D01*
X185807835Y-127753375D01*
X185751319Y-127703013D01*
X185688172Y-127673651D01*
X185615845Y-127663667D01*
X185562493Y-127666943D01*
X185519491Y-127675940D01*
X185071253Y-127675940D01*
X185055112Y-127671883D01*
X184948421Y-127663667D01*
X184825726Y-127674197D01*
X184721552Y-127704081D01*
X184632455Y-127752034D01*
X184555953Y-127818547D01*
X184495124Y-127899668D01*
X184450519Y-127995000D01*
X184422397Y-128107283D01*
X184413131Y-128230707D01*
X184412430Y-128240049D01*
X183593465Y-128240049D01*
X183598746Y-128236884D01*
X183727145Y-128186102D01*
X183860455Y-128137311D01*
X183956673Y-128094694D01*
X184068737Y-128027830D01*
X184149147Y-127955937D01*
X184203624Y-127878865D01*
X184235753Y-127795220D01*
X184246650Y-127702501D01*
X184238450Y-127622146D01*
X184214442Y-127549695D01*
X184174385Y-127483324D01*
X184121194Y-127426134D01*
X184087934Y-127401808D01*
X187481921Y-127401808D01*
X187488000Y-127448627D01*
X187505603Y-127488377D01*
X187535227Y-127522800D01*
X187573144Y-127548408D01*
X187618573Y-127564265D01*
X187673530Y-127569877D01*
X187728426Y-127564269D01*
X187773861Y-127548415D01*
X187811832Y-127522800D01*
X187841456Y-127488377D01*
X187859059Y-127448627D01*
X187865138Y-127401808D01*
X187859057Y-127354992D01*
X187841453Y-127315274D01*
X187811832Y-127280908D01*
X187773854Y-127255239D01*
X187728420Y-127239356D01*
X187673530Y-127233738D01*
X187618580Y-127239360D01*
X187573150Y-127255246D01*
X187535227Y-127280908D01*
X187505606Y-127315274D01*
X187488002Y-127354992D01*
X187481921Y-127401808D01*
X184087934Y-127401808D01*
X184053813Y-127376852D01*
X183969953Y-127335496D01*
X183880398Y-127306681D01*
X183781804Y-127288826D01*
X183672832Y-127282648D01*
X183566784Y-127289360D01*
X183471137Y-127308765D01*
X183384412Y-127340167D01*
X183304365Y-127384768D01*
X183238838Y-127439176D01*
X183186117Y-127503840D01*
X183147089Y-127577412D01*
X183123493Y-127657764D01*
X183115409Y-127746648D01*
X182930028Y-127746648D01*
X182930028Y-127300233D01*
X182449450Y-127300233D01*
X182320034Y-127310548D01*
X182202216Y-127340631D01*
X182093893Y-127390084D01*
X181996496Y-127458098D01*
X181914768Y-127542095D01*
X181847513Y-127643700D01*
X181798632Y-127755769D01*
X181768594Y-127877410D01*
X181757846Y-128010614D01*
X181591179Y-128010614D01*
X181591179Y-127067071D01*
X189853918Y-127067071D01*
X189853918Y-128985114D01*
G37*
D11*
X180233333Y-115104819D02*
X180233333Y-115819104D01*
X180233333Y-115819104D02*
X180280952Y-115961961D01*
X180280952Y-115961961D02*
X180376190Y-116057200D01*
X180376190Y-116057200D02*
X180519047Y-116104819D01*
X180519047Y-116104819D02*
X180614285Y-116104819D01*
X179328571Y-115104819D02*
X179519047Y-115104819D01*
X179519047Y-115104819D02*
X179614285Y-115152438D01*
X179614285Y-115152438D02*
X179661904Y-115200057D01*
X179661904Y-115200057D02*
X179757142Y-115342914D01*
X179757142Y-115342914D02*
X179804761Y-115533390D01*
X179804761Y-115533390D02*
X179804761Y-115914342D01*
X179804761Y-115914342D02*
X179757142Y-116009580D01*
X179757142Y-116009580D02*
X179709523Y-116057200D01*
X179709523Y-116057200D02*
X179614285Y-116104819D01*
X179614285Y-116104819D02*
X179423809Y-116104819D01*
X179423809Y-116104819D02*
X179328571Y-116057200D01*
X179328571Y-116057200D02*
X179280952Y-116009580D01*
X179280952Y-116009580D02*
X179233333Y-115914342D01*
X179233333Y-115914342D02*
X179233333Y-115676247D01*
X179233333Y-115676247D02*
X179280952Y-115581009D01*
X179280952Y-115581009D02*
X179328571Y-115533390D01*
X179328571Y-115533390D02*
X179423809Y-115485771D01*
X179423809Y-115485771D02*
X179614285Y-115485771D01*
X179614285Y-115485771D02*
X179709523Y-115533390D01*
X179709523Y-115533390D02*
X179757142Y-115581009D01*
X179757142Y-115581009D02*
X179804761Y-115676247D01*
X188812016Y-106781027D02*
X188677329Y-106713683D01*
X188677329Y-106713683D02*
X188609986Y-106713683D01*
X188609986Y-106713683D02*
X188508970Y-106747355D01*
X188508970Y-106747355D02*
X188407955Y-106848370D01*
X188407955Y-106848370D02*
X188374283Y-106949386D01*
X188374283Y-106949386D02*
X188374283Y-107016729D01*
X188374283Y-107016729D02*
X188407955Y-107117744D01*
X188407955Y-107117744D02*
X188677329Y-107387118D01*
X188677329Y-107387118D02*
X189384436Y-106680012D01*
X189384436Y-106680012D02*
X189148734Y-106444309D01*
X189148734Y-106444309D02*
X189047718Y-106410638D01*
X189047718Y-106410638D02*
X188980375Y-106410638D01*
X188980375Y-106410638D02*
X188879360Y-106444309D01*
X188879360Y-106444309D02*
X188812016Y-106511653D01*
X188812016Y-106511653D02*
X188778344Y-106612668D01*
X188778344Y-106612668D02*
X188778344Y-106680012D01*
X188778344Y-106680012D02*
X188812016Y-106781027D01*
X188812016Y-106781027D02*
X189047718Y-107016729D01*
X188778344Y-106073920D02*
X188374283Y-105669859D01*
X187869207Y-106578996D02*
X188576314Y-105871890D01*
X188104909Y-105535172D02*
X188104909Y-105467828D01*
X188104909Y-105467828D02*
X188071237Y-105366813D01*
X188071237Y-105366813D02*
X187902879Y-105198454D01*
X187902879Y-105198454D02*
X187801863Y-105164783D01*
X187801863Y-105164783D02*
X187734520Y-105164783D01*
X187734520Y-105164783D02*
X187633505Y-105198454D01*
X187633505Y-105198454D02*
X187566161Y-105265798D01*
X187566161Y-105265798D02*
X187498818Y-105400485D01*
X187498818Y-105400485D02*
X187498818Y-106208607D01*
X187498818Y-106208607D02*
X187061085Y-105770874D01*
D12*
X168430000Y-117142500D02*
X171110000Y-117142500D01*
X168430000Y-117862500D02*
X168430000Y-117142500D01*
X168430000Y-121562500D02*
X168430000Y-119262500D01*
X168430000Y-127412500D02*
X168430000Y-122962500D01*
X169910000Y-128782500D02*
X170770000Y-128782500D01*
X173410000Y-117142500D02*
X177080000Y-117142500D01*
X179380000Y-117142500D02*
X180610000Y-117142500D01*
X180610000Y-117142500D02*
X180610000Y-126962500D01*
X186758080Y-103056891D02*
X191495695Y-98319276D01*
X187995517Y-111365396D02*
X191389629Y-107971283D01*
X191884604Y-115254483D02*
X187995517Y-111365396D01*
X195278717Y-111860371D02*
X191884604Y-115254483D01*
X201678033Y-88136938D02*
X196940418Y-92874553D01*
X205814608Y-112779609D02*
X197612169Y-114193823D01*
X206592425Y-92768487D02*
X209986538Y-89374375D01*
X209986538Y-89374375D02*
X213875625Y-93263462D01*
X211400751Y-107193466D02*
X205814608Y-112779609D01*
X212850320Y-98955672D02*
X211400751Y-107193466D01*
X213875625Y-93263462D02*
X210481513Y-96657575D01*
X191495695Y-98319276D02*
G75*
G02*
X196936826Y-92876074I9439877J-3995154D01*
G01*
%LPC*%
D13*
X166315000Y-84110000D03*
X166315000Y-89890000D03*
D14*
X166815000Y-82680000D03*
D15*
X162635000Y-82680000D03*
D14*
X166815000Y-91320000D03*
D15*
X162635000Y-91320000D03*
D16*
X164100000Y-125900000D03*
D17*
X216650000Y-58950000D03*
X216650000Y-65450000D03*
X212150000Y-58950000D03*
X212150000Y-65450000D03*
X213850000Y-115600000D03*
X220350000Y-115600000D03*
X213850000Y-120100000D03*
X220350000Y-120100000D03*
D18*
X183300000Y-100960000D03*
D19*
X183300000Y-103500000D03*
X183300000Y-106040000D03*
X183300000Y-108580000D03*
D16*
X223900000Y-125900000D03*
D20*
X223175000Y-102790000D03*
D21*
X223175000Y-100250000D03*
X223175000Y-97710000D03*
D18*
X213660000Y-89100000D03*
D22*
X216200000Y-89100000D03*
X218740000Y-89100000D03*
D18*
X215400000Y-44800000D03*
D22*
X212860000Y-44800000D03*
X215400000Y-47340000D03*
X212860000Y-47340000D03*
X215400000Y-49880000D03*
X212860000Y-49880000D03*
X215400000Y-52420000D03*
X212860000Y-52420000D03*
D16*
X218700000Y-34100000D03*
D17*
X190350000Y-120100000D03*
X183850000Y-120100000D03*
X190350000Y-115600000D03*
X183850000Y-115600000D03*
D23*
X214512500Y-84900000D03*
D24*
X217052500Y-84900000D03*
X211972500Y-84900000D03*
D16*
X223900000Y-80000000D03*
D17*
X198850000Y-115600000D03*
X205350000Y-115600000D03*
X198850000Y-120100000D03*
X205350000Y-120100000D03*
D25*
X171395000Y-128412500D03*
X172495000Y-128412500D03*
X173595000Y-128412500D03*
X174695000Y-128412500D03*
X175795000Y-128412500D03*
X176895000Y-128412500D03*
X177995000Y-128412500D03*
D26*
X179045000Y-128412500D03*
D27*
X168760000Y-122262500D03*
X168760000Y-118562500D03*
D28*
X168935000Y-128287500D03*
D29*
X172260000Y-117587500D03*
X178230000Y-117587500D03*
D30*
X180255000Y-128062500D03*
D31*
X209986538Y-93263462D03*
X191884604Y-111365396D03*
D32*
X200935571Y-102314429D03*
%LPD*%
M02*
