G04 #@! TF.GenerationSoftware,KiCad,Pcbnew,9.0.2*
G04 #@! TF.CreationDate,2025-10-16T12:19:46-05:00*
G04 #@! TF.ProjectId,pocket-caddy,706f636b-6574-42d6-9361-6464792e6b69,rev?*
G04 #@! TF.SameCoordinates,Original*
G04 #@! TF.FileFunction,Copper,L2,Inr*
G04 #@! TF.FilePolarity,Positive*
%FSLAX46Y46*%
G04 Gerber Fmt 4.6, Leading zero omitted, Abs format (unit mm)*
G04 Created by KiCad (PCBNEW 9.0.2) date 2025-10-16 12:19:46*
%MOMM*%
%LPD*%
G01*
G04 APERTURE LIST*
G04 Aperture macros list*
%AMRoundRect*
0 Rectangle with rounded corners*
0 $1 Rounding radius*
0 $2 $3 $4 $5 $6 $7 $8 $9 X,Y pos of 4 corners*
0 Add a 4 corners polygon primitive as box body*
4,1,4,$2,$3,$4,$5,$6,$7,$8,$9,$2,$3,0*
0 Add four circle primitives for the rounded corners*
1,1,$1+$1,$2,$3*
1,1,$1+$1,$4,$5*
1,1,$1+$1,$6,$7*
1,1,$1+$1,$8,$9*
0 Add four rect primitives between the rounded corners*
20,1,$1+$1,$2,$3,$4,$5,0*
20,1,$1+$1,$4,$5,$6,$7,0*
20,1,$1+$1,$6,$7,$8,$9,0*
20,1,$1+$1,$8,$9,$2,$3,0*%
G04 Aperture macros list end*
G04 #@! TA.AperFunction,HeatsinkPad*
%ADD10O,2.100000X1.000000*%
G04 #@! TD*
G04 #@! TA.AperFunction,HeatsinkPad*
%ADD11O,1.800000X1.000000*%
G04 #@! TD*
G04 #@! TA.AperFunction,ComponentPad*
%ADD12C,6.400000*%
G04 #@! TD*
G04 #@! TA.AperFunction,ComponentPad*
%ADD13C,2.000000*%
G04 #@! TD*
G04 #@! TA.AperFunction,ComponentPad*
%ADD14R,1.700000X1.700000*%
G04 #@! TD*
G04 #@! TA.AperFunction,ComponentPad*
%ADD15O,1.700000X1.700000*%
G04 #@! TD*
G04 #@! TA.AperFunction,ComponentPad*
%ADD16RoundRect,0.250001X0.799999X-0.799999X0.799999X0.799999X-0.799999X0.799999X-0.799999X-0.799999X0*%
G04 #@! TD*
G04 #@! TA.AperFunction,ComponentPad*
%ADD17C,2.100000*%
G04 #@! TD*
G04 #@! TA.AperFunction,ComponentPad*
%ADD18C,1.700000*%
G04 #@! TD*
G04 #@! TA.AperFunction,HeatsinkPad*
%ADD19C,0.500000*%
G04 #@! TD*
G04 #@! TA.AperFunction,HeatsinkPad*
%ADD20C,0.600000*%
G04 #@! TD*
G04 #@! TA.AperFunction,ComponentPad*
%ADD21R,1.500000X1.500000*%
G04 #@! TD*
G04 #@! TA.AperFunction,ComponentPad*
%ADD22C,1.600000*%
G04 #@! TD*
G04 #@! TA.AperFunction,ViaPad*
%ADD23C,0.600000*%
G04 #@! TD*
G04 APERTURE END LIST*
D10*
X166815000Y-82680000D03*
D11*
X162635000Y-82680000D03*
D10*
X166815000Y-91320000D03*
D11*
X162635000Y-91320000D03*
D12*
X164100000Y-125900000D03*
D13*
X216650000Y-58950000D03*
X216650000Y-65450000D03*
X212150000Y-58950000D03*
X212150000Y-65450000D03*
X213850000Y-115600000D03*
X220350000Y-115600000D03*
X213850000Y-120100000D03*
X220350000Y-120100000D03*
D14*
X183300000Y-100960000D03*
D15*
X183300000Y-103500000D03*
X183300000Y-106040000D03*
X183300000Y-108580000D03*
D12*
X223900000Y-125900000D03*
D16*
X223175000Y-102790000D03*
D17*
X223175000Y-100250000D03*
X223175000Y-97710000D03*
D14*
X213660000Y-89100000D03*
D18*
X216200000Y-89100000D03*
X218740000Y-89100000D03*
D14*
X215400000Y-44800000D03*
D18*
X212860000Y-44800000D03*
X215400000Y-47340000D03*
X212860000Y-47340000D03*
X215400000Y-49880000D03*
X212860000Y-49880000D03*
X215400000Y-52420000D03*
X212860000Y-52420000D03*
D19*
X217190000Y-106690000D03*
X217915000Y-107665000D03*
X217190000Y-107665000D03*
X216465000Y-107665000D03*
X217190000Y-108640000D03*
D12*
X218700000Y-34100000D03*
D20*
X173550000Y-107027500D03*
X174650000Y-107027500D03*
X173000000Y-106477500D03*
X174100000Y-106477500D03*
X175200000Y-106477500D03*
X173550000Y-105927500D03*
X174650000Y-105927500D03*
X173000000Y-105377500D03*
X174100000Y-105377500D03*
X175200000Y-105377500D03*
X173550000Y-104827500D03*
X174650000Y-104827500D03*
D13*
X190350000Y-120100000D03*
X183850000Y-120100000D03*
X190350000Y-115600000D03*
X183850000Y-115600000D03*
D21*
X214512500Y-84900000D03*
D22*
X217052500Y-84900000D03*
X211972500Y-84900000D03*
D12*
X223900000Y-80000000D03*
D13*
X198850000Y-115600000D03*
X205350000Y-115600000D03*
X198850000Y-120100000D03*
X205350000Y-120100000D03*
D23*
X161250000Y-52500000D03*
X201250000Y-72500000D03*
X188500000Y-83000000D03*
X168750000Y-57500000D03*
X181250000Y-32500000D03*
X174000000Y-101500000D03*
X216750000Y-77950000D03*
X193750000Y-77500000D03*
X202500000Y-101000000D03*
X190000000Y-95000000D03*
X208750000Y-47500000D03*
X221500000Y-73000000D03*
X206250000Y-52500000D03*
X182500000Y-70000000D03*
X191250000Y-72500000D03*
X208750000Y-57500000D03*
X183750000Y-37500000D03*
X188750000Y-37500000D03*
X163750000Y-77500000D03*
X193750000Y-37500000D03*
X225000000Y-90500000D03*
X203750000Y-67500000D03*
X203000000Y-89500000D03*
X180300000Y-117000000D03*
X202500000Y-84500000D03*
X209000000Y-83500000D03*
X173000000Y-102500000D03*
X173750000Y-77500000D03*
X224000000Y-86500000D03*
X224000000Y-85500000D03*
X175000000Y-102500000D03*
X198750000Y-77500000D03*
X172000000Y-101500000D03*
X170500000Y-123000000D03*
X194500000Y-83000000D03*
X208750000Y-77500000D03*
X182500000Y-73000000D03*
X193000000Y-105000000D03*
X188500000Y-93500000D03*
X213200000Y-68600000D03*
X221500000Y-76000000D03*
X196250000Y-72500000D03*
X221500000Y-75000000D03*
X187000000Y-83000000D03*
X213215000Y-97287500D03*
X198500000Y-107500000D03*
X171250000Y-72500000D03*
X182500000Y-76000000D03*
X221500000Y-74000000D03*
X214015000Y-98087500D03*
X194500000Y-107500000D03*
X198750000Y-67500000D03*
X195500000Y-108500000D03*
X201000000Y-86000000D03*
X166250000Y-62500000D03*
X168750000Y-77500000D03*
X198000000Y-89000000D03*
X224000000Y-89500000D03*
X167937500Y-94637500D03*
X168000000Y-101000000D03*
X191500000Y-83000000D03*
X223981989Y-88542564D03*
X168750000Y-37500000D03*
X163750000Y-57500000D03*
X171250000Y-62500000D03*
X187500000Y-70000000D03*
X168000000Y-110000000D03*
X213215000Y-98087500D03*
X206250000Y-62500000D03*
X186250000Y-32500000D03*
X178500000Y-89000000D03*
X208000000Y-106000000D03*
X208750000Y-37500000D03*
X224000000Y-84500000D03*
X216750000Y-78550000D03*
X168750000Y-67500000D03*
X161250000Y-42500000D03*
X171250000Y-52500000D03*
X171250000Y-32500000D03*
X206000000Y-86500000D03*
X161250000Y-62500000D03*
X191500000Y-95000000D03*
X178750000Y-77500000D03*
X201250000Y-52500000D03*
X166250000Y-32500000D03*
X207500000Y-85000000D03*
X168000000Y-107000000D03*
X161250000Y-72500000D03*
X168000000Y-104000000D03*
X205500000Y-81500000D03*
X197500000Y-108500000D03*
X190000000Y-83000000D03*
X188500000Y-95000000D03*
X166250000Y-42500000D03*
X176500000Y-91000000D03*
X175000000Y-100500000D03*
X187500000Y-79000000D03*
X203750000Y-37500000D03*
X176250000Y-32500000D03*
X202500000Y-104000000D03*
X185500000Y-93500000D03*
X184000000Y-93500000D03*
X218050000Y-94000000D03*
X184000000Y-95000000D03*
X182500000Y-74500000D03*
X224006869Y-87522481D03*
X190000000Y-93500000D03*
X204000000Y-102500000D03*
X171000000Y-102500000D03*
X168000000Y-108500000D03*
X198750000Y-47500000D03*
X206250000Y-72500000D03*
X201000000Y-102500000D03*
X171250000Y-42500000D03*
X171500000Y-123000000D03*
X193000000Y-95000000D03*
X193000000Y-83000000D03*
X214815000Y-98087500D03*
X201000000Y-101000000D03*
X182500000Y-79000000D03*
X198750000Y-57500000D03*
X206250000Y-32500000D03*
X193500000Y-106500000D03*
X214815000Y-96487500D03*
X187500000Y-77500000D03*
X168000000Y-102500000D03*
X214815000Y-97287500D03*
X187000000Y-95000000D03*
X163750000Y-37500000D03*
X191250000Y-32500000D03*
X203000000Y-107500000D03*
X203750000Y-57500000D03*
X201500000Y-107500000D03*
X208750000Y-67500000D03*
X203750000Y-77500000D03*
X166250000Y-72500000D03*
X204000000Y-83000000D03*
X199500000Y-87500000D03*
X187500000Y-71500000D03*
X163750000Y-47500000D03*
X214015000Y-97287500D03*
X168000000Y-105500000D03*
X201250000Y-42500000D03*
X216750000Y-79150000D03*
X201000000Y-104000000D03*
X187500000Y-73000000D03*
X163750000Y-67500000D03*
X198750000Y-37500000D03*
X166250000Y-52500000D03*
X226000000Y-91500000D03*
X173750000Y-37500000D03*
X196500000Y-109500000D03*
X177500000Y-90000000D03*
X176250000Y-72500000D03*
X176500000Y-92500000D03*
X201250000Y-62500000D03*
X174300000Y-84400000D03*
X166500000Y-121500000D03*
X178750000Y-37500000D03*
X204500000Y-88000000D03*
X185500000Y-95000000D03*
X193000000Y-93500000D03*
X168750000Y-47500000D03*
X206500000Y-107000000D03*
X187000000Y-93500000D03*
X203750000Y-47500000D03*
X201250000Y-32500000D03*
X205000000Y-107000000D03*
X182500000Y-77500000D03*
X214015000Y-96487500D03*
X200000000Y-107500000D03*
X204000000Y-104000000D03*
X176500000Y-94000000D03*
X171000000Y-100500000D03*
X213215000Y-96487500D03*
X161250000Y-32500000D03*
X197900000Y-98700000D03*
X204000000Y-101000000D03*
X222200000Y-95700000D03*
X187500000Y-74500000D03*
X196250000Y-32500000D03*
X187500000Y-76000000D03*
X176500000Y-95500000D03*
X206250000Y-42500000D03*
X176900000Y-127300000D03*
X173000000Y-100500000D03*
X202500000Y-102500000D03*
X191500000Y-93500000D03*
X182500000Y-71500000D03*
X205400000Y-93300000D03*
X216850000Y-97287500D03*
X214215000Y-94365000D03*
X211300000Y-70500000D03*
X213300000Y-71500000D03*
X211300000Y-75500000D03*
X167900000Y-112200000D03*
X213300000Y-75500000D03*
X211300000Y-71500000D03*
X167900000Y-114037500D03*
X217950000Y-74250000D03*
X213300000Y-73500000D03*
X178800000Y-93700000D03*
X211300000Y-73500000D03*
X213300000Y-70500000D03*
X201100000Y-82600000D03*
X212300000Y-70500000D03*
X201100000Y-80900000D03*
X213300000Y-72500000D03*
X203100000Y-93000000D03*
X213300000Y-74500000D03*
X216325000Y-102400000D03*
X211300000Y-74500000D03*
X212300000Y-71500000D03*
X212300000Y-75500000D03*
X178100000Y-121137500D03*
X214700000Y-74250000D03*
X174700000Y-127500000D03*
X208900000Y-110000000D03*
X212300000Y-73500000D03*
X211300000Y-72500000D03*
X212300000Y-72500000D03*
X212300000Y-74500000D03*
X167900000Y-113100000D03*
X169400000Y-113100000D03*
X178400000Y-100600000D03*
X176900000Y-100600000D03*
X173900000Y-114100000D03*
X173595000Y-125300000D03*
X176900000Y-122700000D03*
X175400000Y-114137500D03*
X174600000Y-113537500D03*
X175795000Y-124500000D03*
X172400000Y-114100000D03*
X172495000Y-126800000D03*
X172400000Y-99600000D03*
X191600000Y-101100000D03*
X220700000Y-109400000D03*
X196375735Y-111724265D03*
X218565000Y-104965000D03*
X197500000Y-111700000D03*
X188200000Y-103100000D03*
X217387703Y-104965000D03*
X212450000Y-95600000D03*
X188300000Y-86800000D03*
X170400000Y-96700000D03*
X166200000Y-85950000D03*
X166200000Y-87250000D03*
G04 #@! TA.AperFunction,Conductor*
G36*
X218703032Y-30500649D02*
G01*
X218764007Y-30503644D01*
X219046735Y-30517534D01*
X219058837Y-30518726D01*
X219396212Y-30568770D01*
X219408122Y-30571139D01*
X219738991Y-30654018D01*
X219750604Y-30657541D01*
X220014957Y-30752128D01*
X220071728Y-30772442D01*
X220082969Y-30777098D01*
X220291376Y-30875666D01*
X220391294Y-30922923D01*
X220402011Y-30928651D01*
X220694545Y-31103990D01*
X220704663Y-31110750D01*
X220978610Y-31313923D01*
X220988016Y-31321643D01*
X221240725Y-31550685D01*
X221249314Y-31559274D01*
X221309608Y-31625798D01*
X221478356Y-31811983D01*
X221486076Y-31821389D01*
X221689249Y-32095336D01*
X221696009Y-32105454D01*
X221871341Y-32397976D01*
X221877078Y-32408709D01*
X222022901Y-32717030D01*
X222027557Y-32728271D01*
X222142453Y-33049379D01*
X222145986Y-33061024D01*
X222228857Y-33391864D01*
X222231231Y-33403800D01*
X222281272Y-33741158D01*
X222282465Y-33753267D01*
X222299351Y-34096967D01*
X222299500Y-34103052D01*
X222299500Y-74914469D01*
X222332080Y-75141075D01*
X222332083Y-75141085D01*
X222396583Y-75360751D01*
X222491680Y-75568985D01*
X222491693Y-75569008D01*
X222615456Y-75761587D01*
X222615460Y-75761593D01*
X222765384Y-75934615D01*
X222938406Y-76084539D01*
X222938412Y-76084543D01*
X223130991Y-76208306D01*
X223131014Y-76208319D01*
X223339248Y-76303416D01*
X223339252Y-76303417D01*
X223339254Y-76303418D01*
X223558920Y-76367918D01*
X223558921Y-76367918D01*
X223558924Y-76367919D01*
X223626494Y-76377633D01*
X223785530Y-76400500D01*
X223834108Y-76400500D01*
X223896948Y-76400500D01*
X223903032Y-76400649D01*
X223964007Y-76403644D01*
X224246735Y-76417534D01*
X224258837Y-76418726D01*
X224596212Y-76468770D01*
X224608122Y-76471139D01*
X224938991Y-76554018D01*
X224950604Y-76557541D01*
X225214957Y-76652128D01*
X225271728Y-76672442D01*
X225282969Y-76677098D01*
X225501500Y-76780454D01*
X225591294Y-76822923D01*
X225602011Y-76828651D01*
X225894545Y-77003990D01*
X225904663Y-77010750D01*
X226178610Y-77213923D01*
X226188016Y-77221643D01*
X226440725Y-77450685D01*
X226449314Y-77459274D01*
X226509608Y-77525798D01*
X226678356Y-77711983D01*
X226686076Y-77721389D01*
X226889249Y-77995336D01*
X226896009Y-78005454D01*
X227071341Y-78297976D01*
X227077078Y-78308709D01*
X227222901Y-78617030D01*
X227227557Y-78628271D01*
X227342453Y-78949379D01*
X227345986Y-78961024D01*
X227428857Y-79291864D01*
X227431231Y-79303800D01*
X227481272Y-79641158D01*
X227482465Y-79653267D01*
X227499351Y-79996967D01*
X227499500Y-80003052D01*
X227499500Y-125896947D01*
X227499351Y-125903032D01*
X227482465Y-126246732D01*
X227481272Y-126258841D01*
X227431231Y-126596199D01*
X227428857Y-126608135D01*
X227345986Y-126938975D01*
X227342453Y-126950620D01*
X227227557Y-127271728D01*
X227222901Y-127282969D01*
X227077078Y-127591290D01*
X227071341Y-127602023D01*
X226896009Y-127894545D01*
X226889249Y-127904663D01*
X226686076Y-128178610D01*
X226678356Y-128188016D01*
X226449322Y-128440717D01*
X226440717Y-128449322D01*
X226188016Y-128678356D01*
X226178610Y-128686076D01*
X225904663Y-128889249D01*
X225894545Y-128896009D01*
X225602023Y-129071341D01*
X225591290Y-129077078D01*
X225282969Y-129222901D01*
X225271728Y-129227557D01*
X224950620Y-129342453D01*
X224938975Y-129345986D01*
X224608135Y-129428857D01*
X224596199Y-129431231D01*
X224258841Y-129481272D01*
X224246732Y-129482465D01*
X223903033Y-129499351D01*
X223896948Y-129499500D01*
X164103052Y-129499500D01*
X164096967Y-129499351D01*
X163753267Y-129482465D01*
X163741158Y-129481272D01*
X163403800Y-129431231D01*
X163391864Y-129428857D01*
X163061024Y-129345986D01*
X163049379Y-129342453D01*
X162728271Y-129227557D01*
X162717030Y-129222901D01*
X162408709Y-129077078D01*
X162397981Y-129071343D01*
X162105454Y-128896009D01*
X162095336Y-128889249D01*
X161821389Y-128686076D01*
X161811983Y-128678356D01*
X161771690Y-128641837D01*
X161559274Y-128449314D01*
X161550685Y-128440725D01*
X161321643Y-128188016D01*
X161313923Y-128178610D01*
X161271782Y-128121789D01*
X161110748Y-127904660D01*
X161103990Y-127894545D01*
X161094776Y-127879172D01*
X160928651Y-127602011D01*
X160922921Y-127591290D01*
X160912727Y-127569737D01*
X160842754Y-127421789D01*
X160777098Y-127282969D01*
X160772442Y-127271728D01*
X160739327Y-127179179D01*
X160657541Y-126950604D01*
X160654016Y-126938985D01*
X160599452Y-126721153D01*
X171694500Y-126721153D01*
X171694500Y-126878846D01*
X171725261Y-127033489D01*
X171725264Y-127033501D01*
X171785602Y-127179172D01*
X171785609Y-127179185D01*
X171873210Y-127310288D01*
X171873213Y-127310292D01*
X171984707Y-127421786D01*
X171984711Y-127421789D01*
X172115814Y-127509390D01*
X172115827Y-127509397D01*
X172261498Y-127569735D01*
X172261503Y-127569737D01*
X172369857Y-127591290D01*
X172416153Y-127600499D01*
X172416156Y-127600500D01*
X172416158Y-127600500D01*
X172573844Y-127600500D01*
X172573845Y-127600499D01*
X172728497Y-127569737D01*
X172874179Y-127509394D01*
X173005289Y-127421789D01*
X173005925Y-127421153D01*
X173899500Y-127421153D01*
X173899500Y-127578846D01*
X173930261Y-127733489D01*
X173930264Y-127733501D01*
X173990602Y-127879172D01*
X173990609Y-127879185D01*
X174078210Y-128010288D01*
X174078213Y-128010292D01*
X174189707Y-128121786D01*
X174189711Y-128121789D01*
X174320814Y-128209390D01*
X174320827Y-128209397D01*
X174466498Y-128269735D01*
X174466503Y-128269737D01*
X174621153Y-128300499D01*
X174621156Y-128300500D01*
X174621158Y-128300500D01*
X174778844Y-128300500D01*
X174778845Y-128300499D01*
X174933497Y-128269737D01*
X175079179Y-128209394D01*
X175210289Y-128121789D01*
X175321789Y-128010289D01*
X175409394Y-127879179D01*
X175469737Y-127733497D01*
X175500500Y-127578842D01*
X175500500Y-127421158D01*
X175500500Y-127421155D01*
X175500499Y-127421153D01*
X175478447Y-127310292D01*
X175469737Y-127266503D01*
X175433569Y-127179185D01*
X175409397Y-127120827D01*
X175409390Y-127120814D01*
X175321789Y-126989711D01*
X175321786Y-126989707D01*
X175210292Y-126878213D01*
X175210288Y-126878210D01*
X175079185Y-126790609D01*
X175079172Y-126790602D01*
X174933501Y-126730264D01*
X174933489Y-126730261D01*
X174778845Y-126699500D01*
X174778842Y-126699500D01*
X174621158Y-126699500D01*
X174621155Y-126699500D01*
X174466510Y-126730261D01*
X174466498Y-126730264D01*
X174320827Y-126790602D01*
X174320814Y-126790609D01*
X174189711Y-126878210D01*
X174189707Y-126878213D01*
X174078213Y-126989707D01*
X174078210Y-126989711D01*
X173990609Y-127120814D01*
X173990602Y-127120827D01*
X173930264Y-127266498D01*
X173930261Y-127266510D01*
X173899500Y-127421153D01*
X173005925Y-127421153D01*
X173099694Y-127327385D01*
X173116786Y-127310292D01*
X173116789Y-127310289D01*
X173204394Y-127179179D01*
X173264737Y-127033497D01*
X173295500Y-126878842D01*
X173295500Y-126721158D01*
X173295500Y-126721155D01*
X173295499Y-126721153D01*
X173264738Y-126566510D01*
X173264737Y-126566503D01*
X173237629Y-126501058D01*
X173204397Y-126420827D01*
X173204390Y-126420814D01*
X173116789Y-126289711D01*
X173116786Y-126289707D01*
X173005292Y-126178213D01*
X173005288Y-126178210D01*
X172874185Y-126090609D01*
X172874172Y-126090602D01*
X172728501Y-126030264D01*
X172728489Y-126030261D01*
X172573845Y-125999500D01*
X172573842Y-125999500D01*
X172416158Y-125999500D01*
X172416155Y-125999500D01*
X172261510Y-126030261D01*
X172261498Y-126030264D01*
X172115827Y-126090602D01*
X172115814Y-126090609D01*
X171984711Y-126178210D01*
X171984707Y-126178213D01*
X171873213Y-126289707D01*
X171873210Y-126289711D01*
X171785609Y-126420814D01*
X171785602Y-126420827D01*
X171725264Y-126566498D01*
X171725261Y-126566510D01*
X171694500Y-126721153D01*
X160599452Y-126721153D01*
X160571139Y-126608122D01*
X160568770Y-126596212D01*
X160518726Y-126258837D01*
X160517534Y-126246731D01*
X160500649Y-125903031D01*
X160500500Y-125896947D01*
X160500500Y-125221153D01*
X172794500Y-125221153D01*
X172794500Y-125378846D01*
X172825261Y-125533489D01*
X172825264Y-125533501D01*
X172885602Y-125679172D01*
X172885609Y-125679185D01*
X172973210Y-125810288D01*
X172973213Y-125810292D01*
X173084707Y-125921786D01*
X173084711Y-125921789D01*
X173215814Y-126009390D01*
X173215827Y-126009397D01*
X173361498Y-126069735D01*
X173361503Y-126069737D01*
X173516153Y-126100499D01*
X173516156Y-126100500D01*
X173516158Y-126100500D01*
X173673844Y-126100500D01*
X173673845Y-126100499D01*
X173828497Y-126069737D01*
X173974179Y-126009394D01*
X174105289Y-125921789D01*
X174216789Y-125810289D01*
X174304394Y-125679179D01*
X174364737Y-125533497D01*
X174395500Y-125378842D01*
X174395500Y-125221158D01*
X174395500Y-125221155D01*
X174395499Y-125221153D01*
X174375734Y-125121789D01*
X174364737Y-125066503D01*
X174341452Y-125010288D01*
X174304397Y-124920827D01*
X174304390Y-124920814D01*
X174216789Y-124789711D01*
X174216786Y-124789707D01*
X174105292Y-124678213D01*
X174105288Y-124678210D01*
X173974185Y-124590609D01*
X173974172Y-124590602D01*
X173828501Y-124530264D01*
X173828489Y-124530261D01*
X173673845Y-124499500D01*
X173673842Y-124499500D01*
X173516158Y-124499500D01*
X173516155Y-124499500D01*
X173361510Y-124530261D01*
X173361498Y-124530264D01*
X173215827Y-124590602D01*
X173215814Y-124590609D01*
X173084711Y-124678210D01*
X173084707Y-124678213D01*
X172973213Y-124789707D01*
X172973210Y-124789711D01*
X172885609Y-124920814D01*
X172885602Y-124920827D01*
X172825264Y-125066498D01*
X172825261Y-125066510D01*
X172794500Y-125221153D01*
X160500500Y-125221153D01*
X160500500Y-124421153D01*
X174994500Y-124421153D01*
X174994500Y-124578846D01*
X175025261Y-124733489D01*
X175025264Y-124733501D01*
X175085602Y-124879172D01*
X175085609Y-124879185D01*
X175173210Y-125010288D01*
X175173213Y-125010292D01*
X175284707Y-125121786D01*
X175284711Y-125121789D01*
X175415814Y-125209390D01*
X175415827Y-125209397D01*
X175561498Y-125269735D01*
X175561503Y-125269737D01*
X175716153Y-125300499D01*
X175716156Y-125300500D01*
X175716158Y-125300500D01*
X175873844Y-125300500D01*
X175873845Y-125300499D01*
X176028497Y-125269737D01*
X176174179Y-125209394D01*
X176305289Y-125121789D01*
X176416789Y-125010289D01*
X176504394Y-124879179D01*
X176564737Y-124733497D01*
X176595500Y-124578842D01*
X176595500Y-124421158D01*
X176595500Y-124421155D01*
X176595499Y-124421153D01*
X176564738Y-124266510D01*
X176564737Y-124266503D01*
X176564735Y-124266498D01*
X176504397Y-124120827D01*
X176504390Y-124120814D01*
X176416789Y-123989711D01*
X176416786Y-123989707D01*
X176305292Y-123878213D01*
X176305288Y-123878210D01*
X176174185Y-123790609D01*
X176174172Y-123790602D01*
X176028501Y-123730264D01*
X176028489Y-123730261D01*
X175873845Y-123699500D01*
X175873842Y-123699500D01*
X175716158Y-123699500D01*
X175716155Y-123699500D01*
X175561510Y-123730261D01*
X175561498Y-123730264D01*
X175415827Y-123790602D01*
X175415814Y-123790609D01*
X175284711Y-123878210D01*
X175284707Y-123878213D01*
X175173213Y-123989707D01*
X175173210Y-123989711D01*
X175085609Y-124120814D01*
X175085602Y-124120827D01*
X175025264Y-124266498D01*
X175025261Y-124266510D01*
X174994500Y-124421153D01*
X160500500Y-124421153D01*
X160500500Y-122621153D01*
X176099500Y-122621153D01*
X176099500Y-122778846D01*
X176130261Y-122933489D01*
X176130264Y-122933501D01*
X176190602Y-123079172D01*
X176190609Y-123079185D01*
X176278210Y-123210288D01*
X176278213Y-123210292D01*
X176389707Y-123321786D01*
X176389711Y-123321789D01*
X176520814Y-123409390D01*
X176520827Y-123409397D01*
X176666498Y-123469735D01*
X176666503Y-123469737D01*
X176821153Y-123500499D01*
X176821156Y-123500500D01*
X176821158Y-123500500D01*
X176978844Y-123500500D01*
X176978845Y-123500499D01*
X177133497Y-123469737D01*
X177279179Y-123409394D01*
X177410289Y-123321789D01*
X177521789Y-123210289D01*
X177609394Y-123079179D01*
X177669737Y-122933497D01*
X177700500Y-122778842D01*
X177700500Y-122621158D01*
X177700500Y-122621155D01*
X177700499Y-122621153D01*
X177669738Y-122466510D01*
X177669737Y-122466503D01*
X177669735Y-122466498D01*
X177609397Y-122320827D01*
X177609390Y-122320814D01*
X177521789Y-122189711D01*
X177521786Y-122189707D01*
X177410292Y-122078213D01*
X177410288Y-122078210D01*
X177279185Y-121990609D01*
X177279172Y-121990602D01*
X177133501Y-121930264D01*
X177133489Y-121930261D01*
X176978845Y-121899500D01*
X176978842Y-121899500D01*
X176821158Y-121899500D01*
X176821155Y-121899500D01*
X176666510Y-121930261D01*
X176666498Y-121930264D01*
X176520827Y-121990602D01*
X176520814Y-121990609D01*
X176389711Y-122078210D01*
X176389707Y-122078213D01*
X176278213Y-122189707D01*
X176278210Y-122189711D01*
X176190609Y-122320814D01*
X176190602Y-122320827D01*
X176130264Y-122466498D01*
X176130261Y-122466510D01*
X176099500Y-122621153D01*
X160500500Y-122621153D01*
X160500500Y-121906961D01*
X160501280Y-121893077D01*
X160511459Y-121802731D01*
X160517635Y-121775670D01*
X160545353Y-121696456D01*
X160557396Y-121671450D01*
X160602046Y-121600389D01*
X160619351Y-121578690D01*
X160678690Y-121519351D01*
X160700389Y-121502046D01*
X160771450Y-121457396D01*
X160796456Y-121445353D01*
X160875670Y-121417635D01*
X160902733Y-121411459D01*
X160965419Y-121404396D01*
X160993079Y-121401280D01*
X161006962Y-121400500D01*
X165607317Y-121400500D01*
X165607318Y-121400500D01*
X165789612Y-121374290D01*
X165819764Y-121369955D01*
X165819765Y-121369954D01*
X165819769Y-121369954D01*
X166025710Y-121309484D01*
X166025713Y-121309482D01*
X166025715Y-121309482D01*
X166220938Y-121220327D01*
X166220944Y-121220323D01*
X166220950Y-121220321D01*
X166401513Y-121104281D01*
X166454170Y-121058653D01*
X177299500Y-121058653D01*
X177299500Y-121216346D01*
X177330261Y-121370989D01*
X177330264Y-121371001D01*
X177390602Y-121516672D01*
X177390609Y-121516685D01*
X177478210Y-121647788D01*
X177478213Y-121647792D01*
X177589707Y-121759286D01*
X177589711Y-121759289D01*
X177720814Y-121846890D01*
X177720827Y-121846897D01*
X177866498Y-121907235D01*
X177866503Y-121907237D01*
X177982252Y-121930261D01*
X178021153Y-121937999D01*
X178021156Y-121938000D01*
X178021158Y-121938000D01*
X178178844Y-121938000D01*
X178178845Y-121937999D01*
X178333497Y-121907237D01*
X178479179Y-121846894D01*
X178610289Y-121759289D01*
X178721789Y-121647789D01*
X178809394Y-121516679D01*
X178869737Y-121370997D01*
X178893565Y-121251207D01*
X178900500Y-121216344D01*
X178900500Y-121058655D01*
X178900499Y-121058653D01*
X178888531Y-120998487D01*
X178869737Y-120904003D01*
X178862350Y-120886169D01*
X178809397Y-120758327D01*
X178809390Y-120758314D01*
X178721789Y-120627211D01*
X178721786Y-120627207D01*
X178610292Y-120515713D01*
X178610288Y-120515710D01*
X178479185Y-120428109D01*
X178479172Y-120428102D01*
X178333501Y-120367764D01*
X178333489Y-120367761D01*
X178178845Y-120337000D01*
X178178842Y-120337000D01*
X178021158Y-120337000D01*
X178021155Y-120337000D01*
X177866510Y-120367761D01*
X177866498Y-120367764D01*
X177720827Y-120428102D01*
X177720814Y-120428109D01*
X177589711Y-120515710D01*
X177589707Y-120515713D01*
X177478213Y-120627207D01*
X177478210Y-120627211D01*
X177390609Y-120758314D01*
X177390602Y-120758327D01*
X177330264Y-120903998D01*
X177330261Y-120904010D01*
X177299500Y-121058653D01*
X166454170Y-121058653D01*
X166563724Y-120963724D01*
X166592972Y-120929969D01*
X166593335Y-120929558D01*
X166622459Y-120911164D01*
X166651467Y-120892523D01*
X166652128Y-120892427D01*
X166652410Y-120892250D01*
X166653315Y-120892257D01*
X166686402Y-120887500D01*
X166800000Y-120887500D01*
X166800000Y-120688980D01*
X166818747Y-120625135D01*
X166818199Y-120624836D01*
X166819574Y-120622316D01*
X166819685Y-120621941D01*
X166819687Y-120621937D01*
X166820318Y-120620954D01*
X166820321Y-120620950D01*
X166820324Y-120620942D01*
X166820327Y-120620938D01*
X166909482Y-120425715D01*
X166909482Y-120425713D01*
X166909484Y-120425710D01*
X166969954Y-120219769D01*
X167000500Y-120007318D01*
X167000500Y-119981947D01*
X182350000Y-119981947D01*
X182350000Y-120218052D01*
X182386934Y-120451247D01*
X182459897Y-120675802D01*
X182567087Y-120886174D01*
X182627338Y-120969104D01*
X182627340Y-120969105D01*
X183326212Y-120270233D01*
X183337482Y-120312292D01*
X183409890Y-120437708D01*
X183512292Y-120540110D01*
X183637708Y-120612518D01*
X183679765Y-120623787D01*
X182980893Y-121322658D01*
X183063828Y-121382914D01*
X183274197Y-121490102D01*
X183498752Y-121563065D01*
X183498751Y-121563065D01*
X183731948Y-121600000D01*
X183968052Y-121600000D01*
X184201247Y-121563065D01*
X184425802Y-121490102D01*
X184636163Y-121382918D01*
X184636169Y-121382914D01*
X184719104Y-121322658D01*
X184719105Y-121322658D01*
X184020233Y-120623787D01*
X184062292Y-120612518D01*
X184187708Y-120540110D01*
X184290110Y-120437708D01*
X184362518Y-120312292D01*
X184373787Y-120270234D01*
X185072658Y-120969105D01*
X185072658Y-120969104D01*
X185132914Y-120886169D01*
X185132918Y-120886163D01*
X185240102Y-120675802D01*
X185313065Y-120451247D01*
X185350000Y-120218052D01*
X185350000Y-119981947D01*
X188850000Y-119981947D01*
X188850000Y-120218052D01*
X188886934Y-120451247D01*
X188959897Y-120675802D01*
X189067087Y-120886174D01*
X189127338Y-120969104D01*
X189127340Y-120969105D01*
X189826212Y-120270233D01*
X189837482Y-120312292D01*
X189909890Y-120437708D01*
X190012292Y-120540110D01*
X190137708Y-120612518D01*
X190179765Y-120623787D01*
X189480893Y-121322658D01*
X189563828Y-121382914D01*
X189774197Y-121490102D01*
X189998752Y-121563065D01*
X189998751Y-121563065D01*
X190231948Y-121600000D01*
X190468052Y-121600000D01*
X190701247Y-121563065D01*
X190925802Y-121490102D01*
X191136163Y-121382918D01*
X191136169Y-121382914D01*
X191219104Y-121322658D01*
X191219105Y-121322658D01*
X190520233Y-120623787D01*
X190562292Y-120612518D01*
X190687708Y-120540110D01*
X190790110Y-120437708D01*
X190862518Y-120312292D01*
X190873787Y-120270233D01*
X191572658Y-120969105D01*
X191572658Y-120969104D01*
X191632914Y-120886169D01*
X191632918Y-120886163D01*
X191740102Y-120675802D01*
X191813065Y-120451247D01*
X191850000Y-120218052D01*
X191850000Y-119981947D01*
X197350000Y-119981947D01*
X197350000Y-120218052D01*
X197386934Y-120451247D01*
X197459897Y-120675802D01*
X197567087Y-120886174D01*
X197627338Y-120969104D01*
X197627340Y-120969105D01*
X198326212Y-120270233D01*
X198337482Y-120312292D01*
X198409890Y-120437708D01*
X198512292Y-120540110D01*
X198637708Y-120612518D01*
X198679765Y-120623787D01*
X197980893Y-121322658D01*
X198063828Y-121382914D01*
X198274197Y-121490102D01*
X198498752Y-121563065D01*
X198498751Y-121563065D01*
X198731948Y-121600000D01*
X198968052Y-121600000D01*
X199201247Y-121563065D01*
X199425802Y-121490102D01*
X199636163Y-121382918D01*
X199636169Y-121382914D01*
X199719104Y-121322658D01*
X199719105Y-121322658D01*
X199020233Y-120623787D01*
X199062292Y-120612518D01*
X199187708Y-120540110D01*
X199290110Y-120437708D01*
X199362518Y-120312292D01*
X199373787Y-120270233D01*
X200072658Y-120969105D01*
X200072658Y-120969104D01*
X200132914Y-120886169D01*
X200132918Y-120886163D01*
X200240102Y-120675802D01*
X200313065Y-120451247D01*
X200350000Y-120218052D01*
X200350000Y-119981947D01*
X203850000Y-119981947D01*
X203850000Y-120218052D01*
X203886934Y-120451247D01*
X203959897Y-120675802D01*
X204067087Y-120886174D01*
X204127338Y-120969104D01*
X204127340Y-120969105D01*
X204826212Y-120270233D01*
X204837482Y-120312292D01*
X204909890Y-120437708D01*
X205012292Y-120540110D01*
X205137708Y-120612518D01*
X205179765Y-120623787D01*
X204480893Y-121322658D01*
X204563828Y-121382914D01*
X204774197Y-121490102D01*
X204998752Y-121563065D01*
X204998751Y-121563065D01*
X205231948Y-121600000D01*
X205468052Y-121600000D01*
X205701247Y-121563065D01*
X205925802Y-121490102D01*
X206136163Y-121382918D01*
X206136169Y-121382914D01*
X206219104Y-121322658D01*
X206219105Y-121322658D01*
X205520233Y-120623787D01*
X205562292Y-120612518D01*
X205687708Y-120540110D01*
X205790110Y-120437708D01*
X205862518Y-120312292D01*
X205873787Y-120270233D01*
X206572658Y-120969105D01*
X206572658Y-120969104D01*
X206632914Y-120886169D01*
X206632918Y-120886163D01*
X206740102Y-120675802D01*
X206813065Y-120451247D01*
X206850000Y-120218052D01*
X206850000Y-119981947D01*
X212350000Y-119981947D01*
X212350000Y-120218052D01*
X212386934Y-120451247D01*
X212459897Y-120675802D01*
X212567087Y-120886174D01*
X212627338Y-120969104D01*
X212627340Y-120969105D01*
X213326212Y-120270233D01*
X213337482Y-120312292D01*
X213409890Y-120437708D01*
X213512292Y-120540110D01*
X213637708Y-120612518D01*
X213679765Y-120623787D01*
X212980893Y-121322658D01*
X213063828Y-121382914D01*
X213274197Y-121490102D01*
X213498752Y-121563065D01*
X213498751Y-121563065D01*
X213731948Y-121600000D01*
X213968052Y-121600000D01*
X214201247Y-121563065D01*
X214425802Y-121490102D01*
X214636163Y-121382918D01*
X214636169Y-121382914D01*
X214719104Y-121322658D01*
X214719105Y-121322658D01*
X214020233Y-120623787D01*
X214062292Y-120612518D01*
X214187708Y-120540110D01*
X214290110Y-120437708D01*
X214362518Y-120312292D01*
X214373787Y-120270234D01*
X215072658Y-120969105D01*
X215072658Y-120969104D01*
X215132914Y-120886169D01*
X215132918Y-120886163D01*
X215240102Y-120675802D01*
X215313065Y-120451247D01*
X215350000Y-120218052D01*
X215350000Y-119981947D01*
X218850000Y-119981947D01*
X218850000Y-120218052D01*
X218886934Y-120451247D01*
X218959897Y-120675802D01*
X219067087Y-120886174D01*
X219127338Y-120969104D01*
X219127340Y-120969105D01*
X219826212Y-120270233D01*
X219837482Y-120312292D01*
X219909890Y-120437708D01*
X220012292Y-120540110D01*
X220137708Y-120612518D01*
X220179765Y-120623787D01*
X219480893Y-121322658D01*
X219563828Y-121382914D01*
X219774197Y-121490102D01*
X219998752Y-121563065D01*
X219998751Y-121563065D01*
X220231948Y-121600000D01*
X220468052Y-121600000D01*
X220701247Y-121563065D01*
X220925802Y-121490102D01*
X221136163Y-121382918D01*
X221136169Y-121382914D01*
X221219104Y-121322658D01*
X221219105Y-121322658D01*
X220520233Y-120623787D01*
X220562292Y-120612518D01*
X220687708Y-120540110D01*
X220790110Y-120437708D01*
X220862518Y-120312292D01*
X220873787Y-120270233D01*
X221572658Y-120969105D01*
X221572658Y-120969104D01*
X221632914Y-120886169D01*
X221632918Y-120886163D01*
X221740102Y-120675802D01*
X221813065Y-120451247D01*
X221850000Y-120218052D01*
X221850000Y-119981947D01*
X221813065Y-119748752D01*
X221740102Y-119524197D01*
X221632914Y-119313828D01*
X221572658Y-119230894D01*
X221572658Y-119230893D01*
X220873787Y-119929765D01*
X220862518Y-119887708D01*
X220790110Y-119762292D01*
X220687708Y-119659890D01*
X220562292Y-119587482D01*
X220520234Y-119576212D01*
X221219105Y-118877340D01*
X221219104Y-118877338D01*
X221136174Y-118817087D01*
X220925802Y-118709897D01*
X220701247Y-118636934D01*
X220701248Y-118636934D01*
X220468052Y-118600000D01*
X220231948Y-118600000D01*
X219998752Y-118636934D01*
X219774197Y-118709897D01*
X219563830Y-118817084D01*
X219480894Y-118877340D01*
X220179766Y-119576212D01*
X220137708Y-119587482D01*
X220012292Y-119659890D01*
X219909890Y-119762292D01*
X219837482Y-119887708D01*
X219826212Y-119929766D01*
X219127340Y-119230894D01*
X219067084Y-119313830D01*
X218959897Y-119524197D01*
X218886934Y-119748752D01*
X218850000Y-119981947D01*
X215350000Y-119981947D01*
X215313065Y-119748752D01*
X215240102Y-119524197D01*
X215132914Y-119313828D01*
X215072658Y-119230894D01*
X215072658Y-119230893D01*
X214373787Y-119929765D01*
X214362518Y-119887708D01*
X214290110Y-119762292D01*
X214187708Y-119659890D01*
X214062292Y-119587482D01*
X214020234Y-119576212D01*
X214719105Y-118877340D01*
X214719104Y-118877339D01*
X214636174Y-118817087D01*
X214425802Y-118709897D01*
X214201247Y-118636934D01*
X214201248Y-118636934D01*
X213968052Y-118600000D01*
X213731948Y-118600000D01*
X213498752Y-118636934D01*
X213274197Y-118709897D01*
X213063830Y-118817084D01*
X212980894Y-118877340D01*
X213679766Y-119576212D01*
X213637708Y-119587482D01*
X213512292Y-119659890D01*
X213409890Y-119762292D01*
X213337482Y-119887708D01*
X213326212Y-119929765D01*
X212627340Y-119230894D01*
X212567084Y-119313830D01*
X212459897Y-119524197D01*
X212386934Y-119748752D01*
X212350000Y-119981947D01*
X206850000Y-119981947D01*
X206813065Y-119748752D01*
X206740102Y-119524197D01*
X206632914Y-119313828D01*
X206572658Y-119230894D01*
X206572658Y-119230893D01*
X205873787Y-119929765D01*
X205862518Y-119887708D01*
X205790110Y-119762292D01*
X205687708Y-119659890D01*
X205562292Y-119587482D01*
X205520234Y-119576212D01*
X206219105Y-118877340D01*
X206219104Y-118877339D01*
X206136174Y-118817087D01*
X205925802Y-118709897D01*
X205701247Y-118636934D01*
X205701248Y-118636934D01*
X205468052Y-118600000D01*
X205231948Y-118600000D01*
X204998752Y-118636934D01*
X204774197Y-118709897D01*
X204563830Y-118817084D01*
X204480894Y-118877340D01*
X205179766Y-119576212D01*
X205137708Y-119587482D01*
X205012292Y-119659890D01*
X204909890Y-119762292D01*
X204837482Y-119887708D01*
X204826212Y-119929766D01*
X204127340Y-119230894D01*
X204067084Y-119313830D01*
X203959897Y-119524197D01*
X203886934Y-119748752D01*
X203850000Y-119981947D01*
X200350000Y-119981947D01*
X200313065Y-119748752D01*
X200240102Y-119524197D01*
X200132914Y-119313828D01*
X200072658Y-119230894D01*
X200072658Y-119230893D01*
X199373787Y-119929765D01*
X199362518Y-119887708D01*
X199290110Y-119762292D01*
X199187708Y-119659890D01*
X199062292Y-119587482D01*
X199020234Y-119576212D01*
X199719105Y-118877340D01*
X199719104Y-118877339D01*
X199636174Y-118817087D01*
X199425802Y-118709897D01*
X199201247Y-118636934D01*
X199201248Y-118636934D01*
X198968052Y-118600000D01*
X198731948Y-118600000D01*
X198498752Y-118636934D01*
X198274197Y-118709897D01*
X198063830Y-118817084D01*
X197980894Y-118877340D01*
X198679766Y-119576212D01*
X198637708Y-119587482D01*
X198512292Y-119659890D01*
X198409890Y-119762292D01*
X198337482Y-119887708D01*
X198326212Y-119929765D01*
X197627340Y-119230894D01*
X197567084Y-119313830D01*
X197459897Y-119524197D01*
X197386934Y-119748752D01*
X197350000Y-119981947D01*
X191850000Y-119981947D01*
X191813065Y-119748752D01*
X191740102Y-119524197D01*
X191632914Y-119313828D01*
X191572658Y-119230894D01*
X191572658Y-119230893D01*
X190873787Y-119929765D01*
X190862518Y-119887708D01*
X190790110Y-119762292D01*
X190687708Y-119659890D01*
X190562292Y-119587482D01*
X190520234Y-119576212D01*
X191219105Y-118877340D01*
X191219104Y-118877339D01*
X191136174Y-118817087D01*
X190925802Y-118709897D01*
X190701247Y-118636934D01*
X190701248Y-118636934D01*
X190468052Y-118600000D01*
X190231948Y-118600000D01*
X189998752Y-118636934D01*
X189774197Y-118709897D01*
X189563830Y-118817084D01*
X189480894Y-118877340D01*
X190179766Y-119576212D01*
X190137708Y-119587482D01*
X190012292Y-119659890D01*
X189909890Y-119762292D01*
X189837482Y-119887708D01*
X189826212Y-119929766D01*
X189127340Y-119230894D01*
X189067084Y-119313830D01*
X188959897Y-119524197D01*
X188886934Y-119748752D01*
X188850000Y-119981947D01*
X185350000Y-119981947D01*
X185313065Y-119748752D01*
X185240102Y-119524197D01*
X185132914Y-119313828D01*
X185072658Y-119230894D01*
X185072658Y-119230893D01*
X184373787Y-119929765D01*
X184362518Y-119887708D01*
X184290110Y-119762292D01*
X184187708Y-119659890D01*
X184062292Y-119587482D01*
X184020234Y-119576212D01*
X184719105Y-118877340D01*
X184719104Y-118877339D01*
X184636174Y-118817087D01*
X184425802Y-118709897D01*
X184201247Y-118636934D01*
X184201248Y-118636934D01*
X183968052Y-118600000D01*
X183731948Y-118600000D01*
X183498752Y-118636934D01*
X183274197Y-118709897D01*
X183063830Y-118817084D01*
X182980894Y-118877340D01*
X183679766Y-119576212D01*
X183637708Y-119587482D01*
X183512292Y-119659890D01*
X183409890Y-119762292D01*
X183337482Y-119887708D01*
X183326212Y-119929766D01*
X182627340Y-119230894D01*
X182567084Y-119313830D01*
X182459897Y-119524197D01*
X182386934Y-119748752D01*
X182350000Y-119981947D01*
X167000500Y-119981947D01*
X167000500Y-119900000D01*
X167000500Y-119834108D01*
X167000500Y-115481902D01*
X182349500Y-115481902D01*
X182349500Y-115718097D01*
X182386446Y-115951368D01*
X182459433Y-116175996D01*
X182566657Y-116386433D01*
X182705483Y-116577510D01*
X182872490Y-116744517D01*
X183063567Y-116883343D01*
X183162991Y-116934002D01*
X183274003Y-116990566D01*
X183274005Y-116990566D01*
X183274008Y-116990568D01*
X183394412Y-117029689D01*
X183498631Y-117063553D01*
X183731903Y-117100500D01*
X183731908Y-117100500D01*
X183968097Y-117100500D01*
X184201368Y-117063553D01*
X184425992Y-116990568D01*
X184636433Y-116883343D01*
X184827510Y-116744517D01*
X184994517Y-116577510D01*
X185133343Y-116386433D01*
X185240568Y-116175992D01*
X185313553Y-115951368D01*
X185350500Y-115718097D01*
X185350500Y-115481902D01*
X188849500Y-115481902D01*
X188849500Y-115718097D01*
X188886446Y-115951368D01*
X188959433Y-116175996D01*
X189066657Y-116386433D01*
X189205483Y-116577510D01*
X189372490Y-116744517D01*
X189563567Y-116883343D01*
X189662991Y-116934002D01*
X189774003Y-116990566D01*
X189774005Y-116990566D01*
X189774008Y-116990568D01*
X189894412Y-117029689D01*
X189998631Y-117063553D01*
X190231903Y-117100500D01*
X190231908Y-117100500D01*
X190468097Y-117100500D01*
X190701368Y-117063553D01*
X190925992Y-116990568D01*
X191136433Y-116883343D01*
X191327510Y-116744517D01*
X191494517Y-116577510D01*
X191633343Y-116386433D01*
X191740568Y-116175992D01*
X191813553Y-115951368D01*
X191850500Y-115718097D01*
X191850500Y-115481902D01*
X197349500Y-115481902D01*
X197349500Y-115718097D01*
X197386446Y-115951368D01*
X197459433Y-116175996D01*
X197566657Y-116386433D01*
X197705483Y-116577510D01*
X197872490Y-116744517D01*
X198063567Y-116883343D01*
X198162991Y-116934002D01*
X198274003Y-116990566D01*
X198274005Y-116990566D01*
X198274008Y-116990568D01*
X198394412Y-117029689D01*
X198498631Y-117063553D01*
X198731903Y-117100500D01*
X198731908Y-117100500D01*
X198968097Y-117100500D01*
X199201368Y-117063553D01*
X199425992Y-116990568D01*
X199636433Y-116883343D01*
X199827510Y-116744517D01*
X199994517Y-116577510D01*
X200133343Y-116386433D01*
X200240568Y-116175992D01*
X200313553Y-115951368D01*
X200350500Y-115718097D01*
X200350500Y-115481902D01*
X203849500Y-115481902D01*
X203849500Y-115718097D01*
X203886446Y-115951368D01*
X203959433Y-116175996D01*
X204066657Y-116386433D01*
X204205483Y-116577510D01*
X204372490Y-116744517D01*
X204563567Y-116883343D01*
X204662991Y-116934002D01*
X204774003Y-116990566D01*
X204774005Y-116990566D01*
X204774008Y-116990568D01*
X204894412Y-117029689D01*
X204998631Y-117063553D01*
X205231903Y-117100500D01*
X205231908Y-117100500D01*
X205468097Y-117100500D01*
X205701368Y-117063553D01*
X205925992Y-116990568D01*
X206136433Y-116883343D01*
X206327510Y-116744517D01*
X206494517Y-116577510D01*
X206633343Y-116386433D01*
X206740568Y-116175992D01*
X206813553Y-115951368D01*
X206850500Y-115718097D01*
X206850500Y-115481902D01*
X212349500Y-115481902D01*
X212349500Y-115718097D01*
X212386446Y-115951368D01*
X212459433Y-116175996D01*
X212566657Y-116386433D01*
X212705483Y-116577510D01*
X212872490Y-116744517D01*
X213063567Y-116883343D01*
X213162991Y-116934002D01*
X213274003Y-116990566D01*
X213274005Y-116990566D01*
X213274008Y-116990568D01*
X213394412Y-117029689D01*
X213498631Y-117063553D01*
X213731903Y-117100500D01*
X213731908Y-117100500D01*
X213968097Y-117100500D01*
X214201368Y-117063553D01*
X214425992Y-116990568D01*
X214636433Y-116883343D01*
X214827510Y-116744517D01*
X214994517Y-116577510D01*
X215133343Y-116386433D01*
X215240568Y-116175992D01*
X215313553Y-115951368D01*
X215350500Y-115718097D01*
X215350500Y-115481902D01*
X218849500Y-115481902D01*
X218849500Y-115718097D01*
X218886446Y-115951368D01*
X218959433Y-116175996D01*
X219066657Y-116386433D01*
X219205483Y-116577510D01*
X219372490Y-116744517D01*
X219563567Y-116883343D01*
X219662991Y-116934002D01*
X219774003Y-116990566D01*
X219774005Y-116990566D01*
X219774008Y-116990568D01*
X219894412Y-117029689D01*
X219998631Y-117063553D01*
X220231903Y-117100500D01*
X220231908Y-117100500D01*
X220468097Y-117100500D01*
X220701368Y-117063553D01*
X220925992Y-116990568D01*
X221136433Y-116883343D01*
X221327510Y-116744517D01*
X221494517Y-116577510D01*
X221633343Y-116386433D01*
X221740568Y-116175992D01*
X221813553Y-115951368D01*
X221850500Y-115718097D01*
X221850500Y-115481902D01*
X221813553Y-115248631D01*
X221740566Y-115024003D01*
X221681069Y-114907235D01*
X221633343Y-114813567D01*
X221494517Y-114622490D01*
X221327510Y-114455483D01*
X221136433Y-114316657D01*
X220925996Y-114209433D01*
X220701368Y-114136446D01*
X220468097Y-114099500D01*
X220468092Y-114099500D01*
X220231908Y-114099500D01*
X220231903Y-114099500D01*
X219998631Y-114136446D01*
X219774003Y-114209433D01*
X219563566Y-114316657D01*
X219488769Y-114371001D01*
X219372490Y-114455483D01*
X219372488Y-114455485D01*
X219372487Y-114455485D01*
X219205485Y-114622487D01*
X219205485Y-114622488D01*
X219205483Y-114622490D01*
X219187100Y-114647792D01*
X219066657Y-114813566D01*
X218959433Y-115024003D01*
X218886446Y-115248631D01*
X218849500Y-115481902D01*
X215350500Y-115481902D01*
X215313553Y-115248631D01*
X215240566Y-115024003D01*
X215181069Y-114907235D01*
X215133343Y-114813567D01*
X214994517Y-114622490D01*
X214827510Y-114455483D01*
X214636433Y-114316657D01*
X214425996Y-114209433D01*
X214201368Y-114136446D01*
X213968097Y-114099500D01*
X213968092Y-114099500D01*
X213731908Y-114099500D01*
X213731903Y-114099500D01*
X213498631Y-114136446D01*
X213274003Y-114209433D01*
X213063566Y-114316657D01*
X212988769Y-114371001D01*
X212872490Y-114455483D01*
X212872488Y-114455485D01*
X212872487Y-114455485D01*
X212705485Y-114622487D01*
X212705485Y-114622488D01*
X212705483Y-114622490D01*
X212687100Y-114647792D01*
X212566657Y-114813566D01*
X212459433Y-115024003D01*
X212386446Y-115248631D01*
X212349500Y-115481902D01*
X206850500Y-115481902D01*
X206813553Y-115248631D01*
X206740566Y-115024003D01*
X206681069Y-114907235D01*
X206633343Y-114813567D01*
X206494517Y-114622490D01*
X206327510Y-114455483D01*
X206136433Y-114316657D01*
X205925996Y-114209433D01*
X205701368Y-114136446D01*
X205468097Y-114099500D01*
X205468092Y-114099500D01*
X205231908Y-114099500D01*
X205231903Y-114099500D01*
X204998631Y-114136446D01*
X204774003Y-114209433D01*
X204563566Y-114316657D01*
X204488769Y-114371001D01*
X204372490Y-114455483D01*
X204372488Y-114455485D01*
X204372487Y-114455485D01*
X204205485Y-114622487D01*
X204205485Y-114622488D01*
X204205483Y-114622490D01*
X204187100Y-114647792D01*
X204066657Y-114813566D01*
X203959433Y-115024003D01*
X203886446Y-115248631D01*
X203849500Y-115481902D01*
X200350500Y-115481902D01*
X200313553Y-115248631D01*
X200240566Y-115024003D01*
X200181069Y-114907235D01*
X200133343Y-114813567D01*
X199994517Y-114622490D01*
X199827510Y-114455483D01*
X199636433Y-114316657D01*
X199425996Y-114209433D01*
X199201368Y-114136446D01*
X198968097Y-114099500D01*
X198968092Y-114099500D01*
X198731908Y-114099500D01*
X198731903Y-114099500D01*
X198498631Y-114136446D01*
X198274003Y-114209433D01*
X198063566Y-114316657D01*
X197988769Y-114371001D01*
X197872490Y-114455483D01*
X197872488Y-114455485D01*
X197872487Y-114455485D01*
X197705485Y-114622487D01*
X197705485Y-114622488D01*
X197705483Y-114622490D01*
X197687100Y-114647792D01*
X197566657Y-114813566D01*
X197459433Y-115024003D01*
X197386446Y-115248631D01*
X197349500Y-115481902D01*
X191850500Y-115481902D01*
X191813553Y-115248631D01*
X191740566Y-115024003D01*
X191681069Y-114907235D01*
X191633343Y-114813567D01*
X191494517Y-114622490D01*
X191327510Y-114455483D01*
X191136433Y-114316657D01*
X190925996Y-114209433D01*
X190701368Y-114136446D01*
X190468097Y-114099500D01*
X190468092Y-114099500D01*
X190231908Y-114099500D01*
X190231903Y-114099500D01*
X189998631Y-114136446D01*
X189774003Y-114209433D01*
X189563566Y-114316657D01*
X189488769Y-114371001D01*
X189372490Y-114455483D01*
X189372488Y-114455485D01*
X189372487Y-114455485D01*
X189205485Y-114622487D01*
X189205485Y-114622488D01*
X189205483Y-114622490D01*
X189187100Y-114647792D01*
X189066657Y-114813566D01*
X188959433Y-115024003D01*
X188886446Y-115248631D01*
X188849500Y-115481902D01*
X185350500Y-115481902D01*
X185313553Y-115248631D01*
X185240566Y-115024003D01*
X185181069Y-114907235D01*
X185133343Y-114813567D01*
X184994517Y-114622490D01*
X184827510Y-114455483D01*
X184636433Y-114316657D01*
X184425996Y-114209433D01*
X184201368Y-114136446D01*
X183968097Y-114099500D01*
X183968092Y-114099500D01*
X183731908Y-114099500D01*
X183731903Y-114099500D01*
X183498631Y-114136446D01*
X183274003Y-114209433D01*
X183063566Y-114316657D01*
X182988769Y-114371001D01*
X182872490Y-114455483D01*
X182872488Y-114455485D01*
X182872487Y-114455485D01*
X182705485Y-114622487D01*
X182705485Y-114622488D01*
X182705483Y-114622490D01*
X182687100Y-114647792D01*
X182566657Y-114813566D01*
X182459433Y-115024003D01*
X182386446Y-115248631D01*
X182349500Y-115481902D01*
X167000500Y-115481902D01*
X167000500Y-114540939D01*
X167020185Y-114473900D01*
X167072989Y-114428145D01*
X167142147Y-114418201D01*
X167205703Y-114447226D01*
X167227602Y-114472048D01*
X167278210Y-114547788D01*
X167278213Y-114547792D01*
X167389707Y-114659286D01*
X167389711Y-114659289D01*
X167520814Y-114746890D01*
X167520827Y-114746897D01*
X167666498Y-114807235D01*
X167666503Y-114807237D01*
X167821153Y-114837999D01*
X167821156Y-114838000D01*
X167821158Y-114838000D01*
X167978844Y-114838000D01*
X167978845Y-114837999D01*
X168133497Y-114807237D01*
X168279179Y-114746894D01*
X168410289Y-114659289D01*
X168521789Y-114547789D01*
X168609394Y-114416679D01*
X168669737Y-114270997D01*
X168700500Y-114116342D01*
X168700500Y-114021153D01*
X171599500Y-114021153D01*
X171599500Y-114178846D01*
X171630261Y-114333489D01*
X171630264Y-114333501D01*
X171690602Y-114479172D01*
X171690609Y-114479185D01*
X171778210Y-114610288D01*
X171778213Y-114610292D01*
X171889707Y-114721786D01*
X171889711Y-114721789D01*
X172020814Y-114809390D01*
X172020827Y-114809397D01*
X172166498Y-114869735D01*
X172166503Y-114869737D01*
X172321153Y-114900499D01*
X172321156Y-114900500D01*
X172321158Y-114900500D01*
X172478844Y-114900500D01*
X172478845Y-114900499D01*
X172633497Y-114869737D01*
X172746166Y-114823067D01*
X172779172Y-114809397D01*
X172779172Y-114809396D01*
X172779179Y-114809394D01*
X172910289Y-114721789D01*
X173021789Y-114610289D01*
X173029145Y-114599279D01*
X173046898Y-114572712D01*
X173100510Y-114527906D01*
X173169835Y-114519199D01*
X173232862Y-114549353D01*
X173253102Y-114572712D01*
X173278207Y-114610284D01*
X173278213Y-114610292D01*
X173389707Y-114721786D01*
X173389711Y-114721789D01*
X173520814Y-114809390D01*
X173520827Y-114809397D01*
X173666498Y-114869735D01*
X173666503Y-114869737D01*
X173821153Y-114900499D01*
X173821156Y-114900500D01*
X173821158Y-114900500D01*
X173978844Y-114900500D01*
X173978845Y-114900499D01*
X174133497Y-114869737D01*
X174246166Y-114823067D01*
X174279172Y-114809397D01*
X174279172Y-114809396D01*
X174279179Y-114809394D01*
X174410289Y-114721789D01*
X174521789Y-114610289D01*
X174534368Y-114591463D01*
X174587978Y-114546657D01*
X174657303Y-114537948D01*
X174720331Y-114568101D01*
X174740573Y-114591461D01*
X174778210Y-114647788D01*
X174778213Y-114647792D01*
X174889707Y-114759286D01*
X174889711Y-114759289D01*
X175020814Y-114846890D01*
X175020827Y-114846897D01*
X175150236Y-114900499D01*
X175166503Y-114907237D01*
X175321153Y-114937999D01*
X175321156Y-114938000D01*
X175321158Y-114938000D01*
X175478844Y-114938000D01*
X175478845Y-114937999D01*
X175633497Y-114907237D01*
X175779179Y-114846894D01*
X175910289Y-114759289D01*
X176021789Y-114647789D01*
X176109394Y-114516679D01*
X176169737Y-114370997D01*
X176200500Y-114216342D01*
X176200500Y-114058658D01*
X176200500Y-114058655D01*
X176200499Y-114058653D01*
X176193040Y-114021153D01*
X176169737Y-113904003D01*
X176165366Y-113893450D01*
X176109397Y-113758327D01*
X176109390Y-113758314D01*
X176021789Y-113627211D01*
X176021786Y-113627207D01*
X175910292Y-113515713D01*
X175910288Y-113515710D01*
X175779185Y-113428109D01*
X175779172Y-113428102D01*
X175633501Y-113367764D01*
X175633489Y-113367761D01*
X175478845Y-113337000D01*
X175478842Y-113337000D01*
X175466259Y-113337000D01*
X175399220Y-113317315D01*
X175353465Y-113264511D01*
X175351698Y-113260452D01*
X175309397Y-113158327D01*
X175309390Y-113158314D01*
X175221789Y-113027211D01*
X175221786Y-113027207D01*
X175110292Y-112915713D01*
X175110288Y-112915710D01*
X174979185Y-112828109D01*
X174979172Y-112828102D01*
X174833501Y-112767764D01*
X174833489Y-112767761D01*
X174678845Y-112737000D01*
X174678842Y-112737000D01*
X174521158Y-112737000D01*
X174521155Y-112737000D01*
X174366510Y-112767761D01*
X174366498Y-112767764D01*
X174220827Y-112828102D01*
X174220814Y-112828109D01*
X174089711Y-112915710D01*
X174089707Y-112915713D01*
X173978213Y-113027207D01*
X173978210Y-113027211D01*
X173890609Y-113158314D01*
X173890606Y-113158321D01*
X173858476Y-113235888D01*
X173814634Y-113290291D01*
X173768108Y-113310051D01*
X173666507Y-113330261D01*
X173666498Y-113330264D01*
X173520827Y-113390602D01*
X173520814Y-113390609D01*
X173389711Y-113478210D01*
X173389707Y-113478213D01*
X173278213Y-113589707D01*
X173253102Y-113627289D01*
X173199489Y-113672093D01*
X173130164Y-113680800D01*
X173067137Y-113650645D01*
X173046898Y-113627289D01*
X173021786Y-113589707D01*
X172910292Y-113478213D01*
X172910288Y-113478210D01*
X172779185Y-113390609D01*
X172779172Y-113390602D01*
X172633501Y-113330264D01*
X172633489Y-113330261D01*
X172478845Y-113299500D01*
X172478842Y-113299500D01*
X172321158Y-113299500D01*
X172321155Y-113299500D01*
X172166510Y-113330261D01*
X172166498Y-113330264D01*
X172020827Y-113390602D01*
X172020814Y-113390609D01*
X171889711Y-113478210D01*
X171889707Y-113478213D01*
X171778213Y-113589707D01*
X171778210Y-113589711D01*
X171690609Y-113720814D01*
X171690602Y-113720827D01*
X171630264Y-113866498D01*
X171630261Y-113866510D01*
X171599500Y-114021153D01*
X168700500Y-114021153D01*
X168700500Y-113958658D01*
X168700500Y-113958655D01*
X168674451Y-113827701D01*
X168680678Y-113758109D01*
X168723541Y-113702932D01*
X168789431Y-113679687D01*
X168857428Y-113695755D01*
X168883749Y-113715828D01*
X168889707Y-113721786D01*
X168889711Y-113721789D01*
X169020814Y-113809390D01*
X169020827Y-113809397D01*
X169158683Y-113866498D01*
X169166503Y-113869737D01*
X169321153Y-113900499D01*
X169321156Y-113900500D01*
X169321158Y-113900500D01*
X169478844Y-113900500D01*
X169478845Y-113900499D01*
X169489179Y-113898443D01*
X169514287Y-113893450D01*
X169514292Y-113893449D01*
X169599800Y-113876439D01*
X169633497Y-113869737D01*
X169779179Y-113809394D01*
X169910289Y-113721789D01*
X170021789Y-113610289D01*
X170109394Y-113479179D01*
X170169737Y-113333497D01*
X170200500Y-113178842D01*
X170200500Y-113021158D01*
X170200500Y-113021155D01*
X170200499Y-113021153D01*
X170169737Y-112866503D01*
X170150000Y-112818853D01*
X170109397Y-112720827D01*
X170109390Y-112720814D01*
X170021789Y-112589711D01*
X170021786Y-112589707D01*
X169910292Y-112478213D01*
X169910288Y-112478210D01*
X169779185Y-112390609D01*
X169779172Y-112390602D01*
X169633501Y-112330264D01*
X169633489Y-112330261D01*
X169478845Y-112299500D01*
X169478842Y-112299500D01*
X169321158Y-112299500D01*
X169321155Y-112299500D01*
X169166510Y-112330261D01*
X169166498Y-112330264D01*
X169020827Y-112390602D01*
X169020814Y-112390609D01*
X168889711Y-112478210D01*
X168885001Y-112482076D01*
X168883413Y-112480141D01*
X168831674Y-112508359D01*
X168761985Y-112503338D01*
X168706073Y-112461438D01*
X168681690Y-112395960D01*
X168683761Y-112362990D01*
X168700500Y-112278842D01*
X168700500Y-112121158D01*
X168700500Y-112121155D01*
X168700499Y-112121153D01*
X168669738Y-111966510D01*
X168669737Y-111966503D01*
X168656062Y-111933489D01*
X168609397Y-111820827D01*
X168609390Y-111820814D01*
X168534158Y-111708222D01*
X168521789Y-111689711D01*
X168521786Y-111689707D01*
X168477497Y-111645418D01*
X195575235Y-111645418D01*
X195575235Y-111803111D01*
X195605996Y-111957754D01*
X195605999Y-111957766D01*
X195666337Y-112103437D01*
X195666344Y-112103450D01*
X195753945Y-112234553D01*
X195753948Y-112234557D01*
X195865442Y-112346051D01*
X195865446Y-112346054D01*
X195996549Y-112433655D01*
X195996562Y-112433662D01*
X196142233Y-112494000D01*
X196142238Y-112494002D01*
X196296888Y-112524764D01*
X196296891Y-112524765D01*
X196296893Y-112524765D01*
X196454579Y-112524765D01*
X196454580Y-112524764D01*
X196609232Y-112494002D01*
X196754914Y-112433659D01*
X196886024Y-112346054D01*
X196886028Y-112346049D01*
X196887132Y-112345312D01*
X196953810Y-112324434D01*
X197021190Y-112342918D01*
X197024915Y-112345312D01*
X197120814Y-112409390D01*
X197120827Y-112409397D01*
X197246467Y-112461438D01*
X197266503Y-112469737D01*
X197388481Y-112494000D01*
X197421153Y-112500499D01*
X197421156Y-112500500D01*
X197421158Y-112500500D01*
X197578844Y-112500500D01*
X197578845Y-112500499D01*
X197733497Y-112469737D01*
X197879179Y-112409394D01*
X198010289Y-112321789D01*
X198121789Y-112210289D01*
X198209394Y-112079179D01*
X198269737Y-111933497D01*
X198300500Y-111778842D01*
X198300500Y-111621158D01*
X198300500Y-111621155D01*
X198300499Y-111621153D01*
X198274565Y-111490775D01*
X198269737Y-111466503D01*
X198269735Y-111466498D01*
X198209397Y-111320827D01*
X198209390Y-111320814D01*
X198121789Y-111189711D01*
X198121786Y-111189707D01*
X198010292Y-111078213D01*
X198010288Y-111078210D01*
X197879185Y-110990609D01*
X197879172Y-110990602D01*
X197733501Y-110930264D01*
X197733489Y-110930261D01*
X197578845Y-110899500D01*
X197578842Y-110899500D01*
X197421158Y-110899500D01*
X197421155Y-110899500D01*
X197266510Y-110930261D01*
X197266498Y-110930264D01*
X197120827Y-110990602D01*
X197120814Y-110990609D01*
X196988601Y-111078952D01*
X196921923Y-111099830D01*
X196854543Y-111081345D01*
X196850819Y-111078952D01*
X196754920Y-111014874D01*
X196754907Y-111014867D01*
X196609236Y-110954529D01*
X196609224Y-110954526D01*
X196454580Y-110923765D01*
X196454577Y-110923765D01*
X196296893Y-110923765D01*
X196296890Y-110923765D01*
X196142245Y-110954526D01*
X196142233Y-110954529D01*
X195996562Y-111014867D01*
X195996549Y-111014874D01*
X195865446Y-111102475D01*
X195865442Y-111102478D01*
X195753948Y-111213972D01*
X195753945Y-111213976D01*
X195666344Y-111345079D01*
X195666337Y-111345092D01*
X195605999Y-111490763D01*
X195605996Y-111490775D01*
X195575235Y-111645418D01*
X168477497Y-111645418D01*
X168410292Y-111578213D01*
X168410288Y-111578210D01*
X168279185Y-111490609D01*
X168279172Y-111490602D01*
X168133501Y-111430264D01*
X168133489Y-111430261D01*
X167978845Y-111399500D01*
X167978842Y-111399500D01*
X167821158Y-111399500D01*
X167821155Y-111399500D01*
X167666510Y-111430261D01*
X167666498Y-111430264D01*
X167520827Y-111490602D01*
X167520814Y-111490609D01*
X167389711Y-111578210D01*
X167389707Y-111578213D01*
X167278213Y-111689707D01*
X167278210Y-111689711D01*
X167227602Y-111765451D01*
X167173989Y-111810256D01*
X167104664Y-111818963D01*
X167041637Y-111788808D01*
X167004918Y-111729365D01*
X167000500Y-111696560D01*
X167000500Y-109921153D01*
X208099500Y-109921153D01*
X208099500Y-110078846D01*
X208130261Y-110233489D01*
X208130264Y-110233501D01*
X208190602Y-110379172D01*
X208190609Y-110379185D01*
X208278210Y-110510288D01*
X208278213Y-110510292D01*
X208389707Y-110621786D01*
X208389711Y-110621789D01*
X208520814Y-110709390D01*
X208520827Y-110709397D01*
X208666498Y-110769735D01*
X208666503Y-110769737D01*
X208821153Y-110800499D01*
X208821156Y-110800500D01*
X208821158Y-110800500D01*
X208978844Y-110800500D01*
X208978845Y-110800499D01*
X209133497Y-110769737D01*
X209279179Y-110709394D01*
X209410289Y-110621789D01*
X209521789Y-110510289D01*
X209609394Y-110379179D01*
X209669737Y-110233497D01*
X209700500Y-110078842D01*
X209700500Y-109921158D01*
X209700500Y-109921155D01*
X209700499Y-109921153D01*
X209697730Y-109907231D01*
X209669737Y-109766503D01*
X209656531Y-109734620D01*
X209609397Y-109620827D01*
X209609390Y-109620814D01*
X209521789Y-109489711D01*
X209521786Y-109489707D01*
X209410292Y-109378213D01*
X209410288Y-109378210D01*
X209319545Y-109317577D01*
X216865975Y-109317577D01*
X216971236Y-109361178D01*
X216971240Y-109361179D01*
X217116126Y-109389999D01*
X217116129Y-109390000D01*
X217263871Y-109390000D01*
X217263873Y-109389999D01*
X217408760Y-109361179D01*
X217408775Y-109361175D01*
X217505393Y-109321153D01*
X219899500Y-109321153D01*
X219899500Y-109478846D01*
X219930261Y-109633489D01*
X219930264Y-109633501D01*
X219990602Y-109779172D01*
X219990609Y-109779185D01*
X220078210Y-109910288D01*
X220078213Y-109910292D01*
X220189707Y-110021786D01*
X220189711Y-110021789D01*
X220320814Y-110109390D01*
X220320827Y-110109397D01*
X220466498Y-110169735D01*
X220466503Y-110169737D01*
X220621153Y-110200499D01*
X220621156Y-110200500D01*
X220621158Y-110200500D01*
X220778844Y-110200500D01*
X220778845Y-110200499D01*
X220933497Y-110169737D01*
X221079179Y-110109394D01*
X221210289Y-110021789D01*
X221321789Y-109910289D01*
X221409394Y-109779179D01*
X221469737Y-109633497D01*
X221500500Y-109478842D01*
X221500500Y-109321158D01*
X221500500Y-109321155D01*
X221500499Y-109321153D01*
X221482419Y-109230261D01*
X221469737Y-109166503D01*
X221469735Y-109166498D01*
X221409397Y-109020827D01*
X221409390Y-109020814D01*
X221321789Y-108889711D01*
X221321786Y-108889707D01*
X221210292Y-108778213D01*
X221210288Y-108778210D01*
X221079185Y-108690609D01*
X221079172Y-108690602D01*
X220933501Y-108630264D01*
X220933489Y-108630261D01*
X220778845Y-108599500D01*
X220778842Y-108599500D01*
X220621158Y-108599500D01*
X220621155Y-108599500D01*
X220466510Y-108630261D01*
X220466498Y-108630264D01*
X220320827Y-108690602D01*
X220320814Y-108690609D01*
X220189711Y-108778210D01*
X220189707Y-108778213D01*
X220078213Y-108889707D01*
X220078210Y-108889711D01*
X219990609Y-109020814D01*
X219990602Y-109020827D01*
X219930264Y-109166498D01*
X219930261Y-109166510D01*
X219899500Y-109321153D01*
X217505393Y-109321153D01*
X217514024Y-109317578D01*
X217514024Y-109317577D01*
X217190001Y-108993554D01*
X217190000Y-108993554D01*
X216865975Y-109317577D01*
X209319545Y-109317577D01*
X209279185Y-109290609D01*
X209279172Y-109290602D01*
X209133501Y-109230264D01*
X209133489Y-109230261D01*
X208978845Y-109199500D01*
X208978842Y-109199500D01*
X208821158Y-109199500D01*
X208821155Y-109199500D01*
X208666510Y-109230261D01*
X208666498Y-109230264D01*
X208520827Y-109290602D01*
X208520814Y-109290609D01*
X208389711Y-109378210D01*
X208389707Y-109378213D01*
X208278213Y-109489707D01*
X208278210Y-109489711D01*
X208190609Y-109620814D01*
X208190602Y-109620827D01*
X208130264Y-109766498D01*
X208130261Y-109766510D01*
X208099500Y-109921153D01*
X167000500Y-109921153D01*
X167000500Y-100521153D01*
X176099500Y-100521153D01*
X176099500Y-100678846D01*
X176130261Y-100833489D01*
X176130264Y-100833501D01*
X176190602Y-100979172D01*
X176190609Y-100979185D01*
X176278210Y-101110288D01*
X176278213Y-101110292D01*
X176389707Y-101221786D01*
X176389711Y-101221789D01*
X176520814Y-101309390D01*
X176520827Y-101309397D01*
X176666498Y-101369735D01*
X176666503Y-101369737D01*
X176821153Y-101400499D01*
X176821156Y-101400500D01*
X176821158Y-101400500D01*
X176978844Y-101400500D01*
X176978845Y-101400499D01*
X177133497Y-101369737D01*
X177279179Y-101309394D01*
X177410289Y-101221789D01*
X177521789Y-101110289D01*
X177529145Y-101099279D01*
X177546898Y-101072712D01*
X177600510Y-101027906D01*
X177669835Y-101019199D01*
X177732862Y-101049353D01*
X177753102Y-101072712D01*
X177778207Y-101110284D01*
X177778213Y-101110292D01*
X177889707Y-101221786D01*
X177889711Y-101221789D01*
X178020814Y-101309390D01*
X178020827Y-101309397D01*
X178166498Y-101369735D01*
X178166503Y-101369737D01*
X178321153Y-101400499D01*
X178321156Y-101400500D01*
X178321158Y-101400500D01*
X178478844Y-101400500D01*
X178478845Y-101400499D01*
X178633497Y-101369737D01*
X178779179Y-101309394D01*
X178910289Y-101221789D01*
X179021789Y-101110289D01*
X179109394Y-100979179D01*
X179169737Y-100833497D01*
X179200500Y-100678842D01*
X179200500Y-100521158D01*
X179200500Y-100521155D01*
X179200499Y-100521153D01*
X179174531Y-100390606D01*
X179169737Y-100366503D01*
X179169735Y-100366498D01*
X179109397Y-100220827D01*
X179109390Y-100220814D01*
X179047171Y-100127697D01*
X179021789Y-100089711D01*
X179021786Y-100089707D01*
X178994214Y-100062135D01*
X181949500Y-100062135D01*
X181949500Y-101857870D01*
X181949501Y-101857876D01*
X181955908Y-101917483D01*
X182006202Y-102052328D01*
X182006206Y-102052335D01*
X182092452Y-102167544D01*
X182092455Y-102167547D01*
X182207664Y-102253793D01*
X182207671Y-102253797D01*
X182339082Y-102302810D01*
X182395016Y-102344681D01*
X182419433Y-102410145D01*
X182404582Y-102478418D01*
X182383431Y-102506673D01*
X182269889Y-102620215D01*
X182144951Y-102792179D01*
X182048444Y-102981585D01*
X182048443Y-102981587D01*
X182048443Y-102981588D01*
X182035587Y-103021155D01*
X181982753Y-103183760D01*
X181949500Y-103393713D01*
X181949500Y-103606286D01*
X181981669Y-103809397D01*
X181982754Y-103816243D01*
X182013002Y-103909337D01*
X182048444Y-104018414D01*
X182144951Y-104207820D01*
X182269890Y-104379786D01*
X182420213Y-104530109D01*
X182592182Y-104655050D01*
X182600946Y-104659516D01*
X182651742Y-104707491D01*
X182668536Y-104775312D01*
X182645998Y-104841447D01*
X182600946Y-104880484D01*
X182592182Y-104884949D01*
X182420213Y-105009890D01*
X182269890Y-105160213D01*
X182144951Y-105332179D01*
X182048444Y-105521585D01*
X181982753Y-105723760D01*
X181949500Y-105933713D01*
X181949500Y-106146286D01*
X181982753Y-106356239D01*
X182048444Y-106558414D01*
X182144951Y-106747820D01*
X182269890Y-106919786D01*
X182420213Y-107070109D01*
X182592179Y-107195048D01*
X182592181Y-107195049D01*
X182592184Y-107195051D01*
X182601493Y-107199794D01*
X182652290Y-107247766D01*
X182669087Y-107315587D01*
X182646552Y-107381722D01*
X182601502Y-107420762D01*
X182592443Y-107425378D01*
X182420540Y-107550272D01*
X182420535Y-107550276D01*
X182270276Y-107700535D01*
X182270272Y-107700540D01*
X182145379Y-107872442D01*
X182048904Y-108061782D01*
X181983242Y-108263870D01*
X181983242Y-108263873D01*
X181972769Y-108330000D01*
X182866988Y-108330000D01*
X182834075Y-108387007D01*
X182800000Y-108514174D01*
X182800000Y-108645826D01*
X182834075Y-108772993D01*
X182866988Y-108830000D01*
X181972769Y-108830000D01*
X181983242Y-108896126D01*
X181983242Y-108896129D01*
X182048904Y-109098217D01*
X182145379Y-109287557D01*
X182270272Y-109459459D01*
X182270276Y-109459464D01*
X182420535Y-109609723D01*
X182420540Y-109609727D01*
X182592442Y-109734620D01*
X182781782Y-109831095D01*
X182983871Y-109896757D01*
X183050000Y-109907231D01*
X183050000Y-109013012D01*
X183107007Y-109045925D01*
X183234174Y-109080000D01*
X183365826Y-109080000D01*
X183492993Y-109045925D01*
X183550000Y-109013012D01*
X183550000Y-109907230D01*
X183616126Y-109896757D01*
X183616129Y-109896757D01*
X183818217Y-109831095D01*
X183870255Y-109804581D01*
X184007557Y-109734620D01*
X184179459Y-109609727D01*
X184179464Y-109609723D01*
X184329723Y-109459464D01*
X184329727Y-109459459D01*
X184454620Y-109287557D01*
X184551095Y-109098217D01*
X184616757Y-108896129D01*
X184616757Y-108896126D01*
X184627231Y-108830000D01*
X183733012Y-108830000D01*
X183765925Y-108772993D01*
X183800000Y-108645826D01*
X183800000Y-108514174D01*
X183765925Y-108387007D01*
X183740273Y-108342577D01*
X216140975Y-108342577D01*
X216246236Y-108386178D01*
X216246240Y-108386179D01*
X216345439Y-108405912D01*
X216407350Y-108438297D01*
X216441924Y-108499013D01*
X216442866Y-108551715D01*
X216440000Y-108566124D01*
X216440000Y-108713873D01*
X216468820Y-108858759D01*
X216468822Y-108858767D01*
X216512421Y-108964024D01*
X216836446Y-108640000D01*
X216816555Y-108620109D01*
X217090000Y-108620109D01*
X217090000Y-108659891D01*
X217105224Y-108696645D01*
X217133355Y-108724776D01*
X217170109Y-108740000D01*
X217209891Y-108740000D01*
X217246645Y-108724776D01*
X217274776Y-108696645D01*
X217290000Y-108659891D01*
X217290000Y-108640000D01*
X217543554Y-108640000D01*
X217867577Y-108964024D01*
X217867578Y-108964024D01*
X217911175Y-108858775D01*
X217911179Y-108858760D01*
X217939999Y-108713873D01*
X217940000Y-108713871D01*
X217940000Y-108566128D01*
X217937134Y-108551721D01*
X217943361Y-108482130D01*
X217986223Y-108426952D01*
X218034560Y-108405912D01*
X218133760Y-108386179D01*
X218133775Y-108386175D01*
X218239024Y-108342578D01*
X218239024Y-108342577D01*
X217915000Y-108018554D01*
X217906054Y-108027500D01*
X217910689Y-108032135D01*
X217925392Y-108059062D01*
X217941985Y-108084881D01*
X217942876Y-108091081D01*
X217944174Y-108093458D01*
X217947008Y-108119816D01*
X217947008Y-108185184D01*
X217927323Y-108252223D01*
X217910689Y-108272865D01*
X217543554Y-108640000D01*
X217290000Y-108640000D01*
X217290000Y-108620109D01*
X217274776Y-108583355D01*
X217246645Y-108555224D01*
X217209891Y-108540000D01*
X217170109Y-108540000D01*
X217133355Y-108555224D01*
X217105224Y-108583355D01*
X217090000Y-108620109D01*
X216816555Y-108620109D01*
X216469311Y-108272865D01*
X216457119Y-108250538D01*
X216444198Y-108235626D01*
X216444166Y-108235477D01*
X217139031Y-108235477D01*
X217190000Y-108286446D01*
X217240969Y-108235477D01*
X217203650Y-108198158D01*
X217191109Y-108175192D01*
X217176350Y-108198158D01*
X217139031Y-108235477D01*
X216444166Y-108235477D01*
X216442262Y-108226727D01*
X216438015Y-108220119D01*
X216437123Y-108213918D01*
X216435826Y-108211542D01*
X216432992Y-108185184D01*
X216432992Y-108119816D01*
X216452677Y-108052777D01*
X216469311Y-108032135D01*
X216473946Y-108027500D01*
X217181054Y-108027500D01*
X217181054Y-108031410D01*
X217188890Y-108045761D01*
X217198946Y-108030115D01*
X217198946Y-108027500D01*
X217190000Y-108018554D01*
X217181054Y-108027500D01*
X216473946Y-108027500D01*
X216465000Y-108018554D01*
X216140975Y-108342577D01*
X183740273Y-108342577D01*
X183733012Y-108330000D01*
X184627231Y-108330000D01*
X184625831Y-108321161D01*
X184625831Y-108321160D01*
X184616758Y-108263874D01*
X184616757Y-108263870D01*
X184551095Y-108061782D01*
X184454620Y-107872442D01*
X184329727Y-107700540D01*
X184329723Y-107700535D01*
X184220314Y-107591126D01*
X215715000Y-107591126D01*
X215715000Y-107738873D01*
X215743820Y-107883759D01*
X215743822Y-107883767D01*
X215787421Y-107989024D01*
X216111446Y-107665000D01*
X216111446Y-107664999D01*
X216091556Y-107645109D01*
X216365000Y-107645109D01*
X216365000Y-107684891D01*
X216380224Y-107721645D01*
X216408355Y-107749776D01*
X216445109Y-107765000D01*
X216484891Y-107765000D01*
X216521645Y-107749776D01*
X216549776Y-107721645D01*
X216565000Y-107684891D01*
X216565000Y-107665000D01*
X216818554Y-107665000D01*
X216827500Y-107673946D01*
X216836446Y-107665000D01*
X216827500Y-107656054D01*
X216818554Y-107665000D01*
X216565000Y-107665000D01*
X216565000Y-107645109D01*
X217090000Y-107645109D01*
X217090000Y-107684891D01*
X217105224Y-107721645D01*
X217133355Y-107749776D01*
X217170109Y-107765000D01*
X217209891Y-107765000D01*
X217246645Y-107749776D01*
X217274776Y-107721645D01*
X217290000Y-107684891D01*
X217290000Y-107665000D01*
X217543554Y-107665000D01*
X217552500Y-107673946D01*
X217561446Y-107665000D01*
X217552500Y-107656054D01*
X217543554Y-107665000D01*
X217290000Y-107665000D01*
X217290000Y-107645109D01*
X217815000Y-107645109D01*
X217815000Y-107684891D01*
X217830224Y-107721645D01*
X217858355Y-107749776D01*
X217895109Y-107765000D01*
X217934891Y-107765000D01*
X217971645Y-107749776D01*
X217999776Y-107721645D01*
X218015000Y-107684891D01*
X218015000Y-107664999D01*
X218268554Y-107664999D01*
X218268554Y-107665001D01*
X218592577Y-107989024D01*
X218592578Y-107989024D01*
X218636175Y-107883775D01*
X218636179Y-107883760D01*
X218664999Y-107738873D01*
X218665000Y-107738871D01*
X218665000Y-107591128D01*
X218664999Y-107591126D01*
X218636179Y-107446240D01*
X218636178Y-107446236D01*
X218592577Y-107340975D01*
X218268554Y-107664999D01*
X218015000Y-107664999D01*
X218015000Y-107645109D01*
X217999776Y-107608355D01*
X217971645Y-107580224D01*
X217934891Y-107565000D01*
X217895109Y-107565000D01*
X217858355Y-107580224D01*
X217830224Y-107608355D01*
X217815000Y-107645109D01*
X217290000Y-107645109D01*
X217274776Y-107608355D01*
X217246645Y-107580224D01*
X217209891Y-107565000D01*
X217170109Y-107565000D01*
X217133355Y-107580224D01*
X217105224Y-107608355D01*
X217090000Y-107645109D01*
X216565000Y-107645109D01*
X216549776Y-107608355D01*
X216521645Y-107580224D01*
X216484891Y-107565000D01*
X216445109Y-107565000D01*
X216408355Y-107580224D01*
X216380224Y-107608355D01*
X216365000Y-107645109D01*
X216091556Y-107645109D01*
X215787421Y-107340974D01*
X215787420Y-107340974D01*
X215743823Y-107446228D01*
X215743820Y-107446240D01*
X215715000Y-107591126D01*
X184220314Y-107591126D01*
X184179464Y-107550276D01*
X184179459Y-107550272D01*
X184007555Y-107425377D01*
X183998500Y-107420763D01*
X183947706Y-107372788D01*
X183930912Y-107304966D01*
X183953451Y-107238832D01*
X183998508Y-107199793D01*
X184007816Y-107195051D01*
X184116510Y-107116081D01*
X184179786Y-107070109D01*
X184179788Y-107070106D01*
X184179792Y-107070104D01*
X184262476Y-106987420D01*
X216140974Y-106987420D01*
X216140974Y-106987421D01*
X216464999Y-107311446D01*
X216473946Y-107302500D01*
X216472408Y-107300962D01*
X217181054Y-107300962D01*
X217181054Y-107302500D01*
X217190000Y-107311446D01*
X217198946Y-107302500D01*
X217198946Y-107298589D01*
X217190197Y-107282567D01*
X217181054Y-107300962D01*
X216472408Y-107300962D01*
X216469311Y-107297865D01*
X216454607Y-107270937D01*
X216438015Y-107245119D01*
X216437123Y-107238918D01*
X216435826Y-107236542D01*
X216432992Y-107210184D01*
X216432992Y-107144816D01*
X216452677Y-107077777D01*
X216457272Y-107072075D01*
X217161478Y-107072075D01*
X217193213Y-107148080D01*
X217203650Y-107131842D01*
X217240969Y-107094523D01*
X217190000Y-107043554D01*
X217161478Y-107072075D01*
X216457272Y-107072075D01*
X216469311Y-107057135D01*
X216836446Y-106690000D01*
X216836446Y-106689999D01*
X216816556Y-106670109D01*
X217090000Y-106670109D01*
X217090000Y-106709891D01*
X217105224Y-106746645D01*
X217133355Y-106774776D01*
X217170109Y-106790000D01*
X217209891Y-106790000D01*
X217246645Y-106774776D01*
X217274776Y-106746645D01*
X217290000Y-106709891D01*
X217290000Y-106689999D01*
X217543554Y-106689999D01*
X217543554Y-106690000D01*
X217910689Y-107057135D01*
X217925392Y-107084062D01*
X217941985Y-107109881D01*
X217942876Y-107116081D01*
X217944174Y-107118458D01*
X217947008Y-107144816D01*
X217947008Y-107210184D01*
X217927323Y-107277223D01*
X217910689Y-107297865D01*
X217906054Y-107302500D01*
X217915000Y-107311446D01*
X217915001Y-107311446D01*
X218239024Y-106987421D01*
X218133767Y-106943822D01*
X218133761Y-106943820D01*
X218034559Y-106924087D01*
X217972648Y-106891702D01*
X217938074Y-106830985D01*
X217937134Y-106778277D01*
X217940000Y-106763869D01*
X217940000Y-106616128D01*
X217939999Y-106616126D01*
X217911179Y-106471240D01*
X217911178Y-106471236D01*
X217867577Y-106365975D01*
X217543554Y-106689999D01*
X217290000Y-106689999D01*
X217290000Y-106670109D01*
X217274776Y-106633355D01*
X217246645Y-106605224D01*
X217209891Y-106590000D01*
X217170109Y-106590000D01*
X217133355Y-106605224D01*
X217105224Y-106633355D01*
X217090000Y-106670109D01*
X216816556Y-106670109D01*
X216512421Y-106365974D01*
X216512420Y-106365974D01*
X216468823Y-106471228D01*
X216468820Y-106471240D01*
X216440000Y-106616126D01*
X216440000Y-106763871D01*
X216439999Y-106763871D01*
X216442866Y-106778282D01*
X216436636Y-106847874D01*
X216393772Y-106903050D01*
X216345441Y-106924087D01*
X216246237Y-106943821D01*
X216246228Y-106943823D01*
X216140974Y-106987420D01*
X184262476Y-106987420D01*
X184330104Y-106919792D01*
X184330106Y-106919788D01*
X184330109Y-106919786D01*
X184455048Y-106747820D01*
X184455047Y-106747820D01*
X184455051Y-106747816D01*
X184551557Y-106558412D01*
X184617246Y-106356243D01*
X184650500Y-106146287D01*
X184650500Y-105933713D01*
X184617246Y-105723757D01*
X184551557Y-105521588D01*
X184455051Y-105332184D01*
X184455049Y-105332181D01*
X184455048Y-105332179D01*
X184330109Y-105160213D01*
X184179792Y-105009896D01*
X184139946Y-104980946D01*
X184139929Y-104980934D01*
X184009473Y-104886153D01*
X216587203Y-104886153D01*
X216587203Y-105043846D01*
X216617964Y-105198489D01*
X216617967Y-105198501D01*
X216678305Y-105344172D01*
X216678312Y-105344185D01*
X216765913Y-105475288D01*
X216765916Y-105475292D01*
X216877410Y-105586786D01*
X216877414Y-105586789D01*
X217008517Y-105674390D01*
X217008521Y-105674392D01*
X217008524Y-105674394D01*
X217098978Y-105711861D01*
X217153380Y-105755700D01*
X217175445Y-105821994D01*
X217158166Y-105889693D01*
X217107030Y-105937304D01*
X217075716Y-105948038D01*
X216971238Y-105968820D01*
X216971228Y-105968823D01*
X216865974Y-106012420D01*
X216865974Y-106012421D01*
X217190000Y-106336446D01*
X217190001Y-106336446D01*
X217514024Y-106012421D01*
X217473553Y-105995657D01*
X217419150Y-105951816D01*
X217397085Y-105885521D01*
X217414364Y-105817822D01*
X217465502Y-105770212D01*
X217496815Y-105759479D01*
X217517511Y-105755362D01*
X217621200Y-105734737D01*
X217766882Y-105674394D01*
X217897992Y-105586789D01*
X217897991Y-105586789D01*
X217903057Y-105583405D01*
X217903764Y-105584463D01*
X217961970Y-105559729D01*
X218030840Y-105571506D01*
X218049559Y-105583534D01*
X218049646Y-105583405D01*
X218185814Y-105674390D01*
X218185827Y-105674397D01*
X218305002Y-105723760D01*
X218331503Y-105734737D01*
X218455889Y-105759479D01*
X218486153Y-105765499D01*
X218486156Y-105765500D01*
X218486158Y-105765500D01*
X218643844Y-105765500D01*
X218643845Y-105765499D01*
X218798497Y-105734737D01*
X218944179Y-105674394D01*
X219075289Y-105586789D01*
X219186789Y-105475289D01*
X219274394Y-105344179D01*
X219279363Y-105332184D01*
X219334735Y-105198501D01*
X219334737Y-105198497D01*
X219365500Y-105043842D01*
X219365500Y-104886158D01*
X219365500Y-104886155D01*
X219365499Y-104886153D01*
X219354829Y-104832512D01*
X219334737Y-104731503D01*
X219334735Y-104731498D01*
X219274397Y-104585827D01*
X219274390Y-104585814D01*
X219186789Y-104454711D01*
X219186786Y-104454707D01*
X219075292Y-104343213D01*
X219075288Y-104343210D01*
X218944185Y-104255609D01*
X218944172Y-104255602D01*
X218798501Y-104195264D01*
X218798489Y-104195261D01*
X218643845Y-104164500D01*
X218643842Y-104164500D01*
X218486158Y-104164500D01*
X218486155Y-104164500D01*
X218331510Y-104195261D01*
X218331498Y-104195264D01*
X218185827Y-104255602D01*
X218185814Y-104255609D01*
X218049646Y-104346595D01*
X218048943Y-104345543D01*
X217990685Y-104370275D01*
X217921819Y-104358471D01*
X217903142Y-104346467D01*
X217903057Y-104346595D01*
X217766888Y-104255609D01*
X217766875Y-104255602D01*
X217621204Y-104195264D01*
X217621192Y-104195261D01*
X217466548Y-104164500D01*
X217466545Y-104164500D01*
X217308861Y-104164500D01*
X217308858Y-104164500D01*
X217154213Y-104195261D01*
X217154201Y-104195264D01*
X217008530Y-104255602D01*
X217008517Y-104255609D01*
X216877414Y-104343210D01*
X216877410Y-104343213D01*
X216765916Y-104454707D01*
X216765913Y-104454711D01*
X216678312Y-104585814D01*
X216678305Y-104585827D01*
X216617967Y-104731498D01*
X216617964Y-104731510D01*
X216587203Y-104886153D01*
X184009473Y-104886153D01*
X184007816Y-104884949D01*
X183991248Y-104876507D01*
X183984079Y-104871472D01*
X183967546Y-104850727D01*
X183948259Y-104832512D01*
X183946108Y-104823827D01*
X183940533Y-104816832D01*
X183937839Y-104790441D01*
X183931463Y-104764692D01*
X183934348Y-104756224D01*
X183933440Y-104747324D01*
X183945442Y-104723665D01*
X183953999Y-104698556D01*
X183961463Y-104692087D01*
X183965052Y-104685015D01*
X183979184Y-104676733D01*
X183999054Y-104659515D01*
X184007816Y-104655051D01*
X184029789Y-104639086D01*
X184179786Y-104530109D01*
X184179788Y-104530106D01*
X184179792Y-104530104D01*
X184330104Y-104379792D01*
X184330106Y-104379788D01*
X184330109Y-104379786D01*
X184455048Y-104207820D01*
X184455047Y-104207820D01*
X184455051Y-104207816D01*
X184551557Y-104018412D01*
X184617246Y-103816243D01*
X184650500Y-103606287D01*
X184650500Y-103393713D01*
X184617246Y-103183757D01*
X184564413Y-103021153D01*
X187399500Y-103021153D01*
X187399500Y-103178846D01*
X187430261Y-103333489D01*
X187430264Y-103333501D01*
X187490602Y-103479172D01*
X187490609Y-103479185D01*
X187578210Y-103610288D01*
X187578213Y-103610292D01*
X187689707Y-103721786D01*
X187689711Y-103721789D01*
X187820814Y-103809390D01*
X187820827Y-103809397D01*
X187966498Y-103869735D01*
X187966503Y-103869737D01*
X188121153Y-103900499D01*
X188121156Y-103900500D01*
X188121158Y-103900500D01*
X188278844Y-103900500D01*
X188278845Y-103900499D01*
X188433497Y-103869737D01*
X188579179Y-103809394D01*
X188710289Y-103721789D01*
X188821789Y-103610289D01*
X188909394Y-103479179D01*
X188969737Y-103333497D01*
X189000500Y-103178842D01*
X189000500Y-103021158D01*
X189000500Y-103021155D01*
X189000499Y-103021153D01*
X188978447Y-102910292D01*
X188969737Y-102866503D01*
X188969735Y-102866498D01*
X188909397Y-102720827D01*
X188909390Y-102720814D01*
X188821789Y-102589711D01*
X188821786Y-102589707D01*
X188710292Y-102478213D01*
X188710288Y-102478210D01*
X188620429Y-102418168D01*
X188579185Y-102390609D01*
X188579172Y-102390602D01*
X188433501Y-102330264D01*
X188433489Y-102330261D01*
X188387701Y-102321153D01*
X215524500Y-102321153D01*
X215524500Y-102478846D01*
X215555261Y-102633489D01*
X215555264Y-102633501D01*
X215615602Y-102779172D01*
X215615609Y-102779185D01*
X215703210Y-102910288D01*
X215703213Y-102910292D01*
X215814707Y-103021786D01*
X215814711Y-103021789D01*
X215945814Y-103109390D01*
X215945827Y-103109397D01*
X216091498Y-103169735D01*
X216091503Y-103169737D01*
X216246153Y-103200499D01*
X216246156Y-103200500D01*
X216246158Y-103200500D01*
X216403844Y-103200500D01*
X216403845Y-103200499D01*
X216558497Y-103169737D01*
X216704179Y-103109394D01*
X216835289Y-103021789D01*
X216946789Y-102910289D01*
X217034394Y-102779179D01*
X217094737Y-102633497D01*
X217125500Y-102478842D01*
X217125500Y-102321158D01*
X217125500Y-102321155D01*
X217125499Y-102321153D01*
X217112100Y-102253793D01*
X217094737Y-102166503D01*
X217094735Y-102166498D01*
X217034397Y-102020827D01*
X217034392Y-102020818D01*
X217024309Y-102005728D01*
X217024308Y-102005726D01*
X216980380Y-101939984D01*
X221624500Y-101939984D01*
X221624500Y-103640015D01*
X221635000Y-103742795D01*
X221635001Y-103742796D01*
X221690186Y-103909335D01*
X221690187Y-103909337D01*
X221782286Y-104058651D01*
X221782289Y-104058655D01*
X221906344Y-104182710D01*
X221906348Y-104182713D01*
X222055662Y-104274812D01*
X222055664Y-104274813D01*
X222055666Y-104274814D01*
X222222203Y-104329999D01*
X222324992Y-104340500D01*
X222324997Y-104340500D01*
X224025003Y-104340500D01*
X224025008Y-104340500D01*
X224127797Y-104329999D01*
X224294334Y-104274814D01*
X224443655Y-104182711D01*
X224567711Y-104058655D01*
X224659814Y-103909334D01*
X224714999Y-103742797D01*
X224725500Y-103640008D01*
X224725500Y-101939992D01*
X224714999Y-101837203D01*
X224659814Y-101670666D01*
X224567711Y-101521345D01*
X224443655Y-101397289D01*
X224443651Y-101397286D01*
X224294337Y-101305187D01*
X224294335Y-101305186D01*
X224211065Y-101277593D01*
X224127797Y-101250001D01*
X224127795Y-101250000D01*
X224025015Y-101239500D01*
X224025008Y-101239500D01*
X222324992Y-101239500D01*
X222324984Y-101239500D01*
X222222204Y-101250000D01*
X222222203Y-101250001D01*
X222055664Y-101305186D01*
X222055662Y-101305187D01*
X221906348Y-101397286D01*
X221906344Y-101397289D01*
X221782289Y-101521344D01*
X221782286Y-101521348D01*
X221690187Y-101670662D01*
X221690186Y-101670664D01*
X221635001Y-101837203D01*
X221635000Y-101837204D01*
X221624500Y-101939984D01*
X216980380Y-101939984D01*
X216946789Y-101889711D01*
X216946786Y-101889707D01*
X216835292Y-101778213D01*
X216835288Y-101778210D01*
X216704185Y-101690609D01*
X216704172Y-101690602D01*
X216558501Y-101630264D01*
X216558489Y-101630261D01*
X216403845Y-101599500D01*
X216403842Y-101599500D01*
X216246158Y-101599500D01*
X216246155Y-101599500D01*
X216091510Y-101630261D01*
X216091498Y-101630264D01*
X215945827Y-101690602D01*
X215945814Y-101690609D01*
X215814711Y-101778210D01*
X215814707Y-101778213D01*
X215703213Y-101889707D01*
X215703210Y-101889711D01*
X215615609Y-102020814D01*
X215615602Y-102020827D01*
X215555264Y-102166498D01*
X215555261Y-102166510D01*
X215524500Y-102321153D01*
X188387701Y-102321153D01*
X188278845Y-102299500D01*
X188278842Y-102299500D01*
X188121158Y-102299500D01*
X188121155Y-102299500D01*
X187966510Y-102330261D01*
X187966498Y-102330264D01*
X187820827Y-102390602D01*
X187820814Y-102390609D01*
X187689711Y-102478210D01*
X187689707Y-102478213D01*
X187578213Y-102589707D01*
X187578210Y-102589711D01*
X187490609Y-102720814D01*
X187490602Y-102720827D01*
X187430264Y-102866498D01*
X187430261Y-102866510D01*
X187399500Y-103021153D01*
X184564413Y-103021153D01*
X184551557Y-102981588D01*
X184551555Y-102981585D01*
X184551555Y-102981583D01*
X184455048Y-102792179D01*
X184330109Y-102620213D01*
X184216569Y-102506673D01*
X184183084Y-102445350D01*
X184188068Y-102375658D01*
X184229940Y-102319725D01*
X184260915Y-102302810D01*
X184392331Y-102253796D01*
X184507546Y-102167546D01*
X184593796Y-102052331D01*
X184644091Y-101917483D01*
X184650500Y-101857873D01*
X184650499Y-101021153D01*
X190799500Y-101021153D01*
X190799500Y-101178846D01*
X190830261Y-101333489D01*
X190830264Y-101333501D01*
X190890602Y-101479172D01*
X190890609Y-101479185D01*
X190978210Y-101610288D01*
X190978213Y-101610292D01*
X191089707Y-101721786D01*
X191089711Y-101721789D01*
X191220814Y-101809390D01*
X191220827Y-101809397D01*
X191366498Y-101869735D01*
X191366503Y-101869737D01*
X191521153Y-101900499D01*
X191521156Y-101900500D01*
X191521158Y-101900500D01*
X191678844Y-101900500D01*
X191678845Y-101900499D01*
X191833497Y-101869737D01*
X191979179Y-101809394D01*
X192110289Y-101721789D01*
X192221789Y-101610289D01*
X192309394Y-101479179D01*
X192369737Y-101333497D01*
X192400500Y-101178842D01*
X192400500Y-101021158D01*
X192400500Y-101021155D01*
X192400499Y-101021153D01*
X192392148Y-100979172D01*
X192369737Y-100866503D01*
X192356062Y-100833489D01*
X192309397Y-100720827D01*
X192309390Y-100720814D01*
X192221789Y-100589711D01*
X192221786Y-100589707D01*
X192110292Y-100478213D01*
X192110288Y-100478210D01*
X191979185Y-100390609D01*
X191979172Y-100390602D01*
X191833501Y-100330264D01*
X191833489Y-100330261D01*
X191678845Y-100299500D01*
X191678842Y-100299500D01*
X191521158Y-100299500D01*
X191521155Y-100299500D01*
X191366510Y-100330261D01*
X191366498Y-100330264D01*
X191220827Y-100390602D01*
X191220814Y-100390609D01*
X191089711Y-100478210D01*
X191089707Y-100478213D01*
X190978213Y-100589707D01*
X190978210Y-100589711D01*
X190890609Y-100720814D01*
X190890602Y-100720827D01*
X190830264Y-100866498D01*
X190830261Y-100866510D01*
X190799500Y-101021153D01*
X184650499Y-101021153D01*
X184650499Y-100881146D01*
X184650499Y-100062129D01*
X184650498Y-100062123D01*
X184650497Y-100062116D01*
X184644091Y-100002517D01*
X184635386Y-99979179D01*
X184593797Y-99867671D01*
X184593793Y-99867664D01*
X184507547Y-99752455D01*
X184507544Y-99752452D01*
X184392335Y-99666206D01*
X184392328Y-99666202D01*
X184257482Y-99615908D01*
X184257483Y-99615908D01*
X184197883Y-99609501D01*
X184197881Y-99609500D01*
X184197873Y-99609500D01*
X184197864Y-99609500D01*
X182402129Y-99609500D01*
X182402123Y-99609501D01*
X182342516Y-99615908D01*
X182207671Y-99666202D01*
X182207664Y-99666206D01*
X182092455Y-99752452D01*
X182092452Y-99752455D01*
X182006206Y-99867664D01*
X182006202Y-99867671D01*
X181955908Y-100002517D01*
X181949501Y-100062116D01*
X181949501Y-100062123D01*
X181949500Y-100062135D01*
X178994214Y-100062135D01*
X178910292Y-99978213D01*
X178910288Y-99978210D01*
X178779185Y-99890609D01*
X178779172Y-99890602D01*
X178633501Y-99830264D01*
X178633489Y-99830261D01*
X178478845Y-99799500D01*
X178478842Y-99799500D01*
X178321158Y-99799500D01*
X178321155Y-99799500D01*
X178166510Y-99830261D01*
X178166498Y-99830264D01*
X178020827Y-99890602D01*
X178020814Y-99890609D01*
X177889711Y-99978210D01*
X177889707Y-99978213D01*
X177778213Y-100089707D01*
X177753102Y-100127289D01*
X177699489Y-100172093D01*
X177630164Y-100180800D01*
X177567137Y-100150645D01*
X177546898Y-100127289D01*
X177521786Y-100089707D01*
X177410292Y-99978213D01*
X177410288Y-99978210D01*
X177279185Y-99890609D01*
X177279172Y-99890602D01*
X177133501Y-99830264D01*
X177133489Y-99830261D01*
X176978845Y-99799500D01*
X176978842Y-99799500D01*
X176821158Y-99799500D01*
X176821155Y-99799500D01*
X176666510Y-99830261D01*
X176666498Y-99830264D01*
X176520827Y-99890602D01*
X176520814Y-99890609D01*
X176389711Y-99978210D01*
X176389707Y-99978213D01*
X176278213Y-100089707D01*
X176278210Y-100089711D01*
X176190609Y-100220814D01*
X176190602Y-100220827D01*
X176130264Y-100366498D01*
X176130261Y-100366510D01*
X176099500Y-100521153D01*
X167000500Y-100521153D01*
X167000500Y-99521153D01*
X171599500Y-99521153D01*
X171599500Y-99678846D01*
X171630261Y-99833489D01*
X171630264Y-99833501D01*
X171690602Y-99979172D01*
X171690609Y-99979185D01*
X171778210Y-100110288D01*
X171778213Y-100110292D01*
X171889707Y-100221786D01*
X171889711Y-100221789D01*
X172020814Y-100309390D01*
X172020827Y-100309397D01*
X172158683Y-100366498D01*
X172166503Y-100369737D01*
X172321153Y-100400499D01*
X172321156Y-100400500D01*
X172321158Y-100400500D01*
X172478844Y-100400500D01*
X172478845Y-100400499D01*
X172489179Y-100398443D01*
X172514287Y-100393450D01*
X172514292Y-100393449D01*
X172599800Y-100376439D01*
X172633497Y-100369737D01*
X172779179Y-100309394D01*
X172910289Y-100221789D01*
X173021789Y-100110289D01*
X173109394Y-99979179D01*
X173169737Y-99833497D01*
X173200500Y-99678842D01*
X173200500Y-99521158D01*
X173200500Y-99521155D01*
X173200499Y-99521153D01*
X173169738Y-99366510D01*
X173169737Y-99366503D01*
X173169735Y-99366498D01*
X173109397Y-99220827D01*
X173109390Y-99220814D01*
X173021789Y-99089711D01*
X173021786Y-99089707D01*
X172910292Y-98978213D01*
X172910288Y-98978210D01*
X172779185Y-98890609D01*
X172779172Y-98890602D01*
X172633501Y-98830264D01*
X172633489Y-98830261D01*
X172478845Y-98799500D01*
X172478842Y-98799500D01*
X172321158Y-98799500D01*
X172321155Y-98799500D01*
X172166510Y-98830261D01*
X172166498Y-98830264D01*
X172020827Y-98890602D01*
X172020814Y-98890609D01*
X171889711Y-98978210D01*
X171889707Y-98978213D01*
X171778213Y-99089707D01*
X171778210Y-99089711D01*
X171690609Y-99220814D01*
X171690602Y-99220827D01*
X171630264Y-99366498D01*
X171630261Y-99366510D01*
X171599500Y-99521153D01*
X167000500Y-99521153D01*
X167000500Y-96621153D01*
X169599500Y-96621153D01*
X169599500Y-96778846D01*
X169630261Y-96933489D01*
X169630264Y-96933501D01*
X169690602Y-97079172D01*
X169690609Y-97079185D01*
X169778210Y-97210288D01*
X169778213Y-97210292D01*
X169889707Y-97321786D01*
X169889711Y-97321789D01*
X170020814Y-97409390D01*
X170020827Y-97409397D01*
X170166498Y-97469735D01*
X170166503Y-97469737D01*
X170321153Y-97500499D01*
X170321156Y-97500500D01*
X170321158Y-97500500D01*
X170478844Y-97500500D01*
X170478845Y-97500499D01*
X170633497Y-97469737D01*
X170779179Y-97409394D01*
X170910289Y-97321789D01*
X171021789Y-97210289D01*
X171022882Y-97208653D01*
X216049500Y-97208653D01*
X216049500Y-97366346D01*
X216080261Y-97520989D01*
X216080264Y-97521001D01*
X216140602Y-97666672D01*
X216140609Y-97666685D01*
X216228210Y-97797788D01*
X216228213Y-97797792D01*
X216339707Y-97909286D01*
X216339711Y-97909289D01*
X216470814Y-97996890D01*
X216470827Y-97996897D01*
X216616498Y-98057235D01*
X216616503Y-98057237D01*
X216771153Y-98087999D01*
X216771156Y-98088000D01*
X216771158Y-98088000D01*
X216928844Y-98088000D01*
X216928845Y-98087999D01*
X217083497Y-98057237D01*
X217229179Y-97996894D01*
X217360289Y-97909289D01*
X217471789Y-97797789D01*
X217559394Y-97666679D01*
X217591995Y-97587973D01*
X221624500Y-97587973D01*
X221624500Y-97832026D01*
X221662678Y-98073072D01*
X221738097Y-98305187D01*
X221848896Y-98522642D01*
X221992339Y-98720076D01*
X221992343Y-98720081D01*
X222164918Y-98892656D01*
X222164923Y-98892660D01*
X222282675Y-98978211D01*
X222362361Y-99036106D01*
X222579815Y-99146904D01*
X222811924Y-99222321D01*
X223052973Y-99260500D01*
X223052974Y-99260500D01*
X223297026Y-99260500D01*
X223297027Y-99260500D01*
X223538076Y-99222321D01*
X223770185Y-99146904D01*
X223987639Y-99036106D01*
X224185083Y-98892655D01*
X224357655Y-98720083D01*
X224501106Y-98522639D01*
X224611904Y-98305185D01*
X224687321Y-98073076D01*
X224725500Y-97832027D01*
X224725500Y-97587973D01*
X224687321Y-97346924D01*
X224611904Y-97114815D01*
X224501106Y-96897361D01*
X224414999Y-96778844D01*
X224357660Y-96699923D01*
X224357656Y-96699918D01*
X224185081Y-96527343D01*
X224185076Y-96527339D01*
X223987642Y-96383896D01*
X223987641Y-96383895D01*
X223987639Y-96383894D01*
X223770185Y-96273096D01*
X223538076Y-96197679D01*
X223538074Y-96197678D01*
X223538072Y-96197678D01*
X223369769Y-96171021D01*
X223297027Y-96159500D01*
X223052973Y-96159500D01*
X222997093Y-96168350D01*
X222811927Y-96197678D01*
X222579812Y-96273097D01*
X222362357Y-96383896D01*
X222164923Y-96527339D01*
X222164918Y-96527343D01*
X221992343Y-96699918D01*
X221992339Y-96699923D01*
X221848896Y-96897357D01*
X221738097Y-97114812D01*
X221662678Y-97346927D01*
X221624500Y-97587973D01*
X217591995Y-97587973D01*
X217619737Y-97520997D01*
X217650500Y-97366342D01*
X217650500Y-97208658D01*
X217650500Y-97208655D01*
X217650499Y-97208653D01*
X217619738Y-97054010D01*
X217619737Y-97054003D01*
X217569824Y-96933501D01*
X217559397Y-96908327D01*
X217559390Y-96908314D01*
X217471789Y-96777211D01*
X217471786Y-96777207D01*
X217360292Y-96665713D01*
X217360288Y-96665710D01*
X217229185Y-96578109D01*
X217229172Y-96578102D01*
X217083501Y-96517764D01*
X217083489Y-96517761D01*
X216928845Y-96487000D01*
X216928842Y-96487000D01*
X216771158Y-96487000D01*
X216771155Y-96487000D01*
X216616510Y-96517761D01*
X216616498Y-96517764D01*
X216470827Y-96578102D01*
X216470814Y-96578109D01*
X216339711Y-96665710D01*
X216339707Y-96665713D01*
X216228213Y-96777207D01*
X216228210Y-96777211D01*
X216140609Y-96908314D01*
X216140602Y-96908327D01*
X216080264Y-97053998D01*
X216080261Y-97054010D01*
X216049500Y-97208653D01*
X171022882Y-97208653D01*
X171109394Y-97079179D01*
X171169737Y-96933497D01*
X171200500Y-96778842D01*
X171200500Y-96621158D01*
X171200500Y-96621155D01*
X171200499Y-96621153D01*
X171191936Y-96578106D01*
X171169737Y-96466503D01*
X171142398Y-96400500D01*
X171109397Y-96320827D01*
X171109390Y-96320814D01*
X171021789Y-96189711D01*
X171021786Y-96189707D01*
X170910292Y-96078213D01*
X170910288Y-96078210D01*
X170779185Y-95990609D01*
X170779172Y-95990602D01*
X170633501Y-95930264D01*
X170633489Y-95930261D01*
X170478845Y-95899500D01*
X170478842Y-95899500D01*
X170321158Y-95899500D01*
X170321155Y-95899500D01*
X170166510Y-95930261D01*
X170166498Y-95930264D01*
X170020827Y-95990602D01*
X170020814Y-95990609D01*
X169889711Y-96078210D01*
X169889707Y-96078213D01*
X169778213Y-96189707D01*
X169778210Y-96189711D01*
X169690609Y-96320814D01*
X169690602Y-96320827D01*
X169630264Y-96466498D01*
X169630261Y-96466510D01*
X169599500Y-96621153D01*
X167000500Y-96621153D01*
X167000500Y-95521153D01*
X211649500Y-95521153D01*
X211649500Y-95678846D01*
X211680261Y-95833489D01*
X211680264Y-95833501D01*
X211740602Y-95979172D01*
X211740609Y-95979185D01*
X211828210Y-96110288D01*
X211828213Y-96110292D01*
X211939707Y-96221786D01*
X211939711Y-96221789D01*
X212070814Y-96309390D01*
X212070827Y-96309397D01*
X212216498Y-96369735D01*
X212216503Y-96369737D01*
X212371153Y-96400499D01*
X212371156Y-96400500D01*
X212371158Y-96400500D01*
X212528844Y-96400500D01*
X212528845Y-96400499D01*
X212683497Y-96369737D01*
X212801592Y-96320821D01*
X212829172Y-96309397D01*
X212829172Y-96309396D01*
X212829179Y-96309394D01*
X212960289Y-96221789D01*
X213071789Y-96110289D01*
X213159394Y-95979179D01*
X213219737Y-95833497D01*
X213250500Y-95678842D01*
X213250500Y-95521158D01*
X213250500Y-95521155D01*
X213250499Y-95521153D01*
X213219738Y-95366510D01*
X213219737Y-95366503D01*
X213219735Y-95366498D01*
X213159397Y-95220827D01*
X213159390Y-95220814D01*
X213071789Y-95089711D01*
X213071786Y-95089707D01*
X212960292Y-94978213D01*
X212960288Y-94978210D01*
X212829185Y-94890609D01*
X212829172Y-94890602D01*
X212683501Y-94830264D01*
X212683489Y-94830261D01*
X212528845Y-94799500D01*
X212528842Y-94799500D01*
X212371158Y-94799500D01*
X212371155Y-94799500D01*
X212216510Y-94830261D01*
X212216498Y-94830264D01*
X212070827Y-94890602D01*
X212070814Y-94890609D01*
X211939711Y-94978210D01*
X211939707Y-94978213D01*
X211828213Y-95089707D01*
X211828210Y-95089711D01*
X211740609Y-95220814D01*
X211740602Y-95220827D01*
X211680264Y-95366498D01*
X211680261Y-95366510D01*
X211649500Y-95521153D01*
X167000500Y-95521153D01*
X167000500Y-93792683D01*
X167000500Y-93792682D01*
X166975929Y-93621786D01*
X166975838Y-93621153D01*
X177999500Y-93621153D01*
X177999500Y-93778846D01*
X178030261Y-93933489D01*
X178030264Y-93933501D01*
X178090602Y-94079172D01*
X178090609Y-94079185D01*
X178178210Y-94210288D01*
X178178213Y-94210292D01*
X178289707Y-94321786D01*
X178289711Y-94321789D01*
X178420814Y-94409390D01*
X178420827Y-94409397D01*
X178566498Y-94469735D01*
X178566503Y-94469737D01*
X178721153Y-94500499D01*
X178721156Y-94500500D01*
X178721158Y-94500500D01*
X178878844Y-94500500D01*
X178878845Y-94500499D01*
X179033497Y-94469737D01*
X179179179Y-94409394D01*
X179310289Y-94321789D01*
X179345925Y-94286153D01*
X213414500Y-94286153D01*
X213414500Y-94443846D01*
X213445261Y-94598489D01*
X213445264Y-94598501D01*
X213505602Y-94744172D01*
X213505609Y-94744185D01*
X213593210Y-94875288D01*
X213593213Y-94875292D01*
X213704707Y-94986786D01*
X213704711Y-94986789D01*
X213835814Y-95074390D01*
X213835827Y-95074397D01*
X213981498Y-95134735D01*
X213981503Y-95134737D01*
X214136153Y-95165499D01*
X214136156Y-95165500D01*
X214136158Y-95165500D01*
X214293844Y-95165500D01*
X214293845Y-95165499D01*
X214448497Y-95134737D01*
X214594179Y-95074394D01*
X214725289Y-94986789D01*
X214836789Y-94875289D01*
X214924394Y-94744179D01*
X214984737Y-94598497D01*
X215015500Y-94443842D01*
X215015500Y-94286158D01*
X215015500Y-94286155D01*
X215015499Y-94286153D01*
X215000409Y-94210291D01*
X214984737Y-94131503D01*
X214971895Y-94100499D01*
X214924397Y-93985827D01*
X214924390Y-93985814D01*
X214836789Y-93854711D01*
X214836786Y-93854707D01*
X214725292Y-93743213D01*
X214725288Y-93743210D01*
X214594185Y-93655609D01*
X214594172Y-93655602D01*
X214448501Y-93595264D01*
X214448489Y-93595261D01*
X214293845Y-93564500D01*
X214293842Y-93564500D01*
X214136158Y-93564500D01*
X214136155Y-93564500D01*
X213981510Y-93595261D01*
X213981498Y-93595264D01*
X213835827Y-93655602D01*
X213835814Y-93655609D01*
X213704711Y-93743210D01*
X213704707Y-93743213D01*
X213593213Y-93854707D01*
X213593210Y-93854711D01*
X213505609Y-93985814D01*
X213505602Y-93985827D01*
X213445264Y-94131498D01*
X213445261Y-94131510D01*
X213414500Y-94286153D01*
X179345925Y-94286153D01*
X179421789Y-94210289D01*
X179509394Y-94079179D01*
X179569737Y-93933497D01*
X179600500Y-93778842D01*
X179600500Y-93621158D01*
X179600500Y-93621155D01*
X179600499Y-93621153D01*
X179578447Y-93510292D01*
X179569737Y-93466503D01*
X179533569Y-93379185D01*
X179509397Y-93320827D01*
X179509390Y-93320814D01*
X179421789Y-93189711D01*
X179421786Y-93189707D01*
X179310292Y-93078213D01*
X179310288Y-93078210D01*
X179220429Y-93018168D01*
X179179185Y-92990609D01*
X179179172Y-92990602D01*
X179033501Y-92930264D01*
X179033489Y-92930261D01*
X178987701Y-92921153D01*
X202299500Y-92921153D01*
X202299500Y-93078846D01*
X202330261Y-93233489D01*
X202330264Y-93233501D01*
X202390602Y-93379172D01*
X202390609Y-93379185D01*
X202478210Y-93510288D01*
X202478213Y-93510292D01*
X202589707Y-93621786D01*
X202589711Y-93621789D01*
X202720814Y-93709390D01*
X202720827Y-93709397D01*
X202866498Y-93769735D01*
X202866503Y-93769737D01*
X202981855Y-93792682D01*
X203021153Y-93800499D01*
X203021156Y-93800500D01*
X203021158Y-93800500D01*
X203178844Y-93800500D01*
X203178845Y-93800499D01*
X203333497Y-93769737D01*
X203479179Y-93709394D01*
X203610289Y-93621789D01*
X203721789Y-93510289D01*
X203809394Y-93379179D01*
X203869737Y-93233497D01*
X203872192Y-93221153D01*
X204599500Y-93221153D01*
X204599500Y-93378846D01*
X204630261Y-93533489D01*
X204630264Y-93533501D01*
X204690602Y-93679172D01*
X204690609Y-93679185D01*
X204778210Y-93810288D01*
X204778213Y-93810292D01*
X204889707Y-93921786D01*
X204889711Y-93921789D01*
X205020814Y-94009390D01*
X205020827Y-94009397D01*
X205166498Y-94069735D01*
X205166503Y-94069737D01*
X205321153Y-94100499D01*
X205321156Y-94100500D01*
X205321158Y-94100500D01*
X205478844Y-94100500D01*
X205478845Y-94100499D01*
X205633497Y-94069737D01*
X205779179Y-94009394D01*
X205910289Y-93921789D01*
X206021789Y-93810289D01*
X206109394Y-93679179D01*
X206169737Y-93533497D01*
X206200500Y-93378842D01*
X206200500Y-93221158D01*
X206200500Y-93221155D01*
X206200499Y-93221153D01*
X206194244Y-93189707D01*
X206169737Y-93066503D01*
X206138298Y-92990602D01*
X206109397Y-92920827D01*
X206109390Y-92920814D01*
X206021789Y-92789711D01*
X206021786Y-92789707D01*
X205910292Y-92678213D01*
X205910288Y-92678210D01*
X205779185Y-92590609D01*
X205779172Y-92590602D01*
X205633501Y-92530264D01*
X205633489Y-92530261D01*
X205478845Y-92499500D01*
X205478842Y-92499500D01*
X205321158Y-92499500D01*
X205321155Y-92499500D01*
X205166510Y-92530261D01*
X205166498Y-92530264D01*
X205020827Y-92590602D01*
X205020814Y-92590609D01*
X204889711Y-92678210D01*
X204889707Y-92678213D01*
X204778213Y-92789707D01*
X204778210Y-92789711D01*
X204690609Y-92920814D01*
X204690602Y-92920827D01*
X204630264Y-93066498D01*
X204630261Y-93066510D01*
X204599500Y-93221153D01*
X203872192Y-93221153D01*
X203878216Y-93190874D01*
X203878216Y-93190873D01*
X203900499Y-93078846D01*
X203900500Y-93078844D01*
X203900500Y-92921155D01*
X203900499Y-92921153D01*
X203883616Y-92836276D01*
X203869737Y-92766503D01*
X203840418Y-92695719D01*
X203809397Y-92620827D01*
X203809390Y-92620814D01*
X203721789Y-92489711D01*
X203721786Y-92489707D01*
X203610292Y-92378213D01*
X203610288Y-92378210D01*
X203479185Y-92290609D01*
X203479172Y-92290602D01*
X203333501Y-92230264D01*
X203333489Y-92230261D01*
X203178845Y-92199500D01*
X203178842Y-92199500D01*
X203021158Y-92199500D01*
X203021155Y-92199500D01*
X202866510Y-92230261D01*
X202866498Y-92230264D01*
X202720827Y-92290602D01*
X202720814Y-92290609D01*
X202589711Y-92378210D01*
X202589707Y-92378213D01*
X202478213Y-92489707D01*
X202478210Y-92489711D01*
X202390609Y-92620814D01*
X202390602Y-92620827D01*
X202330264Y-92766498D01*
X202330261Y-92766510D01*
X202299500Y-92921153D01*
X178987701Y-92921153D01*
X178878845Y-92899500D01*
X178878842Y-92899500D01*
X178721158Y-92899500D01*
X178721155Y-92899500D01*
X178566510Y-92930261D01*
X178566498Y-92930264D01*
X178420827Y-92990602D01*
X178420814Y-92990609D01*
X178289711Y-93078210D01*
X178289707Y-93078213D01*
X178178213Y-93189707D01*
X178178210Y-93189711D01*
X178090609Y-93320814D01*
X178090602Y-93320827D01*
X178030264Y-93466498D01*
X178030261Y-93466510D01*
X177999500Y-93621153D01*
X166975838Y-93621153D01*
X166969955Y-93580235D01*
X166969952Y-93580225D01*
X166956232Y-93533497D01*
X166909484Y-93374290D01*
X166909483Y-93374288D01*
X166909482Y-93374284D01*
X166820329Y-93179067D01*
X166820319Y-93179047D01*
X166819680Y-93178053D01*
X166819568Y-93177673D01*
X166818202Y-93175171D01*
X166818746Y-93174873D01*
X166800000Y-93111020D01*
X166800000Y-92887500D01*
X166664739Y-92887500D01*
X166597700Y-92867815D01*
X166571025Y-92844702D01*
X166563723Y-92836275D01*
X166401514Y-92695720D01*
X166401513Y-92695719D01*
X166336991Y-92654253D01*
X166220951Y-92579679D01*
X166220938Y-92579672D01*
X166025715Y-92490517D01*
X165819774Y-92430047D01*
X165819764Y-92430044D01*
X165628754Y-92402582D01*
X165607318Y-92399500D01*
X165607317Y-92399500D01*
X161006962Y-92399500D01*
X160993078Y-92398720D01*
X160980553Y-92397308D01*
X160902735Y-92388540D01*
X160875666Y-92382362D01*
X160796462Y-92354648D01*
X160771444Y-92342600D01*
X160700395Y-92297957D01*
X160678686Y-92280644D01*
X160619355Y-92221313D01*
X160602042Y-92199604D01*
X160557399Y-92128555D01*
X160545351Y-92103537D01*
X160517637Y-92024333D01*
X160511459Y-91997263D01*
X160501280Y-91906922D01*
X160500500Y-91893038D01*
X160500500Y-89814234D01*
X165739500Y-89814234D01*
X165739500Y-89965766D01*
X165759109Y-90038950D01*
X165778719Y-90112136D01*
X165789093Y-90130104D01*
X165854485Y-90243365D01*
X165961635Y-90350515D01*
X166092865Y-90426281D01*
X166239234Y-90465500D01*
X166239236Y-90465500D01*
X166390764Y-90465500D01*
X166390766Y-90465500D01*
X166537135Y-90426281D01*
X166668365Y-90350515D01*
X166775515Y-90243365D01*
X166851281Y-90112135D01*
X166890500Y-89965766D01*
X166890500Y-89814234D01*
X166851281Y-89667865D01*
X166775515Y-89536635D01*
X166668365Y-89429485D01*
X166602750Y-89391602D01*
X166537136Y-89353719D01*
X166463950Y-89334109D01*
X166390766Y-89314500D01*
X166239234Y-89314500D01*
X166092863Y-89353719D01*
X165961635Y-89429485D01*
X165961632Y-89429487D01*
X165854487Y-89536632D01*
X165854485Y-89536635D01*
X165778719Y-89667863D01*
X165761678Y-89731463D01*
X165739500Y-89814234D01*
X160500500Y-89814234D01*
X160500500Y-88202135D01*
X212309500Y-88202135D01*
X212309500Y-89997870D01*
X212309501Y-89997876D01*
X212315908Y-90057483D01*
X212366202Y-90192328D01*
X212366206Y-90192335D01*
X212452452Y-90307544D01*
X212452455Y-90307547D01*
X212567664Y-90393793D01*
X212567671Y-90393797D01*
X212702517Y-90444091D01*
X212702516Y-90444091D01*
X212709444Y-90444835D01*
X212762127Y-90450500D01*
X214557872Y-90450499D01*
X214617483Y-90444091D01*
X214752331Y-90393796D01*
X214867546Y-90307546D01*
X214953796Y-90192331D01*
X215002810Y-90060916D01*
X215044681Y-90004984D01*
X215110145Y-89980566D01*
X215178418Y-89995417D01*
X215206673Y-90016569D01*
X215320213Y-90130109D01*
X215492179Y-90255048D01*
X215492181Y-90255049D01*
X215492184Y-90255051D01*
X215681588Y-90351557D01*
X215883757Y-90417246D01*
X216093713Y-90450500D01*
X216093714Y-90450500D01*
X216306286Y-90450500D01*
X216306287Y-90450500D01*
X216516243Y-90417246D01*
X216718412Y-90351557D01*
X216907816Y-90255051D01*
X216994138Y-90192335D01*
X217079786Y-90130109D01*
X217079788Y-90130106D01*
X217079792Y-90130104D01*
X217230104Y-89979792D01*
X217230106Y-89979788D01*
X217230109Y-89979786D01*
X217355048Y-89807820D01*
X217355047Y-89807820D01*
X217355051Y-89807816D01*
X217359514Y-89799054D01*
X217407488Y-89748259D01*
X217475308Y-89731463D01*
X217541444Y-89753999D01*
X217580486Y-89799056D01*
X217584951Y-89807820D01*
X217709890Y-89979786D01*
X217860213Y-90130109D01*
X218032179Y-90255048D01*
X218032181Y-90255049D01*
X218032184Y-90255051D01*
X218221588Y-90351557D01*
X218423757Y-90417246D01*
X218633713Y-90450500D01*
X218633714Y-90450500D01*
X218846286Y-90450500D01*
X218846287Y-90450500D01*
X219056243Y-90417246D01*
X219258412Y-90351557D01*
X219447816Y-90255051D01*
X219534138Y-90192335D01*
X219619786Y-90130109D01*
X219619788Y-90130106D01*
X219619792Y-90130104D01*
X219770104Y-89979792D01*
X219770106Y-89979788D01*
X219770109Y-89979786D01*
X219895048Y-89807820D01*
X219895047Y-89807820D01*
X219895051Y-89807816D01*
X219991557Y-89618412D01*
X220057246Y-89416243D01*
X220090500Y-89206287D01*
X220090500Y-88993713D01*
X220057246Y-88783757D01*
X219991557Y-88581588D01*
X219895051Y-88392184D01*
X219895049Y-88392181D01*
X219895048Y-88392179D01*
X219770109Y-88220213D01*
X219619786Y-88069890D01*
X219447820Y-87944951D01*
X219258414Y-87848444D01*
X219258413Y-87848443D01*
X219258412Y-87848443D01*
X219056243Y-87782754D01*
X219056241Y-87782753D01*
X219056240Y-87782753D01*
X218894957Y-87757208D01*
X218846287Y-87749500D01*
X218633713Y-87749500D01*
X218585042Y-87757208D01*
X218423760Y-87782753D01*
X218221585Y-87848444D01*
X218032179Y-87944951D01*
X217860213Y-88069890D01*
X217709890Y-88220213D01*
X217584949Y-88392182D01*
X217580484Y-88400946D01*
X217532509Y-88451742D01*
X217464688Y-88468536D01*
X217398553Y-88445998D01*
X217359516Y-88400946D01*
X217355050Y-88392182D01*
X217230109Y-88220213D01*
X217079786Y-88069890D01*
X216907820Y-87944951D01*
X216718414Y-87848444D01*
X216718413Y-87848443D01*
X216718412Y-87848443D01*
X216516243Y-87782754D01*
X216516241Y-87782753D01*
X216516240Y-87782753D01*
X216354957Y-87757208D01*
X216306287Y-87749500D01*
X216093713Y-87749500D01*
X216045042Y-87757208D01*
X215883760Y-87782753D01*
X215681585Y-87848444D01*
X215492179Y-87944951D01*
X215320215Y-88069889D01*
X215206673Y-88183431D01*
X215145350Y-88216915D01*
X215075658Y-88211931D01*
X215019725Y-88170059D01*
X215002810Y-88139082D01*
X214953797Y-88007671D01*
X214953793Y-88007664D01*
X214867547Y-87892455D01*
X214867544Y-87892452D01*
X214752335Y-87806206D01*
X214752328Y-87806202D01*
X214617482Y-87755908D01*
X214617483Y-87755908D01*
X214557883Y-87749501D01*
X214557881Y-87749500D01*
X214557873Y-87749500D01*
X214557864Y-87749500D01*
X212762129Y-87749500D01*
X212762123Y-87749501D01*
X212702516Y-87755908D01*
X212567671Y-87806202D01*
X212567664Y-87806206D01*
X212452455Y-87892452D01*
X212452452Y-87892455D01*
X212366206Y-88007664D01*
X212366202Y-88007671D01*
X212315908Y-88142517D01*
X212309501Y-88202116D01*
X212309500Y-88202135D01*
X160500500Y-88202135D01*
X160500500Y-85871153D01*
X165399500Y-85871153D01*
X165399500Y-86028846D01*
X165430261Y-86183489D01*
X165430264Y-86183501D01*
X165490602Y-86329172D01*
X165490609Y-86329185D01*
X165578210Y-86460288D01*
X165578213Y-86460292D01*
X165630240Y-86512319D01*
X165663725Y-86573642D01*
X165658741Y-86643334D01*
X165630240Y-86687681D01*
X165578213Y-86739707D01*
X165578210Y-86739711D01*
X165490609Y-86870814D01*
X165490602Y-86870827D01*
X165430264Y-87016498D01*
X165430261Y-87016510D01*
X165399500Y-87171153D01*
X165399500Y-87328846D01*
X165430261Y-87483489D01*
X165430264Y-87483501D01*
X165490602Y-87629172D01*
X165490609Y-87629185D01*
X165578210Y-87760288D01*
X165578213Y-87760292D01*
X165689707Y-87871786D01*
X165689711Y-87871789D01*
X165820814Y-87959390D01*
X165820827Y-87959397D01*
X165966498Y-88019735D01*
X165966503Y-88019737D01*
X166121153Y-88050499D01*
X166121156Y-88050500D01*
X166121158Y-88050500D01*
X166278844Y-88050500D01*
X166278845Y-88050499D01*
X166433497Y-88019737D01*
X166579179Y-87959394D01*
X166710289Y-87871789D01*
X166821789Y-87760289D01*
X166909394Y-87629179D01*
X166969737Y-87483497D01*
X167000500Y-87328842D01*
X167000500Y-87171158D01*
X167000500Y-87171155D01*
X167000499Y-87171153D01*
X166973117Y-87033497D01*
X166969737Y-87016503D01*
X166969735Y-87016498D01*
X166909397Y-86870827D01*
X166909390Y-86870814D01*
X166855194Y-86789703D01*
X166855187Y-86789695D01*
X166821789Y-86739711D01*
X166803231Y-86721153D01*
X187499500Y-86721153D01*
X187499500Y-86878846D01*
X187530261Y-87033489D01*
X187530264Y-87033501D01*
X187590602Y-87179172D01*
X187590609Y-87179185D01*
X187678210Y-87310288D01*
X187678213Y-87310292D01*
X187789707Y-87421786D01*
X187789711Y-87421789D01*
X187920814Y-87509390D01*
X187920827Y-87509397D01*
X188066498Y-87569735D01*
X188066503Y-87569737D01*
X188221153Y-87600499D01*
X188221156Y-87600500D01*
X188221158Y-87600500D01*
X188378844Y-87600500D01*
X188378845Y-87600499D01*
X188533497Y-87569737D01*
X188679179Y-87509394D01*
X188810289Y-87421789D01*
X188921789Y-87310289D01*
X189009394Y-87179179D01*
X189012719Y-87171153D01*
X189069735Y-87033501D01*
X189069737Y-87033497D01*
X189100500Y-86878842D01*
X189100500Y-86721158D01*
X189100500Y-86721155D01*
X189100499Y-86721153D01*
X189085020Y-86643334D01*
X189069737Y-86566503D01*
X189069735Y-86566498D01*
X189009397Y-86420827D01*
X189009390Y-86420814D01*
X188921789Y-86289711D01*
X188921786Y-86289707D01*
X188810292Y-86178213D01*
X188810288Y-86178210D01*
X188679185Y-86090609D01*
X188679172Y-86090602D01*
X188533501Y-86030264D01*
X188533489Y-86030261D01*
X188378845Y-85999500D01*
X188378842Y-85999500D01*
X188221158Y-85999500D01*
X188221155Y-85999500D01*
X188066510Y-86030261D01*
X188066498Y-86030264D01*
X187920827Y-86090602D01*
X187920814Y-86090609D01*
X187789711Y-86178210D01*
X187789707Y-86178213D01*
X187678213Y-86289707D01*
X187678210Y-86289711D01*
X187590609Y-86420814D01*
X187590602Y-86420827D01*
X187530264Y-86566498D01*
X187530261Y-86566510D01*
X187499500Y-86721153D01*
X166803231Y-86721153D01*
X166766042Y-86683964D01*
X166762640Y-86679929D01*
X166750595Y-86652584D01*
X166736275Y-86626358D01*
X166736661Y-86620949D01*
X166734476Y-86615987D01*
X166739127Y-86586473D01*
X166741259Y-86556666D01*
X166744658Y-86551376D01*
X166745353Y-86546970D01*
X166753035Y-86538342D01*
X166769760Y-86512319D01*
X166821786Y-86460292D01*
X166821789Y-86460289D01*
X166909394Y-86329179D01*
X166969737Y-86183497D01*
X167000500Y-86028842D01*
X167000500Y-85871158D01*
X167000500Y-85871155D01*
X167000499Y-85871153D01*
X166975846Y-85747215D01*
X166969737Y-85716503D01*
X166920351Y-85597273D01*
X166909397Y-85570827D01*
X166909390Y-85570814D01*
X166821789Y-85439711D01*
X166821786Y-85439707D01*
X166710292Y-85328213D01*
X166710288Y-85328210D01*
X166579185Y-85240609D01*
X166579172Y-85240602D01*
X166433501Y-85180264D01*
X166433489Y-85180261D01*
X166278845Y-85149500D01*
X166278842Y-85149500D01*
X166121158Y-85149500D01*
X166121155Y-85149500D01*
X165966510Y-85180261D01*
X165966498Y-85180264D01*
X165820827Y-85240602D01*
X165820814Y-85240609D01*
X165689711Y-85328210D01*
X165689707Y-85328213D01*
X165578213Y-85439707D01*
X165578210Y-85439711D01*
X165490609Y-85570814D01*
X165490602Y-85570827D01*
X165430264Y-85716498D01*
X165430261Y-85716510D01*
X165399500Y-85871153D01*
X160500500Y-85871153D01*
X160500500Y-84797648D01*
X210672000Y-84797648D01*
X210672000Y-85002351D01*
X210704022Y-85204534D01*
X210767281Y-85399223D01*
X210831191Y-85524653D01*
X210854712Y-85570814D01*
X210860215Y-85581613D01*
X210980528Y-85747213D01*
X211125286Y-85891971D01*
X211273290Y-85999500D01*
X211290890Y-86012287D01*
X211407107Y-86071503D01*
X211473276Y-86105218D01*
X211473278Y-86105218D01*
X211473281Y-86105220D01*
X211577637Y-86139127D01*
X211667965Y-86168477D01*
X211762797Y-86183497D01*
X211870148Y-86200500D01*
X211870149Y-86200500D01*
X212074851Y-86200500D01*
X212074852Y-86200500D01*
X212277034Y-86168477D01*
X212471719Y-86105220D01*
X212654110Y-86012287D01*
X212747090Y-85944732D01*
X212819713Y-85891971D01*
X212819715Y-85891968D01*
X212819719Y-85891966D01*
X212964466Y-85747219D01*
X213039068Y-85644536D01*
X213094398Y-85601870D01*
X213164011Y-85595891D01*
X213225806Y-85628496D01*
X213260164Y-85689334D01*
X213262677Y-85704166D01*
X213268409Y-85757483D01*
X213318702Y-85892328D01*
X213318706Y-85892335D01*
X213404952Y-86007544D01*
X213404955Y-86007547D01*
X213520164Y-86093793D01*
X213520171Y-86093797D01*
X213655017Y-86144091D01*
X213655016Y-86144091D01*
X213661944Y-86144835D01*
X213714627Y-86150500D01*
X215310372Y-86150499D01*
X215369983Y-86144091D01*
X215504831Y-86093796D01*
X215620046Y-86007546D01*
X215706296Y-85892331D01*
X215756591Y-85757483D01*
X215762323Y-85704162D01*
X215789060Y-85639615D01*
X215846452Y-85599767D01*
X215916277Y-85597273D01*
X215976366Y-85632925D01*
X215985930Y-85644536D01*
X216060528Y-85747212D01*
X216060532Y-85747217D01*
X216205286Y-85891971D01*
X216353290Y-85999500D01*
X216370890Y-86012287D01*
X216487107Y-86071503D01*
X216553276Y-86105218D01*
X216553278Y-86105218D01*
X216553281Y-86105220D01*
X216657637Y-86139127D01*
X216747965Y-86168477D01*
X216842797Y-86183497D01*
X216950148Y-86200500D01*
X216950149Y-86200500D01*
X217154851Y-86200500D01*
X217154852Y-86200500D01*
X217357034Y-86168477D01*
X217551719Y-86105220D01*
X217734110Y-86012287D01*
X217827090Y-85944732D01*
X217899713Y-85891971D01*
X217899715Y-85891968D01*
X217899719Y-85891966D01*
X218044466Y-85747219D01*
X218044468Y-85747215D01*
X218044471Y-85747213D01*
X218122644Y-85639615D01*
X218164787Y-85581610D01*
X218257720Y-85399219D01*
X218320977Y-85204534D01*
X218353000Y-85002352D01*
X218353000Y-84797648D01*
X218320977Y-84595465D01*
X218257718Y-84400776D01*
X218222743Y-84332135D01*
X218164787Y-84218390D01*
X218150067Y-84198129D01*
X218044471Y-84052786D01*
X217899713Y-83908028D01*
X217734113Y-83787715D01*
X217734112Y-83787714D01*
X217734110Y-83787713D01*
X217673110Y-83756632D01*
X217551723Y-83694781D01*
X217357034Y-83631522D01*
X217182495Y-83603878D01*
X217154852Y-83599500D01*
X216950148Y-83599500D01*
X216925829Y-83603351D01*
X216747965Y-83631522D01*
X216553276Y-83694781D01*
X216370886Y-83787715D01*
X216205286Y-83908028D01*
X216060532Y-84052782D01*
X216060528Y-84052787D01*
X215985930Y-84155463D01*
X215930600Y-84198129D01*
X215860987Y-84204108D01*
X215799192Y-84171502D01*
X215764834Y-84110664D01*
X215762322Y-84095831D01*
X215756591Y-84042516D01*
X215706297Y-83907671D01*
X215706293Y-83907664D01*
X215620047Y-83792455D01*
X215620044Y-83792452D01*
X215504835Y-83706206D01*
X215504828Y-83706202D01*
X215369982Y-83655908D01*
X215369983Y-83655908D01*
X215310383Y-83649501D01*
X215310381Y-83649500D01*
X215310373Y-83649500D01*
X215310364Y-83649500D01*
X213714629Y-83649500D01*
X213714623Y-83649501D01*
X213655016Y-83655908D01*
X213520171Y-83706202D01*
X213520164Y-83706206D01*
X213404955Y-83792452D01*
X213404952Y-83792455D01*
X213318706Y-83907664D01*
X213318702Y-83907671D01*
X213268408Y-84042516D01*
X213262676Y-84095834D01*
X213235938Y-84160385D01*
X213178545Y-84200233D01*
X213108720Y-84202726D01*
X213048631Y-84167073D01*
X213039069Y-84155463D01*
X212964471Y-84052786D01*
X212819713Y-83908028D01*
X212654113Y-83787715D01*
X212654112Y-83787714D01*
X212654110Y-83787713D01*
X212593110Y-83756632D01*
X212471723Y-83694781D01*
X212277034Y-83631522D01*
X212102495Y-83603878D01*
X212074852Y-83599500D01*
X211870148Y-83599500D01*
X211845829Y-83603351D01*
X211667965Y-83631522D01*
X211473276Y-83694781D01*
X211290886Y-83787715D01*
X211125286Y-83908028D01*
X210980528Y-84052786D01*
X210860215Y-84218386D01*
X210767281Y-84400776D01*
X210704022Y-84595465D01*
X210672000Y-84797648D01*
X160500500Y-84797648D01*
X160500500Y-84034234D01*
X165739500Y-84034234D01*
X165739500Y-84185766D01*
X165759109Y-84258950D01*
X165778719Y-84332136D01*
X165816602Y-84397750D01*
X165854485Y-84463365D01*
X165961635Y-84570515D01*
X166092865Y-84646281D01*
X166239234Y-84685500D01*
X166239236Y-84685500D01*
X166390764Y-84685500D01*
X166390766Y-84685500D01*
X166537135Y-84646281D01*
X166668365Y-84570515D01*
X166775515Y-84463365D01*
X166851281Y-84332135D01*
X166890500Y-84185766D01*
X166890500Y-84034234D01*
X166851281Y-83887865D01*
X166775515Y-83756635D01*
X166668365Y-83649485D01*
X166581789Y-83599500D01*
X166537136Y-83573719D01*
X166463950Y-83554109D01*
X166390766Y-83534500D01*
X166239234Y-83534500D01*
X166092863Y-83573719D01*
X165961635Y-83649485D01*
X165961632Y-83649487D01*
X165854487Y-83756632D01*
X165854485Y-83756635D01*
X165778719Y-83887863D01*
X165739500Y-84034234D01*
X160500500Y-84034234D01*
X160500500Y-80821153D01*
X200299500Y-80821153D01*
X200299500Y-80978846D01*
X200330261Y-81133489D01*
X200330264Y-81133501D01*
X200390602Y-81279172D01*
X200390609Y-81279185D01*
X200478210Y-81410288D01*
X200478213Y-81410292D01*
X200589707Y-81521786D01*
X200589711Y-81521789D01*
X200720814Y-81609390D01*
X200720823Y-81609395D01*
X200783699Y-81635439D01*
X200838102Y-81679280D01*
X200860167Y-81745574D01*
X200842888Y-81813273D01*
X200791751Y-81860884D01*
X200783699Y-81864561D01*
X200720823Y-81890604D01*
X200720814Y-81890609D01*
X200589711Y-81978210D01*
X200589707Y-81978213D01*
X200478213Y-82089707D01*
X200478210Y-82089711D01*
X200390609Y-82220814D01*
X200390602Y-82220827D01*
X200330264Y-82366498D01*
X200330261Y-82366510D01*
X200299500Y-82521153D01*
X200299500Y-82678846D01*
X200330261Y-82833489D01*
X200330264Y-82833501D01*
X200390602Y-82979172D01*
X200390609Y-82979185D01*
X200478210Y-83110288D01*
X200478213Y-83110292D01*
X200589707Y-83221786D01*
X200589711Y-83221789D01*
X200720814Y-83309390D01*
X200720827Y-83309397D01*
X200866498Y-83369735D01*
X200866503Y-83369737D01*
X201021153Y-83400499D01*
X201021156Y-83400500D01*
X201021158Y-83400500D01*
X201178844Y-83400500D01*
X201178845Y-83400499D01*
X201333497Y-83369737D01*
X201479179Y-83309394D01*
X201610289Y-83221789D01*
X201721789Y-83110289D01*
X201809394Y-82979179D01*
X201869737Y-82833497D01*
X201900500Y-82678842D01*
X201900500Y-82521158D01*
X201900500Y-82521155D01*
X201900499Y-82521153D01*
X201869738Y-82366510D01*
X201869737Y-82366503D01*
X201869735Y-82366498D01*
X201809397Y-82220827D01*
X201809390Y-82220814D01*
X201721789Y-82089711D01*
X201721786Y-82089707D01*
X201610292Y-81978213D01*
X201610288Y-81978210D01*
X201479185Y-81890609D01*
X201479172Y-81890602D01*
X201416301Y-81864561D01*
X201361897Y-81820721D01*
X201339832Y-81754427D01*
X201357111Y-81686727D01*
X201408248Y-81639116D01*
X201416301Y-81635439D01*
X201479172Y-81609397D01*
X201479172Y-81609396D01*
X201479179Y-81609394D01*
X201610289Y-81521789D01*
X201721789Y-81410289D01*
X201809394Y-81279179D01*
X201869737Y-81133497D01*
X201900500Y-80978842D01*
X201900500Y-80821158D01*
X201900500Y-80821155D01*
X201900499Y-80821153D01*
X201869738Y-80666510D01*
X201869737Y-80666503D01*
X201869735Y-80666498D01*
X201809397Y-80520827D01*
X201809390Y-80520814D01*
X201721789Y-80389711D01*
X201721786Y-80389707D01*
X201610292Y-80278213D01*
X201610288Y-80278210D01*
X201479185Y-80190609D01*
X201479172Y-80190602D01*
X201333501Y-80130264D01*
X201333489Y-80130261D01*
X201178845Y-80099500D01*
X201178842Y-80099500D01*
X201021158Y-80099500D01*
X201021155Y-80099500D01*
X200866510Y-80130261D01*
X200866498Y-80130264D01*
X200720827Y-80190602D01*
X200720814Y-80190609D01*
X200589711Y-80278210D01*
X200589707Y-80278213D01*
X200478213Y-80389707D01*
X200478210Y-80389711D01*
X200390609Y-80520814D01*
X200390602Y-80520827D01*
X200330264Y-80666498D01*
X200330261Y-80666510D01*
X200299500Y-80821153D01*
X160500500Y-80821153D01*
X160500500Y-70421153D01*
X210499500Y-70421153D01*
X210499500Y-70578846D01*
X210530261Y-70733489D01*
X210530264Y-70733501D01*
X210590602Y-70879172D01*
X210590609Y-70879185D01*
X210625304Y-70931109D01*
X210646182Y-70997786D01*
X210627698Y-71065167D01*
X210625304Y-71068891D01*
X210590609Y-71120814D01*
X210590602Y-71120827D01*
X210530264Y-71266498D01*
X210530261Y-71266510D01*
X210499500Y-71421153D01*
X210499500Y-71578846D01*
X210530261Y-71733489D01*
X210530264Y-71733501D01*
X210590602Y-71879172D01*
X210590609Y-71879185D01*
X210625304Y-71931109D01*
X210646182Y-71997786D01*
X210627698Y-72065167D01*
X210625304Y-72068891D01*
X210590609Y-72120814D01*
X210590602Y-72120827D01*
X210530264Y-72266498D01*
X210530261Y-72266510D01*
X210499500Y-72421153D01*
X210499500Y-72578846D01*
X210530261Y-72733489D01*
X210530264Y-72733501D01*
X210590602Y-72879172D01*
X210590609Y-72879185D01*
X210625304Y-72931109D01*
X210646182Y-72997786D01*
X210627698Y-73065167D01*
X210625304Y-73068891D01*
X210590609Y-73120814D01*
X210590602Y-73120827D01*
X210530264Y-73266498D01*
X210530261Y-73266510D01*
X210499500Y-73421153D01*
X210499500Y-73578846D01*
X210530261Y-73733489D01*
X210530264Y-73733501D01*
X210590602Y-73879172D01*
X210590609Y-73879185D01*
X210625304Y-73931109D01*
X210646182Y-73997786D01*
X210627698Y-74065167D01*
X210625304Y-74068891D01*
X210590609Y-74120814D01*
X210590602Y-74120827D01*
X210530264Y-74266498D01*
X210530261Y-74266510D01*
X210499500Y-74421153D01*
X210499500Y-74578846D01*
X210530261Y-74733489D01*
X210530264Y-74733501D01*
X210590602Y-74879172D01*
X210590609Y-74879185D01*
X210625304Y-74931109D01*
X210646182Y-74997786D01*
X210627698Y-75065167D01*
X210625304Y-75068891D01*
X210590609Y-75120814D01*
X210590602Y-75120827D01*
X210530264Y-75266498D01*
X210530261Y-75266510D01*
X210499500Y-75421153D01*
X210499500Y-75578846D01*
X210530261Y-75733489D01*
X210530264Y-75733501D01*
X210590602Y-75879172D01*
X210590609Y-75879185D01*
X210678210Y-76010288D01*
X210678213Y-76010292D01*
X210789707Y-76121786D01*
X210789711Y-76121789D01*
X210920814Y-76209390D01*
X210920827Y-76209397D01*
X211066498Y-76269735D01*
X211066503Y-76269737D01*
X211221153Y-76300499D01*
X211221156Y-76300500D01*
X211221158Y-76300500D01*
X211378844Y-76300500D01*
X211378845Y-76300499D01*
X211533497Y-76269737D01*
X211679179Y-76209394D01*
X211731110Y-76174694D01*
X211797785Y-76153816D01*
X211865165Y-76172300D01*
X211868863Y-76174676D01*
X211920821Y-76209394D01*
X211920823Y-76209395D01*
X211920825Y-76209396D01*
X212066498Y-76269735D01*
X212066503Y-76269737D01*
X212221153Y-76300499D01*
X212221156Y-76300500D01*
X212221158Y-76300500D01*
X212378844Y-76300500D01*
X212378845Y-76300499D01*
X212533497Y-76269737D01*
X212679179Y-76209394D01*
X212731110Y-76174694D01*
X212797785Y-76153816D01*
X212865165Y-76172300D01*
X212868863Y-76174676D01*
X212920821Y-76209394D01*
X212920823Y-76209395D01*
X212920825Y-76209396D01*
X213066498Y-76269735D01*
X213066503Y-76269737D01*
X213221153Y-76300499D01*
X213221156Y-76300500D01*
X213221158Y-76300500D01*
X213378844Y-76300500D01*
X213378845Y-76300499D01*
X213533497Y-76269737D01*
X213679179Y-76209394D01*
X213810289Y-76121789D01*
X213921789Y-76010289D01*
X214009394Y-75879179D01*
X214069737Y-75733497D01*
X214100500Y-75578842D01*
X214100500Y-75421158D01*
X214100500Y-75421155D01*
X214100499Y-75421153D01*
X214088483Y-75360746D01*
X214069737Y-75266503D01*
X214017788Y-75141085D01*
X214009396Y-75120825D01*
X214009394Y-75120822D01*
X214009394Y-75120821D01*
X213974694Y-75068889D01*
X213968720Y-75049813D01*
X213958214Y-75032804D01*
X213958493Y-75017152D01*
X213953816Y-75002215D01*
X213959104Y-74982935D01*
X213959462Y-74962945D01*
X213971477Y-74937831D01*
X213972300Y-74934835D01*
X213974676Y-74931136D01*
X214000636Y-74892285D01*
X214054249Y-74847481D01*
X214123574Y-74838775D01*
X214184858Y-74868097D01*
X214185001Y-74867924D01*
X214185706Y-74868503D01*
X214186601Y-74868931D01*
X214189006Y-74871211D01*
X214189711Y-74871789D01*
X214320814Y-74959390D01*
X214320827Y-74959397D01*
X214460262Y-75017152D01*
X214466503Y-75019737D01*
X214617704Y-75049813D01*
X214621153Y-75050499D01*
X214621156Y-75050500D01*
X214621158Y-75050500D01*
X214778844Y-75050500D01*
X214778845Y-75050499D01*
X214933497Y-75019737D01*
X215079179Y-74959394D01*
X215210289Y-74871789D01*
X215321789Y-74760289D01*
X215409394Y-74629179D01*
X215469737Y-74483497D01*
X215500500Y-74328842D01*
X215500500Y-74171158D01*
X215500500Y-74171155D01*
X215500499Y-74171153D01*
X217149500Y-74171153D01*
X217149500Y-74328846D01*
X217180261Y-74483489D01*
X217180264Y-74483501D01*
X217240602Y-74629172D01*
X217240609Y-74629185D01*
X217328210Y-74760288D01*
X217328213Y-74760292D01*
X217439707Y-74871786D01*
X217439711Y-74871789D01*
X217570814Y-74959390D01*
X217570827Y-74959397D01*
X217710262Y-75017152D01*
X217716503Y-75019737D01*
X217867704Y-75049813D01*
X217871153Y-75050499D01*
X217871156Y-75050500D01*
X217871158Y-75050500D01*
X218028844Y-75050500D01*
X218028845Y-75050499D01*
X218183497Y-75019737D01*
X218329179Y-74959394D01*
X218460289Y-74871789D01*
X218571789Y-74760289D01*
X218659394Y-74629179D01*
X218719737Y-74483497D01*
X218750500Y-74328842D01*
X218750500Y-74171158D01*
X218750500Y-74171155D01*
X218750499Y-74171153D01*
X218740486Y-74120814D01*
X218719737Y-74016503D01*
X218684366Y-73931109D01*
X218659397Y-73870827D01*
X218659390Y-73870814D01*
X218571789Y-73739711D01*
X218571786Y-73739707D01*
X218460292Y-73628213D01*
X218460288Y-73628210D01*
X218329185Y-73540609D01*
X218329172Y-73540602D01*
X218183501Y-73480264D01*
X218183489Y-73480261D01*
X218028845Y-73449500D01*
X218028842Y-73449500D01*
X217871158Y-73449500D01*
X217871155Y-73449500D01*
X217716510Y-73480261D01*
X217716498Y-73480264D01*
X217570827Y-73540602D01*
X217570814Y-73540609D01*
X217439711Y-73628210D01*
X217439707Y-73628213D01*
X217328213Y-73739707D01*
X217328210Y-73739711D01*
X217240609Y-73870814D01*
X217240602Y-73870827D01*
X217180264Y-74016498D01*
X217180261Y-74016510D01*
X217149500Y-74171153D01*
X215500499Y-74171153D01*
X215490486Y-74120814D01*
X215469737Y-74016503D01*
X215434366Y-73931109D01*
X215409397Y-73870827D01*
X215409390Y-73870814D01*
X215321789Y-73739711D01*
X215321786Y-73739707D01*
X215210292Y-73628213D01*
X215210288Y-73628210D01*
X215079185Y-73540609D01*
X215079172Y-73540602D01*
X214933501Y-73480264D01*
X214933489Y-73480261D01*
X214778845Y-73449500D01*
X214778842Y-73449500D01*
X214621158Y-73449500D01*
X214621155Y-73449500D01*
X214466510Y-73480261D01*
X214466498Y-73480264D01*
X214320827Y-73540602D01*
X214320816Y-73540608D01*
X214293390Y-73558934D01*
X214226712Y-73579811D01*
X214159332Y-73561326D01*
X214112643Y-73509346D01*
X214100500Y-73455831D01*
X214100500Y-73421155D01*
X214100499Y-73421153D01*
X214069738Y-73266510D01*
X214069737Y-73266503D01*
X214069735Y-73266498D01*
X214009396Y-73120825D01*
X214009394Y-73120822D01*
X214009394Y-73120821D01*
X213974694Y-73068889D01*
X213953816Y-73002215D01*
X213972300Y-72934835D01*
X213974676Y-72931136D01*
X214009394Y-72879179D01*
X214069737Y-72733497D01*
X214100500Y-72578842D01*
X214100500Y-72421158D01*
X214100500Y-72421155D01*
X214100499Y-72421153D01*
X214069738Y-72266510D01*
X214069737Y-72266503D01*
X214069735Y-72266498D01*
X214009396Y-72120825D01*
X214009394Y-72120822D01*
X214009394Y-72120821D01*
X213974694Y-72068889D01*
X213953816Y-72002215D01*
X213972300Y-71934835D01*
X213974676Y-71931136D01*
X214009394Y-71879179D01*
X214069737Y-71733497D01*
X214100500Y-71578842D01*
X214100500Y-71421158D01*
X214100500Y-71421155D01*
X214100499Y-71421153D01*
X214069738Y-71266510D01*
X214069737Y-71266503D01*
X214069735Y-71266498D01*
X214009396Y-71120825D01*
X214009394Y-71120822D01*
X214009394Y-71120821D01*
X213974694Y-71068889D01*
X213953816Y-71002215D01*
X213972300Y-70934835D01*
X213974676Y-70931136D01*
X214009394Y-70879179D01*
X214069737Y-70733497D01*
X214100500Y-70578842D01*
X214100500Y-70421158D01*
X214100500Y-70421155D01*
X214100499Y-70421153D01*
X214069738Y-70266510D01*
X214069737Y-70266503D01*
X214069735Y-70266498D01*
X214009397Y-70120827D01*
X214009390Y-70120814D01*
X213921789Y-69989711D01*
X213921786Y-69989707D01*
X213810292Y-69878213D01*
X213810288Y-69878210D01*
X213679185Y-69790609D01*
X213679172Y-69790602D01*
X213533501Y-69730264D01*
X213533489Y-69730261D01*
X213378845Y-69699500D01*
X213378842Y-69699500D01*
X213221158Y-69699500D01*
X213221155Y-69699500D01*
X213066510Y-69730261D01*
X213066498Y-69730264D01*
X212920827Y-69790602D01*
X212920814Y-69790609D01*
X212868891Y-69825304D01*
X212802214Y-69846182D01*
X212734833Y-69827698D01*
X212731109Y-69825304D01*
X212679185Y-69790609D01*
X212679172Y-69790602D01*
X212533501Y-69730264D01*
X212533489Y-69730261D01*
X212378845Y-69699500D01*
X212378842Y-69699500D01*
X212221158Y-69699500D01*
X212221155Y-69699500D01*
X212066510Y-69730261D01*
X212066498Y-69730264D01*
X211920827Y-69790602D01*
X211920814Y-69790609D01*
X211868891Y-69825304D01*
X211802214Y-69846182D01*
X211734833Y-69827698D01*
X211731109Y-69825304D01*
X211679185Y-69790609D01*
X211679172Y-69790602D01*
X211533501Y-69730264D01*
X211533489Y-69730261D01*
X211378845Y-69699500D01*
X211378842Y-69699500D01*
X211221158Y-69699500D01*
X211221155Y-69699500D01*
X211066510Y-69730261D01*
X211066498Y-69730264D01*
X210920827Y-69790602D01*
X210920814Y-69790609D01*
X210789711Y-69878210D01*
X210789707Y-69878213D01*
X210678213Y-69989707D01*
X210678210Y-69989711D01*
X210590609Y-70120814D01*
X210590602Y-70120827D01*
X210530264Y-70266498D01*
X210530261Y-70266510D01*
X210499500Y-70421153D01*
X160500500Y-70421153D01*
X160500500Y-65331902D01*
X210649500Y-65331902D01*
X210649500Y-65568097D01*
X210686446Y-65801368D01*
X210759433Y-66025996D01*
X210866519Y-66236163D01*
X210866657Y-66236433D01*
X211005483Y-66427510D01*
X211172490Y-66594517D01*
X211363567Y-66733343D01*
X211462991Y-66784002D01*
X211574003Y-66840566D01*
X211574005Y-66840566D01*
X211574008Y-66840568D01*
X211694412Y-66879689D01*
X211798631Y-66913553D01*
X212031903Y-66950500D01*
X212031908Y-66950500D01*
X212268097Y-66950500D01*
X212501368Y-66913553D01*
X212502870Y-66913065D01*
X212725992Y-66840568D01*
X212936433Y-66733343D01*
X213127510Y-66594517D01*
X213294517Y-66427510D01*
X213433343Y-66236433D01*
X213540568Y-66025992D01*
X213613553Y-65801368D01*
X213615717Y-65787708D01*
X213650500Y-65568097D01*
X213650500Y-65331947D01*
X215150000Y-65331947D01*
X215150000Y-65568052D01*
X215186934Y-65801247D01*
X215259897Y-66025802D01*
X215367087Y-66236174D01*
X215427338Y-66319104D01*
X215427340Y-66319105D01*
X216126212Y-65620233D01*
X216137482Y-65662292D01*
X216209890Y-65787708D01*
X216312292Y-65890110D01*
X216437708Y-65962518D01*
X216479765Y-65973787D01*
X215780893Y-66672658D01*
X215863828Y-66732914D01*
X216074197Y-66840102D01*
X216298752Y-66913065D01*
X216298751Y-66913065D01*
X216531948Y-66950000D01*
X216768052Y-66950000D01*
X217001247Y-66913065D01*
X217225802Y-66840102D01*
X217436163Y-66732918D01*
X217436169Y-66732914D01*
X217519104Y-66672658D01*
X217519105Y-66672658D01*
X216820233Y-65973787D01*
X216862292Y-65962518D01*
X216987708Y-65890110D01*
X217090110Y-65787708D01*
X217162518Y-65662292D01*
X217173787Y-65620233D01*
X217872658Y-66319105D01*
X217872658Y-66319104D01*
X217932914Y-66236169D01*
X217932918Y-66236163D01*
X218040102Y-66025802D01*
X218113065Y-65801247D01*
X218150000Y-65568052D01*
X218150000Y-65331947D01*
X218113065Y-65098752D01*
X218040102Y-64874197D01*
X217932914Y-64663828D01*
X217872658Y-64580894D01*
X217872658Y-64580893D01*
X217173787Y-65279765D01*
X217162518Y-65237708D01*
X217090110Y-65112292D01*
X216987708Y-65009890D01*
X216862292Y-64937482D01*
X216820234Y-64926212D01*
X217519105Y-64227340D01*
X217519104Y-64227338D01*
X217436174Y-64167087D01*
X217225802Y-64059897D01*
X217001247Y-63986934D01*
X217001248Y-63986934D01*
X216768052Y-63950000D01*
X216531948Y-63950000D01*
X216298752Y-63986934D01*
X216074197Y-64059897D01*
X215863830Y-64167084D01*
X215780894Y-64227340D01*
X216479766Y-64926212D01*
X216437708Y-64937482D01*
X216312292Y-65009890D01*
X216209890Y-65112292D01*
X216137482Y-65237708D01*
X216126212Y-65279766D01*
X215427340Y-64580894D01*
X215367084Y-64663830D01*
X215259897Y-64874197D01*
X215186934Y-65098752D01*
X215150000Y-65331947D01*
X213650500Y-65331947D01*
X213650500Y-65331902D01*
X213613553Y-65098631D01*
X213540566Y-64874003D01*
X213433477Y-64663830D01*
X213433343Y-64663567D01*
X213294517Y-64472490D01*
X213127510Y-64305483D01*
X212936433Y-64166657D01*
X212725996Y-64059433D01*
X212501368Y-63986446D01*
X212268097Y-63949500D01*
X212268092Y-63949500D01*
X212031908Y-63949500D01*
X212031903Y-63949500D01*
X211798631Y-63986446D01*
X211574003Y-64059433D01*
X211363566Y-64166657D01*
X211280047Y-64227338D01*
X211172490Y-64305483D01*
X211172488Y-64305485D01*
X211172487Y-64305485D01*
X211005485Y-64472487D01*
X211005485Y-64472488D01*
X211005483Y-64472490D01*
X210945862Y-64554550D01*
X210866657Y-64663566D01*
X210759433Y-64874003D01*
X210686446Y-65098631D01*
X210649500Y-65331902D01*
X160500500Y-65331902D01*
X160500500Y-58831902D01*
X210649500Y-58831902D01*
X210649500Y-59068097D01*
X210686446Y-59301368D01*
X210759433Y-59525996D01*
X210866519Y-59736163D01*
X210866657Y-59736433D01*
X211005483Y-59927510D01*
X211172490Y-60094517D01*
X211363567Y-60233343D01*
X211462991Y-60284002D01*
X211574003Y-60340566D01*
X211574005Y-60340566D01*
X211574008Y-60340568D01*
X211694412Y-60379689D01*
X211798631Y-60413553D01*
X212031903Y-60450500D01*
X212031908Y-60450500D01*
X212268097Y-60450500D01*
X212501368Y-60413553D01*
X212502870Y-60413065D01*
X212725992Y-60340568D01*
X212936433Y-60233343D01*
X213127510Y-60094517D01*
X213294517Y-59927510D01*
X213433343Y-59736433D01*
X213540568Y-59525992D01*
X213613553Y-59301368D01*
X213615717Y-59287708D01*
X213650500Y-59068097D01*
X213650500Y-58831947D01*
X215150000Y-58831947D01*
X215150000Y-59068052D01*
X215186934Y-59301247D01*
X215259897Y-59525802D01*
X215367087Y-59736174D01*
X215427338Y-59819104D01*
X215427340Y-59819105D01*
X216126212Y-59120233D01*
X216137482Y-59162292D01*
X216209890Y-59287708D01*
X216312292Y-59390110D01*
X216437708Y-59462518D01*
X216479765Y-59473787D01*
X215780893Y-60172658D01*
X215863828Y-60232914D01*
X216074197Y-60340102D01*
X216298752Y-60413065D01*
X216298751Y-60413065D01*
X216531948Y-60450000D01*
X216768052Y-60450000D01*
X217001247Y-60413065D01*
X217225802Y-60340102D01*
X217436163Y-60232918D01*
X217436169Y-60232914D01*
X217519104Y-60172658D01*
X217519105Y-60172658D01*
X216820233Y-59473787D01*
X216862292Y-59462518D01*
X216987708Y-59390110D01*
X217090110Y-59287708D01*
X217162518Y-59162292D01*
X217173787Y-59120233D01*
X217872658Y-59819105D01*
X217872658Y-59819104D01*
X217932914Y-59736169D01*
X217932918Y-59736163D01*
X218040102Y-59525802D01*
X218113065Y-59301247D01*
X218150000Y-59068052D01*
X218150000Y-58831947D01*
X218113065Y-58598752D01*
X218040102Y-58374197D01*
X217932914Y-58163828D01*
X217872658Y-58080894D01*
X217872658Y-58080893D01*
X217173787Y-58779765D01*
X217162518Y-58737708D01*
X217090110Y-58612292D01*
X216987708Y-58509890D01*
X216862292Y-58437482D01*
X216820234Y-58426212D01*
X217519105Y-57727340D01*
X217519104Y-57727338D01*
X217436174Y-57667087D01*
X217225802Y-57559897D01*
X217001247Y-57486934D01*
X217001248Y-57486934D01*
X216768052Y-57450000D01*
X216531948Y-57450000D01*
X216298752Y-57486934D01*
X216074197Y-57559897D01*
X215863830Y-57667084D01*
X215780894Y-57727340D01*
X216479766Y-58426212D01*
X216437708Y-58437482D01*
X216312292Y-58509890D01*
X216209890Y-58612292D01*
X216137482Y-58737708D01*
X216126212Y-58779766D01*
X215427340Y-58080894D01*
X215367084Y-58163830D01*
X215259897Y-58374197D01*
X215186934Y-58598752D01*
X215150000Y-58831947D01*
X213650500Y-58831947D01*
X213650500Y-58831902D01*
X213613553Y-58598631D01*
X213540566Y-58374003D01*
X213433477Y-58163830D01*
X213433343Y-58163567D01*
X213294517Y-57972490D01*
X213127510Y-57805483D01*
X212936433Y-57666657D01*
X212725996Y-57559433D01*
X212501368Y-57486446D01*
X212268097Y-57449500D01*
X212268092Y-57449500D01*
X212031908Y-57449500D01*
X212031903Y-57449500D01*
X211798631Y-57486446D01*
X211574003Y-57559433D01*
X211363566Y-57666657D01*
X211280047Y-57727338D01*
X211172490Y-57805483D01*
X211172488Y-57805485D01*
X211172487Y-57805485D01*
X211005485Y-57972487D01*
X211005485Y-57972488D01*
X211005483Y-57972490D01*
X210945862Y-58054550D01*
X210866657Y-58163566D01*
X210759433Y-58374003D01*
X210686446Y-58598631D01*
X210649500Y-58831902D01*
X160500500Y-58831902D01*
X160500500Y-44693713D01*
X211509500Y-44693713D01*
X211509500Y-44906286D01*
X211542753Y-45116239D01*
X211608444Y-45318414D01*
X211704951Y-45507820D01*
X211829890Y-45679786D01*
X211980213Y-45830109D01*
X212152182Y-45955050D01*
X212160946Y-45959516D01*
X212211742Y-46007491D01*
X212228536Y-46075312D01*
X212205998Y-46141447D01*
X212160946Y-46180484D01*
X212152182Y-46184949D01*
X211980213Y-46309890D01*
X211829890Y-46460213D01*
X211704951Y-46632179D01*
X211608444Y-46821585D01*
X211542753Y-47023760D01*
X211509500Y-47233713D01*
X211509500Y-47446286D01*
X211542753Y-47656239D01*
X211608444Y-47858414D01*
X211704951Y-48047820D01*
X211829890Y-48219786D01*
X211980213Y-48370109D01*
X212152182Y-48495050D01*
X212160946Y-48499516D01*
X212211742Y-48547491D01*
X212228536Y-48615312D01*
X212205998Y-48681447D01*
X212160946Y-48720484D01*
X212152182Y-48724949D01*
X211980213Y-48849890D01*
X211829890Y-49000213D01*
X211704951Y-49172179D01*
X211608444Y-49361585D01*
X211542753Y-49563760D01*
X211509500Y-49773713D01*
X211509500Y-49986286D01*
X211542753Y-50196239D01*
X211608444Y-50398414D01*
X211704951Y-50587820D01*
X211829890Y-50759786D01*
X211980213Y-50910109D01*
X212152179Y-51035048D01*
X212152181Y-51035049D01*
X212152184Y-51035051D01*
X212341588Y-51131557D01*
X212543757Y-51197246D01*
X212753713Y-51230500D01*
X212753714Y-51230500D01*
X212966286Y-51230500D01*
X212966287Y-51230500D01*
X213176243Y-51197246D01*
X213378412Y-51131557D01*
X213567816Y-51035051D01*
X213589789Y-51019086D01*
X213739786Y-50910109D01*
X213739788Y-50910106D01*
X213739792Y-50910104D01*
X213890104Y-50759792D01*
X213890106Y-50759788D01*
X213890109Y-50759786D01*
X214015048Y-50587820D01*
X214015047Y-50587820D01*
X214015051Y-50587816D01*
X214019514Y-50579054D01*
X214067488Y-50528259D01*
X214135308Y-50511463D01*
X214201444Y-50533999D01*
X214240486Y-50579056D01*
X214244951Y-50587820D01*
X214369890Y-50759786D01*
X214520213Y-50910109D01*
X214692179Y-51035048D01*
X214692181Y-51035049D01*
X214692184Y-51035051D01*
X214881588Y-51131557D01*
X215083757Y-51197246D01*
X215293713Y-51230500D01*
X215293714Y-51230500D01*
X215506286Y-51230500D01*
X215506287Y-51230500D01*
X215716243Y-51197246D01*
X215918412Y-51131557D01*
X216107816Y-51035051D01*
X216129789Y-51019086D01*
X216279786Y-50910109D01*
X216279788Y-50910106D01*
X216279792Y-50910104D01*
X216430104Y-50759792D01*
X216430106Y-50759788D01*
X216430109Y-50759786D01*
X216555048Y-50587820D01*
X216555047Y-50587820D01*
X216555051Y-50587816D01*
X216651557Y-50398412D01*
X216717246Y-50196243D01*
X216750500Y-49986287D01*
X216750500Y-49773713D01*
X216717246Y-49563757D01*
X216651557Y-49361588D01*
X216555051Y-49172184D01*
X216555049Y-49172181D01*
X216555048Y-49172179D01*
X216430109Y-49000213D01*
X216279786Y-48849890D01*
X216107820Y-48724951D01*
X216107115Y-48724591D01*
X216099054Y-48720485D01*
X216048259Y-48672512D01*
X216031463Y-48604692D01*
X216053999Y-48538556D01*
X216099054Y-48499515D01*
X216107816Y-48495051D01*
X216129789Y-48479086D01*
X216279786Y-48370109D01*
X216279788Y-48370106D01*
X216279792Y-48370104D01*
X216430104Y-48219792D01*
X216430106Y-48219788D01*
X216430109Y-48219786D01*
X216555048Y-48047820D01*
X216555047Y-48047820D01*
X216555051Y-48047816D01*
X216651557Y-47858412D01*
X216717246Y-47656243D01*
X216750500Y-47446287D01*
X216750500Y-47233713D01*
X216717246Y-47023757D01*
X216651557Y-46821588D01*
X216555051Y-46632184D01*
X216555049Y-46632181D01*
X216555048Y-46632179D01*
X216430109Y-46460213D01*
X216316569Y-46346673D01*
X216283084Y-46285350D01*
X216288068Y-46215658D01*
X216329940Y-46159725D01*
X216360915Y-46142810D01*
X216492331Y-46093796D01*
X216607546Y-46007546D01*
X216693796Y-45892331D01*
X216744091Y-45757483D01*
X216750500Y-45697873D01*
X216750499Y-43902128D01*
X216744091Y-43842517D01*
X216742810Y-43839083D01*
X216693797Y-43707671D01*
X216693793Y-43707664D01*
X216607547Y-43592455D01*
X216607544Y-43592452D01*
X216492335Y-43506206D01*
X216492328Y-43506202D01*
X216357482Y-43455908D01*
X216357483Y-43455908D01*
X216297883Y-43449501D01*
X216297881Y-43449500D01*
X216297873Y-43449500D01*
X216297864Y-43449500D01*
X214502129Y-43449500D01*
X214502123Y-43449501D01*
X214442516Y-43455908D01*
X214307671Y-43506202D01*
X214307664Y-43506206D01*
X214192455Y-43592452D01*
X214192452Y-43592455D01*
X214106206Y-43707664D01*
X214106203Y-43707669D01*
X214057189Y-43839083D01*
X214015317Y-43895016D01*
X213949853Y-43919433D01*
X213881580Y-43904581D01*
X213853326Y-43883430D01*
X213739786Y-43769890D01*
X213567820Y-43644951D01*
X213378414Y-43548444D01*
X213378413Y-43548443D01*
X213378412Y-43548443D01*
X213176243Y-43482754D01*
X213176241Y-43482753D01*
X213176240Y-43482753D01*
X213014957Y-43457208D01*
X212966287Y-43449500D01*
X212753713Y-43449500D01*
X212705042Y-43457208D01*
X212543760Y-43482753D01*
X212341585Y-43548444D01*
X212152179Y-43644951D01*
X211980213Y-43769890D01*
X211829890Y-43920213D01*
X211704951Y-44092179D01*
X211608444Y-44281585D01*
X211542753Y-44483760D01*
X211509500Y-44693713D01*
X160500500Y-44693713D01*
X160500500Y-31006961D01*
X160501280Y-30993077D01*
X160501741Y-30988986D01*
X160511459Y-30902731D01*
X160517635Y-30875670D01*
X160545353Y-30796456D01*
X160557396Y-30771450D01*
X160602046Y-30700389D01*
X160619351Y-30678690D01*
X160678690Y-30619351D01*
X160700389Y-30602046D01*
X160771450Y-30557396D01*
X160796456Y-30545353D01*
X160875670Y-30517635D01*
X160902733Y-30511459D01*
X160965419Y-30504396D01*
X160993079Y-30501280D01*
X161006962Y-30500500D01*
X161065892Y-30500500D01*
X218634108Y-30500500D01*
X218696948Y-30500500D01*
X218703032Y-30500649D01*
G37*
G04 #@! TD.AperFunction*
M02*
