G04 #@! TF.GenerationSoftware,KiCad,Pcbnew,9.0.2*
G04 #@! TF.CreationDate,2025-11-19T20:23:31-06:00*
G04 #@! TF.ProjectId,pocket-caddy,706f636b-6574-42d6-9361-6464792e6b69,0.1*
G04 #@! TF.SameCoordinates,Original*
G04 #@! TF.FileFunction,Copper,L2,Inr*
G04 #@! TF.FilePolarity,Positive*
%FSLAX46Y46*%
G04 Gerber Fmt 4.6, Leading zero omitted, Abs format (unit mm)*
G04 Created by KiCad (PCBNEW 9.0.2) date 2025-11-19 20:23:31*
%MOMM*%
%LPD*%
G01*
G04 APERTURE LIST*
G04 Aperture macros list*
%AMRoundRect*
0 Rectangle with rounded corners*
0 $1 Rounding radius*
0 $2 $3 $4 $5 $6 $7 $8 $9 X,Y pos of 4 corners*
0 Add a 4 corners polygon primitive as box body*
4,1,4,$2,$3,$4,$5,$6,$7,$8,$9,$2,$3,0*
0 Add four circle primitives for the rounded corners*
1,1,$1+$1,$2,$3*
1,1,$1+$1,$4,$5*
1,1,$1+$1,$6,$7*
1,1,$1+$1,$8,$9*
0 Add four rect primitives between the rounded corners*
20,1,$1+$1,$2,$3,$4,$5,0*
20,1,$1+$1,$4,$5,$6,$7,0*
20,1,$1+$1,$6,$7,$8,$9,0*
20,1,$1+$1,$8,$9,$2,$3,0*%
G04 Aperture macros list end*
G04 #@! TA.AperFunction,HeatsinkPad*
%ADD10O,2.100000X1.000000*%
G04 #@! TD*
G04 #@! TA.AperFunction,HeatsinkPad*
%ADD11O,1.800000X1.000000*%
G04 #@! TD*
G04 #@! TA.AperFunction,ComponentPad*
%ADD12C,6.400000*%
G04 #@! TD*
G04 #@! TA.AperFunction,ComponentPad*
%ADD13C,2.000000*%
G04 #@! TD*
G04 #@! TA.AperFunction,ComponentPad*
%ADD14RoundRect,0.250001X0.799999X-0.799999X0.799999X0.799999X-0.799999X0.799999X-0.799999X-0.799999X0*%
G04 #@! TD*
G04 #@! TA.AperFunction,ComponentPad*
%ADD15C,2.100000*%
G04 #@! TD*
G04 #@! TA.AperFunction,ComponentPad*
%ADD16R,1.700000X1.700000*%
G04 #@! TD*
G04 #@! TA.AperFunction,ComponentPad*
%ADD17C,1.700000*%
G04 #@! TD*
G04 #@! TA.AperFunction,HeatsinkPad*
%ADD18C,0.500000*%
G04 #@! TD*
G04 #@! TA.AperFunction,ComponentPad*
%ADD19C,5.400000*%
G04 #@! TD*
G04 #@! TA.AperFunction,HeatsinkPad*
%ADD20C,0.600000*%
G04 #@! TD*
G04 #@! TA.AperFunction,ComponentPad*
%ADD21R,1.500000X1.500000*%
G04 #@! TD*
G04 #@! TA.AperFunction,ComponentPad*
%ADD22C,1.600000*%
G04 #@! TD*
G04 #@! TA.AperFunction,ViaPad*
%ADD23C,0.600000*%
G04 #@! TD*
G04 APERTURE END LIST*
D10*
X166815000Y-82680000D03*
D11*
X162635000Y-82680000D03*
D10*
X166815000Y-91320000D03*
D11*
X162635000Y-91320000D03*
D12*
X164100000Y-125900000D03*
D13*
X216650000Y-62550000D03*
X216650000Y-69050000D03*
X212150000Y-62550000D03*
X212150000Y-69050000D03*
X214250000Y-115600000D03*
X220750000Y-115600000D03*
X214250000Y-120100000D03*
X220750000Y-120100000D03*
D12*
X223900000Y-125900000D03*
D14*
X223700000Y-102790000D03*
D15*
X223700000Y-100250000D03*
X223700000Y-97710000D03*
D16*
X215400000Y-48616000D03*
D17*
X212860000Y-48616000D03*
X215400000Y-51156000D03*
X212860000Y-51156000D03*
X215400000Y-53696000D03*
X212860000Y-53696000D03*
X215400000Y-56236000D03*
X212860000Y-56236000D03*
D18*
X215790000Y-108640000D03*
X215065000Y-107665000D03*
X215790000Y-107665000D03*
X216515000Y-107665000D03*
X215790000Y-106690000D03*
D12*
X218700000Y-34100000D03*
D16*
X202790000Y-82250000D03*
D17*
X200250000Y-82250000D03*
X197710000Y-82250000D03*
X195170000Y-82250000D03*
D19*
X188740000Y-105750000D03*
X209240000Y-105750000D03*
D20*
X173550000Y-107027500D03*
X174650000Y-107027500D03*
X173000000Y-106477500D03*
X174100000Y-106477500D03*
X175200000Y-106477500D03*
X173550000Y-105927500D03*
X174650000Y-105927500D03*
X173000000Y-105377500D03*
X174100000Y-105377500D03*
X175200000Y-105377500D03*
X173550000Y-104827500D03*
X174650000Y-104827500D03*
D13*
X190750000Y-120100000D03*
X184250000Y-120100000D03*
X190750000Y-115600000D03*
X184250000Y-115600000D03*
D21*
X222450000Y-89550000D03*
D22*
X222450000Y-92090000D03*
X222450000Y-87010000D03*
D12*
X223900000Y-80000000D03*
D13*
X199250000Y-115600000D03*
X205750000Y-115600000D03*
X199250000Y-120100000D03*
X205750000Y-120100000D03*
D23*
X161250000Y-42500000D03*
X178750000Y-57500000D03*
X216550000Y-81350000D03*
X203750000Y-67500000D03*
X186100000Y-86600000D03*
X187300000Y-67000000D03*
X196250000Y-52500000D03*
X183900000Y-86600000D03*
X166250000Y-32500000D03*
X166250000Y-42500000D03*
X182900000Y-70000000D03*
X208750000Y-77500000D03*
X171250000Y-32500000D03*
X186250000Y-42500000D03*
X226700000Y-106400000D03*
X176250000Y-32500000D03*
X171250000Y-52500000D03*
X182700000Y-65500000D03*
X198750000Y-57500000D03*
X206250000Y-32500000D03*
X191250000Y-72500000D03*
X181250000Y-62500000D03*
X166250000Y-72500000D03*
X196250000Y-32500000D03*
X170000000Y-122800000D03*
X186250000Y-62500000D03*
X182900000Y-73000000D03*
X178750000Y-67500000D03*
X198750000Y-67500000D03*
X213000000Y-72000000D03*
X212175000Y-97260000D03*
X163750000Y-77500000D03*
X214000000Y-110600000D03*
X199100000Y-111600000D03*
X163750000Y-57500000D03*
X201250000Y-52500000D03*
X198750000Y-77500000D03*
X211375000Y-97260000D03*
X181250000Y-32500000D03*
X182900000Y-76000000D03*
X212175000Y-98060000D03*
X196250000Y-42500000D03*
X214600000Y-104300000D03*
X198750000Y-47500000D03*
X193750000Y-47500000D03*
X187300000Y-65500000D03*
X206250000Y-52500000D03*
X201250000Y-32500000D03*
X167937500Y-94637500D03*
X218700000Y-94000000D03*
X186250000Y-52500000D03*
X168000000Y-101000000D03*
X208750000Y-67500000D03*
X201250000Y-72500000D03*
X161250000Y-62500000D03*
X171250000Y-42500000D03*
X178750000Y-47500000D03*
X216200000Y-94000000D03*
X173750000Y-37500000D03*
X187100000Y-70000000D03*
X168000000Y-110000000D03*
X206250000Y-62500000D03*
X216550000Y-81950000D03*
X193200000Y-105300000D03*
X208750000Y-37500000D03*
X184200000Y-65200000D03*
X203750000Y-77500000D03*
X173750000Y-47500000D03*
X168750000Y-47500000D03*
X196250000Y-72500000D03*
X163750000Y-37500000D03*
X181250000Y-52500000D03*
X183750000Y-47500000D03*
X210400000Y-114800000D03*
X185800000Y-65200000D03*
X168000000Y-107000000D03*
X193750000Y-77500000D03*
X173750000Y-57500000D03*
X201250000Y-62500000D03*
X168000000Y-104000000D03*
X168750000Y-77500000D03*
X187100000Y-79000000D03*
X211375000Y-98060000D03*
X181250000Y-42500000D03*
X176250000Y-42500000D03*
X182900000Y-74500000D03*
X161250000Y-72500000D03*
X166250000Y-52500000D03*
X186250000Y-32500000D03*
X176250000Y-62500000D03*
X168000000Y-108500000D03*
X181200000Y-115600000D03*
X201250000Y-42500000D03*
X171700000Y-122500000D03*
X183900000Y-95400000D03*
X191250000Y-52500000D03*
X212975000Y-98060000D03*
X208750000Y-47500000D03*
X182900000Y-79000000D03*
X183750000Y-37500000D03*
X203750000Y-57500000D03*
X212975000Y-96460000D03*
X187100000Y-77500000D03*
X168000000Y-102500000D03*
X212975000Y-97260000D03*
X182700000Y-67000000D03*
X172900000Y-90800000D03*
X193750000Y-67500000D03*
X163750000Y-47500000D03*
X191250000Y-42500000D03*
X206250000Y-72500000D03*
X203750000Y-37500000D03*
X218600000Y-108850000D03*
X191250000Y-32500000D03*
X193750000Y-37500000D03*
X183750000Y-57500000D03*
X203750000Y-47500000D03*
X178750000Y-77500000D03*
X211200000Y-90700000D03*
X187100000Y-71500000D03*
X176250000Y-72500000D03*
X182700000Y-68500000D03*
X168750000Y-37500000D03*
X168000000Y-105500000D03*
X216550000Y-82550000D03*
X193750000Y-57500000D03*
X173750000Y-67500000D03*
X161250000Y-52500000D03*
X187100000Y-73000000D03*
X172000000Y-85300000D03*
X188750000Y-57500000D03*
X198200000Y-98700000D03*
X198200000Y-101500000D03*
X187300000Y-68500000D03*
X166250000Y-62500000D03*
X196250000Y-62500000D03*
X171250000Y-72500000D03*
X166600000Y-121700000D03*
X191250000Y-62500000D03*
X161250000Y-32500000D03*
X163750000Y-67500000D03*
X182900000Y-77500000D03*
X212175000Y-96460000D03*
X198750000Y-37500000D03*
X211375000Y-96460000D03*
X168750000Y-57500000D03*
X178750000Y-37500000D03*
X187100000Y-74500000D03*
X176250000Y-52500000D03*
X191300000Y-86600000D03*
X187100000Y-76000000D03*
X168750000Y-67500000D03*
X206250000Y-42500000D03*
X188750000Y-47500000D03*
X188750000Y-37500000D03*
X199100000Y-108700000D03*
X173750000Y-77500000D03*
X208500000Y-117800000D03*
X208750000Y-57500000D03*
X176900000Y-127300000D03*
X171250000Y-62500000D03*
X182900000Y-71500000D03*
X221200000Y-95100000D03*
X203950000Y-105000000D03*
X211700000Y-94400000D03*
X196100000Y-89100000D03*
X194500000Y-89100000D03*
X202900000Y-87500000D03*
X202900000Y-89100000D03*
X194500000Y-87500000D03*
X215100000Y-97600000D03*
X201400000Y-87500000D03*
X196100000Y-87500000D03*
X201400000Y-89100000D03*
X215100000Y-96800000D03*
X218600000Y-92100000D03*
X211100000Y-73900000D03*
X211500000Y-121400000D03*
X213100000Y-74900000D03*
X211100000Y-78900000D03*
X167900000Y-112200000D03*
X213100000Y-78900000D03*
X211100000Y-74900000D03*
X200700000Y-106600000D03*
X167900000Y-114037500D03*
X217750000Y-77650000D03*
X202000000Y-112100000D03*
X213100000Y-76900000D03*
X176800000Y-122400000D03*
X198000000Y-106600000D03*
X211100000Y-76900000D03*
X213100000Y-73900000D03*
X174700000Y-127400000D03*
X212100000Y-73900000D03*
X213100000Y-75900000D03*
X213100000Y-77900000D03*
X211100000Y-77900000D03*
X212100000Y-74900000D03*
X174850000Y-122400000D03*
X212100000Y-78900000D03*
X214500000Y-77650000D03*
X180200000Y-122400000D03*
X187900000Y-100300000D03*
X212100000Y-76900000D03*
X211100000Y-75900000D03*
X212100000Y-75900000D03*
X212100000Y-77900000D03*
X167900000Y-113100000D03*
X176950000Y-110500000D03*
X169400000Y-114050000D03*
X174550000Y-112900000D03*
X178400000Y-100700000D03*
X178400000Y-103150000D03*
X170900000Y-99400000D03*
X176200000Y-117800000D03*
X179350000Y-120250000D03*
X176900000Y-114350000D03*
X174900000Y-118000000D03*
X195000000Y-107300000D03*
X172400000Y-99400000D03*
X213525000Y-109875000D03*
X184800000Y-102700000D03*
X196000000Y-109400000D03*
X184800000Y-101200000D03*
X196000000Y-110900000D03*
X215790000Y-110508492D03*
X210300000Y-95250000D03*
X176900000Y-99400000D03*
X188300000Y-81500000D03*
X166200000Y-85950000D03*
X166200000Y-87250000D03*
X216000000Y-104550000D03*
X218600000Y-104550000D03*
G04 #@! TA.AperFunction,Conductor*
G36*
X218703032Y-30500649D02*
G01*
X218764007Y-30503644D01*
X219046735Y-30517534D01*
X219058837Y-30518726D01*
X219396212Y-30568770D01*
X219408122Y-30571139D01*
X219738991Y-30654018D01*
X219750604Y-30657541D01*
X220014957Y-30752128D01*
X220071728Y-30772442D01*
X220082969Y-30777098D01*
X220291376Y-30875666D01*
X220391294Y-30922923D01*
X220402011Y-30928651D01*
X220694545Y-31103990D01*
X220704663Y-31110750D01*
X220978610Y-31313923D01*
X220988016Y-31321643D01*
X221240725Y-31550685D01*
X221249314Y-31559274D01*
X221309608Y-31625798D01*
X221478356Y-31811983D01*
X221486076Y-31821389D01*
X221689249Y-32095336D01*
X221696009Y-32105454D01*
X221871341Y-32397976D01*
X221877078Y-32408709D01*
X222022901Y-32717030D01*
X222027557Y-32728271D01*
X222142453Y-33049379D01*
X222145986Y-33061024D01*
X222228857Y-33391864D01*
X222231231Y-33403800D01*
X222281272Y-33741158D01*
X222282465Y-33753267D01*
X222299351Y-34096967D01*
X222299500Y-34103052D01*
X222299500Y-74914469D01*
X222332080Y-75141075D01*
X222332083Y-75141085D01*
X222396583Y-75360751D01*
X222491680Y-75568985D01*
X222491693Y-75569008D01*
X222615456Y-75761587D01*
X222615460Y-75761593D01*
X222765384Y-75934615D01*
X222938406Y-76084539D01*
X222938412Y-76084543D01*
X223130991Y-76208306D01*
X223131014Y-76208319D01*
X223339248Y-76303416D01*
X223339252Y-76303417D01*
X223339254Y-76303418D01*
X223558920Y-76367918D01*
X223558921Y-76367918D01*
X223558924Y-76367919D01*
X223626494Y-76377633D01*
X223785530Y-76400500D01*
X223834108Y-76400500D01*
X223896948Y-76400500D01*
X223903032Y-76400649D01*
X223964007Y-76403644D01*
X224246735Y-76417534D01*
X224258837Y-76418726D01*
X224596212Y-76468770D01*
X224608122Y-76471139D01*
X224938991Y-76554018D01*
X224950604Y-76557541D01*
X225214957Y-76652128D01*
X225271728Y-76672442D01*
X225282969Y-76677098D01*
X225501500Y-76780454D01*
X225591294Y-76822923D01*
X225602011Y-76828651D01*
X225894545Y-77003990D01*
X225904660Y-77010748D01*
X226078541Y-77139707D01*
X226178610Y-77213923D01*
X226188016Y-77221643D01*
X226440725Y-77450685D01*
X226449314Y-77459274D01*
X226550717Y-77571155D01*
X226678356Y-77711983D01*
X226686076Y-77721389D01*
X226889249Y-77995336D01*
X226896009Y-78005454D01*
X227067930Y-78292286D01*
X227071341Y-78297976D01*
X227077078Y-78308709D01*
X227222901Y-78617030D01*
X227227557Y-78628271D01*
X227342453Y-78949379D01*
X227345986Y-78961024D01*
X227428857Y-79291864D01*
X227431231Y-79303800D01*
X227481272Y-79641158D01*
X227482465Y-79653267D01*
X227499351Y-79996967D01*
X227499500Y-80003052D01*
X227499500Y-125896947D01*
X227499351Y-125903032D01*
X227482465Y-126246732D01*
X227481272Y-126258841D01*
X227431231Y-126596199D01*
X227428857Y-126608135D01*
X227345986Y-126938975D01*
X227342453Y-126950620D01*
X227227557Y-127271728D01*
X227222901Y-127282969D01*
X227077078Y-127591290D01*
X227071341Y-127602023D01*
X226896009Y-127894545D01*
X226889249Y-127904663D01*
X226686076Y-128178610D01*
X226678356Y-128188016D01*
X226449322Y-128440717D01*
X226440717Y-128449322D01*
X226188016Y-128678356D01*
X226178610Y-128686076D01*
X225904663Y-128889249D01*
X225894545Y-128896009D01*
X225602023Y-129071341D01*
X225591290Y-129077078D01*
X225282969Y-129222901D01*
X225271728Y-129227557D01*
X224950620Y-129342453D01*
X224938975Y-129345986D01*
X224608135Y-129428857D01*
X224596199Y-129431231D01*
X224258841Y-129481272D01*
X224246732Y-129482465D01*
X223903033Y-129499351D01*
X223896948Y-129499500D01*
X164103052Y-129499500D01*
X164096967Y-129499351D01*
X163753267Y-129482465D01*
X163741158Y-129481272D01*
X163403800Y-129431231D01*
X163391864Y-129428857D01*
X163061024Y-129345986D01*
X163049379Y-129342453D01*
X162728271Y-129227557D01*
X162717030Y-129222901D01*
X162408709Y-129077078D01*
X162397981Y-129071343D01*
X162105454Y-128896009D01*
X162095336Y-128889249D01*
X161821389Y-128686076D01*
X161811983Y-128678356D01*
X161771690Y-128641837D01*
X161559274Y-128449314D01*
X161550685Y-128440725D01*
X161321643Y-128188016D01*
X161313923Y-128178610D01*
X161110750Y-127904663D01*
X161103990Y-127894545D01*
X160928651Y-127602011D01*
X160922921Y-127591290D01*
X160817353Y-127368082D01*
X160795157Y-127321153D01*
X173899500Y-127321153D01*
X173899500Y-127478846D01*
X173930261Y-127633489D01*
X173930264Y-127633501D01*
X173990602Y-127779172D01*
X173990609Y-127779185D01*
X174078210Y-127910288D01*
X174078213Y-127910292D01*
X174189707Y-128021786D01*
X174189711Y-128021789D01*
X174320814Y-128109390D01*
X174320827Y-128109397D01*
X174466498Y-128169735D01*
X174466503Y-128169737D01*
X174621153Y-128200499D01*
X174621156Y-128200500D01*
X174621158Y-128200500D01*
X174778844Y-128200500D01*
X174778845Y-128200499D01*
X174933497Y-128169737D01*
X175079179Y-128109394D01*
X175210289Y-128021789D01*
X175321789Y-127910289D01*
X175409394Y-127779179D01*
X175469737Y-127633497D01*
X175500500Y-127478842D01*
X175500500Y-127321158D01*
X175500500Y-127321155D01*
X175500499Y-127321153D01*
X175469738Y-127166510D01*
X175469737Y-127166503D01*
X175469735Y-127166498D01*
X175409397Y-127020827D01*
X175409390Y-127020814D01*
X175321789Y-126889711D01*
X175321786Y-126889707D01*
X175210292Y-126778213D01*
X175210288Y-126778210D01*
X175079185Y-126690609D01*
X175079172Y-126690602D01*
X174933501Y-126630264D01*
X174933489Y-126630261D01*
X174778845Y-126599500D01*
X174778842Y-126599500D01*
X174621158Y-126599500D01*
X174621155Y-126599500D01*
X174466510Y-126630261D01*
X174466498Y-126630264D01*
X174320827Y-126690602D01*
X174320814Y-126690609D01*
X174189711Y-126778210D01*
X174189707Y-126778213D01*
X174078213Y-126889707D01*
X174078210Y-126889711D01*
X173990609Y-127020814D01*
X173990602Y-127020827D01*
X173930264Y-127166498D01*
X173930261Y-127166510D01*
X173899500Y-127321153D01*
X160795157Y-127321153D01*
X160777098Y-127282969D01*
X160772442Y-127271728D01*
X160682665Y-127020821D01*
X160657541Y-126950604D01*
X160654018Y-126938991D01*
X160571139Y-126608122D01*
X160568770Y-126596212D01*
X160518726Y-126258837D01*
X160517534Y-126246731D01*
X160500649Y-125903031D01*
X160500500Y-125896947D01*
X160500500Y-122321153D01*
X174049500Y-122321153D01*
X174049500Y-122478846D01*
X174080261Y-122633489D01*
X174080264Y-122633501D01*
X174140602Y-122779172D01*
X174140609Y-122779185D01*
X174228210Y-122910288D01*
X174228213Y-122910292D01*
X174339707Y-123021786D01*
X174339711Y-123021789D01*
X174470814Y-123109390D01*
X174470827Y-123109397D01*
X174616498Y-123169735D01*
X174616503Y-123169737D01*
X174771153Y-123200499D01*
X174771156Y-123200500D01*
X174771158Y-123200500D01*
X174928844Y-123200500D01*
X174928845Y-123200499D01*
X175083497Y-123169737D01*
X175229179Y-123109394D01*
X175360289Y-123021789D01*
X175471789Y-122910289D01*
X175559394Y-122779179D01*
X175619737Y-122633497D01*
X175650500Y-122478842D01*
X175650500Y-122321158D01*
X175650500Y-122321155D01*
X175650499Y-122321153D01*
X175999500Y-122321153D01*
X175999500Y-122478846D01*
X176030261Y-122633489D01*
X176030264Y-122633501D01*
X176090602Y-122779172D01*
X176090609Y-122779185D01*
X176178210Y-122910288D01*
X176178213Y-122910292D01*
X176289707Y-123021786D01*
X176289711Y-123021789D01*
X176420814Y-123109390D01*
X176420827Y-123109397D01*
X176566498Y-123169735D01*
X176566503Y-123169737D01*
X176721153Y-123200499D01*
X176721156Y-123200500D01*
X176721158Y-123200500D01*
X176878844Y-123200500D01*
X176878845Y-123200499D01*
X177033497Y-123169737D01*
X177179179Y-123109394D01*
X177310289Y-123021789D01*
X177421789Y-122910289D01*
X177509394Y-122779179D01*
X177569737Y-122633497D01*
X177600500Y-122478842D01*
X177600500Y-122321158D01*
X177600500Y-122321155D01*
X177600499Y-122321153D01*
X179399500Y-122321153D01*
X179399500Y-122478846D01*
X179430261Y-122633489D01*
X179430264Y-122633501D01*
X179490602Y-122779172D01*
X179490609Y-122779185D01*
X179578210Y-122910288D01*
X179578213Y-122910292D01*
X179689707Y-123021786D01*
X179689711Y-123021789D01*
X179820814Y-123109390D01*
X179820827Y-123109397D01*
X179966498Y-123169735D01*
X179966503Y-123169737D01*
X180121153Y-123200499D01*
X180121156Y-123200500D01*
X180121158Y-123200500D01*
X180278844Y-123200500D01*
X180278845Y-123200499D01*
X180433497Y-123169737D01*
X180579179Y-123109394D01*
X180710289Y-123021789D01*
X180821789Y-122910289D01*
X180909394Y-122779179D01*
X180969737Y-122633497D01*
X181000500Y-122478842D01*
X181000500Y-122321158D01*
X181000500Y-122321155D01*
X181000499Y-122321153D01*
X180969738Y-122166510D01*
X180969737Y-122166503D01*
X180909794Y-122021786D01*
X180909397Y-122020827D01*
X180909390Y-122020814D01*
X180821789Y-121889711D01*
X180821786Y-121889707D01*
X180710292Y-121778213D01*
X180710288Y-121778210D01*
X180579185Y-121690609D01*
X180579172Y-121690602D01*
X180433501Y-121630264D01*
X180433489Y-121630261D01*
X180278845Y-121599500D01*
X180278842Y-121599500D01*
X180121158Y-121599500D01*
X180121155Y-121599500D01*
X179966510Y-121630261D01*
X179966498Y-121630264D01*
X179820827Y-121690602D01*
X179820814Y-121690609D01*
X179689711Y-121778210D01*
X179689707Y-121778213D01*
X179578213Y-121889707D01*
X179578210Y-121889711D01*
X179490609Y-122020814D01*
X179490602Y-122020827D01*
X179430264Y-122166498D01*
X179430261Y-122166510D01*
X179399500Y-122321153D01*
X177600499Y-122321153D01*
X177569738Y-122166510D01*
X177569737Y-122166503D01*
X177509794Y-122021786D01*
X177509397Y-122020827D01*
X177509390Y-122020814D01*
X177421789Y-121889711D01*
X177421786Y-121889707D01*
X177310292Y-121778213D01*
X177310288Y-121778210D01*
X177179185Y-121690609D01*
X177179172Y-121690602D01*
X177033501Y-121630264D01*
X177033489Y-121630261D01*
X176878845Y-121599500D01*
X176878842Y-121599500D01*
X176721158Y-121599500D01*
X176721155Y-121599500D01*
X176566510Y-121630261D01*
X176566498Y-121630264D01*
X176420827Y-121690602D01*
X176420814Y-121690609D01*
X176289711Y-121778210D01*
X176289707Y-121778213D01*
X176178213Y-121889707D01*
X176178210Y-121889711D01*
X176090609Y-122020814D01*
X176090602Y-122020827D01*
X176030264Y-122166498D01*
X176030261Y-122166510D01*
X175999500Y-122321153D01*
X175650499Y-122321153D01*
X175619738Y-122166510D01*
X175619737Y-122166503D01*
X175559794Y-122021786D01*
X175559397Y-122020827D01*
X175559390Y-122020814D01*
X175471789Y-121889711D01*
X175471786Y-121889707D01*
X175360292Y-121778213D01*
X175360288Y-121778210D01*
X175229185Y-121690609D01*
X175229172Y-121690602D01*
X175083501Y-121630264D01*
X175083489Y-121630261D01*
X174928845Y-121599500D01*
X174928842Y-121599500D01*
X174771158Y-121599500D01*
X174771155Y-121599500D01*
X174616510Y-121630261D01*
X174616498Y-121630264D01*
X174470827Y-121690602D01*
X174470814Y-121690609D01*
X174339711Y-121778210D01*
X174339707Y-121778213D01*
X174228213Y-121889707D01*
X174228210Y-121889711D01*
X174140609Y-122020814D01*
X174140602Y-122020827D01*
X174080264Y-122166498D01*
X174080261Y-122166510D01*
X174049500Y-122321153D01*
X160500500Y-122321153D01*
X160500500Y-121906961D01*
X160501280Y-121893077D01*
X160501660Y-121889707D01*
X160511459Y-121802731D01*
X160517635Y-121775670D01*
X160545353Y-121696456D01*
X160557396Y-121671450D01*
X160602046Y-121600389D01*
X160619351Y-121578690D01*
X160678690Y-121519351D01*
X160700389Y-121502046D01*
X160771450Y-121457396D01*
X160796456Y-121445353D01*
X160875670Y-121417635D01*
X160902733Y-121411459D01*
X160965419Y-121404396D01*
X160993079Y-121401280D01*
X161006962Y-121400500D01*
X165607317Y-121400500D01*
X165607318Y-121400500D01*
X165789612Y-121374290D01*
X165819764Y-121369955D01*
X165819765Y-121369954D01*
X165819769Y-121369954D01*
X166025710Y-121309484D01*
X166025713Y-121309482D01*
X166025715Y-121309482D01*
X166220938Y-121220327D01*
X166220942Y-121220324D01*
X166220950Y-121220321D01*
X166401513Y-121104281D01*
X166563724Y-120963724D01*
X166592689Y-120930297D01*
X166651467Y-120892523D01*
X166686402Y-120887500D01*
X166800000Y-120887500D01*
X166800000Y-120688980D01*
X166818747Y-120625135D01*
X166818199Y-120624836D01*
X166819574Y-120622316D01*
X166819685Y-120621941D01*
X166819687Y-120621937D01*
X166820318Y-120620954D01*
X166820321Y-120620950D01*
X166820324Y-120620942D01*
X166820327Y-120620938D01*
X166909482Y-120425715D01*
X166909482Y-120425713D01*
X166909484Y-120425710D01*
X166969954Y-120219769D01*
X166976944Y-120171153D01*
X178549500Y-120171153D01*
X178549500Y-120328846D01*
X178580261Y-120483489D01*
X178580264Y-120483501D01*
X178640602Y-120629172D01*
X178640609Y-120629185D01*
X178728210Y-120760288D01*
X178728213Y-120760292D01*
X178839707Y-120871786D01*
X178839711Y-120871789D01*
X178970814Y-120959390D01*
X178970827Y-120959397D01*
X179116498Y-121019735D01*
X179116503Y-121019737D01*
X179271153Y-121050499D01*
X179271156Y-121050500D01*
X179271158Y-121050500D01*
X179428844Y-121050500D01*
X179428845Y-121050499D01*
X179583497Y-121019737D01*
X179705737Y-120969104D01*
X179729172Y-120959397D01*
X179729172Y-120959396D01*
X179729179Y-120959394D01*
X179860289Y-120871789D01*
X179971789Y-120760289D01*
X180059394Y-120629179D01*
X180119737Y-120483497D01*
X180150500Y-120328842D01*
X180150500Y-120171158D01*
X180150500Y-120171155D01*
X180150499Y-120171153D01*
X180119738Y-120016507D01*
X180119736Y-120016500D01*
X180105424Y-119981947D01*
X182750000Y-119981947D01*
X182750000Y-120218052D01*
X182786934Y-120451247D01*
X182859897Y-120675802D01*
X182967087Y-120886174D01*
X183027338Y-120969104D01*
X183027340Y-120969105D01*
X183726212Y-120270233D01*
X183737482Y-120312292D01*
X183809890Y-120437708D01*
X183912292Y-120540110D01*
X184037708Y-120612518D01*
X184079765Y-120623787D01*
X183380893Y-121322658D01*
X183463828Y-121382914D01*
X183674197Y-121490102D01*
X183898752Y-121563065D01*
X183898751Y-121563065D01*
X184131948Y-121600000D01*
X184368052Y-121600000D01*
X184601247Y-121563065D01*
X184825802Y-121490102D01*
X185036163Y-121382918D01*
X185036169Y-121382914D01*
X185119104Y-121322658D01*
X185119105Y-121322658D01*
X184420233Y-120623787D01*
X184462292Y-120612518D01*
X184587708Y-120540110D01*
X184690110Y-120437708D01*
X184762518Y-120312292D01*
X184773787Y-120270233D01*
X185472658Y-120969105D01*
X185472658Y-120969104D01*
X185532914Y-120886169D01*
X185532918Y-120886163D01*
X185640102Y-120675802D01*
X185713065Y-120451247D01*
X185750000Y-120218052D01*
X185750000Y-119981947D01*
X189250000Y-119981947D01*
X189250000Y-120218052D01*
X189286934Y-120451247D01*
X189359897Y-120675802D01*
X189467087Y-120886174D01*
X189527338Y-120969104D01*
X189527340Y-120969105D01*
X190226212Y-120270233D01*
X190237482Y-120312292D01*
X190309890Y-120437708D01*
X190412292Y-120540110D01*
X190537708Y-120612518D01*
X190579765Y-120623787D01*
X189880893Y-121322658D01*
X189963828Y-121382914D01*
X190174197Y-121490102D01*
X190398752Y-121563065D01*
X190398751Y-121563065D01*
X190631948Y-121600000D01*
X190868052Y-121600000D01*
X191101247Y-121563065D01*
X191325802Y-121490102D01*
X191536163Y-121382918D01*
X191536169Y-121382914D01*
X191619104Y-121322658D01*
X191619105Y-121322658D01*
X190920233Y-120623787D01*
X190962292Y-120612518D01*
X191087708Y-120540110D01*
X191190110Y-120437708D01*
X191262518Y-120312292D01*
X191273787Y-120270234D01*
X191972658Y-120969105D01*
X191972658Y-120969104D01*
X192032914Y-120886169D01*
X192032918Y-120886163D01*
X192140102Y-120675802D01*
X192213065Y-120451247D01*
X192250000Y-120218052D01*
X192250000Y-119981947D01*
X197750000Y-119981947D01*
X197750000Y-120218052D01*
X197786934Y-120451247D01*
X197859897Y-120675802D01*
X197967087Y-120886174D01*
X198027338Y-120969104D01*
X198027340Y-120969105D01*
X198726212Y-120270233D01*
X198737482Y-120312292D01*
X198809890Y-120437708D01*
X198912292Y-120540110D01*
X199037708Y-120612518D01*
X199079765Y-120623787D01*
X198380893Y-121322658D01*
X198463828Y-121382914D01*
X198674197Y-121490102D01*
X198898752Y-121563065D01*
X198898751Y-121563065D01*
X199131948Y-121600000D01*
X199368052Y-121600000D01*
X199601247Y-121563065D01*
X199825802Y-121490102D01*
X200036163Y-121382918D01*
X200036169Y-121382914D01*
X200119104Y-121322658D01*
X200119105Y-121322658D01*
X199420233Y-120623787D01*
X199462292Y-120612518D01*
X199587708Y-120540110D01*
X199690110Y-120437708D01*
X199762518Y-120312292D01*
X199773787Y-120270233D01*
X200472658Y-120969105D01*
X200472658Y-120969104D01*
X200532914Y-120886169D01*
X200532918Y-120886163D01*
X200640102Y-120675802D01*
X200713065Y-120451247D01*
X200750000Y-120218052D01*
X200750000Y-119981947D01*
X204250000Y-119981947D01*
X204250000Y-120218052D01*
X204286934Y-120451247D01*
X204359897Y-120675802D01*
X204467087Y-120886174D01*
X204527338Y-120969104D01*
X204527340Y-120969105D01*
X205226212Y-120270233D01*
X205237482Y-120312292D01*
X205309890Y-120437708D01*
X205412292Y-120540110D01*
X205537708Y-120612518D01*
X205579765Y-120623787D01*
X204880893Y-121322658D01*
X204963828Y-121382914D01*
X205174197Y-121490102D01*
X205398752Y-121563065D01*
X205398751Y-121563065D01*
X205631948Y-121600000D01*
X205868052Y-121600000D01*
X206101247Y-121563065D01*
X206325802Y-121490102D01*
X206536163Y-121382918D01*
X206536169Y-121382914D01*
X206619104Y-121322658D01*
X206617599Y-121321153D01*
X210699500Y-121321153D01*
X210699500Y-121478846D01*
X210730261Y-121633489D01*
X210730264Y-121633501D01*
X210790602Y-121779172D01*
X210790609Y-121779185D01*
X210878210Y-121910288D01*
X210878213Y-121910292D01*
X210989707Y-122021786D01*
X210989711Y-122021789D01*
X211120814Y-122109390D01*
X211120827Y-122109397D01*
X211258683Y-122166498D01*
X211266503Y-122169737D01*
X211421153Y-122200499D01*
X211421156Y-122200500D01*
X211421158Y-122200500D01*
X211578844Y-122200500D01*
X211578845Y-122200499D01*
X211733497Y-122169737D01*
X211879179Y-122109394D01*
X212010289Y-122021789D01*
X212121789Y-121910289D01*
X212209394Y-121779179D01*
X212269737Y-121633497D01*
X212300500Y-121478842D01*
X212300500Y-121321158D01*
X212269737Y-121166503D01*
X212243963Y-121104279D01*
X212209397Y-121020827D01*
X212209390Y-121020814D01*
X212121789Y-120889711D01*
X212121786Y-120889707D01*
X212010292Y-120778213D01*
X212010288Y-120778210D01*
X211879185Y-120690609D01*
X211879172Y-120690602D01*
X211733501Y-120630264D01*
X211733489Y-120630261D01*
X211578845Y-120599500D01*
X211578842Y-120599500D01*
X211421158Y-120599500D01*
X211421155Y-120599500D01*
X211266510Y-120630261D01*
X211266498Y-120630264D01*
X211120827Y-120690602D01*
X211120814Y-120690609D01*
X210989711Y-120778210D01*
X210989707Y-120778213D01*
X210878213Y-120889707D01*
X210878210Y-120889711D01*
X210790609Y-121020814D01*
X210790602Y-121020827D01*
X210730264Y-121166498D01*
X210730261Y-121166510D01*
X210699500Y-121321153D01*
X206617599Y-121321153D01*
X205920233Y-120623787D01*
X205962292Y-120612518D01*
X206087708Y-120540110D01*
X206190110Y-120437708D01*
X206262518Y-120312292D01*
X206273787Y-120270234D01*
X206972658Y-120969105D01*
X206972658Y-120969104D01*
X207032914Y-120886169D01*
X207032918Y-120886163D01*
X207140102Y-120675802D01*
X207213065Y-120451247D01*
X207250000Y-120218052D01*
X207250000Y-119981947D01*
X212750000Y-119981947D01*
X212750000Y-120218052D01*
X212786934Y-120451247D01*
X212859897Y-120675802D01*
X212967087Y-120886174D01*
X213027338Y-120969104D01*
X213027340Y-120969105D01*
X213726212Y-120270233D01*
X213737482Y-120312292D01*
X213809890Y-120437708D01*
X213912292Y-120540110D01*
X214037708Y-120612518D01*
X214079765Y-120623787D01*
X213380893Y-121322658D01*
X213463828Y-121382914D01*
X213674197Y-121490102D01*
X213898752Y-121563065D01*
X213898751Y-121563065D01*
X214131948Y-121600000D01*
X214368052Y-121600000D01*
X214601247Y-121563065D01*
X214825802Y-121490102D01*
X215036163Y-121382918D01*
X215036169Y-121382914D01*
X215119104Y-121322658D01*
X215119105Y-121322658D01*
X214420233Y-120623787D01*
X214462292Y-120612518D01*
X214587708Y-120540110D01*
X214690110Y-120437708D01*
X214762518Y-120312292D01*
X214773787Y-120270233D01*
X215472658Y-120969105D01*
X215472658Y-120969104D01*
X215532914Y-120886169D01*
X215532918Y-120886163D01*
X215640102Y-120675802D01*
X215713065Y-120451247D01*
X215750000Y-120218052D01*
X215750000Y-119981947D01*
X219250000Y-119981947D01*
X219250000Y-120218052D01*
X219286934Y-120451247D01*
X219359897Y-120675802D01*
X219467087Y-120886174D01*
X219527338Y-120969104D01*
X219527340Y-120969105D01*
X220226212Y-120270233D01*
X220237482Y-120312292D01*
X220309890Y-120437708D01*
X220412292Y-120540110D01*
X220537708Y-120612518D01*
X220579765Y-120623787D01*
X219880893Y-121322658D01*
X219963828Y-121382914D01*
X220174197Y-121490102D01*
X220398752Y-121563065D01*
X220398751Y-121563065D01*
X220631948Y-121600000D01*
X220868052Y-121600000D01*
X221101247Y-121563065D01*
X221325802Y-121490102D01*
X221536163Y-121382918D01*
X221536169Y-121382914D01*
X221619104Y-121322658D01*
X221619105Y-121322658D01*
X220920233Y-120623787D01*
X220962292Y-120612518D01*
X221087708Y-120540110D01*
X221190110Y-120437708D01*
X221262518Y-120312292D01*
X221273787Y-120270233D01*
X221972658Y-120969105D01*
X221972658Y-120969104D01*
X222032914Y-120886169D01*
X222032918Y-120886163D01*
X222140102Y-120675802D01*
X222213065Y-120451247D01*
X222250000Y-120218052D01*
X222250000Y-119981947D01*
X222213065Y-119748752D01*
X222140102Y-119524197D01*
X222032914Y-119313828D01*
X221972658Y-119230894D01*
X221972658Y-119230893D01*
X221273787Y-119929765D01*
X221262518Y-119887708D01*
X221190110Y-119762292D01*
X221087708Y-119659890D01*
X220962292Y-119587482D01*
X220920234Y-119576212D01*
X221619105Y-118877340D01*
X221619104Y-118877338D01*
X221536174Y-118817087D01*
X221325802Y-118709897D01*
X221101247Y-118636934D01*
X221101248Y-118636934D01*
X220868052Y-118600000D01*
X220631948Y-118600000D01*
X220398752Y-118636934D01*
X220174197Y-118709897D01*
X219963830Y-118817084D01*
X219880894Y-118877340D01*
X220579766Y-119576212D01*
X220537708Y-119587482D01*
X220412292Y-119659890D01*
X220309890Y-119762292D01*
X220237482Y-119887708D01*
X220226212Y-119929766D01*
X219527340Y-119230894D01*
X219467084Y-119313830D01*
X219359897Y-119524197D01*
X219286934Y-119748752D01*
X219250000Y-119981947D01*
X215750000Y-119981947D01*
X215713065Y-119748752D01*
X215640102Y-119524197D01*
X215532914Y-119313828D01*
X215472658Y-119230894D01*
X215472658Y-119230893D01*
X214773787Y-119929765D01*
X214762518Y-119887708D01*
X214690110Y-119762292D01*
X214587708Y-119659890D01*
X214462292Y-119587482D01*
X214420234Y-119576212D01*
X215119105Y-118877340D01*
X215119104Y-118877339D01*
X215036174Y-118817087D01*
X214825802Y-118709897D01*
X214601247Y-118636934D01*
X214601248Y-118636934D01*
X214368052Y-118600000D01*
X214131948Y-118600000D01*
X213898752Y-118636934D01*
X213674197Y-118709897D01*
X213463830Y-118817084D01*
X213380894Y-118877340D01*
X214079766Y-119576212D01*
X214037708Y-119587482D01*
X213912292Y-119659890D01*
X213809890Y-119762292D01*
X213737482Y-119887708D01*
X213726212Y-119929765D01*
X213027340Y-119230894D01*
X212967084Y-119313830D01*
X212859897Y-119524197D01*
X212786934Y-119748752D01*
X212750000Y-119981947D01*
X207250000Y-119981947D01*
X207213065Y-119748752D01*
X207140102Y-119524197D01*
X207032914Y-119313828D01*
X206972658Y-119230894D01*
X206972658Y-119230893D01*
X206273787Y-119929765D01*
X206262518Y-119887708D01*
X206190110Y-119762292D01*
X206087708Y-119659890D01*
X205962292Y-119587482D01*
X205920234Y-119576212D01*
X206619105Y-118877340D01*
X206619104Y-118877339D01*
X206536174Y-118817087D01*
X206325802Y-118709897D01*
X206101247Y-118636934D01*
X206101248Y-118636934D01*
X205868052Y-118600000D01*
X205631948Y-118600000D01*
X205398752Y-118636934D01*
X205174197Y-118709897D01*
X204963830Y-118817084D01*
X204880894Y-118877340D01*
X205579766Y-119576212D01*
X205537708Y-119587482D01*
X205412292Y-119659890D01*
X205309890Y-119762292D01*
X205237482Y-119887708D01*
X205226212Y-119929766D01*
X204527340Y-119230894D01*
X204467084Y-119313830D01*
X204359897Y-119524197D01*
X204286934Y-119748752D01*
X204250000Y-119981947D01*
X200750000Y-119981947D01*
X200713065Y-119748752D01*
X200640102Y-119524197D01*
X200532914Y-119313828D01*
X200472658Y-119230894D01*
X200472658Y-119230893D01*
X199773787Y-119929765D01*
X199762518Y-119887708D01*
X199690110Y-119762292D01*
X199587708Y-119659890D01*
X199462292Y-119587482D01*
X199420234Y-119576212D01*
X200119105Y-118877340D01*
X200119104Y-118877339D01*
X200036174Y-118817087D01*
X199825802Y-118709897D01*
X199601247Y-118636934D01*
X199601248Y-118636934D01*
X199368052Y-118600000D01*
X199131948Y-118600000D01*
X198898752Y-118636934D01*
X198674197Y-118709897D01*
X198463830Y-118817084D01*
X198380894Y-118877340D01*
X199079766Y-119576212D01*
X199037708Y-119587482D01*
X198912292Y-119659890D01*
X198809890Y-119762292D01*
X198737482Y-119887708D01*
X198726212Y-119929766D01*
X198027340Y-119230894D01*
X197967084Y-119313830D01*
X197859897Y-119524197D01*
X197786934Y-119748752D01*
X197750000Y-119981947D01*
X192250000Y-119981947D01*
X192213065Y-119748752D01*
X192140102Y-119524197D01*
X192032914Y-119313828D01*
X191972658Y-119230894D01*
X191972658Y-119230893D01*
X191273787Y-119929765D01*
X191262518Y-119887708D01*
X191190110Y-119762292D01*
X191087708Y-119659890D01*
X190962292Y-119587482D01*
X190920234Y-119576212D01*
X191619105Y-118877340D01*
X191619104Y-118877339D01*
X191536174Y-118817087D01*
X191325802Y-118709897D01*
X191101247Y-118636934D01*
X191101248Y-118636934D01*
X190868052Y-118600000D01*
X190631948Y-118600000D01*
X190398752Y-118636934D01*
X190174197Y-118709897D01*
X189963830Y-118817084D01*
X189880894Y-118877340D01*
X190579766Y-119576212D01*
X190537708Y-119587482D01*
X190412292Y-119659890D01*
X190309890Y-119762292D01*
X190237482Y-119887708D01*
X190226212Y-119929766D01*
X189527340Y-119230894D01*
X189467084Y-119313830D01*
X189359897Y-119524197D01*
X189286934Y-119748752D01*
X189250000Y-119981947D01*
X185750000Y-119981947D01*
X185713065Y-119748752D01*
X185640102Y-119524197D01*
X185532914Y-119313828D01*
X185472658Y-119230894D01*
X185472658Y-119230893D01*
X184773787Y-119929765D01*
X184762518Y-119887708D01*
X184690110Y-119762292D01*
X184587708Y-119659890D01*
X184462292Y-119587482D01*
X184420234Y-119576212D01*
X185119105Y-118877340D01*
X185119104Y-118877339D01*
X185036174Y-118817087D01*
X184825802Y-118709897D01*
X184601247Y-118636934D01*
X184601248Y-118636934D01*
X184368052Y-118600000D01*
X184131948Y-118600000D01*
X183898752Y-118636934D01*
X183674197Y-118709897D01*
X183463830Y-118817084D01*
X183380894Y-118877340D01*
X184079766Y-119576212D01*
X184037708Y-119587482D01*
X183912292Y-119659890D01*
X183809890Y-119762292D01*
X183737482Y-119887708D01*
X183726212Y-119929766D01*
X183027340Y-119230894D01*
X182967084Y-119313830D01*
X182859897Y-119524197D01*
X182786934Y-119748752D01*
X182750000Y-119981947D01*
X180105424Y-119981947D01*
X180059397Y-119870827D01*
X180059390Y-119870814D01*
X179971789Y-119739711D01*
X179971786Y-119739707D01*
X179860292Y-119628213D01*
X179860288Y-119628210D01*
X179729185Y-119540609D01*
X179729172Y-119540602D01*
X179583501Y-119480264D01*
X179583489Y-119480261D01*
X179428845Y-119449500D01*
X179428842Y-119449500D01*
X179271158Y-119449500D01*
X179271155Y-119449500D01*
X179116510Y-119480261D01*
X179116498Y-119480264D01*
X178970827Y-119540602D01*
X178970814Y-119540609D01*
X178839711Y-119628210D01*
X178839707Y-119628213D01*
X178728213Y-119739707D01*
X178728210Y-119739711D01*
X178640609Y-119870814D01*
X178640602Y-119870827D01*
X178580264Y-120016498D01*
X178580261Y-120016510D01*
X178549500Y-120171153D01*
X166976944Y-120171153D01*
X167000500Y-120007318D01*
X167000500Y-119900000D01*
X167000500Y-119834108D01*
X167000500Y-117921153D01*
X174099500Y-117921153D01*
X174099500Y-118078846D01*
X174130261Y-118233489D01*
X174130264Y-118233501D01*
X174190602Y-118379172D01*
X174190609Y-118379185D01*
X174278210Y-118510288D01*
X174278213Y-118510292D01*
X174389707Y-118621786D01*
X174389711Y-118621789D01*
X174520814Y-118709390D01*
X174520827Y-118709397D01*
X174666498Y-118769735D01*
X174666503Y-118769737D01*
X174821153Y-118800499D01*
X174821156Y-118800500D01*
X174821158Y-118800500D01*
X174978844Y-118800500D01*
X174978845Y-118800499D01*
X175133497Y-118769737D01*
X175279179Y-118709394D01*
X175410289Y-118621789D01*
X175521789Y-118510289D01*
X175545611Y-118474635D01*
X175599220Y-118429833D01*
X175668544Y-118421124D01*
X175717603Y-118440426D01*
X175820814Y-118509390D01*
X175820827Y-118509397D01*
X175966498Y-118569735D01*
X175966503Y-118569737D01*
X176118644Y-118600000D01*
X176121153Y-118600499D01*
X176121156Y-118600500D01*
X176121158Y-118600500D01*
X176278844Y-118600500D01*
X176278845Y-118600499D01*
X176433497Y-118569737D01*
X176579179Y-118509394D01*
X176710289Y-118421789D01*
X176821789Y-118310289D01*
X176909394Y-118179179D01*
X176969737Y-118033497D01*
X177000500Y-117878842D01*
X177000500Y-117721158D01*
X177000500Y-117721155D01*
X177000499Y-117721153D01*
X176980543Y-117620827D01*
X176969737Y-117566503D01*
X176937929Y-117489711D01*
X176909397Y-117420827D01*
X176909390Y-117420814D01*
X176821789Y-117289711D01*
X176821786Y-117289707D01*
X176710292Y-117178213D01*
X176710288Y-117178210D01*
X176579185Y-117090609D01*
X176579172Y-117090602D01*
X176433501Y-117030264D01*
X176433489Y-117030261D01*
X176278845Y-116999500D01*
X176278842Y-116999500D01*
X176121158Y-116999500D01*
X176121155Y-116999500D01*
X175966510Y-117030261D01*
X175966498Y-117030264D01*
X175820827Y-117090602D01*
X175820814Y-117090609D01*
X175689711Y-117178210D01*
X175689707Y-117178213D01*
X175578213Y-117289707D01*
X175578210Y-117289711D01*
X175554389Y-117325362D01*
X175500776Y-117370167D01*
X175431451Y-117378874D01*
X175382396Y-117359573D01*
X175279185Y-117290609D01*
X175279172Y-117290602D01*
X175133501Y-117230264D01*
X175133489Y-117230261D01*
X174978845Y-117199500D01*
X174978842Y-117199500D01*
X174821158Y-117199500D01*
X174821155Y-117199500D01*
X174666510Y-117230261D01*
X174666498Y-117230264D01*
X174520827Y-117290602D01*
X174520814Y-117290609D01*
X174389711Y-117378210D01*
X174389707Y-117378213D01*
X174278213Y-117489707D01*
X174278210Y-117489711D01*
X174190609Y-117620814D01*
X174190602Y-117620827D01*
X174130264Y-117766498D01*
X174130261Y-117766510D01*
X174099500Y-117921153D01*
X167000500Y-117921153D01*
X167000500Y-115481902D01*
X182749500Y-115481902D01*
X182749500Y-115718097D01*
X182786446Y-115951368D01*
X182859433Y-116175996D01*
X182966657Y-116386433D01*
X183105483Y-116577510D01*
X183272490Y-116744517D01*
X183463567Y-116883343D01*
X183562991Y-116934002D01*
X183674003Y-116990566D01*
X183674005Y-116990566D01*
X183674008Y-116990568D01*
X183794412Y-117029689D01*
X183898631Y-117063553D01*
X184131903Y-117100500D01*
X184131908Y-117100500D01*
X184368097Y-117100500D01*
X184601368Y-117063553D01*
X184825992Y-116990568D01*
X185036433Y-116883343D01*
X185227510Y-116744517D01*
X185394517Y-116577510D01*
X185533343Y-116386433D01*
X185640568Y-116175992D01*
X185713553Y-115951368D01*
X185750500Y-115718097D01*
X185750500Y-115481902D01*
X189249500Y-115481902D01*
X189249500Y-115718097D01*
X189286446Y-115951368D01*
X189359433Y-116175996D01*
X189466657Y-116386433D01*
X189605483Y-116577510D01*
X189772490Y-116744517D01*
X189963567Y-116883343D01*
X190062991Y-116934002D01*
X190174003Y-116990566D01*
X190174005Y-116990566D01*
X190174008Y-116990568D01*
X190294412Y-117029689D01*
X190398631Y-117063553D01*
X190631903Y-117100500D01*
X190631908Y-117100500D01*
X190868097Y-117100500D01*
X191101368Y-117063553D01*
X191325992Y-116990568D01*
X191536433Y-116883343D01*
X191727510Y-116744517D01*
X191894517Y-116577510D01*
X192033343Y-116386433D01*
X192140568Y-116175992D01*
X192213553Y-115951368D01*
X192250500Y-115718097D01*
X192250500Y-115481902D01*
X197749500Y-115481902D01*
X197749500Y-115718097D01*
X197786446Y-115951368D01*
X197859433Y-116175996D01*
X197966657Y-116386433D01*
X198105483Y-116577510D01*
X198272490Y-116744517D01*
X198463567Y-116883343D01*
X198562991Y-116934002D01*
X198674003Y-116990566D01*
X198674005Y-116990566D01*
X198674008Y-116990568D01*
X198794412Y-117029689D01*
X198898631Y-117063553D01*
X199131903Y-117100500D01*
X199131908Y-117100500D01*
X199368097Y-117100500D01*
X199601368Y-117063553D01*
X199825992Y-116990568D01*
X200036433Y-116883343D01*
X200227510Y-116744517D01*
X200394517Y-116577510D01*
X200533343Y-116386433D01*
X200640568Y-116175992D01*
X200713553Y-115951368D01*
X200750500Y-115718097D01*
X200750500Y-115481902D01*
X204249500Y-115481902D01*
X204249500Y-115718097D01*
X204286446Y-115951368D01*
X204359433Y-116175996D01*
X204466657Y-116386433D01*
X204605483Y-116577510D01*
X204772490Y-116744517D01*
X204963567Y-116883343D01*
X205062991Y-116934002D01*
X205174003Y-116990566D01*
X205174005Y-116990566D01*
X205174008Y-116990568D01*
X205294412Y-117029689D01*
X205398631Y-117063553D01*
X205631903Y-117100500D01*
X205631908Y-117100500D01*
X205868097Y-117100500D01*
X206101368Y-117063553D01*
X206325992Y-116990568D01*
X206536433Y-116883343D01*
X206727510Y-116744517D01*
X206894517Y-116577510D01*
X207033343Y-116386433D01*
X207140568Y-116175992D01*
X207213553Y-115951368D01*
X207250500Y-115718097D01*
X207250500Y-115481902D01*
X212749500Y-115481902D01*
X212749500Y-115718097D01*
X212786446Y-115951368D01*
X212859433Y-116175996D01*
X212966657Y-116386433D01*
X213105483Y-116577510D01*
X213272490Y-116744517D01*
X213463567Y-116883343D01*
X213562991Y-116934002D01*
X213674003Y-116990566D01*
X213674005Y-116990566D01*
X213674008Y-116990568D01*
X213794412Y-117029689D01*
X213898631Y-117063553D01*
X214131903Y-117100500D01*
X214131908Y-117100500D01*
X214368097Y-117100500D01*
X214601368Y-117063553D01*
X214825992Y-116990568D01*
X215036433Y-116883343D01*
X215227510Y-116744517D01*
X215394517Y-116577510D01*
X215533343Y-116386433D01*
X215640568Y-116175992D01*
X215713553Y-115951368D01*
X215750500Y-115718097D01*
X215750500Y-115481902D01*
X219249500Y-115481902D01*
X219249500Y-115718097D01*
X219286446Y-115951368D01*
X219359433Y-116175996D01*
X219466657Y-116386433D01*
X219605483Y-116577510D01*
X219772490Y-116744517D01*
X219963567Y-116883343D01*
X220062991Y-116934002D01*
X220174003Y-116990566D01*
X220174005Y-116990566D01*
X220174008Y-116990568D01*
X220294412Y-117029689D01*
X220398631Y-117063553D01*
X220631903Y-117100500D01*
X220631908Y-117100500D01*
X220868097Y-117100500D01*
X221101368Y-117063553D01*
X221325992Y-116990568D01*
X221536433Y-116883343D01*
X221727510Y-116744517D01*
X221894517Y-116577510D01*
X222033343Y-116386433D01*
X222140568Y-116175992D01*
X222213553Y-115951368D01*
X222250500Y-115718097D01*
X222250500Y-115481902D01*
X222213553Y-115248631D01*
X222171672Y-115119735D01*
X222140568Y-115024008D01*
X222140566Y-115024005D01*
X222140566Y-115024003D01*
X222084002Y-114912991D01*
X222033343Y-114813567D01*
X221894517Y-114622490D01*
X221727510Y-114455483D01*
X221536433Y-114316657D01*
X221471353Y-114283497D01*
X221325996Y-114209433D01*
X221101368Y-114136446D01*
X220868097Y-114099500D01*
X220868092Y-114099500D01*
X220631908Y-114099500D01*
X220631903Y-114099500D01*
X220398631Y-114136446D01*
X220174003Y-114209433D01*
X219963566Y-114316657D01*
X219854550Y-114395862D01*
X219772490Y-114455483D01*
X219772488Y-114455485D01*
X219772487Y-114455485D01*
X219605485Y-114622487D01*
X219605485Y-114622488D01*
X219605483Y-114622490D01*
X219578749Y-114659286D01*
X219466657Y-114813566D01*
X219359433Y-115024003D01*
X219286446Y-115248631D01*
X219249500Y-115481902D01*
X215750500Y-115481902D01*
X215713553Y-115248631D01*
X215671672Y-115119735D01*
X215640568Y-115024008D01*
X215640566Y-115024005D01*
X215640566Y-115024003D01*
X215584002Y-114912991D01*
X215533343Y-114813567D01*
X215394517Y-114622490D01*
X215227510Y-114455483D01*
X215036433Y-114316657D01*
X214971353Y-114283497D01*
X214825996Y-114209433D01*
X214601368Y-114136446D01*
X214368097Y-114099500D01*
X214368092Y-114099500D01*
X214131908Y-114099500D01*
X214131903Y-114099500D01*
X213898631Y-114136446D01*
X213674003Y-114209433D01*
X213463566Y-114316657D01*
X213354550Y-114395862D01*
X213272490Y-114455483D01*
X213272488Y-114455485D01*
X213272487Y-114455485D01*
X213105485Y-114622487D01*
X213105485Y-114622488D01*
X213105483Y-114622490D01*
X213078749Y-114659286D01*
X212966657Y-114813566D01*
X212859433Y-115024003D01*
X212786446Y-115248631D01*
X212749500Y-115481902D01*
X207250500Y-115481902D01*
X207213553Y-115248631D01*
X207171672Y-115119735D01*
X207140568Y-115024008D01*
X207140566Y-115024005D01*
X207140566Y-115024003D01*
X207084002Y-114912991D01*
X207033343Y-114813567D01*
X206894517Y-114622490D01*
X206727510Y-114455483D01*
X206536433Y-114316657D01*
X206471353Y-114283497D01*
X206325996Y-114209433D01*
X206101368Y-114136446D01*
X205868097Y-114099500D01*
X205868092Y-114099500D01*
X205631908Y-114099500D01*
X205631903Y-114099500D01*
X205398631Y-114136446D01*
X205174003Y-114209433D01*
X204963566Y-114316657D01*
X204854550Y-114395862D01*
X204772490Y-114455483D01*
X204772488Y-114455485D01*
X204772487Y-114455485D01*
X204605485Y-114622487D01*
X204605485Y-114622488D01*
X204605483Y-114622490D01*
X204578749Y-114659286D01*
X204466657Y-114813566D01*
X204359433Y-115024003D01*
X204286446Y-115248631D01*
X204249500Y-115481902D01*
X200750500Y-115481902D01*
X200713553Y-115248631D01*
X200671672Y-115119735D01*
X200640568Y-115024008D01*
X200640566Y-115024005D01*
X200640566Y-115024003D01*
X200584002Y-114912991D01*
X200533343Y-114813567D01*
X200394517Y-114622490D01*
X200227510Y-114455483D01*
X200036433Y-114316657D01*
X199971353Y-114283497D01*
X199825996Y-114209433D01*
X199601368Y-114136446D01*
X199368097Y-114099500D01*
X199368092Y-114099500D01*
X199131908Y-114099500D01*
X199131903Y-114099500D01*
X198898631Y-114136446D01*
X198674003Y-114209433D01*
X198463566Y-114316657D01*
X198354550Y-114395862D01*
X198272490Y-114455483D01*
X198272488Y-114455485D01*
X198272487Y-114455485D01*
X198105485Y-114622487D01*
X198105485Y-114622488D01*
X198105483Y-114622490D01*
X198078749Y-114659286D01*
X197966657Y-114813566D01*
X197859433Y-115024003D01*
X197786446Y-115248631D01*
X197749500Y-115481902D01*
X192250500Y-115481902D01*
X192213553Y-115248631D01*
X192171672Y-115119735D01*
X192140568Y-115024008D01*
X192140566Y-115024005D01*
X192140566Y-115024003D01*
X192084002Y-114912991D01*
X192033343Y-114813567D01*
X191894517Y-114622490D01*
X191727510Y-114455483D01*
X191536433Y-114316657D01*
X191471353Y-114283497D01*
X191325996Y-114209433D01*
X191101368Y-114136446D01*
X190868097Y-114099500D01*
X190868092Y-114099500D01*
X190631908Y-114099500D01*
X190631903Y-114099500D01*
X190398631Y-114136446D01*
X190174003Y-114209433D01*
X189963566Y-114316657D01*
X189854550Y-114395862D01*
X189772490Y-114455483D01*
X189772488Y-114455485D01*
X189772487Y-114455485D01*
X189605485Y-114622487D01*
X189605485Y-114622488D01*
X189605483Y-114622490D01*
X189578749Y-114659286D01*
X189466657Y-114813566D01*
X189359433Y-115024003D01*
X189286446Y-115248631D01*
X189249500Y-115481902D01*
X185750500Y-115481902D01*
X185713553Y-115248631D01*
X185671672Y-115119735D01*
X185640568Y-115024008D01*
X185640566Y-115024005D01*
X185640566Y-115024003D01*
X185584002Y-114912991D01*
X185533343Y-114813567D01*
X185394517Y-114622490D01*
X185227510Y-114455483D01*
X185036433Y-114316657D01*
X184971353Y-114283497D01*
X184825996Y-114209433D01*
X184601368Y-114136446D01*
X184368097Y-114099500D01*
X184368092Y-114099500D01*
X184131908Y-114099500D01*
X184131903Y-114099500D01*
X183898631Y-114136446D01*
X183674003Y-114209433D01*
X183463566Y-114316657D01*
X183354550Y-114395862D01*
X183272490Y-114455483D01*
X183272488Y-114455485D01*
X183272487Y-114455485D01*
X183105485Y-114622487D01*
X183105485Y-114622488D01*
X183105483Y-114622490D01*
X183078749Y-114659286D01*
X182966657Y-114813566D01*
X182859433Y-115024003D01*
X182786446Y-115248631D01*
X182749500Y-115481902D01*
X167000500Y-115481902D01*
X167000500Y-114540939D01*
X167020185Y-114473900D01*
X167072989Y-114428145D01*
X167142147Y-114418201D01*
X167205703Y-114447226D01*
X167227602Y-114472048D01*
X167278210Y-114547788D01*
X167278213Y-114547792D01*
X167389707Y-114659286D01*
X167389711Y-114659289D01*
X167520814Y-114746890D01*
X167520827Y-114746897D01*
X167666498Y-114807235D01*
X167666503Y-114807237D01*
X167821153Y-114837999D01*
X167821156Y-114838000D01*
X167821158Y-114838000D01*
X167978844Y-114838000D01*
X167978845Y-114837999D01*
X168133497Y-114807237D01*
X168279179Y-114746894D01*
X168410289Y-114659289D01*
X168521789Y-114547789D01*
X168542722Y-114516460D01*
X168596331Y-114471657D01*
X168665656Y-114462948D01*
X168728684Y-114493102D01*
X168748925Y-114516460D01*
X168778213Y-114560292D01*
X168889707Y-114671786D01*
X168889711Y-114671789D01*
X169020814Y-114759390D01*
X169020827Y-114759397D01*
X169151607Y-114813567D01*
X169166503Y-114819737D01*
X169258312Y-114837999D01*
X169321153Y-114850499D01*
X169321156Y-114850500D01*
X169321158Y-114850500D01*
X169478844Y-114850500D01*
X169478845Y-114850499D01*
X169633497Y-114819737D01*
X169779179Y-114759394D01*
X169910289Y-114671789D01*
X170021789Y-114560289D01*
X170109394Y-114429179D01*
X170169737Y-114283497D01*
X170172192Y-114271153D01*
X176099500Y-114271153D01*
X176099500Y-114428846D01*
X176130261Y-114583489D01*
X176130264Y-114583501D01*
X176190602Y-114729172D01*
X176190609Y-114729185D01*
X176278210Y-114860288D01*
X176278213Y-114860292D01*
X176389707Y-114971786D01*
X176389711Y-114971789D01*
X176520814Y-115059390D01*
X176520827Y-115059397D01*
X176666498Y-115119735D01*
X176666503Y-115119737D01*
X176821153Y-115150499D01*
X176821156Y-115150500D01*
X176821158Y-115150500D01*
X176978844Y-115150500D01*
X176978845Y-115150499D01*
X177133497Y-115119737D01*
X177279179Y-115059394D01*
X177410289Y-114971789D01*
X177521789Y-114860289D01*
X177609394Y-114729179D01*
X177669737Y-114583497D01*
X177700500Y-114428842D01*
X177700500Y-114271158D01*
X177700500Y-114271155D01*
X177700499Y-114271153D01*
X177672192Y-114128846D01*
X177669737Y-114116503D01*
X177609534Y-113971158D01*
X177609397Y-113970827D01*
X177609390Y-113970814D01*
X177521789Y-113839711D01*
X177521786Y-113839707D01*
X177410292Y-113728213D01*
X177410288Y-113728210D01*
X177279185Y-113640609D01*
X177279172Y-113640602D01*
X177133501Y-113580264D01*
X177133489Y-113580261D01*
X176978845Y-113549500D01*
X176978842Y-113549500D01*
X176821158Y-113549500D01*
X176821155Y-113549500D01*
X176666510Y-113580261D01*
X176666498Y-113580264D01*
X176520827Y-113640602D01*
X176520814Y-113640609D01*
X176389711Y-113728210D01*
X176389707Y-113728213D01*
X176278213Y-113839707D01*
X176278210Y-113839711D01*
X176190609Y-113970814D01*
X176190602Y-113970827D01*
X176130264Y-114116498D01*
X176130261Y-114116510D01*
X176099500Y-114271153D01*
X170172192Y-114271153D01*
X170172223Y-114270997D01*
X170178216Y-114240874D01*
X170178216Y-114240873D01*
X170200499Y-114128846D01*
X170200500Y-114128844D01*
X170200500Y-113971155D01*
X170200499Y-113971153D01*
X170174353Y-113839711D01*
X170169737Y-113816503D01*
X170147411Y-113762603D01*
X170109397Y-113670827D01*
X170109390Y-113670814D01*
X170021789Y-113539711D01*
X170021786Y-113539707D01*
X169910292Y-113428213D01*
X169910288Y-113428210D01*
X169779185Y-113340609D01*
X169779172Y-113340602D01*
X169633501Y-113280264D01*
X169633489Y-113280261D01*
X169478845Y-113249500D01*
X169478842Y-113249500D01*
X169321158Y-113249500D01*
X169321155Y-113249500D01*
X169166510Y-113280261D01*
X169166498Y-113280264D01*
X169020827Y-113340602D01*
X169020814Y-113340609D01*
X168889711Y-113428210D01*
X168889710Y-113428210D01*
X168880642Y-113437279D01*
X168819318Y-113470761D01*
X168749626Y-113465774D01*
X168693694Y-113423901D01*
X168669280Y-113358435D01*
X168671347Y-113325402D01*
X168700500Y-113178844D01*
X168700500Y-113021155D01*
X168700499Y-113021153D01*
X168669737Y-112866503D01*
X168650953Y-112821153D01*
X173749500Y-112821153D01*
X173749500Y-112978846D01*
X173780261Y-113133489D01*
X173780264Y-113133501D01*
X173840602Y-113279172D01*
X173840609Y-113279185D01*
X173928210Y-113410288D01*
X173928213Y-113410292D01*
X174039707Y-113521786D01*
X174039711Y-113521789D01*
X174170814Y-113609390D01*
X174170827Y-113609397D01*
X174246181Y-113640609D01*
X174316503Y-113669737D01*
X174471153Y-113700499D01*
X174471156Y-113700500D01*
X174471158Y-113700500D01*
X174628844Y-113700500D01*
X174628845Y-113700499D01*
X174783497Y-113669737D01*
X174929179Y-113609394D01*
X175060289Y-113521789D01*
X175171789Y-113410289D01*
X175259394Y-113279179D01*
X175319737Y-113133497D01*
X175350500Y-112978842D01*
X175350500Y-112821158D01*
X175350500Y-112821155D01*
X175350499Y-112821153D01*
X175330734Y-112721789D01*
X175319737Y-112666503D01*
X175284366Y-112581108D01*
X175259397Y-112520827D01*
X175259390Y-112520814D01*
X175171789Y-112389711D01*
X175171786Y-112389707D01*
X175060292Y-112278213D01*
X175060288Y-112278210D01*
X174929185Y-112190609D01*
X174929172Y-112190602D01*
X174783501Y-112130264D01*
X174783489Y-112130261D01*
X174628845Y-112099500D01*
X174628842Y-112099500D01*
X174471158Y-112099500D01*
X174471155Y-112099500D01*
X174316510Y-112130261D01*
X174316498Y-112130264D01*
X174170827Y-112190602D01*
X174170814Y-112190609D01*
X174039711Y-112278210D01*
X174039707Y-112278213D01*
X173928213Y-112389707D01*
X173928210Y-112389711D01*
X173840609Y-112520814D01*
X173840602Y-112520827D01*
X173780264Y-112666498D01*
X173780261Y-112666510D01*
X173749500Y-112821153D01*
X168650953Y-112821153D01*
X168609394Y-112720821D01*
X168601865Y-112709553D01*
X168597407Y-112699253D01*
X168594445Y-112675270D01*
X168587226Y-112652214D01*
X168590241Y-112641223D01*
X168588844Y-112629910D01*
X168599318Y-112608134D01*
X168605710Y-112584834D01*
X168608077Y-112581149D01*
X168609394Y-112579179D01*
X168669737Y-112433497D01*
X168700500Y-112278842D01*
X168700500Y-112121158D01*
X168700500Y-112121155D01*
X168700499Y-112121153D01*
X168696192Y-112099500D01*
X168680608Y-112021153D01*
X201199500Y-112021153D01*
X201199500Y-112178846D01*
X201230261Y-112333489D01*
X201230264Y-112333501D01*
X201290602Y-112479172D01*
X201290609Y-112479185D01*
X201378210Y-112610288D01*
X201378213Y-112610292D01*
X201489707Y-112721786D01*
X201489711Y-112721789D01*
X201620814Y-112809390D01*
X201620827Y-112809397D01*
X201758695Y-112866503D01*
X201766503Y-112869737D01*
X201921153Y-112900499D01*
X201921156Y-112900500D01*
X201921158Y-112900500D01*
X202078844Y-112900500D01*
X202078845Y-112900499D01*
X202233497Y-112869737D01*
X202379179Y-112809394D01*
X202510289Y-112721789D01*
X202621789Y-112610289D01*
X202709394Y-112479179D01*
X202769737Y-112333497D01*
X202800500Y-112178842D01*
X202800500Y-112021158D01*
X202800500Y-112021155D01*
X202800499Y-112021153D01*
X202769738Y-111866510D01*
X202769737Y-111866503D01*
X202750812Y-111820814D01*
X202709397Y-111720827D01*
X202709390Y-111720814D01*
X202621789Y-111589711D01*
X202621786Y-111589707D01*
X202510292Y-111478213D01*
X202510288Y-111478210D01*
X202379185Y-111390609D01*
X202379172Y-111390602D01*
X202233501Y-111330264D01*
X202233489Y-111330261D01*
X202078845Y-111299500D01*
X202078842Y-111299500D01*
X201921158Y-111299500D01*
X201921155Y-111299500D01*
X201766510Y-111330261D01*
X201766498Y-111330264D01*
X201620827Y-111390602D01*
X201620814Y-111390609D01*
X201489711Y-111478210D01*
X201489707Y-111478213D01*
X201378213Y-111589707D01*
X201378210Y-111589711D01*
X201290609Y-111720814D01*
X201290602Y-111720827D01*
X201230264Y-111866498D01*
X201230261Y-111866510D01*
X201199500Y-112021153D01*
X168680608Y-112021153D01*
X168669737Y-111966503D01*
X168628314Y-111866498D01*
X168609397Y-111820827D01*
X168609390Y-111820814D01*
X168521789Y-111689711D01*
X168521786Y-111689707D01*
X168410292Y-111578213D01*
X168410288Y-111578210D01*
X168279185Y-111490609D01*
X168279172Y-111490602D01*
X168133501Y-111430264D01*
X168133489Y-111430261D01*
X167978845Y-111399500D01*
X167978842Y-111399500D01*
X167821158Y-111399500D01*
X167821155Y-111399500D01*
X167666510Y-111430261D01*
X167666498Y-111430264D01*
X167520827Y-111490602D01*
X167520814Y-111490609D01*
X167389711Y-111578210D01*
X167389707Y-111578213D01*
X167278213Y-111689707D01*
X167278210Y-111689711D01*
X167227602Y-111765451D01*
X167173989Y-111810256D01*
X167104664Y-111818963D01*
X167041637Y-111788808D01*
X167004918Y-111729365D01*
X167000500Y-111696560D01*
X167000500Y-110421153D01*
X176149500Y-110421153D01*
X176149500Y-110578846D01*
X176180261Y-110733489D01*
X176180264Y-110733501D01*
X176240602Y-110879172D01*
X176240609Y-110879185D01*
X176328210Y-111010288D01*
X176328213Y-111010292D01*
X176439707Y-111121786D01*
X176439711Y-111121789D01*
X176570814Y-111209390D01*
X176570827Y-111209397D01*
X176716498Y-111269735D01*
X176716503Y-111269737D01*
X176866131Y-111299500D01*
X176871153Y-111300499D01*
X176871156Y-111300500D01*
X176871158Y-111300500D01*
X177028844Y-111300500D01*
X177028845Y-111300499D01*
X177183497Y-111269737D01*
X177329179Y-111209394D01*
X177460289Y-111121789D01*
X177571789Y-111010289D01*
X177659394Y-110879179D01*
X177719737Y-110733497D01*
X177750500Y-110578842D01*
X177750500Y-110421158D01*
X177750500Y-110421155D01*
X177750499Y-110421153D01*
X177743366Y-110385292D01*
X177719737Y-110266503D01*
X177679697Y-110169836D01*
X177659397Y-110120827D01*
X177659390Y-110120814D01*
X177571789Y-109989711D01*
X177571786Y-109989707D01*
X177460292Y-109878213D01*
X177460288Y-109878210D01*
X177329185Y-109790609D01*
X177329172Y-109790602D01*
X177183501Y-109730264D01*
X177183489Y-109730261D01*
X177028845Y-109699500D01*
X177028842Y-109699500D01*
X176871158Y-109699500D01*
X176871155Y-109699500D01*
X176716510Y-109730261D01*
X176716498Y-109730264D01*
X176570827Y-109790602D01*
X176570814Y-109790609D01*
X176439711Y-109878210D01*
X176439707Y-109878213D01*
X176328213Y-109989707D01*
X176328210Y-109989711D01*
X176240609Y-110120814D01*
X176240602Y-110120827D01*
X176180264Y-110266498D01*
X176180261Y-110266510D01*
X176149500Y-110421153D01*
X167000500Y-110421153D01*
X167000500Y-109321153D01*
X195199500Y-109321153D01*
X195199500Y-109478846D01*
X195230261Y-109633489D01*
X195230264Y-109633501D01*
X195290602Y-109779172D01*
X195290609Y-109779185D01*
X195378210Y-109910288D01*
X195378213Y-109910292D01*
X195489707Y-110021786D01*
X195489710Y-110021788D01*
X195489711Y-110021789D01*
X195515219Y-110038833D01*
X195527289Y-110046898D01*
X195572093Y-110100511D01*
X195580800Y-110169836D01*
X195550645Y-110232863D01*
X195527289Y-110253102D01*
X195489707Y-110278213D01*
X195378213Y-110389707D01*
X195378210Y-110389711D01*
X195290609Y-110520814D01*
X195290602Y-110520827D01*
X195230264Y-110666498D01*
X195230261Y-110666510D01*
X195199500Y-110821153D01*
X195199500Y-110978846D01*
X195230261Y-111133489D01*
X195230264Y-111133501D01*
X195290602Y-111279172D01*
X195290609Y-111279185D01*
X195378210Y-111410288D01*
X195378213Y-111410292D01*
X195489707Y-111521786D01*
X195489711Y-111521789D01*
X195620814Y-111609390D01*
X195620827Y-111609397D01*
X195766498Y-111669735D01*
X195766503Y-111669737D01*
X195921153Y-111700499D01*
X195921156Y-111700500D01*
X195921158Y-111700500D01*
X196078844Y-111700500D01*
X196078845Y-111700499D01*
X196233497Y-111669737D01*
X196379179Y-111609394D01*
X196510289Y-111521789D01*
X196621789Y-111410289D01*
X196709394Y-111279179D01*
X196709788Y-111278229D01*
X196769735Y-111133501D01*
X196769737Y-111133497D01*
X196800500Y-110978842D01*
X196800500Y-110821158D01*
X196800500Y-110821155D01*
X196800499Y-110821153D01*
X196784752Y-110741989D01*
X196769737Y-110666503D01*
X196760721Y-110644737D01*
X196709397Y-110520827D01*
X196709390Y-110520814D01*
X196621789Y-110389711D01*
X196621786Y-110389707D01*
X196510292Y-110278213D01*
X196510284Y-110278207D01*
X196472712Y-110253102D01*
X196427906Y-110199490D01*
X196419199Y-110130165D01*
X196449353Y-110067138D01*
X196472712Y-110046898D01*
X196499279Y-110029145D01*
X196510289Y-110021789D01*
X196621789Y-109910289D01*
X196698052Y-109796153D01*
X212724500Y-109796153D01*
X212724500Y-109953846D01*
X212755261Y-110108489D01*
X212755264Y-110108501D01*
X212815602Y-110254172D01*
X212815609Y-110254185D01*
X212903210Y-110385288D01*
X212903213Y-110385292D01*
X213014707Y-110496786D01*
X213014711Y-110496789D01*
X213145814Y-110584390D01*
X213145827Y-110584397D01*
X213291498Y-110644735D01*
X213291503Y-110644737D01*
X213400963Y-110666510D01*
X213446153Y-110675499D01*
X213446156Y-110675500D01*
X213446158Y-110675500D01*
X213603844Y-110675500D01*
X213603845Y-110675499D01*
X213758497Y-110644737D01*
X213897072Y-110587338D01*
X213904172Y-110584397D01*
X213904172Y-110584396D01*
X213904179Y-110584394D01*
X214035289Y-110496789D01*
X214102433Y-110429645D01*
X214989500Y-110429645D01*
X214989500Y-110587338D01*
X215020261Y-110741981D01*
X215020264Y-110741993D01*
X215080602Y-110887664D01*
X215080609Y-110887677D01*
X215168210Y-111018780D01*
X215168213Y-111018784D01*
X215279707Y-111130278D01*
X215279711Y-111130281D01*
X215410814Y-111217882D01*
X215410827Y-111217889D01*
X215556498Y-111278227D01*
X215556503Y-111278229D01*
X215711153Y-111308991D01*
X215711156Y-111308992D01*
X215711158Y-111308992D01*
X215868844Y-111308992D01*
X215868845Y-111308991D01*
X216023497Y-111278229D01*
X216169179Y-111217886D01*
X216300289Y-111130281D01*
X216411789Y-111018781D01*
X216499394Y-110887671D01*
X216502912Y-110879179D01*
X216559735Y-110741993D01*
X216559737Y-110741989D01*
X216590500Y-110587334D01*
X216590500Y-110429650D01*
X216590500Y-110429647D01*
X216590499Y-110429645D01*
X216588810Y-110421153D01*
X216559737Y-110274995D01*
X216559735Y-110274990D01*
X216499397Y-110129319D01*
X216499390Y-110129306D01*
X216411789Y-109998203D01*
X216411786Y-109998199D01*
X216300292Y-109886705D01*
X216300288Y-109886702D01*
X216169185Y-109799101D01*
X216169172Y-109799094D01*
X216023501Y-109738756D01*
X216023489Y-109738753D01*
X215868845Y-109707992D01*
X215868842Y-109707992D01*
X215711158Y-109707992D01*
X215711155Y-109707992D01*
X215556510Y-109738753D01*
X215556498Y-109738756D01*
X215410827Y-109799094D01*
X215410814Y-109799101D01*
X215279711Y-109886702D01*
X215279707Y-109886705D01*
X215168213Y-109998199D01*
X215168210Y-109998203D01*
X215080609Y-110129306D01*
X215080602Y-110129319D01*
X215020264Y-110274990D01*
X215020261Y-110275002D01*
X214989500Y-110429645D01*
X214102433Y-110429645D01*
X214146789Y-110385289D01*
X214234394Y-110254179D01*
X214294737Y-110108497D01*
X214325500Y-109953842D01*
X214325500Y-109796158D01*
X214325500Y-109796155D01*
X214325499Y-109796153D01*
X214312393Y-109730264D01*
X214294737Y-109641503D01*
X214294735Y-109641498D01*
X214234397Y-109495827D01*
X214234390Y-109495814D01*
X214146789Y-109364711D01*
X214146786Y-109364707D01*
X214099656Y-109317577D01*
X215465975Y-109317577D01*
X215571236Y-109361178D01*
X215571240Y-109361179D01*
X215716126Y-109389999D01*
X215716129Y-109390000D01*
X215863871Y-109390000D01*
X215863873Y-109389999D01*
X216008760Y-109361179D01*
X216008775Y-109361175D01*
X216114024Y-109317578D01*
X216114024Y-109317577D01*
X215790001Y-108993554D01*
X215790000Y-108993554D01*
X215465975Y-109317577D01*
X214099656Y-109317577D01*
X214035292Y-109253213D01*
X214035288Y-109253210D01*
X213904185Y-109165609D01*
X213904172Y-109165602D01*
X213758501Y-109105264D01*
X213758489Y-109105261D01*
X213603845Y-109074500D01*
X213603842Y-109074500D01*
X213446158Y-109074500D01*
X213446155Y-109074500D01*
X213291510Y-109105261D01*
X213291498Y-109105264D01*
X213145827Y-109165602D01*
X213145814Y-109165609D01*
X213014711Y-109253210D01*
X213014707Y-109253213D01*
X212903213Y-109364707D01*
X212903210Y-109364711D01*
X212815609Y-109495814D01*
X212815602Y-109495827D01*
X212755264Y-109641498D01*
X212755261Y-109641510D01*
X212724500Y-109796153D01*
X196698052Y-109796153D01*
X196709394Y-109779179D01*
X196729657Y-109730261D01*
X196769735Y-109633501D01*
X196769737Y-109633497D01*
X196800500Y-109478842D01*
X196800500Y-109321158D01*
X196800500Y-109321155D01*
X196800499Y-109321153D01*
X196769738Y-109166510D01*
X196769737Y-109166503D01*
X196769367Y-109165609D01*
X196709397Y-109020827D01*
X196709390Y-109020814D01*
X196621789Y-108889711D01*
X196621786Y-108889707D01*
X196510292Y-108778213D01*
X196510288Y-108778210D01*
X196379185Y-108690609D01*
X196379172Y-108690602D01*
X196233501Y-108630264D01*
X196233489Y-108630261D01*
X196078845Y-108599500D01*
X196078842Y-108599500D01*
X195921158Y-108599500D01*
X195921155Y-108599500D01*
X195766510Y-108630261D01*
X195766498Y-108630264D01*
X195620827Y-108690602D01*
X195620814Y-108690609D01*
X195489711Y-108778210D01*
X195489707Y-108778213D01*
X195378213Y-108889707D01*
X195378210Y-108889711D01*
X195290609Y-109020814D01*
X195290602Y-109020827D01*
X195230264Y-109166498D01*
X195230261Y-109166510D01*
X195199500Y-109321153D01*
X167000500Y-109321153D01*
X167000500Y-105570287D01*
X185540000Y-105570287D01*
X185540000Y-105929712D01*
X185580240Y-106286851D01*
X185580242Y-106286863D01*
X185660219Y-106637268D01*
X185660220Y-106637270D01*
X185778927Y-106976517D01*
X185934870Y-107300336D01*
X186126092Y-107604664D01*
X186306081Y-107830364D01*
X187624728Y-106511717D01*
X187710278Y-106629466D01*
X187860534Y-106779722D01*
X187978281Y-106865270D01*
X186659634Y-108183916D01*
X186659634Y-108183917D01*
X186885335Y-108363907D01*
X187189663Y-108555129D01*
X187513482Y-108711072D01*
X187852729Y-108829779D01*
X187852731Y-108829780D01*
X188203136Y-108909757D01*
X188203148Y-108909759D01*
X188560287Y-108949999D01*
X188560289Y-108950000D01*
X188919711Y-108950000D01*
X188919712Y-108949999D01*
X189276851Y-108909759D01*
X189276863Y-108909757D01*
X189627268Y-108829780D01*
X189627270Y-108829779D01*
X189966517Y-108711072D01*
X190290336Y-108555129D01*
X190594664Y-108363907D01*
X190820364Y-108183916D01*
X189501718Y-106865270D01*
X189619466Y-106779722D01*
X189769722Y-106629466D01*
X189855270Y-106511718D01*
X191173916Y-107830364D01*
X191353907Y-107604664D01*
X191545131Y-107300333D01*
X191583262Y-107221153D01*
X194199500Y-107221153D01*
X194199500Y-107378846D01*
X194230261Y-107533489D01*
X194230264Y-107533501D01*
X194290602Y-107679172D01*
X194290609Y-107679185D01*
X194378210Y-107810288D01*
X194378213Y-107810292D01*
X194489707Y-107921786D01*
X194489711Y-107921789D01*
X194620814Y-108009390D01*
X194620827Y-108009397D01*
X194740731Y-108059062D01*
X194766503Y-108069737D01*
X194873806Y-108091081D01*
X194921153Y-108100499D01*
X194921156Y-108100500D01*
X194921158Y-108100500D01*
X195078844Y-108100500D01*
X195078845Y-108100499D01*
X195233497Y-108069737D01*
X195324277Y-108032135D01*
X195351380Y-108020909D01*
X195379173Y-108009397D01*
X195379176Y-108009395D01*
X195379179Y-108009394D01*
X195510289Y-107921789D01*
X195621789Y-107810289D01*
X195709394Y-107679179D01*
X195769737Y-107533497D01*
X195800500Y-107378842D01*
X195800500Y-107221158D01*
X195800500Y-107221155D01*
X195800499Y-107221153D01*
X195785964Y-107148080D01*
X195769737Y-107066503D01*
X195742644Y-107001094D01*
X195709397Y-106920827D01*
X195709390Y-106920814D01*
X195621789Y-106789711D01*
X195621786Y-106789707D01*
X195510292Y-106678213D01*
X195510288Y-106678210D01*
X195420429Y-106618168D01*
X195379185Y-106590609D01*
X195379172Y-106590602D01*
X195233501Y-106530264D01*
X195233489Y-106530261D01*
X195187701Y-106521153D01*
X197199500Y-106521153D01*
X197199500Y-106678846D01*
X197230261Y-106833489D01*
X197230264Y-106833501D01*
X197290602Y-106979172D01*
X197290609Y-106979185D01*
X197378210Y-107110288D01*
X197378213Y-107110292D01*
X197489707Y-107221786D01*
X197489711Y-107221789D01*
X197620814Y-107309390D01*
X197620827Y-107309397D01*
X197766498Y-107369735D01*
X197766503Y-107369737D01*
X197921153Y-107400499D01*
X197921156Y-107400500D01*
X197921158Y-107400500D01*
X198078844Y-107400500D01*
X198078845Y-107400499D01*
X198233497Y-107369737D01*
X198379179Y-107309394D01*
X198510289Y-107221789D01*
X198621789Y-107110289D01*
X198709394Y-106979179D01*
X198769737Y-106833497D01*
X198800500Y-106678842D01*
X198800500Y-106521158D01*
X198800500Y-106521155D01*
X198800499Y-106521153D01*
X199899500Y-106521153D01*
X199899500Y-106678846D01*
X199930261Y-106833489D01*
X199930264Y-106833501D01*
X199990602Y-106979172D01*
X199990609Y-106979185D01*
X200078210Y-107110288D01*
X200078213Y-107110292D01*
X200189707Y-107221786D01*
X200189711Y-107221789D01*
X200320814Y-107309390D01*
X200320827Y-107309397D01*
X200466498Y-107369735D01*
X200466503Y-107369737D01*
X200621153Y-107400499D01*
X200621156Y-107400500D01*
X200621158Y-107400500D01*
X200778844Y-107400500D01*
X200778845Y-107400499D01*
X200933497Y-107369737D01*
X201079179Y-107309394D01*
X201210289Y-107221789D01*
X201321789Y-107110289D01*
X201409394Y-106979179D01*
X201469737Y-106833497D01*
X201500500Y-106678842D01*
X201500500Y-106521158D01*
X201500500Y-106521155D01*
X201500499Y-106521153D01*
X201496192Y-106499500D01*
X201469737Y-106366503D01*
X201457287Y-106336446D01*
X201409397Y-106220827D01*
X201409390Y-106220814D01*
X201321789Y-106089711D01*
X201321786Y-106089707D01*
X201210292Y-105978213D01*
X201210288Y-105978210D01*
X201079185Y-105890609D01*
X201079172Y-105890602D01*
X200933501Y-105830264D01*
X200933489Y-105830261D01*
X200778845Y-105799500D01*
X200778842Y-105799500D01*
X200621158Y-105799500D01*
X200621155Y-105799500D01*
X200466510Y-105830261D01*
X200466498Y-105830264D01*
X200320827Y-105890602D01*
X200320814Y-105890609D01*
X200189711Y-105978210D01*
X200189707Y-105978213D01*
X200078213Y-106089707D01*
X200078210Y-106089711D01*
X199990609Y-106220814D01*
X199990602Y-106220827D01*
X199930264Y-106366498D01*
X199930261Y-106366510D01*
X199899500Y-106521153D01*
X198800499Y-106521153D01*
X198796192Y-106499500D01*
X198769737Y-106366503D01*
X198757287Y-106336446D01*
X198709397Y-106220827D01*
X198709390Y-106220814D01*
X198621789Y-106089711D01*
X198621786Y-106089707D01*
X198510292Y-105978213D01*
X198510288Y-105978210D01*
X198379185Y-105890609D01*
X198379172Y-105890602D01*
X198233501Y-105830264D01*
X198233489Y-105830261D01*
X198078845Y-105799500D01*
X198078842Y-105799500D01*
X197921158Y-105799500D01*
X197921155Y-105799500D01*
X197766510Y-105830261D01*
X197766498Y-105830264D01*
X197620827Y-105890602D01*
X197620814Y-105890609D01*
X197489711Y-105978210D01*
X197489707Y-105978213D01*
X197378213Y-106089707D01*
X197378210Y-106089711D01*
X197290609Y-106220814D01*
X197290602Y-106220827D01*
X197230264Y-106366498D01*
X197230261Y-106366510D01*
X197199500Y-106521153D01*
X195187701Y-106521153D01*
X195078845Y-106499500D01*
X195078842Y-106499500D01*
X194921158Y-106499500D01*
X194921155Y-106499500D01*
X194766510Y-106530261D01*
X194766498Y-106530264D01*
X194620827Y-106590602D01*
X194620814Y-106590609D01*
X194489711Y-106678210D01*
X194489707Y-106678213D01*
X194378213Y-106789707D01*
X194378210Y-106789711D01*
X194290609Y-106920814D01*
X194290602Y-106920827D01*
X194230264Y-107066498D01*
X194230261Y-107066510D01*
X194199500Y-107221153D01*
X191583262Y-107221153D01*
X191612103Y-107161265D01*
X191612103Y-107161264D01*
X191701072Y-106976517D01*
X191819779Y-106637270D01*
X191819780Y-106637268D01*
X191899757Y-106286863D01*
X191899759Y-106286851D01*
X191939999Y-105929712D01*
X191940000Y-105929710D01*
X191940000Y-105570289D01*
X191939999Y-105570287D01*
X191899759Y-105213148D01*
X191899757Y-105213136D01*
X191838023Y-104942659D01*
X191838023Y-104942658D01*
X191833115Y-104921153D01*
X203149500Y-104921153D01*
X203149500Y-105078846D01*
X203180261Y-105233489D01*
X203180264Y-105233501D01*
X203240602Y-105379172D01*
X203240609Y-105379185D01*
X203328210Y-105510288D01*
X203328213Y-105510292D01*
X203439707Y-105621786D01*
X203439711Y-105621789D01*
X203570814Y-105709390D01*
X203570827Y-105709397D01*
X203716498Y-105769735D01*
X203716503Y-105769737D01*
X203866131Y-105799500D01*
X203871153Y-105800499D01*
X203871156Y-105800500D01*
X203871158Y-105800500D01*
X204028844Y-105800500D01*
X204028845Y-105800499D01*
X204183497Y-105769737D01*
X204329179Y-105709394D01*
X204460289Y-105621789D01*
X204511791Y-105570287D01*
X206040000Y-105570287D01*
X206040000Y-105929712D01*
X206080240Y-106286851D01*
X206080242Y-106286863D01*
X206160219Y-106637268D01*
X206160220Y-106637270D01*
X206278927Y-106976517D01*
X206434870Y-107300336D01*
X206626092Y-107604664D01*
X206806081Y-107830364D01*
X208124728Y-106511717D01*
X208210278Y-106629466D01*
X208360534Y-106779722D01*
X208478281Y-106865270D01*
X207159634Y-108183916D01*
X207159634Y-108183917D01*
X207385335Y-108363907D01*
X207689663Y-108555129D01*
X208013482Y-108711072D01*
X208352729Y-108829779D01*
X208352731Y-108829780D01*
X208703136Y-108909757D01*
X208703148Y-108909759D01*
X209060287Y-108949999D01*
X209060289Y-108950000D01*
X209419711Y-108950000D01*
X209419712Y-108949999D01*
X209776851Y-108909759D01*
X209776863Y-108909757D01*
X210127268Y-108829780D01*
X210127270Y-108829779D01*
X210466517Y-108711072D01*
X210790336Y-108555129D01*
X211094664Y-108363908D01*
X211121412Y-108342577D01*
X214740975Y-108342577D01*
X214846236Y-108386178D01*
X214846240Y-108386179D01*
X214945439Y-108405912D01*
X215007350Y-108438297D01*
X215041924Y-108499013D01*
X215042866Y-108551715D01*
X215040000Y-108566124D01*
X215040000Y-108713873D01*
X215068820Y-108858759D01*
X215068822Y-108858767D01*
X215112421Y-108964024D01*
X215436446Y-108640000D01*
X215416555Y-108620109D01*
X215690000Y-108620109D01*
X215690000Y-108659891D01*
X215705224Y-108696645D01*
X215733355Y-108724776D01*
X215770109Y-108740000D01*
X215809891Y-108740000D01*
X215846645Y-108724776D01*
X215874776Y-108696645D01*
X215890000Y-108659891D01*
X215890000Y-108640000D01*
X216143554Y-108640000D01*
X216467577Y-108964024D01*
X216467578Y-108964024D01*
X216511175Y-108858775D01*
X216511179Y-108858760D01*
X216539999Y-108713873D01*
X216540000Y-108713871D01*
X216540000Y-108566128D01*
X216537134Y-108551721D01*
X216543361Y-108482130D01*
X216586223Y-108426952D01*
X216634560Y-108405912D01*
X216733760Y-108386179D01*
X216733775Y-108386175D01*
X216839024Y-108342578D01*
X216839024Y-108342577D01*
X216515000Y-108018554D01*
X216506054Y-108027500D01*
X216510689Y-108032135D01*
X216525392Y-108059062D01*
X216541985Y-108084881D01*
X216542876Y-108091081D01*
X216544174Y-108093458D01*
X216547008Y-108119816D01*
X216547008Y-108185184D01*
X216527323Y-108252223D01*
X216510689Y-108272865D01*
X216143554Y-108640000D01*
X215890000Y-108640000D01*
X215890000Y-108620109D01*
X215874776Y-108583355D01*
X215846645Y-108555224D01*
X215809891Y-108540000D01*
X215770109Y-108540000D01*
X215733355Y-108555224D01*
X215705224Y-108583355D01*
X215690000Y-108620109D01*
X215416555Y-108620109D01*
X215069311Y-108272865D01*
X215057119Y-108250538D01*
X215044198Y-108235626D01*
X215044166Y-108235477D01*
X215739031Y-108235477D01*
X215790000Y-108286446D01*
X215840969Y-108235477D01*
X215803650Y-108198158D01*
X215791109Y-108175192D01*
X215776350Y-108198158D01*
X215739031Y-108235477D01*
X215044166Y-108235477D01*
X215042262Y-108226727D01*
X215038015Y-108220119D01*
X215037123Y-108213918D01*
X215035826Y-108211542D01*
X215032992Y-108185184D01*
X215032992Y-108119816D01*
X215052677Y-108052777D01*
X215069311Y-108032135D01*
X215073946Y-108027500D01*
X215781054Y-108027500D01*
X215781054Y-108031410D01*
X215788890Y-108045761D01*
X215798946Y-108030115D01*
X215798946Y-108027500D01*
X215790000Y-108018554D01*
X215781054Y-108027500D01*
X215073946Y-108027500D01*
X215065000Y-108018554D01*
X214740975Y-108342577D01*
X211121412Y-108342577D01*
X211294157Y-108204816D01*
X211320364Y-108183916D01*
X210001718Y-106865270D01*
X210119466Y-106779722D01*
X210269722Y-106629466D01*
X210355270Y-106511718D01*
X211673916Y-107830364D01*
X211853907Y-107604664D01*
X211862414Y-107591126D01*
X214315000Y-107591126D01*
X214315000Y-107738873D01*
X214343820Y-107883759D01*
X214343822Y-107883767D01*
X214387421Y-107989024D01*
X214711446Y-107665000D01*
X214711446Y-107664999D01*
X214691556Y-107645109D01*
X214965000Y-107645109D01*
X214965000Y-107684891D01*
X214980224Y-107721645D01*
X215008355Y-107749776D01*
X215045109Y-107765000D01*
X215084891Y-107765000D01*
X215121645Y-107749776D01*
X215149776Y-107721645D01*
X215165000Y-107684891D01*
X215165000Y-107665000D01*
X215418554Y-107665000D01*
X215427500Y-107673946D01*
X215436446Y-107665000D01*
X215427500Y-107656054D01*
X215418554Y-107665000D01*
X215165000Y-107665000D01*
X215165000Y-107645109D01*
X215690000Y-107645109D01*
X215690000Y-107684891D01*
X215705224Y-107721645D01*
X215733355Y-107749776D01*
X215770109Y-107765000D01*
X215809891Y-107765000D01*
X215846645Y-107749776D01*
X215874776Y-107721645D01*
X215890000Y-107684891D01*
X215890000Y-107665000D01*
X216143554Y-107665000D01*
X216152500Y-107673946D01*
X216161446Y-107665000D01*
X216152500Y-107656054D01*
X216143554Y-107665000D01*
X215890000Y-107665000D01*
X215890000Y-107645109D01*
X216415000Y-107645109D01*
X216415000Y-107684891D01*
X216430224Y-107721645D01*
X216458355Y-107749776D01*
X216495109Y-107765000D01*
X216534891Y-107765000D01*
X216571645Y-107749776D01*
X216599776Y-107721645D01*
X216615000Y-107684891D01*
X216615000Y-107664999D01*
X216868554Y-107664999D01*
X216868554Y-107665001D01*
X217192577Y-107989024D01*
X217192578Y-107989024D01*
X217236175Y-107883775D01*
X217236179Y-107883760D01*
X217264999Y-107738873D01*
X217265000Y-107738871D01*
X217265000Y-107591128D01*
X217264999Y-107591126D01*
X217236179Y-107446240D01*
X217236178Y-107446236D01*
X217192577Y-107340975D01*
X216868554Y-107664999D01*
X216615000Y-107664999D01*
X216615000Y-107645109D01*
X216599776Y-107608355D01*
X216571645Y-107580224D01*
X216534891Y-107565000D01*
X216495109Y-107565000D01*
X216458355Y-107580224D01*
X216430224Y-107608355D01*
X216415000Y-107645109D01*
X215890000Y-107645109D01*
X215874776Y-107608355D01*
X215846645Y-107580224D01*
X215809891Y-107565000D01*
X215770109Y-107565000D01*
X215733355Y-107580224D01*
X215705224Y-107608355D01*
X215690000Y-107645109D01*
X215165000Y-107645109D01*
X215149776Y-107608355D01*
X215121645Y-107580224D01*
X215084891Y-107565000D01*
X215045109Y-107565000D01*
X215008355Y-107580224D01*
X214980224Y-107608355D01*
X214965000Y-107645109D01*
X214691556Y-107645109D01*
X214387421Y-107340974D01*
X214387420Y-107340974D01*
X214343823Y-107446228D01*
X214343820Y-107446240D01*
X214315000Y-107591126D01*
X211862414Y-107591126D01*
X211907692Y-107519067D01*
X212045129Y-107300336D01*
X212195821Y-106987420D01*
X214740974Y-106987420D01*
X214740974Y-106987421D01*
X215064999Y-107311446D01*
X215073946Y-107302500D01*
X215072408Y-107300962D01*
X215781054Y-107300962D01*
X215781054Y-107302500D01*
X215790000Y-107311446D01*
X215798946Y-107302500D01*
X215798946Y-107298589D01*
X215790197Y-107282567D01*
X215781054Y-107300962D01*
X215072408Y-107300962D01*
X215069311Y-107297865D01*
X215054607Y-107270937D01*
X215038015Y-107245119D01*
X215037123Y-107238918D01*
X215035826Y-107236542D01*
X215032992Y-107210184D01*
X215032992Y-107144816D01*
X215052677Y-107077777D01*
X215057272Y-107072075D01*
X215761478Y-107072075D01*
X215793213Y-107148080D01*
X215803650Y-107131842D01*
X215840969Y-107094523D01*
X215790000Y-107043554D01*
X215761478Y-107072075D01*
X215057272Y-107072075D01*
X215069311Y-107057135D01*
X215436446Y-106690000D01*
X215436446Y-106689999D01*
X215416556Y-106670109D01*
X215690000Y-106670109D01*
X215690000Y-106709891D01*
X215705224Y-106746645D01*
X215733355Y-106774776D01*
X215770109Y-106790000D01*
X215809891Y-106790000D01*
X215846645Y-106774776D01*
X215874776Y-106746645D01*
X215890000Y-106709891D01*
X215890000Y-106689999D01*
X216143554Y-106689999D01*
X216143554Y-106690000D01*
X216510689Y-107057135D01*
X216525392Y-107084062D01*
X216541985Y-107109881D01*
X216542876Y-107116081D01*
X216544174Y-107118458D01*
X216547008Y-107144816D01*
X216547008Y-107210184D01*
X216527323Y-107277223D01*
X216510689Y-107297865D01*
X216506054Y-107302500D01*
X216515000Y-107311446D01*
X216515001Y-107311446D01*
X216839024Y-106987421D01*
X216733767Y-106943822D01*
X216733761Y-106943820D01*
X216634559Y-106924087D01*
X216572648Y-106891702D01*
X216538074Y-106830985D01*
X216537134Y-106778277D01*
X216540000Y-106763869D01*
X216540000Y-106616128D01*
X216539999Y-106616126D01*
X216511179Y-106471240D01*
X216511178Y-106471236D01*
X216467577Y-106365975D01*
X216143554Y-106689999D01*
X215890000Y-106689999D01*
X215890000Y-106670109D01*
X215874776Y-106633355D01*
X215846645Y-106605224D01*
X215809891Y-106590000D01*
X215770109Y-106590000D01*
X215733355Y-106605224D01*
X215705224Y-106633355D01*
X215690000Y-106670109D01*
X215416556Y-106670109D01*
X215112421Y-106365974D01*
X215112420Y-106365974D01*
X215068823Y-106471228D01*
X215068820Y-106471240D01*
X215040000Y-106616126D01*
X215040000Y-106763871D01*
X215039999Y-106763871D01*
X215042866Y-106778282D01*
X215036636Y-106847874D01*
X214993772Y-106903050D01*
X214945441Y-106924087D01*
X214846237Y-106943821D01*
X214846228Y-106943823D01*
X214740974Y-106987420D01*
X212195821Y-106987420D01*
X212201072Y-106976517D01*
X212319779Y-106637270D01*
X212319780Y-106637268D01*
X212399757Y-106286863D01*
X212399760Y-106286849D01*
X212427646Y-106039353D01*
X212427646Y-106039352D01*
X212430680Y-106012420D01*
X215465974Y-106012420D01*
X215465974Y-106012421D01*
X215790000Y-106336446D01*
X215790001Y-106336446D01*
X216114024Y-106012421D01*
X216008767Y-105968822D01*
X216008759Y-105968820D01*
X215863872Y-105940000D01*
X215716128Y-105940000D01*
X215571240Y-105968820D01*
X215571228Y-105968823D01*
X215465974Y-106012420D01*
X212430680Y-106012420D01*
X212439999Y-105929711D01*
X212440000Y-105929710D01*
X212440000Y-105570289D01*
X212439999Y-105570287D01*
X212399759Y-105213148D01*
X212399757Y-105213136D01*
X212319780Y-104862731D01*
X212319779Y-104862729D01*
X212201072Y-104523481D01*
X212201070Y-104523478D01*
X212198852Y-104518871D01*
X212198851Y-104518870D01*
X212198850Y-104518868D01*
X212175872Y-104471153D01*
X215199500Y-104471153D01*
X215199500Y-104628846D01*
X215230261Y-104783489D01*
X215230264Y-104783501D01*
X215290602Y-104929172D01*
X215290609Y-104929185D01*
X215378210Y-105060288D01*
X215378213Y-105060292D01*
X215489707Y-105171786D01*
X215489711Y-105171789D01*
X215620814Y-105259390D01*
X215620827Y-105259397D01*
X215766498Y-105319735D01*
X215766503Y-105319737D01*
X215921153Y-105350499D01*
X215921156Y-105350500D01*
X215921158Y-105350500D01*
X216078844Y-105350500D01*
X216078845Y-105350499D01*
X216233497Y-105319737D01*
X216379179Y-105259394D01*
X216510289Y-105171789D01*
X216621789Y-105060289D01*
X216709394Y-104929179D01*
X216712719Y-104921153D01*
X216769735Y-104783501D01*
X216769737Y-104783497D01*
X216800500Y-104628842D01*
X216800500Y-104471158D01*
X216800500Y-104471155D01*
X216800499Y-104471153D01*
X217799500Y-104471153D01*
X217799500Y-104628846D01*
X217830261Y-104783489D01*
X217830264Y-104783501D01*
X217890602Y-104929172D01*
X217890609Y-104929185D01*
X217978210Y-105060288D01*
X217978213Y-105060292D01*
X218089707Y-105171786D01*
X218089711Y-105171789D01*
X218220814Y-105259390D01*
X218220827Y-105259397D01*
X218366498Y-105319735D01*
X218366503Y-105319737D01*
X218521153Y-105350499D01*
X218521156Y-105350500D01*
X218521158Y-105350500D01*
X218678844Y-105350500D01*
X218678845Y-105350499D01*
X218833497Y-105319737D01*
X218979179Y-105259394D01*
X219110289Y-105171789D01*
X219221789Y-105060289D01*
X219309394Y-104929179D01*
X219312719Y-104921153D01*
X219369735Y-104783501D01*
X219369737Y-104783497D01*
X219400500Y-104628842D01*
X219400500Y-104471158D01*
X219400500Y-104471155D01*
X219400499Y-104471153D01*
X219382012Y-104378213D01*
X219369737Y-104316503D01*
X219369735Y-104316498D01*
X219309397Y-104170827D01*
X219309390Y-104170814D01*
X219221789Y-104039711D01*
X219221786Y-104039707D01*
X219110292Y-103928213D01*
X219110288Y-103928210D01*
X218979185Y-103840609D01*
X218979172Y-103840602D01*
X218833501Y-103780264D01*
X218833489Y-103780261D01*
X218678845Y-103749500D01*
X218678842Y-103749500D01*
X218521158Y-103749500D01*
X218521155Y-103749500D01*
X218366510Y-103780261D01*
X218366498Y-103780264D01*
X218220827Y-103840602D01*
X218220814Y-103840609D01*
X218089711Y-103928210D01*
X218089707Y-103928213D01*
X217978213Y-104039707D01*
X217978210Y-104039711D01*
X217890609Y-104170814D01*
X217890602Y-104170827D01*
X217830264Y-104316498D01*
X217830261Y-104316510D01*
X217799500Y-104471153D01*
X216800499Y-104471153D01*
X216782012Y-104378213D01*
X216769737Y-104316503D01*
X216769735Y-104316498D01*
X216709397Y-104170827D01*
X216709390Y-104170814D01*
X216621789Y-104039711D01*
X216621786Y-104039707D01*
X216510292Y-103928213D01*
X216510288Y-103928210D01*
X216379185Y-103840609D01*
X216379172Y-103840602D01*
X216233501Y-103780264D01*
X216233489Y-103780261D01*
X216078845Y-103749500D01*
X216078842Y-103749500D01*
X215921158Y-103749500D01*
X215921155Y-103749500D01*
X215766510Y-103780261D01*
X215766498Y-103780264D01*
X215620827Y-103840602D01*
X215620814Y-103840609D01*
X215489711Y-103928210D01*
X215489707Y-103928213D01*
X215378213Y-104039707D01*
X215378210Y-104039711D01*
X215290609Y-104170814D01*
X215290602Y-104170827D01*
X215230264Y-104316498D01*
X215230261Y-104316510D01*
X215199500Y-104471153D01*
X212175872Y-104471153D01*
X212045129Y-104199663D01*
X211853907Y-103895335D01*
X211673916Y-103669634D01*
X210355270Y-104988281D01*
X210269722Y-104870534D01*
X210119466Y-104720278D01*
X210001716Y-104634728D01*
X211320364Y-103316081D01*
X211094664Y-103136092D01*
X210790336Y-102944870D01*
X210466517Y-102788927D01*
X210127270Y-102670220D01*
X210127268Y-102670219D01*
X209776863Y-102590242D01*
X209776851Y-102590240D01*
X209419712Y-102550000D01*
X209060287Y-102550000D01*
X208703148Y-102590240D01*
X208703136Y-102590242D01*
X208352731Y-102670219D01*
X208352729Y-102670220D01*
X208013482Y-102788927D01*
X207689663Y-102944870D01*
X207385335Y-103136092D01*
X207159634Y-103316081D01*
X208478282Y-104634729D01*
X208360534Y-104720278D01*
X208210278Y-104870534D01*
X208124729Y-104988282D01*
X206806081Y-103669634D01*
X206626092Y-103895335D01*
X206434870Y-104199663D01*
X206278927Y-104523482D01*
X206160220Y-104862729D01*
X206160219Y-104862731D01*
X206080242Y-105213136D01*
X206080240Y-105213148D01*
X206040000Y-105570287D01*
X204511791Y-105570287D01*
X204571789Y-105510289D01*
X204571829Y-105510227D01*
X204580054Y-105497921D01*
X204659390Y-105379185D01*
X204659390Y-105379184D01*
X204659394Y-105379179D01*
X204719737Y-105233497D01*
X204750500Y-105078842D01*
X204750500Y-104921158D01*
X204750500Y-104921155D01*
X204750499Y-104921153D01*
X204723117Y-104783497D01*
X204719737Y-104766503D01*
X204700590Y-104720278D01*
X204659397Y-104620827D01*
X204659390Y-104620814D01*
X204571789Y-104489711D01*
X204571786Y-104489707D01*
X204460292Y-104378213D01*
X204460288Y-104378210D01*
X204329185Y-104290609D01*
X204329172Y-104290602D01*
X204183501Y-104230264D01*
X204183489Y-104230261D01*
X204028845Y-104199500D01*
X204028842Y-104199500D01*
X203871158Y-104199500D01*
X203871155Y-104199500D01*
X203716510Y-104230261D01*
X203716498Y-104230264D01*
X203570827Y-104290602D01*
X203570814Y-104290609D01*
X203439711Y-104378210D01*
X203439707Y-104378213D01*
X203328213Y-104489707D01*
X203328210Y-104489711D01*
X203240609Y-104620814D01*
X203240602Y-104620827D01*
X203180264Y-104766498D01*
X203180261Y-104766510D01*
X203149500Y-104921153D01*
X191833115Y-104921153D01*
X191819781Y-104862735D01*
X191819779Y-104862729D01*
X191701072Y-104523482D01*
X191545129Y-104199663D01*
X191353907Y-103895335D01*
X191173916Y-103669634D01*
X189855269Y-104988280D01*
X189769722Y-104870534D01*
X189619466Y-104720278D01*
X189501716Y-104634728D01*
X190820364Y-103316081D01*
X190594664Y-103136092D01*
X190290336Y-102944870D01*
X189966517Y-102788927D01*
X189627270Y-102670220D01*
X189627268Y-102670219D01*
X189276863Y-102590242D01*
X189276851Y-102590240D01*
X188919712Y-102550000D01*
X188560287Y-102550000D01*
X188203148Y-102590240D01*
X188203136Y-102590242D01*
X187852731Y-102670219D01*
X187852729Y-102670220D01*
X187513482Y-102788927D01*
X187189663Y-102944870D01*
X186885335Y-103136092D01*
X186659634Y-103316081D01*
X187978282Y-104634729D01*
X187860534Y-104720278D01*
X187710278Y-104870534D01*
X187624729Y-104988282D01*
X186306081Y-103669634D01*
X186126092Y-103895335D01*
X185934870Y-104199663D01*
X185778927Y-104523482D01*
X185660220Y-104862729D01*
X185660219Y-104862731D01*
X185580242Y-105213136D01*
X185580240Y-105213148D01*
X185540000Y-105570287D01*
X167000500Y-105570287D01*
X167000500Y-103071153D01*
X177599500Y-103071153D01*
X177599500Y-103228846D01*
X177630261Y-103383489D01*
X177630264Y-103383501D01*
X177690602Y-103529172D01*
X177690609Y-103529185D01*
X177778210Y-103660288D01*
X177778213Y-103660292D01*
X177889707Y-103771786D01*
X177889711Y-103771789D01*
X178020814Y-103859390D01*
X178020827Y-103859397D01*
X178141390Y-103909335D01*
X178166503Y-103919737D01*
X178321153Y-103950499D01*
X178321156Y-103950500D01*
X178321158Y-103950500D01*
X178478844Y-103950500D01*
X178478845Y-103950499D01*
X178633497Y-103919737D01*
X178779179Y-103859394D01*
X178910289Y-103771789D01*
X179021789Y-103660289D01*
X179109394Y-103529179D01*
X179169737Y-103383497D01*
X179200500Y-103228842D01*
X179200500Y-103071158D01*
X179200500Y-103071155D01*
X179200499Y-103071153D01*
X179169737Y-102916503D01*
X179116894Y-102788927D01*
X179109397Y-102770827D01*
X179109390Y-102770814D01*
X179021789Y-102639711D01*
X179021786Y-102639707D01*
X178910292Y-102528213D01*
X178910288Y-102528210D01*
X178779185Y-102440609D01*
X178779172Y-102440602D01*
X178633501Y-102380264D01*
X178633489Y-102380261D01*
X178478845Y-102349500D01*
X178478842Y-102349500D01*
X178321158Y-102349500D01*
X178321155Y-102349500D01*
X178166510Y-102380261D01*
X178166498Y-102380264D01*
X178020827Y-102440602D01*
X178020814Y-102440609D01*
X177889711Y-102528210D01*
X177889707Y-102528213D01*
X177778213Y-102639707D01*
X177778210Y-102639711D01*
X177690609Y-102770814D01*
X177690602Y-102770827D01*
X177630264Y-102916498D01*
X177630261Y-102916510D01*
X177599500Y-103071153D01*
X167000500Y-103071153D01*
X167000500Y-100621153D01*
X177599500Y-100621153D01*
X177599500Y-100778846D01*
X177630261Y-100933489D01*
X177630264Y-100933501D01*
X177690602Y-101079172D01*
X177690609Y-101079185D01*
X177778210Y-101210288D01*
X177778213Y-101210292D01*
X177889707Y-101321786D01*
X177889711Y-101321789D01*
X178020814Y-101409390D01*
X178020827Y-101409397D01*
X178166498Y-101469735D01*
X178166503Y-101469737D01*
X178321153Y-101500499D01*
X178321156Y-101500500D01*
X178321158Y-101500500D01*
X178478844Y-101500500D01*
X178478845Y-101500499D01*
X178633497Y-101469737D01*
X178779179Y-101409394D01*
X178910289Y-101321789D01*
X179021789Y-101210289D01*
X179081348Y-101121153D01*
X183999500Y-101121153D01*
X183999500Y-101278846D01*
X184030261Y-101433489D01*
X184030264Y-101433501D01*
X184090602Y-101579172D01*
X184090609Y-101579185D01*
X184178210Y-101710288D01*
X184178213Y-101710292D01*
X184289707Y-101821786D01*
X184289710Y-101821788D01*
X184289711Y-101821789D01*
X184307585Y-101833732D01*
X184327289Y-101846898D01*
X184372093Y-101900511D01*
X184380800Y-101969836D01*
X184350645Y-102032863D01*
X184327289Y-102053102D01*
X184289707Y-102078213D01*
X184178213Y-102189707D01*
X184178210Y-102189711D01*
X184090609Y-102320814D01*
X184090602Y-102320827D01*
X184030264Y-102466498D01*
X184030261Y-102466510D01*
X183999500Y-102621153D01*
X183999500Y-102778846D01*
X184030261Y-102933489D01*
X184030264Y-102933501D01*
X184090602Y-103079172D01*
X184090609Y-103079185D01*
X184178210Y-103210288D01*
X184178213Y-103210292D01*
X184289707Y-103321786D01*
X184289711Y-103321789D01*
X184420814Y-103409390D01*
X184420827Y-103409397D01*
X184566498Y-103469735D01*
X184566503Y-103469737D01*
X184721153Y-103500499D01*
X184721156Y-103500500D01*
X184721158Y-103500500D01*
X184878844Y-103500500D01*
X184878845Y-103500499D01*
X185033497Y-103469737D01*
X185179179Y-103409394D01*
X185310289Y-103321789D01*
X185315997Y-103316081D01*
X185355232Y-103276847D01*
X185421786Y-103210292D01*
X185421789Y-103210289D01*
X185509394Y-103079179D01*
X185512719Y-103071153D01*
X185569735Y-102933501D01*
X185569737Y-102933497D01*
X185600500Y-102778842D01*
X185600500Y-102621158D01*
X185600500Y-102621155D01*
X185600499Y-102621153D01*
X185582012Y-102528213D01*
X185569737Y-102466503D01*
X185569735Y-102466498D01*
X185509397Y-102320827D01*
X185509390Y-102320814D01*
X185421789Y-102189711D01*
X185421786Y-102189707D01*
X185310292Y-102078213D01*
X185310284Y-102078207D01*
X185272712Y-102053102D01*
X185251671Y-102027926D01*
X185229745Y-102003516D01*
X185229378Y-102001251D01*
X185227906Y-101999490D01*
X185223816Y-101966930D01*
X185219450Y-101939984D01*
X222149500Y-101939984D01*
X222149500Y-103640015D01*
X222160000Y-103742795D01*
X222160001Y-103742797D01*
X222187593Y-103826065D01*
X222215186Y-103909335D01*
X222215187Y-103909337D01*
X222307286Y-104058651D01*
X222307289Y-104058655D01*
X222431344Y-104182710D01*
X222431348Y-104182713D01*
X222580662Y-104274812D01*
X222580664Y-104274813D01*
X222580666Y-104274814D01*
X222747203Y-104329999D01*
X222849992Y-104340500D01*
X222849997Y-104340500D01*
X224550003Y-104340500D01*
X224550008Y-104340500D01*
X224652797Y-104329999D01*
X224819334Y-104274814D01*
X224968655Y-104182711D01*
X225092711Y-104058655D01*
X225184814Y-103909334D01*
X225239999Y-103742797D01*
X225250500Y-103640008D01*
X225250500Y-101939992D01*
X225239999Y-101837203D01*
X225184814Y-101670666D01*
X225128387Y-101579185D01*
X225092713Y-101521348D01*
X225092710Y-101521344D01*
X224968655Y-101397289D01*
X224968651Y-101397286D01*
X224819337Y-101305187D01*
X224819335Y-101305186D01*
X224736065Y-101277593D01*
X224652797Y-101250001D01*
X224652795Y-101250000D01*
X224550015Y-101239500D01*
X224550008Y-101239500D01*
X222849992Y-101239500D01*
X222849984Y-101239500D01*
X222747204Y-101250000D01*
X222747203Y-101250001D01*
X222580664Y-101305186D01*
X222580662Y-101305187D01*
X222431348Y-101397286D01*
X222431344Y-101397289D01*
X222307289Y-101521344D01*
X222307286Y-101521348D01*
X222215187Y-101670662D01*
X222215186Y-101670664D01*
X222160001Y-101837203D01*
X222160000Y-101837204D01*
X222149500Y-101939984D01*
X185219450Y-101939984D01*
X185218569Y-101934546D01*
X185219484Y-101932441D01*
X185219199Y-101930165D01*
X185233358Y-101900568D01*
X185246455Y-101870482D01*
X185248731Y-101868437D01*
X185249353Y-101867138D01*
X185272712Y-101846897D01*
X185292415Y-101833732D01*
X185310289Y-101821789D01*
X185421789Y-101710289D01*
X185509394Y-101579179D01*
X185569737Y-101433497D01*
X185600500Y-101278842D01*
X185600500Y-101121158D01*
X185600500Y-101121155D01*
X185600499Y-101121153D01*
X185578269Y-101009397D01*
X185569737Y-100966503D01*
X185551215Y-100921786D01*
X185509397Y-100820827D01*
X185509390Y-100820814D01*
X185421789Y-100689711D01*
X185421786Y-100689707D01*
X185310292Y-100578213D01*
X185310288Y-100578210D01*
X185179185Y-100490609D01*
X185179172Y-100490602D01*
X185033501Y-100430264D01*
X185033489Y-100430261D01*
X184878845Y-100399500D01*
X184878842Y-100399500D01*
X184721158Y-100399500D01*
X184721155Y-100399500D01*
X184566510Y-100430261D01*
X184566498Y-100430264D01*
X184420827Y-100490602D01*
X184420814Y-100490609D01*
X184289711Y-100578210D01*
X184289707Y-100578213D01*
X184178213Y-100689707D01*
X184178210Y-100689711D01*
X184090609Y-100820814D01*
X184090602Y-100820827D01*
X184030264Y-100966498D01*
X184030261Y-100966510D01*
X183999500Y-101121153D01*
X179081348Y-101121153D01*
X179109394Y-101079179D01*
X179169737Y-100933497D01*
X179200500Y-100778842D01*
X179200500Y-100621158D01*
X179200500Y-100621155D01*
X179200499Y-100621153D01*
X179174531Y-100490606D01*
X179169737Y-100466503D01*
X179169735Y-100466498D01*
X179109397Y-100320827D01*
X179109390Y-100320814D01*
X179084763Y-100283957D01*
X179042798Y-100221153D01*
X187099500Y-100221153D01*
X187099500Y-100378846D01*
X187130261Y-100533489D01*
X187130264Y-100533501D01*
X187190602Y-100679172D01*
X187190609Y-100679185D01*
X187278210Y-100810288D01*
X187278213Y-100810292D01*
X187389707Y-100921786D01*
X187389711Y-100921789D01*
X187520814Y-101009390D01*
X187520827Y-101009397D01*
X187661370Y-101067611D01*
X187666503Y-101069737D01*
X187821153Y-101100499D01*
X187821156Y-101100500D01*
X187821158Y-101100500D01*
X187978844Y-101100500D01*
X187978845Y-101100499D01*
X188133497Y-101069737D01*
X188279179Y-101009394D01*
X188410289Y-100921789D01*
X188521789Y-100810289D01*
X188609394Y-100679179D01*
X188669737Y-100533497D01*
X188700500Y-100378842D01*
X188700500Y-100221158D01*
X188700500Y-100221155D01*
X188700499Y-100221153D01*
X188678269Y-100109397D01*
X188669737Y-100066503D01*
X188638298Y-99990602D01*
X188609397Y-99920827D01*
X188609390Y-99920814D01*
X188521789Y-99789711D01*
X188521786Y-99789707D01*
X188410292Y-99678213D01*
X188410288Y-99678210D01*
X188279185Y-99590609D01*
X188279172Y-99590602D01*
X188133501Y-99530264D01*
X188133489Y-99530261D01*
X187978845Y-99499500D01*
X187978842Y-99499500D01*
X187821158Y-99499500D01*
X187821155Y-99499500D01*
X187666510Y-99530261D01*
X187666498Y-99530264D01*
X187520827Y-99590602D01*
X187520814Y-99590609D01*
X187389711Y-99678210D01*
X187389707Y-99678213D01*
X187278213Y-99789707D01*
X187278210Y-99789711D01*
X187190609Y-99920814D01*
X187190602Y-99920827D01*
X187130264Y-100066498D01*
X187130261Y-100066510D01*
X187099500Y-100221153D01*
X179042798Y-100221153D01*
X179021789Y-100189711D01*
X179021786Y-100189707D01*
X178910292Y-100078213D01*
X178910288Y-100078210D01*
X178779185Y-99990609D01*
X178779172Y-99990602D01*
X178633501Y-99930264D01*
X178633489Y-99930261D01*
X178478845Y-99899500D01*
X178478842Y-99899500D01*
X178321158Y-99899500D01*
X178321155Y-99899500D01*
X178166510Y-99930261D01*
X178166498Y-99930264D01*
X178020827Y-99990602D01*
X178020814Y-99990609D01*
X177889711Y-100078210D01*
X177889707Y-100078213D01*
X177778213Y-100189707D01*
X177778210Y-100189711D01*
X177690609Y-100320814D01*
X177690602Y-100320827D01*
X177630264Y-100466498D01*
X177630261Y-100466510D01*
X177599500Y-100621153D01*
X167000500Y-100621153D01*
X167000500Y-99321153D01*
X170099500Y-99321153D01*
X170099500Y-99478846D01*
X170130261Y-99633489D01*
X170130264Y-99633501D01*
X170190602Y-99779172D01*
X170190609Y-99779185D01*
X170278210Y-99910288D01*
X170278213Y-99910292D01*
X170389707Y-100021786D01*
X170389711Y-100021789D01*
X170520814Y-100109390D01*
X170520827Y-100109397D01*
X170666498Y-100169735D01*
X170666503Y-100169737D01*
X170821153Y-100200499D01*
X170821156Y-100200500D01*
X170821158Y-100200500D01*
X170978844Y-100200500D01*
X170978845Y-100200499D01*
X171133497Y-100169737D01*
X171279179Y-100109394D01*
X171410289Y-100021789D01*
X171521789Y-99910289D01*
X171529145Y-99899279D01*
X171546898Y-99872712D01*
X171600510Y-99827906D01*
X171669835Y-99819199D01*
X171732862Y-99849353D01*
X171753102Y-99872712D01*
X171778207Y-99910284D01*
X171778213Y-99910292D01*
X171889707Y-100021786D01*
X171889711Y-100021789D01*
X172020814Y-100109390D01*
X172020827Y-100109397D01*
X172166498Y-100169735D01*
X172166503Y-100169737D01*
X172321153Y-100200499D01*
X172321156Y-100200500D01*
X172321158Y-100200500D01*
X172478844Y-100200500D01*
X172478845Y-100200499D01*
X172633497Y-100169737D01*
X172779179Y-100109394D01*
X172910289Y-100021789D01*
X173021789Y-99910289D01*
X173109394Y-99779179D01*
X173169737Y-99633497D01*
X173200500Y-99478842D01*
X173200500Y-99321158D01*
X173200500Y-99321155D01*
X173200499Y-99321153D01*
X176099500Y-99321153D01*
X176099500Y-99478846D01*
X176130261Y-99633489D01*
X176130264Y-99633501D01*
X176190602Y-99779172D01*
X176190609Y-99779185D01*
X176278210Y-99910288D01*
X176278213Y-99910292D01*
X176389707Y-100021786D01*
X176389711Y-100021789D01*
X176520814Y-100109390D01*
X176520827Y-100109397D01*
X176666498Y-100169735D01*
X176666503Y-100169737D01*
X176821153Y-100200499D01*
X176821156Y-100200500D01*
X176821158Y-100200500D01*
X176978844Y-100200500D01*
X176978845Y-100200499D01*
X177133497Y-100169737D01*
X177279179Y-100109394D01*
X177410289Y-100021789D01*
X177521789Y-99910289D01*
X177609394Y-99779179D01*
X177669737Y-99633497D01*
X177700500Y-99478842D01*
X177700500Y-99321158D01*
X177700500Y-99321155D01*
X177700499Y-99321153D01*
X177669738Y-99166510D01*
X177669737Y-99166503D01*
X177650000Y-99118853D01*
X177609397Y-99020827D01*
X177609390Y-99020814D01*
X177521789Y-98889711D01*
X177521786Y-98889707D01*
X177410292Y-98778213D01*
X177410288Y-98778210D01*
X177279185Y-98690609D01*
X177279172Y-98690602D01*
X177133501Y-98630264D01*
X177133489Y-98630261D01*
X176978845Y-98599500D01*
X176978842Y-98599500D01*
X176821158Y-98599500D01*
X176821155Y-98599500D01*
X176666510Y-98630261D01*
X176666498Y-98630264D01*
X176520827Y-98690602D01*
X176520814Y-98690609D01*
X176389711Y-98778210D01*
X176389707Y-98778213D01*
X176278213Y-98889707D01*
X176278210Y-98889711D01*
X176190609Y-99020814D01*
X176190602Y-99020827D01*
X176130264Y-99166498D01*
X176130261Y-99166510D01*
X176099500Y-99321153D01*
X173200499Y-99321153D01*
X173169738Y-99166510D01*
X173169737Y-99166503D01*
X173150000Y-99118853D01*
X173109397Y-99020827D01*
X173109390Y-99020814D01*
X173021789Y-98889711D01*
X173021786Y-98889707D01*
X172910292Y-98778213D01*
X172910288Y-98778210D01*
X172779185Y-98690609D01*
X172779172Y-98690602D01*
X172633501Y-98630264D01*
X172633489Y-98630261D01*
X172478845Y-98599500D01*
X172478842Y-98599500D01*
X172321158Y-98599500D01*
X172321155Y-98599500D01*
X172166510Y-98630261D01*
X172166498Y-98630264D01*
X172020827Y-98690602D01*
X172020814Y-98690609D01*
X171889711Y-98778210D01*
X171889707Y-98778213D01*
X171778213Y-98889707D01*
X171753102Y-98927289D01*
X171699489Y-98972093D01*
X171630164Y-98980800D01*
X171567137Y-98950645D01*
X171546898Y-98927289D01*
X171523759Y-98892660D01*
X171521789Y-98889711D01*
X171521788Y-98889710D01*
X171521786Y-98889707D01*
X171410292Y-98778213D01*
X171410288Y-98778210D01*
X171279185Y-98690609D01*
X171279172Y-98690602D01*
X171133501Y-98630264D01*
X171133489Y-98630261D01*
X170978845Y-98599500D01*
X170978842Y-98599500D01*
X170821158Y-98599500D01*
X170821155Y-98599500D01*
X170666510Y-98630261D01*
X170666498Y-98630264D01*
X170520827Y-98690602D01*
X170520814Y-98690609D01*
X170389711Y-98778210D01*
X170389707Y-98778213D01*
X170278213Y-98889707D01*
X170278210Y-98889711D01*
X170190609Y-99020814D01*
X170190602Y-99020827D01*
X170130264Y-99166498D01*
X170130261Y-99166510D01*
X170099500Y-99321153D01*
X167000500Y-99321153D01*
X167000500Y-96721153D01*
X214299500Y-96721153D01*
X214299500Y-96878846D01*
X214330261Y-97033489D01*
X214330264Y-97033501D01*
X214379574Y-97152548D01*
X214387043Y-97222018D01*
X214379574Y-97247452D01*
X214330264Y-97366498D01*
X214330261Y-97366510D01*
X214299500Y-97521153D01*
X214299500Y-97678846D01*
X214330261Y-97833489D01*
X214330264Y-97833501D01*
X214390602Y-97979172D01*
X214390609Y-97979185D01*
X214478210Y-98110288D01*
X214478213Y-98110292D01*
X214589707Y-98221786D01*
X214589711Y-98221789D01*
X214720814Y-98309390D01*
X214720827Y-98309397D01*
X214866498Y-98369735D01*
X214866503Y-98369737D01*
X215021153Y-98400499D01*
X215021156Y-98400500D01*
X215021158Y-98400500D01*
X215178844Y-98400500D01*
X215178845Y-98400499D01*
X215333497Y-98369737D01*
X215479179Y-98309394D01*
X215610289Y-98221789D01*
X215721789Y-98110289D01*
X215809394Y-97979179D01*
X215869737Y-97833497D01*
X215900500Y-97678842D01*
X215900500Y-97587973D01*
X222149500Y-97587973D01*
X222149500Y-97832027D01*
X222187679Y-98073076D01*
X222199771Y-98110292D01*
X222263097Y-98305187D01*
X222373896Y-98522642D01*
X222517339Y-98720076D01*
X222517343Y-98720081D01*
X222689918Y-98892656D01*
X222689923Y-98892660D01*
X222862136Y-99017779D01*
X222887361Y-99036106D01*
X223104815Y-99146904D01*
X223336924Y-99222321D01*
X223577973Y-99260500D01*
X223577974Y-99260500D01*
X223822026Y-99260500D01*
X223822027Y-99260500D01*
X224063076Y-99222321D01*
X224295185Y-99146904D01*
X224512639Y-99036106D01*
X224710083Y-98892655D01*
X224882655Y-98720083D01*
X225026106Y-98522639D01*
X225136904Y-98305185D01*
X225212321Y-98073076D01*
X225250500Y-97832027D01*
X225250500Y-97587973D01*
X225212321Y-97346924D01*
X225136904Y-97114815D01*
X225026106Y-96897361D01*
X225007779Y-96872136D01*
X224882660Y-96699923D01*
X224882656Y-96699918D01*
X224710081Y-96527343D01*
X224710076Y-96527339D01*
X224512642Y-96383896D01*
X224512641Y-96383895D01*
X224512639Y-96383894D01*
X224295185Y-96273096D01*
X224063076Y-96197679D01*
X224063074Y-96197678D01*
X224063072Y-96197678D01*
X223894769Y-96171021D01*
X223822027Y-96159500D01*
X223577973Y-96159500D01*
X223522093Y-96168350D01*
X223336927Y-96197678D01*
X223104812Y-96273097D01*
X222887357Y-96383896D01*
X222689923Y-96527339D01*
X222689918Y-96527343D01*
X222517343Y-96699918D01*
X222517339Y-96699923D01*
X222373896Y-96897357D01*
X222263097Y-97114812D01*
X222187678Y-97346927D01*
X222149500Y-97587973D01*
X215900500Y-97587973D01*
X215900500Y-97521158D01*
X215900500Y-97521155D01*
X215900499Y-97521153D01*
X215869738Y-97366510D01*
X215869737Y-97366503D01*
X215869735Y-97366498D01*
X215820425Y-97247452D01*
X215812956Y-97177983D01*
X215820425Y-97152548D01*
X215869735Y-97033501D01*
X215869737Y-97033497D01*
X215900500Y-96878842D01*
X215900500Y-96721158D01*
X215900500Y-96721155D01*
X215900499Y-96721153D01*
X215869738Y-96566510D01*
X215869737Y-96566503D01*
X215869735Y-96566498D01*
X215809397Y-96420827D01*
X215809390Y-96420814D01*
X215721789Y-96289711D01*
X215721786Y-96289707D01*
X215610292Y-96178213D01*
X215610288Y-96178210D01*
X215479185Y-96090609D01*
X215479172Y-96090602D01*
X215333501Y-96030264D01*
X215333489Y-96030261D01*
X215178845Y-95999500D01*
X215178842Y-95999500D01*
X215021158Y-95999500D01*
X215021155Y-95999500D01*
X214866510Y-96030261D01*
X214866498Y-96030264D01*
X214720827Y-96090602D01*
X214720814Y-96090609D01*
X214589711Y-96178210D01*
X214589707Y-96178213D01*
X214478213Y-96289707D01*
X214478210Y-96289711D01*
X214390609Y-96420814D01*
X214390602Y-96420827D01*
X214330264Y-96566498D01*
X214330261Y-96566510D01*
X214299500Y-96721153D01*
X167000500Y-96721153D01*
X167000500Y-95171153D01*
X209499500Y-95171153D01*
X209499500Y-95328846D01*
X209530261Y-95483489D01*
X209530264Y-95483501D01*
X209590602Y-95629172D01*
X209590609Y-95629185D01*
X209678210Y-95760288D01*
X209678213Y-95760292D01*
X209789707Y-95871786D01*
X209789711Y-95871789D01*
X209920814Y-95959390D01*
X209920827Y-95959397D01*
X210017646Y-95999500D01*
X210066503Y-96019737D01*
X210221153Y-96050499D01*
X210221156Y-96050500D01*
X210221158Y-96050500D01*
X210378844Y-96050500D01*
X210378845Y-96050499D01*
X210533497Y-96019737D01*
X210679179Y-95959394D01*
X210810289Y-95871789D01*
X210921789Y-95760289D01*
X211009394Y-95629179D01*
X211069737Y-95483497D01*
X211100500Y-95328842D01*
X211100500Y-95194168D01*
X211120185Y-95127129D01*
X211172989Y-95081374D01*
X211242147Y-95071430D01*
X211293392Y-95091067D01*
X211320812Y-95109389D01*
X211320827Y-95109397D01*
X211466498Y-95169735D01*
X211466503Y-95169737D01*
X211621153Y-95200499D01*
X211621156Y-95200500D01*
X211621158Y-95200500D01*
X211778844Y-95200500D01*
X211778845Y-95200499D01*
X211933497Y-95169737D01*
X212079179Y-95109394D01*
X212210289Y-95021789D01*
X212210925Y-95021153D01*
X220399500Y-95021153D01*
X220399500Y-95178846D01*
X220430261Y-95333489D01*
X220430264Y-95333501D01*
X220490602Y-95479172D01*
X220490609Y-95479185D01*
X220578210Y-95610288D01*
X220578213Y-95610292D01*
X220689707Y-95721786D01*
X220689711Y-95721789D01*
X220820814Y-95809390D01*
X220820827Y-95809397D01*
X220966498Y-95869735D01*
X220966503Y-95869737D01*
X221121153Y-95900499D01*
X221121156Y-95900500D01*
X221121158Y-95900500D01*
X221278844Y-95900500D01*
X221278845Y-95900499D01*
X221433497Y-95869737D01*
X221579179Y-95809394D01*
X221710289Y-95721789D01*
X221821789Y-95610289D01*
X221909394Y-95479179D01*
X221969737Y-95333497D01*
X222000500Y-95178842D01*
X222000500Y-95021158D01*
X222000500Y-95021155D01*
X222000499Y-95021153D01*
X221978447Y-94910292D01*
X221969737Y-94866503D01*
X221933569Y-94779185D01*
X221909397Y-94720827D01*
X221909390Y-94720814D01*
X221821789Y-94589711D01*
X221821786Y-94589707D01*
X221710292Y-94478213D01*
X221710288Y-94478210D01*
X221579185Y-94390609D01*
X221579172Y-94390602D01*
X221433501Y-94330264D01*
X221433489Y-94330261D01*
X221278845Y-94299500D01*
X221278842Y-94299500D01*
X221121158Y-94299500D01*
X221121155Y-94299500D01*
X220966510Y-94330261D01*
X220966498Y-94330264D01*
X220820827Y-94390602D01*
X220820814Y-94390609D01*
X220689711Y-94478210D01*
X220689707Y-94478213D01*
X220578213Y-94589707D01*
X220578210Y-94589711D01*
X220490609Y-94720814D01*
X220490602Y-94720827D01*
X220430264Y-94866498D01*
X220430261Y-94866510D01*
X220399500Y-95021153D01*
X212210925Y-95021153D01*
X212215580Y-95016498D01*
X212304694Y-94927385D01*
X212321786Y-94910292D01*
X212321789Y-94910289D01*
X212409394Y-94779179D01*
X212469737Y-94633497D01*
X212500500Y-94478842D01*
X212500500Y-94321158D01*
X212500500Y-94321155D01*
X212500499Y-94321153D01*
X212469738Y-94166510D01*
X212469737Y-94166503D01*
X212469735Y-94166498D01*
X212409397Y-94020827D01*
X212409390Y-94020814D01*
X212321789Y-93889711D01*
X212321786Y-93889707D01*
X212210292Y-93778213D01*
X212210288Y-93778210D01*
X212079185Y-93690609D01*
X212079172Y-93690602D01*
X211933501Y-93630264D01*
X211933489Y-93630261D01*
X211778845Y-93599500D01*
X211778842Y-93599500D01*
X211621158Y-93599500D01*
X211621155Y-93599500D01*
X211466510Y-93630261D01*
X211466498Y-93630264D01*
X211320827Y-93690602D01*
X211320814Y-93690609D01*
X211189711Y-93778210D01*
X211189707Y-93778213D01*
X211078213Y-93889707D01*
X211078210Y-93889711D01*
X210990609Y-94020814D01*
X210990602Y-94020827D01*
X210930264Y-94166498D01*
X210930261Y-94166510D01*
X210899500Y-94321153D01*
X210899500Y-94455831D01*
X210879815Y-94522870D01*
X210827011Y-94568625D01*
X210757853Y-94578569D01*
X210706610Y-94558934D01*
X210679183Y-94540608D01*
X210679172Y-94540602D01*
X210533501Y-94480264D01*
X210533489Y-94480261D01*
X210378845Y-94449500D01*
X210378842Y-94449500D01*
X210221158Y-94449500D01*
X210221155Y-94449500D01*
X210066510Y-94480261D01*
X210066498Y-94480264D01*
X209920827Y-94540602D01*
X209920814Y-94540609D01*
X209789711Y-94628210D01*
X209789707Y-94628213D01*
X209678213Y-94739707D01*
X209678210Y-94739711D01*
X209590609Y-94870814D01*
X209590602Y-94870827D01*
X209530264Y-95016498D01*
X209530261Y-95016510D01*
X209499500Y-95171153D01*
X167000500Y-95171153D01*
X167000500Y-93792683D01*
X167000500Y-93792682D01*
X166977147Y-93630261D01*
X166969955Y-93580235D01*
X166969952Y-93580225D01*
X166914244Y-93390500D01*
X166909484Y-93374290D01*
X166909483Y-93374288D01*
X166909482Y-93374284D01*
X166820329Y-93179067D01*
X166820319Y-93179047D01*
X166819680Y-93178053D01*
X166819568Y-93177673D01*
X166818202Y-93175171D01*
X166818746Y-93174873D01*
X166800000Y-93111020D01*
X166800000Y-92887500D01*
X166664739Y-92887500D01*
X166597700Y-92867815D01*
X166571025Y-92844702D01*
X166563723Y-92836275D01*
X166401514Y-92695720D01*
X166401513Y-92695719D01*
X166336991Y-92654253D01*
X166220951Y-92579679D01*
X166220938Y-92579672D01*
X166025715Y-92490517D01*
X165819774Y-92430047D01*
X165819764Y-92430044D01*
X165628754Y-92402582D01*
X165607318Y-92399500D01*
X165607317Y-92399500D01*
X161006962Y-92399500D01*
X160993078Y-92398720D01*
X160980553Y-92397308D01*
X160902735Y-92388540D01*
X160875666Y-92382362D01*
X160796462Y-92354648D01*
X160771444Y-92342600D01*
X160700395Y-92297957D01*
X160678686Y-92280644D01*
X160619355Y-92221313D01*
X160602042Y-92199604D01*
X160597485Y-92192352D01*
X160557398Y-92128553D01*
X160545352Y-92103538D01*
X160528725Y-92056021D01*
X160517637Y-92024331D01*
X160516912Y-92021153D01*
X217799500Y-92021153D01*
X217799500Y-92178846D01*
X217830261Y-92333489D01*
X217830264Y-92333501D01*
X217890602Y-92479172D01*
X217890609Y-92479185D01*
X217978210Y-92610288D01*
X217978213Y-92610292D01*
X218089707Y-92721786D01*
X218089711Y-92721789D01*
X218220814Y-92809390D01*
X218220827Y-92809397D01*
X218361863Y-92867815D01*
X218366503Y-92869737D01*
X218521153Y-92900499D01*
X218521156Y-92900500D01*
X218521158Y-92900500D01*
X218678844Y-92900500D01*
X218678845Y-92900499D01*
X218833497Y-92869737D01*
X218979179Y-92809394D01*
X219110289Y-92721789D01*
X219221789Y-92610289D01*
X219309394Y-92479179D01*
X219369737Y-92333497D01*
X219400500Y-92178842D01*
X219400500Y-92021158D01*
X219400500Y-92021155D01*
X219400499Y-92021153D01*
X219369738Y-91866510D01*
X219369737Y-91866503D01*
X219336171Y-91785466D01*
X219309397Y-91720827D01*
X219309390Y-91720814D01*
X219221789Y-91589711D01*
X219221786Y-91589707D01*
X219110292Y-91478213D01*
X219110288Y-91478210D01*
X218979185Y-91390609D01*
X218979172Y-91390602D01*
X218833501Y-91330264D01*
X218833489Y-91330261D01*
X218678845Y-91299500D01*
X218678842Y-91299500D01*
X218521158Y-91299500D01*
X218521155Y-91299500D01*
X218366510Y-91330261D01*
X218366498Y-91330264D01*
X218220827Y-91390602D01*
X218220814Y-91390609D01*
X218089711Y-91478210D01*
X218089707Y-91478213D01*
X217978213Y-91589707D01*
X217978210Y-91589711D01*
X217890609Y-91720814D01*
X217890602Y-91720827D01*
X217830264Y-91866498D01*
X217830261Y-91866510D01*
X217799500Y-92021153D01*
X160516912Y-92021153D01*
X160511459Y-91997263D01*
X160501280Y-91906922D01*
X160500500Y-91893038D01*
X160500500Y-89814234D01*
X165739500Y-89814234D01*
X165739500Y-89965765D01*
X165778719Y-90112136D01*
X165816602Y-90177750D01*
X165854485Y-90243365D01*
X165961635Y-90350515D01*
X166092865Y-90426281D01*
X166239234Y-90465500D01*
X166239236Y-90465500D01*
X166390764Y-90465500D01*
X166390766Y-90465500D01*
X166537135Y-90426281D01*
X166668365Y-90350515D01*
X166775515Y-90243365D01*
X166851281Y-90112135D01*
X166890500Y-89965766D01*
X166890500Y-89814234D01*
X166851281Y-89667865D01*
X166775515Y-89536635D01*
X166668365Y-89429485D01*
X166584640Y-89381146D01*
X166537136Y-89353719D01*
X166463950Y-89334109D01*
X166390766Y-89314500D01*
X166239234Y-89314500D01*
X166092863Y-89353719D01*
X165961635Y-89429485D01*
X165961632Y-89429487D01*
X165854487Y-89536632D01*
X165854485Y-89536635D01*
X165778719Y-89667863D01*
X165739500Y-89814234D01*
X160500500Y-89814234D01*
X160500500Y-85871153D01*
X165399500Y-85871153D01*
X165399500Y-86028846D01*
X165430261Y-86183489D01*
X165430264Y-86183501D01*
X165490602Y-86329172D01*
X165490609Y-86329185D01*
X165578210Y-86460288D01*
X165578213Y-86460292D01*
X165630240Y-86512319D01*
X165663725Y-86573642D01*
X165658741Y-86643334D01*
X165630240Y-86687681D01*
X165578213Y-86739707D01*
X165578210Y-86739711D01*
X165490609Y-86870814D01*
X165490602Y-86870827D01*
X165430264Y-87016498D01*
X165430261Y-87016510D01*
X165399500Y-87171153D01*
X165399500Y-87328846D01*
X165430261Y-87483489D01*
X165430264Y-87483501D01*
X165490602Y-87629172D01*
X165490609Y-87629185D01*
X165578210Y-87760288D01*
X165578213Y-87760292D01*
X165689707Y-87871786D01*
X165689711Y-87871789D01*
X165820814Y-87959390D01*
X165820827Y-87959397D01*
X165966498Y-88019735D01*
X165966503Y-88019737D01*
X166121153Y-88050499D01*
X166121156Y-88050500D01*
X166121158Y-88050500D01*
X166278844Y-88050500D01*
X166278845Y-88050499D01*
X166433497Y-88019737D01*
X166579179Y-87959394D01*
X166710289Y-87871789D01*
X166821789Y-87760289D01*
X166909394Y-87629179D01*
X166969737Y-87483497D01*
X166982138Y-87421153D01*
X193699500Y-87421153D01*
X193699500Y-87578846D01*
X193730261Y-87733489D01*
X193730264Y-87733501D01*
X193790602Y-87879172D01*
X193790609Y-87879185D01*
X193878210Y-88010288D01*
X193878213Y-88010292D01*
X193989707Y-88121786D01*
X193989711Y-88121789D01*
X194102118Y-88196898D01*
X194146923Y-88250510D01*
X194155630Y-88319835D01*
X194125475Y-88382863D01*
X194102118Y-88403102D01*
X193989711Y-88478210D01*
X193989707Y-88478213D01*
X193878213Y-88589707D01*
X193878210Y-88589711D01*
X193790609Y-88720814D01*
X193790602Y-88720827D01*
X193730264Y-88866498D01*
X193730261Y-88866510D01*
X193699500Y-89021153D01*
X193699500Y-89178846D01*
X193730261Y-89333489D01*
X193730264Y-89333501D01*
X193790602Y-89479172D01*
X193790609Y-89479185D01*
X193878210Y-89610288D01*
X193878213Y-89610292D01*
X193989707Y-89721786D01*
X193989711Y-89721789D01*
X194120814Y-89809390D01*
X194120827Y-89809397D01*
X194266498Y-89869735D01*
X194266503Y-89869737D01*
X194421153Y-89900499D01*
X194421156Y-89900500D01*
X194421158Y-89900500D01*
X194578844Y-89900500D01*
X194578845Y-89900499D01*
X194733497Y-89869737D01*
X194879179Y-89809394D01*
X195010289Y-89721789D01*
X195121789Y-89610289D01*
X195176836Y-89527906D01*
X195196898Y-89497881D01*
X195250510Y-89453076D01*
X195319835Y-89444369D01*
X195382863Y-89474523D01*
X195403102Y-89497881D01*
X195478210Y-89610288D01*
X195478213Y-89610292D01*
X195589707Y-89721786D01*
X195589711Y-89721789D01*
X195720814Y-89809390D01*
X195720827Y-89809397D01*
X195866498Y-89869735D01*
X195866503Y-89869737D01*
X196021153Y-89900499D01*
X196021156Y-89900500D01*
X196021158Y-89900500D01*
X196178844Y-89900500D01*
X196178845Y-89900499D01*
X196333497Y-89869737D01*
X196479179Y-89809394D01*
X196610289Y-89721789D01*
X196721789Y-89610289D01*
X196809394Y-89479179D01*
X196869737Y-89333497D01*
X196900500Y-89178842D01*
X196900500Y-89021158D01*
X196900500Y-89021155D01*
X196900499Y-89021153D01*
X196869738Y-88866510D01*
X196869737Y-88866503D01*
X196850000Y-88818853D01*
X196809397Y-88720827D01*
X196809390Y-88720814D01*
X196721789Y-88589711D01*
X196721786Y-88589707D01*
X196610292Y-88478213D01*
X196610288Y-88478210D01*
X196497881Y-88403102D01*
X196453076Y-88349490D01*
X196444369Y-88280165D01*
X196474523Y-88217137D01*
X196497881Y-88196898D01*
X196573725Y-88146220D01*
X196610289Y-88121789D01*
X196721789Y-88010289D01*
X196809394Y-87879179D01*
X196869737Y-87733497D01*
X196900500Y-87578842D01*
X196900500Y-87421158D01*
X196900500Y-87421155D01*
X196900499Y-87421153D01*
X200599500Y-87421153D01*
X200599500Y-87578846D01*
X200630261Y-87733489D01*
X200630264Y-87733501D01*
X200690602Y-87879172D01*
X200690609Y-87879185D01*
X200778210Y-88010288D01*
X200778213Y-88010292D01*
X200889707Y-88121786D01*
X200889711Y-88121789D01*
X201002118Y-88196898D01*
X201046923Y-88250510D01*
X201055630Y-88319835D01*
X201025475Y-88382863D01*
X201002118Y-88403102D01*
X200889711Y-88478210D01*
X200889707Y-88478213D01*
X200778213Y-88589707D01*
X200778210Y-88589711D01*
X200690609Y-88720814D01*
X200690602Y-88720827D01*
X200630264Y-88866498D01*
X200630261Y-88866510D01*
X200599500Y-89021153D01*
X200599500Y-89178846D01*
X200630261Y-89333489D01*
X200630264Y-89333501D01*
X200690602Y-89479172D01*
X200690609Y-89479185D01*
X200778210Y-89610288D01*
X200778213Y-89610292D01*
X200889707Y-89721786D01*
X200889711Y-89721789D01*
X201020814Y-89809390D01*
X201020827Y-89809397D01*
X201166498Y-89869735D01*
X201166503Y-89869737D01*
X201321153Y-89900499D01*
X201321156Y-89900500D01*
X201321158Y-89900500D01*
X201478844Y-89900500D01*
X201478845Y-89900499D01*
X201633497Y-89869737D01*
X201779179Y-89809394D01*
X201910289Y-89721789D01*
X202021789Y-89610289D01*
X202029145Y-89599279D01*
X202046898Y-89572712D01*
X202100510Y-89527906D01*
X202169835Y-89519199D01*
X202232862Y-89549353D01*
X202253102Y-89572712D01*
X202278207Y-89610284D01*
X202278213Y-89610292D01*
X202389707Y-89721786D01*
X202389711Y-89721789D01*
X202520814Y-89809390D01*
X202520827Y-89809397D01*
X202666498Y-89869735D01*
X202666503Y-89869737D01*
X202821153Y-89900499D01*
X202821156Y-89900500D01*
X202821158Y-89900500D01*
X202978844Y-89900500D01*
X202978845Y-89900499D01*
X203133497Y-89869737D01*
X203279179Y-89809394D01*
X203410289Y-89721789D01*
X203521789Y-89610289D01*
X203609394Y-89479179D01*
X203669737Y-89333497D01*
X203700500Y-89178842D01*
X203700500Y-89021158D01*
X203700500Y-89021155D01*
X203700499Y-89021153D01*
X203669738Y-88866510D01*
X203669737Y-88866503D01*
X203650000Y-88818853D01*
X203609397Y-88720827D01*
X203609390Y-88720814D01*
X203521789Y-88589711D01*
X203521786Y-88589707D01*
X203410292Y-88478213D01*
X203410288Y-88478210D01*
X203297881Y-88403102D01*
X203253076Y-88349490D01*
X203244369Y-88280165D01*
X203274523Y-88217137D01*
X203297881Y-88196898D01*
X203373725Y-88146220D01*
X203410289Y-88121789D01*
X203521789Y-88010289D01*
X203609394Y-87879179D01*
X203669737Y-87733497D01*
X203700500Y-87578842D01*
X203700500Y-87421158D01*
X203700500Y-87421155D01*
X203700499Y-87421153D01*
X203669738Y-87266510D01*
X203669737Y-87266503D01*
X203630242Y-87171153D01*
X203609397Y-87120827D01*
X203609390Y-87120814D01*
X203521789Y-86989711D01*
X203521786Y-86989707D01*
X203439727Y-86907648D01*
X221149500Y-86907648D01*
X221149500Y-87112351D01*
X221181522Y-87314534D01*
X221244781Y-87509223D01*
X221337715Y-87691613D01*
X221458028Y-87857213D01*
X221602786Y-88001971D01*
X221705463Y-88076569D01*
X221748129Y-88131898D01*
X221754108Y-88201512D01*
X221721503Y-88263307D01*
X221660664Y-88297664D01*
X221645833Y-88300177D01*
X221592516Y-88305909D01*
X221457671Y-88356202D01*
X221457664Y-88356206D01*
X221342455Y-88442452D01*
X221342452Y-88442455D01*
X221256206Y-88557664D01*
X221256202Y-88557671D01*
X221205908Y-88692517D01*
X221199501Y-88752116D01*
X221199501Y-88752123D01*
X221199500Y-88752135D01*
X221199500Y-90347870D01*
X221199501Y-90347876D01*
X221205908Y-90407483D01*
X221256202Y-90542328D01*
X221256206Y-90542335D01*
X221342452Y-90657544D01*
X221342455Y-90657547D01*
X221457664Y-90743793D01*
X221457671Y-90743797D01*
X221502618Y-90760561D01*
X221592517Y-90794091D01*
X221645835Y-90799823D01*
X221710384Y-90826560D01*
X221750232Y-90883952D01*
X221752726Y-90953777D01*
X221717074Y-91013867D01*
X221705463Y-91023430D01*
X221602787Y-91098028D01*
X221602782Y-91098032D01*
X221458028Y-91242786D01*
X221337715Y-91408386D01*
X221244781Y-91590776D01*
X221181522Y-91785465D01*
X221149500Y-91987648D01*
X221149500Y-92192351D01*
X221181522Y-92394534D01*
X221244781Y-92589223D01*
X221337715Y-92771613D01*
X221458028Y-92937213D01*
X221602786Y-93081971D01*
X221736430Y-93179067D01*
X221768390Y-93202287D01*
X221884607Y-93261503D01*
X221950776Y-93295218D01*
X221950778Y-93295218D01*
X221950781Y-93295220D01*
X222055137Y-93329127D01*
X222145465Y-93358477D01*
X222245266Y-93374284D01*
X222347648Y-93390500D01*
X222347649Y-93390500D01*
X222552351Y-93390500D01*
X222552352Y-93390500D01*
X222754534Y-93358477D01*
X222949219Y-93295220D01*
X223131610Y-93202287D01*
X223224590Y-93134732D01*
X223297213Y-93081971D01*
X223297215Y-93081968D01*
X223297219Y-93081966D01*
X223441966Y-92937219D01*
X223441968Y-92937215D01*
X223441971Y-92937213D01*
X223515305Y-92836276D01*
X223562287Y-92771610D01*
X223655220Y-92589219D01*
X223718477Y-92394534D01*
X223750500Y-92192352D01*
X223750500Y-91987648D01*
X223731312Y-91866503D01*
X223718477Y-91785465D01*
X223655218Y-91590776D01*
X223621503Y-91524607D01*
X223562287Y-91408390D01*
X223554556Y-91397749D01*
X223441971Y-91242786D01*
X223297217Y-91098032D01*
X223297212Y-91098028D01*
X223194536Y-91023430D01*
X223151870Y-90968101D01*
X223145891Y-90898487D01*
X223178496Y-90836692D01*
X223239335Y-90802335D01*
X223254164Y-90799822D01*
X223307483Y-90794091D01*
X223442331Y-90743796D01*
X223557546Y-90657546D01*
X223643796Y-90542331D01*
X223694091Y-90407483D01*
X223700500Y-90347873D01*
X223700499Y-88752128D01*
X223694091Y-88692517D01*
X223686473Y-88672093D01*
X223643797Y-88557671D01*
X223643793Y-88557664D01*
X223557547Y-88442455D01*
X223557544Y-88442452D01*
X223442335Y-88356206D01*
X223442328Y-88356202D01*
X223307482Y-88305908D01*
X223307483Y-88305908D01*
X223254165Y-88300176D01*
X223189614Y-88273438D01*
X223149766Y-88216045D01*
X223147273Y-88146220D01*
X223182926Y-88086131D01*
X223194537Y-88076568D01*
X223230419Y-88050499D01*
X223297219Y-88001966D01*
X223441966Y-87857219D01*
X223441968Y-87857215D01*
X223441971Y-87857213D01*
X223512390Y-87760288D01*
X223562287Y-87691610D01*
X223655220Y-87509219D01*
X223718477Y-87314534D01*
X223750500Y-87112352D01*
X223750500Y-86907648D01*
X223731962Y-86790606D01*
X223718477Y-86705465D01*
X223670129Y-86556666D01*
X223655220Y-86510781D01*
X223655218Y-86510778D01*
X223655218Y-86510776D01*
X223621503Y-86444607D01*
X223562287Y-86328390D01*
X223554556Y-86317749D01*
X223441971Y-86162786D01*
X223297213Y-86018028D01*
X223131613Y-85897715D01*
X223131612Y-85897714D01*
X223131610Y-85897713D01*
X223074653Y-85868691D01*
X222949223Y-85804781D01*
X222754534Y-85741522D01*
X222579995Y-85713878D01*
X222552352Y-85709500D01*
X222347648Y-85709500D01*
X222323329Y-85713351D01*
X222145465Y-85741522D01*
X221950776Y-85804781D01*
X221768386Y-85897715D01*
X221602786Y-86018028D01*
X221458028Y-86162786D01*
X221337715Y-86328386D01*
X221244781Y-86510776D01*
X221181522Y-86705465D01*
X221149500Y-86907648D01*
X203439727Y-86907648D01*
X203410292Y-86878213D01*
X203410288Y-86878210D01*
X203279185Y-86790609D01*
X203279172Y-86790602D01*
X203133501Y-86730264D01*
X203133489Y-86730261D01*
X202978845Y-86699500D01*
X202978842Y-86699500D01*
X202821158Y-86699500D01*
X202821155Y-86699500D01*
X202666510Y-86730261D01*
X202666498Y-86730264D01*
X202520827Y-86790602D01*
X202520814Y-86790609D01*
X202389711Y-86878210D01*
X202389707Y-86878213D01*
X202278213Y-86989707D01*
X202253102Y-87027289D01*
X202199489Y-87072093D01*
X202130164Y-87080800D01*
X202067137Y-87050645D01*
X202046898Y-87027289D01*
X202021786Y-86989707D01*
X201910292Y-86878213D01*
X201910288Y-86878210D01*
X201779185Y-86790609D01*
X201779172Y-86790602D01*
X201633501Y-86730264D01*
X201633489Y-86730261D01*
X201478845Y-86699500D01*
X201478842Y-86699500D01*
X201321158Y-86699500D01*
X201321155Y-86699500D01*
X201166510Y-86730261D01*
X201166498Y-86730264D01*
X201020827Y-86790602D01*
X201020814Y-86790609D01*
X200889711Y-86878210D01*
X200889707Y-86878213D01*
X200778213Y-86989707D01*
X200778210Y-86989711D01*
X200690609Y-87120814D01*
X200690602Y-87120827D01*
X200630264Y-87266498D01*
X200630261Y-87266510D01*
X200599500Y-87421153D01*
X196900499Y-87421153D01*
X196869738Y-87266510D01*
X196869737Y-87266503D01*
X196830242Y-87171153D01*
X196809397Y-87120827D01*
X196809390Y-87120814D01*
X196721789Y-86989711D01*
X196721786Y-86989707D01*
X196610292Y-86878213D01*
X196610288Y-86878210D01*
X196479185Y-86790609D01*
X196479172Y-86790602D01*
X196333501Y-86730264D01*
X196333489Y-86730261D01*
X196178845Y-86699500D01*
X196178842Y-86699500D01*
X196021158Y-86699500D01*
X196021155Y-86699500D01*
X195866510Y-86730261D01*
X195866498Y-86730264D01*
X195720827Y-86790602D01*
X195720814Y-86790609D01*
X195589711Y-86878210D01*
X195589707Y-86878213D01*
X195478213Y-86989707D01*
X195478210Y-86989711D01*
X195403102Y-87102118D01*
X195349490Y-87146923D01*
X195280165Y-87155630D01*
X195217137Y-87125475D01*
X195196898Y-87102118D01*
X195121789Y-86989711D01*
X195121786Y-86989707D01*
X195010292Y-86878213D01*
X195010288Y-86878210D01*
X194879185Y-86790609D01*
X194879172Y-86790602D01*
X194733501Y-86730264D01*
X194733489Y-86730261D01*
X194578845Y-86699500D01*
X194578842Y-86699500D01*
X194421158Y-86699500D01*
X194421155Y-86699500D01*
X194266510Y-86730261D01*
X194266498Y-86730264D01*
X194120827Y-86790602D01*
X194120814Y-86790609D01*
X193989711Y-86878210D01*
X193989707Y-86878213D01*
X193878213Y-86989707D01*
X193878210Y-86989711D01*
X193790609Y-87120814D01*
X193790602Y-87120827D01*
X193730264Y-87266498D01*
X193730261Y-87266510D01*
X193699500Y-87421153D01*
X166982138Y-87421153D01*
X166988161Y-87390874D01*
X167000500Y-87328844D01*
X167000500Y-87171155D01*
X167000499Y-87171153D01*
X166986767Y-87102118D01*
X166969737Y-87016503D01*
X166969735Y-87016498D01*
X166909397Y-86870827D01*
X166909390Y-86870814D01*
X166821789Y-86739711D01*
X166821786Y-86739707D01*
X166769760Y-86687681D01*
X166736275Y-86626358D01*
X166741259Y-86556666D01*
X166769760Y-86512319D01*
X166821786Y-86460292D01*
X166821789Y-86460289D01*
X166909394Y-86329179D01*
X166909723Y-86328386D01*
X166969735Y-86183501D01*
X166969737Y-86183497D01*
X167000500Y-86028842D01*
X167000500Y-85871158D01*
X167000500Y-85871155D01*
X167000499Y-85871153D01*
X166987297Y-85804781D01*
X166969737Y-85716503D01*
X166966836Y-85709500D01*
X166909397Y-85570827D01*
X166909390Y-85570814D01*
X166821789Y-85439711D01*
X166821786Y-85439707D01*
X166710292Y-85328213D01*
X166710288Y-85328210D01*
X166579185Y-85240609D01*
X166579172Y-85240602D01*
X166433501Y-85180264D01*
X166433489Y-85180261D01*
X166278845Y-85149500D01*
X166278842Y-85149500D01*
X166121158Y-85149500D01*
X166121155Y-85149500D01*
X165966510Y-85180261D01*
X165966498Y-85180264D01*
X165820827Y-85240602D01*
X165820814Y-85240609D01*
X165689711Y-85328210D01*
X165689707Y-85328213D01*
X165578213Y-85439707D01*
X165578210Y-85439711D01*
X165490609Y-85570814D01*
X165490602Y-85570827D01*
X165430264Y-85716498D01*
X165430261Y-85716510D01*
X165399500Y-85871153D01*
X160500500Y-85871153D01*
X160500500Y-84034234D01*
X165739500Y-84034234D01*
X165739500Y-84185765D01*
X165778719Y-84332136D01*
X165816602Y-84397750D01*
X165854485Y-84463365D01*
X165961635Y-84570515D01*
X166092865Y-84646281D01*
X166239234Y-84685500D01*
X166239236Y-84685500D01*
X166390764Y-84685500D01*
X166390766Y-84685500D01*
X166537135Y-84646281D01*
X166668365Y-84570515D01*
X166775515Y-84463365D01*
X166851281Y-84332135D01*
X166890500Y-84185766D01*
X166890500Y-84034234D01*
X166851281Y-83887865D01*
X166775515Y-83756635D01*
X166668365Y-83649485D01*
X166583519Y-83600499D01*
X166537136Y-83573719D01*
X166425463Y-83543797D01*
X166390766Y-83534500D01*
X166239234Y-83534500D01*
X166092863Y-83573719D01*
X165961635Y-83649485D01*
X165961632Y-83649487D01*
X165854487Y-83756632D01*
X165854485Y-83756635D01*
X165778719Y-83887863D01*
X165739500Y-84034234D01*
X160500500Y-84034234D01*
X160500500Y-81421153D01*
X187499500Y-81421153D01*
X187499500Y-81578846D01*
X187530261Y-81733489D01*
X187530264Y-81733501D01*
X187590602Y-81879172D01*
X187590609Y-81879185D01*
X187678210Y-82010288D01*
X187678213Y-82010292D01*
X187789707Y-82121786D01*
X187789711Y-82121789D01*
X187920814Y-82209390D01*
X187920827Y-82209397D01*
X188018853Y-82250000D01*
X188066503Y-82269737D01*
X188221153Y-82300499D01*
X188221156Y-82300500D01*
X188221158Y-82300500D01*
X188378844Y-82300500D01*
X188378845Y-82300499D01*
X188533497Y-82269737D01*
X188679179Y-82209394D01*
X188777418Y-82143753D01*
X193820000Y-82143753D01*
X193820000Y-82356246D01*
X193853242Y-82566127D01*
X193853242Y-82566130D01*
X193918904Y-82768217D01*
X194015375Y-82957550D01*
X194054728Y-83011716D01*
X194687037Y-82379408D01*
X194704075Y-82442993D01*
X194769901Y-82557007D01*
X194862993Y-82650099D01*
X194977007Y-82715925D01*
X195040590Y-82732962D01*
X194408282Y-83365269D01*
X194408282Y-83365270D01*
X194462449Y-83404624D01*
X194651782Y-83501095D01*
X194853870Y-83566757D01*
X195063754Y-83600000D01*
X195276246Y-83600000D01*
X195486127Y-83566757D01*
X195486130Y-83566757D01*
X195688217Y-83501095D01*
X195877554Y-83404622D01*
X195931716Y-83365270D01*
X195931717Y-83365270D01*
X195299408Y-82732962D01*
X195362993Y-82715925D01*
X195477007Y-82650099D01*
X195570099Y-82557007D01*
X195635925Y-82442993D01*
X195652962Y-82379408D01*
X196285270Y-83011717D01*
X196285270Y-83011716D01*
X196324622Y-82957555D01*
X196329232Y-82948507D01*
X196377205Y-82897709D01*
X196445025Y-82880912D01*
X196511161Y-82903447D01*
X196550204Y-82948504D01*
X196554949Y-82957817D01*
X196679890Y-83129786D01*
X196830213Y-83280109D01*
X197002179Y-83405048D01*
X197002181Y-83405049D01*
X197002184Y-83405051D01*
X197191588Y-83501557D01*
X197393757Y-83567246D01*
X197603713Y-83600500D01*
X197603714Y-83600500D01*
X197816286Y-83600500D01*
X197816287Y-83600500D01*
X198026243Y-83567246D01*
X198228412Y-83501557D01*
X198417816Y-83405051D01*
X198504138Y-83342335D01*
X198589786Y-83280109D01*
X198589788Y-83280106D01*
X198589792Y-83280104D01*
X198740104Y-83129792D01*
X198740106Y-83129788D01*
X198740109Y-83129786D01*
X198865048Y-82957820D01*
X198865050Y-82957817D01*
X198865051Y-82957816D01*
X198869514Y-82949054D01*
X198917488Y-82898259D01*
X198985308Y-82881463D01*
X199051444Y-82903999D01*
X199090486Y-82949056D01*
X199094951Y-82957820D01*
X199219890Y-83129786D01*
X199370213Y-83280109D01*
X199542179Y-83405048D01*
X199542181Y-83405049D01*
X199542184Y-83405051D01*
X199731588Y-83501557D01*
X199933757Y-83567246D01*
X200143713Y-83600500D01*
X200143714Y-83600500D01*
X200356286Y-83600500D01*
X200356287Y-83600500D01*
X200566243Y-83567246D01*
X200768412Y-83501557D01*
X200957816Y-83405051D01*
X201129792Y-83280104D01*
X201243329Y-83166566D01*
X201304648Y-83133084D01*
X201374340Y-83138068D01*
X201430274Y-83179939D01*
X201447189Y-83210917D01*
X201496202Y-83342328D01*
X201496206Y-83342335D01*
X201582452Y-83457544D01*
X201582455Y-83457547D01*
X201697664Y-83543793D01*
X201697671Y-83543797D01*
X201832517Y-83594091D01*
X201832516Y-83594091D01*
X201839444Y-83594835D01*
X201892127Y-83600500D01*
X203687872Y-83600499D01*
X203747483Y-83594091D01*
X203882331Y-83543796D01*
X203997546Y-83457546D01*
X204083796Y-83342331D01*
X204134091Y-83207483D01*
X204140500Y-83147873D01*
X204140499Y-81352128D01*
X204134091Y-81292517D01*
X204132810Y-81289083D01*
X204083797Y-81157671D01*
X204083793Y-81157664D01*
X203997547Y-81042455D01*
X203997544Y-81042452D01*
X203882335Y-80956206D01*
X203882328Y-80956202D01*
X203747482Y-80905908D01*
X203747483Y-80905908D01*
X203687883Y-80899501D01*
X203687881Y-80899500D01*
X203687873Y-80899500D01*
X203687864Y-80899500D01*
X201892129Y-80899500D01*
X201892123Y-80899501D01*
X201832516Y-80905908D01*
X201697671Y-80956202D01*
X201697664Y-80956206D01*
X201582455Y-81042452D01*
X201582452Y-81042455D01*
X201496206Y-81157664D01*
X201496203Y-81157669D01*
X201447189Y-81289083D01*
X201405317Y-81345016D01*
X201339853Y-81369433D01*
X201271580Y-81354581D01*
X201243326Y-81333430D01*
X201129786Y-81219890D01*
X200957820Y-81094951D01*
X200768414Y-80998444D01*
X200768413Y-80998443D01*
X200768412Y-80998443D01*
X200566243Y-80932754D01*
X200566241Y-80932753D01*
X200566240Y-80932753D01*
X200404957Y-80907208D01*
X200356287Y-80899500D01*
X200143713Y-80899500D01*
X200095042Y-80907208D01*
X199933760Y-80932753D01*
X199731585Y-80998444D01*
X199542179Y-81094951D01*
X199370213Y-81219890D01*
X199219890Y-81370213D01*
X199094949Y-81542182D01*
X199090484Y-81550946D01*
X199042509Y-81601742D01*
X198974688Y-81618536D01*
X198908553Y-81595998D01*
X198869516Y-81550946D01*
X198865050Y-81542182D01*
X198740109Y-81370213D01*
X198589786Y-81219890D01*
X198417820Y-81094951D01*
X198228414Y-80998444D01*
X198228413Y-80998443D01*
X198228412Y-80998443D01*
X198026243Y-80932754D01*
X198026241Y-80932753D01*
X198026240Y-80932753D01*
X197864957Y-80907208D01*
X197816287Y-80899500D01*
X197603713Y-80899500D01*
X197555042Y-80907208D01*
X197393760Y-80932753D01*
X197191585Y-80998444D01*
X197002179Y-81094951D01*
X196830213Y-81219890D01*
X196679890Y-81370213D01*
X196554949Y-81542182D01*
X196550202Y-81551499D01*
X196502227Y-81602293D01*
X196434405Y-81619087D01*
X196368271Y-81596548D01*
X196329234Y-81551495D01*
X196324626Y-81542452D01*
X196285270Y-81488282D01*
X196285269Y-81488282D01*
X195652962Y-82120590D01*
X195635925Y-82057007D01*
X195570099Y-81942993D01*
X195477007Y-81849901D01*
X195362993Y-81784075D01*
X195299409Y-81767037D01*
X195931716Y-81134728D01*
X195877550Y-81095375D01*
X195688217Y-80998904D01*
X195486129Y-80933242D01*
X195276246Y-80900000D01*
X195063754Y-80900000D01*
X194853872Y-80933242D01*
X194853869Y-80933242D01*
X194651782Y-80998904D01*
X194462439Y-81095380D01*
X194408282Y-81134727D01*
X194408282Y-81134728D01*
X195040591Y-81767037D01*
X194977007Y-81784075D01*
X194862993Y-81849901D01*
X194769901Y-81942993D01*
X194704075Y-82057007D01*
X194687037Y-82120591D01*
X194054728Y-81488282D01*
X194054727Y-81488282D01*
X194015380Y-81542439D01*
X193918904Y-81731782D01*
X193853242Y-81933869D01*
X193853242Y-81933872D01*
X193820000Y-82143753D01*
X188777418Y-82143753D01*
X188810289Y-82121789D01*
X188810292Y-82121786D01*
X188880879Y-82051200D01*
X188921786Y-82010292D01*
X188921789Y-82010289D01*
X189009394Y-81879179D01*
X189069737Y-81733497D01*
X189100500Y-81578842D01*
X189100500Y-81421158D01*
X189100500Y-81421155D01*
X189100499Y-81421153D01*
X189085354Y-81345016D01*
X189069737Y-81266503D01*
X189050432Y-81219896D01*
X189009397Y-81120827D01*
X189009390Y-81120814D01*
X188921789Y-80989711D01*
X188921786Y-80989707D01*
X188810292Y-80878213D01*
X188810288Y-80878210D01*
X188679185Y-80790609D01*
X188679172Y-80790602D01*
X188533501Y-80730264D01*
X188533489Y-80730261D01*
X188378845Y-80699500D01*
X188378842Y-80699500D01*
X188221158Y-80699500D01*
X188221155Y-80699500D01*
X188066510Y-80730261D01*
X188066498Y-80730264D01*
X187920827Y-80790602D01*
X187920814Y-80790609D01*
X187789711Y-80878210D01*
X187789707Y-80878213D01*
X187678213Y-80989707D01*
X187678210Y-80989711D01*
X187590609Y-81120814D01*
X187590602Y-81120827D01*
X187530264Y-81266498D01*
X187530261Y-81266510D01*
X187499500Y-81421153D01*
X160500500Y-81421153D01*
X160500500Y-73821153D01*
X210299500Y-73821153D01*
X210299500Y-73978846D01*
X210330261Y-74133489D01*
X210330264Y-74133501D01*
X210390602Y-74279172D01*
X210390609Y-74279185D01*
X210425304Y-74331109D01*
X210446182Y-74397786D01*
X210427698Y-74465167D01*
X210425304Y-74468891D01*
X210390609Y-74520814D01*
X210390602Y-74520827D01*
X210330264Y-74666498D01*
X210330261Y-74666510D01*
X210299500Y-74821153D01*
X210299500Y-74978846D01*
X210330261Y-75133489D01*
X210330264Y-75133501D01*
X210390602Y-75279172D01*
X210390609Y-75279185D01*
X210425304Y-75331109D01*
X210446182Y-75397786D01*
X210427698Y-75465167D01*
X210425304Y-75468891D01*
X210390609Y-75520814D01*
X210390602Y-75520827D01*
X210330264Y-75666498D01*
X210330261Y-75666510D01*
X210299500Y-75821153D01*
X210299500Y-75978846D01*
X210330261Y-76133489D01*
X210330264Y-76133501D01*
X210390602Y-76279172D01*
X210390609Y-76279185D01*
X210425304Y-76331109D01*
X210446182Y-76397786D01*
X210427698Y-76465167D01*
X210425304Y-76468891D01*
X210390609Y-76520814D01*
X210390602Y-76520827D01*
X210330264Y-76666498D01*
X210330261Y-76666510D01*
X210299500Y-76821153D01*
X210299500Y-76978846D01*
X210330261Y-77133489D01*
X210330264Y-77133501D01*
X210390602Y-77279172D01*
X210390609Y-77279185D01*
X210425304Y-77331109D01*
X210446182Y-77397786D01*
X210427698Y-77465167D01*
X210425304Y-77468891D01*
X210390609Y-77520814D01*
X210390602Y-77520827D01*
X210330264Y-77666498D01*
X210330261Y-77666510D01*
X210299500Y-77821153D01*
X210299500Y-77978846D01*
X210330261Y-78133489D01*
X210330264Y-78133501D01*
X210390602Y-78279172D01*
X210390609Y-78279185D01*
X210425304Y-78331109D01*
X210446182Y-78397786D01*
X210427698Y-78465167D01*
X210425304Y-78468891D01*
X210390609Y-78520814D01*
X210390602Y-78520827D01*
X210330264Y-78666498D01*
X210330261Y-78666510D01*
X210299500Y-78821153D01*
X210299500Y-78978846D01*
X210330261Y-79133489D01*
X210330264Y-79133501D01*
X210390602Y-79279172D01*
X210390609Y-79279185D01*
X210478210Y-79410288D01*
X210478213Y-79410292D01*
X210589707Y-79521786D01*
X210589711Y-79521789D01*
X210720814Y-79609390D01*
X210720827Y-79609397D01*
X210866498Y-79669735D01*
X210866503Y-79669737D01*
X211021153Y-79700499D01*
X211021156Y-79700500D01*
X211021158Y-79700500D01*
X211178844Y-79700500D01*
X211178845Y-79700499D01*
X211333497Y-79669737D01*
X211479179Y-79609394D01*
X211531110Y-79574694D01*
X211597785Y-79553816D01*
X211665165Y-79572300D01*
X211668863Y-79574676D01*
X211720821Y-79609394D01*
X211720823Y-79609395D01*
X211720825Y-79609396D01*
X211866498Y-79669735D01*
X211866503Y-79669737D01*
X212021153Y-79700499D01*
X212021156Y-79700500D01*
X212021158Y-79700500D01*
X212178844Y-79700500D01*
X212178845Y-79700499D01*
X212333497Y-79669737D01*
X212479179Y-79609394D01*
X212531110Y-79574694D01*
X212597785Y-79553816D01*
X212665165Y-79572300D01*
X212668863Y-79574676D01*
X212720821Y-79609394D01*
X212720823Y-79609395D01*
X212720825Y-79609396D01*
X212866498Y-79669735D01*
X212866503Y-79669737D01*
X213021153Y-79700499D01*
X213021156Y-79700500D01*
X213021158Y-79700500D01*
X213178844Y-79700500D01*
X213178845Y-79700499D01*
X213333497Y-79669737D01*
X213479179Y-79609394D01*
X213610289Y-79521789D01*
X213721789Y-79410289D01*
X213809394Y-79279179D01*
X213869737Y-79133497D01*
X213900500Y-78978842D01*
X213900500Y-78821158D01*
X213900500Y-78821155D01*
X213900499Y-78821153D01*
X213869738Y-78666510D01*
X213869737Y-78666503D01*
X213848522Y-78615285D01*
X213809396Y-78520825D01*
X213809394Y-78520822D01*
X213809394Y-78520821D01*
X213774694Y-78468889D01*
X213768720Y-78449813D01*
X213758214Y-78432804D01*
X213758493Y-78417152D01*
X213753816Y-78402215D01*
X213759104Y-78382935D01*
X213759462Y-78362945D01*
X213771477Y-78337831D01*
X213772300Y-78334835D01*
X213774676Y-78331136D01*
X213800636Y-78292285D01*
X213854249Y-78247481D01*
X213923574Y-78238775D01*
X213984858Y-78268097D01*
X213985001Y-78267924D01*
X213985706Y-78268503D01*
X213986601Y-78268931D01*
X213989006Y-78271211D01*
X213989711Y-78271789D01*
X214120814Y-78359390D01*
X214120827Y-78359397D01*
X214260262Y-78417152D01*
X214266503Y-78419737D01*
X214417704Y-78449813D01*
X214421153Y-78450499D01*
X214421156Y-78450500D01*
X214421158Y-78450500D01*
X214578844Y-78450500D01*
X214578845Y-78450499D01*
X214733497Y-78419737D01*
X214879179Y-78359394D01*
X215010289Y-78271789D01*
X215121789Y-78160289D01*
X215209394Y-78029179D01*
X215269737Y-77883497D01*
X215300500Y-77728842D01*
X215300500Y-77571158D01*
X215300500Y-77571155D01*
X215300499Y-77571153D01*
X216949500Y-77571153D01*
X216949500Y-77728846D01*
X216980261Y-77883489D01*
X216980264Y-77883501D01*
X217040602Y-78029172D01*
X217040609Y-78029185D01*
X217128210Y-78160288D01*
X217128213Y-78160292D01*
X217239707Y-78271786D01*
X217239711Y-78271789D01*
X217370814Y-78359390D01*
X217370827Y-78359397D01*
X217510262Y-78417152D01*
X217516503Y-78419737D01*
X217667704Y-78449813D01*
X217671153Y-78450499D01*
X217671156Y-78450500D01*
X217671158Y-78450500D01*
X217828844Y-78450500D01*
X217828845Y-78450499D01*
X217983497Y-78419737D01*
X218129179Y-78359394D01*
X218260289Y-78271789D01*
X218371789Y-78160289D01*
X218459394Y-78029179D01*
X218519737Y-77883497D01*
X218550500Y-77728842D01*
X218550500Y-77571158D01*
X218550500Y-77571155D01*
X218550499Y-77571153D01*
X218540486Y-77520814D01*
X218519737Y-77416503D01*
X218484366Y-77331109D01*
X218459397Y-77270827D01*
X218459390Y-77270814D01*
X218371789Y-77139711D01*
X218371786Y-77139707D01*
X218260292Y-77028213D01*
X218260288Y-77028210D01*
X218129185Y-76940609D01*
X218129172Y-76940602D01*
X217983501Y-76880264D01*
X217983489Y-76880261D01*
X217828845Y-76849500D01*
X217828842Y-76849500D01*
X217671158Y-76849500D01*
X217671155Y-76849500D01*
X217516510Y-76880261D01*
X217516498Y-76880264D01*
X217370827Y-76940602D01*
X217370814Y-76940609D01*
X217239711Y-77028210D01*
X217239707Y-77028213D01*
X217128213Y-77139707D01*
X217128210Y-77139711D01*
X217040609Y-77270814D01*
X217040602Y-77270827D01*
X216980264Y-77416498D01*
X216980261Y-77416510D01*
X216949500Y-77571153D01*
X215300499Y-77571153D01*
X215290486Y-77520814D01*
X215269737Y-77416503D01*
X215234366Y-77331109D01*
X215209397Y-77270827D01*
X215209390Y-77270814D01*
X215121789Y-77139711D01*
X215121786Y-77139707D01*
X215010292Y-77028213D01*
X215010288Y-77028210D01*
X214879185Y-76940609D01*
X214879172Y-76940602D01*
X214733501Y-76880264D01*
X214733489Y-76880261D01*
X214578845Y-76849500D01*
X214578842Y-76849500D01*
X214421158Y-76849500D01*
X214421155Y-76849500D01*
X214266510Y-76880261D01*
X214266498Y-76880264D01*
X214120827Y-76940602D01*
X214120816Y-76940608D01*
X214093390Y-76958934D01*
X214026712Y-76979811D01*
X213959332Y-76961326D01*
X213912643Y-76909346D01*
X213900500Y-76855831D01*
X213900500Y-76821155D01*
X213900499Y-76821153D01*
X213869738Y-76666510D01*
X213869737Y-76666503D01*
X213869735Y-76666498D01*
X213809396Y-76520825D01*
X213809394Y-76520822D01*
X213809394Y-76520821D01*
X213774694Y-76468889D01*
X213753816Y-76402215D01*
X213772300Y-76334835D01*
X213774676Y-76331136D01*
X213809394Y-76279179D01*
X213869737Y-76133497D01*
X213900500Y-75978842D01*
X213900500Y-75821158D01*
X213900500Y-75821155D01*
X213900499Y-75821153D01*
X213888652Y-75761593D01*
X213869737Y-75666503D01*
X213829344Y-75568985D01*
X213809396Y-75520825D01*
X213809394Y-75520822D01*
X213809394Y-75520821D01*
X213774694Y-75468889D01*
X213753816Y-75402215D01*
X213772300Y-75334835D01*
X213774676Y-75331136D01*
X213809394Y-75279179D01*
X213869737Y-75133497D01*
X213900500Y-74978842D01*
X213900500Y-74821158D01*
X213900500Y-74821155D01*
X213900499Y-74821153D01*
X213896291Y-74800000D01*
X213869737Y-74666503D01*
X213869735Y-74666498D01*
X213809396Y-74520825D01*
X213809394Y-74520822D01*
X213809394Y-74520821D01*
X213774694Y-74468889D01*
X213753816Y-74402215D01*
X213772300Y-74334835D01*
X213774676Y-74331136D01*
X213809394Y-74279179D01*
X213869737Y-74133497D01*
X213900500Y-73978842D01*
X213900500Y-73821158D01*
X213900500Y-73821155D01*
X213900499Y-73821153D01*
X213869738Y-73666510D01*
X213869737Y-73666503D01*
X213869735Y-73666498D01*
X213809397Y-73520827D01*
X213809390Y-73520814D01*
X213721789Y-73389711D01*
X213721786Y-73389707D01*
X213610292Y-73278213D01*
X213610288Y-73278210D01*
X213479185Y-73190609D01*
X213479172Y-73190602D01*
X213333501Y-73130264D01*
X213333489Y-73130261D01*
X213178845Y-73099500D01*
X213178842Y-73099500D01*
X213021158Y-73099500D01*
X213021155Y-73099500D01*
X212866510Y-73130261D01*
X212866498Y-73130264D01*
X212720827Y-73190602D01*
X212720814Y-73190609D01*
X212668891Y-73225304D01*
X212602214Y-73246182D01*
X212534833Y-73227698D01*
X212531109Y-73225304D01*
X212479185Y-73190609D01*
X212479172Y-73190602D01*
X212333501Y-73130264D01*
X212333489Y-73130261D01*
X212178845Y-73099500D01*
X212178842Y-73099500D01*
X212021158Y-73099500D01*
X212021155Y-73099500D01*
X211866510Y-73130261D01*
X211866498Y-73130264D01*
X211720827Y-73190602D01*
X211720814Y-73190609D01*
X211668891Y-73225304D01*
X211602214Y-73246182D01*
X211534833Y-73227698D01*
X211531109Y-73225304D01*
X211479185Y-73190609D01*
X211479172Y-73190602D01*
X211333501Y-73130264D01*
X211333489Y-73130261D01*
X211178845Y-73099500D01*
X211178842Y-73099500D01*
X211021158Y-73099500D01*
X211021155Y-73099500D01*
X210866510Y-73130261D01*
X210866498Y-73130264D01*
X210720827Y-73190602D01*
X210720814Y-73190609D01*
X210589711Y-73278210D01*
X210589707Y-73278213D01*
X210478213Y-73389707D01*
X210478210Y-73389711D01*
X210390609Y-73520814D01*
X210390602Y-73520827D01*
X210330264Y-73666498D01*
X210330261Y-73666510D01*
X210299500Y-73821153D01*
X160500500Y-73821153D01*
X160500500Y-68931902D01*
X210649500Y-68931902D01*
X210649500Y-69168097D01*
X210686446Y-69401368D01*
X210759433Y-69625996D01*
X210866519Y-69836163D01*
X210866657Y-69836433D01*
X211005483Y-70027510D01*
X211172490Y-70194517D01*
X211363567Y-70333343D01*
X211462991Y-70384002D01*
X211574003Y-70440566D01*
X211574005Y-70440566D01*
X211574008Y-70440568D01*
X211694412Y-70479689D01*
X211798631Y-70513553D01*
X212031903Y-70550500D01*
X212031908Y-70550500D01*
X212268097Y-70550500D01*
X212501368Y-70513553D01*
X212502870Y-70513065D01*
X212725992Y-70440568D01*
X212936433Y-70333343D01*
X213127510Y-70194517D01*
X213294517Y-70027510D01*
X213433343Y-69836433D01*
X213540568Y-69625992D01*
X213613553Y-69401368D01*
X213615717Y-69387708D01*
X213650500Y-69168097D01*
X213650500Y-68931947D01*
X215150000Y-68931947D01*
X215150000Y-69168052D01*
X215186934Y-69401247D01*
X215259897Y-69625802D01*
X215367087Y-69836174D01*
X215427338Y-69919104D01*
X215427340Y-69919105D01*
X216126212Y-69220233D01*
X216137482Y-69262292D01*
X216209890Y-69387708D01*
X216312292Y-69490110D01*
X216437708Y-69562518D01*
X216479765Y-69573787D01*
X215780893Y-70272658D01*
X215863828Y-70332914D01*
X216074197Y-70440102D01*
X216298752Y-70513065D01*
X216298751Y-70513065D01*
X216531948Y-70550000D01*
X216768052Y-70550000D01*
X217001247Y-70513065D01*
X217225802Y-70440102D01*
X217436163Y-70332918D01*
X217436169Y-70332914D01*
X217519104Y-70272658D01*
X217519105Y-70272658D01*
X216820233Y-69573787D01*
X216862292Y-69562518D01*
X216987708Y-69490110D01*
X217090110Y-69387708D01*
X217162518Y-69262292D01*
X217173787Y-69220234D01*
X217872658Y-69919105D01*
X217872658Y-69919104D01*
X217932914Y-69836169D01*
X217932918Y-69836163D01*
X218040102Y-69625802D01*
X218113065Y-69401247D01*
X218150000Y-69168052D01*
X218150000Y-68931947D01*
X218113065Y-68698752D01*
X218040102Y-68474197D01*
X217932914Y-68263828D01*
X217872658Y-68180894D01*
X217872658Y-68180893D01*
X217173787Y-68879765D01*
X217162518Y-68837708D01*
X217090110Y-68712292D01*
X216987708Y-68609890D01*
X216862292Y-68537482D01*
X216820234Y-68526212D01*
X217519105Y-67827340D01*
X217519104Y-67827338D01*
X217436174Y-67767087D01*
X217225802Y-67659897D01*
X217001247Y-67586934D01*
X217001248Y-67586934D01*
X216768052Y-67550000D01*
X216531948Y-67550000D01*
X216298752Y-67586934D01*
X216074197Y-67659897D01*
X215863830Y-67767084D01*
X215780894Y-67827340D01*
X216479766Y-68526212D01*
X216437708Y-68537482D01*
X216312292Y-68609890D01*
X216209890Y-68712292D01*
X216137482Y-68837708D01*
X216126212Y-68879766D01*
X215427340Y-68180894D01*
X215367084Y-68263830D01*
X215259897Y-68474197D01*
X215186934Y-68698752D01*
X215150000Y-68931947D01*
X213650500Y-68931947D01*
X213650500Y-68931902D01*
X213613553Y-68698631D01*
X213540566Y-68474003D01*
X213433477Y-68263830D01*
X213433343Y-68263567D01*
X213294517Y-68072490D01*
X213127510Y-67905483D01*
X212936433Y-67766657D01*
X212725996Y-67659433D01*
X212501368Y-67586446D01*
X212268097Y-67549500D01*
X212268092Y-67549500D01*
X212031908Y-67549500D01*
X212031903Y-67549500D01*
X211798631Y-67586446D01*
X211574003Y-67659433D01*
X211363566Y-67766657D01*
X211280047Y-67827338D01*
X211172490Y-67905483D01*
X211172488Y-67905485D01*
X211172487Y-67905485D01*
X211005485Y-68072487D01*
X211005485Y-68072488D01*
X211005483Y-68072490D01*
X210945862Y-68154550D01*
X210866657Y-68263566D01*
X210759433Y-68474003D01*
X210686446Y-68698631D01*
X210649500Y-68931902D01*
X160500500Y-68931902D01*
X160500500Y-62431902D01*
X210649500Y-62431902D01*
X210649500Y-62668097D01*
X210686446Y-62901368D01*
X210759433Y-63125996D01*
X210866519Y-63336163D01*
X210866657Y-63336433D01*
X211005483Y-63527510D01*
X211172490Y-63694517D01*
X211363567Y-63833343D01*
X211462991Y-63884002D01*
X211574003Y-63940566D01*
X211574005Y-63940566D01*
X211574008Y-63940568D01*
X211694412Y-63979689D01*
X211798631Y-64013553D01*
X212031903Y-64050500D01*
X212031908Y-64050500D01*
X212268097Y-64050500D01*
X212501368Y-64013553D01*
X212502870Y-64013065D01*
X212725992Y-63940568D01*
X212936433Y-63833343D01*
X213127510Y-63694517D01*
X213294517Y-63527510D01*
X213433343Y-63336433D01*
X213540568Y-63125992D01*
X213613553Y-62901368D01*
X213615717Y-62887708D01*
X213650500Y-62668097D01*
X213650500Y-62431947D01*
X215150000Y-62431947D01*
X215150000Y-62668052D01*
X215186934Y-62901247D01*
X215259897Y-63125802D01*
X215367087Y-63336174D01*
X215427338Y-63419104D01*
X215427340Y-63419105D01*
X216126212Y-62720233D01*
X216137482Y-62762292D01*
X216209890Y-62887708D01*
X216312292Y-62990110D01*
X216437708Y-63062518D01*
X216479765Y-63073787D01*
X215780893Y-63772658D01*
X215863828Y-63832914D01*
X216074197Y-63940102D01*
X216298752Y-64013065D01*
X216298751Y-64013065D01*
X216531948Y-64050000D01*
X216768052Y-64050000D01*
X217001247Y-64013065D01*
X217225802Y-63940102D01*
X217436163Y-63832918D01*
X217436169Y-63832914D01*
X217519104Y-63772658D01*
X217519105Y-63772658D01*
X216820233Y-63073787D01*
X216862292Y-63062518D01*
X216987708Y-62990110D01*
X217090110Y-62887708D01*
X217162518Y-62762292D01*
X217173787Y-62720233D01*
X217872658Y-63419105D01*
X217872658Y-63419104D01*
X217932914Y-63336169D01*
X217932918Y-63336163D01*
X218040102Y-63125802D01*
X218113065Y-62901247D01*
X218150000Y-62668052D01*
X218150000Y-62431947D01*
X218113065Y-62198752D01*
X218040102Y-61974197D01*
X217932914Y-61763828D01*
X217872658Y-61680894D01*
X217872658Y-61680893D01*
X217173787Y-62379765D01*
X217162518Y-62337708D01*
X217090110Y-62212292D01*
X216987708Y-62109890D01*
X216862292Y-62037482D01*
X216820234Y-62026212D01*
X217519105Y-61327340D01*
X217519104Y-61327338D01*
X217436174Y-61267087D01*
X217225802Y-61159897D01*
X217001247Y-61086934D01*
X217001248Y-61086934D01*
X216768052Y-61050000D01*
X216531948Y-61050000D01*
X216298752Y-61086934D01*
X216074197Y-61159897D01*
X215863830Y-61267084D01*
X215780894Y-61327340D01*
X216479766Y-62026212D01*
X216437708Y-62037482D01*
X216312292Y-62109890D01*
X216209890Y-62212292D01*
X216137482Y-62337708D01*
X216126212Y-62379766D01*
X215427340Y-61680894D01*
X215367084Y-61763830D01*
X215259897Y-61974197D01*
X215186934Y-62198752D01*
X215150000Y-62431947D01*
X213650500Y-62431947D01*
X213650500Y-62431902D01*
X213613553Y-62198631D01*
X213540566Y-61974003D01*
X213433477Y-61763830D01*
X213433343Y-61763567D01*
X213294517Y-61572490D01*
X213127510Y-61405483D01*
X212936433Y-61266657D01*
X212725996Y-61159433D01*
X212501368Y-61086446D01*
X212268097Y-61049500D01*
X212268092Y-61049500D01*
X212031908Y-61049500D01*
X212031903Y-61049500D01*
X211798631Y-61086446D01*
X211574003Y-61159433D01*
X211363566Y-61266657D01*
X211280047Y-61327338D01*
X211172490Y-61405483D01*
X211172488Y-61405485D01*
X211172487Y-61405485D01*
X211005485Y-61572487D01*
X211005485Y-61572488D01*
X211005483Y-61572490D01*
X210945862Y-61654550D01*
X210866657Y-61763566D01*
X210759433Y-61974003D01*
X210686446Y-62198631D01*
X210649500Y-62431902D01*
X160500500Y-62431902D01*
X160500500Y-48509713D01*
X211509500Y-48509713D01*
X211509500Y-48722286D01*
X211542753Y-48932239D01*
X211608444Y-49134414D01*
X211704951Y-49323820D01*
X211829890Y-49495786D01*
X211980213Y-49646109D01*
X212152182Y-49771050D01*
X212160946Y-49775516D01*
X212211742Y-49823491D01*
X212228536Y-49891312D01*
X212205998Y-49957447D01*
X212160946Y-49996484D01*
X212152182Y-50000949D01*
X211980213Y-50125890D01*
X211829890Y-50276213D01*
X211704951Y-50448179D01*
X211608444Y-50637585D01*
X211542753Y-50839760D01*
X211509500Y-51049713D01*
X211509500Y-51262286D01*
X211542753Y-51472239D01*
X211608444Y-51674414D01*
X211704951Y-51863820D01*
X211829890Y-52035786D01*
X211980213Y-52186109D01*
X212152182Y-52311050D01*
X212160946Y-52315516D01*
X212211742Y-52363491D01*
X212228536Y-52431312D01*
X212205998Y-52497447D01*
X212160946Y-52536484D01*
X212152182Y-52540949D01*
X211980213Y-52665890D01*
X211829890Y-52816213D01*
X211704951Y-52988179D01*
X211608444Y-53177585D01*
X211542753Y-53379760D01*
X211509500Y-53589713D01*
X211509500Y-53802286D01*
X211542753Y-54012239D01*
X211608444Y-54214414D01*
X211704951Y-54403820D01*
X211829890Y-54575786D01*
X211980213Y-54726109D01*
X212152179Y-54851048D01*
X212152181Y-54851049D01*
X212152184Y-54851051D01*
X212341588Y-54947557D01*
X212543757Y-55013246D01*
X212753713Y-55046500D01*
X212753714Y-55046500D01*
X212966286Y-55046500D01*
X212966287Y-55046500D01*
X213176243Y-55013246D01*
X213378412Y-54947557D01*
X213567816Y-54851051D01*
X213589789Y-54835086D01*
X213739786Y-54726109D01*
X213739788Y-54726106D01*
X213739792Y-54726104D01*
X213890104Y-54575792D01*
X213890106Y-54575788D01*
X213890109Y-54575786D01*
X214015048Y-54403820D01*
X214015047Y-54403820D01*
X214015051Y-54403816D01*
X214019514Y-54395054D01*
X214067488Y-54344259D01*
X214135308Y-54327463D01*
X214201444Y-54349999D01*
X214240486Y-54395056D01*
X214244951Y-54403820D01*
X214369890Y-54575786D01*
X214520213Y-54726109D01*
X214692179Y-54851048D01*
X214692181Y-54851049D01*
X214692184Y-54851051D01*
X214881588Y-54947557D01*
X215083757Y-55013246D01*
X215293713Y-55046500D01*
X215293714Y-55046500D01*
X215506286Y-55046500D01*
X215506287Y-55046500D01*
X215716243Y-55013246D01*
X215918412Y-54947557D01*
X216107816Y-54851051D01*
X216129789Y-54835086D01*
X216279786Y-54726109D01*
X216279788Y-54726106D01*
X216279792Y-54726104D01*
X216430104Y-54575792D01*
X216430106Y-54575788D01*
X216430109Y-54575786D01*
X216555048Y-54403820D01*
X216555047Y-54403820D01*
X216555051Y-54403816D01*
X216651557Y-54214412D01*
X216717246Y-54012243D01*
X216750500Y-53802287D01*
X216750500Y-53589713D01*
X216717246Y-53379757D01*
X216651557Y-53177588D01*
X216555051Y-52988184D01*
X216555049Y-52988181D01*
X216555048Y-52988179D01*
X216430109Y-52816213D01*
X216279786Y-52665890D01*
X216107820Y-52540951D01*
X216107115Y-52540591D01*
X216099054Y-52536485D01*
X216048259Y-52488512D01*
X216031463Y-52420692D01*
X216053999Y-52354556D01*
X216099054Y-52315515D01*
X216107816Y-52311051D01*
X216129789Y-52295086D01*
X216279786Y-52186109D01*
X216279788Y-52186106D01*
X216279792Y-52186104D01*
X216430104Y-52035792D01*
X216430106Y-52035788D01*
X216430109Y-52035786D01*
X216555048Y-51863820D01*
X216555047Y-51863820D01*
X216555051Y-51863816D01*
X216651557Y-51674412D01*
X216717246Y-51472243D01*
X216750500Y-51262287D01*
X216750500Y-51049713D01*
X216717246Y-50839757D01*
X216651557Y-50637588D01*
X216555051Y-50448184D01*
X216555049Y-50448181D01*
X216555048Y-50448179D01*
X216430109Y-50276213D01*
X216316569Y-50162673D01*
X216283084Y-50101350D01*
X216288068Y-50031658D01*
X216329940Y-49975725D01*
X216360915Y-49958810D01*
X216492331Y-49909796D01*
X216607546Y-49823546D01*
X216693796Y-49708331D01*
X216744091Y-49573483D01*
X216750500Y-49513873D01*
X216750499Y-47718128D01*
X216744091Y-47658517D01*
X216742810Y-47655083D01*
X216693797Y-47523671D01*
X216693793Y-47523664D01*
X216607547Y-47408455D01*
X216607544Y-47408452D01*
X216492335Y-47322206D01*
X216492328Y-47322202D01*
X216357482Y-47271908D01*
X216357483Y-47271908D01*
X216297883Y-47265501D01*
X216297881Y-47265500D01*
X216297873Y-47265500D01*
X216297864Y-47265500D01*
X214502129Y-47265500D01*
X214502123Y-47265501D01*
X214442516Y-47271908D01*
X214307671Y-47322202D01*
X214307664Y-47322206D01*
X214192455Y-47408452D01*
X214192452Y-47408455D01*
X214106206Y-47523664D01*
X214106203Y-47523669D01*
X214057189Y-47655083D01*
X214015317Y-47711016D01*
X213949853Y-47735433D01*
X213881580Y-47720581D01*
X213853326Y-47699430D01*
X213739786Y-47585890D01*
X213567820Y-47460951D01*
X213378414Y-47364444D01*
X213378413Y-47364443D01*
X213378412Y-47364443D01*
X213176243Y-47298754D01*
X213176241Y-47298753D01*
X213176240Y-47298753D01*
X213014957Y-47273208D01*
X212966287Y-47265500D01*
X212753713Y-47265500D01*
X212705042Y-47273208D01*
X212543760Y-47298753D01*
X212341585Y-47364444D01*
X212152179Y-47460951D01*
X211980213Y-47585890D01*
X211829890Y-47736213D01*
X211704951Y-47908179D01*
X211608444Y-48097585D01*
X211542753Y-48299760D01*
X211509500Y-48509713D01*
X160500500Y-48509713D01*
X160500500Y-31006961D01*
X160501280Y-30993077D01*
X160501741Y-30988986D01*
X160511459Y-30902731D01*
X160517635Y-30875670D01*
X160545353Y-30796456D01*
X160557396Y-30771450D01*
X160602046Y-30700389D01*
X160619351Y-30678690D01*
X160678690Y-30619351D01*
X160700389Y-30602046D01*
X160771450Y-30557396D01*
X160796456Y-30545353D01*
X160875670Y-30517635D01*
X160902733Y-30511459D01*
X160965419Y-30504396D01*
X160993079Y-30501280D01*
X161006962Y-30500500D01*
X161065892Y-30500500D01*
X218634108Y-30500500D01*
X218696948Y-30500500D01*
X218703032Y-30500649D01*
G37*
G04 #@! TD.AperFunction*
M02*
